<svg id="Capa_1" enable-background="new 0 0 511.863 511.863" height="512" viewBox="0 0 511.863 511.863" width="512" xmlns="http://www.w3.org/2000/svg"><g><path d="m157.714 417.816c-1.713 0-3.102 1.389-3.102 3.103 0 1.713 1.389 3.102 3.102 3.102s3.102-1.389 3.102-3.102-1.388-3.103-3.102-3.103z"/><path d="m157.714 437.816c-1.713 0-3.102 1.389-3.102 3.103 0 1.713 1.389 3.102 3.102 3.102s3.102-1.389 3.102-3.102-1.388-3.103-3.102-3.103z"/><path d="m168.091 453.645c1.713 0 3.102-1.389 3.102-3.102s-1.389-3.103-3.102-3.103-3.102 1.389-3.102 3.103c-.001 1.713 1.388 3.102 3.102 3.102z"/><path d="m157.714 457.816c-1.713 0-3.102 1.389-3.102 3.103 0 1.713 1.389 3.102 3.102 3.102s3.102-1.389 3.102-3.102-1.388-3.103-3.102-3.103z"/><path d="m157.714 477.816c-1.713 0-3.102 1.389-3.102 3.103 0 1.713 1.389 3.102 3.102 3.102s3.102-1.389 3.102-3.102-1.388-3.103-3.102-3.103z"/><path d="m137.714 264.021c1.713 0 3.102-1.389 3.102-3.102s-1.389-3.103-3.102-3.103-3.102 1.389-3.102 3.103c0 1.713 1.389 3.102 3.102 3.102z"/><path d="m137.714 284.021c1.713 0 3.102-1.389 3.102-3.102s-1.389-3.103-3.102-3.103-3.102 1.389-3.102 3.103c0 1.713 1.389 3.102 3.102 3.102z"/><path d="m137.714 377.816c-1.713 0-3.102 1.389-3.102 3.103 0 1.713 1.389 3.102 3.102 3.102s3.102-1.389 3.102-3.102-1.388-3.103-3.102-3.103z"/><path d="m137.714 397.816c-1.713 0-3.102 1.389-3.102 3.103 0 1.713 1.389 3.102 3.102 3.102s3.102-1.389 3.102-3.102-1.388-3.103-3.102-3.103z"/><path d="m148.091 407.44c-1.713 0-3.102 1.389-3.102 3.103 0 1.713 1.389 3.102 3.102 3.102s3.102-1.389 3.102-3.102c0-1.714-1.389-3.103-3.102-3.103z"/><path d="m137.714 417.816c-1.713 0-3.102 1.389-3.102 3.103 0 1.713 1.389 3.102 3.102 3.102s3.102-1.389 3.102-3.102-1.388-3.103-3.102-3.103z"/><path d="m148.091 427.44c-1.713 0-3.102 1.389-3.102 3.103 0 1.713 1.389 3.102 3.102 3.102s3.102-1.389 3.102-3.102c0-1.714-1.389-3.103-3.102-3.103z"/><path d="m137.714 437.816c-1.713 0-3.102 1.389-3.102 3.103 0 1.713 1.389 3.102 3.102 3.102s3.102-1.389 3.102-3.102-1.388-3.103-3.102-3.103z"/><path d="m148.091 447.44c-1.713 0-3.102 1.389-3.102 3.103 0 1.713 1.389 3.102 3.102 3.102s3.102-1.389 3.102-3.102c0-1.714-1.389-3.103-3.102-3.103z"/><path d="m137.714 457.816c-1.713 0-3.102 1.389-3.102 3.103 0 1.713 1.389 3.102 3.102 3.102s3.102-1.389 3.102-3.102-1.388-3.103-3.102-3.103z"/><path d="m148.091 467.44c-1.713 0-3.102 1.389-3.102 3.103 0 1.713 1.389 3.102 3.102 3.102s3.102-1.389 3.102-3.102c0-1.714-1.389-3.103-3.102-3.103z"/><path d="m137.714 477.816c-1.713 0-3.102 1.389-3.102 3.103 0 1.713 1.389 3.102 3.102 3.102s3.102-1.389 3.102-3.102-1.388-3.103-3.102-3.103z"/><path d="m148.091 487.44c-1.713 0-3.102 1.389-3.102 3.103 0 1.713 1.389 3.102 3.102 3.102s3.102-1.389 3.102-3.102c0-1.714-1.389-3.103-3.102-3.103z"/><path d="m128.467 273.606c1.534-.188 2.726-1.48 2.726-3.064 0-.884-.374-1.677-.968-2.242-.613 1.757-1.198 3.526-1.758 5.306z"/><path d="m128.091 287.44c-1.713 0-3.102 1.389-3.102 3.103 0 1.713 1.389 3.102 3.102 3.102s3.102-1.389 3.102-3.102c0-1.714-1.389-3.103-3.102-3.103z"/><path d="m128.091 307.44c-1.713 0-3.102 1.389-3.102 3.103 0 1.713 1.389 3.102 3.102 3.102s3.102-1.389 3.102-3.102c0-1.714-1.389-3.103-3.102-3.103z"/><path d="m120.27 322.674c.344-.5.547-1.103.547-1.755 0-.555-.158-1.068-.413-1.519-.05 1.09-.104 2.179-.134 3.274z"/><path d="m128.091 327.44c-1.713 0-3.102 1.389-3.102 3.103 0 1.713 1.389 3.102 3.102 3.102s3.102-1.389 3.102-3.102c0-1.714-1.389-3.103-3.102-3.103z"/><path d="m120.733 341.609c.051-.223.083-.452.083-.69 0-.375-.077-.73-.199-1.062.04.583.072 1.169.116 1.752z"/><path d="m128.091 347.44c-1.713 0-3.102 1.389-3.102 3.103 0 1.713 1.389 3.102 3.102 3.102s3.102-1.389 3.102-3.102c0-1.714-1.389-3.103-3.102-3.103z"/><path d="m128.091 367.44c-1.624 0-2.941 1.252-3.076 2.84.084.501.156 1.003.237 1.505.479 1.094 1.569 1.859 2.839 1.859 1.713 0 3.102-1.389 3.102-3.102s-1.389-3.102-3.102-3.102z"/><path d="m128.091 387.44c-.313 0-.61.061-.895.147.165 2.001.3 4.004.405 6.008.161.025.322.049.49.049 1.713 0 3.102-1.389 3.102-3.102s-1.389-3.102-3.102-3.102z"/><path d="m128.091 407.44c-.088 0-.17.019-.256.026-.035 2.046-.102 4.09-.201 6.133.15.022.3.046.457.046 1.713 0 3.102-1.389 3.102-3.102 0-1.714-1.389-3.103-3.102-3.103z"/><path d="m128.091 427.44c-.623 0-1.2.188-1.686.503-.191 1.55-.402 3.098-.631 4.644.568.643 1.39 1.058 2.317 1.058 1.713 0 3.102-1.389 3.102-3.102 0-1.714-1.389-3.103-3.102-3.103z"/><path d="m128.091 447.44c-1.713 0-3.102 1.389-3.102 3.103 0 1.713 1.389 3.102 3.102 3.102s3.102-1.389 3.102-3.102c0-1.714-1.389-3.103-3.102-3.103z"/><path d="m119.701 459.746c-.431 1.415-.868 2.811-1.309 4.196 1.386-.311 2.424-1.543 2.424-3.023 0-.821-.325-1.562-.845-2.117-.093.314-.174.63-.27.944z"/><path d="m128.091 467.44c-1.713 0-3.102 1.389-3.102 3.103 0 1.713 1.389 3.102 3.102 3.102s3.102-1.389 3.102-3.102c0-1.714-1.389-3.103-3.102-3.103z"/><path d="m117.714 477.816c-1.713 0-3.102 1.389-3.102 3.103 0 1.713 1.389 3.102 3.102 3.102s3.102-1.389 3.102-3.102-1.389-3.103-3.102-3.103z"/><path d="m128.091 487.44c-1.713 0-3.102 1.389-3.102 3.103 0 1.713 1.389 3.102 3.102 3.102s3.102-1.389 3.102-3.102c0-1.714-1.389-3.103-3.102-3.103z"/><path d="m109.478 487.781c-.865 1.939-1.743 3.809-2.636 5.597.383.169.804.266 1.249.266 1.713 0 3.102-1.389 3.102-3.102 0-1.211-.702-2.25-1.715-2.761z"/><path d="m483.832 278.856c-1.713 0-3.102 1.389-3.102 3.103 0 1.713 1.389 3.102 3.102 3.102s3.102-1.389 3.102-3.102c.001-1.714-1.389-3.103-3.102-3.103z"/><path d="m483.832 298.856c-1.713 0-3.102 1.389-3.102 3.103 0 1.713 1.389 3.102 3.102 3.102s3.102-1.389 3.102-3.102c.001-1.714-1.389-3.103-3.102-3.103z"/><path d="m483.832 318.856c-1.713 0-3.102 1.389-3.102 3.103 0 1.713 1.389 3.102 3.102 3.102s3.102-1.389 3.102-3.102c.001-1.714-1.389-3.103-3.102-3.103z"/><path d="m494.209 328.479c-1.713 0-3.102 1.389-3.102 3.102s1.389 3.103 3.102 3.103 3.102-1.389 3.102-3.103c0-1.712-1.389-3.102-3.102-3.102z"/><path d="m483.832 338.856c-1.713 0-3.102 1.389-3.102 3.103 0 1.713 1.389 3.102 3.102 3.102s3.102-1.389 3.102-3.102c.001-1.714-1.389-3.103-3.102-3.103z"/><path d="m483.832 358.856c-1.713 0-3.102 1.389-3.102 3.103 0 1.713 1.389 3.102 3.102 3.102s3.102-1.389 3.102-3.102c.001-1.714-1.389-3.103-3.102-3.103z"/><path d="m483.832 378.856c-1.713 0-3.102 1.389-3.102 3.103 0 1.713 1.389 3.102 3.102 3.102s3.102-1.389 3.102-3.102c.001-1.714-1.389-3.103-3.102-3.103z"/><path d="m463.832 238.856c-.017 0-.034.005-.051.005.565 1.91 1.098 3.834 1.602 5.77.923-.538 1.551-1.527 1.551-2.672.001-1.714-1.389-3.103-3.102-3.103z"/><path d="m474.209 248.48c-1.713 0-3.102 1.389-3.102 3.102s1.389 3.103 3.102 3.103 3.102-1.389 3.102-3.103c0-1.713-1.389-3.102-3.102-3.102z"/><path d="m474.209 268.479c-1.713 0-3.102 1.389-3.102 3.102s1.389 3.103 3.102 3.103 3.102-1.389 3.102-3.103c0-1.712-1.389-3.102-3.102-3.102z"/><path d="m474.209 288.479c-1.493 0-2.739 1.056-3.034 2.461-.002.391-.01.779-.015 1.169.251 1.461 1.517 2.575 3.049 2.575 1.713 0 3.102-1.389 3.102-3.103 0-1.712-1.389-3.102-3.102-3.102z"/><path d="m474.209 308.479c-1.713 0-3.102 1.389-3.102 3.102s1.389 3.103 3.102 3.103 3.102-1.389 3.102-3.103c0-1.712-1.389-3.102-3.102-3.102z"/><path d="m474.209 328.479c-1.713 0-3.102 1.389-3.102 3.102s1.389 3.103 3.102 3.103 3.102-1.389 3.102-3.103c0-1.712-1.389-3.102-3.102-3.102z"/><path d="m464.476 338.925c-.558 1.986-1.155 3.956-1.779 5.914.352.139.734.221 1.135.221 1.713 0 3.102-1.389 3.102-3.102.001-1.492-1.054-2.736-2.458-3.033z"/><path d="m474.209 348.479c-1.713 0-3.102 1.389-3.102 3.102s1.389 3.103 3.102 3.103 3.102-1.389 3.102-3.103c0-1.712-1.389-3.102-3.102-3.102z"/><path d="m463.832 358.856c-1.713 0-3.102 1.389-3.102 3.103 0 1.713 1.389 3.102 3.102 3.102s3.102-1.389 3.102-3.102c.001-1.714-1.389-3.103-3.102-3.103z"/><path d="m474.209 368.479c-1.713 0-3.102 1.389-3.102 3.102s1.389 3.103 3.102 3.103 3.102-1.389 3.102-3.103c0-1.712-1.389-3.102-3.102-3.102z"/><path d="m463.832 378.856c-1.713 0-3.102 1.389-3.102 3.103 0 1.713 1.389 3.102 3.102 3.102s3.102-1.389 3.102-3.102c.001-1.714-1.389-3.103-3.102-3.103z"/><path d="m474.209 388.479c-1.713 0-3.102 1.389-3.102 3.102s1.389 3.103 3.102 3.103 3.102-1.389 3.102-3.103c0-1.712-1.389-3.102-3.102-3.102z"/><path d="m463.832 398.856c-1.713 0-3.102 1.389-3.102 3.103 0 1.713 1.389 3.102 3.102 3.102s3.102-1.389 3.102-3.102c.001-1.714-1.389-3.103-3.102-3.103z"/><path d="m463.832 418.856c-1.713 0-3.102 1.389-3.102 3.103 0 1.713 1.389 3.102 3.102 3.102s3.102-1.389 3.102-3.102c.001-1.714-1.389-3.103-3.102-3.103z"/><path d="m454.209 368.479c-.365 0-.709.075-1.034.19-.624 1.285-1.261 2.561-1.915 3.828.393 1.263 1.557 2.187 2.949 2.187 1.713 0 3.102-1.389 3.102-3.103 0-1.712-1.389-3.102-3.102-3.102z"/><path d="m444.142 385.029c1.566-.158 2.793-1.464 2.793-3.071 0-.416-.085-.811-.233-1.173-.834 1.428-1.689 2.842-2.56 4.244z"/><path d="m454.209 388.479c-1.713 0-3.102 1.389-3.102 3.102s1.389 3.103 3.102 3.103 3.102-1.389 3.102-3.103c0-1.712-1.389-3.102-3.102-3.102z"/><path d="m443.832 398.856c-1.713 0-3.102 1.389-3.102 3.103 0 1.713 1.389 3.102 3.102 3.102s3.102-1.389 3.102-3.102c.001-1.714-1.389-3.103-3.102-3.103z"/><path d="m454.209 408.479c-1.713 0-3.102 1.389-3.102 3.102s1.389 3.103 3.102 3.103 3.102-1.389 3.102-3.103c0-1.712-1.389-3.102-3.102-3.102z"/><path d="m443.832 418.856c-1.713 0-3.102 1.389-3.102 3.103 0 1.713 1.389 3.102 3.102 3.102s3.102-1.389 3.102-3.102c.001-1.714-1.389-3.103-3.102-3.103z"/><path d="m454.209 428.479c-1.713 0-3.102 1.389-3.102 3.102s1.389 3.103 3.102 3.103 3.102-1.389 3.102-3.103c0-1.712-1.389-3.102-3.102-3.102z"/><path d="m443.832 438.856c-1.713 0-3.102 1.389-3.102 3.103 0 1.713 1.389 3.102 3.102 3.102s3.102-1.389 3.102-3.102c.001-1.714-1.389-3.103-3.102-3.103z"/><path d="m434.209 408.479c-1.713 0-3.102 1.389-3.102 3.102s1.389 3.103 3.102 3.103 3.102-1.389 3.102-3.103c0-1.712-1.389-3.102-3.102-3.102z"/><path d="m423.832 418.856c-1.713 0-3.102 1.389-3.102 3.103 0 1.713 1.389 3.102 3.102 3.102s3.102-1.389 3.102-3.102c.001-1.714-1.389-3.103-3.102-3.103z"/><path d="m434.209 428.479c-1.713 0-3.102 1.389-3.102 3.102s1.389 3.103 3.102 3.103 3.102-1.389 3.102-3.103c0-1.712-1.389-3.102-3.102-3.102z"/><path d="m423.832 438.856c-1.713 0-3.102 1.389-3.102 3.103 0 1.713 1.389 3.102 3.102 3.102s3.102-1.389 3.102-3.102c.001-1.714-1.389-3.103-3.102-3.103z"/><path d="m434.209 448.479c-1.713 0-3.102 1.389-3.102 3.102s1.389 3.103 3.102 3.103 3.102-1.389 3.102-3.103c0-1.712-1.389-3.102-3.102-3.102z"/><path d="m423.832 458.856c-1.713 0-3.102 1.389-3.102 3.103 0 1.713 1.389 3.102 3.102 3.102s3.102-1.389 3.102-3.102c.001-1.714-1.389-3.103-3.102-3.103z"/><path d="m414.209 428.479c-1.713 0-3.102 1.389-3.102 3.102s1.389 3.103 3.102 3.103 3.102-1.389 3.102-3.103c0-1.712-1.389-3.102-3.102-3.102z"/><path d="m403.832 438.856c-1.713 0-3.102 1.389-3.102 3.103 0 1.713 1.389 3.102 3.102 3.102s3.102-1.389 3.102-3.102c.001-1.714-1.389-3.103-3.102-3.103z"/><path d="m414.209 448.479c-1.713 0-3.102 1.389-3.102 3.102s1.389 3.103 3.102 3.103 3.102-1.389 3.102-3.103c0-1.712-1.389-3.102-3.102-3.102z"/><path d="m403.832 458.856c-1.713 0-3.102 1.389-3.102 3.103 0 1.713 1.389 3.102 3.102 3.102s3.102-1.389 3.102-3.102c.001-1.714-1.389-3.103-3.102-3.103z"/><path d="m414.209 468.479c-1.713 0-3.102 1.389-3.102 3.102s1.389 3.103 3.102 3.103 3.102-1.389 3.102-3.103c0-1.712-1.389-3.102-3.102-3.102z"/><path d="m386.85 442.653c-1.245.784-2.5 1.553-3.766 2.307.241.06.489.101.748.101 1.474-.001 2.701-1.03 3.018-2.408z"/><path d="m394.209 448.479c-1.713 0-3.102 1.389-3.102 3.102s1.389 3.103 3.102 3.103 3.102-1.389 3.102-3.103c0-1.712-1.389-3.102-3.102-3.102z"/><path d="m383.832 458.856c-1.713 0-3.102 1.389-3.102 3.103 0 1.713 1.389 3.102 3.102 3.102s3.102-1.389 3.102-3.102c.001-1.714-1.389-3.103-3.102-3.103z"/><path d="m394.209 468.479c-1.713 0-3.102 1.389-3.102 3.102s1.389 3.103 3.102 3.103 3.102-1.389 3.102-3.103c0-1.712-1.389-3.102-3.102-3.102z"/><path d="m383.832 478.856c-1.713 0-3.102 1.389-3.102 3.103 0 1.713 1.389 3.102 3.102 3.102s3.102-1.389 3.102-3.102c.001-1.714-1.389-3.103-3.102-3.103z"/><path d="m375.933 449.004c-1.591.852-3.198 1.678-4.817 2.483-.001.032-.01.062-.01.095 0 1.713 1.389 3.103 3.102 3.103s3.102-1.389 3.102-3.103c.001-1.075-.546-2.022-1.377-2.578z"/><path d="m363.832 458.856c-1.713 0-3.102 1.389-3.102 3.103 0 1.713 1.389 3.102 3.102 3.102s3.102-1.389 3.102-3.102c.001-1.714-1.389-3.103-3.102-3.103z"/><path d="m374.209 468.479c-1.713 0-3.102 1.389-3.102 3.102s1.389 3.103 3.102 3.103 3.102-1.389 3.102-3.103c0-1.712-1.389-3.102-3.102-3.102z"/><path d="m363.832 478.856c-1.713 0-3.102 1.389-3.102 3.103 0 1.713 1.389 3.102 3.102 3.102s3.102-1.389 3.102-3.102c.001-1.714-1.389-3.103-3.102-3.103z"/><path d="m374.209 488.479c-1.713 0-3.102 1.389-3.102 3.102s1.389 3.103 3.102 3.103 3.102-1.389 3.102-3.103c0-1.712-1.389-3.102-3.102-3.102z"/><path d="m340.999 463.212c.482 1.087 1.567 1.848 2.833 1.848 1.713 0 3.102-1.389 3.102-3.102 0-.191-.023-.376-.056-.557-1.946.635-3.904 1.242-5.879 1.811z"/><path d="m354.209 468.479c-1.713 0-3.102 1.389-3.102 3.102s1.389 3.103 3.102 3.103 3.102-1.389 3.102-3.103c0-1.712-1.389-3.102-3.102-3.102z"/><path d="m343.832 478.856c-1.713 0-3.102 1.389-3.102 3.103 0 1.713 1.389 3.102 3.102 3.102s3.102-1.389 3.102-3.102c.001-1.714-1.389-3.103-3.102-3.103z"/><path d="m354.209 488.479c-1.713 0-3.102 1.389-3.102 3.102s1.389 3.103 3.102 3.103 3.102-1.389 3.102-3.103c0-1.712-1.389-3.102-3.102-3.102z"/><path d="m334.209 468.479c-1.713 0-3.102 1.389-3.102 3.102s1.389 3.103 3.102 3.103 3.102-1.389 3.102-3.103c0-1.712-1.389-3.102-3.102-3.102z"/><path d="m323.832 478.856c-1.713 0-3.102 1.389-3.102 3.103 0 1.713 1.389 3.102 3.102 3.102s3.102-1.389 3.102-3.102c.001-1.714-1.389-3.103-3.102-3.103z"/><path d="m334.209 488.479c-1.713 0-3.102 1.389-3.102 3.102s1.389 3.103 3.102 3.103 3.102-1.389 3.102-3.103c0-1.712-1.389-3.102-3.102-3.102z"/><path d="m315.131 468.635c-.852.114-1.706.221-2.561.323-.876.548-1.463 1.515-1.463 2.624 0 1.713 1.389 3.103 3.102 3.103s3.102-1.389 3.102-3.103c0-1.39-.92-2.553-2.18-2.947z"/><path d="m303.832 478.856c-1.713 0-3.102 1.389-3.102 3.103 0 1.713 1.389 3.102 3.102 3.102s3.102-1.389 3.102-3.102c.001-1.714-1.389-3.103-3.102-3.103z"/><path d="m314.209 488.479c-1.713 0-3.102 1.389-3.102 3.102s1.389 3.103 3.102 3.103 3.102-1.389 3.102-3.103c0-1.712-1.389-3.102-3.102-3.102z"/><path d="m291.422 470.242c-.196.407-.315.857-.315 1.339 0 1.713 1.389 3.103 3.102 3.103s3.102-1.389 3.102-3.103c0-.523-.142-1.009-.371-1.442-1.833.06-3.672.099-5.518.103z"/><path d="m283.832 478.856c-1.713 0-3.102 1.389-3.102 3.103 0 1.713 1.389 3.102 3.102 3.102s3.102-1.389 3.102-3.102c.001-1.714-1.389-3.103-3.102-3.103z"/><path d="m294.209 488.479c-1.713 0-3.102 1.389-3.102 3.102s1.389 3.103 3.102 3.103 3.102-1.389 3.102-3.103c0-1.712-1.389-3.102-3.102-3.102z"/><path d="m272.166 469.264c-.645.568-1.059 1.391-1.059 2.318 0 1.713 1.389 3.103 3.102 3.103s3.102-1.389 3.102-3.103c0-.724-.258-1.381-.674-1.909-1.495-.118-2.986-.255-4.471-.409z"/><path d="m263.832 478.856c-1.713 0-3.102 1.389-3.102 3.103 0 1.713 1.389 3.102 3.102 3.102s3.102-1.389 3.102-3.102c.001-1.714-1.389-3.103-3.102-3.103z"/><path d="m274.209 488.479c-1.713 0-3.102 1.389-3.102 3.102s1.389 3.103 3.102 3.103 3.102-1.389 3.102-3.103c0-1.712-1.389-3.102-3.102-3.102z"/><path d="m243.832 465.06c.675 0 1.295-.222 1.805-.588-1.556-.404-3.104-.826-4.643-1.271.479 1.094 1.568 1.859 2.838 1.859z"/><path d="m254.209 468.479c-1.713 0-3.102 1.389-3.102 3.102s1.389 3.103 3.102 3.103 3.102-1.389 3.102-3.103c0-1.712-1.389-3.102-3.102-3.102z"/><path d="m243.832 478.856c-1.713 0-3.102 1.389-3.102 3.103 0 1.713 1.389 3.102 3.102 3.102s3.102-1.389 3.102-3.102c.001-1.714-1.389-3.103-3.102-3.103z"/><path d="m223.832 458.856c-1.713 0-3.102 1.389-3.102 3.103 0 1.713 1.389 3.102 3.102 3.102s3.102-1.389 3.102-3.102c.001-1.714-1.389-3.103-3.102-3.103z"/><path d="m234.209 468.479c-1.713 0-3.102 1.389-3.102 3.102s1.389 3.103 3.102 3.103 3.102-1.389 3.102-3.103c0-1.712-1.389-3.102-3.102-3.102z"/><path d="m214.209 454.684c.732 0 1.396-.264 1.926-.688-1.691-.774-3.365-1.581-5.027-2.405.005 1.709 1.391 3.093 3.101 3.093z"/><path d="m321.688 143.495c-59.015 0-111.63 27.904-145.361 71.206-5.726-12.811-12.005-22.209-17.558-30.51-7.273-10.873-12.528-18.729-12.528-28.477 0-14.66 6.759-23.902 10.797-29.425.838-1.146 1.561-2.135 2.121-3.031 2.076-3.321 12.43-20.944 12.43-41.837 0-9.023-2.716-29.187-12.893-47.526-12.253-22.08-31.206-33.798-54.736-33.889l-.325-.006c-23.605.092-42.577 11.81-54.869 33.887-10.229 18.373-12.958 38.524-12.958 47.534 0 20.893 10.354 38.516 12.43 41.837.56.896 1.283 1.886 2.121 3.031 4.038 5.522 10.797 14.765 10.797 29.425 0 9.748-5.255 17.604-12.528 28.477-5.647 8.442-12.048 18.011-17.851 31.159-11.993 27.162-24.786 60.237-24.786 109.152 0 24.594 4.717 62.812 12.016 97.366 5.131 24.286 16.149 68.065 32.305 88.398l1.201 1.512h104.37l1.201-1.512c11.163-14.051 19.87-39.291 25.88-61.564 33.789 38.681 83.449 63.161 138.723 63.161 101.56 0 184.185-82.625 184.185-184.185s-82.625-184.183-184.184-184.183zm-277.88-62.074c0-15.455 10.151-73.192 59.812-73.421l.236.005c49.595.193 59.732 57.958 59.732 73.416 0 19.104-10.065 35.76-11.213 37.597-.406.65-1.05 1.53-1.795 2.549-1.128 1.543-2.512 3.443-3.938 5.704h-85.888c-1.426-2.26-2.81-4.161-3.938-5.704-.745-1.019-1.389-1.899-1.795-2.549-1.148-1.837-11.213-18.493-11.213-37.597zm11.468 107.218c4.663-6.971 8.725-13.063 11.232-19.458h74.379c2.507 6.396 6.569 12.488 11.232 19.458 3.93 5.875 8.235 12.32 12.397 20.123h-121.637c4.163-7.804 8.468-14.249 12.397-20.123zm83.644 315.139c1.115-.471 1.897-1.573 1.897-2.859 0-1.713-1.389-3.103-3.102-3.103s-3.102 1.389-3.102 3.103c0 1.286.782 2.388 1.897 2.859h-17.59c1.115-.471 1.897-1.573 1.897-2.859 0-1.713-1.389-3.103-3.102-3.103s-3.102 1.389-3.102 3.103c0 1.286.782 2.388 1.897 2.859h-61.09c-25.335-34.312-41.427-136.254-41.427-179.276 0-29.87 4.951-53.684 11.532-73.83h119.478c.069 1.652 1.42 2.973 3.089 2.973s3.02-1.321 3.089-2.973h3.217c-2.527 5.467-4.793 11.078-6.783 16.816-1.485.231-2.626 1.505-2.626 3.055 0 .847.342 1.613.892 2.173-2.631 8.399-4.669 17.057-6.079 25.921-.552-.505-1.28-.821-2.087-.821-1.713 0-3.102 1.389-3.102 3.103 0 1.713 1.389 3.102 3.102 3.102.486 0 .94-.122 1.35-.321-.608 4.655-1.043 9.364-1.295 14.121-.019 0-.036-.005-.055-.005-1.713 0-3.102 1.389-3.102 3.103 0 1.657 1.303 2.999 2.939 3.085-.024 1.223-.047 2.446-.047 3.674 0 3.404.1 6.785.283 10.145-.025-.001-.048-.007-.073-.007-1.713 0-3.102 1.389-3.102 3.103 0 1.713 1.389 3.102 3.102 3.102.178 0 .348-.03.518-.06.449 5.098 1.102 10.137 1.959 15.107-.566-.756-1.46-1.252-2.477-1.252-1.713 0-3.102 1.389-3.102 3.103 0 1.713 1.389 3.102 3.102 3.102 1.413 0 2.593-.951 2.967-2.244 1.656 8.81 3.937 17.401 6.802 25.724-1.422.283-2.495 1.536-2.495 3.042 0 1.713 1.389 3.102 3.102 3.102.542 0 1.043-.151 1.486-.395 4.634 12.123 10.509 23.637 17.478 34.381-1.201.428-2.066 1.564-2.066 2.912 0 1.713 1.389 3.102 3.102 3.102.921 0 1.739-.409 2.307-1.046 1.546 2.223 3.14 4.411 4.78 6.561-.351.5-.566 1.101-.566 1.76 0 1.139.62 2.124 1.535 2.663-2.186 8.409-4.558 16.5-7.101 24.023-.303-.099-.62-.165-.955-.165-1.713 0-3.102 1.389-3.102 3.103 0 1.327.837 2.451 2.009 2.894-4.532 12.409-9.561 22.948-15.02 30.341h-13.058zm357.598-154.25c-.568-.639-1.387-1.049-2.309-1.049-1.713 0-3.102 1.389-3.102 3.102s1.389 3.103 3.102 3.103c.616 0 1.187-.185 1.669-.495-.744 4.911-1.7 9.753-2.842 14.523-1.131.463-1.93 1.571-1.93 2.869 0 .74.27 1.411.703 1.944-2.375 8.802-5.412 17.333-9.062 25.536-1.176.441-2.017 1.567-2.017 2.897 0 .374.077.728.198 1.06-1.21 2.546-2.479 5.058-3.805 7.536-.425-1.205-1.563-2.075-2.914-2.075-1.713 0-3.102 1.389-3.102 3.102s1.389 3.103 3.102 3.103c.234 0 .461-.031.68-.08-16.04 28.159-39.618 51.484-67.968 67.223-.071-1.651-1.421-2.971-3.089-2.971-1.713 0-3.102 1.389-3.102 3.103 0 1.031.509 1.938 1.284 2.503-2.841 1.461-5.729 2.843-8.657 4.151-.281.081-.547.194-.789.346-14.322 6.319-29.637 10.783-45.642 13.089.001-.03.009-.059.009-.089 0-1.713-1.389-3.103-3.102-3.103s-3.102 1.389-3.102 3.103c0 .299.056.583.135.857-4.797.522-9.647.86-14.551.987.385-.517.62-1.15.62-1.844 0-1.713-1.389-3.103-3.102-3.103s-3.102 1.389-3.102 3.103c0 .72.255 1.375.667 1.901-4.962-.008-9.875-.231-14.734-.644.171-.385.271-.809.271-1.257 0-1.713-1.389-3.103-3.102-3.103s-3.102 1.389-3.102 3.103c0 .228.028.448.074.661-4.843-.574-9.63-1.337-14.346-2.297-.548-.878-1.515-1.466-2.626-1.466-.638 0-1.229.193-1.722.523-8.521-1.963-16.807-4.546-24.809-7.699.001-.034.01-.065.01-.099 0-1.713-1.389-3.102-3.102-3.102-.891 0-1.688.38-2.254.982-16.498-7.139-31.7-16.724-45.138-28.305-.319-1.189-1.319-2.087-2.561-2.258-2.4-2.15-4.747-4.357-7.025-6.633.05-.221.081-.448.081-.684 0-1.713-1.389-3.102-3.102-3.102-.203 0-.4.022-.591.06-2.384-2.525-4.692-5.121-6.925-7.784-.241-.572-.65-1.053-1.163-1.39-24.998-30.42-40.025-69.331-40.025-111.686 0-97.149 79.035-176.184 176.184-176.184 51.637 0 98.155 22.329 130.409 57.838.88 1.752 1.733 3.521 2.557 5.306.565-.082 1.082-.315 1.506-.656 1.74 2.054 3.433 4.147 5.079 6.281-.319.488-.508 1.068-.508 1.695 0 1.713 1.389 3.102 3.102 3.102.308 0 .599-.059.88-.142 7.573 10.51 14.021 21.881 19.158 33.941-.013 0-.025-.004-.038-.004-1.713 0-3.102 1.389-3.102 3.103 0 1.713 1.389 3.102 3.102 3.102.853 0 1.626-.345 2.187-.903 3.057 7.881 5.565 16.034 7.472 24.414-1.365.325-2.384 1.545-2.384 3.01 0 1.713 1.389 3.103 3.102 3.103.185 0 .365-.023.541-.055.98 5.141 1.742 10.357 2.263 15.645-.495-1.057-1.56-1.794-2.804-1.794-1.713 0-3.102 1.389-3.102 3.102s1.389 3.103 3.102 3.103c1.441 0 2.641-.987 2.99-2.319.437 5.049.673 10.154.673 15.314-.004 7.395-.468 14.686-1.358 21.846z"/><path d="m230.436 287.688c-15.768 0-28.598 12.829-28.598 28.598s12.829 28.598 28.598 28.598c15.77 0 28.599-12.829 28.599-28.598-.001-15.769-12.83-28.598-28.599-28.598z"/><path d="m272.064 265.414c15.77 0 28.599-12.829 28.599-28.599 0-15.769-12.829-28.598-28.599-28.598s-28.599 12.829-28.599 28.598 12.829 28.599 28.599 28.599z"/><path d="m319.368 283.904c-15.77 0-28.599 12.829-28.599 28.599 0 15.769 12.829 28.598 28.599 28.598 15.768 0 28.598-12.829 28.598-28.598 0-15.77-12.829-28.599-28.598-28.599z"/></g></svg>