<svg id="Capa_1" enable-background="new 0 0 511.597 511.597" height="512" viewBox="0 0 511.597 511.597" width="512" xmlns="http://www.w3.org/2000/svg"><g><path d="m206.601 243.673c-1.713 0-3.102 1.389-3.102 3.102s1.389 3.102 3.102 3.102 3.102-1.389 3.102-3.102-1.388-3.102-3.102-3.102z"/><path d="m216.978 253.297c-1.713 0-3.102 1.389-3.102 3.103 0 1.713 1.389 3.102 3.102 3.102s3.102-1.389 3.102-3.102c0-1.714-1.389-3.103-3.102-3.103z"/><path d="m206.601 263.673c-1.713 0-3.102 1.389-3.102 3.102s1.389 3.102 3.102 3.102 3.102-1.389 3.102-3.102c.001-1.713-1.388-3.102-3.102-3.102z"/><path d="m186.601 243.673c-1.713 0-3.102 1.389-3.102 3.102s1.389 3.102 3.102 3.102 3.102-1.389 3.102-3.102-1.388-3.102-3.102-3.102z"/><path d="m196.978 253.297c-1.713 0-3.102 1.389-3.102 3.103 0 1.713 1.389 3.102 3.102 3.102s3.102-1.389 3.102-3.102c0-1.714-1.389-3.103-3.102-3.103z"/><path d="m186.601 263.673c-1.713 0-3.102 1.389-3.102 3.102s1.389 3.102 3.102 3.102 3.102-1.389 3.102-3.102c.001-1.713-1.388-3.102-3.102-3.102z"/><path d="m176.978 253.297c-1.713 0-3.102 1.389-3.102 3.103 0 1.713 1.389 3.102 3.102 3.102s3.102-1.389 3.102-3.102c0-1.714-1.389-3.103-3.102-3.103z"/><path d="m489.189 162.73h-36.164v-15.943c0-12.355-10.052-22.408-22.409-22.408h-66.036c-12.355 0-22.408 10.052-22.408 22.408v79.003h-172.746v-79.003c0-12.355-10.052-22.408-22.408-22.408h-66.039c-12.355 0-22.408 10.052-22.408 22.408v15.943h-36.163c-12.356 0-22.408 10.052-22.408 22.408v141.32c0 12.355 10.052 22.408 22.408 22.408h36.164v15.943c0 12.356 10.052 22.408 22.408 22.408h66.038c12.356 0 22.408-10.052 22.408-22.408v-79.002h172.746v79.002c0 12.356 10.052 22.408 22.408 22.408h66.037c12.356 0 22.409-10.052 22.409-22.408v-15.943h36.164c12.356 0 22.408-10.052 22.408-22.408v-141.32c-.001-12.356-10.053-22.408-22.409-22.408zm-147.017 115.001h-122.403c.194-.405.311-.853.311-1.331 0-1.713-1.389-3.103-3.102-3.103s-3.102 1.389-3.102 3.103c0 .478.117.927.311 1.331h-14.417c.194-.405.311-.853.311-1.331 0-1.713-1.389-3.103-3.102-3.103s-3.102 1.389-3.102 3.103c0 .478.117.927.311 1.331h-14.417c.194-.405.311-.853.311-1.331 0-1.713-1.389-3.103-3.102-3.103s-3.102 1.389-3.102 3.103c0 .478.117.927.311 1.331h-4.761v-9.685c.175-.388.278-.816.278-1.271 0-.454-.103-.882-.278-1.271v-17.458c.175-.388.278-.816.278-1.27s-.103-.882-.278-1.271v-11.638h5.77c-.796.562-1.32 1.484-1.32 2.533 0 1.713 1.389 3.102 3.102 3.102s3.102-1.389 3.102-3.102c0-1.048-.523-1.971-1.319-2.533h16.434c-.796.562-1.32 1.484-1.32 2.533 0 1.713 1.389 3.102 3.102 3.102s3.102-1.389 3.102-3.102c0-1.048-.523-1.971-1.319-2.533h16.434c-.796.562-1.32 1.484-1.32 2.533 0 1.713 1.389 3.102 3.102 3.102s3.102-1.389 3.102-3.102c0-1.048-.523-1.971-1.319-2.533h123.411z"/></g></svg>