<svg id="Capa_1" enable-background="new 0 0 511.746 511.746" height="512" viewBox="0 0 511.746 511.746" width="512" xmlns="http://www.w3.org/2000/svg"><g><path d="m483.715 395.59c-1.713 0-3.102 1.389-3.102 3.103 0 1.713 1.389 3.102 3.102 3.102s3.102-1.389 3.102-3.102c0-1.714-1.389-3.103-3.102-3.103z"/><path d="m491.039 407.825c1.67-.539 3.359-1.167 5.041-1.872-.54-.454-1.227-.739-1.988-.739-1.546-.001-2.816 1.132-3.053 2.611z"/><path d="m463.715 395.59c-1.713 0-3.102 1.389-3.102 3.103 0 1.713 1.389 3.102 3.102 3.102s3.102-1.389 3.102-3.102c0-1.714-1.389-3.103-3.102-3.103z"/><path d="m474.092 405.213c-1.713 0-3.102 1.389-3.102 3.103 0 1.167.652 2.17 1.604 2.7 1.09.087 1.344.154 1.735.124s.804-.066 1.231-.107c.969-.525 1.635-1.538 1.635-2.717-.001-1.713-1.39-3.103-3.103-3.103z"/><path d="m443.715 395.59c-1.713 0-3.102 1.389-3.102 3.103 0 1.713 1.389 3.102 3.102 3.102s3.102-1.389 3.102-3.102c0-1.714-1.389-3.103-3.102-3.103z"/><path d="m454.092 405.213c-1.713 0-3.102 1.389-3.102 3.103 0 1.028.506 1.933 1.276 2.497 1.314-.018 2.547-.031 3.702-.041.741-.567 1.227-1.451 1.227-2.456-.001-1.713-1.39-3.103-3.103-3.103z"/><path d="m434.092 405.213c-1.713 0-3.102 1.389-3.102 3.103 0 1.307.811 2.42 1.955 2.877.798-.016 1.601-.032 2.413-.05 1.081-.485 1.837-1.566 1.837-2.827-.001-1.713-1.39-3.103-3.103-3.103z"/><path d="m414.092 405.213c-1.713 0-3.102 1.389-3.102 3.103 0 1.622 1.25 2.938 2.837 3.075h.124c.135 0 .275 0 .411-.001 1.585-.139 2.832-1.454 2.832-3.075 0-1.712-1.389-3.102-3.102-3.102z"/><path d="m394.092 405.213c-1.713 0-3.102 1.389-3.102 3.103 0 1.311.816 2.426 1.965 2.88.702.014 1.428.026 2.148.039 1.214-.421 2.091-1.562 2.091-2.919 0-1.713-1.389-3.103-3.102-3.103z"/><path d="m363.715 395.59c-1.713 0-3.102 1.389-3.102 3.103 0 1.713 1.389 3.102 3.102 3.102s3.102-1.389 3.102-3.102c0-1.714-1.389-3.103-3.102-3.103z"/><path d="m374.092 405.213c-1.713 0-3.102 1.389-3.102 3.103 0 .82.324 1.56.844 2.115 1.374.078 2.797.151 4.28.221.656-.569 1.081-1.399 1.081-2.335-.001-1.714-1.39-3.104-3.103-3.104z"/><path d="m343.715 395.59c-1.713 0-3.102 1.389-3.102 3.103 0 1.713 1.389 3.102 3.102 3.102s3.102-1.389 3.102-3.102c0-1.714-1.389-3.103-3.102-3.103z"/><path d="m354.092 405.213c-1.713 0-3.102 1.389-3.102 3.103 0 .067.016.13.02.197 1.811.261 3.806.513 6.021.752.097-.301.163-.615.163-.948 0-1.714-1.389-3.104-3.102-3.104z"/><path d="m323.715 395.59c-1.605 0-2.911 1.224-3.071 2.788 1.778.9 3.525 1.752 5.225 2.54.583-.564.948-1.351.948-2.226 0-1.713-1.389-3.102-3.102-3.102z"/><path d="m303.715 375.59c-1.713 0-3.102 1.389-3.102 3.103 0 1.713 1.389 3.102 3.102 3.102s3.102-1.389 3.102-3.102c0-1.714-1.389-3.103-3.102-3.103z"/><path d="m314.092 385.213c-1.713 0-3.102 1.389-3.102 3.103 0 1.713 1.389 3.102 3.102 3.102s3.102-1.389 3.102-3.102-1.389-3.103-3.102-3.103z"/><path d="m294.092 365.213c-1.713 0-3.102 1.389-3.102 3.103 0 1.713 1.389 3.102 3.102 3.102s3.102-1.389 3.102-3.102-1.389-3.103-3.102-3.103z"/><path d="m283.745 375.593c.952.688 1.911 1.374 2.88 2.057-.426-1.189-1.547-2.044-2.88-2.057z"/><path d="m263.715 355.59c-1.113 0-2.082.592-2.629 1.473.391.343.781.693 1.169 1.06 1.052.997 2.167 2.012 3.321 3.039.75-.566 1.242-1.456 1.242-2.468-.001-1.715-1.39-3.104-3.103-3.104z"/><path d="m274.092 365.213c-.97 0-1.825.455-2.394 1.152 1.561 1.273 3.175 2.555 4.837 3.841.407-.524.659-1.175.659-1.891 0-1.712-1.389-3.102-3.102-3.102z"/><path d="m243.715 335.59c-1.713 0-3.102 1.389-3.102 3.103 0 1.713 1.389 3.102 3.102 3.102s3.102-1.389 3.102-3.102c0-1.714-1.389-3.103-3.102-3.103z"/><path d="m254.092 345.213c-1.713 0-3.102 1.389-3.102 3.103 0 1.713 1.389 3.102 3.102 3.102s3.102-1.389 3.102-3.102-1.389-3.103-3.102-3.103z"/><path d="m223.715 315.59c-1.713 0-3.102 1.389-3.102 3.103 0 1.713 1.389 3.102 3.102 3.102s3.102-1.389 3.102-3.102c0-1.714-1.389-3.103-3.102-3.103z"/><path d="m234.092 325.213c-1.713 0-3.102 1.389-3.102 3.103 0 1.713 1.389 3.102 3.102 3.102s3.102-1.389 3.102-3.102-1.389-3.103-3.102-3.103z"/><path d="m223.715 335.59c-1.713 0-3.102 1.389-3.102 3.103 0 1.713 1.389 3.102 3.102 3.102s3.102-1.389 3.102-3.102c0-1.714-1.389-3.103-3.102-3.103z"/><path d="m233.187 345.363c1.034.241 2.05.478 3.044.714-.557-.532-1.308-.864-2.14-.864-.316 0-.616.062-.904.15z"/><path d="m203.715 315.59c-1.713 0-3.102 1.389-3.102 3.103 0 1.713 1.389 3.102 3.102 3.102s3.102-1.389 3.102-3.102c0-1.714-1.389-3.103-3.102-3.103z"/><path d="m214.092 325.213c-1.713 0-3.102 1.389-3.102 3.103 0 1.713 1.389 3.102 3.102 3.102s3.102-1.389 3.102-3.102-1.389-3.103-3.102-3.103z"/><path d="m203.715 335.59c-.6 0-1.155.178-1.63.473.416.162.827.323 1.23.482 1.143.452 2.26.873 3.365 1.281-.377-1.289-1.554-2.236-2.965-2.236z"/><path d="m183.715 295.59c-1.713 0-3.102 1.389-3.102 3.103 0 1.713 1.389 3.102 3.102 3.102s3.102-1.389 3.102-3.102c0-1.714-1.389-3.103-3.102-3.103z"/><path d="m194.092 305.213c-1.713 0-3.102 1.389-3.102 3.103 0 1.713 1.389 3.102 3.102 3.102s3.102-1.389 3.102-3.102-1.389-3.103-3.102-3.103z"/><path d="m183.715 315.59c-1.713 0-3.102 1.389-3.102 3.103 0 1.713 1.389 3.102 3.102 3.102s3.102-1.389 3.102-3.102c0-1.714-1.389-3.103-3.102-3.103z"/><path d="m194.092 325.213c-1.713 0-3.102 1.389-3.102 3.103 0 1.713 1.389 3.102 3.102 3.102s3.102-1.389 3.102-3.102-1.389-3.103-3.102-3.103z"/><path d="m163.715 275.59c-1.713 0-3.102 1.389-3.102 3.103 0 1.713 1.389 3.102 3.102 3.102s3.102-1.389 3.102-3.102c0-1.714-1.389-3.103-3.102-3.103z"/><path d="m174.092 285.213c-1.713 0-3.102 1.389-3.102 3.103 0 1.713 1.389 3.102 3.102 3.102s3.102-1.389 3.102-3.102-1.389-3.103-3.102-3.103z"/><path d="m163.715 295.59c-1.713 0-3.102 1.389-3.102 3.103 0 1.713 1.389 3.102 3.102 3.102s3.102-1.389 3.102-3.102c0-1.714-1.389-3.103-3.102-3.103z"/><path d="m174.092 305.213c-1.713 0-3.102 1.389-3.102 3.103 0 1.713 1.389 3.102 3.102 3.102s3.102-1.389 3.102-3.102-1.389-3.103-3.102-3.103z"/><path d="m163.715 315.59c-1.713 0-3.102 1.389-3.102 3.103 0 .516.138.996.361 1.424 1.216.519 2.429 1.029 3.638 1.531 1.273-.387 2.205-1.556 2.205-2.955 0-1.714-1.389-3.103-3.102-3.103z"/><path d="m174.092 325.213c-.173 0-.34.024-.505.051.985.386 1.964.768 2.934 1.143-.568-.721-1.439-1.194-2.429-1.194z"/><path d="m154.092 265.213c-1.713 0-3.102 1.389-3.102 3.103 0 1.713 1.389 3.102 3.102 3.102s3.102-1.389 3.102-3.102-1.389-3.103-3.102-3.103z"/><path d="m143.715 275.59c-1.713 0-3.102 1.389-3.102 3.103 0 1.713 1.389 3.102 3.102 3.102s3.102-1.389 3.102-3.102c0-1.714-1.389-3.103-3.102-3.103z"/><path d="m154.092 285.213c-1.713 0-3.102 1.389-3.102 3.103 0 1.713 1.389 3.102 3.102 3.102s3.102-1.389 3.102-3.102-1.389-3.103-3.102-3.103z"/><path d="m143.715 295.59c-1.713 0-3.102 1.389-3.102 3.103 0 1.713 1.389 3.102 3.102 3.102s3.102-1.389 3.102-3.102c0-1.714-1.389-3.103-3.102-3.103z"/><path d="m154.092 305.213c-1.713 0-3.102 1.389-3.102 3.103 0 1.713 1.389 3.102 3.102 3.102s3.102-1.389 3.102-3.102-1.389-3.103-3.102-3.103z"/><path d="m123.715 255.59c-1.713 0-3.102 1.389-3.102 3.103 0 1.713 1.389 3.102 3.102 3.102s3.102-1.389 3.102-3.102c0-1.714-1.389-3.103-3.102-3.103z"/><path d="m134.092 265.213c-1.713 0-3.102 1.389-3.102 3.103 0 1.713 1.389 3.102 3.102 3.102s3.102-1.389 3.102-3.102-1.389-3.103-3.102-3.103z"/><path d="m123.715 275.59c-1.713 0-3.102 1.389-3.102 3.103 0 1.713 1.389 3.102 3.102 3.102s3.102-1.389 3.102-3.102c0-1.714-1.389-3.103-3.102-3.103z"/><path d="m134.092 285.213c-1.713 0-3.102 1.389-3.102 3.103 0 1.713 1.389 3.102 3.102 3.102s3.102-1.389 3.102-3.102-1.389-3.103-3.102-3.103z"/><path d="m123.715 295.59c-1.636 0-2.962 1.271-3.08 2.877 1.438 1.027 2.909 2.033 4.41 3.018 1.045-.5 1.772-1.557 1.772-2.792 0-1.714-1.389-3.103-3.102-3.103z"/><path d="m134.092 305.213c-.728 0-1.389.262-1.918.682 1.639.958 3.301 1.897 4.981 2.814.017-.13.04-.258.04-.393-.001-1.713-1.39-3.103-3.103-3.103z"/><path d="m114.092 245.213c-1.713 0-3.102 1.389-3.102 3.103 0 1.713 1.389 3.102 3.102 3.102s3.102-1.389 3.102-3.102-1.389-3.103-3.102-3.103z"/><path d="m103.715 255.59c-1.713 0-3.102 1.389-3.102 3.103 0 1.713 1.389 3.102 3.102 3.102s3.102-1.389 3.102-3.102c0-1.714-1.389-3.103-3.102-3.103z"/><path d="m114.092 265.213c-1.713 0-3.102 1.389-3.102 3.103 0 1.713 1.389 3.102 3.102 3.102s3.102-1.389 3.102-3.102-1.389-3.103-3.102-3.103z"/><path d="m103.715 275.59c-1.713 0-3.102 1.389-3.102 3.103 0 .309.059.602.143.884.426.583.862 1.163 1.313 1.736.478.301 1.039.482 1.646.482 1.713 0 3.102-1.389 3.102-3.102 0-1.714-1.389-3.103-3.102-3.103z"/><path d="m114.092 285.213c-1.713 0-3.102 1.389-3.102 3.103 0 1.713 1.389 3.102 3.102 3.102s3.102-1.389 3.102-3.102-1.389-3.103-3.102-3.103z"/><path d="m94.092 245.213c-1.713 0-3.102 1.389-3.102 3.103 0 1.713 1.389 3.102 3.102 3.102s3.102-1.389 3.102-3.102-1.389-3.103-3.102-3.103z"/><path d="m94.092 265.213c-.369 0-.718.076-1.046.194.718 1.578 1.497 3.269 2.335 5.096.076.167.161.331.24.496.936-.534 1.574-1.53 1.574-2.684-.001-1.712-1.39-3.102-3.103-3.102z"/><path d="m511.746 353.135c0-20.441-10.911-39.633-28.475-50.088l-108.676-64.687c-2.191-1.305-3.551-3.699-3.551-6.248 0-.222-.018-.442-.052-.661l-12.845-80.323c-.134-7.744-4.686-14.884-11.676-18.259-.158-.076-.321-.143-.487-.199-.535-.18-13.296-4.352-30.79-.509-13.998 3.076-33.544 12.027-51.412 36.55-8.486-4.444-17.123-5.593-24.34-6.549-4.672-.617-9.107-1.204-13.487-2.565-2.232-4.547-8.296-23.646-10.268-41.092-.607-5.369.56-11.308 1.687-17.052.685-3.49 1.427-7.286 1.555-10.873 1.889-6.11 2.286-9.231-.978-11.129-2.05-1.192-4.131-2.009-6.208-2.481-.567-.238-1.169-.455-1.82-.642-7.334-2.098-15.822 3.845-25.946 18.16-6.763 9.561-11.823 19.409-12.034 19.823-.021.042-.042.083-.061.125l-2.271 4.826c-4.449 6.311-8.927 12.42-12.639 16.989-1.936 2.383-3.962 4.762-6.105 7.279-11.508 13.513-25.828 30.331-39.553 64.284-2.948 7.294-4.921 13.79-6.071 19.628-10.8 1.927-19.104 11.804-25.335 19.256-1.235 1.478-2.402 2.874-3.502 4.111-13.067 14.701-10.378 20.557-1.47 39.962l.793 1.731c14.949 32.615 64.65 51.133 97.538 63.386 4.61 1.718 8.965 3.342 12.661 4.802 11.787 4.66 21.368 6.887 29.822 8.853 11.73 2.727 20.205 4.698 27.781 11.871 18.708 17.716 56.213 42.384 78.406 48.879 8.814 2.578 25.435 5.537 76.164 5.537 7.402 0 15.401-.101 23.773-.3 19.11-.457 31.011-.458 35.371-.012.458.047.934.099 1.553.049 6.421-.49 38.877-4.207 47.259-29.356 1.643-4.928 1.377-9.624-.702-13.483 4.038-6.292 6.393-13.76 6.393-21.775v-17.818zm-137.962-104.19c.432-.142.817-.372 1.174-.637l82.083 48.858c1.642 2.761 5.483 11.038 3.015 15.238-1.86 3.163-7.537 3.625-11.959 3.464-32.487-1.221-55.078.032-74.385 10.045-16.074 8.336-29.882 22.495-47.445 49.07-11.127-7.272-27.504-18.682-45.978-31.754 21.934-29.631 21.611-56.132 16.721-74.14-.394-1.45-.822-2.863-1.276-4.241 4.495 1.109 8.944 1.433 13.337 1.433 2.971 0 5.919-.145 8.836-.289 2.823-.14 5.74-.284 8.586-.284 16.251 0 34.901-10.108 43.865-14.966 1.386-.751 2.954-1.601 3.426-1.797zm-57.25-108.514c14.142-3.22 24.891-.388 26.562.099 4.074 2.091 6.691 6.357 6.691 10.951 0 .222.017.442.052.66l12.589 78.728c-7.015-2.032-15.761-1.469-24.848-.866-11.838.785-24.081 1.599-32.885-3.19-5.842-3.177-9.362-7.764-11.417-14.874-5.344-18.499-12.514-30.819-22.493-38.678 13.032-17.852 28.38-28.877 45.749-32.83zm-197.469 70.516c13.216-32.696 26.471-48.262 38.167-61.995 2.176-2.557 4.231-4.971 6.229-7.429.597-.735 1.217-1.517 1.846-2.319 6.275 28.462 30.603 51.319 46.651 56.876 8.508 2.945 16.187 3.961 22.366 4.779 6.209.821 10.12 1.403 12.193 2.954 1.805 1.353 5.408 5.613 9.265 18.96 4.802 16.622 14.949 29.662 29.354 37.803 1.487 3.376 2.836 7.067 3.895 11.039 6.013 22.562.783 44.971-15.531 66.802-12.041-8.546-24.774-17.642-37.393-26.658-28.417-20.302-57.801-41.295-80.847-57.16-26.245-18.068-36.731-24.305-41.666-26.424 1.078-5.076 2.857-10.76 5.471-17.228zm379.057 192.617c-6.657 19.973-34.03 23.192-39.831 23.651l-.195-.02c-1.755-.179-7.097-.726-36.423-.029-8.307.198-16.238.298-23.574.298-49.667 0-65.538-2.779-73.815-5.2-18.935-5.542-55.387-28.345-75.005-46.924-9.222-8.733-19.113-11.034-31.636-13.945-8.169-1.899-17.43-4.052-28.64-8.484-3.773-1.491-8.165-3.129-12.816-4.861-31.597-11.773-79.348-29.564-92.855-59.036l-.796-1.735c-8.616-18.764-9.319-20.297.119-30.917 1.185-1.331 2.392-2.775 3.669-4.303 4.15-4.964 8.972-10.717 14.352-13.979-.04.198-.062.402-.062.611 0 1.713 1.389 3.102 3.102 3.102s3.102-1.389 3.102-3.102c0-1.144-.626-2.132-1.547-2.67 1.222-.349 2.465-.558 3.735-.558.094 0 .188.001.282.003 3.414.788 15.973 8.787 33.088 20.438-1.04.501-1.763 1.556-1.763 2.787 0 1.713 1.389 3.102 3.102 3.102 1.634 0 2.958-1.267 3.079-2.87 15.876 10.888 35.048 24.427 54.298 38.126-.299.477-.48 1.037-.48 1.642 0 1.713 1.389 3.102 3.102 3.102.976 0 1.836-.459 2.404-1.164 2.261 1.611 4.519 3.221 6.769 4.826-1.115.47-1.899 1.573-1.899 2.86 0 1.713 1.389 3.102 3.102 3.102 1.645 0 2.978-1.285 3.082-2.904 4.758 3.396 9.465 6.759 14.07 10.049 10.195 7.284 20.105 14.363 29.531 21.073.401 1.248 1.558 2.158 2.94 2.158.028 0 .053-.007.081-.008 2.525 1.795 5.008 3.559 7.453 5.293-.165.379-.26.796-.26 1.236 0 1.713 1.389 3.102 3.102 3.102.814 0 1.55-.321 2.103-.834 2.432 1.721 4.809 3.399 7.143 5.044-1.534.188-2.725 1.48-2.725 3.064 0 1.713 1.389 3.102 3.102 3.102s3.102-1.389 3.102-3.102c0-.231-.029-.454-.077-.67 19.759 13.887 35.505 24.631 44.299 29.795-.027.164-.05.328-.05.499 0 1.713 1.389 3.102 3.102 3.102.822 0 1.565-.326 2.12-.848.136.059.29.134.416.185 7.75 3.148 24.885 4.674 45.742 5.154-1.036.502-1.756 1.555-1.756 2.784 0 1.713 1.389 3.102 3.102 3.102s3.102-1.389 3.102-3.102c0-1.186-.672-2.203-1.649-2.726 5.436.1 11.1.132 16.898.107-.871.55-1.453 1.514-1.453 2.619 0 1.713 1.389 3.102 3.102 3.102s3.102-1.389 3.102-3.102c0-1.121-.6-2.094-1.491-2.64 5.722-.045 11.552-.145 17.405-.289-1.228.413-2.118 1.561-2.118 2.928 0 1.713 1.389 3.102 3.102 3.102s3.102-1.389 3.102-3.102c0-1.421-.961-2.607-2.266-2.974 22.485-.586 45.139-1.813 62.88-3.167 4.406-.331 8.142.887 9.995 3.262 1.902 2.436 1.429 5.56.699 7.753zm5.262-32.614c0 5.698-1.516 11.039-4.132 15.682-3.426-1.912-7.717-2.778-12.454-2.418-31.53 2.405-67.285 3.745-95.998 3.447 3.053-13.894 9.182-29.57 20.32-32.046 8.084-1.795 18.142-2.985 27.868-4.136 20.091-2.377 37.443-4.43 43.572-11.58 5.785-6.749 4.076-17.942 1.664-26.071 11.948 9.381 19.16 23.93 19.16 39.307z"/><path d="m3.904 115.065h121.951c2.156 0 3.904-1.793 3.904-4.003 0-2.211-1.748-4.004-3.904-4.004h-121.951c-2.156 0-3.904 1.793-3.904 4.004 0 2.21 1.748 4.003 3.904 4.003z"/><path d="m73.908 176.026c0-2.211-1.748-4.003-3.904-4.003h-66.1c-2.156 0-3.904 1.792-3.904 4.003s1.748 4.003 3.904 4.003h66.1c2.156.001 3.904-1.792 3.904-4.003z"/></g></svg>