<svg id="Capa_1" enable-background="new 0 0 511.691 511.691" height="512" viewBox="0 0 511.691 511.691" width="512" xmlns="http://www.w3.org/2000/svg"><g><circle cx="483.654" cy="81.989" r="3.137"/><circle cx="494.147" cy="91.72" r="3.137"/><circle cx="483.654" cy="102.214" r="3.137"/><circle cx="494.147" cy="111.946" r="3.137"/><path d="m483.654 125.577c1.733 0 3.137-1.405 3.137-3.137 0-1.733-1.405-3.137-3.137-3.137s-3.137 1.404-3.137 3.137c0 1.732 1.404 3.137 3.137 3.137z"/><circle cx="494.147" cy="132.172" r="3.137"/><path d="m483.654 145.802c1.733 0 3.137-1.404 3.137-3.137 0-1.732-1.405-3.137-3.137-3.137s-3.137 1.405-3.137 3.137c0 1.733 1.404 3.137 3.137 3.137z"/><circle cx="494.147" cy="152.397" r="3.137"/><circle cx="463.429" cy="41.538" r="3.137"/><circle cx="473.922" cy="51.27" r="3.137"/><path d="m464.133 58.712c.337 1.909.639 3.823.881 5.744.925-.546 1.552-1.542 1.552-2.693 0-1.489-1.041-2.731-2.433-3.051z"/><circle cx="473.922" cy="71.495" r="3.137"/><path d="m465.844 83.969c.444-.542.722-1.225.722-1.98 0-.708-.244-1.355-.64-1.88-.011 1.286-.029 2.573-.082 3.86z"/><circle cx="473.922" cy="91.72" r="3.137"/><path d="m464.204 99.185c-.355 2.049-.77 4.089-1.235 6.12.151.022.302.046.46.046 1.732 0 3.137-1.405 3.137-3.137 0-1.464-1.007-2.683-2.362-3.029z"/><circle cx="473.922" cy="111.946" r="3.137"/><path d="m463.429 125.577c1.732 0 3.137-1.405 3.137-3.137 0-1.733-1.405-3.137-3.137-3.137-1.733 0-3.137 1.404-3.137 3.137 0 1.732 1.404 3.137 3.137 3.137z"/><circle cx="473.922" cy="132.172" r="3.137"/><path d="m463.429 145.802c1.732 0 3.137-1.404 3.137-3.137 0-1.732-1.405-3.137-3.137-3.137-1.733 0-3.137 1.405-3.137 3.137 0 1.733 1.404 3.137 3.137 3.137z"/><circle cx="473.922" cy="152.397" r="3.137"/><path d="m463.429 179.978c-1.733 0-3.137 1.405-3.137 3.137 0 1.733 1.405 3.138 3.137 3.138s3.137-1.405 3.137-3.138c0-1.732-1.405-3.137-3.137-3.137z"/><path d="m456.834 31.044c0-1.577-1.168-2.87-2.683-3.091.767 1.574 1.503 3.158 2.196 4.757.304-.484.487-1.052.487-1.666z"/><path d="m456.834 132.172c0-1.382-.9-2.542-2.141-2.96-.882 1.858-1.82 3.696-2.805 5.516.512.363 1.134.582 1.809.582 1.732-.001 3.137-1.406 3.137-3.138z"/><circle cx="453.697" cy="152.397" r="3.137"/><path d="m443.203 179.978c-1.732 0-3.137 1.405-3.137 3.137 0 1.733 1.405 3.138 3.137 3.138 1.733 0 3.137-1.405 3.137-3.138 0-1.732-1.404-3.137-3.137-3.137z"/><circle cx="453.697" cy="192.847" r="3.137"/><path d="m362.302 287.38c1.732 0 3.137-1.405 3.137-3.138 0-1.732-1.405-3.137-3.137-3.137-1.733 0-3.137 1.404-3.137 3.137-.001 1.733 1.404 3.138 3.137 3.138z"/><circle cx="342.076" cy="264.017" r="3.137"/><path d="m349.432 273.749c0 1.732 1.405 3.137 3.137 3.137s3.137-1.405 3.137-3.137-1.405-3.137-3.137-3.137-3.137 1.405-3.137 3.137z"/><path d="m342.076 281.106c-1.733 0-3.137 1.404-3.137 3.137s1.405 3.138 3.137 3.138c1.733 0 3.137-1.405 3.137-3.138s-1.404-3.137-3.137-3.137z"/><path d="m352.57 290.838c-1.733 0-3.137 1.404-3.137 3.137 0 1.732 1.405 3.137 3.137 3.137s3.137-1.405 3.137-3.137c0-1.733-1.405-3.137-3.137-3.137z"/><circle cx="332.344" cy="273.749" r="3.137"/><path d="m321.851 281.106c-1.733 0-3.137 1.404-3.137 3.137s1.405 3.138 3.137 3.138 3.137-1.405 3.137-3.138-1.405-3.137-3.137-3.137z"/><circle cx="332.344" cy="293.975" r="3.137"/><circle cx="321.851" cy="304.468" r="3.137"/><circle cx="321.851" cy="324.694" r="3.137"/><circle cx="312.119" cy="293.975" r="3.137"/><path d="m301.625 301.331c-1.733 0-3.137 1.405-3.137 3.137 0 1.733 1.405 3.137 3.137 3.137 1.733 0 3.137-1.404 3.137-3.137.001-1.732-1.404-3.137-3.137-3.137z"/><circle cx="312.119" cy="334.426" r="3.137"/><path d="m301.625 348.056c1.733 0 3.137-1.404 3.137-3.137s-1.405-3.137-3.137-3.137c-1.733 0-3.137 1.405-3.137 3.137 0 1.733 1.405 3.137 3.137 3.137z"/><circle cx="291.893" cy="334.426" r="3.137"/><path d="m281.4 341.781c-1.733 0-3.137 1.405-3.137 3.137 0 1.733 1.405 3.137 3.137 3.137 1.733 0 3.137-1.404 3.137-3.137 0-1.732-1.404-3.137-3.137-3.137z"/><path d="m291.893 357.788c1.732 0 3.137-1.405 3.137-3.138 0-1.732-1.405-3.137-3.137-3.137-1.733 0-3.137 1.404-3.137 3.137 0 1.734 1.405 3.138 3.137 3.138z"/><circle cx="281.4" cy="365.144" r="3.137"/><path d="m271.668 331.288c-1.732 0-3.137 1.404-3.137 3.137 0 1.732 1.405 3.137 3.137 3.137 1.733 0 3.137-1.405 3.137-3.137s-1.404-3.137-3.137-3.137z"/><path d="m261.174 341.781c-1.733 0-3.137 1.405-3.137 3.137 0 1.733 1.405 3.137 3.137 3.137 1.733 0 3.137-1.404 3.137-3.137.001-1.732-1.404-3.137-3.137-3.137z"/><path d="m271.668 351.514c-1.732 0-3.137 1.404-3.137 3.137s1.405 3.138 3.137 3.138c1.733 0 3.137-1.405 3.137-3.138s-1.404-3.137-3.137-3.137z"/><path d="m180.273 442.908c-1.732 0-3.137 1.405-3.137 3.138 0 1.732 1.405 3.137 3.137 3.137 1.733 0 3.137-1.404 3.137-3.137s-1.404-3.138-3.137-3.138z"/><path d="m190.767 452.641c-1.733 0-3.137 1.404-3.137 3.137s1.405 3.138 3.137 3.138 3.137-1.405 3.137-3.138-1.405-3.137-3.137-3.137z"/><circle cx="180.273" cy="466.271" r="3.137"/><path d="m170.541 432.415c-1.732 0-3.137 1.404-3.137 3.137s1.405 3.137 3.137 3.137c1.733 0 3.137-1.404 3.137-3.137 0-1.732-1.404-3.137-3.137-3.137z"/><path d="m160.048 442.908c-1.733 0-3.137 1.405-3.137 3.138 0 1.732 1.404 3.137 3.137 3.137s3.137-1.404 3.137-3.137-1.405-3.138-3.137-3.138z"/><path d="m170.541 452.641c-1.732 0-3.137 1.404-3.137 3.137s1.405 3.138 3.137 3.138c1.733 0 3.137-1.405 3.137-3.138s-1.404-3.137-3.137-3.137z"/><circle cx="160.048" cy="466.271" r="3.137"/><circle cx="170.541" cy="476.003" r="3.137"/><circle cx="160.048" cy="486.497" r="3.137"/><path d="m142.76 447.115c-1.079.702-2.171 1.372-3.267 2.035.11.012.216.033.329.033 1.356 0 2.5-.864 2.938-2.068z"/><path d="m150.316 452.641c-1.733 0-3.137 1.404-3.137 3.137s1.405 3.138 3.137 3.138c1.733 0 3.137-1.405 3.137-3.138s-1.405-3.137-3.137-3.137z"/><circle cx="139.822" cy="466.271" r="3.137"/><circle cx="150.316" cy="476.003" r="3.137"/><circle cx="139.822" cy="486.497" r="3.137"/><circle cx="150.316" cy="496.229" r="3.137"/><path d="m132.001 453.306c-1.665.846-3.346 1.65-5.042 2.411 0 .021-.006.04-.006.061 0 1.733 1.405 3.138 3.137 3.138s3.137-1.405 3.137-3.138c0-1.01-.485-1.898-1.226-2.472z"/><circle cx="119.597" cy="466.271" r="3.137"/><circle cx="130.09" cy="476.003" r="3.137"/><circle cx="119.597" cy="486.497" r="3.137"/><circle cx="130.09" cy="496.229" r="3.137"/><path d="m101.302 463.816c-1.522.293-3.048.556-4.579.788-.306.484-.489 1.053-.489 1.668 0 1.733 1.405 3.137 3.137 3.137 1.733 0 3.137-1.404 3.137-3.137.001-1.001-.476-1.882-1.206-2.456z"/><path d="m109.865 472.866c-1.732 0-3.137 1.405-3.137 3.137 0 1.733 1.405 3.137 3.137 3.137 1.733 0 3.137-1.404 3.137-3.137 0-1.732-1.405-3.137-3.137-3.137z"/><path d="m99.371 483.36c-1.732 0-3.137 1.404-3.137 3.137 0 1.732 1.405 3.137 3.137 3.137 1.733 0 3.137-1.405 3.137-3.137.001-1.733-1.404-3.137-3.137-3.137z"/><path d="m109.865 493.092c-1.732 0-3.137 1.404-3.137 3.137 0 1.732 1.405 3.137 3.137 3.137 1.733 0 3.137-1.405 3.137-3.137 0-1.733-1.405-3.137-3.137-3.137z"/><path d="m76.048 465.883c-.016.129-.039.255-.039.389 0 1.733 1.405 3.137 3.137 3.137 1.733 0 3.137-1.404 3.137-3.137 0-.133-.023-.26-.039-.389-2.065.054-4.131.054-6.196 0z"/><path d="m89.639 472.866c-1.733 0-3.137 1.405-3.137 3.137 0 1.733 1.405 3.137 3.137 3.137 1.733 0 3.137-1.404 3.137-3.137.001-1.732-1.404-3.137-3.137-3.137z"/><circle cx="79.146" cy="486.497" r="3.137"/><path d="m56.989 463.817c-.729.574-1.205 1.455-1.205 2.455 0 1.733 1.404 3.137 3.137 3.137s3.137-1.404 3.137-3.137c0-.614-.183-1.183-.488-1.667-1.532-.233-3.059-.496-4.581-.788z"/><circle cx="69.414" cy="476.003" r="3.137"/><path d="m511.691 120.837c0-32.276-12.57-62.622-35.393-85.444-22.823-22.823-53.167-35.393-85.444-35.393-32.276 0-62.621 12.569-85.445 35.393l-14.166 14.166c-2.15-.944-4.486-1.453-6.905-1.453-4.591 0-8.909 1.788-12.156 5.035l-52.126 52.127c-3.247 3.247-5.036 7.564-5.036 12.156 0 2.418.509 4.755 1.452 6.905l-72.962 72.962-.102.011.009.082-21.357 21.357c-6.295-2.75-13.909-1.569-19.052 3.574l-52.126 52.127c-3.247 3.248-5.036 7.564-5.036 12.157 0 2.418.509 4.754 1.452 6.904l-11.906 11.906c-22.823 22.823-35.392 53.168-35.392 85.445s12.569 62.622 35.393 85.445c22.823 22.823 53.167 35.392 85.444 35.392 32.276 0 62.622-12.569 85.445-35.392l11.725-11.725c2.335 1.152 4.913 1.778 7.593 1.778 4.592 0 8.91-1.789 12.156-5.035l52.128-52.128c5.334-5.333 6.408-13.324 3.253-19.745l94.045-94.045c2.335 1.153 4.914 1.779 7.594 1.779 4.592 0 8.909-1.788 12.156-5.035l52.126-52.126c3.247-3.248 5.036-7.564 5.036-12.156 0-2.68-.626-5.259-1.779-7.594l13.984-13.984c22.823-22.823 35.392-53.168 35.392-85.446zm-200.562-79.723c21.296-21.295 49.609-33.023 79.725-33.023s58.429 11.728 79.724 33.023c5.533 5.533 10.414 11.544 14.618 17.933-.457-.26-.978-.42-1.542-.42-1.733 0-3.137 1.404-3.137 3.137 0 1.732 1.404 3.137 3.137 3.137s3.137-1.405 3.137-3.137c0-.09-.019-.174-.026-.262 1.693 2.725 3.268 5.513 4.715 8.362-.292.477-.469 1.031-.469 1.631 0 1.593 1.192 2.894 2.73 3.096 3.639 8.087 6.304 16.599 7.939 25.389-.578.569-.937 1.358-.937 2.233 0 1.235.72 2.293 1.758 2.805.657 4.708 1.021 9.486 1.083 14.313-1.592.151-2.841 1.476-2.841 3.107 0 1.602 1.205 2.909 2.756 3.099-.202 4.954-.716 9.851-1.544 14.667-.732.574-1.212 1.457-1.212 2.459 0 .574.166 1.105.435 1.568-.981 4.672-2.255 9.26-3.814 13.742l-31.169 3.463c-.525-.997-1.56-1.685-2.765-1.685-1.451 0-2.66.99-3.018 2.327l-14.175 1.575c.062-.246.105-.499.105-.765 0-1.733-1.405-3.137-3.137-3.137s-3.137 1.404-3.137 3.137c0 .511.134.986.35 1.412l-70.485 7.832-54.867-54.867 10.622-10.622c3.247-3.247 5.035-7.564 5.035-12.156s-1.788-8.909-5.035-12.157l-27.888-27.887zm-89.771 89.77 27.889 27.888c3.246 3.247 7.564 5.035 12.156 5.035s8.909-1.788 12.156-5.035l10.622-10.622 30.16 30.161-157.96 17.551zm-81.188 161.277 79.868 79.867-19.443 19.443-79.868-79.868zm-99.057 18.969 11.072-11.072 27.888 27.888c3.247 3.248 7.564 5.036 12.156 5.036s8.91-1.789 12.156-5.036l10.622-10.622 13.906 13.905-110.455 12.273c5.505-11.886 13.117-22.834 22.655-32.372zm161.917 156.98c.377-.518.605-1.149.605-1.838 0-1.732-1.405-3.137-3.137-3.137-1.733 0-3.137 1.405-3.137 3.137 0 1.733 1.404 3.137 3.137 3.137.689 0 1.321-.228 1.839-.605l-1.775 1.775c-2.187 2.187-4.452 4.268-6.782 6.25.072-.265.124-.538.124-.825 0-1.732-1.405-3.137-3.137-3.137-1.733 0-3.137 1.405-3.137 3.137 0 1.733 1.405 3.137 3.137 3.137.081 0 .156-.018.236-.024-2.595 2.071-5.266 4.021-8.011 5.843-.539-.951-1.548-1.6-2.719-1.6-1.732 0-3.137 1.404-3.137 3.137 0 .657.203 1.266.549 1.77-17.066 9.998-36.545 15.335-56.847 15.335-.41 0-.817-.011-1.226-.015-.005 0-.01-.001-.015-.001-.004 0-.008.001-.012.001-10.16-.11-20.104-1.553-29.634-4.251 1.584-.158 2.826-1.48 2.826-3.105 0-1.733-1.405-3.137-3.137-3.137-1.733 0-3.137 1.404-3.137 3.137 0 .994.472 1.87 1.193 2.444-9.016-2.759-17.637-6.652-25.696-11.601.035-.188.058-.378.058-.576 0-1.733-1.404-3.137-3.137-3.137-.66 0-1.272.206-1.777.555-2.302-1.583-4.551-3.255-6.745-5.017 1.132-.474 1.927-1.59 1.927-2.894 0-1.732-1.405-3.137-3.137-3.137-1.49 0-2.731 1.041-3.051 2.433-1.713-1.519-3.392-3.089-5.024-4.721-.453-.453-.895-.913-1.339-1.372 1.199-.441 2.058-1.583 2.058-2.935 0-1.732-1.405-3.137-3.137-3.137-1.259 0-2.337.747-2.837 1.817-1.844-2.109-3.603-4.276-5.273-6.496.824-.506 1.396-1.381 1.487-2.399-1.621-.713-3.224-1.476-4.816-2.267-12.464-18.451-19.167-40.178-19.167-62.937 0-12.728 2.103-25.13 6.129-36.819l123.748-13.75 56.908 56.908-10.621 10.622c-3.247 3.247-5.035 7.564-5.035 12.156 0 .96.096 1.902.249 2.831-1.34.357-2.331 1.567-2.331 3.02 0 1.732 1.405 3.137 3.137 3.137.472 0 .916-.112 1.318-.299.734 1.247 1.613 2.418 2.663 3.468l3.38 3.38c0 .016-.005.03-.005.046 0 1.733 1.405 3.137 3.137 3.137.016 0 .03-.004.045-.004l6.64 6.64c-.055.232-.091.472-.091.721 0 1.732 1.404 3.137 3.137 3.137.249 0 .488-.036.72-.091l6.641 6.641c0 .015-.005.029-.005.045 0 1.733 1.405 3.138 3.137 3.138.015 0 .029-.004.045-.004l.596.596zm85.043-85.043-27.381-27.38c-6.701-6.703-17.61-6.702-24.312 0l-10.621 10.621-32.201-32.2 84.705-9.412c.001 1.731 1.405 3.135 3.137 3.135 1.733 0 3.137-1.405 3.137-3.137 0-.236-.031-.464-.08-.686l15.13-1.681c-.668.575-1.099 1.417-1.099 2.367 0 1.732 1.405 3.137 3.137 3.137 1.733 0 3.137-1.405 3.137-3.137 0-1.199-.68-2.229-1.669-2.757l47.544-5.282c.534.421 1.2.683 1.932.683.712 0 1.36-.247 1.883-.65l-9.845 9.845c.376-.518.605-1.149.605-1.838 0-1.733-1.404-3.137-3.137-3.137s-3.137 1.404-3.137 3.137c0 1.732 1.405 3.137 3.137 3.137.689 0 1.32-.229 1.837-.605l-9.037 9.037c.376-.518.605-1.149.605-1.837 0-1.733-1.405-3.137-3.137-3.137s-3.137 1.404-3.137 3.137c0 1.732 1.405 3.137 3.137 3.137.689 0 1.32-.228 1.837-.604l-9.799 9.799c.376-.517.605-1.149.605-1.838 0-1.733-1.405-3.137-3.137-3.137s-3.137 1.405-3.137 3.137c0 1.733 1.405 3.137 3.137 3.137.689 0 1.32-.229 1.838-.605l-9.037 9.037c.376-.517.604-1.148.604-1.837 0-1.732-1.405-3.137-3.137-3.137-1.733 0-3.137 1.404-3.137 3.137s1.405 3.138 3.137 3.138c.688 0 1.319-.228 1.837-.604l-9.797 9.797c.376-.517.604-1.148.604-1.837 0-1.732-1.405-3.137-3.137-3.137-1.733 0-3.137 1.405-3.137 3.137 0 1.733 1.405 3.137 3.137 3.137.689 0 1.32-.229 1.837-.604l-9.036 9.037c.376-.517.604-1.149.604-1.837 0-1.732-1.405-3.137-3.137-3.137-1.733 0-3.137 1.405-3.137 3.137 0 1.733 1.405 3.137 3.137 3.137.689 0 1.32-.229 1.838-.605zm87.256-87.256c.375-.517.604-1.148.604-1.836 0-1.733-1.405-3.137-3.137-3.137-1.733 0-3.137 1.404-3.137 3.137 0 1.732 1.405 3.137 3.137 3.137.688 0 1.319-.228 1.836-.603l-8.57 8.57-.022-.197-.649.072c.025-.16.049-.32.049-.486 0-1.732-1.405-3.137-3.137-3.137-1.733 0-3.137 1.405-3.137 3.137 0 .408.083.795.225 1.153l-16.344 1.816c1.255-.41 2.167-1.577 2.167-2.969 0-1.732-1.404-3.137-3.137-3.137s-3.137 1.405-3.137 3.137c0 1.635 1.254 2.961 2.851 3.108l-47.097 5.233c-.514-1.031-1.568-1.747-2.799-1.747-1.476 0-2.705 1.022-3.039 2.396l-104.351 11.594-38.612-38.612 10.622-10.622c6.701-6.703 6.701-17.609-.001-24.313l-27.888-27.887 16.439-16.439 178.333-19.815 40.652 40.653-10.621 10.621c-3.247 3.247-5.036 7.564-5.036 12.156s1.789 8.909 5.036 12.156l27.38 27.38zm-5.56-73.513-79.868-79.868 19.443-19.442 79.868 79.868zm96.192-17.12c.376-.517.605-1.149.605-1.837 0-1.732-1.405-3.137-3.137-3.137-1.733 0-3.137 1.405-3.137 3.137s1.405 3.137 3.137 3.137c.689 0 1.32-.229 1.838-.605l-8.02 8.02-.45-.45c.015-.123.037-.243.037-.37 0-1.732-1.405-3.137-3.137-3.137-.127 0-.247.023-.37.037l-7.026-7.025c-.179-1.415-1.289-2.525-2.704-2.704l-7.026-7.025c.015-.123.037-.244.037-.371 0-1.732-1.405-3.137-3.137-3.137-.127 0-.248.022-.371.037l-3.235-3.234c-1.145-1.145-2.428-2.098-3.804-2.866.03-.173.053-.35.053-.532 0-1.732-1.405-3.137-3.137-3.137-1.211 0-2.25.694-2.773 1.699-.821-.119-1.651-.199-2.495-.199-4.591 0-8.909 1.788-12.156 5.034l-10.622 10.623-15.946-15.946 52.893-5.877c.468.278 1.008.448 1.592.448.835 0 1.589-.332 2.151-.864l14.998-1.667c.283 1.442 1.551 2.53 3.076 2.53 1.733 0 3.137-1.405 3.137-3.137 0-.028-.008-.054-.008-.083l14.46-1.606c-.314.488-.5 1.065-.5 1.689 0 1.732 1.404 3.137 3.137 3.137s3.137-1.405 3.137-3.137c0-.872-.356-1.659-.93-2.228l16.956-1.884c-.243.519-.492 1.035-.742 1.551-.804.568-1.333 1.501-1.333 2.561 0 .026.007.051.008.078-1.505 2.898-3.133 5.736-4.893 8.502-.574-.74-1.462-1.224-2.471-1.224-1.733 0-3.137 1.405-3.137 3.137 0 1.436.97 2.634 2.287 3.006-1.838 2.577-3.793 5.084-5.858 7.519.067-.255.114-.518.114-.793 0-1.732-1.405-3.137-3.137-3.137-1.733 0-3.137 1.405-3.137 3.137 0 1.733 1.404 3.137 3.137 3.137.422 0 .824-.086 1.191-.237-1.462 1.64-2.969 3.248-4.535 4.814z"/></g></svg>