<svg id="Capa_1" enable-background="new 0 0 511.64 511.64" height="512" viewBox="0 0 511.64 511.64" width="512" xmlns="http://www.w3.org/2000/svg"><g><path d="m319.18 441.943c-18.614-2.72-43.323-4.218-69.573-4.218-26.251 0-50.959 1.498-69.573 4.218-28.189 4.118-31.99 9.402-31.99 14.026v37.427c0 4.625 3.8 9.907 31.99 14.026 18.615 2.72 43.323 4.218 69.573 4.218s50.958-1.498 69.573-4.218c28.188-4.119 31.99-9.402 31.99-14.026v-37.427c0-4.624-3.801-9.908-31.99-14.026z"/><path d="m400.702 15.641c1.713 0 3.102-1.389 3.102-3.102s-1.389-3.102-3.102-3.102-3.102 1.389-3.102 3.102 1.388 3.102 3.102 3.102z"/><path d="m380.702 15.641c1.713 0 3.102-1.389 3.102-3.102s-1.389-3.102-3.102-3.102-3.102 1.389-3.102 3.102 1.388 3.102 3.102 3.102z"/><path d="m391.078 25.264c1.713 0 3.102-1.389 3.102-3.102s-1.389-3.103-3.102-3.103-3.102 1.389-3.102 3.103c0 1.713 1.389 3.102 3.102 3.102z"/><path d="m380.702 35.641c1.713 0 3.102-1.389 3.102-3.102s-1.389-3.103-3.102-3.103-3.102 1.389-3.102 3.103c-.001 1.713 1.388 3.102 3.102 3.102z"/><path d="m371.078 25.264c1.713 0 3.102-1.389 3.102-3.102s-1.389-3.103-3.102-3.103-3.102 1.389-3.102 3.103c0 1.713 1.389 3.102 3.102 3.102z"/><path d="m360.702 35.641c1.713 0 3.102-1.389 3.102-3.102s-1.389-3.103-3.102-3.103-3.102 1.389-3.102 3.103c-.001 1.713 1.388 3.102 3.102 3.102z"/><path d="m371.078 45.264c1.713 0 3.102-1.389 3.102-3.102s-1.389-3.103-3.102-3.103-3.102 1.389-3.102 3.103c0 1.713 1.389 3.102 3.102 3.102z"/><path d="m360.702 69.436c-1.713 0-3.102 1.389-3.102 3.103 0 1.713 1.389 3.102 3.102 3.102s3.102-1.389 3.102-3.102c0-1.714-1.389-3.103-3.102-3.103z"/><path d="m340.702 69.436c-1.713 0-3.102 1.389-3.102 3.103 0 1.713 1.389 3.102 3.102 3.102s3.102-1.389 3.102-3.102c0-1.714-1.389-3.103-3.102-3.103z"/><path d="m351.078 79.06c-1.713 0-3.102 1.389-3.102 3.103 0 1.713 1.389 3.102 3.102 3.102s3.102-1.389 3.102-3.102c0-1.714-1.389-3.103-3.102-3.103z"/><path d="m340.702 89.436c-1.713 0-3.102 1.389-3.102 3.103 0 1.713 1.389 3.102 3.102 3.102s3.102-1.389 3.102-3.102c0-1.714-1.389-3.103-3.102-3.103z"/><path d="m331.078 79.06c-1.713 0-3.102 1.389-3.102 3.103 0 1.713 1.389 3.102 3.102 3.102s3.102-1.389 3.102-3.102c0-1.714-1.389-3.103-3.102-3.103z"/><path d="m320.702 89.436c-1.713 0-3.102 1.389-3.102 3.103 0 1.713 1.389 3.102 3.102 3.102s3.102-1.389 3.102-3.102c0-1.714-1.389-3.103-3.102-3.103z"/><path d="m331.078 99.06c-1.713 0-3.102 1.389-3.102 3.103 0 1.713 1.389 3.102 3.102 3.102s3.102-1.389 3.102-3.102c0-1.714-1.389-3.103-3.102-3.103z"/><path d="m320.702 109.436c-1.713 0-3.102 1.389-3.102 3.103 0 1.713 1.389 3.102 3.102 3.102s3.102-1.389 3.102-3.102c0-1.714-1.389-3.103-3.102-3.103z"/><path d="m331.078 119.06c-1.713 0-3.102 1.389-3.102 3.103 0 1.713 1.389 3.102 3.102 3.102s3.102-1.389 3.102-3.102c0-1.714-1.389-3.103-3.102-3.103z"/><path d="m320.702 129.436c-1.713 0-3.102 1.389-3.102 3.103 0 1.713 1.389 3.102 3.102 3.102s3.102-1.389 3.102-3.102c0-1.714-1.389-3.103-3.102-3.103z"/><path d="m311.078 119.06c-1.713 0-3.102 1.389-3.102 3.103 0 1.713 1.389 3.102 3.102 3.102s3.102-1.389 3.102-3.102c0-1.714-1.389-3.103-3.102-3.103z"/><path d="m300.702 129.436c-1.713 0-3.102 1.389-3.102 3.103 0 1.713 1.389 3.102 3.102 3.102s3.102-1.389 3.102-3.102c0-1.714-1.389-3.103-3.102-3.103z"/><path d="m311.078 139.06c-1.713 0-3.102 1.389-3.102 3.103 0 1.713 1.389 3.102 3.102 3.102s3.102-1.389 3.102-3.102c0-1.714-1.389-3.103-3.102-3.103z"/><path d="m300.702 149.436c-1.713 0-3.102 1.389-3.102 3.103 0 1.713 1.389 3.102 3.102 3.102s3.102-1.389 3.102-3.102c0-1.714-1.389-3.103-3.102-3.103z"/><path d="m291.078 139.06c-1.713 0-3.102 1.389-3.102 3.103 0 1.713 1.389 3.102 3.102 3.102s3.102-1.389 3.102-3.102c0-1.714-1.389-3.103-3.102-3.103z"/><path d="m280.702 149.436c-1.713 0-3.102 1.389-3.102 3.103 0 1.713 1.389 3.102 3.102 3.102s3.102-1.389 3.102-3.102c0-1.714-1.389-3.103-3.102-3.103z"/><path d="m291.078 159.06c-1.713 0-3.102 1.389-3.102 3.103 0 1.713 1.389 3.102 3.102 3.102s3.102-1.389 3.102-3.102c0-1.714-1.389-3.103-3.102-3.103z"/><path d="m280.702 169.436c-1.713 0-3.102 1.389-3.102 3.103 0 1.713 1.389 3.102 3.102 3.102s3.102-1.389 3.102-3.102c0-1.714-1.389-3.103-3.102-3.103z"/><path d="m291.078 179.06c-1.713 0-3.102 1.389-3.102 3.103 0 1.713 1.389 3.102 3.102 3.102s3.102-1.389 3.102-3.102c0-1.714-1.389-3.103-3.102-3.103z"/><path d="m280.702 189.436c-1.713 0-3.102 1.389-3.102 3.103 0 1.713 1.389 3.102 3.102 3.102s3.102-1.389 3.102-3.102c0-1.714-1.389-3.103-3.102-3.103z"/><path d="m271.078 179.06c-1.713 0-3.102 1.389-3.102 3.103 0 1.713 1.389 3.102 3.102 3.102s3.102-1.389 3.102-3.102c0-1.714-1.389-3.103-3.102-3.103z"/><path d="m240.702 249.436c-1.713 0-3.102 1.389-3.102 3.103 0 1.713 1.389 3.102 3.102 3.102s3.102-1.389 3.102-3.102c0-1.714-1.389-3.103-3.102-3.103z"/><path d="m231.078 239.06c-1.713 0-3.102 1.389-3.102 3.103 0 1.713 1.389 3.102 3.102 3.102s3.102-1.389 3.102-3.102c0-1.714-1.389-3.103-3.102-3.103z"/><path d="m220.702 249.436c-1.713 0-3.102 1.389-3.102 3.103 0 1.713 1.389 3.102 3.102 3.102s3.102-1.389 3.102-3.102c0-1.714-1.389-3.103-3.102-3.103z"/><path d="m231.078 259.06c-1.713 0-3.102 1.389-3.102 3.103 0 1.713 1.389 3.102 3.102 3.102s3.102-1.389 3.102-3.102c0-1.714-1.389-3.103-3.102-3.103z"/><path d="m220.702 269.436c-1.713 0-3.102 1.389-3.102 3.103s1.389 3.102 3.102 3.102 3.102-1.389 3.102-3.102-1.389-3.103-3.102-3.103z"/><path d="m211.078 259.06c-1.713 0-3.102 1.389-3.102 3.103 0 1.713 1.389 3.102 3.102 3.102s3.102-1.389 3.102-3.102c0-1.714-1.389-3.103-3.102-3.103z"/><path d="m200.702 269.436c-1.713 0-3.102 1.389-3.102 3.103s1.389 3.102 3.102 3.102 3.102-1.389 3.102-3.102-1.389-3.103-3.102-3.103z"/><path d="m211.078 279.06c-1.713 0-3.102 1.389-3.102 3.103 0 1.713 1.389 3.102 3.102 3.102s3.102-1.389 3.102-3.102c0-1.714-1.389-3.103-3.102-3.103z"/><path d="m200.702 289.436c-1.713 0-3.102 1.389-3.102 3.103s1.389 3.102 3.102 3.102 3.102-1.389 3.102-3.102-1.389-3.103-3.102-3.103z"/><path d="m211.078 299.06c-1.713 0-3.102 1.389-3.102 3.103 0 1.713 1.389 3.102 3.102 3.102s3.102-1.389 3.102-3.102c0-1.714-1.389-3.103-3.102-3.103z"/><path d="m200.702 309.436c-1.713 0-3.102 1.389-3.102 3.103s1.389 3.102 3.102 3.102 3.102-1.389 3.102-3.102-1.389-3.103-3.102-3.103z"/><path d="m191.078 299.06c-1.713 0-3.102 1.389-3.102 3.103 0 1.713 1.389 3.102 3.102 3.102s3.102-1.389 3.102-3.102c0-1.714-1.389-3.103-3.102-3.103z"/><path d="m180.702 309.436c-1.713 0-3.102 1.389-3.102 3.103s1.389 3.102 3.102 3.102 3.102-1.389 3.102-3.102-1.389-3.103-3.102-3.103z"/><path d="m191.078 319.06c-1.713 0-3.102 1.389-3.102 3.103 0 1.713 1.389 3.102 3.102 3.102s3.102-1.389 3.102-3.102c0-1.714-1.389-3.103-3.102-3.103z"/><path d="m180.702 329.436c-1.713 0-3.102 1.389-3.102 3.103s1.389 3.102 3.102 3.102 3.102-1.389 3.102-3.102-1.389-3.103-3.102-3.103z"/><path d="m160.702 309.436c-1.713 0-3.102 1.389-3.102 3.103s1.389 3.102 3.102 3.102 3.102-1.389 3.102-3.102-1.389-3.103-3.102-3.103z"/><path d="m171.078 319.06c-1.713 0-3.102 1.389-3.102 3.103 0 1.713 1.389 3.102 3.102 3.102s3.102-1.389 3.102-3.102c0-1.714-1.389-3.103-3.102-3.103z"/><path d="m160.702 329.436c-1.713 0-3.102 1.389-3.102 3.103s1.389 3.102 3.102 3.102 3.102-1.389 3.102-3.102-1.389-3.103-3.102-3.103z"/><path d="m171.078 339.06c-1.713 0-3.102 1.389-3.102 3.103 0 1.713 1.389 3.102 3.102 3.102s3.102-1.389 3.102-3.102c0-1.714-1.389-3.103-3.102-3.103z"/><path d="m160.702 349.436c-1.713 0-3.102 1.389-3.102 3.103s1.389 3.102 3.102 3.102 3.102-1.389 3.102-3.102-1.389-3.103-3.102-3.103z"/><path d="m171.078 359.06c-1.713 0-3.102 1.389-3.102 3.103 0 1.713 1.389 3.102 3.102 3.102s3.102-1.389 3.102-3.102c0-1.714-1.389-3.103-3.102-3.103z"/><path d="m160.702 369.436c-1.713 0-3.102 1.389-3.102 3.103s1.389 3.102 3.102 3.102 3.102-1.389 3.102-3.102-1.389-3.103-3.102-3.103z"/><path d="m140.702 309.436c-1.713 0-3.102 1.389-3.102 3.103s1.389 3.102 3.102 3.102 3.102-1.389 3.102-3.102-1.389-3.103-3.102-3.103z"/><path d="m151.078 319.06c-1.713 0-3.102 1.389-3.102 3.103 0 1.713 1.389 3.102 3.102 3.102s3.102-1.389 3.102-3.102c0-1.714-1.389-3.103-3.102-3.103z"/><path d="m140.702 329.436c-1.713 0-3.102 1.389-3.102 3.103s1.389 3.102 3.102 3.102 3.102-1.389 3.102-3.102-1.389-3.103-3.102-3.103z"/><path d="m151.078 339.06c-1.713 0-3.102 1.389-3.102 3.103 0 1.713 1.389 3.102 3.102 3.102s3.102-1.389 3.102-3.102c0-1.714-1.389-3.103-3.102-3.103z"/><path d="m140.702 349.436c-1.713 0-3.102 1.389-3.102 3.103s1.389 3.102 3.102 3.102 3.102-1.389 3.102-3.102-1.389-3.103-3.102-3.103z"/><path d="m151.078 359.06c-1.713 0-3.102 1.389-3.102 3.103 0 1.713 1.389 3.102 3.102 3.102s3.102-1.389 3.102-3.102c0-1.714-1.389-3.103-3.102-3.103z"/><path d="m140.702 369.436c-1.713 0-3.102 1.389-3.102 3.103s1.389 3.102 3.102 3.102 3.102-1.389 3.102-3.102-1.389-3.103-3.102-3.103z"/><path d="m151.078 379.06c-1.713 0-3.102 1.389-3.102 3.103 0 1.713 1.389 3.102 3.102 3.102s3.102-1.389 3.102-3.102c0-1.714-1.389-3.103-3.102-3.103z"/><path d="m131.078 299.06c-1.713 0-3.102 1.389-3.102 3.103 0 1.713 1.389 3.102 3.102 3.102s3.102-1.389 3.102-3.102c0-1.714-1.389-3.103-3.102-3.103z"/><path d="m120.702 309.436c-1.713 0-3.102 1.389-3.102 3.103s1.389 3.102 3.102 3.102 3.102-1.389 3.102-3.102-1.389-3.103-3.102-3.103z"/><path d="m131.078 319.06c-1.713 0-3.102 1.389-3.102 3.103 0 1.713 1.389 3.102 3.102 3.102s3.102-1.389 3.102-3.102c0-1.714-1.389-3.103-3.102-3.103z"/><path d="m120.702 329.436c-1.713 0-3.102 1.389-3.102 3.103s1.389 3.102 3.102 3.102 3.102-1.389 3.102-3.102-1.389-3.103-3.102-3.103z"/><path d="m131.078 339.06c-1.713 0-3.102 1.389-3.102 3.103 0 1.713 1.389 3.102 3.102 3.102s3.102-1.389 3.102-3.102c0-1.714-1.389-3.103-3.102-3.103z"/><path d="m120.702 349.436c-1.713 0-3.102 1.389-3.102 3.103s1.389 3.102 3.102 3.102 3.102-1.389 3.102-3.102-1.389-3.103-3.102-3.103z"/><path d="m131.078 359.06c-1.713 0-3.102 1.389-3.102 3.103 0 1.713 1.389 3.102 3.102 3.102s3.102-1.389 3.102-3.102c0-1.714-1.389-3.103-3.102-3.103z"/><path d="m120.702 369.436c-1.713 0-3.102 1.389-3.102 3.103s1.389 3.102 3.102 3.102 3.102-1.389 3.102-3.102-1.389-3.103-3.102-3.103z"/><path d="m131.078 379.06c-1.713 0-3.102 1.389-3.102 3.103 0 1.713 1.389 3.102 3.102 3.102s3.102-1.389 3.102-3.102c0-1.714-1.389-3.103-3.102-3.103z"/><path d="m100.702 295.641c1.713 0 3.102-1.389 3.102-3.102s-1.389-3.103-3.102-3.103-3.102 1.389-3.102 3.103 1.388 3.102 3.102 3.102z"/><path d="m100.702 315.641c1.713 0 3.102-1.389 3.102-3.102s-1.389-3.103-3.102-3.103-3.102 1.389-3.102 3.103 1.388 3.102 3.102 3.102z"/><path d="m100.702 335.641c1.713 0 3.102-1.389 3.102-3.102s-1.389-3.103-3.102-3.103-3.102 1.389-3.102 3.103 1.388 3.102 3.102 3.102z"/><path d="m100.702 355.641c1.713 0 3.102-1.389 3.102-3.102s-1.389-3.103-3.102-3.103-3.102 1.389-3.102 3.103 1.388 3.102 3.102 3.102z"/><path d="m100.702 375.641c1.713 0 3.102-1.389 3.102-3.102s-1.389-3.103-3.102-3.103-3.102 1.389-3.102 3.103 1.388 3.102 3.102 3.102z"/><path d="m80.702 295.641c1.713 0 3.102-1.389 3.102-3.102s-1.389-3.103-3.102-3.103-3.102 1.389-3.102 3.103 1.388 3.102 3.102 3.102z"/><path d="m91.078 305.264c1.713 0 3.102-1.389 3.102-3.102s-1.389-3.103-3.102-3.103-3.102 1.389-3.102 3.103c0 1.713 1.389 3.102 3.102 3.102z"/><path d="m80.702 315.641c1.713 0 3.102-1.389 3.102-3.102s-1.389-3.103-3.102-3.103-3.102 1.389-3.102 3.103 1.388 3.102 3.102 3.102z"/><path d="m91.078 325.264c1.713 0 3.102-1.389 3.102-3.102s-1.389-3.103-3.102-3.103-3.102 1.389-3.102 3.103c0 1.713 1.389 3.102 3.102 3.102z"/><path d="m80.702 335.641c1.713 0 3.102-1.389 3.102-3.102s-1.389-3.103-3.102-3.103-3.102 1.389-3.102 3.103 1.388 3.102 3.102 3.102z"/><path d="m91.078 345.264c1.713 0 3.102-1.389 3.102-3.102s-1.389-3.103-3.102-3.103-3.102 1.389-3.102 3.103c0 1.713 1.389 3.102 3.102 3.102z"/><path d="m80.702 355.641c1.713 0 3.102-1.389 3.102-3.102s-1.389-3.103-3.102-3.103-3.102 1.389-3.102 3.103 1.388 3.102 3.102 3.102z"/><path d="m91.078 365.264c1.713 0 3.102-1.389 3.102-3.102s-1.389-3.103-3.102-3.103-3.102 1.389-3.102 3.103c0 1.713 1.389 3.102 3.102 3.102z"/><path d="m71.078 285.264c1.713 0 3.102-1.389 3.102-3.102s-1.389-3.103-3.102-3.103-3.102 1.389-3.102 3.103c0 1.713 1.389 3.102 3.102 3.102z"/><path d="m71.078 305.264c1.713 0 3.102-1.389 3.102-3.102s-1.389-3.103-3.102-3.103-3.102 1.389-3.102 3.103c0 1.713 1.389 3.102 3.102 3.102z"/><path d="m71.078 325.264c1.713 0 3.102-1.389 3.102-3.102s-1.389-3.103-3.102-3.103-3.102 1.389-3.102 3.103c0 1.713 1.389 3.102 3.102 3.102z"/><path d="m71.078 345.264c1.713 0 3.102-1.389 3.102-3.102s-1.389-3.103-3.102-3.103-3.102 1.389-3.102 3.103c0 1.713 1.389 3.102 3.102 3.102z"/><path d="m40.702 269.436c-1.713 0-3.102 1.389-3.102 3.103s1.389 3.102 3.102 3.102 3.102-1.389 3.102-3.102-1.389-3.103-3.102-3.103z"/><path d="m51.078 279.06c-1.713 0-3.102 1.389-3.102 3.103 0 1.713 1.389 3.102 3.102 3.102s3.102-1.389 3.102-3.102c0-1.714-1.389-3.103-3.102-3.103z"/><path d="m40.702 289.436c-1.713 0-3.102 1.389-3.102 3.103s1.389 3.102 3.102 3.102 3.102-1.389 3.102-3.102-1.389-3.103-3.102-3.103z"/><path d="m51.078 299.06c-1.713 0-3.102 1.389-3.102 3.103 0 1.713 1.389 3.102 3.102 3.102s3.102-1.389 3.102-3.102c0-1.714-1.389-3.103-3.102-3.103z"/><path d="m40.702 309.436c-1.713 0-3.102 1.389-3.102 3.103s1.389 3.102 3.102 3.102 3.102-1.389 3.102-3.102-1.389-3.103-3.102-3.103z"/><path d="m51.078 319.06c-1.713 0-3.102 1.389-3.102 3.103 0 1.713 1.389 3.102 3.102 3.102s3.102-1.389 3.102-3.102c0-1.714-1.389-3.103-3.102-3.103z"/><path d="m40.702 329.436c-1.713 0-3.102 1.389-3.102 3.103s1.389 3.102 3.102 3.102 3.102-1.389 3.102-3.102-1.389-3.103-3.102-3.103z"/><path d="m51.078 339.06c-1.713 0-3.102 1.389-3.102 3.103 0 1.713 1.389 3.102 3.102 3.102s3.102-1.389 3.102-3.102c0-1.714-1.389-3.103-3.102-3.103z"/><path d="m20.702 269.436c-1.713 0-3.102 1.389-3.102 3.103s1.389 3.102 3.102 3.102 3.102-1.389 3.102-3.102-1.389-3.103-3.102-3.103z"/><path d="m31.078 279.06c-1.713 0-3.102 1.389-3.102 3.103 0 1.713 1.389 3.102 3.102 3.102s3.102-1.389 3.102-3.102c0-1.714-1.389-3.103-3.102-3.103z"/><path d="m20.702 289.436c-1.713 0-3.102 1.389-3.102 3.103s1.389 3.102 3.102 3.102 3.102-1.389 3.102-3.102-1.389-3.103-3.102-3.103z"/><path d="m31.078 299.06c-1.713 0-3.102 1.389-3.102 3.103 0 1.713 1.389 3.102 3.102 3.102s3.102-1.389 3.102-3.102c0-1.714-1.389-3.103-3.102-3.103z"/><path d="m20.702 309.436c-1.713 0-3.102 1.389-3.102 3.103s1.389 3.102 3.102 3.102 3.102-1.389 3.102-3.102-1.389-3.103-3.102-3.103z"/><path d="m31.078 319.06c-1.713 0-3.102 1.389-3.102 3.103 0 1.713 1.389 3.102 3.102 3.102s3.102-1.389 3.102-3.102c0-1.714-1.389-3.103-3.102-3.103z"/><path d="m20.702 329.436c-1.713 0-3.102 1.389-3.102 3.103s1.389 3.102 3.102 3.102 3.102-1.389 3.102-3.102-1.389-3.103-3.102-3.103z"/><path d="m31.078 339.06c-1.713 0-3.102 1.389-3.102 3.103 0 1.713 1.389 3.102 3.102 3.102s3.102-1.389 3.102-3.102c0-1.714-1.389-3.103-3.102-3.103z"/><path d="m496.263 256.891c-8.387-5.991-19.164-7.432-28.831-3.858l-123.048 47.036-58.848-88.41 137.113-205.458c.816-1.224.892-2.797.199-4.094-.694-1.297-2.045-2.107-3.516-2.107h-50.208c-1.335 0-2.579.667-3.319 1.777l-109.985 165.237-109.985-165.237c-.739-1.11-1.985-1.777-3.319-1.777h-50.208c-1.471 0-2.822.81-3.516 2.106-.693 1.297-.617 2.871.2 4.094l137.112 205.458-58.848 88.41-123.048-47.035c-9.667-3.574-20.444-2.133-28.831 3.858-8.386 5.99-13.245 15.717-12.999 26.021l1.073 44.764c.306 12.748 8.22 23.874 20.163 28.347l120.811 45.228c1.823.683 3.698 1.011 5.548 1.011 5.128 0 10.051-2.522 13.043-7.009l92.804-139.064 92.803 139.064c2.993 4.487 7.916 7.009 13.043 7.009 1.85 0 3.726-.328 5.548-1.011l120.811-45.228c11.943-4.473 19.857-15.6 20.163-28.347l1.073-44.764c.248-10.304-4.611-20.031-12.998-26.021zm-145.171-157.83c-.005 0-.009-.001-.014-.001-1.713 0-3.102 1.389-3.102 3.103 0 .427.087.834.243 1.204l-4.955 7.425c-.559-.817-1.497-1.355-2.562-1.355-1.713 0-3.102 1.389-3.102 3.103 0 1.497 1.061 2.746 2.471 3.037l-29.021 43.487c-1.7.016-3.074 1.396-3.074 3.1 0 .412.084.803.23 1.163l-4.964 7.439c-.561-.801-1.487-1.328-2.54-1.328-1.713 0-3.102 1.389-3.102 3.103 0 1.485 1.044 2.722 2.438 3.027l-19.287 28.901-19.262-28.939c1.331-.35 2.317-1.549 2.317-2.989 0-.767-.289-1.46-.75-2.001l5.04-7.572c.356 1.321 1.55 2.299 2.984 2.299 1.713 0 3.102-1.389 3.102-3.102s-1.389-3.103-3.102-3.103c-.141 0-.276.023-.412.042l29.046-43.637c.312.106.642.176.99.176 1.713 0 3.102-1.389 3.102-3.102 0-.787-.302-1.497-.784-2.043l5.055-7.594c.333 1.354 1.547 2.363 3.004 2.363 1.713 0 3.102-1.389 3.102-3.102s-1.389-3.103-3.102-3.103c-.164 0-.322.024-.479.048l28.533-42.867 10.968 2.991c-1.231.412-2.125 1.561-2.125 2.93 0 1.713 1.389 3.102 3.102 3.102s3.102-1.389 3.102-3.102c0-.779-.297-1.483-.772-2.028l15.475 4.22c.561.562 1.337.91 2.195.91.263 0 .514-.042.758-.104l1.59.434zm-3.038-56.224c.309 1.388 1.543 2.427 3.024 2.427 1.713 0 3.102-1.389 3.102-3.102s-1.389-3.103-3.102-3.103c-.187 0-.368.023-.546.055l20.728-31.14h40.618l-20.748 31.09c-.018 0-.034-.005-.052-.005-1.713 0-3.102 1.389-3.102 3.103 0 .441.095.859.261 1.238l-4.953 7.421c-.556-.834-1.504-1.386-2.582-1.386-1.713 0-3.102 1.389-3.102 3.103 0 1.51 1.08 2.765 2.509 3.042l-2.015 3.019-15.012-4.094c.445-.537.722-1.216.722-1.968 0-1.713-1.389-3.103-3.102-3.103s-3.102 1.389-3.102 3.103c0 .167.024.327.049.486l-13.859-3.78zm-248.292-34.863h40.618l27.471 41.271-34.304 9.355zm-56.863 346.754c.559-.561.905-1.335.905-2.189 0-1.713-1.389-3.103-3.102-3.103s-3.102 1.389-3.102 3.103c0 .073.017.142.021.213l-11.211-4.197c-8.877-3.324-14.76-11.595-14.987-21.07l-.054-2.25c1.575-.149 2.811-1.459 2.811-3.073 0-1.664-1.314-3.012-2.959-3.088l-.331-13.829c.064.004.123.019.188.019 1.713 0 3.102-1.389 3.102-3.102s-1.389-3.103-3.102-3.103c-.115 0-.224.021-.336.034l-.333-13.906c.216.048.438.077.669.077 1.713 0 3.102-1.389 3.102-3.102s-1.389-3.103-3.102-3.103c-.183 0-.359.023-.533.054.808-6.319 4.136-11.926 9.467-15.734 3.017-2.155 6.372-3.52 9.842-4.067-1.104.475-1.878 1.571-1.878 2.85 0 1.713 1.389 3.102 3.102 3.102s3.102-1.389 3.102-3.102c0-1.544-1.131-2.815-2.607-3.053.591-.047 1.184-.071 1.779-.071 2.691 0 5.408.482 8.049 1.459l6.725 2.571c.389 1.268 1.556 2.196 2.952 2.196.588 0 1.131-.173 1.599-.456l3.91 1.495 1.474 44.628c-.287.47-.461 1.017-.461 1.608 0 .667.215 1.281.573 1.787l.524 15.864c-.666.569-1.097 1.404-1.097 2.349 0 1.019.498 1.915 1.257 2.48l.487 14.743c-1.029.505-1.743 1.553-1.743 2.777 0 1.298.799 2.406 1.93 2.869l.185 5.616zm21.769-85.337 13.78 5.267c.566.601 1.363.982 2.254.982.085 0 .166-.019.249-.025l9.322 3.563c-1.32.356-2.296 1.551-2.296 2.983 0 1.713 1.389 3.102 3.102 3.102s3.102-1.389 3.102-3.102c0-.621-.187-1.196-.501-1.681l12.505 4.78 1.858 56.265c-.043.206-.067.418-.067.636 0 .274.047.535.114.788l.571 17.29c-.422.53-.684 1.192-.684 1.922 0 .805.314 1.531.817 2.082l.507 15.342-38.271-14.327c.017 0 .033.005.05.005 1.713 0 3.102-1.389 3.102-3.102s-1.389-3.103-3.102-3.103-3.102 1.389-3.102 3.103c0 .961.446 1.809 1.132 2.378l-1.315-.492zm166.295 9.68c-1.658.062-2.987 1.417-2.987 3.091 0 .381.078.742.204 1.079l-4.984 7.468c-.565-.768-1.468-1.273-2.494-1.273-1.713 0-3.102 1.389-3.102 3.103 0 1.46 1.012 2.675 2.37 3.006l-29.05 43.531c-1.638.084-2.943 1.428-2.943 3.086 0 .366.075.712.191 1.038l-4.993 7.482c-.566-.753-1.458-1.246-2.472-1.246-1.713 0-3.102 1.389-3.102 3.103 0 1.447.996 2.653 2.336 2.996l-23.552 35.292c-2.007 3.011-5.773 4.228-9.162 2.957l-3.421-1.28c-.02-1.697-1.397-3.067-3.099-3.067-.92 0-1.737.408-2.305 1.044l-21.019-7.869-3.113-94.261 4.551 1.74c-.736.567-1.217 1.448-1.217 2.449 0 1.713 1.389 3.102 3.102 3.102s3.102-1.389 3.102-3.102c0-.193-.023-.38-.057-.564l24.369 9.315c-.082.278-.14.567-.14.872 0 1.713 1.389 3.102 3.102 3.102 1.236 0 2.294-.728 2.793-1.774l13.514 5.165c1.74.665 3.71.036 4.742-1.515l7.74-11.629c.267.075.543.128.834.128 1.713 0 3.102-1.389 3.102-3.102 0-.728-.261-1.388-.68-1.918l5.01-7.527c.397 1.255 1.558 2.17 2.944 2.17 1.713 0 3.102-1.389 3.102-3.102s-1.389-3.103-3.102-3.103c-.095 0-.185.02-.278.028l29.015-43.591c.283.085.576.144.886.144 1.713 0 3.102-1.389 3.102-3.102 0-.747-.275-1.424-.715-1.96l5.025-7.55c.377 1.288 1.554 2.235 2.964 2.235 1.279 0 2.376-.774 2.85-1.879l4.622 6.925c-.584.564-.951 1.352-.951 2.229 0 1.713 1.389 3.102 3.102 3.102.439 0 .852-.099 1.229-.265l9.096 13.63zm-.23-59.977.166-.249.145.218c-.106.001-.207.02-.311.031zm163.529 163.517-29.843 11.172c-3.39 1.271-7.155.054-9.162-2.957l-217.043-325.233 34.294-9.353 167.005 250.9c1.032 1.551 3.002 2.18 4.742 1.515l53.12-20.306zm49.585-18.563-41.506 15.539 3.115-94.325 41.517-15.87zm56.37-36.563c-.227 9.475-6.109 17.746-14.987 21.07l-33.305 12.469 3.128-94.721 15.186-5.805c2.641-.977 5.358-1.459 8.049-1.459 4.697 0 9.318 1.469 13.34 4.341 6.326 4.52 9.848 11.569 9.661 19.341z"/></g></svg>