<svg id="Capa_1" enable-background="new 0 0 511.566 511.566" height="512" viewBox="0 0 511.566 511.566" width="512" xmlns="http://www.w3.org/2000/svg"><g><path d="m475.952 45.191c1.713 0 3.102-1.389 3.102-3.102s-1.389-3.102-3.102-3.102-3.102 1.389-3.102 3.102 1.389 3.102 3.102 3.102z"/><path d="m465.575 55.568c1.713 0 3.102-1.389 3.102-3.103 0-1.713-1.389-3.102-3.102-3.102s-3.102 1.389-3.102 3.102c0 1.714 1.389 3.103 3.102 3.103z"/><path d="m465.575 75.568c1.713 0 3.102-1.389 3.102-3.103s-1.389-3.102-3.102-3.102-3.102 1.389-3.102 3.102 1.389 3.103 3.102 3.103z"/><path d="m465.575 95.568c1.713 0 3.102-1.389 3.102-3.103s-1.389-3.102-3.102-3.102-3.102 1.389-3.102 3.102 1.389 3.103 3.102 3.103z"/><path d="m455.952 65.191c1.713 0 3.102-1.389 3.102-3.102s-1.389-3.102-3.102-3.102-3.102 1.389-3.102 3.102 1.389 3.102 3.102 3.102z"/><path d="m445.575 69.363c-1.713 0-3.102 1.389-3.102 3.102s1.389 3.103 3.102 3.103 3.102-1.389 3.102-3.103-1.388-3.102-3.102-3.102z"/><path d="m455.952 85.191c1.713 0 3.102-1.389 3.102-3.102s-1.389-3.102-3.102-3.102-3.102 1.389-3.102 3.102 1.389 3.102 3.102 3.102z"/><path d="m445.575 89.363c-1.713 0-3.102 1.389-3.102 3.102s1.389 3.103 3.102 3.103 3.102-1.389 3.102-3.103-1.388-3.102-3.102-3.102z"/><path d="m455.952 105.191c1.713 0 3.102-1.389 3.102-3.102s-1.389-3.102-3.102-3.102-3.102 1.389-3.102 3.102 1.389 3.102 3.102 3.102z"/><path d="m445.575 109.363c-1.713 0-3.102 1.389-3.102 3.102s1.389 3.103 3.102 3.103 3.102-1.389 3.102-3.103-1.388-3.102-3.102-3.102z"/><path d="m459.054 122.089c0-1.713-1.389-3.102-3.102-3.102s-3.102 1.389-3.102 3.102 1.389 3.102 3.102 3.102 3.102-1.389 3.102-3.102z"/><path d="m435.952 78.987c-1.713 0-3.102 1.389-3.102 3.102s1.389 3.102 3.102 3.102 3.102-1.389 3.102-3.102c0-1.714-1.389-3.102-3.102-3.102z"/><path d="m425.575 89.363c-1.713 0-3.102 1.389-3.102 3.102s1.389 3.103 3.102 3.103 3.102-1.389 3.102-3.103-1.388-3.102-3.102-3.102z"/><path d="m435.952 98.987c-1.713 0-3.102 1.389-3.102 3.102s1.389 3.102 3.102 3.102 3.102-1.389 3.102-3.102c0-1.714-1.389-3.102-3.102-3.102z"/><path d="m137.434 378.988c-1.713 0-3.102 1.389-3.102 3.102s1.389 3.102 3.102 3.102 3.102-1.389 3.102-3.102-1.389-3.102-3.102-3.102z"/><path d="m127.057 389.364c-1.713 0-3.102 1.389-3.102 3.103s1.389 3.102 3.102 3.102 3.102-1.389 3.102-3.102-1.388-3.103-3.102-3.103z"/><path d="m137.434 398.988c-1.713 0-3.102 1.389-3.102 3.102s1.389 3.102 3.102 3.102 3.102-1.389 3.102-3.102-1.389-3.102-3.102-3.102z"/><path d="m127.057 409.364c-1.713 0-3.102 1.389-3.102 3.103s1.389 3.102 3.102 3.102 3.102-1.389 3.102-3.102-1.388-3.103-3.102-3.103z"/><path d="m137.434 418.988c-1.713 0-3.102 1.389-3.102 3.102s1.389 3.102 3.102 3.102 3.102-1.389 3.102-3.102-1.389-3.102-3.102-3.102z"/><path d="m127.057 429.364c-1.713 0-3.102 1.389-3.102 3.103s1.389 3.102 3.102 3.102 3.102-1.389 3.102-3.102-1.388-3.103-3.102-3.103z"/><path d="m117.434 398.988c-1.713 0-3.102 1.389-3.102 3.102s1.389 3.102 3.102 3.102 3.102-1.389 3.102-3.102-1.389-3.102-3.102-3.102z"/><path d="m107.057 409.364c-1.713 0-3.102 1.389-3.102 3.103s1.389 3.102 3.102 3.102 3.102-1.389 3.102-3.102-1.388-3.103-3.102-3.103z"/><path d="m117.434 418.988c-1.713 0-3.102 1.389-3.102 3.102s1.389 3.102 3.102 3.102 3.102-1.389 3.102-3.102-1.389-3.102-3.102-3.102z"/><path d="m107.057 429.364c-1.713 0-3.102 1.389-3.102 3.103s1.389 3.102 3.102 3.102 3.102-1.389 3.102-3.102-1.388-3.103-3.102-3.103z"/><path d="m117.434 438.988c-1.713 0-3.102 1.389-3.102 3.102s1.389 3.102 3.102 3.102 3.102-1.389 3.102-3.102-1.389-3.102-3.102-3.102z"/><path d="m107.057 449.364c-1.713 0-3.102 1.389-3.102 3.103s1.389 3.102 3.102 3.102 3.102-1.389 3.102-3.102-1.388-3.103-3.102-3.103z"/><path d="m97.434 418.988c-1.713 0-3.102 1.389-3.102 3.102s1.389 3.102 3.102 3.102 3.102-1.389 3.102-3.102-1.389-3.102-3.102-3.102z"/><path d="m87.057 429.364c-1.713 0-3.102 1.389-3.102 3.103s1.389 3.102 3.102 3.102 3.102-1.389 3.102-3.102-1.388-3.103-3.102-3.103z"/><path d="m97.434 438.988c-1.713 0-3.102 1.389-3.102 3.102s1.389 3.102 3.102 3.102 3.102-1.389 3.102-3.102-1.389-3.102-3.102-3.102z"/><path d="m87.057 449.364c-1.713 0-3.102 1.389-3.102 3.103s1.389 3.102 3.102 3.102 3.102-1.389 3.102-3.102-1.388-3.103-3.102-3.103z"/><path d="m97.434 458.988c-1.713 0-3.102 1.389-3.102 3.102s1.389 3.102 3.102 3.102 3.102-1.389 3.102-3.102-1.389-3.102-3.102-3.102z"/><path d="m87.057 469.364c-1.713 0-3.102 1.389-3.102 3.103s1.389 3.102 3.102 3.102 3.102-1.389 3.102-3.102-1.388-3.103-3.102-3.103z"/><path d="m508.933 476.34c-10.41-20.561-11.917-55.545-13.513-92.588-3.034-70.425-6.809-158.072-72.839-218.858-9.84-9.058-21.701-13.42-32.934-15.863l35.182-35.183 24.419 24.419c2.06 2.061 4.757 3.161 7.559 3.161.939 0 1.891-.124 2.834-.376 3.757-1.006 6.601-3.85 7.608-7.607l27.779-103.671c1.007-3.756-.034-7.642-2.784-10.392-2.75-2.751-6.636-3.795-10.393-2.785l-103.672 27.777c-3.757 1.006-6.601 3.851-7.608 7.607-1.007 3.757.034 7.642 2.784 10.393l24.42 24.42-35.312 35.312c-2.549-11.267-7.272-23.629-17.173-34.361-62.44-67.684-146.213-69.002-213.526-70.061-38.056-.599-74.002-1.165-94.701-14.021-5.505-3.421-12.013-4.494-18.323-3.016-6.311 1.474-11.669 5.32-15.089 10.825-7.059 11.364-3.556 26.353 7.808 33.412 6.137 3.812 12.655 6.915 19.494 9.453l200.225 199.054-103.853 103.853-42.821 3.141c-2.83.207-5.493 1.426-7.497 3.432l-54.48 54.48c-3.325 3.325-4.362 8.124-2.708 12.525 1.655 4.4 5.598 7.328 10.289 7.639l36.984 2.448c2.173.144 3.92 1.891 4.064 4.062l2.448 36.985v-.001c.31 4.691 3.237 8.634 7.638 10.289 1.385.522 2.81.776 4.216.776 3.061 0 6.031-1.205 8.31-3.483l54.478-54.478c2.008-2.008 3.228-4.675 3.433-7.508l3.165-43.717 103.469-103.469 199.664 198.497c2.081 6.837 4.593 13.329 7.664 19.396 4.156 8.208 12.456 13.308 21.663 13.308 3.772 0 7.556-.906 10.943-2.621 5.782-2.927 10.078-7.932 12.097-14.09 2.017-6.158 1.516-12.734-1.411-18.515zm-130.298-419.244c-1.214-1.214-1.001-2.629-.853-3.181.148-.553.671-1.885 2.329-2.33l103.672-27.779c1.656-.442 2.777.449 3.181.854.404.404 1.296 1.523.852 3.181l-.544 2.031c-.488-.319-1.069-.509-1.696-.509-1.713 0-3.102 1.389-3.102 3.102s1.389 3.103 3.102 3.103c.06 0 .116-.014.175-.018l-6.858 25.595c-.401-1.249-1.558-2.158-2.94-2.158-1.713 0-3.102 1.389-3.102 3.102s1.389 3.102 3.102 3.102c.8 0 1.523-.312 2.073-.809l-4.126 15.397c-.639.568-1.049 1.387-1.049 2.31 0 .341.069.664.17.971l-7.058 26.342c-.128-.016-.254-.039-.386-.039-1.713 0-3.102 1.389-3.102 3.102 0 1.288.785 2.391 1.901 2.861l-4.337 16.186c-.444 1.658-1.777 2.181-2.329 2.329-.553.148-1.969.361-3.181-.852zm-290.148 427.164c-1.244 1.245-2.971 1.619-4.62.998-1.647-.619-2.7-2.038-2.816-3.793l-1.159-17.503c.398-.521.643-1.164.643-1.871 0-.858-.349-1.635-.912-2.196l-.989-14.943c1.117-.47 1.901-1.573 1.901-2.86 0-1.713-1.389-3.102-3.102-3.102-.203 0-.399.022-.591.059-1.961-3.151-5.351-5.328-9.259-5.586l-36.983-2.45c-1.756-.117-3.174-1.169-3.794-2.817-.619-1.648-.246-3.375.999-4.62l54.481-54.48c.739-.739 1.72-1.189 2.764-1.265l58.771-4.311c.112-.008.223-.012.334-.012 1.158 0 2.238.447 3.068 1.277.91.909 1.36 2.116 1.267 3.4l-.108 1.487c-.403-.192-.849-.308-1.325-.308-1.713 0-3.102 1.389-3.102 3.103s1.389 3.102 3.102 3.102c.319 0 .62-.062.909-.151l-1.01 13.957c-1.665.055-3.001 1.414-3.001 3.092 0 1.526 1.104 2.788 2.556 3.047l-1.035 14.297c-.907.542-1.521 1.522-1.521 2.656 0 .972.456 1.828 1.155 2.397l-.88 12.15c-.076 1.045-.525 2.029-1.266 2.77zm-73.089-445.717c-7.868-4.887-10.293-15.264-5.405-23.133 2.368-3.811 6.077-6.473 10.446-7.495 1.28-.299 2.572-.447 3.854-.447 3.095 0 6.136.861 8.832 2.536 22.454 13.947 59.403 14.528 98.523 15.144 65.887 1.036 147.886 2.327 208.157 67.658 10.08 10.926 14.219 24.119 16.317 35.642l-29.75 29.75c-.797-3.976-1.273-8.149-1.755-12.411-1.262-11.151-2.567-22.682-9.504-30.202-50.506-54.747-118.367-55.815-183.997-56.849-43.902-.688-85.367-1.341-115.718-20.193zm221.059 209.569-190.244-189.131c25.554 6.28 54.605 6.747 84.787 7.222 64.054 1.008 130.288 2.051 178.624 54.444 5.28 5.725 6.446 16.022 7.573 25.981.649 5.735 1.348 11.838 3.01 17.735zm27.133 26.975 83.77-83.77c5.701 1.544 11.726 2.276 17.66 2.984 8.661 1.036 20.522 2.453 24.695 6.293 51.278 47.206 54.437 120.543 57.224 185.25 1.21 28.087 2.38 55.141 7.424 78.901zm239.658 217.444c-1.397 4.263-4.371 7.728-8.374 9.754-2.38 1.205-4.927 1.815-7.571 1.815-6.376 0-12.125-3.53-15.002-9.214-14.418-28.477-16.111-67.767-17.903-109.368-2.849-66.148-6.079-141.122-59.626-190.417-5.947-5.474-18.123-6.929-28.867-8.212-4.346-.52-8.477-1.02-12.345-1.771l29.717-29.717c11.631 2.053 24.341 5.863 34.249 14.985 63.76 58.696 67.461 144.634 70.436 213.69 1.631 37.868 3.172 73.635 14.311 95.635 2.026 4.004 2.373 8.556.975 12.82z"/></g></svg>