<svg id="Capa_1" enable-background="new 0 0 511.942 511.942" height="512" viewBox="0 0 511.942 511.942" width="512" xmlns="http://www.w3.org/2000/svg"><g><path d="m291.229 97.438c1.713 0 3.102-1.39 3.102-3.103 0-1.714-1.389-3.103-3.102-3.103s-3.102 1.389-3.102 3.103 1.389 3.103 3.102 3.103z"/><path d="m280.853 107.814c1.713 0 3.102-1.389 3.102-3.103 0-1.713-1.389-3.102-3.102-3.102s-3.102 1.389-3.102 3.102c-.001 1.715 1.388 3.103 3.102 3.103z"/><path d="m271.229 97.438c1.713 0 3.102-1.39 3.102-3.103 0-1.714-1.389-3.103-3.102-3.103s-3.102 1.389-3.102 3.103 1.389 3.103 3.102 3.103z"/><path d="m260.853 107.814c1.713 0 3.102-1.389 3.102-3.103 0-1.713-1.389-3.102-3.102-3.102s-3.102 1.389-3.102 3.102c-.001 1.715 1.388 3.103 3.102 3.103z"/><path d="m271.229 117.438c1.713 0 3.102-1.39 3.102-3.103 0-1.714-1.389-3.103-3.102-3.103s-3.102 1.389-3.102 3.103 1.389 3.103 3.102 3.103z"/><path d="m240.853 107.814c1.713 0 3.102-1.389 3.102-3.103 0-1.713-1.389-3.102-3.102-3.102s-3.102 1.389-3.102 3.102c-.001 1.715 1.388 3.103 3.102 3.103z"/><path d="m251.229 117.438c1.713 0 3.102-1.39 3.102-3.103 0-1.714-1.389-3.103-3.102-3.103s-3.102 1.389-3.102 3.103 1.389 3.103 3.102 3.103z"/><path d="m240.853 127.814c1.713 0 3.102-1.389 3.102-3.103 0-1.713-1.389-3.102-3.102-3.102s-3.102 1.389-3.102 3.102c-.001 1.715 1.388 3.103 3.102 3.103z"/><path d="m231.229 117.438c1.713 0 3.102-1.39 3.102-3.103 0-1.714-1.389-3.103-3.102-3.103s-3.102 1.389-3.102 3.103 1.389 3.103 3.102 3.103z"/><path d="m220.853 127.814c1.713 0 3.102-1.389 3.102-3.103 0-1.713-1.389-3.102-3.102-3.102s-3.102 1.389-3.102 3.102c-.001 1.715 1.388 3.103 3.102 3.103z"/><path d="m231.229 137.439c1.713 0 3.102-1.39 3.102-3.103 0-1.714-1.389-3.103-3.102-3.103s-3.102 1.389-3.102 3.103c0 1.713 1.389 3.103 3.102 3.103z"/><path d="m220.853 147.814c1.713 0 3.102-1.389 3.102-3.103 0-1.713-1.389-3.102-3.102-3.102s-3.102 1.389-3.102 3.102c-.001 1.715 1.388 3.103 3.102 3.103z"/><path d="m211.229 137.439c1.713 0 3.102-1.39 3.102-3.103 0-1.714-1.389-3.103-3.102-3.103s-3.102 1.389-3.102 3.103c0 1.713 1.389 3.103 3.102 3.103z"/><path d="m200.853 147.814c1.713 0 3.102-1.389 3.102-3.103 0-1.713-1.389-3.102-3.102-3.102s-3.102 1.389-3.102 3.102c-.001 1.715 1.388 3.103 3.102 3.103z"/><path d="m211.229 157.439c1.713 0 3.102-1.39 3.102-3.103 0-1.714-1.389-3.103-3.102-3.103s-3.102 1.389-3.102 3.103c0 1.713 1.389 3.103 3.102 3.103z"/><path d="m191.229 157.439c1.713 0 3.102-1.39 3.102-3.103 0-1.714-1.389-3.103-3.102-3.103s-3.102 1.389-3.102 3.103c0 1.713 1.389 3.103 3.102 3.103z"/><path d="m380.853 227.814c1.713 0 3.102-1.389 3.102-3.103 0-1.713-1.389-3.102-3.102-3.102s-3.102 1.389-3.102 3.102c-.001 1.715 1.388 3.103 3.102 3.103z"/><path d="m360.853 227.814c1.713 0 3.102-1.389 3.102-3.103 0-1.713-1.389-3.102-3.102-3.102s-3.102 1.389-3.102 3.102c-.001 1.715 1.388 3.103 3.102 3.103z"/><path d="m371.229 237.439c1.713 0 3.102-1.39 3.102-3.103 0-1.714-1.389-3.103-3.102-3.103s-3.102 1.389-3.102 3.103c0 1.713 1.389 3.103 3.102 3.103z"/><path d="m360.853 247.814c1.713 0 3.102-1.389 3.102-3.103 0-1.713-1.389-3.102-3.102-3.102s-3.102 1.389-3.102 3.102c-.001 1.715 1.388 3.103 3.102 3.103z"/><path d="m351.229 237.439c1.713 0 3.102-1.39 3.102-3.103 0-1.714-1.389-3.103-3.102-3.103s-3.102 1.389-3.102 3.103c0 1.713 1.389 3.103 3.102 3.103z"/><path d="m340.853 247.814c1.713 0 3.102-1.389 3.102-3.103 0-1.713-1.389-3.102-3.102-3.102s-3.102 1.389-3.102 3.102c-.001 1.715 1.388 3.103 3.102 3.103z"/><path d="m351.229 257.439c1.713 0 3.102-1.39 3.102-3.103 0-1.714-1.389-3.103-3.102-3.103s-3.102 1.389-3.102 3.103c0 1.713 1.389 3.103 3.102 3.103z"/><path d="m340.853 267.815c1.713 0 3.102-1.389 3.102-3.103 0-1.713-1.389-3.102-3.102-3.102s-3.102 1.389-3.102 3.102c-.001 1.714 1.388 3.103 3.102 3.103z"/><path d="m331.229 257.439c1.713 0 3.102-1.39 3.102-3.103 0-1.714-1.389-3.103-3.102-3.103s-3.102 1.389-3.102 3.103c0 1.713 1.389 3.103 3.102 3.103z"/><path d="m320.853 267.815c1.713 0 3.102-1.389 3.102-3.103 0-1.713-1.389-3.102-3.102-3.102s-3.102 1.389-3.102 3.102c-.001 1.714 1.388 3.103 3.102 3.103z"/><path d="m331.229 277.439c1.713 0 3.102-1.39 3.102-3.103 0-1.714-1.389-3.103-3.102-3.103s-3.102 1.389-3.102 3.103c0 1.713 1.389 3.103 3.102 3.103z"/><path d="m320.853 287.815c1.713 0 3.102-1.389 3.102-3.103 0-1.713-1.389-3.102-3.102-3.102s-3.102 1.389-3.102 3.102c-.001 1.714 1.388 3.103 3.102 3.103z"/><path d="m311.229 277.439c1.713 0 3.102-1.39 3.102-3.103 0-1.714-1.389-3.103-3.102-3.103s-3.102 1.389-3.102 3.103c0 1.713 1.389 3.103 3.102 3.103z"/><path d="m477.182 317.542 10.793-9.994c2.642-2.446 3.5-6.192 2.186-9.545-1.313-3.353-4.488-5.518-8.089-5.518h-134.932l69.767-77.321c.099-.109.17-.232.254-.35 1.076-.717 1.786-1.94 1.786-3.329v-29.365c0-9.132-7.429-16.561-16.56-16.561h-180.207l101.993-77.517c.216-.164.403-.354.577-.556.79-.73 1.293-1.767 1.293-2.928v-28.877c0-9.4-7.647-17.048-17.048-17.048h-235.996l-.305-17.311c-.208-11.757-9.942-21.322-21.701-21.322s-21.494 9.565-21.701 21.322l-8.113 460.276c-.142 8.062 2.893 15.671 8.544 21.424 5.652 5.752 13.206 8.92 21.269 8.92 8.064 0 15.618-3.168 21.269-8.92 5.652-5.753 8.687-13.361 8.544-21.424l-6.928-393.04h167.106l-100.754 76.573c-.845.642-1.399 1.593-1.543 2.645-.02.149-.01.297-.013.445-.15.42-.246.865-.246 1.337v29.204c0 9.221 7.502 16.722 16.723 16.722h194.22l-69.636 77.176c-.339.375-.58.8-.747 1.245-.594.697-.966 1.591-.966 2.579v29.372c0 9.128 7.426 16.554 16.554 16.554h187.405c3.61 0 6.788-2.174 8.097-5.539 1.309-3.364.435-7.114-2.228-9.554zm-439.891-296.079c.131-7.424 6.277-13.463 13.702-13.463s13.571 6.039 13.702 13.463l6.251 354.64h-39.906zm29.264 475.953c-4.135 4.208-9.662 6.526-15.563 6.526-5.9 0-11.428-2.318-15.563-6.527-4.136-4.209-6.356-9.776-6.252-15.676l1.721-97.637h40.188l1.721 97.637c.104 5.901-2.116 11.467-6.252 15.677zm7.183-416.857-.598-33.926h235.856c4.989 0 9.048 4.059 9.048 9.048v24.878zm94.428 73.39c-.016.128-.039.254-.039.387 0 1.713 1.389 3.103 3.102 3.103s3.102-1.39 3.102-3.103c0-1.56-1.154-2.837-2.652-3.057l6.529-4.963c.544.895 1.52 1.498 2.643 1.498 1.713 0 3.102-1.389 3.102-3.103 0-.821-.325-1.563-.847-2.118l7.048-5.357c.336.124.694.202 1.073.202 1.713 0 3.102-1.39 3.102-3.103 0-.087-.018-.169-.025-.254l54.189-41.184c-.228.432-.369.915-.369 1.438 0 1.713 1.389 3.103 3.102 3.103s3.102-1.39 3.102-3.103c0-1.714-1.389-3.103-3.102-3.103-.215 0-.424.022-.627.063l3.603-2.738h56.067l-46.45 35.303c-.372-1.297-1.553-2.251-2.969-2.251-1.713 0-3.102 1.389-3.102 3.102 0 1.118.597 2.09 1.484 2.636l-6.049 4.598c-.535-.438-1.21-.712-1.956-.712-1.713 0-3.102 1.389-3.102 3.103 0 .446.098.867.267 1.251l-7.984 6.068c-1.081.155-1.983.856-2.403 1.826l-29.049 22.077h-5.135c.077-.27.132-.551.132-.847 0-1.713-1.389-3.102-3.102-3.102s-3.102 1.389-3.102 3.102c0 .296.055.576.132.847h-14.059c.077-.27.132-.551.132-.847 0-1.713-1.389-3.102-3.102-3.102s-3.102 1.389-3.102 3.102c0 .296.055.576.132.847h-14.059c.077-.27.132-.551.132-.847 0-1.713-1.389-3.102-3.102-3.102s-3.102 1.389-3.102 3.102c0 .296.055.576.132.847h-4.991zm-13.015 53.535c-4.809 0-8.723-3.912-8.723-8.722v-25.204h255.958c4.721 0 8.56 3.84 8.56 8.561v25.365zm204.996 8h8.206c.457 1.143 1.57 1.954 2.877 1.954s2.42-.811 2.877-1.954h14.247c.457 1.143 1.57 1.954 2.877 1.954s2.42-.811 2.877-1.954h11.736l-5.581 6.186c-1.335.258-2.351 1.374-2.481 2.75l-6.181 6.85c-.123-.015-.243-.036-.37-.036-1.713 0-3.102 1.389-3.102 3.103 0 .238.032.467.083.689l-6.159 6.826c-.369-.155-.774-.241-1.199-.241-1.713 0-3.102 1.389-3.102 3.102 0 .537.149 1.034.389 1.476l-5.093 5.644c-.512-.372-1.136-.598-1.817-.598-1.713 0-3.102 1.389-3.102 3.103 0 .795.308 1.513.799 2.061l-5.71 6.328c-.569-.677-1.411-1.115-2.364-1.115-1.713 0-3.102 1.389-3.102 3.102 0 1.067.539 2.007 1.359 2.565l-5.118 5.673c-.51-1.015-1.549-1.717-2.762-1.717-1.713 0-3.102 1.389-3.102 3.103 0 1.324.835 2.447 2.004 2.892l-6.233 6.908c-.27-1.438-1.528-2.526-3.044-2.526-1.713 0-3.102 1.389-3.102 3.102 0 1.628 1.257 2.947 2.851 3.077l-4.236 4.695h-2.66c-.566-.756-1.46-1.251-2.476-1.251s-1.91.495-2.476 1.251h-15.048c-.566-.756-1.46-1.251-2.476-1.251s-1.91.495-2.476 1.251h-15.048c-.466-.623-1.156-1.062-1.954-1.198l6.008-6.659c-.001.029-.009.056-.009.085 0 1.714 1.389 3.103 3.102 3.103s3.102-1.389 3.102-3.103c0-1.713-1.389-3.102-3.102-3.102-.14 0-.274.023-.409.041zm122.473 118.488c-.17.438-.512.438-.641.438h-187.403c-4.717 0-8.554-3.837-8.554-8.554v-25.372h196.05c.128 0 .469 0 .641.438.171.436-.079.668-.174.756l-13.979 12.945c-.82.759-1.285 1.827-1.282 2.945.003 1.117.474 2.184 1.298 2.938l13.869 12.709c.094.088.346.318.175.757z"/></g></svg>