<svg id="Capa_1" enable-background="new 0 0 511.584 511.584" height="512" viewBox="0 0 511.584 511.584" width="512" xmlns="http://www.w3.org/2000/svg"><g><path d="m99.96 414.56c1.713 0 3.102-1.389 3.102-3.102s-1.389-3.102-3.102-3.102-3.102 1.389-3.102 3.102 1.389 3.102 3.102 3.102z"/><path d="m79.96 394.56c1.257 0 2.334-.751 2.822-1.826-2.001-.407-3.976-.826-5.922-1.256.011 1.704 1.394 3.082 3.1 3.082z"/><path d="m90.337 404.183c1.713 0 3.102-1.389 3.102-3.102s-1.389-3.102-3.102-3.102-3.102 1.389-3.102 3.102c-.001 1.714 1.388 3.102 3.102 3.102z"/><path d="m59.96 388.356c-1.713 0-3.102 1.389-3.102 3.102s1.389 3.102 3.102 3.102 3.102-1.389 3.102-3.102c0-1.714-1.389-3.102-3.102-3.102z"/><path d="m70.337 397.979c-1.713 0-3.102 1.389-3.102 3.102 0 1.714 1.389 3.102 3.102 3.102s3.102-1.389 3.102-3.102-1.389-3.102-3.102-3.102z"/><path d="m490.337 144.183c1.713 0 3.102-1.389 3.102-3.102 0-.281-.05-.549-.12-.809-.707-.721-1.454-1.453-2.238-2.193-.24-.059-.486-.1-.744-.1-1.713 0-3.102 1.389-3.102 3.102-.001 1.714 1.388 3.102 3.102 3.102z"/><path d="m479.96 154.56c1.713 0 3.102-1.389 3.102-3.102s-1.389-3.102-3.102-3.102-3.102 1.389-3.102 3.102 1.389 3.102 3.102 3.102z"/><path d="m479.96 168.356c-1.713 0-3.102 1.389-3.102 3.102s1.389 3.102 3.102 3.102 3.102-1.389 3.102-3.102c0-1.714-1.389-3.102-3.102-3.102z"/><path d="m490.337 177.979c-1.713 0-3.102 1.389-3.102 3.102 0 1.714 1.389 3.102 3.102 3.102s3.102-1.389 3.102-3.102-1.389-3.102-3.102-3.102z"/><path d="m479.96 188.356c-1.713 0-3.102 1.389-3.102 3.102s1.389 3.102 3.102 3.102 3.102-1.389 3.102-3.102c0-1.714-1.389-3.102-3.102-3.102z"/><path d="m490.337 197.979c-1.713 0-3.102 1.389-3.102 3.102 0 1.714 1.389 3.102 3.102 3.102s3.102-1.389 3.102-3.102-1.389-3.102-3.102-3.102z"/><path d="m479.96 208.356c-1.713 0-3.102 1.389-3.102 3.102s1.389 3.102 3.102 3.102 3.102-1.389 3.102-3.102c0-1.714-1.389-3.102-3.102-3.102z"/><path d="m479.96 228.356c-1.713 0-3.102 1.389-3.102 3.102s1.389 3.102 3.102 3.102 3.102-1.389 3.102-3.102c0-1.714-1.389-3.102-3.102-3.102z"/><path d="m479.96 248.356c-1.713 0-3.102 1.389-3.102 3.102s1.389 3.102 3.102 3.102c.347 0 .675-.07.987-.175.603-1.45 1.191-2.891 1.768-4.325-.512-1.008-1.547-1.704-2.755-1.704z"/><path d="m473.439 141.081c0-1.541-1.127-2.81-2.599-3.051-.169 1.933-.408 3.975-.728 6.131.075.005.148.022.225.022 1.713 0 3.102-1.388 3.102-3.102z"/><path d="m470.337 177.979c-1.713 0-3.102 1.389-3.102 3.102 0 1.714 1.389 3.102 3.102 3.102s3.102-1.389 3.102-3.102-1.389-3.102-3.102-3.102z"/><path d="m459.96 188.356c-.975 0-1.834.459-2.403 1.163-.227.611-.455 1.221-.689 1.836-.001.035-.01.068-.01.104 0 1.713 1.389 3.102 3.102 3.102s3.102-1.389 3.102-3.102c0-1.715-1.389-3.103-3.102-3.103z"/><path d="m470.337 197.979c-1.713 0-3.102 1.389-3.102 3.102 0 1.714 1.389 3.102 3.102 3.102s3.102-1.389 3.102-3.102-1.389-3.102-3.102-3.102z"/><path d="m459.96 208.356c-1.713 0-3.102 1.389-3.102 3.102s1.389 3.102 3.102 3.102 3.102-1.389 3.102-3.102c0-1.714-1.389-3.102-3.102-3.102z"/><path d="m470.337 217.979c-1.713 0-3.102 1.389-3.102 3.102 0 1.714 1.389 3.102 3.102 3.102s3.102-1.389 3.102-3.102-1.389-3.102-3.102-3.102z"/><path d="m470.337 237.979c-1.713 0-3.102 1.389-3.102 3.102 0 1.714 1.389 3.102 3.102 3.102s3.102-1.389 3.102-3.102-1.389-3.102-3.102-3.102z"/><path d="m451.91 203.741c.911-.54 1.529-1.523 1.529-2.66 0-.266-.044-.519-.107-.765-.465 1.136-.939 2.278-1.422 3.425z"/><path d="m419.96 308.356c-1.713 0-3.102 1.389-3.102 3.102s1.389 3.102 3.102 3.102 3.102-1.389 3.102-3.102c0-1.714-1.389-3.102-3.102-3.102z"/><path d="m419.96 328.356c-1.713 0-3.102 1.389-3.102 3.102s1.389 3.102 3.102 3.102 3.102-1.389 3.102-3.102c0-1.714-1.389-3.102-3.102-3.102z"/><path d="m411.152 278.101c-1.101 1.594-2.216 3.182-3.346 4.766.562.794 1.483 1.316 2.53 1.316 1.713 0 3.102-1.389 3.102-3.102.001-1.429-.971-2.62-2.286-2.98z"/><path d="m399.201 294.455c.244.062.496.104.759.104 1.713 0 3.102-1.389 3.102-3.102 0-.559-.159-1.076-.418-1.529-1.135 1.516-2.282 3.025-3.443 4.527z"/><path d="m410.337 297.979c-1.713 0-3.102 1.389-3.102 3.102 0 1.714 1.389 3.102 3.102 3.102s3.102-1.389 3.102-3.102-1.389-3.102-3.102-3.102z"/><path d="m399.96 308.356c-1.713 0-3.102 1.389-3.102 3.102s1.389 3.102 3.102 3.102 3.102-1.389 3.102-3.102c0-1.714-1.389-3.102-3.102-3.102z"/><path d="m410.337 317.979c-1.713 0-3.102 1.389-3.102 3.102 0 1.714 1.389 3.102 3.102 3.102s3.102-1.389 3.102-3.102-1.389-3.102-3.102-3.102z"/><path d="m399.96 328.356c-1.713 0-3.102 1.389-3.102 3.102s1.389 3.102 3.102 3.102 3.102-1.389 3.102-3.102c0-1.714-1.389-3.102-3.102-3.102z"/><path d="m410.337 337.979c-1.713 0-3.102 1.389-3.102 3.102 0 1.714 1.389 3.102 3.102 3.102s3.102-1.389 3.102-3.102-1.389-3.102-3.102-3.102z"/><path d="m399.96 348.356c-1.713 0-3.102 1.389-3.102 3.102s1.389 3.102 3.102 3.102 3.102-1.389 3.102-3.102c0-1.714-1.389-3.102-3.102-3.102z"/><path d="m393.335 301.838c-.556.681-1.114 1.362-1.675 2.039.826-.392 1.447-1.134 1.675-2.039z"/><path d="m390.337 317.979c-1.713 0-3.102 1.389-3.102 3.102 0 1.714 1.389 3.102 3.102 3.102s3.102-1.389 3.102-3.102-1.389-3.102-3.102-3.102z"/><path d="m379.96 328.356c-1.713 0-3.102 1.389-3.102 3.102s1.389 3.102 3.102 3.102 3.102-1.389 3.102-3.102c0-1.714-1.389-3.102-3.102-3.102z"/><path d="m390.337 337.979c-1.713 0-3.102 1.389-3.102 3.102 0 1.714 1.389 3.102 3.102 3.102s3.102-1.389 3.102-3.102-1.389-3.102-3.102-3.102z"/><path d="m379.96 348.356c-1.713 0-3.102 1.389-3.102 3.102s1.389 3.102 3.102 3.102 3.102-1.389 3.102-3.102c0-1.714-1.389-3.102-3.102-3.102z"/><path d="m390.337 357.979c-1.713 0-3.102 1.389-3.102 3.102 0 1.714 1.389 3.102 3.102 3.102s3.102-1.389 3.102-3.102-1.389-3.102-3.102-3.102z"/><path d="m379.96 368.356c-1.713 0-3.102 1.389-3.102 3.102s1.389 3.102 3.102 3.102 3.102-1.389 3.102-3.102c0-1.714-1.389-3.102-3.102-3.102z"/><path d="m370.337 337.979c-1.713 0-3.102 1.389-3.102 3.102 0 1.714 1.389 3.102 3.102 3.102s3.102-1.389 3.102-3.102-1.389-3.102-3.102-3.102z"/><path d="m359.96 348.356c-1.713 0-3.102 1.389-3.102 3.102s1.389 3.102 3.102 3.102 3.102-1.389 3.102-3.102c0-1.714-1.389-3.102-3.102-3.102z"/><path d="m370.337 357.979c-1.713 0-3.102 1.389-3.102 3.102 0 1.714 1.389 3.102 3.102 3.102s3.102-1.389 3.102-3.102-1.389-3.102-3.102-3.102z"/><path d="m359.96 368.356c-1.713 0-3.102 1.389-3.102 3.102s1.389 3.102 3.102 3.102 3.102-1.389 3.102-3.102c0-1.714-1.389-3.102-3.102-3.102z"/><path d="m370.337 377.979c-1.713 0-3.102 1.389-3.102 3.102 0 1.714 1.389 3.102 3.102 3.102s3.102-1.389 3.102-3.102-1.389-3.102-3.102-3.102z"/><path d="m359.96 388.356c-1.713 0-3.102 1.389-3.102 3.102s1.389 3.102 3.102 3.102 3.102-1.389 3.102-3.102c0-1.714-1.389-3.102-3.102-3.102z"/><path d="m367.234 401.081c0 .204.022.402.06.594 1.559-1.069 3.101-2.152 4.625-3.249-.465-.278-1.002-.447-1.583-.447-1.713 0-3.102 1.389-3.102 3.102z"/><path d="m338.517 354.189c.433.229.919.371 1.443.371 1.713 0 3.102-1.389 3.102-3.102 0-.191-.023-.377-.056-.559-1.484 1.115-2.981 2.211-4.489 3.29z"/><path d="m350.337 357.979c-1.713 0-3.102 1.389-3.102 3.102 0 1.714 1.389 3.102 3.102 3.102s3.102-1.389 3.102-3.102-1.389-3.102-3.102-3.102z"/><path d="m339.96 368.356c-1.713 0-3.102 1.389-3.102 3.102s1.389 3.102 3.102 3.102 3.102-1.389 3.102-3.102c0-1.714-1.389-3.102-3.102-3.102z"/><path d="m350.337 377.979c-1.713 0-3.102 1.389-3.102 3.102 0 1.714 1.389 3.102 3.102 3.102s3.102-1.389 3.102-3.102-1.389-3.102-3.102-3.102z"/><path d="m339.96 388.356c-1.713 0-3.102 1.389-3.102 3.102s1.389 3.102 3.102 3.102 3.102-1.389 3.102-3.102c0-1.714-1.389-3.102-3.102-3.102z"/><path d="m350.337 397.979c-1.713 0-3.102 1.389-3.102 3.102 0 1.714 1.389 3.102 3.102 3.102s3.102-1.389 3.102-3.102-1.389-3.102-3.102-3.102z"/><path d="m339.96 408.356c-1.713 0-3.102 1.389-3.102 3.102s1.389 3.102 3.102 3.102 3.102-1.389 3.102-3.102c0-1.714-1.389-3.102-3.102-3.102z"/><path d="m332.16 358.582c-1.606 1.069-3.227 2.112-4.858 3.137.294 1.408 1.54 2.465 3.035 2.465 1.713 0 3.102-1.389 3.102-3.102 0-1.03-.507-1.936-1.279-2.5z"/><path d="m319.96 368.356c-1.713 0-3.102 1.389-3.102 3.102s1.389 3.102 3.102 3.102 3.102-1.389 3.102-3.102c0-1.714-1.389-3.102-3.102-3.102z"/><path d="m330.337 377.979c-1.713 0-3.102 1.389-3.102 3.102 0 1.714 1.389 3.102 3.102 3.102s3.102-1.389 3.102-3.102-1.389-3.102-3.102-3.102z"/><path d="m319.96 388.356c-1.713 0-3.102 1.389-3.102 3.102s1.389 3.102 3.102 3.102 3.102-1.389 3.102-3.102c0-1.714-1.389-3.102-3.102-3.102z"/><path d="m330.337 397.979c-1.713 0-3.102 1.389-3.102 3.102 0 1.714 1.389 3.102 3.102 3.102s3.102-1.389 3.102-3.102-1.389-3.102-3.102-3.102z"/><path d="m319.96 408.356c-1.713 0-3.102 1.389-3.102 3.102s1.389 3.102 3.102 3.102 3.102-1.389 3.102-3.102c0-1.714-1.389-3.102-3.102-3.102z"/><path d="m310.337 377.979c-1.713 0-3.102 1.389-3.102 3.102 0 1.714 1.389 3.102 3.102 3.102s3.102-1.389 3.102-3.102-1.389-3.102-3.102-3.102z"/><path d="m299.96 388.356c-1.713 0-3.102 1.389-3.102 3.102s1.389 3.102 3.102 3.102 3.102-1.389 3.102-3.102c0-1.714-1.389-3.102-3.102-3.102z"/><path d="m310.337 397.979c-1.713 0-3.102 1.389-3.102 3.102 0 1.714 1.389 3.102 3.102 3.102s3.102-1.389 3.102-3.102-1.389-3.102-3.102-3.102z"/><path d="m299.96 408.356c-1.713 0-3.102 1.389-3.102 3.102s1.389 3.102 3.102 3.102 3.102-1.389 3.102-3.102c0-1.714-1.389-3.102-3.102-3.102z"/><path d="m310.337 417.979c-1.713 0-3.102 1.389-3.102 3.102 0 1.714 1.389 3.102 3.102 3.102s3.102-1.389 3.102-3.102-1.389-3.102-3.102-3.102z"/><path d="m299.96 428.356c-1.713 0-3.102 1.389-3.102 3.102 0 .992.474 1.865 1.199 2.433 1.602-.438 3.204-.895 4.806-1.37.122-.333.199-.688.199-1.063 0-1.714-1.389-3.102-3.102-3.102z"/><path d="m287.25 381.238c.084 1.639 1.427 2.945 3.086 2.945 1.713 0 3.102-1.389 3.102-3.102 0-.739-.269-1.408-.7-1.941-1.821.719-3.65 1.419-5.488 2.098z"/><path d="m279.96 388.356c-1.713 0-3.102 1.389-3.102 3.102s1.389 3.102 3.102 3.102 3.102-1.389 3.102-3.102c0-1.714-1.389-3.102-3.102-3.102z"/><path d="m290.337 397.979c-1.713 0-3.102 1.389-3.102 3.102 0 1.714 1.389 3.102 3.102 3.102s3.102-1.389 3.102-3.102-1.389-3.102-3.102-3.102z"/><path d="m279.96 408.356c-1.713 0-3.102 1.389-3.102 3.102s1.389 3.102 3.102 3.102 3.102-1.389 3.102-3.102c0-1.714-1.389-3.102-3.102-3.102z"/><path d="m290.337 417.979c-1.713 0-3.102 1.389-3.102 3.102 0 1.714 1.389 3.102 3.102 3.102s3.102-1.389 3.102-3.102-1.389-3.102-3.102-3.102z"/><path d="m279.96 428.356c-1.713 0-3.102 1.389-3.102 3.102s1.389 3.102 3.102 3.102 3.102-1.389 3.102-3.102c0-1.714-1.389-3.102-3.102-3.102z"/><path d="m257.017 390.523c-.094.297-.159.607-.159.935 0 1.713 1.389 3.102 3.102 3.102s3.102-1.389 3.102-3.102c0-.887-.377-1.682-.974-2.248-1.686.452-3.377.889-5.071 1.313z"/><path d="m270.337 397.979c-1.713 0-3.102 1.389-3.102 3.102 0 1.714 1.389 3.102 3.102 3.102s3.102-1.389 3.102-3.102-1.389-3.102-3.102-3.102z"/><path d="m259.96 408.356c-1.713 0-3.102 1.389-3.102 3.102s1.389 3.102 3.102 3.102 3.102-1.389 3.102-3.102c0-1.714-1.389-3.102-3.102-3.102z"/><path d="m270.337 417.979c-1.713 0-3.102 1.389-3.102 3.102 0 1.714 1.389 3.102 3.102 3.102s3.102-1.389 3.102-3.102-1.389-3.102-3.102-3.102z"/><path d="m259.96 428.356c-1.713 0-3.102 1.389-3.102 3.102s1.389 3.102 3.102 3.102 3.102-1.389 3.102-3.102c0-1.714-1.389-3.102-3.102-3.102z"/><path d="m241.815 393.931c-.878.175-1.757.35-2.636.517.251.065.51.111.781.111.699.001 1.336-.238 1.855-.628z"/><path d="m250.337 397.979c-1.713 0-3.102 1.389-3.102 3.102 0 1.714 1.389 3.102 3.102 3.102s3.102-1.389 3.102-3.102-1.389-3.102-3.102-3.102z"/><path d="m239.96 408.356c-1.713 0-3.102 1.389-3.102 3.102s1.389 3.102 3.102 3.102 3.102-1.389 3.102-3.102c0-1.714-1.389-3.102-3.102-3.102z"/><path d="m250.337 417.979c-1.713 0-3.102 1.389-3.102 3.102 0 1.714 1.389 3.102 3.102 3.102s3.102-1.389 3.102-3.102-1.389-3.102-3.102-3.102z"/><path d="m239.96 428.356c-1.713 0-3.102 1.389-3.102 3.102s1.389 3.102 3.102 3.102 3.102-1.389 3.102-3.102c0-1.714-1.389-3.102-3.102-3.102z"/><path d="m250.337 437.979c-1.713 0-3.102 1.389-3.102 3.102 0 .416.085.812.233 1.174 1.953-.13 3.91-.273 5.876-.446.057-.235.095-.476.095-.729 0-1.712-1.389-3.101-3.102-3.101z"/><path d="m230.337 397.979c-1.713 0-3.102 1.389-3.102 3.102 0 1.714 1.389 3.102 3.102 3.102s3.102-1.389 3.102-3.102-1.389-3.102-3.102-3.102z"/><path d="m219.96 408.356c-1.713 0-3.102 1.389-3.102 3.102s1.389 3.102 3.102 3.102 3.102-1.389 3.102-3.102c0-1.714-1.389-3.102-3.102-3.102z"/><path d="m230.337 417.979c-1.713 0-3.102 1.389-3.102 3.102 0 1.714 1.389 3.102 3.102 3.102s3.102-1.389 3.102-3.102-1.389-3.102-3.102-3.102z"/><path d="m219.96 428.356c-1.713 0-3.102 1.389-3.102 3.102s1.389 3.102 3.102 3.102 3.102-1.389 3.102-3.102c0-1.714-1.389-3.102-3.102-3.102z"/><path d="m230.337 437.979c-1.713 0-3.102 1.389-3.102 3.102 0 .677.223 1.299.591 1.808 1.678.002 3.363-.012 5.055-.039.35-.503.559-1.111.559-1.77-.001-1.712-1.39-3.101-3.103-3.101z"/><path d="m212.097 398.53c-1.339.151-2.677.294-4.014.431-.523.555-.848 1.298-.848 2.12 0 1.714 1.389 3.102 3.102 3.102s3.102-1.389 3.102-3.102c0-1.059-.532-1.991-1.342-2.551z"/><path d="m199.96 408.356c-1.713 0-3.102 1.389-3.102 3.102s1.389 3.102 3.102 3.102 3.102-1.389 3.102-3.102c0-1.714-1.389-3.102-3.102-3.102z"/><path d="m210.337 417.979c-1.713 0-3.102 1.389-3.102 3.102 0 1.714 1.389 3.102 3.102 3.102s3.102-1.389 3.102-3.102-1.389-3.102-3.102-3.102z"/><path d="m199.96 428.356c-1.713 0-3.102 1.389-3.102 3.102s1.389 3.102 3.102 3.102 3.102-1.389 3.102-3.102c0-1.714-1.389-3.102-3.102-3.102z"/><path d="m187.291 400.521c-.033.182-.057.368-.057.56 0 1.714 1.389 3.102 3.102 3.102s3.102-1.389 3.102-3.102c0-.314-.06-.61-.147-.896-2.003.128-4.003.239-6 .336z"/><path d="m179.96 408.356c-1.713 0-3.102 1.389-3.102 3.102s1.389 3.102 3.102 3.102 3.102-1.389 3.102-3.102c0-1.714-1.389-3.102-3.102-3.102z"/><path d="m190.337 417.979c-1.713 0-3.102 1.389-3.102 3.102 0 1.714 1.389 3.102 3.102 3.102s3.102-1.389 3.102-3.102-1.389-3.102-3.102-3.102z"/><path d="m179.96 428.356c-.095 0-.184.02-.277.028l2.316 5.396c.647-.569 1.064-1.393 1.064-2.322-.001-1.714-1.39-3.102-3.103-3.102z"/><path d="m190.337 437.979c-1.429 0-2.62.972-2.98 2.286 2.004.253 4.028.492 6.072.713-.056-1.664-1.414-2.999-3.092-2.999z"/><path d="m167.94 401.019 1.263 2.944c.352.139.732.221 1.133.221 1.713 0 3.102-1.389 3.102-3.102 0-.039-.01-.076-.012-.116-1.832.028-3.662.049-5.486.053z"/><path d="m459.96 274.56c1.713 0 3.102-1.389 3.102-3.102s-1.389-3.102-3.102-3.102-3.102 1.389-3.102 3.102 1.389 3.102 3.102 3.102z"/><path d="m440.522 228.412c-.882 1.757-1.78 3.519-2.699 5.286.557.531 1.307.862 2.137.862 1.713 0 3.102-1.389 3.102-3.102 0-1.521-1.096-2.78-2.54-3.046z"/><path d="m450.337 237.979c-1.713 0-3.102 1.389-3.102 3.102 0 1.714 1.389 3.102 3.102 3.102s3.102-1.389 3.102-3.102-1.389-3.102-3.102-3.102z"/><path d="m439.96 248.356c-1.713 0-3.102 1.389-3.102 3.102s1.389 3.102 3.102 3.102 3.102-1.389 3.102-3.102c0-1.714-1.389-3.102-3.102-3.102z"/><path d="m450.337 257.979c-1.713 0-3.102 1.389-3.102 3.102 0 1.714 1.389 3.102 3.102 3.102s3.102-1.389 3.102-3.102-1.389-3.102-3.102-3.102z"/><path d="m439.96 268.356c-1.713 0-3.102 1.389-3.102 3.102s1.389 3.102 3.102 3.102 3.102-1.389 3.102-3.102c0-1.714-1.389-3.102-3.102-3.102z"/><path d="m450.337 277.979c-1.713 0-3.102 1.389-3.102 3.102 0 1.714 1.389 3.102 3.102 3.102s3.102-1.389 3.102-3.102-1.389-3.102-3.102-3.102z"/><path d="m439.96 288.356c-1.713 0-3.102 1.389-3.102 3.102s1.389 3.102 3.102 3.102 3.102-1.389 3.102-3.102c0-1.714-1.389-3.102-3.102-3.102z"/><path d="m450.337 297.979c-1.713 0-3.102 1.389-3.102 3.102 0 1.714 1.389 3.102 3.102 3.102s3.102-1.389 3.102-3.102-1.389-3.102-3.102-3.102z"/><path d="m439.96 308.356c-1.713 0-3.102 1.389-3.102 3.102s1.389 3.102 3.102 3.102 3.102-1.389 3.102-3.102c0-1.714-1.389-3.102-3.102-3.102z"/><path d="m430.337 257.979c-1.713 0-3.102 1.389-3.102 3.102 0 1.714 1.389 3.102 3.102 3.102s3.102-1.389 3.102-3.102-1.389-3.102-3.102-3.102z"/><path d="m419.96 268.356c-.647 0-1.247.199-1.744.538l2.387 5.598c1.404-.296 2.459-1.541 2.459-3.034 0-1.714-1.389-3.102-3.102-3.102z"/><path d="m430.337 277.979c-1.713 0-3.102 1.389-3.102 3.102 0 1.714 1.389 3.102 3.102 3.102s3.102-1.389 3.102-3.102-1.389-3.102-3.102-3.102z"/><path d="m167.253 420.899c-.004.062-.018.12-.018.182 0 .95.436 1.79 1.109 2.359z"/><path d="m159.96 428.356c-1.713 0-3.102 1.389-3.102 3.102s1.389 3.102 3.102 3.102 3.102-1.389 3.102-3.102c0-1.714-1.389-3.102-3.102-3.102z"/><path d="m147.286 400.573c-.028.166-.051.334-.051.508 0 1.714 1.389 3.102 3.102 3.102s3.102-1.389 3.102-3.102c0-.094-.019-.181-.027-.273-2.052-.064-4.094-.143-6.126-.235z"/><path d="m139.96 408.356c-1.713 0-3.102 1.389-3.102 3.102s1.389 3.102 3.102 3.102 3.102-1.389 3.102-3.102c0-1.714-1.389-3.102-3.102-3.102z"/><path d="m150.337 417.979c-1.713 0-3.102 1.389-3.102 3.102 0 1.714 1.389 3.102 3.102 3.102s3.102-1.389 3.102-3.102-1.389-3.102-3.102-3.102z"/><path d="m127.835 399.261c-.374.512-.601 1.138-.601 1.821 0 1.714 1.389 3.102 3.102 3.102s3.102-1.389 3.102-3.102c0-.499-.128-.963-.337-1.38-1.764-.139-3.521-.284-5.266-.441z"/><path d="m119.96 408.356c-1.713 0-3.102 1.389-3.102 3.102s1.389 3.102 3.102 3.102 3.102-1.389 3.102-3.102c0-1.714-1.389-3.102-3.102-3.102z"/><path d="m130.337 417.979c-1.713 0-3.102 1.389-3.102 3.102 0 1.714 1.389 3.102 3.102 3.102s3.102-1.389 3.102-3.102-1.389-3.102-3.102-3.102z"/><path d="m508.796 147.324c-8.273-19.277-54.778-50.925-118.284-70.519-15.828-4.883-37.111-10.285-61.647-13.558-.455-.138-.929-.205-1.413-.184-43.079-5.573-95.962-4.49-146.946 17.389-51.71 22.19-89.245 60.825-114.896 96.57-.383.365-.686.792-.907 1.262-13.835 19.453-24.152 37.982-31.287 52.443-29.466 59.718-38.708 114.895-30.621 133.74 7.956 18.54 52.971 49.143 114.972 68.97.085.029.17.058.257.082.934.298 1.859.602 2.801.895 25.082 7.805 63.766 16.948 107.324 16.948 32.794 0 68.353-5.185 102.934-20.025 50.597-21.713 87.635-59.189 113.236-94.294.184-.179.369-.357.522-.574.157-.222.282-.457.391-.697 14.661-20.289 25.514-39.714 32.928-54.745 29.46-59.727 38.712-114.884 30.636-133.703zm-36.763-24.024c-.673-.448-1.356-.896-2.047-1.344.692.449 1.373.896 2.047 1.344zm-7.022-4.483c1.545.945 3.041 1.893 4.511 2.84.005.011.011.022.016.032.318.741.588 1.574.81 2.493.741-.003 1.411-.275 1.943-.71 3.864 2.577 7.427 5.141 10.643 7.655-1.149-.897-2.345-1.801-3.58-2.71-1.423.282-2.496 1.535-2.496 3.041 0 1.713 1.389 3.102 3.102 3.102s3.102-1.389 3.102-3.102c0-.086-.018-.166-.025-.25 7.255 5.681 12.744 11.093 15.888 15.742l-26.89 11.539c-.488-.321-1.071-.511-1.7-.511-1.523 0-2.784 1.1-3.046 2.547l-32.721 14.042-37.155-86.626c24.706 8.334 48.414 19.14 67.598 30.876zm-281.163-30.579c33.794-14.502 68.524-19.555 100.517-19.555 14.092 0 27.649.984 40.364 2.569l54.232 127.18-66.49 28.533-13.817-32.054c-.924-2.148-3.419-3.139-5.565-2.213-2.149.926-3.139 3.418-2.213 5.566l13.811 32.042-51.048 21.906-13.99-32.456c-.926-2.148-3.417-3.139-5.566-2.213-2.148.926-3.139 3.418-2.213 5.566l13.984 32.444-49.475 21.232-13.873-32.185c-.925-2.148-3.416-3.139-5.566-2.213-2.148.926-3.139 3.418-2.213 5.566l13.867 32.172-61.254 26.286-53.948-125.713c24.913-34.403 61.048-71.258 110.456-92.46zm-148.165 157.478 36.25 84.472-62.559 26.846c-3.537-17.384 3.296-60.754 26.309-111.318zm-18.448 124.492c.29.303.587.608.893.916-.307-.309-.603-.613-.893-.916zm61.076 38.973c1.424.651 2.868 1.298 4.329 1.943-1.462-.644-2.904-1.292-4.329-1.943zm31.332 8.882c-1.331.305-2.327 1.464-2.394 2.871-8.538-3.064-16.618-6.299-24.202-9.63-.082-1.641-1.426-2.949-3.087-2.949-.736 0-1.402.267-1.934.695-13.592-6.224-25.453-12.709-35.3-18.971-.493-.985-1.486-1.669-2.652-1.712.824.541 1.666 1.083 2.52 1.627-3.613-2.301-6.953-4.571-10.009-6.786.526-.556.854-1.302.854-2.127 0-1.713-1.389-3.102-3.102-3.102-1.136 0-2.118.617-2.659 1.527 1.53 1.202 3.147 2.425 4.858 3.666-4.687-3.4-8.697-6.667-11.989-9.718.27.25.539.501.819.754.497-.255.917-.633 1.214-1.103-1.923-1.033-3.705-2.073-5.337-3.115-.026.048-.054.094-.078.143-1.801-1.886-3.3-3.67-4.45-5.315l62.559-26.846 36.25 84.471zm-91.48-46.904c.564.567 1.158 1.143 1.776 1.727-.618-.584-1.212-1.16-1.776-1.727zm118.936 59.159c1.922.518 3.898 1.034 5.922 1.546.018-.134.041-.267.041-.406 0-1.713-1.389-3.102-3.102-3.102-1.308 0-2.422.812-2.878 1.958-4.942-1.333-9.537-2.68-13.74-3.988-.365-.113-.72-.232-1.084-.347l-9.739-22.695c.567-.562.92-1.341.92-2.203 0-1.713-1.389-3.102-3.102-3.102-.031 0-.059.008-.09.009l.148.345-69.878-162.833c.167-.342.326-.681.495-1.024 6.284-12.735 15.09-28.704 26.653-45.642l95.211 221.867-.502-1.169c-.568-.712-1.433-1.177-2.415-1.177-1.713 0-3.102 1.389-3.102 3.102s1.389 3.102 3.102 3.102 3.102-1.389 3.102-3.102c0-.145-.023-.283-.043-.423l11.768 27.423c-13.963-2.268-26.685-5.171-37.687-8.139zm70.352 11.881c1.858.122 3.726.234 5.609.325-1.883-.091-3.751-.202-5.609-.325zm170.595-48.326c1.591-1.22 3.162-2.454 4.713-3.701-1.551 1.248-3.122 2.481-4.713 3.701zm11.944-9.728c1.159-1.001 2.307-2.009 3.441-3.023-1.135 1.015-2.282 2.022-3.441 3.023zm10.616-9.656c.788-.755 1.564-1.514 2.34-2.275-.776.76-1.552 1.52-2.34 2.275zm10.293-10.374c.841-.889 1.676-1.78 2.5-2.673-.825.893-1.66 1.784-2.5 2.673zm17.734-20.459c1.288-1.618 2.551-3.235 3.79-4.85-1.239 1.615-2.502 3.232-3.79 4.85zm3.793-4.854c-.552-.506-1.282-.822-2.09-.822-1.713 0-3.102 1.389-3.102 3.102 0 1.08.553 2.029 1.391 2.585-1.846 2.318-3.744 4.636-5.693 6.951-.368-1.302-1.552-2.262-2.972-2.262-1.713 0-3.102 1.389-3.102 3.102 0 1.587 1.197 2.881 2.734 3.065 1.13-1.299 2.243-2.601 3.34-3.904-3.05 3.623-6.223 7.236-9.529 10.818.014-.118.036-.234.036-.356 0-1.713-1.389-3.102-3.102-3.102s-3.102 1.389-3.102 3.102c0 1.714 1.389 3.102 3.102 3.102.188 0 .371-.023.55-.055-2.565 2.714-5.206 5.405-7.922 8.068.058-.238.098-.482.098-.738 0-1.713-1.389-3.102-3.102-3.102s-3.102 1.389-3.102 3.102 1.389 3.102 3.102 3.102c.221 0 .436-.025.644-.069-2.333 2.235-4.726 4.444-7.168 6.627 0-.013.004-.025.004-.038 0-1.713-1.389-3.102-3.102-3.102s-3.102 1.389-3.102 3.102c0 1.594 1.206 2.891 2.752 3.067-2.355 2.035-4.761 4.04-7.215 6.014-.492-1.064-1.562-1.807-2.811-1.807-1.713 0-3.102 1.389-3.102 3.102 0 .984.468 1.851 1.183 2.42-13.416 10.287-28.259 19.561-44.609 27.128-.041-1.678-1.407-3.027-3.095-3.027-1.713 0-3.102 1.389-3.102 3.102 0 .894.384 1.694.989 2.26 1.753-.758 3.486-1.539 5.206-2.335-1.878.869-3.768 1.724-5.686 2.547-20.019 8.591-40.4 13.831-60.365 16.653 1.842-.26 3.688-.548 5.535-.85-.557-.83-1.503-1.377-2.577-1.377-1.407 0-2.582.943-2.962 2.227-18.682 2.64-36.996 3.158-54.308 2.318.23-.433.372-.919.372-1.444 0-1.713-1.389-3.102-3.102-3.102s-3.102 1.389-3.102 3.102c0 .395.081.77.216 1.118-7.852-.518-15.482-1.299-22.818-2.283l-53.951-125.72 61.266-26.292 13.836 32.099c.69 1.602 2.252 2.56 3.892 2.56.56 0 1.128-.111 1.675-.347 2.148-.926 3.139-3.418 2.213-5.566l-13.83-32.086 49.475-21.232 13.718 31.826c.69 1.602 2.252 2.56 3.892 2.56.56 0 1.128-.111 1.675-.347 2.148-.926 3.139-3.418 2.213-5.566l-13.713-31.814 51.048-21.907 13.892 32.229c.69 1.602 2.251 2.56 3.891 2.56.559 0 1.128-.111 1.674-.347 2.149-.926 3.139-3.418 2.213-5.566l-13.887-32.216 66.46-28.52 35.435 83.099c-.53.557-.86 1.306-.86 2.135 0 1.71 1.384 3.096 3.093 3.101l10.003 23.458c-1.531.191-2.72 1.481-2.72 3.064 0 1.714 1.389 3.102 3.102 3.102.741 0 1.413-.271 1.946-.704l-.54-1.267 4.763 11.169c-1.331 1.805-2.695 3.613-4.084 5.424zm9.847-13.494-9.514-22.31c.419-.529.68-1.19.68-1.917 0-1.612-1.234-2.922-2.807-3.073l.85 1.995-96.964-227.391c20.486 3.136 38.376 7.684 52.206 11.895l70.795 165.058c-.408.525-.661 1.177-.661 1.894 0 1.606 1.226 2.912 2.79 3.071l10.084 23.511c-1.424.282-2.498 1.535-2.498 3.041 0 .644.196 1.241.532 1.737-1.466 2.851-3.038 5.823-4.731 8.909.008-.09.027-.177.027-.269 0-1.713-1.389-3.102-3.102-3.102s-3.102 1.389-3.102 3.102 1.389 3.102 3.102 3.102c.698 0 1.336-.239 1.854-.628-5.396 9.685-11.884 20.343-19.541 31.375zm26.59-44.639c-.356.703-.721 1.418-1.091 2.137.37-.719.734-1.432 1.091-2.137zm23.475-57.553c.261-.844.515-1.68.766-2.515-.253.836-.503 1.669-.766 2.515zm10.588-52.518c-.375-1.292-1.553-2.243-2.966-2.243-1.713 0-3.102 1.389-3.102 3.102s1.389 3.102 3.102 3.102c1.269 0 2.358-.764 2.838-1.857-.451 6.256-1.448 13.486-3.031 21.488.385-1.947.737-3.848 1.052-5.7-.275-.08-.559-.135-.859-.135-1.713 0-3.102 1.389-3.102 3.102 0 1.624 1.253 2.942 2.842 3.076-1.561 7.83-3.694 16.404-6.44 25.55-.417-1.221-1.561-2.104-2.923-2.104-1.713 0-3.102 1.389-3.102 3.102 0 1.714 1.389 3.102 3.102 3.102.704 0 1.345-.244 1.865-.639-4.343 13.899-10.08 29.029-17.396 44.835l-2.219-5.173c.525-.556.852-1.3.852-2.125 0-1.71-1.384-3.097-3.094-3.101l.461 1.075-10.52-24.528c1.558-.165 2.776-1.468 2.776-3.069 0-1.713-1.389-3.102-3.102-3.102-.766 0-1.459.288-2 .749l-20.052-46.751 49.336-21.172c.054 1.666 1.413 3.002 3.092 3.002 1.713 0 3.102-1.389 3.102-3.102 0-.848-.342-1.615-.893-2.175l9.669-4.149c.809 3.984 1.065 9.347.712 15.84z"/></g></svg>