<svg id="Capa_1" enable-background="new 0 0 511.371 511.371" height="512" viewBox="0 0 511.371 511.371" width="512" xmlns="http://www.w3.org/2000/svg"><g><path d="m406.482 207.847c6.442-12.408-6.082-67.451-45.659-87.996-11.93-6.193-24.544-8.251-35.753-8.373v-49.525c0-13.296-10.817-24.113-24.113-24.113s-24.113 10.817-24.113 24.113v60.25c-7.159 3.511-12.439 7.426-14.264 10.94-3.451 6.648-.964 24.224 5.785 40.885 1.846 4.557 4.609 10.478 8.479 16.735v41.016h-228.618v-169.826c0-13.296-10.817-24.113-24.113-24.113s-24.113 10.817-24.113 24.113v193.939c0 13.296 10.817 24.113 24.113 24.113h110.607v169.414c0 13.296 10.817 24.113 24.113 24.113s24.113-10.817 24.113-24.113v-169.414h118.011c13.296 0 24.113-10.817 24.113-24.113v-28.59c6.883 1.608 13.675 2.218 19.991 2.218 9.874 0 18.586-1.476 24.66-2.887 17.511-4.071 33.315-12.147 36.761-18.786zm-82.485-88.459c10.412 0 22.173 1.787 33.173 7.498 13.309 6.91 22.958 17.871 29.713 29.419l-15.479 29.651-70.878-37.435 14.997-28.751c2.685-.237 5.524-.382 8.474-.382zm-39.224-57.435c0-8.925 7.26-16.185 16.185-16.185s16.185 7.26 16.185 16.185v49.748c-7.024.469-13.174 1.575-17.795 2.648-5.09 1.183-10.034 2.705-14.574 4.432v-56.828zm-15.838 78.85 14.825 7.83 3.682-7.021-14.776-7.804c4.362-3.22 12.951-7.588 24.492-10.727l-23.003 43.872c-4.054-11.278-5.383-20.809-5.22-26.15zm48.207 115.088c0 8.925-7.26 16.185-16.185 16.185h-121.975c-2.189 0-3.964 1.774-3.964 3.964v173.378c0 8.925-7.26 16.185-16.185 16.185s-16.185-7.26-16.185-16.185v-173.377c0-2.189-1.775-3.964-3.964-3.964h-114.571c-8.925 0-16.185-7.261-16.185-16.185v-193.939c0-8.925 7.26-16.185 16.185-16.185s16.185 7.26 16.185 16.185v173.791c0 2.189 1.775 3.964 3.964 3.964h236.547c2.189 0 3.964-1.775 3.964-3.964v-33.914c6.067 7.312 13.78 14.281 23.467 19.31 2.936 1.524 5.914 2.792 8.902 3.848zm-5.25-41.787c-14.181-7.362-23.756-19.508-29.869-30.112l17.344-33.25-2.509 4.811 70.876 37.433-14.761 28.275c-12.075 1.004-27.183.057-41.081-7.157zm59.528 3.928 9.415-18.128 14.802 7.817c-4.623 3.201-13.069 7.334-24.217 10.311zm28.711-16.903-15.641-8.261 10.257-19.749c4.312 11.865 5.827 22.537 5.384 28.01z"/><path d="m449.586 265.215-47.602-25.254c-1.936-1.028-4.335-.289-5.36 1.644-1.027 1.935-.29 4.334 1.643 5.359l47.602 25.254c.592.315 1.228.464 1.854.464 1.421 0 2.794-.766 3.505-2.106 1.028-1.936.292-4.335-1.642-5.361z"/><path d="m509.265 256.263-80.737-42.846c-1.937-1.027-4.334-.289-5.359 1.644-1.027 1.934-.29 4.334 1.643 5.359l80.737 42.845c.592.315 1.228.464 1.854.464 1.421 0 2.793-.766 3.505-2.107 1.027-1.933.29-4.333-1.643-5.359z"/></g></svg>