<svg id="Capa_1" enable-background="new 0 0 512.153 512.153" height="512" viewBox="0 0 512.153 512.153" width="512" xmlns="http://www.w3.org/2000/svg"><g><path d="m490.337 427.789c-1.713 0-3.102 1.389-3.102 3.102s1.389 3.103 3.102 3.103 3.102-1.389 3.102-3.103c0-1.713-1.389-3.102-3.102-3.102z"/><path d="m479.96 438.166c-1.713 0-3.102 1.389-3.102 3.103 0 1.713 1.389 3.102 3.102 3.102s3.102-1.389 3.102-3.102c0-1.714-1.388-3.103-3.102-3.103z"/><path d="m470.337 427.789c-1.713 0-3.102 1.389-3.102 3.102s1.389 3.103 3.102 3.103 3.102-1.389 3.102-3.103c0-1.713-1.389-3.102-3.102-3.102z"/><path d="m459.96 438.166c-1.713 0-3.102 1.389-3.102 3.103 0 1.713 1.389 3.102 3.102 3.102s3.102-1.389 3.102-3.102c0-1.714-1.388-3.103-3.102-3.103z"/><path d="m450.337 427.789c-1.713 0-3.102 1.389-3.102 3.102s1.389 3.103 3.102 3.103 3.102-1.389 3.102-3.103c0-1.713-1.389-3.102-3.102-3.102z"/><path d="m439.96 438.166c-1.713 0-3.102 1.389-3.102 3.103 0 1.713 1.389 3.102 3.102 3.102s3.102-1.389 3.102-3.102c0-1.714-1.388-3.103-3.102-3.103z"/><path d="m419.96 398.166c-1.713 0-3.102 1.389-3.102 3.103 0 1.713 1.389 3.102 3.102 3.102s3.102-1.389 3.102-3.102c0-1.714-1.388-3.103-3.102-3.103z"/><path d="m419.96 418.166c-1.713 0-3.102 1.389-3.102 3.103 0 1.713 1.389 3.102 3.102 3.102s3.102-1.389 3.102-3.102c0-1.714-1.388-3.103-3.102-3.103z"/><path d="m430.337 427.789c-1.713 0-3.102 1.389-3.102 3.102s1.389 3.103 3.102 3.103 3.102-1.389 3.102-3.103c0-1.713-1.389-3.102-3.102-3.102z"/><path d="m419.96 438.166c-1.713 0-3.102 1.389-3.102 3.103 0 1.713 1.389 3.102 3.102 3.102s3.102-1.389 3.102-3.102c0-1.714-1.388-3.103-3.102-3.103z"/><path d="m410.337 427.789c-1.713 0-3.102 1.389-3.102 3.102s1.389 3.103 3.102 3.103 3.102-1.389 3.102-3.103c0-1.713-1.389-3.102-3.102-3.102z"/><path d="m399.96 438.166c-1.713 0-3.102 1.389-3.102 3.103 0 1.713 1.389 3.102 3.102 3.102s3.102-1.389 3.102-3.102c0-1.714-1.388-3.103-3.102-3.103z"/><path d="m390.337 427.789c-1.713 0-3.102 1.389-3.102 3.102s1.389 3.103 3.102 3.103 3.102-1.389 3.102-3.103c0-1.713-1.389-3.102-3.102-3.102z"/><path d="m379.96 438.166c-1.713 0-3.102 1.389-3.102 3.103 0 1.713 1.389 3.102 3.102 3.102s3.102-1.389 3.102-3.102c0-1.714-1.388-3.103-3.102-3.103z"/><path d="m370.337 427.789c-1.713 0-3.102 1.389-3.102 3.102s1.389 3.103 3.102 3.103 3.102-1.389 3.102-3.103c0-1.713-1.389-3.102-3.102-3.102z"/><path d="m359.96 438.166c-1.713 0-3.102 1.389-3.102 3.103 0 1.713 1.389 3.102 3.102 3.102s3.102-1.389 3.102-3.102c0-1.714-1.388-3.103-3.102-3.103z"/><path d="m350.337 427.789c-1.713 0-3.102 1.389-3.102 3.102s1.389 3.103 3.102 3.103 3.102-1.389 3.102-3.103c0-1.713-1.389-3.102-3.102-3.102z"/><path d="m339.96 438.166c-1.713 0-3.102 1.389-3.102 3.103 0 1.713 1.389 3.102 3.102 3.102s3.102-1.389 3.102-3.102c0-1.714-1.388-3.103-3.102-3.103z"/><path d="m330.337 427.789c-1.713 0-3.102 1.389-3.102 3.102s1.389 3.103 3.102 3.103 3.102-1.389 3.102-3.103c0-1.713-1.389-3.102-3.102-3.102z"/><path d="m319.96 438.166c-1.713 0-3.102 1.389-3.102 3.103 0 1.713 1.389 3.102 3.102 3.102s3.102-1.389 3.102-3.102c0-1.714-1.388-3.103-3.102-3.103z"/><path d="m310.337 427.789c-1.713 0-3.102 1.389-3.102 3.102s1.389 3.103 3.102 3.103 3.102-1.389 3.102-3.103c0-1.713-1.389-3.102-3.102-3.102z"/><path d="m299.96 438.166c-1.713 0-3.102 1.389-3.102 3.103 0 1.713 1.389 3.102 3.102 3.102s3.102-1.389 3.102-3.102c0-1.714-1.388-3.103-3.102-3.103z"/><path d="m290.337 407.789c-1.713 0-3.102 1.389-3.102 3.102s1.389 3.103 3.102 3.103 3.102-1.389 3.102-3.103c0-1.713-1.389-3.102-3.102-3.102z"/><path d="m290.337 427.789c-1.713 0-3.102 1.389-3.102 3.102s1.389 3.103 3.102 3.103 3.102-1.389 3.102-3.103c0-1.713-1.389-3.102-3.102-3.102z"/><path d="m279.96 438.166c-1.713 0-3.102 1.389-3.102 3.103 0 1.713 1.389 3.102 3.102 3.102s3.102-1.389 3.102-3.102c0-1.714-1.388-3.103-3.102-3.103z"/><path d="m270.337 427.789c-1.713 0-3.102 1.389-3.102 3.102s1.389 3.103 3.102 3.103 3.102-1.389 3.102-3.103c0-1.713-1.389-3.102-3.102-3.102z"/><path d="m259.96 438.166c-1.713 0-3.102 1.389-3.102 3.103 0 1.713 1.389 3.102 3.102 3.102s3.102-1.389 3.102-3.102c0-1.714-1.388-3.103-3.102-3.103z"/><path d="m250.337 427.789c-1.713 0-3.102 1.389-3.102 3.102s1.389 3.103 3.102 3.103 3.102-1.389 3.102-3.103c0-1.713-1.389-3.102-3.102-3.102z"/><path d="m239.96 438.166c-1.713 0-3.102 1.389-3.102 3.103 0 1.713 1.389 3.102 3.102 3.102s3.102-1.389 3.102-3.102c0-1.714-1.388-3.103-3.102-3.103z"/><path d="m230.337 427.789c-1.713 0-3.102 1.389-3.102 3.102s1.389 3.103 3.102 3.103 3.102-1.389 3.102-3.103c0-1.713-1.389-3.102-3.102-3.102z"/><path d="m219.96 438.166c-1.713 0-3.102 1.389-3.102 3.103 0 1.713 1.389 3.102 3.102 3.102s3.102-1.389 3.102-3.102c0-1.714-1.388-3.103-3.102-3.103z"/><path d="m210.337 427.789c-1.713 0-3.102 1.389-3.102 3.102s1.389 3.103 3.102 3.103 3.102-1.389 3.102-3.103c0-1.713-1.389-3.102-3.102-3.102z"/><path d="m199.96 438.166c-1.713 0-3.102 1.389-3.102 3.103 0 1.713 1.389 3.102 3.102 3.102s3.102-1.389 3.102-3.102c0-1.714-1.388-3.103-3.102-3.103z"/><path d="m190.337 427.789c-1.713 0-3.102 1.389-3.102 3.102s1.389 3.103 3.102 3.103 3.102-1.389 3.102-3.103c0-1.713-1.389-3.102-3.102-3.102z"/><path d="m179.96 438.166c-1.713 0-3.102 1.389-3.102 3.103 0 1.713 1.389 3.102 3.102 3.102s3.102-1.389 3.102-3.102c0-1.714-1.388-3.103-3.102-3.103z"/><path d="m170.337 427.789c-1.713 0-3.102 1.389-3.102 3.102s1.389 3.103 3.102 3.103 3.102-1.389 3.102-3.103c0-1.713-1.389-3.102-3.102-3.102z"/><path d="m159.96 438.166c-1.713 0-3.102 1.389-3.102 3.103 0 1.713 1.389 3.102 3.102 3.102s3.102-1.389 3.102-3.102c0-1.714-1.388-3.103-3.102-3.103z"/><path d="m150.337 427.789c-1.713 0-3.102 1.389-3.102 3.102s1.389 3.103 3.102 3.103 3.102-1.389 3.102-3.103c0-1.713-1.389-3.102-3.102-3.102z"/><path d="m139.96 438.166c-1.713 0-3.102 1.389-3.102 3.103 0 1.713 1.389 3.102 3.102 3.102s3.102-1.389 3.102-3.102c0-1.714-1.388-3.103-3.102-3.103z"/><path d="m130.337 427.789c-1.713 0-3.102 1.389-3.102 3.102s1.389 3.103 3.102 3.103 3.102-1.389 3.102-3.103c0-1.713-1.389-3.102-3.102-3.102z"/><path d="m119.96 438.166c-1.713 0-3.102 1.389-3.102 3.103 0 1.713 1.389 3.102 3.102 3.102s3.102-1.389 3.102-3.102c0-1.714-1.388-3.103-3.102-3.103z"/><path d="m110.337 427.789c-1.713 0-3.102 1.389-3.102 3.102s1.389 3.103 3.102 3.103 3.102-1.389 3.102-3.103c0-1.713-1.389-3.102-3.102-3.102z"/><path d="m99.96 438.166c-1.713 0-3.102 1.389-3.102 3.103 0 1.713 1.389 3.102 3.102 3.102s3.102-1.389 3.102-3.102c0-1.714-1.388-3.103-3.102-3.103z"/><path d="m79.96 398.166c-1.713 0-3.102 1.389-3.102 3.103 0 1.713 1.389 3.102 3.102 3.102s3.102-1.389 3.102-3.102c0-1.714-1.388-3.103-3.102-3.103z"/><path d="m90.337 407.789c-1.713 0-3.102 1.389-3.102 3.102s1.389 3.103 3.102 3.103 3.102-1.389 3.102-3.103c0-1.713-1.389-3.102-3.102-3.102z"/><path d="m79.96 418.166c-1.713 0-3.102 1.389-3.102 3.103 0 1.713 1.389 3.102 3.102 3.102s3.102-1.389 3.102-3.102c0-1.714-1.388-3.103-3.102-3.103z"/><path d="m90.337 427.789c-1.713 0-3.102 1.389-3.102 3.102s1.389 3.103 3.102 3.103 3.102-1.389 3.102-3.103c0-1.713-1.389-3.102-3.102-3.102z"/><path d="m79.96 438.166c-1.713 0-3.102 1.389-3.102 3.103 0 1.713 1.389 3.102 3.102 3.102s3.102-1.389 3.102-3.102c0-1.714-1.388-3.103-3.102-3.103z"/><path d="m70.337 427.789c-1.713 0-3.102 1.389-3.102 3.102s1.389 3.103 3.102 3.103 3.102-1.389 3.102-3.103c0-1.713-1.389-3.102-3.102-3.102z"/><path d="m59.96 438.166c-1.713 0-3.102 1.389-3.102 3.103 0 1.713 1.389 3.102 3.102 3.102s3.102-1.389 3.102-3.102c0-1.714-1.388-3.103-3.102-3.103z"/><path d="m50.337 427.789c-1.713 0-3.102 1.389-3.102 3.102s1.389 3.103 3.102 3.103 3.102-1.389 3.102-3.103c0-1.713-1.389-3.102-3.102-3.102z"/><path d="m39.96 438.166c-1.713 0-3.102 1.389-3.102 3.103 0 1.713 1.389 3.102 3.102 3.102s3.102-1.389 3.102-3.102c0-1.714-1.388-3.103-3.102-3.103z"/><path d="m30.337 427.789c-1.713 0-3.102 1.389-3.102 3.102s1.389 3.103 3.102 3.103 3.102-1.389 3.102-3.103c0-1.713-1.389-3.102-3.102-3.102z"/><path d="m19.96 438.166c-1.713 0-3.102 1.389-3.102 3.103 0 1.713 1.389 3.102 3.102 3.102s3.102-1.389 3.102-3.102c0-1.714-1.388-3.103-3.102-3.103z"/><path d="m112.055 155.248c12.831 0 23.269-10.438 23.269-23.269s-10.439-23.269-23.269-23.269-23.268 10.438-23.268 23.269 10.438 23.269 23.268 23.269zm0-37.023c7.584 0 13.754 6.17 13.754 13.754 0 7.585-6.17 13.754-13.754 13.754s-13.754-6.17-13.754-13.754 6.171-13.754 13.754-13.754z"/><path d="m135.324 195.056c0-12.831-10.439-23.269-23.269-23.269s-23.268 10.438-23.268 23.269 10.438 23.269 23.268 23.269 23.269-10.439 23.269-23.269zm-23.269 13.754c-7.584 0-13.754-6.17-13.754-13.754s6.17-13.754 13.754-13.754 13.754 6.17 13.754 13.754c.001 7.584-6.169 13.754-13.754 13.754z"/><path d="m484.083 415.727h-41.868v-34.649c15.279-3.468 30.286-7.54 44.982-12.251 6.425-2.06 10.741-8.358 10.741-15.674 0-5.303-2.358-10.288-6.306-13.334-.946-.73-1.963-1.317-3.019-1.782 2.613-5.953 3.997-12.639 4.181-20.125.713-29.24-30.53-44.886-96.441-66.949-36.591-12.249-82.382-36.354-138.965-73.211-.367-.455-.816-.855-1.355-1.16-.35-.198-.716-.331-1.087-.433-16.879-11.044-34.702-23.2-53.529-36.517-7.753-5.484-9.505-41.608-10.553-63.192-1.281-26.398-1.874-34.082-6.911-35.729-5.565-1.821-24.096 2.452-35.193 5.768-13.661 4.082-31.138 10.786-36.817 19.543-1.915 2.953-3.653 10.589-5.18 20.53-4.678-.126-9.513-.232-14.422-.317-15.532-.268-30.035-.284-40.836-.045-20.182.447-21.406 1.556-22.701 2.73h.001c-2.927 2.652-3.067 8.577-3.072 26.904-.005 16.179-.009 36.314-3.573 49.732-6.616 24.904-11.202 70.156-11.066 88.51.098 13.157 3.155 44.16 8.188 64.23-4.797 2.718-8.098 8.199-8.098 14.49v.487c0 8.845 6.563 16.162 14.631 16.31l.715.013 4.78 40.626c.282 2.397 2.314 4.201 4.724 4.201h.027l28.194-.159v21.453h-36.186c-15.477 0-28.069 12.592-28.069 28.07 0 15.477 12.592 28.07 28.069 28.07h456.014c15.477 0 28.07-12.592 28.07-28.07s-12.593-28.07-28.07-28.07zm-365.43-345.342c7.276-11.218 52.302-22.595 61.784-22.185 1.244 4.085 1.9 17.603 2.435 28.637 1.694 34.903 3.794 62.17 13.924 69.335 5.069 3.585 10.064 7.085 14.992 10.505l-21.888 36.276c-1.357 2.249-.634 5.173 1.615 6.531.769.464 1.616.685 2.453.685 1.612 0 3.185-.82 4.078-2.3l21.585-35.773c9.73 6.683 19.175 13.032 28.352 19.062l-20.494 36.228c-1.294 2.287-.488 5.189 1.798 6.483.74.418 1.545.618 2.338.618 1.659 0 3.27-.869 4.145-2.416l20.196-35.701c9.67 6.264 19.023 12.149 28.076 17.673l-19.586 37.286c-1.222 2.326-.327 5.202 1.999 6.424.706.371 1.462.546 2.209.546 1.711 0 3.363-.926 4.215-2.546l19.324-36.786c39.657 23.703 73.295 40.103 101.611 49.581 69.4 23.232 91.508 37.608 90.982 59.167-.182 7.44-1.802 13.904-4.873 19.519-.112.026-.226.039-.337.068-47.98 12.586-97.788 20.233-148.778 22.889 4.375-15.217 10.767-38.969 10.767-47.843 0-14.267-25.568-26.038-74.565-47.322l-4.361-1.895c-4.511-1.961-9.249-4.013-14.108-6.117-33.57-14.537-75.3-32.609-83.237-38.779-.637-.933-2.542-5.523-3.746-27.414-.819-14.886-1.101-33.482-1.35-49.889-.675-44.456-1.282-48.389-4.388-50.517-1.157-.792-2.596-1.779-22.531-2.84-5.463-.29-11.73-.552-18.482-.774 1.367-8.855 2.713-14.668 3.846-16.416zm282.776 318.388v26.954h-91.127v-20.192c31.217-.061 61.637-2.315 91.127-6.762zm-374.391-72.299c-4.587-18.346-7.844-48.487-7.948-62.458-.133-17.921 4.342-62.095 10.797-86.396 3.832-14.426 3.837-35.14 3.842-51.784.002-7.793.004-17.295.675-20.678 5.444-.902 26.099-1.471 58.289-.906 30.258.533 51.993 1.762 57.868 2.761 1.064 5.738 1.372 25.996 1.646 44.041.874 57.488 2.208 78.718 7.962 83.321 8.417 6.734 49.205 24.397 85.191 39.981 4.856 2.102 9.59 4.153 14.097 6.113l4.363 1.896c19.451 8.45 37.824 16.431 50.709 23.546 16.569 9.151 19.044 14.227 19.044 16.438 0 7.886-6.507 32.047-11.208 48.24-21.584.888-43.371.889-65.316-.012-.417-.017-.836-.097-1.243-.238l-127.65-44.035c-1.492-.514-3.018-.777-4.61-.753zm242.476 77.919v21.334h-164.476v-21.684l31.66-.179c2.617-.015 4.73-2.141 4.73-4.757v-31.856l110.455 35.537c1.037.333 2.107.544 3.181.628 4.834.378 9.65.701 14.45.977zm214.569 67.959h-456.014c-10.231 0-18.555-8.324-18.555-18.555 0-10.232 8.323-18.555 18.555-18.555h40.939c2.627 0 4.757-2.13 4.757-4.757v-26.265l21.758-.123v26.387c0 2.627 2.13 4.757 4.757 4.757h173.99c1.451 0 2.735-.664 3.607-1.689.551.503 1.277.817 2.082.817 1.713 0 3.102-1.389 3.102-3.102s-1.389-3.103-3.102-3.103c-.327 0-.636.064-.932.158v-14.112c.296.094.605.158.932.158 1.713 0 3.102-1.389 3.102-3.102s-1.389-3.103-3.102-3.103c-.327 0-.636.064-.932.158v-3.451c7.293.321 14.547.528 21.759.617v2.802c-.265-.074-.538-.125-.827-.125-1.713 0-3.102 1.389-3.102 3.103 0 1.713 1.389 3.102 3.102 3.102.288 0 .562-.052.827-.125v14.046c-.265-.074-.538-.125-.827-.125-1.713 0-3.102 1.389-3.102 3.103 0 1.713 1.389 3.102 3.102 3.102.775 0 1.476-.295 2.02-.765.872.995 2.137 1.637 3.564 1.637h100.642c2.627 0 4.757-2.13 4.757-4.757v-6.552c1.423-.282 2.496-1.536 2.496-3.042 0-1.505-1.073-2.759-2.496-3.041v-13.918c1.423-.282 2.496-1.536 2.496-3.042 0-1.505-1.073-2.759-2.496-3.041v-.598c7.312-1.228 14.565-2.594 21.757-4.094v5.745c-.569-.676-1.411-1.115-2.364-1.115-1.713 0-3.102 1.389-3.102 3.102s1.389 3.103 3.102 3.103c.953 0 1.795-.439 2.364-1.115v16.025c-.569-.676-1.411-1.115-2.364-1.115-1.713 0-3.102 1.389-3.102 3.102s1.389 3.103 3.102 3.103c.953 0 1.795-.439 2.364-1.115v7.605c0 2.627 2.13 4.757 4.757 4.757h46.625c8.541 0 15.733 5.809 17.883 13.677-.542-.463-1.237-.753-2.006-.753-1.713 0-3.102 1.389-3.102 3.103 0 1.713 1.389 3.102 3.102 3.102 1.116 0 2.085-.594 2.632-1.478.015.302.046.599.046.904.002 10.234-8.322 18.558-18.553 18.558z"/></g></svg>