<svg id="Capa_1" enable-background="new 0 0 512 512" height="512" viewBox="0 0 512 512" width="512" xmlns="http://www.w3.org/2000/svg"><g><path d="m214.984 38.961c1.713 0 3.102-1.389 3.102-3.102s-1.389-3.102-3.102-3.102-3.102 1.389-3.102 3.102c-.001 1.713 1.388 3.102 3.102 3.102z"/><path d="m214.984 58.961c1.713 0 3.102-1.389 3.102-3.102s-1.389-3.102-3.102-3.102-3.102 1.389-3.102 3.102c-.001 1.713 1.388 3.102 3.102 3.102z"/><path d="m214.984 78.961c1.713 0 3.102-1.389 3.102-3.102s-1.389-3.103-3.102-3.103-3.102 1.389-3.102 3.103 1.388 3.102 3.102 3.102z"/><path d="m214.984 98.961c1.713 0 3.102-1.389 3.102-3.102s-1.389-3.103-3.102-3.103-3.102 1.389-3.102 3.103 1.388 3.102 3.102 3.102z"/><path d="m214.984 118.961c1.713 0 3.102-1.389 3.102-3.102s-1.389-3.103-3.102-3.103-3.102 1.389-3.102 3.103 1.388 3.102 3.102 3.102z"/><path d="m214.984 212.756c-1.713 0-3.102 1.389-3.102 3.103 0 1.713 1.389 3.102 3.102 3.102s3.102-1.389 3.102-3.102c0-1.714-1.389-3.103-3.102-3.103z"/><path d="m214.984 232.756c-1.713 0-3.102 1.389-3.102 3.103 0 1.713 1.389 3.102 3.102 3.102s3.102-1.389 3.102-3.102c0-1.714-1.389-3.103-3.102-3.103z"/><path d="m214.984 252.756c-1.713 0-3.102 1.389-3.102 3.103 0 1.713 1.389 3.102 3.102 3.102s3.102-1.389 3.102-3.102c0-1.714-1.389-3.103-3.102-3.103z"/><path d="m214.984 272.756c-1.713 0-3.102 1.389-3.102 3.102s1.389 3.102 3.102 3.102 3.102-1.389 3.102-3.102c0-1.712-1.389-3.102-3.102-3.102z"/><path d="m214.984 292.756c-1.713 0-3.102 1.389-3.102 3.102s1.389 3.102 3.102 3.102 3.102-1.389 3.102-3.102c0-1.712-1.389-3.102-3.102-3.102z"/><path d="m214.984 312.756c-1.713 0-3.102 1.389-3.102 3.102s1.389 3.102 3.102 3.102 3.102-1.389 3.102-3.102c0-1.712-1.389-3.102-3.102-3.102z"/><path d="m214.984 332.756c-1.713 0-3.102 1.389-3.102 3.102s1.389 3.102 3.102 3.102 3.102-1.389 3.102-3.102c0-1.712-1.389-3.102-3.102-3.102z"/><path d="m214.984 352.756c-1.713 0-3.102 1.389-3.102 3.102s1.389 3.102 3.102 3.102 3.102-1.389 3.102-3.102c0-1.712-1.389-3.102-3.102-3.102z"/><path d="m214.984 372.756c-1.713 0-3.102 1.389-3.102 3.102s1.389 3.102 3.102 3.102 3.102-1.389 3.102-3.102c0-1.712-1.389-3.102-3.102-3.102z"/><path d="m214.984 472.756c-1.713 0-3.102 1.389-3.102 3.102s1.389 3.102 3.102 3.102 3.102-1.389 3.102-3.102c0-1.712-1.389-3.102-3.102-3.102z"/><path d="m194.984 18.961c1.713 0 3.102-1.389 3.102-3.102s-1.389-3.102-3.102-3.102-3.102 1.389-3.102 3.102 1.388 3.102 3.102 3.102z"/><path d="m205.36 28.584c1.713 0 3.102-1.389 3.102-3.102s-1.389-3.103-3.102-3.103-3.102 1.389-3.102 3.103 1.389 3.102 3.102 3.102z"/><path d="m205.36 42.38c-.784 0-1.492.301-2.038.781.417 1.712.753 3.455.992 5.23.328.118.677.194 1.046.194 1.713 0 3.102-1.389 3.102-3.102 0-1.714-1.389-3.103-3.102-3.103z"/><path d="m205.36 62.38c-.198 0-.39.023-.577.059v6.088c.188.035.38.058.577.058 1.713 0 3.102-1.389 3.102-3.102 0-1.714-1.389-3.103-3.102-3.103z"/><path d="m205.36 82.38c-.198 0-.39.023-.577.059v6.088c.188.035.38.058.577.058 1.713 0 3.102-1.389 3.102-3.102 0-1.714-1.389-3.103-3.102-3.103z"/><path d="m205.36 102.38c-.198 0-.39.023-.577.059v6.088c.188.035.38.058.577.058 1.713 0 3.102-1.389 3.102-3.102 0-1.714-1.389-3.103-3.102-3.103z"/><path d="m205.36 122.38c-.198 0-.39.023-.577.059v6.088c.188.035.38.058.577.058 1.713 0 3.102-1.389 3.102-3.102 0-1.714-1.389-3.103-3.102-3.103z"/><path d="m205.36 202.38c-.198 0-.39.023-.577.059v6.088c.188.035.38.058.577.058 1.713 0 3.102-1.389 3.102-3.102 0-1.714-1.389-3.103-3.102-3.103z"/><path d="m205.36 222.38c-.198 0-.39.023-.577.059v6.088c.188.035.38.058.577.058 1.713 0 3.102-1.389 3.102-3.102 0-1.714-1.389-3.103-3.102-3.103z"/><path d="m205.36 242.38c-.198 0-.39.023-.577.059v6.088c.188.035.38.058.577.058 1.713 0 3.102-1.389 3.102-3.102 0-1.714-1.389-3.103-3.102-3.103z"/><path d="m205.36 262.38c-.198 0-.39.023-.577.059v6.088c.188.035.38.058.577.058 1.713 0 3.102-1.389 3.102-3.102 0-1.714-1.389-3.103-3.102-3.103z"/><path d="m205.36 282.38c-.198 0-.39.023-.577.059v6.088c.188.035.38.058.577.058 1.713 0 3.102-1.389 3.102-3.102 0-1.714-1.389-3.103-3.102-3.103z"/><path d="m205.36 302.38c-.198 0-.39.023-.577.059v6.088c.188.035.38.058.577.058 1.713 0 3.102-1.389 3.102-3.102 0-1.714-1.389-3.103-3.102-3.103z"/><path d="m205.36 322.38c-.198 0-.39.023-.577.059v6.088c.188.035.38.058.577.058 1.713 0 3.102-1.389 3.102-3.102 0-1.714-1.389-3.103-3.102-3.103z"/><path d="m205.36 342.38c-.198 0-.39.023-.577.059v6.088c.188.035.38.058.577.058 1.713 0 3.102-1.389 3.102-3.102 0-1.714-1.389-3.103-3.102-3.103z"/><path d="m205.36 362.38c-.198 0-.39.023-.577.059v6.088c.188.035.38.058.577.058 1.713 0 3.102-1.389 3.102-3.102 0-1.714-1.389-3.103-3.102-3.103z"/><path d="m205.36 462.38c-.322 0-.627.063-.919.154-.21 1.845-.512 3.661-.912 5.441.514.378 1.144.609 1.831.609 1.713 0 3.102-1.389 3.102-3.102s-1.389-3.102-3.102-3.102z"/><path d="m205.36 482.38c-1.713 0-3.102 1.389-3.102 3.103 0 1.713 1.389 3.102 3.102 3.102s3.102-1.389 3.102-3.102c0-1.714-1.389-3.103-3.102-3.103z"/><path d="m194.984 492.756c-1.713 0-3.102 1.389-3.102 3.102s1.389 3.102 3.102 3.102 3.102-1.389 3.102-3.102c0-1.712-1.389-3.102-3.102-3.102z"/><path d="m352.601 38.961c1.713 0 3.102-1.389 3.102-3.102s-1.389-3.102-3.102-3.102-3.102 1.389-3.102 3.102 1.389 3.102 3.102 3.102z"/><path d="m352.601 58.961c1.713 0 3.102-1.389 3.102-3.102s-1.389-3.102-3.102-3.102-3.102 1.389-3.102 3.102 1.389 3.102 3.102 3.102z"/><path d="m352.601 78.961c1.713 0 3.102-1.389 3.102-3.102s-1.389-3.103-3.102-3.103-3.102 1.389-3.102 3.103 1.389 3.102 3.102 3.102z"/><path d="m352.601 98.961c1.713 0 3.102-1.389 3.102-3.102s-1.389-3.103-3.102-3.103-3.102 1.389-3.102 3.103 1.389 3.102 3.102 3.102z"/><path d="m352.601 118.961c1.713 0 3.102-1.389 3.102-3.102s-1.389-3.103-3.102-3.103-3.102 1.389-3.102 3.103 1.389 3.102 3.102 3.102z"/><path d="m352.601 212.756c-1.713 0-3.102 1.389-3.102 3.103 0 1.713 1.389 3.102 3.102 3.102s3.102-1.389 3.102-3.102c.001-1.714-1.388-3.103-3.102-3.103z"/><path d="m352.601 232.756c-1.713 0-3.102 1.389-3.102 3.103 0 1.713 1.389 3.102 3.102 3.102s3.102-1.389 3.102-3.102c.001-1.714-1.388-3.103-3.102-3.103z"/><path d="m352.601 252.756c-1.713 0-3.102 1.389-3.102 3.103 0 1.713 1.389 3.102 3.102 3.102s3.102-1.389 3.102-3.102c.001-1.714-1.388-3.103-3.102-3.103z"/><path d="m352.601 272.756c-1.713 0-3.102 1.389-3.102 3.102s1.389 3.102 3.102 3.102 3.102-1.389 3.102-3.102c.001-1.712-1.388-3.102-3.102-3.102z"/><path d="m352.601 292.756c-1.713 0-3.102 1.389-3.102 3.102s1.389 3.102 3.102 3.102 3.102-1.389 3.102-3.102c.001-1.712-1.388-3.102-3.102-3.102z"/><path d="m352.601 312.756c-1.713 0-3.102 1.389-3.102 3.102s1.389 3.102 3.102 3.102 3.102-1.389 3.102-3.102c.001-1.712-1.388-3.102-3.102-3.102z"/><path d="m352.601 332.756c-1.713 0-3.102 1.389-3.102 3.102s1.389 3.102 3.102 3.102 3.102-1.389 3.102-3.102c.001-1.712-1.388-3.102-3.102-3.102z"/><path d="m352.601 352.756c-1.713 0-3.102 1.389-3.102 3.102s1.389 3.102 3.102 3.102 3.102-1.389 3.102-3.102c.001-1.712-1.388-3.102-3.102-3.102z"/><path d="m352.601 372.756c-1.713 0-3.102 1.389-3.102 3.102s1.389 3.102 3.102 3.102 3.102-1.389 3.102-3.102c.001-1.712-1.388-3.102-3.102-3.102z"/><path d="m352.601 472.756c-1.713 0-3.102 1.389-3.102 3.102s1.389 3.102 3.102 3.102 3.102-1.389 3.102-3.102c.001-1.712-1.388-3.102-3.102-3.102z"/><path d="m332.601 18.961c1.713 0 3.102-1.389 3.102-3.102s-1.389-3.102-3.102-3.102-3.102 1.389-3.102 3.102 1.389 3.102 3.102 3.102z"/><path d="m342.978 28.584c1.713 0 3.102-1.389 3.102-3.102s-1.389-3.103-3.102-3.103-3.102 1.389-3.102 3.103c-.001 1.714 1.389 3.102 3.102 3.102z"/><path d="m342.978 42.38c-.784 0-1.492.301-2.038.781.417 1.712.753 3.455.992 5.23.328.118.677.194 1.046.194 1.713 0 3.102-1.389 3.102-3.102 0-1.714-1.389-3.103-3.102-3.103z"/><path d="m342.978 62.38c-.198 0-.39.023-.577.059v6.088c.188.035.38.058.577.058 1.713 0 3.102-1.389 3.102-3.102 0-1.714-1.389-3.103-3.102-3.103z"/><path d="m342.978 82.38c-.198 0-.39.023-.577.059v6.088c.188.035.38.058.577.058 1.713 0 3.102-1.389 3.102-3.102 0-1.714-1.389-3.103-3.102-3.103z"/><path d="m342.978 102.38c-.198 0-.39.023-.577.059v6.088c.188.035.38.058.577.058 1.713 0 3.102-1.389 3.102-3.102 0-1.714-1.389-3.103-3.102-3.103z"/><path d="m342.978 122.38c-.198 0-.39.023-.577.059v6.088c.188.035.38.058.577.058 1.713 0 3.102-1.389 3.102-3.102 0-1.714-1.389-3.103-3.102-3.103z"/><path d="m342.978 202.38c-.198 0-.39.023-.577.059v6.088c.188.035.38.058.577.058 1.713 0 3.102-1.389 3.102-3.102 0-1.714-1.389-3.103-3.102-3.103z"/><path d="m342.978 222.38c-.198 0-.39.023-.577.059v6.088c.188.035.38.058.577.058 1.713 0 3.102-1.389 3.102-3.102 0-1.714-1.389-3.103-3.102-3.103z"/><path d="m342.978 242.38c-.198 0-.39.023-.577.059v6.088c.188.035.38.058.577.058 1.713 0 3.102-1.389 3.102-3.102 0-1.714-1.389-3.103-3.102-3.103z"/><path d="m342.978 262.38c-.198 0-.39.023-.577.059v6.088c.188.035.38.058.577.058 1.713 0 3.102-1.389 3.102-3.102 0-1.714-1.389-3.103-3.102-3.103z"/><path d="m342.978 282.38c-.198 0-.39.023-.577.059v6.088c.188.035.38.058.577.058 1.713 0 3.102-1.389 3.102-3.102 0-1.714-1.389-3.103-3.102-3.103z"/><path d="m342.978 302.38c-.198 0-.39.023-.577.059v6.088c.188.035.38.058.577.058 1.713 0 3.102-1.389 3.102-3.102 0-1.714-1.389-3.103-3.102-3.103z"/><path d="m342.978 322.38c-.198 0-.39.023-.577.059v6.088c.188.035.38.058.577.058 1.713 0 3.102-1.389 3.102-3.102 0-1.714-1.389-3.103-3.102-3.103z"/><path d="m342.978 342.38c-.198 0-.39.023-.577.059v6.088c.188.035.38.058.577.058 1.713 0 3.102-1.389 3.102-3.102 0-1.714-1.389-3.103-3.102-3.103z"/><path d="m342.978 362.38c-.198 0-.39.023-.577.059v6.088c.188.035.38.058.577.058 1.713 0 3.102-1.389 3.102-3.102 0-1.714-1.389-3.103-3.102-3.103z"/><path d="m342.978 462.38c-.322 0-.627.063-.919.154-.21 1.845-.512 3.661-.912 5.441.514.378 1.143.609 1.831.609 1.713 0 3.102-1.389 3.102-3.102s-1.389-3.102-3.102-3.102z"/><path d="m342.978 482.38c-1.713 0-3.102 1.389-3.102 3.103 0 1.713 1.389 3.102 3.102 3.102s3.102-1.389 3.102-3.102c0-1.714-1.389-3.103-3.102-3.103z"/><path d="m332.601 492.756c-1.713 0-3.102 1.389-3.102 3.102s1.389 3.102 3.102 3.102 3.102-1.389 3.102-3.102c.001-1.712-1.388-3.102-3.102-3.102z"/><path d="m178.206 0c-30.503 0-55.319 24.816-55.319 55.319v401.361c0 30.503 24.816 55.319 55.319 55.319s55.319-24.816 55.319-55.319v-401.361c0-30.503-24.817-55.319-55.319-55.319zm0 8c2.102 0 4.168.152 6.199.419.303.099.62.166.955.166.056 0 .109-.014.164-.017 18.473 2.881 33.432 16.489 38.307 34.23-.935.535-1.573 1.53-1.573 2.684 0 1.602 1.218 2.904 2.775 3.069.318 2.211.492 4.469.492 6.768v7.077c-.056-.003-.108-.017-.165-.017-1.713 0-3.102 1.389-3.102 3.103 0 1.713 1.389 3.102 3.102 3.102.056 0 .109-.014.165-.017v13.829c-.056-.003-.108-.017-.165-.017-1.713 0-3.102 1.389-3.102 3.103 0 1.713 1.389 3.102 3.102 3.102.056 0 .109-.014.165-.017v13.829c-.056-.003-.108-.017-.165-.017-1.713 0-3.102 1.389-3.102 3.103 0 1.713 1.389 3.102 3.102 3.102.056 0 .109-.014.165-.017v13.829c-.056-.003-.108-.017-.165-.017-1.713 0-3.102 1.389-3.102 3.103 0 1.713 1.389 3.102 3.102 3.102.056 0 .109-.014.165-.017v13.829c-.056-.003-.108-.017-.165-.017-1.713 0-3.102 1.389-3.102 3.103 0 1.713 1.389 3.102 3.102 3.102.056 0 .109-.014.165-.017v1.702l-11.677-11.53c.352.139.734.222 1.135.222 1.713 0 3.102-1.389 3.102-3.102s-1.389-3.103-3.102-3.103-3.102 1.389-3.102 3.103c0 .414.085.806.231 1.167l-81.226-80.205v-1.502c0-26.091 21.228-47.319 47.32-47.319zm38.104 390.653c1.047-.498 1.776-1.557 1.776-2.794 0-1.713-1.389-3.102-3.102-3.102-1.251 0-2.322.744-2.812 1.81l-6.137-6.06c1.388-.308 2.428-1.543 2.428-3.024 0-1.713-1.389-3.103-3.102-3.103-.198 0-.39.023-.577.059v4.832l-73.896-72.967v-204.16l73.896 75.29v3.092c.188.035.38.058.577.058.709 0 1.356-.248 1.878-.648l5.591 5.697c-.583.564-.948 1.351-.948 2.226 0 1.713 1.389 3.102 3.102 3.102.854 0 1.627-.346 2.188-.904l5.605 5.711c-.327.491-.519 1.08-.519 1.714 0 1.713 1.389 3.102 3.102 3.102.056 0 .11-.009.165-.012v13.824c-.056-.003-.108-.017-.165-.017-1.713 0-3.102 1.389-3.102 3.103 0 1.713 1.389 3.102 3.102 3.102.056 0 .109-.014.165-.017v13.829c-.056-.003-.108-.017-.165-.017-1.713 0-3.102 1.389-3.102 3.103 0 1.713 1.389 3.102 3.102 3.102.056 0 .109-.014.165-.017v13.829c-.056-.003-.108-.017-.165-.017-1.713 0-3.102 1.389-3.102 3.103 0 1.713 1.389 3.102 3.102 3.102.056 0 .109-.014.165-.017v13.829c-.056-.003-.108-.017-.165-.017-1.713 0-3.102 1.389-3.102 3.103 0 1.713 1.389 3.102 3.102 3.102.056 0 .109-.014.165-.017v13.829c-.056-.003-.108-.017-.165-.017-1.713 0-3.102 1.389-3.102 3.103 0 1.713 1.389 3.102 3.102 3.102.056 0 .109-.014.165-.017v13.829c-.056-.003-.108-.017-.165-.017-1.713 0-3.102 1.389-3.102 3.103 0 1.713 1.389 3.102 3.102 3.102.056 0 .109-.014.165-.017v13.829c-.056-.003-.108-.017-.165-.017-1.713 0-3.102 1.389-3.102 3.103 0 1.713 1.389 3.102 3.102 3.102.056 0 .109-.014.165-.017v13.829c-.056-.003-.108-.017-.165-.017-1.713 0-3.102 1.389-3.102 3.103 0 1.713 1.389 3.102 3.102 3.102.056 0 .109-.014.165-.017v13.829c-.056-.003-.108-.017-.165-.017-1.713 0-3.102 1.389-3.102 3.103 0 1.713 1.389 3.102 3.102 3.102.056 0 .109-.014.165-.017v13.829c-.056-.003-.108-.017-.165-.017-1.423 0-2.61.964-2.975 2.271zm-28.976 104.455c-.538-.447-1.22-.728-1.974-.728-1.082 0-2.032.556-2.587 1.395-1.504.145-3.026.225-4.567.225-26.092 0-47.319-21.228-47.319-47.319v-89.055l73.896 75.291v5.609c.188.035.38.058.577.058 1.361 0 2.505-.882 2.923-2.102l6.206 6.323c-1.477.238-2.608 1.509-2.608 3.053 0 1.713 1.389 3.102 3.102 3.102 1.523 0 2.784-1.1 3.046-2.547l6.104 6.22c-1.103.476-1.876 1.571-1.876 2.849 0 1.254.748 2.329 1.819 2.817-4.458 17.595-18.797 31.287-36.742 34.809z"/><path d="m316.078 0c-30.503 0-55.318 24.816-55.318 55.319v401.361c0 30.503 24.816 55.319 55.318 55.319s55.319-24.816 55.319-55.319v-401.361c0-30.503-24.816-55.319-55.319-55.319zm0 8c1.954 0 3.875.133 5.768.364.352.138.732.22 1.132.22.112 0 .218-.022.327-.033 18.474 2.843 33.447 16.414 38.364 34.127-1.056.495-1.793 1.56-1.793 2.804 0 1.689 1.353 3.058 3.033 3.095.316 2.203.488 4.452.488 6.742v7.103c-.138-.019-.276-.042-.419-.042-1.713 0-3.102 1.389-3.102 3.103 0 1.713 1.389 3.102 3.102 3.102.144 0 .281-.023.419-.043v13.88c-.138-.019-.276-.043-.419-.043-1.713 0-3.102 1.389-3.102 3.103 0 1.713 1.389 3.102 3.102 3.102.144 0 .281-.023.419-.043v13.88c-.138-.019-.276-.043-.419-.043-1.713 0-3.102 1.389-3.102 3.103 0 1.713 1.389 3.102 3.102 3.102.144 0 .281-.023.419-.043v13.88c-.138-.019-.276-.043-.419-.043-1.713 0-3.102 1.389-3.102 3.103 0 1.713 1.389 3.102 3.102 3.102.144 0 .281-.023.419-.042v13.88c-.138-.019-.276-.042-.419-.042-1.713 0-3.102 1.389-3.102 3.103 0 .492.125.951.329 1.365l-8.03-7.929c.141.02.281.043.427.043 1.713 0 3.102-1.389 3.102-3.102s-1.389-3.103-3.102-3.103-3.102 1.389-3.102 3.103c0 .159.024.311.047.463l-80.787-79.77v-1.232c-.001-26.091 21.226-47.319 47.318-47.319zm38.19 390.468c.861-.551 1.436-1.511 1.436-2.609 0-1.713-1.389-3.102-3.102-3.102-1.113 0-2.081.591-2.628 1.471l-5.92-5.845c1.181-.439 2.027-1.566 2.027-2.899 0-1.713-1.389-3.103-3.102-3.103-.198 0-.39.023-.577.059v4.311l-73.641-72.715v-204.17l73.641 75.031v.538 3.092c.188.035.38.058.577.058.71 0 1.354-.249 1.876-.651l.002.003c.01-.008.018-.019.028-.027.089-.07.183-.135.264-.214l5.591 5.697c-.017.012-.029.029-.045.042-.083.066-.171.125-.247.199l.018.018c-.585.562-.966 1.333-.966 2.208 0 1.713 1.389 3.102 3.102 3.102.855 0 1.608-.365 2.167-.926l.021.022c.088-.088.161-.189.238-.288.001-.002.002-.003.004-.004l5.601 5.707c-.03.034-.052.075-.08.11-.05.064-.113.117-.158.185l.014.014c-.329.489-.533 1.066-.533 1.7 0 1.713 1.389 3.102 3.102 3.102.143 0 .281-.019.419-.039v13.876c-.138-.019-.276-.042-.419-.042-1.713 0-3.102 1.389-3.102 3.103 0 1.713 1.389 3.102 3.102 3.102.144 0 .281-.023.419-.042v13.88c-.138-.019-.276-.042-.419-.042-1.713 0-3.102 1.389-3.102 3.103 0 1.713 1.389 3.102 3.102 3.102.144 0 .281-.023.419-.042v13.88c-.138-.019-.276-.042-.419-.042-1.713 0-3.102 1.389-3.102 3.103 0 1.713 1.389 3.102 3.102 3.102.144 0 .281-.023.419-.043v13.88c-.138-.019-.276-.042-.419-.042-1.713 0-3.102 1.389-3.102 3.103 0 1.713 1.389 3.102 3.102 3.102.144 0 .281-.023.419-.043v13.88c-.138-.019-.276-.042-.419-.042-1.713 0-3.102 1.389-3.102 3.103 0 1.713 1.389 3.102 3.102 3.102.144 0 .281-.023.419-.043v13.88c-.138-.019-.276-.042-.419-.042-1.713 0-3.102 1.389-3.102 3.103 0 1.713 1.389 3.102 3.102 3.102.144 0 .281-.023.419-.043v13.88c-.138-.019-.276-.042-.419-.042-1.713 0-3.102 1.389-3.102 3.103 0 1.713 1.389 3.102 3.102 3.102.144 0 .281-.023.419-.043v13.88c-.138-.019-.276-.042-.419-.042-1.713 0-3.102 1.389-3.102 3.103 0 1.713 1.389 3.102 3.102 3.102.144 0 .281-.023.419-.043v13.88c-.138-.019-.276-.042-.419-.042-1.713 0-3.102 1.389-3.102 3.103 0 1.713 1.389 3.102 3.102 3.102.144 0 .281-.023.419-.043v13.88c-.138-.019-.276-.042-.419-.042-1.277 0-2.372.773-2.848 1.876zm7.384-250.191c.403.191.849.308 1.325.308.144 0 .281-.023.419-.042v1.457zm-36.655 354.868c-.544-.47-1.244-.765-2.02-.765-1.09 0-2.045.565-2.598 1.415-1.418.128-2.851.205-4.302.205-26.092 0-47.318-21.228-47.318-47.319v-89.332l73.694 75.085c-.018.003-.036.002-.053.005v.478 5.609c.188.035.38.058.577.058 1.513 0 2.769-1.083 3.043-2.517l6.566 6.69c-.006 0-.012.002-.018.002-.158.003-.31.022-.462.047l.001.001c-1.477.237-2.609 1.506-2.609 3.051 0 1.713 1.389 3.102 3.102 3.102 1.525 0 2.779-1.105 3.038-2.556l.009.009c.029-.159.044-.322.049-.488l6.457 6.579c-.009.002-.018.007-.027.01-.126.037-.255.068-.375.119l.013.013c-1.107.472-1.89 1.556-1.89 2.836 0 1.343.859 2.475 2.053 2.907-4.501 17.62-18.919 31.305-36.93 34.756z"/><path d="m64.731 389.032v-281.041h15.489c2.209 0 4-1.791 4-4v-97.595c0-2.209-1.791-4-4-4h-38.14c-2.209 0-4 1.791-4 4v97.596c0 2.209 1.791 4 4 4h14.651v281.041c-20.929 2.019-37.349 19.703-37.349 41.153 0 2.209 1.791 4 4 4h33.349v60.631c0 2.209 1.791 4 4 4s4-1.791 4-4v-60.631h33.349c2.209 0 4-1.791 4-4 0-21.452-16.419-39.135-37.349-41.154zm-18.651-289.041v-89.595h30.141v89.596h-30.141z"/><path d="m455.267 389.032v-281.041h15.49c2.209 0 4-1.791 4-4v-97.595c0-2.209-1.791-4-4-4h-38.141c-2.209 0-4 1.791-4 4v97.596c0 2.209 1.791 4 4 4h14.65v281.041c-20.929 2.019-37.349 19.703-37.349 41.153 0 2.209 1.791 4 4 4h33.349v60.631c0 2.209 1.791 4 4 4s4-1.791 4-4v-60.631h33.35c2.209 0 4-1.791 4-4 .001-21.452-16.419-39.135-37.349-41.154zm-18.65-289.041v-89.595h30.141v89.596h-30.141z"/></g></svg>