<svg id="Capa_1" enable-background="new 0 0 512.057 512.057" height="512" viewBox="0 0 512.057 512.057" width="512" xmlns="http://www.w3.org/2000/svg"><g><path d="m299.96 394.636c1.713 0 3.102-1.389 3.102-3.102s-1.389-3.103-3.102-3.103-3.102 1.389-3.102 3.103c0 1.713 1.389 3.102 3.102 3.102z"/><path d="m310.337 418.055c-1.713 0-3.102 1.389-3.102 3.102s1.389 3.103 3.102 3.103 3.102-1.389 3.102-3.103c0-1.713-1.389-3.102-3.102-3.102z"/><path d="m299.96 428.431c-1.713 0-3.102 1.389-3.102 3.103 0 1.713 1.389 3.102 3.102 3.102s3.102-1.389 3.102-3.102c0-1.714-1.389-3.103-3.102-3.103z"/><path d="m290.337 384.259c1.713 0 3.102-1.389 3.102-3.103 0-1.148-.631-2.139-1.558-2.675-1.041 1.808-2.16 3.538-3.356 5.184.511.37 1.133.594 1.812.594z"/><path d="m278.553 394.284c.424.218.898.352 1.407.352 1.713 0 3.102-1.389 3.102-3.102 0-.411-.084-.801-.229-1.16-1.369 1.38-2.796 2.686-4.28 3.91z"/><path d="m279.96 408.431c-1.713 0-3.102 1.389-3.102 3.103 0 1.713 1.389 3.102 3.102 3.102s3.102-1.389 3.102-3.102c0-1.714-1.389-3.103-3.102-3.103z"/><path d="m290.337 418.055c-1.713 0-3.102 1.389-3.102 3.102s1.389 3.103 3.102 3.103 3.102-1.389 3.102-3.103c0-1.713-1.389-3.102-3.102-3.102z"/><path d="m279.96 428.431c-1.713 0-3.102 1.389-3.102 3.103 0 1.713 1.389 3.102 3.102 3.102s3.102-1.389 3.102-3.102c0-1.714-1.389-3.103-3.102-3.103z"/><path d="m290.337 438.055c-1.713 0-3.102 1.389-3.102 3.102s1.389 3.103 3.102 3.103 3.102-1.389 3.102-3.103c0-1.713-1.389-3.102-3.102-3.102z"/><path d="m279.96 448.431c-1.713 0-3.102 1.389-3.102 3.103 0 1.713 1.389 3.102 3.102 3.102s3.102-1.389 3.102-3.102c0-1.714-1.389-3.103-3.102-3.103z"/><path d="m259.96 408.431c-1.713 0-3.102 1.389-3.102 3.103 0 1.713 1.389 3.102 3.102 3.102s3.102-1.389 3.102-3.102c0-1.714-1.389-3.103-3.102-3.103z"/><path d="m270.337 418.055c-1.713 0-3.102 1.389-3.102 3.102s1.389 3.103 3.102 3.103 3.102-1.389 3.102-3.103c0-1.713-1.389-3.102-3.102-3.102z"/><path d="m259.96 428.431c-1.713 0-3.102 1.389-3.102 3.103 0 1.713 1.389 3.102 3.102 3.102s3.102-1.389 3.102-3.102c0-1.714-1.389-3.103-3.102-3.103z"/><path d="m270.337 438.055c-1.713 0-3.102 1.389-3.102 3.102s1.389 3.103 3.102 3.103 3.102-1.389 3.102-3.103c0-1.713-1.389-3.102-3.102-3.102z"/><path d="m259.96 448.431c-1.713 0-3.102 1.389-3.102 3.103 0 1.713 1.389 3.102 3.102 3.102s3.102-1.389 3.102-3.102c0-1.714-1.389-3.103-3.102-3.103z"/><path d="m239.96 408.431c-1.713 0-3.102 1.389-3.102 3.103 0 1.713 1.389 3.102 3.102 3.102s3.102-1.389 3.102-3.102c0-1.714-1.389-3.103-3.102-3.103z"/><path d="m250.337 418.055c-1.713 0-3.102 1.389-3.102 3.102s1.389 3.103 3.102 3.103 3.102-1.389 3.102-3.103c0-1.713-1.389-3.102-3.102-3.102z"/><path d="m239.96 428.431c-1.713 0-3.102 1.389-3.102 3.103 0 1.713 1.389 3.102 3.102 3.102s3.102-1.389 3.102-3.102c0-1.714-1.389-3.103-3.102-3.103z"/><path d="m250.337 438.055c-1.713 0-3.102 1.389-3.102 3.102s1.389 3.103 3.102 3.103 3.102-1.389 3.102-3.103c0-1.713-1.389-3.102-3.102-3.102z"/><path d="m239.96 448.431c-1.713 0-3.102 1.389-3.102 3.103 0 1.713 1.389 3.102 3.102 3.102s3.102-1.389 3.102-3.102c0-1.714-1.389-3.103-3.102-3.103z"/><path d="m219.96 408.431c-1.713 0-3.102 1.389-3.102 3.103 0 1.713 1.389 3.102 3.102 3.102s3.102-1.389 3.102-3.102c0-1.714-1.389-3.103-3.102-3.103z"/><path d="m230.337 418.055c-1.713 0-3.102 1.389-3.102 3.102s1.389 3.103 3.102 3.103 3.102-1.389 3.102-3.103c0-1.713-1.389-3.102-3.102-3.102z"/><path d="m219.96 428.431c-1.713 0-3.102 1.389-3.102 3.103 0 1.713 1.389 3.102 3.102 3.102s3.102-1.389 3.102-3.102c0-1.714-1.389-3.103-3.102-3.103z"/><path d="m230.337 438.055c-1.713 0-3.102 1.389-3.102 3.102s1.389 3.103 3.102 3.103 3.102-1.389 3.102-3.103c0-1.713-1.389-3.102-3.102-3.102z"/><path d="m210.337 404.259c.851 0 1.62-.344 2.181-.898-1.774-.734-3.529-1.524-5.267-2.364-.003.054-.016.105-.016.159-.001 1.714 1.388 3.103 3.102 3.103z"/><path d="m199.96 408.431c-1.713 0-3.102 1.389-3.102 3.103 0 1.713 1.389 3.102 3.102 3.102s3.102-1.389 3.102-3.102c0-1.714-1.389-3.103-3.102-3.103z"/><path d="m210.337 418.055c-1.713 0-3.102 1.389-3.102 3.102s1.389 3.103 3.102 3.103 3.102-1.389 3.102-3.103c0-1.713-1.389-3.102-3.102-3.102z"/><path d="m179.96 388.431c-1.713 0-3.102 1.389-3.102 3.103 0 1.713 1.389 3.102 3.102 3.102s3.102-1.389 3.102-3.102c0-1.714-1.389-3.103-3.102-3.103z"/><path d="m190.337 398.055c-1.713 0-3.102 1.389-3.102 3.102s1.389 3.103 3.102 3.103 3.102-1.389 3.102-3.103c0-1.713-1.389-3.102-3.102-3.102z"/><path d="m179.96 408.431c-1.713 0-3.102 1.389-3.102 3.103 0 1.713 1.389 3.102 3.102 3.102s3.102-1.389 3.102-3.102c0-1.714-1.389-3.103-3.102-3.103z"/><path d="m190.337 418.055c-1.713 0-3.102 1.389-3.102 3.102s1.389 3.103 3.102 3.103 3.102-1.389 3.102-3.103c0-1.713-1.389-3.102-3.102-3.102z"/><path d="m159.96 388.431c-1.713 0-3.102 1.389-3.102 3.103 0 1.713 1.389 3.102 3.102 3.102s3.102-1.389 3.102-3.102c0-1.714-1.389-3.103-3.102-3.103z"/><path d="m170.337 398.055c-1.713 0-3.102 1.389-3.102 3.102s1.389 3.103 3.102 3.103 3.102-1.389 3.102-3.103c0-1.713-1.389-3.102-3.102-3.102z"/><path d="m159.96 408.431c-1.713 0-3.102 1.389-3.102 3.103 0 1.713 1.389 3.102 3.102 3.102s3.102-1.389 3.102-3.102c0-1.714-1.389-3.103-3.102-3.103z"/><path d="m139.96 388.431c-1.713 0-3.102 1.389-3.102 3.103 0 1.713 1.389 3.102 3.102 3.102s3.102-1.389 3.102-3.102c0-1.714-1.389-3.103-3.102-3.103z"/><path d="m150.337 398.055c-1.713 0-3.102 1.389-3.102 3.102s1.389 3.103 3.102 3.103 3.102-1.389 3.102-3.103c0-1.713-1.389-3.102-3.102-3.102z"/><path d="m139.96 408.431c-1.713 0-3.102 1.389-3.102 3.103 0 1.713 1.389 3.102 3.102 3.102s3.102-1.389 3.102-3.102c0-1.714-1.389-3.103-3.102-3.103z"/><path d="m119.96 368.431c-1.713 0-3.102 1.389-3.102 3.103 0 1.713 1.389 3.102 3.102 3.102s3.102-1.389 3.102-3.102c0-1.714-1.389-3.103-3.102-3.103z"/><path d="m130.337 378.055c-1.713 0-3.102 1.389-3.102 3.102s1.389 3.103 3.102 3.103 3.102-1.389 3.102-3.103c0-1.713-1.389-3.102-3.102-3.102z"/><path d="m119.96 388.431c-1.713 0-3.102 1.389-3.102 3.103 0 1.713 1.389 3.102 3.102 3.102s3.102-1.389 3.102-3.102c0-1.714-1.389-3.103-3.102-3.103z"/><path d="m130.337 398.055c-1.713 0-3.102 1.389-3.102 3.102s1.389 3.103 3.102 3.103 3.102-1.389 3.102-3.103c0-1.713-1.389-3.102-3.102-3.102z"/><path d="m119.96 408.431c-1.713 0-3.102 1.389-3.102 3.103 0 1.713 1.389 3.102 3.102 3.102s3.102-1.389 3.102-3.102c0-1.714-1.389-3.103-3.102-3.103z"/><path d="m101.521 368.867c-1.478.49-2.952.979-4.42 1.458-.157.371-.244.779-.244 1.208 0 1.713 1.389 3.102 3.102 3.102s3.102-1.389 3.102-3.102c.001-1.141-.622-2.127-1.54-2.666z"/><path d="m110.337 378.055c-1.713 0-3.102 1.389-3.102 3.102s1.389 3.103 3.102 3.103 3.102-1.389 3.102-3.103c0-1.713-1.389-3.102-3.102-3.102z"/><path d="m110.337 418.055c-1.713 0-3.102 1.389-3.102 3.102s1.389 3.103 3.102 3.103 3.102-1.389 3.102-3.103c0-1.713-1.389-3.102-3.102-3.102z"/><path d="m242.847 59.406c0-2.286-1.853-4.138-4.138-4.138-116.288 0-210.896 94.375-210.896 210.377 0 23.623 3.436 45.438 10.21 64.842.596 1.707 2.196 2.775 3.907 2.775.452 0 .913-.075 1.364-.232 2.158-.753 3.297-3.113 2.543-5.271-6.468-18.525-9.748-39.423-9.748-62.114 0-111.439 90.895-202.101 202.619-202.101 2.286 0 4.139-1.853 4.139-4.138z"/><path d="m511.961 418.682c.904-27.58-4.898-50.268-5.135-51.285-.492-2.107-2.525-3.48-4.662-3.148-41.04 6.352-85.833 7.802-133.542 4.35-3.358-11.972-6.853-24.995-10.474-39.047-8.938-34.688-17.018-69.351-22.609-94.131 7.895-2.556 15.845-5.111 23.416-7.544 81.743-26.272 93.16-30.788 95.194-34.806.555-1.097.651-2.328.27-3.466-31.814-95.095-120.695-158.987-221.171-158.987-62.303 0-120.877 24.262-164.932 68.317-44.054 44.055-68.316 102.629-68.316 164.932 0 26.189 3.798 50.373 11.288 71.88 8.995 25.827 39.673 84.224 77.087 99.886 12.577 5.266 27.487.319 41.906-4.463 12.407-4.115 25.237-8.371 35.972-5.987 12.824 2.847 25.322 11.314 38.552 20.278 11.107 7.525 22.593 15.307 35.168 20.336 8.285 3.314 17.171 4.958 26.038 4.957 11.018 0 22.008-2.538 31.768-7.558 16.534-8.505 28.136-23.382 32.669-41.891.651-2.658 1.082-5.159 1.351-7.544 13.522 1.779 28.221 3.576 43.518 5.227.449 1.328.894 2.627 1.335 3.901 13.547 39.107 21.131 45.827 26.224 47.312 12.935 3.773 34.946 8.435 54.962 10.347 6.205.593 11.772.89 16.717.89 15.475 0 24.843-2.914 28.467-8.802 9.137-14.848 8.983-49.616 8.972-51.088-.002-.52-.011-2.77-.033-2.866zm-161.834-87.088c3.343 12.976 6.581 25.079 9.706 36.304-8.263-.696-16.602-1.522-25.03-2.509-.861-.1-1.634-.191-2.332-.266l-18.366-74.398c-.346-1.402-1.398-2.521-2.775-2.955l-45.803-14.42c2.165-8.474 4.539-13.99 5.911-15.258 3.274-2.569 28.473-11.083 56.194-20.105 5.6 24.786 13.625 59.18 22.495 93.607zm-33.131 59.073c-.081.276-.138.563-.138.866 0 1.713 1.389 3.102 3.102 3.102.015 0 .03-.004.045-.004 1.75 2.815 2.967 5.993 3.502 9.672-3.634-.496-7.156-.986-10.567-1.469.313-.484.499-1.059.499-1.678 0-1.713-1.389-3.102-3.102-3.102s-3.102 1.389-3.102 3.102c0 .309.059.602.143.884-5.042-.727-9.784-1.43-14.185-2.095-.472-1.111-1.573-1.891-2.856-1.891-.944 0-1.78.431-2.349 1.097-15.096-2.323-25.286-4.067-28.165-4.567l-50.634-32.873c3.217-6.479 5.036-13.771 5.036-21.482 0-13.999-5.971-26.623-15.493-35.48 3.371-10.33 9.64-29.067 13.568-39.48l43.491 13.692c-1.231 6.263-2.152 12.847-2.675 18.945-1.32 15.395-1.57 43.56 11.601 59.199 6.598 7.835 17.029 12.863 27.116 17.725 9.937 4.79 19.191 9.256 25.163 15.837zm-191.444-50.438c0-22.166 18.033-40.198 40.198-40.198s40.198 18.033 40.198 40.198c0 7.197-1.91 13.952-5.236 19.801-.509.653-.967 1.398-1.296 2.126-7.182 10.989-19.586 18.271-33.666 18.271-22.165.001-40.198-18.032-40.198-40.198zm89.792-82.678c1.23-2.946 2.327-5.31 3.193-6.755 4.173-5.531 54.348-26.71 102.048-44.686 1.036 4.806 2.838 13.085 5.227 23.769-38.362 12.474-56.442 18.863-59.93 22.082-3.174 2.931-6.028 10.146-8.269 18.896zm216.632-99.349-28.823 12.81c-7.429-15.597-20.112-31.966-28.728-43.085-3.104-4.006-6.548-8.451-7.983-10.717 3.116-3.043 13.337-9.742 23.025-15.422 16.876 16.255 31.283 35.233 42.509 56.414zm-109.565 261.134c-.78 3.183-1.807 6.237-3.049 9.155-1.426.279-2.503 1.534-2.503 3.042 0 .518.139.998.363 1.428-1.246 2.336-2.653 4.559-4.2 6.667-.534-.936-1.53-1.574-2.684-1.574-1.713 0-3.102 1.389-3.102 3.102 0 1.373.897 2.523 2.132 2.933-2.023 2.216-4.23 4.261-6.61 6.123-.497-1.05-1.558-1.781-2.797-1.781-1.713 0-3.102 1.389-3.102 3.103 0 .843.339 1.606.885 2.165-1.219.751-2.46 1.474-3.748 2.137-6.439 3.311-13.489 5.376-20.702 6.212.086-.284.146-.579.146-.891 0-1.713-1.389-3.102-3.102-3.102s-3.102 1.389-3.102 3.102c0 .463.108.898.29 1.292-4.718.112-9.452-.301-14.089-1.249 0-.015.004-.028.004-.043 0-1.713-1.389-3.102-3.102-3.102-1.185 0-2.202.672-2.725 1.648-1.539-.476-3.066-.992-4.564-1.591-10.302-4.121-20.116-10.418-29.622-16.816.002-.047.014-.091.014-.139 0-1.713-1.389-3.102-3.102-3.102-.459 0-.892.106-1.284.285-2.313-1.567-4.606-3.117-6.887-4.628.553-.56.896-1.329.896-2.178 0-1.713-1.389-3.103-3.102-3.103-1.315 0-2.432.821-2.884 1.976-9.53-6.043-18.978-11.073-29.03-13.305-2.796-.621-5.637-.893-8.508-.893-8.563 0-17.398 2.42-26.127 5.223.008-.092.028-.181.028-.275 0-1.713-1.389-3.102-3.102-3.102s-3.102 1.389-3.102 3.102c0 .787.302 1.496.785 2.043-.114.038-.229.076-.343.114-9.006 2.987-17.674 5.849-25.331 6.257-.569-.691-1.42-1.14-2.384-1.14-.924 0-1.744.412-2.313 1.053-2.132-.218-4.166-.686-6.076-1.486-1.169-.49-2.331-1.034-3.489-1.619.882-.691 1.79-1.416 2.711-2.166 1.153-.172 2.09-.971 2.463-2.045 7.025-5.952 14.094-13.028 15.495-18.358.465.279 1.003.449 1.585.449 1.713 0 3.102-1.389 3.102-3.103 0-1.713-1.389-3.102-3.102-3.102-.787 0-1.498.303-2.045.786-4.227-11.3-26.16-35.66-33.177-38.668-3.108-1.331-8.232-1.322-22.678 8.862-4.455 3.141-8.552 6.371-11.145 8.475-.612-.974-1.212-1.949-1.806-2.922.156.024.312.048.474.048 1.713 0 3.102-1.389 3.102-3.102s-1.389-3.103-3.102-3.103c-1.349 0-2.485.866-2.913 2.069-1.478-2.528-2.887-5.033-4.227-7.501.384-.517.619-1.149.619-1.842 0-1.713-1.389-3.102-3.102-3.102-.045 0-.087.011-.131.013-5.051-9.775-8.867-18.625-11.102-25.043-7.185-20.629-10.828-43.897-10.828-69.158 0-124.05 100.922-224.972 224.972-224.972 56.719 0 109.604 21.114 149.868 57.01-25.453 14.99-25.462 18.844-25.462 20.971 0 2.804 2.121 5.657 10.229 16.121 9.063 11.697 22.76 29.373 29.372 45.077.431 1.024 1.257 1.832 2.29 2.241.49.194 1.007.291 1.524.291.573 0 1.146-.119 1.681-.357l32.973-14.655c3.731 7.714 7.052 15.697 9.923 23.932-9.995 5.008-53.637 19.034-89.224 30.472-8.189 2.632-15.733 5.062-22.703 7.318-3.745-16.769-5.99-27.362-6.044-27.621-.249-1.179-1-2.19-2.056-2.771-1.057-.58-2.314-.671-3.442-.249-.258.097-26.068 9.756-52.252 20.467-54.129 22.144-57.041 26.998-58.44 29.33-4.801 8.002-15.47 39.975-19.692 52.906-7.529-4.816-16.461-7.621-26.042-7.621-26.729 0-48.474 21.745-48.474 48.474s21.745 48.475 48.474 48.475c16.059 0 30.311-7.855 39.137-19.918l51.138 33.2c.464.301.985.507 1.53.604.484.086 16.215 2.853 40.564 6.46-.761.565-1.261 1.463-1.261 2.484 0 1.713 1.389 3.102 3.102 3.102s3.102-1.389 3.102-3.102c0-.696-.237-1.332-.624-1.849 4.561.666 9.384 1.355 14.441 2.058.109 1.614 1.439 2.893 3.081 2.893 1.349 0 2.486-.867 2.913-2.07.241.033.478.065.72.099-.224 2.089-.608 4.304-1.187 6.67zm9.587-13.892c-1.612-21.202-19.992-30.078-36.571-38.069-9.731-4.69-18.922-9.121-24.38-15.601-8.216-9.757-11.746-29.133-9.685-53.161.538-6.272 1.377-12.046 2.361-17.155l42.906 13.507 18.502 74.953c.17.75.547 1.455 1.113 2.022.898.897 2.128 1.31 3.333 1.192.745.065 2.462.266 4.264.477 9.568 1.12 19.024 2.035 28.384 2.785 3.578 12.562 6.999 23.91 10.245 33.965-14.214-1.567-27.866-3.25-40.472-4.915zm39.022-28.397c45.713 3.12 88.801 1.787 128.517-4.033 1.434 7.452 4.328 25.124 3.942 44.561-37 1.104-81.298-1.985-121.99-6.248-3.303-10.049-6.8-21.507-10.469-34.28zm124.955 91.251c-2.129 3.461-13.058 6.332-37.349 4.012-19.476-1.861-40.869-6.39-53.43-10.054-1.142-.333-7.505-3.926-20.719-42.067-.028-.082-.057-.163-.085-.247 39.938 4.088 83.056 6.996 119.284 5.921-.286 11.53-1.967 33.118-7.701 42.435z"/></g></svg>