<svg id="Capa_1" enable-background="new 0 0 498.012 498.012" height="512" viewBox="0 0 498.012 498.012" width="512" xmlns="http://www.w3.org/2000/svg"><g><path d="m450.927 243.592c1.713 0 3.102-1.389 3.102-3.102s-1.389-3.102-3.102-3.102-3.102 1.389-3.102 3.102 1.388 3.102 3.102 3.102z"/><path d="m450.927 263.592c1.713 0 3.102-1.389 3.102-3.102s-1.389-3.102-3.102-3.102-3.102 1.389-3.102 3.102c-.001 1.713 1.388 3.102 3.102 3.102z"/><path d="m450.927 283.592c1.713 0 3.102-1.389 3.102-3.102s-1.389-3.102-3.102-3.102-3.102 1.389-3.102 3.102c-.001 1.713 1.388 3.102 3.102 3.102z"/><path d="m450.927 303.592c1.713 0 3.102-1.389 3.102-3.102s-1.389-3.102-3.102-3.102-3.102 1.389-3.102 3.102c-.001 1.713 1.388 3.102 3.102 3.102z"/><path d="m450.927 323.592c1.713 0 3.102-1.389 3.102-3.102s-1.389-3.102-3.102-3.102-3.102 1.389-3.102 3.102c-.001 1.713 1.388 3.102 3.102 3.102z"/><path d="m430.927 183.592c1.713 0 3.102-1.389 3.102-3.102s-1.389-3.102-3.102-3.102-3.102 1.389-3.102 3.102 1.388 3.102 3.102 3.102z"/><path d="m430.927 203.592c1.713 0 3.102-1.389 3.102-3.102s-1.389-3.102-3.102-3.102-3.102 1.389-3.102 3.102 1.388 3.102 3.102 3.102z"/><path d="m441.303 213.215c1.713 0 3.102-1.389 3.102-3.102s-1.389-3.103-3.102-3.103-3.102 1.389-3.102 3.103 1.389 3.102 3.102 3.102z"/><path d="m430.927 223.592c1.713 0 3.102-1.389 3.102-3.102s-1.389-3.102-3.102-3.102-3.102 1.389-3.102 3.102 1.388 3.102 3.102 3.102z"/><path d="m441.303 233.215c1.713 0 3.102-1.389 3.102-3.102s-1.389-3.103-3.102-3.103-3.102 1.389-3.102 3.103 1.389 3.102 3.102 3.102z"/><path d="m430.927 243.592c1.713 0 3.102-1.389 3.102-3.102s-1.389-3.102-3.102-3.102-3.102 1.389-3.102 3.102 1.388 3.102 3.102 3.102z"/><path d="m441.303 253.215c1.713 0 3.102-1.389 3.102-3.102s-1.389-3.103-3.102-3.103-3.102 1.389-3.102 3.103 1.389 3.102 3.102 3.102z"/><path d="m430.927 263.592c1.713 0 3.102-1.389 3.102-3.102s-1.389-3.102-3.102-3.102-3.102 1.389-3.102 3.102c-.001 1.713 1.388 3.102 3.102 3.102z"/><path d="m441.303 273.215c1.713 0 3.102-1.389 3.102-3.102s-1.389-3.103-3.102-3.103-3.102 1.389-3.102 3.103 1.389 3.102 3.102 3.102z"/><path d="m430.927 283.592c1.713 0 3.102-1.389 3.102-3.102s-1.389-3.102-3.102-3.102-3.102 1.389-3.102 3.102c-.001 1.713 1.388 3.102 3.102 3.102z"/><path d="m441.303 293.215c1.713 0 3.102-1.389 3.102-3.102s-1.389-3.103-3.102-3.103-3.102 1.389-3.102 3.103 1.389 3.102 3.102 3.102z"/><path d="m430.927 303.592c1.713 0 3.102-1.389 3.102-3.102s-1.389-3.102-3.102-3.102-3.102 1.389-3.102 3.102c-.001 1.713 1.388 3.102 3.102 3.102z"/><path d="m441.303 313.215c1.713 0 3.102-1.389 3.102-3.102s-1.389-3.103-3.102-3.103-3.102 1.389-3.102 3.103 1.389 3.102 3.102 3.102z"/><path d="m430.927 323.592c1.713 0 3.102-1.389 3.102-3.102s-1.389-3.102-3.102-3.102-3.102 1.389-3.102 3.102c-.001 1.713 1.388 3.102 3.102 3.102z"/><path d="m441.303 333.215c1.713 0 3.102-1.389 3.102-3.102s-1.389-3.103-3.102-3.103-3.102 1.389-3.102 3.103 1.389 3.102 3.102 3.102z"/><path d="m430.927 343.592c1.713 0 3.102-1.389 3.102-3.102s-1.389-3.102-3.102-3.102-3.102 1.389-3.102 3.102c-.001 1.713 1.388 3.102 3.102 3.102z"/><path d="m441.303 353.215c1.713 0 3.102-1.389 3.102-3.102s-1.389-3.103-3.102-3.103-3.102 1.389-3.102 3.103 1.389 3.102 3.102 3.102z"/><path d="m430.927 363.592c1.713 0 3.102-1.389 3.102-3.102s-1.389-3.102-3.102-3.102-3.102 1.389-3.102 3.102c-.001 1.713 1.388 3.102 3.102 3.102z"/><path d="m410.927 157.387c-1.713 0-3.102 1.389-3.102 3.102s1.389 3.102 3.102 3.102 3.102-1.389 3.102-3.102-1.389-3.102-3.102-3.102z"/><path d="m421.303 167.011c-1.713 0-3.102 1.389-3.102 3.103 0 1.713 1.389 3.102 3.102 3.102s3.102-1.389 3.102-3.102c0-1.714-1.389-3.103-3.102-3.103z"/><path d="m410.927 177.387c-1.079 0-2.028.553-2.584 1.389.521 1.53 1.023 3.068 1.51 4.613.336.124.695.202 1.074.202 1.713 0 3.102-1.389 3.102-3.102s-1.389-3.102-3.102-3.102z"/><path d="m421.303 187.011c-1.713 0-3.102 1.389-3.102 3.103 0 1.713 1.389 3.102 3.102 3.102s3.102-1.389 3.102-3.102c0-1.714-1.389-3.103-3.102-3.103z"/><path d="m421.303 207.011c-1.713 0-3.102 1.389-3.102 3.103 0 1.713 1.389 3.102 3.102 3.102s3.102-1.389 3.102-3.102c0-1.714-1.389-3.103-3.102-3.103z"/><path d="m421.303 227.011c-1 0-1.879.482-2.447 1.215.127 1.381.242 2.766.342 4.154.554.515 1.29.835 2.105.835 1.713 0 3.102-1.389 3.102-3.102s-1.389-3.102-3.102-3.102z"/><path d="m421.303 247.011c-.56 0-1.078.16-1.532.42.001.216.009.43.009.645 0 1.568-.026 3.131-.06 4.692.465.278 1.002.447 1.583.447 1.713 0 3.102-1.389 3.102-3.102s-1.389-3.102-3.102-3.102z"/><path d="m421.303 267.011c-1.015 0-1.908.495-2.474 1.248-.099 1.063-.204 2.125-.318 3.184.499 1.045 1.557 1.772 2.792 1.772 1.713 0 3.102-1.389 3.102-3.102s-1.389-3.102-3.102-3.102z"/><path d="m421.303 287.011c-1.713 0-3.102 1.389-3.102 3.103 0 1.713 1.389 3.102 3.102 3.102s3.102-1.389 3.102-3.102c0-1.714-1.389-3.103-3.102-3.103z"/><path d="m412.669 303.055c.82-.558 1.359-1.499 1.359-2.565 0-.512-.136-.987-.355-1.412-.323 1.33-.655 2.657-1.004 3.977z"/><path d="m421.303 307.011c-1.713 0-3.102 1.389-3.102 3.103 0 1.713 1.389 3.102 3.102 3.102s3.102-1.389 3.102-3.102c0-1.714-1.389-3.103-3.102-3.103z"/><path d="m410.927 317.387c-1.713 0-3.102 1.389-3.102 3.102s1.389 3.102 3.102 3.102 3.102-1.389 3.102-3.102-1.389-3.102-3.102-3.102z"/><path d="m421.303 327.011c-1.713 0-3.102 1.389-3.102 3.103 0 1.713 1.389 3.102 3.102 3.102s3.102-1.389 3.102-3.102c0-1.714-1.389-3.103-3.102-3.103z"/><path d="m410.927 337.387c-1.713 0-3.102 1.389-3.102 3.102s1.389 3.102 3.102 3.102 3.102-1.389 3.102-3.102-1.389-3.102-3.102-3.102z"/><path d="m421.303 347.011c-1.713 0-3.102 1.389-3.102 3.103 0 1.713 1.389 3.102 3.102 3.102s3.102-1.389 3.102-3.102c0-1.714-1.389-3.103-3.102-3.103z"/><path d="m410.927 357.387c-1.713 0-3.102 1.389-3.102 3.102s1.389 3.102 3.102 3.102 3.102-1.389 3.102-3.102-1.389-3.102-3.102-3.102z"/><path d="m421.303 367.011c-1.713 0-3.102 1.389-3.102 3.103 0 1.713 1.389 3.102 3.102 3.102s3.102-1.389 3.102-3.102c0-1.714-1.389-3.103-3.102-3.103z"/><path d="m410.927 377.387c-1.713 0-3.102 1.389-3.102 3.102s1.389 3.102 3.102 3.102 3.102-1.389 3.102-3.102-1.389-3.102-3.102-3.102z"/><path d="m421.303 387.011c-1.713 0-3.102 1.389-3.102 3.103 0 1.713 1.389 3.102 3.102 3.102s3.102-1.389 3.102-3.102c0-1.714-1.389-3.103-3.102-3.103z"/><path d="m410.927 397.387c-1.713 0-3.102 1.389-3.102 3.102s1.389 3.102 3.102 3.102 3.102-1.389 3.102-3.102-1.389-3.102-3.102-3.102z"/><path d="m394.029 140.49c0-1.713-1.389-3.102-3.102-3.102-.575 0-1.107.167-1.568.44 1.058 1.766 2.092 3.547 3.1 5.345.933-.535 1.57-1.53 1.57-2.683z"/><path d="m401.303 153.215c1.713 0 3.102-1.389 3.102-3.102s-1.389-3.103-3.102-3.103-3.102 1.389-3.102 3.103 1.389 3.102 3.102 3.102z"/><path d="m402.32 333.031c1.211-.422 2.086-1.562 2.086-2.917 0-.479-.118-.927-.311-1.333-.579 1.424-1.168 2.841-1.775 4.25z"/><path d="m401.303 347.011c-1.713 0-3.102 1.389-3.102 3.103 0 1.713 1.389 3.102 3.102 3.102s3.102-1.389 3.102-3.102c0-1.714-1.389-3.103-3.102-3.103z"/><path d="m390.927 357.387c-.402 0-.784.082-1.137.222-.636 1.071-1.279 2.138-1.934 3.198.161 1.562 1.466 2.785 3.07 2.785 1.713 0 3.102-1.389 3.102-3.102.001-1.714-1.388-3.103-3.101-3.103z"/><path d="m401.303 367.011c-1.713 0-3.102 1.389-3.102 3.103 0 1.713 1.389 3.102 3.102 3.102s3.102-1.389 3.102-3.102c0-1.714-1.389-3.103-3.102-3.103z"/><path d="m390.927 377.387c-1.713 0-3.102 1.389-3.102 3.102s1.389 3.102 3.102 3.102 3.102-1.389 3.102-3.102-1.389-3.102-3.102-3.102z"/><path d="m401.303 387.011c-1.713 0-3.102 1.389-3.102 3.103 0 1.713 1.389 3.102 3.102 3.102s3.102-1.389 3.102-3.102c0-1.714-1.389-3.103-3.102-3.103z"/><path d="m390.927 397.387c-1.713 0-3.102 1.389-3.102 3.102s1.389 3.102 3.102 3.102 3.102-1.389 3.102-3.102-1.389-3.102-3.102-3.102z"/><path d="m401.303 407.011c-1.713 0-3.102 1.389-3.102 3.103 0 1.713 1.389 3.102 3.102 3.102s3.102-1.389 3.102-3.102c0-1.714-1.389-3.103-3.102-3.103z"/><path d="m390.927 417.387c-1.713 0-3.102 1.389-3.102 3.102s1.389 3.102 3.102 3.102 3.102-1.389 3.102-3.102-1.389-3.102-3.102-3.102z"/><path d="m382.659 127.335c.581.853 1.157 1.708 1.726 2.57-.077-1.134-.755-2.094-1.726-2.57z"/><path d="m379.863 372.845c.432.228.917.37 1.44.37 1.713 0 3.102-1.389 3.102-3.102 0-.922-.41-1.741-1.049-2.31-1.141 1.698-2.305 3.379-3.493 5.042z"/><path d="m371.757 383.465c1.253-.35 2.179-1.457 2.254-2.803-.74.943-1.498 1.873-2.254 2.803z"/><path d="m381.303 387.011c-1.713 0-3.102 1.389-3.102 3.103 0 1.713 1.389 3.102 3.102 3.102s3.102-1.389 3.102-3.102c0-1.714-1.389-3.103-3.102-3.103z"/><path d="m370.927 397.387c-1.713 0-3.102 1.389-3.102 3.102s1.389 3.102 3.102 3.102 3.102-1.389 3.102-3.102-1.389-3.102-3.102-3.102z"/><path d="m381.303 407.011c-1.713 0-3.102 1.389-3.102 3.103 0 1.713 1.389 3.102 3.102 3.102s3.102-1.389 3.102-3.102c0-1.714-1.389-3.103-3.102-3.103z"/><path d="m370.927 417.387c-1.713 0-3.102 1.389-3.102 3.102s1.389 3.102 3.102 3.102 3.102-1.389 3.102-3.102-1.389-3.102-3.102-3.102z"/><path d="m381.303 427.011c-1.713 0-3.102 1.389-3.102 3.103 0 1.713 1.389 3.102 3.102 3.102s3.102-1.389 3.102-3.102c0-1.714-1.389-3.103-3.102-3.103z"/><path d="m370.927 437.387c-1.713 0-3.102 1.389-3.102 3.102s1.389 3.102 3.102 3.102 3.102-1.389 3.102-3.102-1.389-3.102-3.102-3.102z"/><path d="m361.303 407.011c-1.713 0-3.102 1.389-3.102 3.103 0 1.713 1.389 3.102 3.102 3.102s3.102-1.389 3.102-3.102c0-1.714-1.389-3.103-3.102-3.103z"/><path d="m350.927 417.387c-1.713 0-3.102 1.389-3.102 3.102s1.389 3.102 3.102 3.102 3.102-1.389 3.102-3.102-1.389-3.102-3.102-3.102z"/><path d="m361.303 427.011c-1.713 0-3.102 1.389-3.102 3.103 0 1.713 1.389 3.102 3.102 3.102s3.102-1.389 3.102-3.102c0-1.714-1.389-3.103-3.102-3.103z"/><path d="m350.927 437.387c-1.713 0-3.102 1.389-3.102 3.102s1.389 3.102 3.102 3.102 3.102-1.389 3.102-3.102-1.389-3.102-3.102-3.102z"/><path d="m361.303 447.011c-1.713 0-3.102 1.389-3.102 3.103 0 1.713 1.389 3.102 3.102 3.102s3.102-1.389 3.102-3.102c0-1.714-1.389-3.103-3.102-3.103z"/><path d="m329.45 423.202c.441.241.939.39 1.477.39 1.713 0 3.102-1.389 3.102-3.102 0-.206-.022-.407-.061-.602-1.492 1.122-2.997 2.229-4.518 3.314z"/><path d="m341.303 427.011c-1.713 0-3.102 1.389-3.102 3.103 0 1.713 1.389 3.102 3.102 3.102s3.102-1.389 3.102-3.102c0-1.714-1.389-3.103-3.102-3.103z"/><path d="m330.927 437.387c-1.713 0-3.102 1.389-3.102 3.102s1.389 3.102 3.102 3.102 3.102-1.389 3.102-3.102-1.389-3.102-3.102-3.102z"/><path d="m341.303 447.011c-1.713 0-3.102 1.389-3.102 3.103 0 1.713 1.389 3.102 3.102 3.102s3.102-1.389 3.102-3.102c0-1.714-1.389-3.103-3.102-3.103z"/><path d="m330.927 457.387c-1.713 0-3.102 1.389-3.102 3.102s1.389 3.102 3.102 3.102 3.102-1.389 3.102-3.102-1.389-3.102-3.102-3.102z"/><path d="m323.066 427.564c-1.589 1.048-3.193 2.076-4.811 3.083.254 1.457 1.518 2.568 3.048 2.568 1.713 0 3.102-1.389 3.102-3.102 0-1.057-.531-1.989-1.339-2.549z"/><path d="m310.927 437.387c-1.713 0-3.102 1.389-3.102 3.102s1.389 3.102 3.102 3.102 3.102-1.389 3.102-3.102-1.389-3.102-3.102-3.102z"/><path d="m321.303 447.011c-1.713 0-3.102 1.389-3.102 3.103 0 1.713 1.389 3.102 3.102 3.102s3.102-1.389 3.102-3.102c0-1.714-1.389-3.103-3.102-3.103z"/><path d="m310.927 457.387c-1.713 0-3.102 1.389-3.102 3.102s1.389 3.102 3.102 3.102 3.102-1.389 3.102-3.102-1.389-3.102-3.102-3.102z"/><path d="m321.303 467.011c-1.713 0-3.102 1.389-3.102 3.103 0 1.713 1.389 3.102 3.102 3.102s3.102-1.389 3.102-3.102c0-1.714-1.389-3.103-3.102-3.103z"/><path d="m301.303 447.011c-1.713 0-3.102 1.389-3.102 3.103 0 1.713 1.389 3.102 3.102 3.102s3.102-1.389 3.102-3.102c0-1.714-1.389-3.103-3.102-3.103z"/><path d="m290.927 457.387c-1.713 0-3.102 1.389-3.102 3.102s1.389 3.102 3.102 3.102 3.102-1.389 3.102-3.102-1.389-3.102-3.102-3.102z"/><path d="m301.303 467.011c-1.713 0-3.102 1.389-3.102 3.103 0 1.713 1.389 3.102 3.102 3.102s3.102-1.389 3.102-3.102c0-1.714-1.389-3.103-3.102-3.103z"/><path d="m290.927 477.387c-1.713 0-3.102 1.389-3.102 3.102s1.389 3.102 3.102 3.102 3.102-1.389 3.102-3.102-1.389-3.102-3.102-3.102z"/><path d="m278.202 450.129c.009 1.706 1.393 3.086 3.101 3.086 1.713 0 3.102-1.389 3.102-3.102 0-.781-.298-1.486-.775-2.032-1.797.708-3.607 1.388-5.428 2.048z"/><path d="m270.927 457.387c-1.713 0-3.102 1.389-3.102 3.102s1.389 3.102 3.102 3.102 3.102-1.389 3.102-3.102-1.389-3.102-3.102-3.102z"/><path d="m281.303 467.011c-1.713 0-3.102 1.389-3.102 3.103 0 1.713 1.389 3.102 3.102 3.102s3.102-1.389 3.102-3.102c0-1.714-1.389-3.103-3.102-3.103z"/><path d="m270.927 477.387c-1.713 0-3.102 1.389-3.102 3.102s1.389 3.102 3.102 3.102 3.102-1.389 3.102-3.102-1.389-3.102-3.102-3.102z"/><path d="m252.282 457.711c-1.243.28-2.488.556-3.739.814-.442.536-.719 1.215-.719 1.964 0 1.713 1.389 3.102 3.102 3.102s3.102-1.389 3.102-3.102c.001-1.224-.715-2.273-1.746-2.778z"/><path d="m261.303 467.011c-1.713 0-3.102 1.389-3.102 3.103 0 1.713 1.389 3.102 3.102 3.102s3.102-1.389 3.102-3.102c0-1.714-1.389-3.103-3.102-3.103z"/><path d="m250.926 477.387c-1.713 0-3.102 1.389-3.102 3.102s1.389 3.102 3.102 3.102 3.102-1.389 3.102-3.102c.001-1.713-1.388-3.102-3.102-3.102z"/><path d="m230.926 463.592c1.539 0 2.806-1.123 3.051-2.592-1.958.265-3.924.506-5.898.718.476 1.102 1.571 1.874 2.847 1.874z"/><path d="m241.303 467.011c-1.713 0-3.102 1.389-3.102 3.103 0 1.713 1.389 3.102 3.102 3.102s3.102-1.389 3.102-3.102c0-1.714-1.389-3.103-3.102-3.103z"/><path d="m230.926 477.387c-1.713 0-3.102 1.389-3.102 3.102s1.389 3.102 3.102 3.102 3.102-1.389 3.102-3.102c.001-1.713-1.388-3.102-3.102-3.102z"/><path d="m212.979 462.8c-1.319.049-2.64.09-3.965.115.529.418 1.187.677 1.913.677.79 0 1.504-.305 2.052-.792z"/><path d="m221.303 467.011c-1.713 0-3.102 1.389-3.102 3.103 0 1.713 1.389 3.102 3.102 3.102s3.102-1.389 3.102-3.102c0-1.714-1.389-3.103-3.102-3.103z"/><path d="m210.926 477.387c-1.713 0-3.102 1.389-3.102 3.102s1.389 3.102 3.102 3.102 3.102-1.389 3.102-3.102c.001-1.713-1.388-3.102-3.102-3.102z"/><path d="m190.926 463.592c.881 0 1.672-.371 2.236-.961-1.582-.085-3.158-.192-4.73-.312.565.768 1.468 1.273 2.494 1.273z"/><path d="m201.303 467.011c-1.713 0-3.102 1.389-3.102 3.103 0 1.713 1.389 3.102 3.102 3.102s3.102-1.389 3.102-3.102c0-1.714-1.389-3.103-3.102-3.103z"/><path d="m167.824 460.49c0 1.713 1.389 3.102 3.102 3.102 1.629 0 2.95-1.259 3.077-2.855-2.038-.293-4.067-.617-6.087-.968-.055.232-.092.471-.092.721z"/><path d="m181.303 467.011c-1.713 0-3.102 1.389-3.102 3.103 0 1.713 1.389 3.102 3.102 3.102s3.102-1.389 3.102-3.102c0-1.714-1.389-3.103-3.102-3.103z"/><path d="m150.926 457.387c-1.713 0-3.102 1.389-3.102 3.102s1.389 3.102 3.102 3.102 3.102-1.389 3.102-3.102c.001-1.713-1.388-3.102-3.102-3.102z"/><path d="m315.71 207.195-50.995 50.995c-4.379-3.294-9.819-5.251-15.709-5.251-14.437 0-26.182 11.745-26.182 26.182 0 14.436 11.745 26.182 26.182 26.182 14.436 0 26.182-11.745 26.182-26.182 0-5.667-1.815-10.914-4.887-15.204l51.066-51.066c1.562-1.562 1.562-4.095 0-5.656-1.563-1.562-4.095-1.562-5.657 0zm-66.704 90.108c-10.026 0-18.182-8.156-18.182-18.182 0-10.025 8.156-18.182 18.182-18.182 10.025 0 18.182 8.156 18.182 18.182s-8.157 18.182-18.182 18.182z"/><path d="m249.006 121.537c-86.892 0-157.584 70.691-157.584 157.584s70.692 157.584 157.584 157.584 157.584-70.691 157.584-157.584-70.692-157.584-157.584-157.584zm113.662 163.014h35.813c-2.825 78.757-66.821 142.195-145.804 144.107v-34.461c0-2.209-1.791-4-4-4s-4 1.791-4 4v34.441c-79.208-2.263-143.193-66.399-145.206-145.668h35.215c2.209 0 4-1.791 4-4s-1.791-4-4-4h-35.204c2.167-79.13 66.087-143.107 145.195-145.367v35.72c0 2.209 1.791 4 4 4s4-1.791 4-4v-35.74c79.937 1.935 144.523 66.891 145.88 146.967h-35.89c-2.209 0-4 1.791-4 4 .001 2.21 1.791 4.001 4.001 4.001z"/><path d="m408.215 128.913 12.72-15.112c5.872-6.978 4.973-17.431-2.003-23.303l-35.646-30.004c-3.379-2.845-7.662-4.208-12.065-3.824-4.401.378-8.392 2.448-11.236 5.827l-16.175 19.216c-17.384-8.365-35.843-14.362-54.971-17.863v-27.832h.81c8.333 0 15.112-6.779 15.112-15.112v-5.793c0-8.334-6.779-15.113-15.112-15.113h-81.286c-8.333 0-15.113 6.779-15.113 15.112v5.793c0 8.333 6.78 15.112 15.113 15.112h.809v27.833c-19.103 3.497-37.538 9.482-54.903 17.831l-16.242-19.297c-2.845-3.379-6.835-5.449-11.236-5.827-4.402-.385-8.687.979-12.065 3.824l-35.647 30.004c-6.977 5.872-7.874 16.325-2.002 23.303l12.77 15.171c-38.563 40.789-59.731 93.897-59.731 150.263 0 58.468 22.769 113.436 64.111 154.779 41.343 41.343 96.312 64.111 154.779 64.111 58.468 0 113.436-22.769 154.779-64.111 41.343-41.344 64.112-96.312 64.112-154.779 0-56.342-21.15-109.427-59.682-150.209zm-199.852-100.896c-3.922 0-7.113-3.19-7.113-7.112v-5.793c0-3.922 3.191-7.112 7.113-7.112h81.286c3.922 0 7.112 3.19 7.112 7.112v5.793c0 3.922-3.19 7.112-7.112 7.112zm72.476 8.001v26.511c-10.451-1.516-21.082-2.298-31.833-2.298-10.752 0-21.382.782-31.834 2.298v-26.511zm72.617 426.259c.358-.506.573-1.12.573-1.787 0-1.713-1.389-3.102-3.102-3.102s-3.102 1.389-3.102 3.102 1.389 3.102 3.102 3.102c.075 0 .145-.017.219-.022-2.592 1.441-5.217 2.829-7.875 4.163-.537-.444-1.216-.722-1.967-.722-1.713 0-3.102 1.389-3.102 3.103 0 .025.007.049.008.074-7.841 3.676-15.943 6.881-24.272 9.583-.326-1.365-1.545-2.383-3.01-2.383-1.713 0-3.102 1.389-3.102 3.102 0 .39.08.759.211 1.102-8.271 2.415-16.75 4.335-25.405 5.728-.404-.192-.85-.309-1.327-.309-.812 0-1.545.319-2.098.83-4.907.707-9.866 1.25-14.874 1.611-.304-1.395-1.542-2.44-3.028-2.44-1.605 0-2.91 1.224-3.07 2.787-3.061.133-6.134.214-9.227.214-1.544 0-3.081-.025-4.617-.059-.085-1.638-1.428-2.942-3.086-2.942-1.585 0-2.878 1.194-3.065 2.728-4.808-.243-9.569-.661-14.288-1.223-.543-.899-1.521-1.506-2.648-1.506-.839 0-1.597.336-2.156.878-8.816-1.255-17.458-3.056-25.891-5.37.475-.545.772-1.249.772-2.028 0-1.713-1.389-3.102-3.102-3.102s-3.102 1.389-3.102 3.102c0 .163.024.319.048.475-8.264-2.507-16.313-5.509-24.116-8.972.402-.523.65-1.169.65-1.879 0-1.713-1.389-3.103-3.102-3.103-1.493 0-2.737 1.055-3.034 2.46-12.033-5.759-23.434-12.631-34.08-20.473-.417-1.079-1.417-1.854-2.616-1.959-50.677-38.553-83.459-99.475-83.459-167.917 0-116.285 94.605-210.891 210.891-210.891 53.116 0 101.7 19.746 138.82 52.273.007 1.707 1.392 3.088 3.101 3.088.109 0 .212-.021.318-.032 2.372 2.17 4.697 4.391 6.968 6.666.058 1.595 1.316 2.872 2.9 2.97 2.296 2.392 4.534 4.838 6.716 7.336.021 1.513 1.123 2.757 2.57 3.006 11.329 13.464 21.017 28.351 28.731 44.364-.572.563-.929 1.344-.929 2.21 0 1.713 1.389 3.102 3.102 3.102.094 0 .183-.02.275-.028 3.51 7.835 6.554 15.922 9.1 24.225-1.595.129-2.854 1.449-2.854 3.078 0 1.713 1.389 3.102 3.102 3.102.521 0 1.005-.141 1.436-.368 3.917 14.232 6.381 29.058 7.211 44.314-.828.557-1.373 1.502-1.373 2.576 0 1.162.647 2.163 1.593 2.695.062 2.098.103 4.201.103 6.313 0 2.794-.072 5.571-.18 8.339-.904.543-1.516 1.522-1.516 2.653 0 1.017.497 1.912 1.253 2.478-.98 15.473-3.627 30.499-7.78 44.897-.24-.06-.488-.101-.748-.101-1.713 0-3.102 1.389-3.102 3.102 0 1.34.854 2.471 2.045 2.905-2.604 8.12-5.686 16.026-9.216 23.687-1.401.299-2.452 1.541-2.452 3.032 0 .507.133.978.348 1.4-1.448 2.959-2.961 5.88-4.542 8.76-.113-1.61-1.441-2.886-3.081-2.886-1.713 0-3.102 1.389-3.102 3.102s1.389 3.102 3.102 3.102c.517 0 .997-.139 1.426-.362-18.739 32.873-46.06 60.248-78.896 79.047z"/></g></svg>