<svg id="Capa_1" enable-background="new 0 0 511.947 511.947" height="512" viewBox="0 0 511.947 511.947" width="512" xmlns="http://www.w3.org/2000/svg"><g><g><path d="m255.03 267.042c1.713 0 3.102-1.389 3.102-3.102s-1.389-3.103-3.102-3.103-3.102 1.389-3.102 3.103c-.001 1.713 1.388 3.102 3.102 3.102z"/><path d="m255.03 287.042c1.713 0 3.102-1.389 3.102-3.102s-1.389-3.103-3.102-3.103-3.102 1.389-3.102 3.103c-.001 1.713 1.388 3.102 3.102 3.102z"/><path d="m255.03 307.042c1.713 0 3.102-1.389 3.102-3.102s-1.389-3.103-3.102-3.103-3.102 1.389-3.102 3.103c-.001 1.713 1.388 3.102 3.102 3.102z"/><path d="m255.03 327.042c1.713 0 3.102-1.389 3.102-3.102s-1.389-3.103-3.102-3.103-3.102 1.389-3.102 3.103c-.001 1.713 1.388 3.102 3.102 3.102z"/><path d="m255.03 347.042c1.713 0 3.102-1.389 3.102-3.102s-1.389-3.103-3.102-3.103-3.102 1.389-3.102 3.103c-.001 1.713 1.388 3.102 3.102 3.102z"/><path d="m245.406 256.665c1.713 0 3.102-1.389 3.102-3.102s-1.389-3.103-3.102-3.103-3.102 1.389-3.102 3.103 1.389 3.102 3.102 3.102z"/><path d="m245.406 276.665c1.713 0 3.102-1.389 3.102-3.102s-1.389-3.103-3.102-3.103-3.102 1.389-3.102 3.103 1.389 3.102 3.102 3.102z"/><path d="m245.406 296.665c1.713 0 3.102-1.389 3.102-3.102s-1.389-3.103-3.102-3.103-3.102 1.389-3.102 3.103 1.389 3.102 3.102 3.102z"/><path d="m245.406 316.665c1.713 0 3.102-1.389 3.102-3.102s-1.389-3.103-3.102-3.103-3.102 1.389-3.102 3.103 1.389 3.102 3.102 3.102z"/><path d="m245.406 336.665c1.713 0 3.102-1.389 3.102-3.102s-1.389-3.103-3.102-3.103-3.102 1.389-3.102 3.103 1.389 3.102 3.102 3.102z"/><path d="m238.132 343.94c0-1.161-.645-2.161-1.59-2.693-.822 1.898-1.738 3.746-2.739 5.541.376.162.79.254 1.227.254 1.713 0 3.102-1.389 3.102-3.102z"/><path d="m245.406 356.665c1.713 0 3.102-1.389 3.102-3.102s-1.389-3.103-3.102-3.103-3.102 1.389-3.102 3.103 1.389 3.102 3.102 3.102z"/><path d="m235.03 367.042c1.713 0 3.102-1.389 3.102-3.102s-1.389-3.103-3.102-3.103-3.102 1.389-3.102 3.103c-.001 1.713 1.388 3.102 3.102 3.102z"/><path d="m245.406 376.665c1.713 0 3.102-1.389 3.102-3.102s-1.389-3.103-3.102-3.103-3.102 1.389-3.102 3.103 1.389 3.102 3.102 3.102z"/><path d="m235.03 387.042c1.713 0 3.102-1.389 3.102-3.102s-1.389-3.103-3.102-3.103-3.102 1.389-3.102 3.103c-.001 1.713 1.388 3.102 3.102 3.102z"/><path d="m217.638 365.607c-.564.439-1.135.869-1.714 1.288.714-.216 1.32-.672 1.714-1.288z"/><path d="m225.406 376.665c1.713 0 3.102-1.389 3.102-3.102s-1.389-3.103-3.102-3.103-3.102 1.389-3.102 3.103 1.389 3.102 3.102 3.102z"/><path d="m211.927 383.94c0 1.713 1.389 3.102 3.102 3.102s3.102-1.389 3.102-3.102-1.389-3.103-3.102-3.103-3.102 1.39-3.102 3.103z"/><path d="m225.406 396.665c1.713 0 3.102-1.389 3.102-3.102s-1.389-3.103-3.102-3.103-3.102 1.389-3.102 3.103 1.389 3.102 3.102 3.102z"/><path d="m202.405 374.311c.336 1.35 1.547 2.354 3.001 2.354 1.713 0 3.102-1.389 3.102-3.102 0-.659-.208-1.267-.559-1.77-1.798.928-3.648 1.767-5.544 2.518z"/><path d="m195.03 380.837c-1.713 0-3.102 1.389-3.102 3.103 0 1.713 1.389 3.102 3.102 3.102s3.102-1.389 3.102-3.102-1.389-3.103-3.102-3.103z"/><path d="m205.406 390.461c-1.713 0-3.102 1.389-3.102 3.103 0 1.713 1.389 3.102 3.102 3.102s3.102-1.389 3.102-3.102c0-1.714-1.389-3.103-3.102-3.103z"/><path d="m175.03 380.837c-1.713 0-3.102 1.389-3.102 3.103 0 1.713 1.389 3.102 3.102 3.102s3.102-1.389 3.102-3.102-1.389-3.103-3.102-3.103z"/><path d="m185.406 390.461c-1.713 0-3.102 1.389-3.102 3.103 0 1.713 1.389 3.102 3.102 3.102s3.102-1.389 3.102-3.102c0-1.714-1.389-3.103-3.102-3.103z"/><path d="m155.03 380.837c-1.713 0-3.102 1.389-3.102 3.103 0 1.713 1.389 3.102 3.102 3.102s3.102-1.389 3.102-3.102-1.389-3.103-3.102-3.103z"/><path d="m165.406 390.461c-1.713 0-3.102 1.389-3.102 3.103 0 1.713 1.389 3.102 3.102 3.102s3.102-1.389 3.102-3.102c0-1.714-1.389-3.103-3.102-3.103z"/><path d="m135.03 380.837c-1.713 0-3.102 1.389-3.102 3.103 0 1.713 1.389 3.102 3.102 3.102s3.102-1.389 3.102-3.102-1.389-3.103-3.102-3.103z"/><path d="m145.406 390.461c-1.713 0-3.102 1.389-3.102 3.103 0 1.713 1.389 3.102 3.102 3.102s3.102-1.389 3.102-3.102c0-1.714-1.389-3.103-3.102-3.103z"/><path d="m115.03 380.837c-1.713 0-3.102 1.389-3.102 3.103 0 1.713 1.389 3.102 3.102 3.102s3.102-1.389 3.102-3.102-1.389-3.103-3.102-3.103z"/><path d="m125.406 390.461c-1.713 0-3.102 1.389-3.102 3.103 0 1.713 1.389 3.102 3.102 3.102s3.102-1.389 3.102-3.102c0-1.714-1.389-3.103-3.102-3.103z"/><path d="m95.03 380.837c-1.713 0-3.102 1.389-3.102 3.103 0 1.713 1.389 3.102 3.102 3.102s3.102-1.389 3.102-3.102-1.389-3.103-3.102-3.103z"/><path d="m105.406 390.461c-1.713 0-3.102 1.389-3.102 3.103 0 1.713 1.389 3.102 3.102 3.102s3.102-1.389 3.102-3.102c0-1.714-1.389-3.103-3.102-3.103z"/><path d="m75.03 380.837c-1.713 0-3.102 1.389-3.102 3.103 0 1.713 1.389 3.102 3.102 3.102s3.102-1.389 3.102-3.102-1.389-3.103-3.102-3.103z"/><path d="m85.406 390.461c-1.713 0-3.102 1.389-3.102 3.103 0 1.713 1.389 3.102 3.102 3.102s3.102-1.389 3.102-3.102c0-1.714-1.389-3.103-3.102-3.103z"/><path d="m55.03 380.837c-1.713 0-3.102 1.389-3.102 3.103 0 1.713 1.389 3.102 3.102 3.102s3.102-1.389 3.102-3.102-1.389-3.103-3.102-3.103z"/><path d="m65.406 390.461c-1.713 0-3.102 1.389-3.102 3.103 0 1.713 1.389 3.102 3.102 3.102s3.102-1.389 3.102-3.102c0-1.714-1.389-3.103-3.102-3.103z"/><path d="m35.03 380.837c-1.713 0-3.102 1.389-3.102 3.103 0 1.713 1.389 3.102 3.102 3.102s3.102-1.389 3.102-3.102-1.389-3.103-3.102-3.103z"/><path d="m45.406 390.461c-1.713 0-3.102 1.389-3.102 3.103 0 1.713 1.389 3.102 3.102 3.102s3.102-1.389 3.102-3.102c0-1.714-1.389-3.103-3.102-3.103z"/><path d="m25.406 376.665c.749 0 1.426-.276 1.962-.718-1.703-.571-3.376-1.22-5.019-1.934.22 1.499 1.498 2.652 3.057 2.652z"/><path d="m304.228 170.79 84.406-170.79h-65.609l-82.117 166.158h-3.127c-4.24 0-8.059 2.354-9.935 6.085l-35.511 67.961h-122.897c-38.25 0-69.369 31.119-69.369 69.369v36.305c0 38.25 31.119 69.368 69.369 69.368h130.185c38.25 0 69.368-31.118 69.368-69.368v-94.312l36.18-69.24c1.753-3.484 1.577-7.546-.469-10.865-.145-.236-.314-.449-.474-.671zm-43.64 175.086c0 6.038-.895 11.867-2.537 17.379-.313-1.383-1.544-2.418-3.021-2.418-1.713 0-3.102 1.389-3.102 3.103 0 1.713 1.389 3.102 3.102 3.102.786 0 1.495-.302 2.042-.783-6.357 17.864-20.817 31.914-38.942 37.702 0-.007.002-.014.002-.021 0-1.713-1.389-3.103-3.102-3.103s-3.102 1.389-3.102 3.103c0 .569.164 1.095.431 1.553-4.11.877-8.368 1.348-12.735 1.348h-3.524c1.184-.437 2.032-1.565 2.032-2.901 0-1.713-1.389-3.103-3.102-3.103s-3.102 1.389-3.102 3.103c0 1.335.849 2.464 2.032 2.901h-17.86c1.184-.437 2.032-1.565 2.032-2.901 0-1.713-1.389-3.103-3.102-3.103s-3.102 1.389-3.102 3.103c0 1.335.849 2.464 2.032 2.901h-17.86c1.184-.437 2.032-1.565 2.032-2.901 0-1.713-1.389-3.103-3.102-3.103s-3.102 1.389-3.102 3.103c0 1.335.849 2.464 2.032 2.901h-17.86c1.184-.437 2.032-1.565 2.032-2.901 0-1.713-1.389-3.103-3.102-3.103s-3.102 1.389-3.102 3.103c0 1.335.849 2.464 2.032 2.901h-17.86c1.184-.437 2.032-1.565 2.032-2.901 0-1.713-1.389-3.103-3.102-3.103s-3.102 1.389-3.102 3.103c0 1.335.849 2.464 2.032 2.901h-17.86c1.184-.437 2.032-1.565 2.032-2.901 0-1.713-1.389-3.103-3.102-3.103s-3.102 1.389-3.102 3.103c0 1.335.849 2.464 2.032 2.901h-17.86c1.184-.437 2.032-1.565 2.032-2.901 0-1.713-1.389-3.103-3.102-3.103s-3.102 1.389-3.102 3.103c0 1.335.849 2.464 2.032 2.901h-4.521c-4.05 0-8.007-.406-11.839-1.163.336-.496.532-1.094.532-1.738 0-1.713-1.389-3.103-3.102-3.103s-3.102 1.389-3.102 3.103c0 .115.022.224.034.335-25.124-7.533-43.488-30.856-43.488-58.399v-36.305c0-33.616 27.349-60.965 60.965-60.965h191.15v97.27zm37.105-167.386-32.246 61.713h-63.63l33.508-64.127c.47-.934 1.412-1.515 2.457-1.515h57.425c1.386 0 2.099.914 2.341 1.308.242.393.738 1.441.145 2.621z"/><path d="m208.777 352.145h-148.493c-2.32 0-4.202 1.881-4.202 4.202s1.881 4.202 4.202 4.202h148.493c2.32 0 4.202-1.881 4.202-4.202s-1.882-4.202-4.202-4.202z"/><path d="m164.027 309.467h.002c14.595-.01 29.625.07 44.703.227h.045c2.3 0 4.177-1.853 4.201-4.158.024-2.32-1.837-4.221-4.158-4.246-15.111-.158-30.189-.231-44.796-.227-2.32.001-4.201 1.884-4.2 4.204.002 2.32 1.883 4.2 4.203 4.2z"/><path d="m56.083 305.57c.043 2.32 1.999 4.172 4.279 4.124 16.304-.301 31.317-.301 47.249 0 .027.001.054.001.081.001 2.284 0 4.156-1.83 4.2-4.122.044-2.321-1.802-4.237-4.122-4.281-16.04-.303-31.153-.303-47.563 0-2.321.042-4.167 1.958-4.124 4.278z"/><path d="m495.03 287.042c1.713 0 3.102-1.389 3.102-3.102s-1.389-3.103-3.102-3.103-3.102 1.389-3.102 3.103c-.001 1.713 1.388 3.102 3.102 3.102z"/><path d="m495.03 307.042c1.713 0 3.102-1.389 3.102-3.102s-1.389-3.103-3.102-3.103-3.102 1.389-3.102 3.103c-.001 1.713 1.388 3.102 3.102 3.102z"/><path d="m488.508 293.564c0-1.069-.541-2.012-1.364-2.57-.676 1.909-1.426 3.782-2.239 5.622.164.027.329.05.501.05 1.713-.001 3.102-1.389 3.102-3.102z"/><path d="m485.406 316.665c1.713 0 3.102-1.389 3.102-3.102s-1.389-3.103-3.102-3.103-3.102 1.389-3.102 3.103 1.389 3.102 3.102 3.102z"/><path d="m475.03 320.837c-1.713 0-3.102 1.389-3.102 3.103 0 1.713 1.389 3.102 3.102 3.102s3.102-1.389 3.102-3.102-1.389-3.103-3.102-3.103z"/><path d="m485.406 330.461c-1.713 0-3.102 1.389-3.102 3.103 0 1.713 1.389 3.102 3.102 3.102s3.102-1.389 3.102-3.102c0-1.714-1.389-3.103-3.102-3.103z"/><path d="m475.03 340.837c-1.713 0-3.102 1.389-3.102 3.103 0 1.713 1.389 3.102 3.102 3.102s3.102-1.389 3.102-3.102-1.389-3.103-3.102-3.103z"/><path d="m465.406 330.461c-1.713 0-3.102 1.389-3.102 3.103 0 1.713 1.389 3.102 3.102 3.102s3.102-1.389 3.102-3.102c0-1.714-1.389-3.103-3.102-3.103z"/><path d="m455.03 340.837c-1.713 0-3.102 1.389-3.102 3.103 0 1.713 1.389 3.102 3.102 3.102s3.102-1.389 3.102-3.102-1.389-3.103-3.102-3.103z"/><path d="m435.596 340.895c-.886.281-1.783.535-2.681.786-.605.566-.988 1.366-.988 2.259 0 1.713 1.389 3.102 3.102 3.102s3.102-1.389 3.102-3.102c.001-1.519-1.093-2.778-2.535-3.045z"/><path d="m415.03 347.042c1.571 0 2.855-1.171 3.06-2.686-2.005.17-4.029.273-6.073.294.322 1.37 1.545 2.392 3.013 2.392z"/><path d="m392.328 342.442c-.248.446-.401.951-.401 1.497 0 1.713 1.389 3.102 3.102 3.102s3.102-1.389 3.102-3.102c0-.113-.021-.219-.033-.329-1.948-.317-3.871-.712-5.77-1.168z"/><path d="m375.03 340.837c-1.713 0-3.102 1.389-3.102 3.103 0 1.713 1.389 3.102 3.102 3.102s3.102-1.389 3.102-3.102-1.389-3.103-3.102-3.103z"/><path d="m351.927 323.94c0 1.713 1.389 3.102 3.102 3.102 1.469 0 2.693-1.024 3.014-2.395-1.341-1.178-2.64-2.402-3.899-3.665-1.279.382-2.217 1.555-2.217 2.958z"/><path d="m368.508 333.564c0-.467-.111-.905-.295-1.302-.913-.577-1.809-1.177-2.696-1.789-.038-.001-.073-.011-.111-.011-1.713 0-3.102 1.389-3.102 3.103 0 1.713 1.389 3.102 3.102 3.102s3.102-1.39 3.102-3.103z"/><path d="m496.497 348.645-.618.045c-.956.142-1.906.263-2.861.399 9.923-13.878 15.791-30.843 15.791-49.167 0-46.75-38.034-84.784-84.784-84.784s-84.784 38.034-84.784 84.784c0 18.343 5.88 35.324 15.822 49.211-.942-.148-1.89-.279-2.829-.434l-.337-.055h-.343c-8.481 0-15.38 6.899-15.38 15.38 0 8.2 6.454 14.903 14.546 15.34l48.922 52.224-.038 69.357c-.014 2.934 1.118 5.695 3.187 7.776 2.07 2.08 4.826 3.226 7.761 3.226h23.286c5.974 0 10.782-4.678 10.944-10.637l.054-69.806 51.788-52.091c.034-.003.067-.006.101-.01 8.376-.123 15.153-6.974 15.153-15.379 0-8.48-6.9-15.379-15.381-15.379zm-72.471-125.103c42.116 0 76.381 34.265 76.381 76.381 0 7.581-1.124 14.9-3.191 21.817-.561-.558-1.333-.903-2.186-.903-1.713 0-3.102 1.389-3.102 3.103 0 1.713 1.389 3.102 3.102 3.102.139 0 .271-.023.405-.041-3.338 8.768-8.238 16.772-14.371 23.659-4.339.521-8.66.975-12.969 1.382-.533-.94-1.531-1.581-2.688-1.581-1.351 0-2.489.87-2.915 2.075-4.682.391-9.345.714-13.989.97-.032-1.686-1.403-3.045-3.096-3.045-1.713 0-3.102 1.389-3.102 3.103 0 .084.018.163.025.245-4.649.197-9.278.328-13.886.39.043-.205.066-.417.066-.635 0-1.713-1.389-3.103-3.102-3.103s-3.102 1.389-3.102 3.103c0 .235.031.462.08.682-4.664.002-9.306-.065-13.924-.204.024-.157.048-.315.048-.478 0-1.713-1.389-3.103-3.102-3.103s-3.102 1.389-3.102 3.103c0 .086.018.167.025.25-4.652-.203-9.278-.479-13.879-.826-.271-1.438-1.528-2.527-3.044-2.527-1.335 0-2.464.848-2.901 2.032-5.148-.46-10.267-1.002-15.345-1.644-12.125-13.524-19.514-31.376-19.514-50.926-.002-42.116 34.262-76.381 76.378-76.381zm72.471 147.46-.423.021c-47.796 4.831-96.277 4.831-144.098 0l-.422-.021c-3.847 0-6.977-3.13-6.977-6.978 0-3.746 2.967-6.811 6.675-6.97 45.917 7.489 94.874 7.489 145.518-.001 3.72.145 6.703 3.216 6.703 6.971.001 3.848-3.129 6.978-6.976 6.978z"/><path d="m424.026 271.733c8.766 0 15.897-7.131 15.897-15.897 0-2.32-1.881-4.202-4.202-4.202-2.32 0-4.202 1.881-4.202 4.202 0 4.132-3.362 7.493-7.494 7.493s-7.494-3.361-7.494-7.493c0-2.32-1.881-4.202-4.202-4.202-2.32 0-4.202 1.881-4.202 4.202.002 8.767 7.133 15.897 15.899 15.897z"/><path d="m466.808 305.656c8.766 0 15.897-7.131 15.897-15.897 0-2.32-1.881-4.202-4.202-4.202-2.32 0-4.202 1.881-4.202 4.202 0 4.132-3.362 7.493-7.494 7.493s-7.493-3.361-7.493-7.493c0-2.32-1.881-4.202-4.202-4.202-2.32 0-4.202 1.881-4.202 4.202.001 8.766 7.132 15.897 15.898 15.897z"/><path d="m424.026 337.815c8.766 0 15.897-7.131 15.897-15.896 0-2.321-1.881-4.202-4.202-4.202-2.32 0-4.202 1.881-4.202 4.202 0 4.131-3.362 7.493-7.494 7.493s-7.494-3.362-7.494-7.493c0-2.321-1.881-4.202-4.202-4.202-2.32 0-4.202 1.881-4.202 4.202.002 8.766 7.133 15.896 15.899 15.896z"/><path d="m383.591 305.656c8.766 0 15.897-7.131 15.897-15.897 0-2.32-1.881-4.202-4.202-4.202-2.32 0-4.202 1.881-4.202 4.202 0 4.132-3.362 7.493-7.493 7.493-4.132 0-7.494-3.361-7.494-7.493 0-2.32-1.881-4.202-4.202-4.202-2.32 0-4.202 1.881-4.202 4.202.001 8.766 7.133 15.897 15.898 15.897z"/></g></g></svg>