<svg id="Capa_1" enable-background="new 0 0 511.957 511.957" height="512" viewBox="0 0 511.957 511.957" width="512" xmlns="http://www.w3.org/2000/svg"><g><path d="m206.781 232.998c1.713 0 3.102-1.389 3.102-3.102s-1.389-3.102-3.102-3.102-3.102 1.389-3.102 3.102 1.389 3.102 3.102 3.102z"/><path d="m206.781 252.998c1.713 0 3.102-1.389 3.102-3.102s-1.389-3.102-3.102-3.102-3.102 1.389-3.102 3.102 1.389 3.102 3.102 3.102z"/><path d="m206.781 272.998c1.713 0 3.102-1.389 3.102-3.102s-1.389-3.103-3.102-3.103-3.102 1.389-3.102 3.103c0 1.713 1.389 3.102 3.102 3.102z"/><path d="m206.781 292.998c1.713 0 3.102-1.389 3.102-3.102s-1.389-3.103-3.102-3.103-3.102 1.389-3.102 3.103c0 1.713 1.389 3.102 3.102 3.102z"/><path d="m206.781 312.998c1.713 0 3.102-1.389 3.102-3.102s-1.389-3.103-3.102-3.103-3.102 1.389-3.102 3.103c0 1.713 1.389 3.102 3.102 3.102z"/><path d="m206.781 332.998c1.713 0 3.102-1.389 3.102-3.102s-1.389-3.103-3.102-3.103-3.102 1.389-3.102 3.103c0 1.713 1.389 3.102 3.102 3.102z"/><path d="m206.781 352.998c1.713 0 3.102-1.389 3.102-3.102s-1.389-3.103-3.102-3.103-3.102 1.389-3.102 3.103c0 1.713 1.389 3.102 3.102 3.102z"/><path d="m217.158 362.621c1.713 0 3.102-1.389 3.102-3.102s-1.389-3.103-3.102-3.103-3.102 1.389-3.102 3.103c-.001 1.713 1.389 3.102 3.102 3.102z"/><path d="m206.781 372.998c1.713 0 3.102-1.389 3.102-3.102s-1.389-3.103-3.102-3.103-3.102 1.389-3.102 3.103c0 1.713 1.389 3.102 3.102 3.102z"/><path d="m217.158 382.621c1.713 0 3.102-1.389 3.102-3.102s-1.389-3.103-3.102-3.103-3.102 1.389-3.102 3.103c-.001 1.713 1.389 3.102 3.102 3.102z"/><path d="m186.781 232.998c1.713 0 3.102-1.389 3.102-3.102s-1.389-3.102-3.102-3.102-3.102 1.389-3.102 3.102 1.389 3.102 3.102 3.102z"/><path d="m197.158 242.621c1.713 0 3.102-1.389 3.102-3.102s-1.389-3.103-3.102-3.103-3.102 1.389-3.102 3.103c-.001 1.713 1.389 3.102 3.102 3.102z"/><path d="m186.781 246.793c-.169 0-.333.024-.495.05-.09 2.019-.181 4.038-.267 6.049.245.062.497.105.762.105 1.713 0 3.102-1.389 3.102-3.102.001-1.713-1.388-3.102-3.102-3.102z"/><path d="m197.158 262.621c1.713 0 3.102-1.389 3.102-3.102s-1.389-3.103-3.102-3.103-3.102 1.389-3.102 3.103c-.001 1.713 1.389 3.102 3.102 3.102z"/><path d="m186.781 266.793c-.477 0-.923.117-1.327.309-.068 1.829-.137 3.658-.2 5.479.453.258.969.417 1.527.417 1.713 0 3.102-1.389 3.102-3.102.001-1.714-1.388-3.103-3.102-3.103z"/><path d="m197.158 282.621c1.713 0 3.102-1.389 3.102-3.102s-1.389-3.103-3.102-3.103-3.102 1.389-3.102 3.103c-.001 1.713 1.389 3.102 3.102 3.102z"/><path d="m186.781 286.793c-.764 0-1.455.287-1.996.746-.043 1.537-.089 3.077-.128 4.608.556.524 1.3.851 2.124.851 1.713 0 3.102-1.389 3.102-3.102.001-1.714-1.388-3.103-3.102-3.103z"/><path d="m197.158 302.621c1.713 0 3.102-1.389 3.102-3.102s-1.389-3.103-3.102-3.103-3.102 1.389-3.102 3.103c-.001 1.713 1.389 3.102 3.102 3.102z"/><path d="m186.781 306.793c-1.008 0-1.896.489-2.462 1.235-.021 1.218-.046 2.444-.064 3.657.562.792 1.482 1.312 2.527 1.312 1.713 0 3.102-1.389 3.102-3.102s-1.389-3.102-3.103-3.102z"/><path d="m197.158 322.621c1.713 0 3.102-1.389 3.102-3.102s-1.389-3.103-3.102-3.103-3.102 1.389-3.102 3.103c-.001 1.713 1.389 3.102 3.102 3.102z"/><path d="m186.781 326.793c-1.156 0-2.152.64-2.686 1.577-.004 1.009-.011 2.022-.014 3.026.53.951 1.534 1.602 2.699 1.602 1.713 0 3.102-1.389 3.102-3.102.002-1.714-1.387-3.103-3.101-3.103z"/><path d="m197.158 342.621c1.713 0 3.102-1.389 3.102-3.102s-1.389-3.103-3.102-3.103-3.102 1.389-3.102 3.103c-.001 1.713 1.389 3.102 3.102 3.102z"/><path d="m186.781 346.793c-1.114 0-2.083.593-2.63 1.475.012 1.117.03 2.225.044 3.337.555.838 1.505 1.393 2.586 1.393 1.713 0 3.102-1.389 3.102-3.102.001-1.714-1.388-3.103-3.102-3.103z"/><path d="m197.158 362.621c1.713 0 3.102-1.389 3.102-3.102s-1.389-3.103-3.102-3.103-3.102 1.389-3.102 3.103c-.001 1.713 1.389 3.102 3.102 3.102z"/><path d="m186.781 366.793c-.893 0-1.691.382-2.257.986.041 1.465.091 2.917.138 4.372.555.522 1.297.847 2.119.847 1.713 0 3.102-1.389 3.102-3.102.001-1.714-1.388-3.103-3.102-3.103z"/><path d="m197.158 382.621c1.713 0 3.102-1.389 3.102-3.102s-1.389-3.103-3.102-3.103-3.102 1.389-3.102 3.103c-.001 1.713 1.389 3.102 3.102 3.102z"/><path d="m166.781 232.998c1.713 0 3.102-1.389 3.102-3.102s-1.389-3.102-3.102-3.102-3.102 1.389-3.102 3.102 1.389 3.102 3.102 3.102z"/><path d="m177.158 242.621c1.713 0 3.102-1.389 3.102-3.102s-1.389-3.103-3.102-3.103-3.102 1.389-3.102 3.103c-.001 1.713 1.389 3.102 3.102 3.102z"/><path d="m146.781 232.998c1.713 0 3.102-1.389 3.102-3.102s-1.389-3.102-3.102-3.102-3.102 1.389-3.102 3.102 1.389 3.102 3.102 3.102z"/><path d="m157.158 242.621c1.713 0 3.102-1.389 3.102-3.102s-1.389-3.103-3.102-3.103-3.102 1.389-3.102 3.103c-.001 1.713 1.389 3.102 3.102 3.102z"/><path d="m126.781 232.998c1.713 0 3.102-1.389 3.102-3.102s-1.389-3.102-3.102-3.102-3.102 1.389-3.102 3.102 1.389 3.102 3.102 3.102z"/><path d="m137.158 242.621c1.713 0 3.102-1.389 3.102-3.102s-1.389-3.103-3.102-3.103-3.102 1.389-3.102 3.103c-.001 1.713 1.389 3.102 3.102 3.102z"/><path d="m117.158 242.621c1.713 0 3.102-1.389 3.102-3.102s-1.389-3.103-3.102-3.103-3.102 1.389-3.102 3.103c-.001 1.713 1.389 3.102 3.102 3.102z"/><path d="m266.781 446.793c-1.713 0-3.102 1.389-3.102 3.103 0 1.713 1.389 3.102 3.102 3.102s3.102-1.389 3.102-3.102c.001-1.714-1.388-3.103-3.102-3.103z"/><path d="m266.781 466.793c-1.713 0-3.102 1.389-3.102 3.103 0 1.713 1.389 3.102 3.102 3.102s3.102-1.389 3.102-3.102c.001-1.714-1.388-3.103-3.102-3.103z"/><path d="m266.781 486.793c-1.713 0-3.102 1.389-3.102 3.103 0 1.713 1.389 3.102 3.102 3.102s3.102-1.389 3.102-3.102c.001-1.714-1.388-3.103-3.102-3.103z"/><path d="m246.781 426.793c-1.713 0-3.102 1.389-3.102 3.103 0 1.713 1.389 3.102 3.102 3.102s3.102-1.389 3.102-3.102c.001-1.714-1.388-3.103-3.102-3.103z"/><path d="m257.158 436.417c-1.713 0-3.102 1.389-3.102 3.103 0 1.713 1.389 3.102 3.102 3.102s3.102-1.389 3.102-3.102c0-1.714-1.389-3.103-3.102-3.103z"/><path d="m246.781 446.793c-1.713 0-3.102 1.389-3.102 3.103 0 1.713 1.389 3.102 3.102 3.102s3.102-1.389 3.102-3.102c.001-1.714-1.388-3.103-3.102-3.103z"/><path d="m257.158 456.417c-1.713 0-3.102 1.389-3.102 3.103 0 1.713 1.389 3.102 3.102 3.102s3.102-1.389 3.102-3.102c0-1.714-1.389-3.103-3.102-3.103z"/><path d="m246.781 466.793c-1.713 0-3.102 1.389-3.102 3.103 0 1.713 1.389 3.102 3.102 3.102s3.102-1.389 3.102-3.102c.001-1.714-1.388-3.103-3.102-3.103z"/><path d="m257.158 476.417c-1.713 0-3.102 1.389-3.102 3.103 0 1.713 1.389 3.102 3.102 3.102s3.102-1.389 3.102-3.102c0-1.714-1.389-3.103-3.102-3.103z"/><path d="m246.781 486.793c-1.713 0-3.102 1.389-3.102 3.103 0 1.713 1.389 3.102 3.102 3.102s3.102-1.389 3.102-3.102c.001-1.714-1.388-3.103-3.102-3.103z"/><path d="m257.158 496.417c-1.713 0-3.102 1.389-3.102 3.103 0 1.713 1.389 3.102 3.102 3.102s3.102-1.389 3.102-3.102c0-1.714-1.389-3.103-3.102-3.103z"/><path d="m226.781 426.793c-1.713 0-3.102 1.389-3.102 3.103 0 1.713 1.389 3.102 3.102 3.102s3.102-1.389 3.102-3.102c.001-1.714-1.388-3.103-3.102-3.103z"/><path d="m237.158 436.417c-1.713 0-3.102 1.389-3.102 3.103 0 1.713 1.389 3.102 3.102 3.102s3.102-1.389 3.102-3.102c0-1.714-1.389-3.103-3.102-3.103z"/><path d="m226.781 446.793c-1.713 0-3.102 1.389-3.102 3.103 0 1.713 1.389 3.102 3.102 3.102s3.102-1.389 3.102-3.102c.001-1.714-1.388-3.103-3.102-3.103z"/><path d="m237.158 456.417c-1.713 0-3.102 1.389-3.102 3.103 0 1.713 1.389 3.102 3.102 3.102s3.102-1.389 3.102-3.102c0-1.714-1.389-3.103-3.102-3.103z"/><path d="m226.781 466.793c-1.713 0-3.102 1.389-3.102 3.103 0 1.713 1.389 3.102 3.102 3.102s3.102-1.389 3.102-3.102c.001-1.714-1.388-3.103-3.102-3.103z"/><path d="m237.158 476.417c-1.713 0-3.102 1.389-3.102 3.103 0 1.713 1.389 3.102 3.102 3.102s3.102-1.389 3.102-3.102c0-1.714-1.389-3.103-3.102-3.103z"/><path d="m226.781 486.793c-1.713 0-3.102 1.389-3.102 3.103 0 1.713 1.389 3.102 3.102 3.102s3.102-1.389 3.102-3.102c.001-1.714-1.388-3.103-3.102-3.103z"/><path d="m237.158 496.417c-1.713 0-3.102 1.389-3.102 3.103 0 1.713 1.389 3.102 3.102 3.102s3.102-1.389 3.102-3.102c0-1.714-1.389-3.103-3.102-3.103z"/><path d="m206.781 426.793c-1.555 0-2.831 1.148-3.056 2.641 1.116 1.11 2.151 2.3 3.1 3.559 1.692-.024 3.058-1.399 3.058-3.098.001-1.713-1.388-3.102-3.102-3.102z"/><path d="m217.158 436.417c-1.713 0-3.102 1.389-3.102 3.103 0 1.713 1.389 3.102 3.102 3.102s3.102-1.389 3.102-3.102c0-1.714-1.389-3.103-3.102-3.103z"/><path d="m217.158 456.417c-1.713 0-3.102 1.389-3.102 3.103 0 1.713 1.389 3.102 3.102 3.102s3.102-1.389 3.102-3.102c0-1.714-1.389-3.103-3.102-3.103z"/><path d="m217.158 476.417c-1.713 0-3.102 1.389-3.102 3.103 0 1.713 1.389 3.102 3.102 3.102s3.102-1.389 3.102-3.102c0-1.714-1.389-3.103-3.102-3.103z"/><path d="m217.158 496.417c-1.713 0-3.102 1.389-3.102 3.103 0 1.713 1.389 3.102 3.102 3.102s3.102-1.389 3.102-3.102c0-1.714-1.389-3.103-3.102-3.103z"/><path d="m458.285 465.634v-2.297c0-16.912-13.433-30.738-30.188-31.386l-20.729-126.115h1.917c12.203 0 22.132-9.928 22.132-22.132v-1.09c0-10.042-6.724-18.537-15.904-21.234 5.759-9.071 9.11-19.814 9.11-31.331 0-32.332-26.304-58.636-58.636-58.636s-58.637 26.305-58.637 58.636c0 11.517 3.351 22.26 9.11 31.331-9.18 2.697-15.904 11.192-15.904 21.234v1.09c0 12.134 9.817 22.015 21.926 22.126l-17.474 126.092c-9.047.027-17.192 3.91-22.912 10.074-3.915-13.007-14.859-22.997-28.404-25.53-2.47-10.288-9.34-18.878-18.497-23.673-12.221-46.628-14.85-109.073-14.062-169.349h7.673c7.494 0 13.59-6.097 13.59-13.591v-2.516c0-1.913-.401-3.731-1.118-5.384 5.456-.564 9.725-5.188 9.725-10.791v-22.101c0-5.742-4.486-10.443-10.135-10.813.971-1.87 1.528-3.987 1.528-6.236v-2.516c0-5.31-3.067-9.905-7.517-12.14 6.898-11.849 10.897-25.523 10.897-36.829 0-27.618-22.469-50.088-50.088-50.088-.594 0-1.184.023-1.775.043 1.831-4.336 2.865-9.089 2.865-14.084.003-20.07-16.326-36.398-36.395-36.398-20.07 0-36.398 16.328-36.398 36.397 0 4.992 1.014 9.75 2.841 14.084-.583-.02-1.165-.043-1.75-.043-27.619 0-50.088 22.47-50.088 50.088 0 11.306 3.999 24.979 10.897 36.829-4.45 2.235-7.518 6.831-7.518 12.141v2.516c0 2.249.558 4.366 1.528 6.236-5.649.37-10.135 5.072-10.135 10.813v22.101c0 5.603 4.269 10.226 9.725 10.791-.716 1.652-1.118 3.471-1.118 5.384v2.516c0 7.494 6.097 13.591 13.59 13.591h8.464c1.514 73.677-3.281 128.613-14.656 169.245-9.256 4.774-16.205 13.415-18.693 23.777-17.029 3.185-29.96 18.151-29.96 36.09v55.43c0 2.194 1.779 3.972 3.972 3.972h238.226.371 191.192c2.194 0 3.972-1.778 3.972-3.972v-19.458c0-10.657-6.953-19.717-16.56-22.894zm-297.902-457.689c15.689 0 28.453 12.764 28.453 28.453 0 5.658-1.673 10.926-4.532 15.361-9.003 2.098-17.287 6.65-23.92 13.25-6.636-6.604-14.925-11.157-23.933-13.254-2.857-4.433-4.52-9.703-4.52-15.358-.001-15.689 12.763-28.452 28.452-28.452zm-77.45 92.581c0-23.237 18.904-42.143 42.143-42.143 12.467 0 24.228 5.484 32.266 15.045.755.897 1.868 1.416 3.041 1.416s2.286-.519 3.04-1.416c8.04-9.562 19.8-15.045 32.267-15.045 23.238 0 42.143 18.905 42.143 42.143 0 11.115-4.306 24.449-11.342 35.378h-132.216c-7.036-10.929-11.342-24.262-11.342-35.378zm151.52 48.97v2.516c0 3.113-2.532 5.646-5.646 5.646h-136.849c-3.113 0-5.645-2.533-5.645-5.646v-2.516c0-3.113 2.532-5.646 5.645-5.646h136.849c3.114 0 5.646 2.532 5.646 5.646zm-153.843 44.57c-1.601 0-2.905-1.303-2.905-2.904v-22.101c0-1.602 1.303-2.905 2.905-2.905h159.546c1.601 0 2.904 1.303 2.904 2.905v22.101c0 1.602-1.302 2.904-2.904 2.904zm11.348 21.433c-3.113 0-5.645-2.533-5.645-5.646v-2.516c0-2.462 1.586-4.555 3.788-5.325h140.565c2.202.77 3.788 2.863 3.788 5.325v2.516c0 3.113-2.532 5.646-5.646 5.646zm16.623 16.916c.786-.563 1.303-1.479 1.303-2.519 0-1.08-.553-2.029-1.389-2.584-.024-1.288-.046-2.568-.074-3.867h104.768c-.322 24.916-.057 50.216 1.219 74.67-.217.423-.351.897-.351 1.405 0 .634.192 1.222.518 1.713.294 5.251.634 10.462 1.028 15.617-.921.538-1.547 1.526-1.547 2.67 0 1.322.83 2.442 1.994 2.889.4 4.73.844 9.412 1.339 14.032-.078-.006-.152-.023-.231-.023-1.713 0-3.102 1.389-3.102 3.103 0 1.713 1.389 3.102 3.102 3.102.319 0 .62-.062.909-.151 1.859 15.754 4.329 30.735 7.54 44.557-.883.362-1.551 1.122-1.806 2.055-1.749-.261-3.537-.406-5.358-.406h-8.81c-.474-1.107-1.572-1.883-2.852-1.883s-2.378.776-2.852 1.883h-14.296c-.474-1.107-1.572-1.883-2.852-1.883-.551 0-1.062.156-1.511.409.024.493.05.981.074 1.474h-83.022c-2.55 0-5.038.27-7.44.774 10.253-39.328 14.704-89.809 13.699-157.037zm-6.258 164.206h116.12c12.426 0 23 8.052 26.799 19.21h-169.718c3.798-11.159 14.372-19.21 26.799-19.21zm-57.266 107.392v-51.458c0-15.87 12.91-28.78 28.779-28.78h173.092c6.279 0 12.09 2.027 16.826 5.453-.047.215-.076.438-.076.667 0 1.713 1.389 3.102 3.102 3.102.37 0 .72-.076 1.05-.195 4.877 5.159 7.878 12.11 7.878 19.753v4.236c-.979.522-1.653 1.541-1.653 2.728 0 1.186.674 2.206 1.653 2.727v14.545c-.979.522-1.653 1.541-1.653 2.728 0 1.186.674 2.206 1.653 2.727v14.545c-.979.522-1.653 1.541-1.653 2.728 0 1.186.674 2.206 1.653 2.727v1.767z"/></g></svg>