<svg id="Capa_1" enable-background="new 0 0 511.898 511.898" height="512" viewBox="0 0 511.898 511.898" width="512" xmlns="http://www.w3.org/2000/svg"><g><path d="m394.167 139.6c1.713 0 3.102-1.389 3.102-3.102s-1.389-3.103-3.102-3.103-3.102 1.389-3.102 3.103c0 1.713 1.389 3.102 3.102 3.102z"/><path d="m383.791 143.772c-1.713 0-3.102 1.389-3.102 3.102s1.389 3.102 3.102 3.102 3.102-1.389 3.102-3.102-1.389-3.102-3.102-3.102z"/><path d="m372.844 139.294c.403.191.848.306 1.323.306 1.713 0 3.102-1.389 3.102-3.102 0-.476-.116-.921-.306-1.323z"/><path d="m362.468 149.67c.403.191.848.306 1.323.306 1.713 0 3.102-1.389 3.102-3.102 0-.475-.116-.92-.307-1.323z"/><path d="m374.167 153.396c-1.713 0-3.102 1.389-3.102 3.103 0 1.713 1.389 3.102 3.102 3.102s3.102-1.389 3.102-3.102c.001-1.714-1.388-3.103-3.102-3.103z"/><path d="m363.791 163.772c-1.713 0-3.102 1.389-3.102 3.102s1.389 3.102 3.102 3.102 3.102-1.389 3.102-3.102-1.389-3.102-3.102-3.102z"/><path d="m352.844 159.294c.403.191.848.306 1.323.306 1.713 0 3.102-1.389 3.102-3.102 0-.476-.116-.921-.306-1.323z"/><path d="m342.468 169.67c.403.191.848.306 1.323.306 1.713 0 3.102-1.389 3.102-3.102 0-.475-.116-.92-.307-1.323z"/><path d="m354.167 173.396c-1.713 0-3.102 1.389-3.102 3.103 0 1.713 1.389 3.102 3.102 3.102s3.102-1.389 3.102-3.102c.001-1.714-1.388-3.103-3.102-3.103z"/><path d="m343.791 183.772c-1.713 0-3.102 1.389-3.102 3.102s1.389 3.102 3.102 3.102 3.102-1.389 3.102-3.102-1.389-3.102-3.102-3.102z"/><path d="m332.844 179.294c.403.191.848.306 1.323.306 1.713 0 3.102-1.389 3.102-3.102 0-.476-.116-.921-.306-1.323z"/><path d="m322.468 189.67c.403.191.848.306 1.323.306 1.713 0 3.102-1.389 3.102-3.102 0-.475-.116-.92-.307-1.323z"/><path d="m334.167 193.396c-1.713 0-3.102 1.389-3.102 3.103 0 1.713 1.389 3.102 3.102 3.102s3.102-1.389 3.102-3.102c.001-1.714-1.388-3.103-3.102-3.103z"/><path d="m323.791 203.772c-1.713 0-3.102 1.389-3.102 3.102s1.389 3.102 3.102 3.102 3.102-1.389 3.102-3.102-1.389-3.102-3.102-3.102z"/><path d="m312.844 199.294c.403.191.848.306 1.323.306 1.713 0 3.102-1.389 3.102-3.102 0-.476-.116-.921-.306-1.323z"/><path d="m302.468 209.67c.403.191.848.306 1.323.306 1.713 0 3.102-1.389 3.102-3.102 0-.475-.116-.92-.307-1.323z"/><path d="m314.167 213.396c-1.713 0-3.102 1.389-3.102 3.103 0 1.713 1.389 3.102 3.102 3.102s3.102-1.389 3.102-3.102c.001-1.714-1.388-3.103-3.102-3.103z"/><path d="m303.791 223.772c-1.713 0-3.102 1.389-3.102 3.102s1.389 3.102 3.102 3.102 3.102-1.389 3.102-3.102-1.389-3.102-3.102-3.102z"/><path d="m292.844 219.294c.403.191.848.306 1.323.306 1.713 0 3.102-1.389 3.102-3.102 0-.476-.116-.921-.306-1.323z"/><path d="m282.468 229.67c.403.191.848.307 1.323.307 1.713 0 3.102-1.389 3.102-3.102 0-.475-.116-.92-.307-1.323z"/><path d="m511.136 73.213c-1.311-3.852-4.633-6.571-8.668-7.096l-50.332-6.543-6.543-50.332c-.524-4.035-3.243-7.357-7.096-8.668-3.852-1.311-8.035-.338-10.912 2.54l-39.237 39.237c-39.887-24.938-86.031-38.299-134.237-38.299-67.826 0-131.591 26.412-179.551 74.372-47.96 47.959-74.372 111.725-74.372 179.551 0 67.825 26.413 131.591 74.372 179.55 47.961 47.96 111.726 74.373 179.551 74.373 67.826 0 131.591-26.413 179.55-74.373s74.372-111.725 74.372-179.55c0-48.391-13.466-94.705-38.589-134.697l39.154-39.153c2.876-2.878 3.849-7.06 2.538-10.912zm-116.636-25.741 38.722-38.722c1.047-1.045 2.242-.788 2.706-.63.466.159 1.569.686 1.759 2.15l6.685 51.429-51.177 51.178zm-5.625 79.348c.029 0 .059 0 .088-.001l11.757-.255c-.01.104-.031.204-.031.31 0 1.713 1.389 3.102 3.102 3.102s3.102-1.389 3.102-3.102c0-.152-.024-.297-.045-.443l13.373-.29-7.778 7.778c-.338.226-.629.517-.855.855l-9.522 9.521c-.338.226-.628.517-.855.855l-8.769 8.769c-.338.227-.628.517-.854.854l-9.522 9.522c-.338.227-.628.517-.854.854l-8.769 8.77c-.338.226-.628.516-.854.854l-9.522 9.522c-.338.227-.628.517-.854.854l-8.77 8.77c-.337.226-.627.516-.853.854l-9.523 9.523c-.337.226-.627.516-.853.854l-8.77 8.77c-.337.226-.627.516-.853.854l-9.523 9.523c-.337.226-.627.516-.853.853l-8.771 8.771c-.337.226-.627.516-.853.853l-5.058 5.058-10.174-1.137c.563-.562.911-1.338.911-2.196 0-1.713-1.389-3.103-3.102-3.103s-3.102 1.389-3.102 3.103c0 .612.183 1.178.489 1.659l-14.29-1.597c0-.021.006-.041.006-.062 0-.476-.116-.921-.306-1.323l-.616.616-4.12-30.349 113.41-113.41-.594 29.745c-.235.852-.196 1.774.166 2.623.245.574.618 1.065 1.072 1.456l-3.815 3.815c.403.191.848.306 1.323.306 1.713 0 3.102-1.389 3.102-3.102 0-.219-.03-.431-.075-.636.61.367 1.315.58 2.057.58zm-134.835 131.157c.779.778 1.798 1.167 2.818 1.167s2.04-.39 2.818-1.167l13.818-13.817 20.471 2.288c1.064 3.662 1.65 7.526 1.65 11.527 0 22.885-18.618 41.504-41.504 41.504s-41.504-18.619-41.504-41.504c0-22.886 18.618-41.504 41.504-41.504 4.1 0 8.059.607 11.802 1.72l2.663 19.614-14.536 14.535c-1.557 1.556-1.557 4.08 0 5.637zm11.154-56.774c-.881.88-1.299 2.122-1.132 3.355l.689 5.072c-3.429-.754-6.987-1.159-10.64-1.159-27.297 0-49.504 22.207-49.504 49.504 0 27.296 22.207 49.504 49.504 49.504s49.504-22.207 49.504-49.504c0-3.629-.394-7.168-1.139-10.576l5.076.567c.148.017.296.025.443.025 1.051 0 2.067-.416 2.818-1.167l37.644-37.643c2.762 5.317 5.083 10.897 6.926 16.689l-16.919 16.919c-1.557 1.557-1.557 4.081 0 5.638.777.778 1.798 1.167 2.818 1.167s2.041-.389 2.818-1.167l13.683-13.683c.929 4.141 1.616 8.372 2.043 12.679l-8.365 8.364c-1.557 1.556-1.557 4.08 0 5.637.779.778 1.799 1.167 2.818 1.167 1.02 0 2.041-.389 2.818-1.167l3.256-3.256c-.105 58.495-47.723 106.052-106.243 106.052-58.584 0-106.245-47.661-106.245-106.245 0-58.269 47.151-105.725 105.302-106.233l-2.875 2.875c-1.557 1.557-1.557 4.081 0 5.638.779.778 1.798 1.167 2.818 1.167s2.041-.389 2.818-1.167l8.066-8.066c4.329.402 8.583 1.067 12.747 1.975l-13.451 13.452c-1.557 1.557-1.557 4.081 0 5.638.779.778 1.798 1.167 2.818 1.167s2.04-.389 2.818-1.167l16.733-16.733c5.96 1.859 11.697 4.23 17.158 7.06zm26.784-51.003 45.762-45.763c.861-.861 1.228-2.016 1.137-3.141 5.601 3.043 11.024 6.374 16.244 9.979l-46.392 46.392c-5.34-2.92-10.941-5.417-16.751-7.467zm40.126-51.4-48.739 48.74c-3.985-1.058-8.055-1.901-12.197-2.525l15.806-15.807c1.557-1.557 1.557-4.08 0-5.637-1.557-1.556-4.081-1.556-5.636 0l-20.369 20.37c-2.27-.135-4.555-.211-6.858-.211-62.995 0-114.245 51.251-114.245 114.246s51.25 114.245 114.245 114.245 114.245-51.25 114.245-114.245c0-2.54-.086-5.06-.251-7.559l20.039-20.039c1.557-1.557 1.557-4.08 0-5.637-1.557-1.556-4.081-1.556-5.636 0l-15.531 15.531c-.645-4.121-1.517-8.167-2.591-12.131l48.529-48.529c.295-.295.516-.632.699-.983 11.945 23.907 18.677 50.853 18.677 79.347 0 98.248-79.931 178.179-178.18 178.179s-178.18-79.931-178.18-178.179 79.931-178.18 178.18-178.18c28.274 0 55.026 6.627 78.795 18.401-.284.166-.558.359-.802.603zm75.174 75.174-45.584 45.584c-2.025-5.646-4.477-11.091-7.326-16.29l46.385-46.385c3.551 5.135 6.835 10.467 9.842 15.971-1.179-.148-2.412.214-3.317 1.12zm92.783 84.001c0 135.618-110.333 245.951-245.95 245.951-135.619 0-245.952-110.332-245.952-245.951s110.333-245.952 245.952-245.952c48.691 0 94.114 14.233 132.35 38.742l-.594 29.763-25 25.001c-30.247-21.245-67.069-33.734-106.756-33.734-102.66 0-186.18 83.52-186.18 186.18s83.52 186.179 186.18 186.179 186.18-83.52 186.18-186.179c0-39.723-12.517-76.569-33.799-106.829l25.254-25.254 29.333-.636c24.656 38.31 38.982 83.869 38.982 132.719zm2.9-179.487-38.726 38.725-65.522 1.421 51.296-51.298 51.431 6.686c1.464.19 1.99 1.294 2.148 1.759.16.468.416 1.663-.627 2.707z"/></g></svg>