<svg id="Capa_1" enable-background="new 0 0 511.849 511.849" height="512" viewBox="0 0 511.849 511.849" width="512" xmlns="http://www.w3.org/2000/svg"><g><path d="m253.639 94.544c1.736 0 3.144-1.407 3.144-3.144s-1.407-3.144-3.144-3.144c-1.736 0-3.144 1.407-3.144 3.144s1.408 3.144 3.144 3.144z"/><path d="m253.639 114.811c1.736 0 3.144-1.408 3.144-3.144s-1.407-3.144-3.144-3.144c-1.736 0-3.144 1.408-3.144 3.144 0 1.737 1.408 3.144 3.144 3.144z"/><path d="m233.372 74.278c1.736 0 3.144-1.407 3.144-3.144s-1.407-3.144-3.144-3.144c-1.736 0-3.144 1.407-3.144 3.144s1.408 3.144 3.144 3.144z"/><path d="m243.887 84.03c1.736 0 3.144-1.408 3.144-3.144s-1.408-3.144-3.144-3.144-3.144 1.407-3.144 3.144c0 1.736 1.408 3.144 3.144 3.144z"/><path d="m233.372 94.544c1.736 0 3.144-1.407 3.144-3.144s-1.407-3.144-3.144-3.144c-1.736 0-3.144 1.407-3.144 3.144s1.408 3.144 3.144 3.144z"/><path d="m243.887 104.296c1.736 0 3.144-1.407 3.144-3.144 0-1.736-1.408-3.144-3.144-3.144s-3.144 1.407-3.144 3.144 1.408 3.144 3.144 3.144z"/><path d="m233.372 114.811c1.736 0 3.144-1.408 3.144-3.144s-1.407-3.144-3.144-3.144c-1.736 0-3.144 1.408-3.144 3.144 0 1.737 1.408 3.144 3.144 3.144z"/><path d="m243.887 124.563c1.736 0 3.144-1.408 3.144-3.144s-1.408-3.144-3.144-3.144-3.144 1.408-3.144 3.144c0 1.737 1.408 3.144 3.144 3.144z"/><path d="m233.372 135.078c1.736 0 3.144-1.407 3.144-3.143s-1.407-3.144-3.144-3.144c-1.736 0-3.144 1.407-3.144 3.144s1.408 3.143 3.144 3.143z"/><path d="m226.764 60.619c0-1.6-1.199-2.906-2.746-3.104.183 2.03.327 4.071.42 6.126 1.337-.361 2.326-1.57 2.326-3.022z"/><path d="m226.764 80.886c0-1.477-1.022-2.706-2.395-3.044-.117 2.065-.272 4.12-.479 6.16 1.608-.139 2.874-1.472 2.874-3.116z"/><path d="m223.62 104.296c1.736 0 3.144-1.407 3.144-3.144 0-1.736-1.408-3.144-3.144-3.144-.794 0-1.511.304-2.064.789-.258 1.206-.532 2.405-.821 3.599.482 1.118 1.591 1.9 2.885 1.9z"/><path d="m223.62 124.563c1.736 0 3.144-1.408 3.144-3.144s-1.408-3.144-3.144-3.144-3.144 1.408-3.144 3.144c0 1.737 1.408 3.144 3.144 3.144z"/><path d="m213.105 135.078c1.736 0 3.144-1.407 3.144-3.143s-1.407-3.144-3.144-3.144c-.818 0-1.556.32-2.115.832-.326.674-.662 1.341-.998 2.009-.01.101-.031.199-.031.303.001 1.736 1.408 3.143 3.144 3.143z"/><path d="m223.62 144.83c1.736 0 3.144-1.407 3.144-3.144 0-1.736-1.408-3.144-3.144-3.144s-3.144 1.407-3.144 3.144 1.408 3.144 3.144 3.144z"/><path d="m213.105 155.345c1.736 0 3.144-1.408 3.144-3.144s-1.407-3.144-3.144-3.144c-1.736 0-3.144 1.408-3.144 3.144.001 1.736 1.408 3.144 3.144 3.144z"/><path d="m223.62 165.097c1.736 0 3.144-1.408 3.144-3.144s-1.408-3.143-3.144-3.143-3.144 1.408-3.144 3.143c0 1.736 1.408 3.144 3.144 3.144z"/><path d="m213.105 175.612c1.736 0 3.144-1.407 3.144-3.143s-1.407-3.144-3.144-3.144c-1.736 0-3.144 1.407-3.144 3.144.001 1.736 1.408 3.143 3.144 3.143z"/><path d="m213.105 195.878c1.736 0 3.144-1.407 3.144-3.144 0-1.736-1.407-3.144-3.144-3.144-1.736 0-3.144 1.407-3.144 3.144.001 1.737 1.408 3.144 3.144 3.144z"/><path d="m206.497 141.686c0-.821-.322-1.562-.837-2.122-1.022 1.734-2.08 3.445-3.175 5.129.278.08.565.137.869.137 1.735 0 3.143-1.407 3.143-3.144z"/><path d="m203.353 165.097c1.736 0 3.144-1.408 3.144-3.144s-1.408-3.143-3.144-3.143-3.144 1.408-3.144 3.143c.001 1.736 1.408 3.144 3.144 3.144z"/><path d="m192.838 169.325c-1.736 0-3.144 1.407-3.144 3.144 0 1.736 1.407 3.143 3.144 3.143s3.144-1.407 3.144-3.143c0-1.737-1.407-3.144-3.144-3.144z"/><path d="m203.353 185.364c1.736 0 3.144-1.407 3.144-3.144 0-1.736-1.408-3.143-3.144-3.143s-3.144 1.407-3.144 3.143c.001 1.737 1.408 3.144 3.144 3.144z"/><path d="m192.838 189.591c-1.736 0-3.144 1.407-3.144 3.144 0 1.736 1.407 3.144 3.144 3.144s3.144-1.407 3.144-3.144-1.407-3.144-3.144-3.144z"/><path d="m203.353 205.63c1.736 0 3.144-1.407 3.144-3.144 0-1.736-1.408-3.143-3.144-3.143s-3.144 1.407-3.144 3.143c.001 1.737 1.408 3.144 3.144 3.144z"/><path d="m183.087 179.077c-1.736 0-3.144 1.407-3.144 3.143s1.408 3.144 3.144 3.144 3.144-1.407 3.144-3.144c-.001-1.736-1.408-3.143-3.144-3.143z"/><path d="m172.572 189.591c-1.736 0-3.144 1.407-3.144 3.144 0 1.736 1.407 3.144 3.144 3.144 1.736 0 3.144-1.407 3.144-3.144-.001-1.737-1.408-3.144-3.144-3.144z"/><path d="m183.087 199.343c-1.736 0-3.144 1.407-3.144 3.143s1.408 3.144 3.144 3.144 3.144-1.407 3.144-3.144c-.001-1.736-1.408-3.143-3.144-3.143z"/><path d="m165.935 182.5c-1.325.927-2.666 1.833-4.025 2.714.29.088.591.149.909.149 1.641.001 2.972-1.26 3.116-2.863z"/><path d="m153.887 190.033c-1.551.861-3.118 1.695-4.705 2.498-.005.069-.021.134-.021.204 0 1.736 1.408 3.144 3.144 3.144s3.144-1.407 3.144-3.144c-.001-1.156-.632-2.156-1.562-2.702z"/><path d="m162.82 199.343c-1.736 0-3.144 1.407-3.144 3.143s1.408 3.144 3.144 3.144 3.144-1.407 3.144-3.144c-.001-1.736-1.408-3.143-3.144-3.143z"/><path d="m142.553 199.343c-1.736 0-3.144 1.407-3.144 3.143s1.408 3.144 3.144 3.144 3.144-1.407 3.144-3.144c0-1.736-1.408-3.143-3.144-3.143z"/><path d="m119.316 203.473c.415 1.25 1.581 2.157 2.97 2.157 1.736 0 3.144-1.407 3.144-3.144 0-.206-.023-.407-.061-.602-1.999.576-4.018 1.103-6.053 1.589z"/><path d="m91.504 209.858c-1.736 0-3.144 1.408-3.144 3.144s1.408 3.144 3.144 3.144 3.144-1.408 3.144-3.144-1.407-3.144-3.144-3.144z"/><path d="m71.237 209.858c-1.736 0-3.144 1.408-3.144 3.144s1.408 3.144 3.144 3.144 3.144-1.408 3.144-3.144-1.407-3.144-3.144-3.144z"/><path d="m81.752 219.61c-1.736 0-3.144 1.408-3.144 3.144s1.408 3.144 3.144 3.144 3.144-1.408 3.144-3.144-1.407-3.144-3.144-3.144z"/><path d="m61.486 205.63c.652 0 1.257-.199 1.76-.538-1.464-.26-2.919-.542-4.366-.847.565.836 1.521 1.385 2.606 1.385z"/><path d="m50.971 209.858c-1.736 0-3.144 1.408-3.144 3.144s1.407 3.144 3.144 3.144c1.736 0 3.144-1.408 3.144-3.144-.001-1.736-1.408-3.144-3.144-3.144z"/><path d="m61.486 219.61c-1.736 0-3.144 1.408-3.144 3.144s1.408 3.144 3.144 3.144 3.144-1.408 3.144-3.144c-.001-1.736-1.408-3.144-3.144-3.144z"/><path d="m50.971 230.125c-1.736 0-3.144 1.407-3.144 3.144 0 1.736 1.407 3.143 3.144 3.143 1.736 0 3.144-1.407 3.144-3.143-.001-1.737-1.408-3.144-3.144-3.144z"/><path d="m30.704 195.878c.461 0 .896-.105 1.29-.283-1.446-.639-2.877-1.305-4.296-1.992.378 1.312 1.573 2.275 3.006 2.275z"/><path d="m42.925 199.852c-.474-.162-.953-.313-1.425-.48-.094-.008-.185-.028-.281-.028-1.736 0-3.144 1.407-3.144 3.143s1.408 3.144 3.144 3.144 3.144-1.407 3.144-3.144c0-1.106-.574-2.074-1.438-2.635z"/><path d="m41.219 219.61c-1.736 0-3.144 1.408-3.144 3.144s1.408 3.144 3.144 3.144 3.144-1.408 3.144-3.144-1.408-3.144-3.144-3.144z"/><path d="m121.177 194.723c41.459 0 75.188-33.73 75.188-75.189s-33.729-75.188-75.188-75.188-75.188 33.729-75.188 75.188 33.729 75.189 75.188 75.189zm0-142.269c36.989 0 67.081 30.092 67.081 67.081s-30.092 67.081-67.081 67.081-67.081-30.092-67.081-67.081c-.001-36.989 30.092-67.081 67.081-67.081z"/><path d="m108.534 175.012c.584.139 1.167.206 1.742.205 3.394 0 6.47-2.32 7.29-5.766l21.814-91.699c.958-4.03-1.531-8.074-5.561-9.032l-19.6-4.663c-4.031-.96-8.074 1.531-9.032 5.561s1.531 8.074 5.561 9.032l12.303 2.927-20.079 84.403c-.957 4.03 1.532 8.074 5.562 9.032z"/><path d="m436.04 311.192c-1.736 0-3.144 1.408-3.144 3.144s1.408 3.144 3.144 3.144 3.143-1.408 3.143-3.144c.001-1.736-1.407-3.144-3.143-3.144z"/><path d="m415.773 311.192c-1.736 0-3.144 1.408-3.144 3.144s1.408 3.144 3.144 3.144 3.144-1.408 3.144-3.144-1.408-3.144-3.144-3.144z"/><path d="m426.288 320.944c-1.736 0-3.144 1.408-3.144 3.143 0 1.736 1.408 3.144 3.144 3.144s3.144-1.408 3.144-3.144c0-1.735-1.408-3.143-3.144-3.143z"/><path d="m415.773 331.459c-1.736 0-3.144 1.407-3.144 3.143s1.408 3.144 3.144 3.144 3.144-1.407 3.144-3.144c0-1.736-1.408-3.143-3.144-3.143z"/><path d="m395.506 311.192c-1.736 0-3.144 1.408-3.144 3.144s1.408 3.144 3.144 3.144 3.144-1.408 3.144-3.144-1.407-3.144-3.144-3.144z"/><path d="m406.021 320.944c-1.736 0-3.144 1.408-3.144 3.143 0 1.736 1.408 3.144 3.144 3.144s3.144-1.408 3.144-3.144c0-1.735-1.408-3.143-3.144-3.143z"/><path d="m395.506 331.459c-1.736 0-3.144 1.407-3.144 3.143s1.408 3.144 3.144 3.144 3.144-1.407 3.144-3.144c0-1.736-1.407-3.143-3.144-3.143z"/><path d="m375.24 311.192c-1.736 0-3.144 1.408-3.144 3.144s1.408 3.144 3.144 3.144 3.144-1.408 3.144-3.144c-.001-1.736-1.408-3.144-3.144-3.144z"/><path d="m385.754 320.944c-1.736 0-3.143 1.408-3.143 3.143 0 1.736 1.408 3.144 3.143 3.144 1.736 0 3.144-1.408 3.144-3.144 0-1.735-1.407-3.143-3.144-3.143z"/><path d="m375.24 331.459c-1.736 0-3.144 1.407-3.144 3.143s1.408 3.144 3.144 3.144 3.144-1.407 3.144-3.144c-.001-1.736-1.408-3.143-3.144-3.143z"/><path d="m385.754 341.211c-1.736 0-3.143 1.407-3.143 3.144s1.408 3.144 3.143 3.144c1.736 0 3.144-1.407 3.144-3.144s-1.407-3.144-3.144-3.144z"/><path d="m354.973 311.192c-1.736 0-3.144 1.408-3.144 3.144s1.408 3.144 3.144 3.144 3.144-1.408 3.144-3.144c-.001-1.736-1.408-3.144-3.144-3.144z"/><path d="m365.488 320.944c-1.736 0-3.144 1.408-3.144 3.143 0 1.736 1.408 3.144 3.144 3.144s3.144-1.408 3.144-3.144c-.001-1.735-1.408-3.143-3.144-3.143z"/><path d="m354.973 331.459c-1.736 0-3.144 1.407-3.144 3.143s1.408 3.144 3.144 3.144 3.144-1.407 3.144-3.144c-.001-1.736-1.408-3.143-3.144-3.143z"/><circle cx="365.488" cy="344.354" r="3.144"/><path d="m334.706 311.192c-1.736 0-3.144 1.408-3.144 3.144s1.408 3.144 3.144 3.144 3.144-1.408 3.144-3.144-1.408-3.144-3.144-3.144z"/><path d="m345.221 320.944c-1.736 0-3.144 1.408-3.144 3.143 0 1.736 1.408 3.144 3.144 3.144s3.144-1.408 3.144-3.144c0-1.735-1.408-3.143-3.144-3.143z"/><path d="m334.706 331.459c-1.736 0-3.144 1.407-3.144 3.143s1.408 3.144 3.144 3.144 3.144-1.407 3.144-3.144c0-1.736-1.408-3.143-3.144-3.143z"/><path d="m345.221 341.211c-1.736 0-3.144 1.407-3.144 3.144s1.408 3.144 3.144 3.144 3.144-1.407 3.144-3.144-1.408-3.144-3.144-3.144z"/><path d="m314.439 311.192c-1.736 0-3.143 1.408-3.143 3.144s1.407 3.144 3.143 3.144 3.144-1.408 3.144-3.144-1.408-3.144-3.144-3.144z"/><path d="m324.954 320.944c-1.736 0-3.144 1.408-3.144 3.143 0 1.736 1.407 3.144 3.144 3.144 1.736 0 3.144-1.408 3.144-3.144 0-1.735-1.408-3.143-3.144-3.143z"/><path d="m392.618 224.559h-4.503c.141-23.215.233-49.64-.049-53.028-.52-6.24-4.178-11.301-9.32-12.894-2.428-.752-8.712-1.717-14.621 5.533-5.329 6.538-31.977 54.682-37.264 64.266-1.282 2.323-1.241 5.151.108 7.436s3.805 3.687 6.458 3.687h39.587c-.051 7.181-.106 14.099-.159 20.255-.036 4.142 3.293 7.528 7.435 7.564.022.001.044.001.066.001 4.111-.001 7.463-3.315 7.498-7.436.021-2.425.087-10.283.16-20.384h4.603c4.142 0 7.5-3.358 7.5-7.5.001-4.142-3.357-7.5-7.499-7.5zm-19.505 0h-26.95c9.734-17.471 21.583-38.37 27.057-47.133.078 8.66.01 27.592-.107 47.133z"/><path d="m367.042 67.946c-34.638 0-66.47 12.23-91.417 32.592-18.517-56.478-71.722-97.385-134.311-97.385-77.921 0-141.314 63.392-141.314 141.313 0 44.111 20.328 83.553 52.095 109.487-25.377 27.076-40.943 63.454-40.943 103.403 0 83.45 67.891 151.34 151.341 151.34s151.341-67.891 151.341-151.34c0-3.387-.124-6.746-.344-10.079 16.574 6.624 34.642 10.281 53.553 10.281 79.847 0 144.807-64.961 144.807-144.807-.001-79.845-64.961-144.805-144.808-144.805zm101.784 233.471c-.044-.037-.095-.065-.141-.1h2.397c-.431.505-.864 1.008-1.302 1.506-.19-.55-.514-1.038-.954-1.406zm-196.559-187.078c.478.294 1.036.473 1.639.473.498 0 .962-.126 1.38-.332-.182-.816-.379-1.627-.578-2.437 24.342-22.336 56.772-35.99 92.335-35.99 41.728 0 79.142 18.8 104.237 48.367h-206.234c1.299-.387 2.252-1.576 2.252-3 0-.575-.166-1.106-.435-1.57 1.75-1.887 3.55-3.726 5.404-5.511zm-9.362 9.964c.114.049.236.081.357.117h-.456c.033-.04.066-.079.099-.117zm176.416 88.449c0 39.854-32.424 72.278-72.278 72.278s-72.278-32.424-72.278-72.278c0-39.855 32.423-72.278 72.278-72.278s72.278 32.424 72.278 72.278zm-410.78 2.522c.564.537 1.323.872 2.163.872 1.736 0 3.144-1.408 3.144-3.144s-1.407-3.144-3.144-3.144c-1.736 0-3.144 1.408-3.144 3.144 0 .328.064.638.158.936-1.771-2.884-3.436-5.839-4.988-8.861.824-.567 1.365-1.514 1.365-2.59 0-1.736-1.407-3.143-3.144-3.143-.327 0-.637.064-.934.157-7.648-16.783-11.911-35.419-11.911-55.035 0-73.45 59.756-133.206 133.207-133.206 30.051 0 57.806 10.004 80.115 26.856-.166.164-.32.34-.447.537.336 1.438.648 2.884.939 4.338.491.317 1.072.505 1.7.505 1.138 0 2.126-.611 2.678-1.517 2.241 1.862 4.42 3.796 6.534 5.798-1.478.257-2.604 1.538-2.604 3.089 0 1.736 1.407 3.144 3.144 3.144 1.569 0 2.859-1.154 3.095-2.657 2.055 2.101 4.046 4.265 5.96 6.497-.997.527-1.684 1.562-1.684 2.768 0 1.736 1.408 3.144 3.144 3.144.981 0 1.846-.458 2.423-1.163 1.683 2.155 3.301 4.362 4.852 6.62-.411.532-.666 1.19-.666 1.915 0 1.736 1.408 3.144 3.144 3.144.266 0 .52-.043.767-.105 4.883 7.83 8.978 16.199 12.17 24.998-.577-.703-1.441-1.161-2.421-1.161-1.736 0-3.144 1.407-3.144 3.144 0 1.736 1.408 3.144 3.144 3.144 1.723 0 3.118-1.387 3.14-3.105.585 1.699 1.138 3.414 1.655 5.144-10.275 9.479-19.17 20.428-26.369 32.5-1.081.497-1.837 1.583-1.837 2.851 0 .093.02.18.027.27-1.628 2.891-3.164 5.84-4.595 8.85-.515-1.033-1.571-1.749-2.804-1.749-1.736 0-3.144 1.408-3.144 3.144s1.407 3.144 3.144 3.144c.278 0 .542-.047.798-.115-3.459 7.958-6.223 16.284-8.216 24.902-.576-.643-1.403-1.056-2.334-1.056-1.736 0-3.144 1.407-3.144 3.143s1.408 3.144 3.144 3.144c.455 0 .885-.102 1.276-.275-.915 4.71-1.597 9.501-2.041 14.36-1.364.343-2.378 1.568-2.378 3.038 0 1.314.806 2.436 1.95 2.906-.123 2.439-.19 4.891-.19 7.359 0 1.884.053 3.756.127 5.622-2.402-1.039-4.838-2.014-7.302-2.93.718-.576 1.187-1.45 1.187-2.442 0-1.736-1.407-3.144-3.144-3.144-1.736 0-3.144 1.408-3.144 3.144 0 .236.031.464.08.685-14.96-4.967-30.943-7.671-47.549-7.671-16.647 0-32.672 2.707-47.665 7.695.053-.229.087-.464.087-.709 0-1.736-1.407-3.144-3.144-3.144-1.736 0-3.144 1.408-3.144 3.144 0 1.007.483 1.895 1.22 2.47-12.831 4.777-24.849 11.238-35.772 19.129.191-.406.306-.854.306-1.332 0-1.736-1.407-3.144-3.144-3.144-1.736 0-3.144 1.407-3.144 3.144 0 1.736 1.408 3.143 3.144 3.143.155 0 .303-.024.451-.045-2.46 1.851-4.859 3.779-7.2 5.773-.383-1.304-1.575-2.263-3.003-2.263-1.736 0-3.144 1.407-3.144 3.144 0 1.288.777 2.392 1.886 2.878-.813.747-1.621 1.501-2.418 2.266-11.472-9.258-21.38-20.378-29.268-32.892zm133.951 214.36c-39.854 0-72.278-32.423-72.278-72.277s32.424-72.278 72.278-72.278 72.278 32.423 72.278 72.278c0 39.853-32.423 72.277-72.278 72.277zm296.835-116.125c-.365-1.332-1.572-2.317-3.02-2.317-1.736 0-3.144 1.408-3.144 3.144 0 1.303.793 2.421 1.923 2.897-1.99 1.68-4.024 3.309-6.108 4.874-.576-.705-1.442-1.163-2.423-1.163-1.736 0-3.144 1.408-3.144 3.143 0 .61.181 1.175.483 1.658-10.708 7.307-22.505 13.128-35.09 17.175-.523-1.011-1.566-1.709-2.782-1.709-1.736 0-3.144 1.407-3.144 3.144 0 .107.021.209.032.314-11.435 3.113-23.459 4.784-35.867 4.784-13.549 0-26.639-1.992-39.004-5.682-.274-1.456-1.549-2.559-3.085-2.559-.842 0-1.604.336-2.168.875-3.452-1.185-6.846-2.499-10.168-3.947-.048-.373-.11-.741-.16-1.114.542.444 1.225.721 1.98.721 1.736 0 3.144-1.407 3.144-3.144 0-1.736-1.408-3.143-3.144-3.143-1.081 0-2.034.546-2.6 1.377-1.461-8.93-3.708-17.597-6.665-25.932.846-.135 1.584-.589 2.064-1.258-.927-.219-1.851-.447-2.771-.684-.452-1.221-.913-2.439-1.396-3.645h83.727c-.091.033-.182.067-.274.1-1.219.431-2.449.838-3.684 1.236-.145.362-.229.754-.229 1.168 0 1.736 1.408 3.144 3.143 3.144 1.736 0 3.144-1.407 3.144-3.144 0-.97-.449-1.827-1.139-2.403-.044-.037-.095-.065-.14-.1h16.539c-.046.035-.097.063-.141.1-.691.577-1.139 1.433-1.139 2.403 0 1.736 1.408 3.144 3.144 3.144s3.144-1.407 3.144-3.144c0-.97-.449-1.827-1.139-2.403-.044-.037-.095-.065-.141-.1h16.54c-.046.035-.097.063-.141.1-.691.577-1.139 1.433-1.139 2.403 0 1.736 1.408 3.144 3.144 3.144s3.144-1.407 3.144-3.144c0-.97-.449-1.827-1.139-2.403-.044-.037-.095-.065-.141-.1h16.54c-.046.035-.097.063-.141.1-.691.577-1.139 1.433-1.139 2.403 0 1.736 1.407 3.144 3.144 3.144 1.736 0 3.143-1.407 3.143-3.144 0-.97-.449-1.827-1.139-2.403-.044-.037-.095-.065-.141-.1h16.54c-.046.035-.097.063-.141.1-.691.577-1.139 1.433-1.139 2.403 0 1.483 1.031 2.719 2.413 3.05-2.179 2.289-4.437 4.501-6.766 6.637z"/><path d="m182.453 348.8c4.591-4.897 7.411-11.475 7.411-18.701 0-15.093-12.279-27.372-27.372-27.372s-27.372 12.279-27.372 27.372c0 7.227 2.82 13.804 7.411 18.701-8.94 6.295-14.797 16.688-14.797 28.428 0 19.165 15.592 34.757 34.757 34.757s34.757-15.592 34.757-34.757c.002-11.74-5.856-22.132-14.795-28.428zm-19.961-31.073c6.822 0 12.372 5.55 12.372 12.372s-5.55 12.372-12.372 12.372-12.372-5.55-12.372-12.372 5.551-12.372 12.372-12.372zm0 79.258c-10.894 0-19.757-8.863-19.757-19.757s8.863-19.757 19.757-19.757 19.757 8.863 19.757 19.757c.001 10.894-8.863 19.757-19.757 19.757z"/></g></svg>