<svg id="Capa_1" enable-background="new 0 0 511.885 511.885" height="512" viewBox="0 0 511.885 511.885" width="512" xmlns="http://www.w3.org/2000/svg"><g><path d="m77.863 457.584c1.713 0 3.102-1.389 3.102-3.103 0-1.713-1.389-3.102-3.102-3.102s-3.102 1.389-3.102 3.102c0 1.715 1.389 3.103 3.102 3.103z"/><path d="m54.761 434.482c0 1.714 1.389 3.103 3.102 3.103s3.102-1.389 3.102-3.103c0-1.713-1.389-3.102-3.102-3.102s-3.102 1.389-3.102 3.102z"/><path d="m68.24 447.208c1.713 0 3.102-1.39 3.102-3.103 0-1.714-1.389-3.103-3.102-3.103s-3.102 1.389-3.102 3.103c-.001 1.714 1.388 3.103 3.102 3.103z"/><path d="m57.863 451.38c-1.713 0-3.102 1.389-3.102 3.102 0 1.714 1.389 3.103 3.102 3.103s3.102-1.389 3.102-3.103c0-1.713-1.389-3.102-3.102-3.102z"/><path d="m68.24 467.208c1.713 0 3.102-1.39 3.102-3.103 0-1.714-1.389-3.103-3.102-3.103s-3.102 1.389-3.102 3.103c-.001 1.714 1.388 3.103 3.102 3.103z"/><path d="m48.239 421.003c-1.188 0-2.208.676-2.729 1.656v2.893c.521.98 1.541 1.656 2.729 1.656 1.713 0 3.102-1.39 3.102-3.103.001-1.713-1.388-3.102-3.102-3.102z"/><path d="m48.239 441.003c-1.188 0-2.208.676-2.729 1.656v2.893c.521.98 1.541 1.656 2.729 1.656 1.713 0 3.102-1.39 3.102-3.103.001-1.713-1.388-3.102-3.102-3.102z"/><path d="m48.239 461.003c-1.188 0-2.208.676-2.729 1.656v2.893c.521.98 1.541 1.656 2.729 1.656 1.713 0 3.102-1.39 3.102-3.103.001-1.713-1.388-3.102-3.102-3.102z"/><path d="m494.761 434.482c0 1.714 1.389 3.103 3.102 3.103s3.102-1.389 3.102-3.103c0-1.713-1.389-3.102-3.102-3.102s-3.102 1.389-3.102 3.102z"/><path d="m497.863 451.38c-1.713 0-3.102 1.389-3.102 3.102 0 1.714 1.389 3.103 3.102 3.103s3.102-1.389 3.102-3.103c0-1.713-1.389-3.102-3.102-3.102z"/><path d="m477.863 431.38c-1.713 0-3.102 1.389-3.102 3.102 0 1.714 1.389 3.103 3.102 3.103s3.102-1.389 3.102-3.103c0-1.713-1.389-3.102-3.102-3.102z"/><path d="m488.24 441.003c-1.713 0-3.102 1.389-3.102 3.103 0 1.713 1.389 3.103 3.102 3.103s3.102-1.39 3.102-3.103c0-1.714-1.389-3.103-3.102-3.103z"/><path d="m477.863 451.38c-1.713 0-3.102 1.389-3.102 3.102 0 1.714 1.389 3.103 3.102 3.103s3.102-1.389 3.102-3.103c0-1.713-1.389-3.102-3.102-3.102z"/><path d="m488.24 461.003c-1.713 0-3.102 1.389-3.102 3.103 0 1.713 1.389 3.103 3.102 3.103s3.102-1.39 3.102-3.103c0-1.714-1.389-3.103-3.102-3.103z"/><path d="m468.24 421.003c-.601 0-1.157.179-1.632.475v5.256c.475.296 1.031.475 1.632.475 1.713 0 3.102-1.39 3.102-3.103 0-1.714-1.389-3.103-3.102-3.103z"/><path d="m468.24 441.003c-.601 0-1.157.179-1.632.475v5.256c.475.296 1.031.475 1.632.475 1.713 0 3.102-1.39 3.102-3.103 0-1.714-1.389-3.103-3.102-3.103z"/><path d="m468.24 461.003c-.601 0-1.157.179-1.632.475v5.256c.475.296 1.031.475 1.632.475 1.713 0 3.102-1.39 3.102-3.103 0-1.714-1.389-3.103-3.102-3.103z"/><path d="m487.092 412.756v-361.88c0-11.433-9.3-20.733-20.732-20.733s-20.733 9.301-20.733 20.733v60.703h-379.369v-60.703c0-11.433-9.301-20.733-20.733-20.733s-20.732 9.301-20.732 20.733v361.88c-14.286 4.017-24.793 17.152-24.793 32.703v32.345c0 2.174 1.763 3.938 3.938 3.938h83.175c2.175 0 3.938-1.764 3.938-3.938v-32.345c0-15.552-10.507-28.687-24.792-32.703v-172.543h379.369v172.543c-14.285 4.017-24.792 17.151-24.792 32.703v32.345c0 2.174 1.763 3.938 3.938 3.938h83.176c2.175 0 3.938-1.764 3.938-3.938v-32.345c-.003-15.551-10.511-28.686-24.796-32.703zm-454.424-361.88c0-7.09 5.768-12.858 12.857-12.858 7.09 0 12.858 5.769 12.858 12.858v360.642c-.434-.017-.868-.033-1.306-.033h-23.103c-.438 0-.872.017-1.306.033zm34.267 370.424c-1.059.493-1.797 1.56-1.797 2.806 0 1.713 1.389 3.103 3.102 3.103s3.102-1.39 3.102-3.103c0-.178-.024-.349-.052-.519 3.213 2.096 5.939 4.876 7.965 8.137-.42-.213-.889-.344-1.392-.344-1.713 0-3.102 1.389-3.102 3.102 0 1.714 1.389 3.103 3.102 3.103 1.577 0 2.866-1.182 3.062-2.706 1.442 3.236 2.25 6.815 2.25 10.581v28.407h-2.272c-.286-1.418-1.538-2.486-3.04-2.486-1.503 0-2.755 1.068-3.04 2.486h-13.92c-.286-1.418-1.538-2.486-3.04-2.486-1.503 0-2.755 1.068-3.04 2.486h-46.948v-28.407c0-14.392 11.708-26.099 26.099-26.099h23.102c3.487 0 6.815.692 9.859 1.939zm262.447-188.962h-146.879v-112.884h146.879zm124.119-181.462c0-7.09 5.768-12.858 12.858-12.858 7.089 0 12.857 5.769 12.857 12.858v360.642c-.434-.017-.868-.033-1.306-.033h-23.102c-.438 0-.872.017-1.307.033zm50.509 422.991h-3.106c-.286-1.418-1.538-2.486-3.04-2.486-1.503 0-2.755 1.068-3.04 2.486h-13.919c-.286-1.418-1.538-2.486-3.04-2.486-1.503 0-2.755 1.068-3.04 2.486h-46.114v-28.407c0-14.392 11.708-26.099 26.099-26.099h23.102c3.336 0 6.524.636 9.459 1.781-1.287.378-2.232 1.555-2.232 2.964 0 1.713 1.389 3.103 3.102 3.103s3.102-1.39 3.102-3.103c0-.404-.083-.789-.224-1.143 7.706 4.541 12.891 12.922 12.891 22.496z"/></g></svg>