<svg id="Capa_1" enable-background="new 0 0 511.392 511.392" height="512" viewBox="0 0 511.392 511.392" width="512" xmlns="http://www.w3.org/2000/svg"><g><path d="m474.96 47.234c1.713 0 3.102-1.389 3.102-3.103 0-1.713-1.389-3.102-3.102-3.102s-3.102 1.389-3.102 3.102c0 1.715 1.389 3.103 3.102 3.103z"/><path d="m474.96 67.234c1.713 0 3.102-1.389 3.102-3.103 0-1.713-1.389-3.101-3.102-3.101s-3.102 1.389-3.102 3.101c0 1.715 1.389 3.103 3.102 3.103z"/><path d="m474.96 87.234c1.713 0 3.102-1.389 3.102-3.103 0-1.713-1.389-3.102-3.102-3.102s-3.102 1.389-3.102 3.102c0 1.715 1.389 3.103 3.102 3.103z"/><path d="m465.337 36.858c1.713 0 3.102-1.39 3.102-3.102 0-1.714-1.389-3.103-3.102-3.103s-3.102 1.389-3.102 3.103c0 1.713 1.389 3.102 3.102 3.102z"/><path d="m458.063 44.132c0-1.196-.685-2.224-1.678-2.74-.141 1.851-.317 3.751-.522 5.694 1.27-.389 2.2-1.557 2.2-2.954z"/><path d="m465.337 56.858c1.713 0 3.102-1.39 3.102-3.102 0-1.714-1.389-3.103-3.102-3.103s-3.102 1.389-3.102 3.103c0 1.713 1.389 3.102 3.102 3.102z"/><path d="m458.063 64.132c0-1.713-1.389-3.101-3.102-3.101-.365 0-.71.074-1.036.19-.289 1.737-.6 3.501-.932 5.291.537.444 1.217.723 1.968.723 1.713-.001 3.102-1.389 3.102-3.103z"/><path d="m465.337 76.858c1.713 0 3.102-1.39 3.102-3.103 0-1.714-1.389-3.103-3.102-3.103s-3.102 1.389-3.102 3.103 1.389 3.103 3.102 3.103z"/><path d="m454.96 87.234c1.713 0 3.102-1.389 3.102-3.103 0-1.713-1.389-3.102-3.102-3.102s-3.102 1.389-3.102 3.102c0 1.715 1.389 3.103 3.102 3.103z"/><path d="m465.337 96.858c1.713 0 3.102-1.39 3.102-3.103 0-1.714-1.389-3.103-3.102-3.103s-3.102 1.389-3.102 3.103 1.389 3.103 3.102 3.103z"/><path d="m454.96 107.234c1.713 0 3.102-1.389 3.102-3.103 0-1.713-1.389-3.102-3.102-3.102s-3.102 1.389-3.102 3.102c0 1.715 1.389 3.103 3.102 3.103z"/><path d="m465.337 116.858c1.713 0 3.102-1.39 3.102-3.103 0-1.714-1.389-3.103-3.102-3.103s-3.102 1.389-3.102 3.103 1.389 3.103 3.102 3.103z"/><path d="m454.96 127.234c1.713 0 3.102-1.389 3.102-3.103 0-1.713-1.389-3.102-3.102-3.102s-3.102 1.389-3.102 3.102c0 1.715 1.389 3.103 3.102 3.103z"/><path d="m454.96 147.234c1.713 0 3.102-1.389 3.102-3.103 0-1.713-1.389-3.102-3.102-3.102s-3.102 1.389-3.102 3.102c0 1.715 1.389 3.103 3.102 3.103z"/><path d="m448.439 93.756c0-.945-.432-1.781-1.099-2.351-.474 1.784-.961 3.582-1.472 5.399 1.459-.253 2.571-1.517 2.571-3.048z"/><path d="m445.337 116.858c1.713 0 3.102-1.39 3.102-3.103 0-1.714-1.389-3.103-3.102-3.103s-3.102 1.389-3.102 3.103 1.389 3.103 3.102 3.103z"/><path d="m438.063 124.132c0-.524-.143-1.012-.373-1.445-.5 1.43-1.01 2.864-1.53 4.307 1.117-.47 1.903-1.574 1.903-2.862z"/><path d="m445.337 136.858c1.713 0 3.102-1.39 3.102-3.102 0-1.714-1.389-3.103-3.102-3.103s-3.102 1.389-3.102 3.103c0 1.713 1.389 3.102 3.102 3.102z"/><path d="m434.96 147.234c1.713 0 3.102-1.389 3.102-3.103 0-1.713-1.389-3.102-3.102-3.102s-3.102 1.389-3.102 3.102c0 1.715 1.389 3.103 3.102 3.103z"/><path d="m445.337 156.858c1.713 0 3.102-1.39 3.102-3.102 0-1.714-1.389-3.103-3.102-3.103s-3.102 1.389-3.102 3.103c0 1.713 1.389 3.102 3.102 3.102z"/><path d="m434.96 167.234c1.713 0 3.102-1.389 3.102-3.103 0-1.713-1.389-3.102-3.102-3.102s-3.102 1.389-3.102 3.102c0 1.715 1.389 3.103 3.102 3.103z"/><path d="m445.337 176.858c1.713 0 3.102-1.39 3.102-3.102 0-1.714-1.389-3.103-3.102-3.103s-3.102 1.389-3.102 3.103c0 1.713 1.389 3.102 3.102 3.102z"/><path d="m434.96 187.234c1.713 0 3.102-1.389 3.102-3.103 0-1.713-1.389-3.102-3.102-3.102s-3.102 1.389-3.102 3.102c0 1.715 1.389 3.103 3.102 3.103z"/><path d="m434.96 207.234c1.713 0 3.102-1.389 3.102-3.103 0-1.713-1.389-3.102-3.102-3.102s-3.102 1.389-3.102 3.102c0 1.715 1.389 3.103 3.102 3.103z"/><path d="m428.439 153.756c0-1.199-.688-2.228-1.683-2.744-.793 1.88-1.606 3.769-2.432 5.663.319.11.656.184 1.013.184 1.713-.001 3.102-1.39 3.102-3.103z"/><path d="m425.337 176.858c1.713 0 3.102-1.39 3.102-3.102 0-1.714-1.389-3.103-3.102-3.103s-3.102 1.389-3.102 3.103c0 1.713 1.389 3.102 3.102 3.102z"/><path d="m414.96 187.234c1.713 0 3.102-1.389 3.102-3.103 0-1.713-1.389-3.102-3.102-3.102s-3.102 1.389-3.102 3.102c0 1.715 1.389 3.103 3.102 3.103z"/><path d="m425.337 196.858c1.713 0 3.102-1.39 3.102-3.102 0-1.714-1.389-3.103-3.102-3.103s-3.102 1.389-3.102 3.103c0 1.713 1.389 3.102 3.102 3.102z"/><path d="m414.96 207.234c1.713 0 3.102-1.389 3.102-3.103 0-1.713-1.389-3.102-3.102-3.102s-3.102 1.389-3.102 3.102c0 1.715 1.389 3.103 3.102 3.103z"/><path d="m425.337 216.858c1.713 0 3.102-1.39 3.102-3.102 0-1.714-1.389-3.103-3.102-3.103s-3.102 1.389-3.102 3.103c0 1.713 1.389 3.102 3.102 3.102z"/><path d="m414.96 227.234c1.713 0 3.102-1.389 3.102-3.103 0-1.713-1.389-3.102-3.102-3.102s-3.102 1.389-3.102 3.102c0 1.715 1.389 3.103 3.102 3.103z"/><path d="m408.439 193.756c0-.857-.347-1.631-.908-2.192-.919 1.742-1.852 3.486-2.799 5.233.196.039.397.061.604.061 1.714 0 3.103-1.389 3.103-3.102z"/><path d="m405.337 216.858c1.713 0 3.102-1.39 3.102-3.102 0-1.714-1.389-3.103-3.102-3.103s-3.102 1.389-3.102 3.103c0 1.713 1.389 3.102 3.102 3.102z"/><path d="m394.96 227.234c1.713 0 3.102-1.389 3.102-3.103 0-1.713-1.389-3.102-3.102-3.102s-3.102 1.389-3.102 3.102c0 1.715 1.389 3.103 3.102 3.103z"/><path d="m405.337 236.858c1.713 0 3.102-1.39 3.102-3.102 0-1.714-1.389-3.103-3.102-3.103s-3.102 1.389-3.102 3.103c0 1.713 1.389 3.102 3.102 3.102z"/><path d="m394.96 247.234c1.713 0 3.102-1.389 3.102-3.103 0-1.713-1.389-3.102-3.102-3.102s-3.102 1.389-3.102 3.102c0 1.715 1.389 3.103 3.102 3.103z"/><path d="m405.337 256.858c1.713 0 3.102-1.39 3.102-3.102 0-1.714-1.389-3.103-3.102-3.103s-3.102 1.389-3.102 3.103c0 1.713 1.389 3.102 3.102 3.102z"/><path d="m394.96 267.234c1.713 0 3.102-1.389 3.102-3.103 0-1.713-1.389-3.102-3.102-3.102s-3.102 1.389-3.102 3.102c0 1.715 1.389 3.103 3.102 3.103z"/><path d="m385.337 236.858c1.713 0 3.102-1.39 3.102-3.102 0-1.714-1.389-3.103-3.102-3.103-.225 0-.443.026-.655.072-.787 1.227-1.576 2.454-2.377 3.681.299 1.401 1.542 2.452 3.032 2.452z"/><path d="m378.063 244.132c0-.815-.322-1.553-.837-2.106-1.127 1.662-2.268 3.322-3.421 4.981.358.144.746.228 1.156.228 1.713-.001 3.102-1.389 3.102-3.103z"/><path d="m385.337 256.858c1.713 0 3.102-1.39 3.102-3.102 0-1.714-1.389-3.103-3.102-3.103s-3.102 1.389-3.102 3.103c0 1.713 1.389 3.102 3.102 3.102z"/><path d="m374.96 267.234c1.713 0 3.102-1.389 3.102-3.103 0-1.713-1.389-3.102-3.102-3.102s-3.102 1.389-3.102 3.102c0 1.715 1.389 3.103 3.102 3.103z"/><path d="m385.337 276.858c1.713 0 3.102-1.39 3.102-3.103 0-1.714-1.389-3.103-3.102-3.103s-3.102 1.389-3.102 3.103 1.389 3.103 3.102 3.103z"/><path d="m374.96 287.234c1.713 0 3.102-1.389 3.102-3.103 0-1.713-1.389-3.102-3.102-3.102s-3.102 1.389-3.102 3.102c0 1.715 1.389 3.103 3.102 3.103z"/><path d="m367.331 256.114c.383-.324.691-.73.881-1.203-.291.403-.589.802-.881 1.203z"/><path d="m365.337 276.858c1.713 0 3.102-1.39 3.102-3.103 0-1.714-1.389-3.103-3.102-3.103s-3.102 1.389-3.102 3.103 1.389 3.103 3.102 3.103z"/><path d="m354.96 287.234c1.713 0 3.102-1.389 3.102-3.103 0-1.713-1.389-3.102-3.102-3.102s-3.102 1.389-3.102 3.102c0 1.715 1.389 3.103 3.102 3.103z"/><path d="m365.337 296.858c1.713 0 3.102-1.39 3.102-3.103 0-1.714-1.389-3.103-3.102-3.103s-3.102 1.389-3.102 3.103 1.389 3.103 3.102 3.103z"/><path d="m354.96 307.234c1.713 0 3.102-1.389 3.102-3.103 0-1.713-1.389-3.102-3.102-3.102s-3.102 1.389-3.102 3.102c0 1.715 1.389 3.103 3.102 3.103z"/><path d="m345.337 290.653c-1.713 0-3.102 1.389-3.102 3.103 0 1.713 1.389 3.103 3.102 3.103s3.102-1.39 3.102-3.103c0-1.714-1.389-3.103-3.102-3.103z"/><path d="m345.337 310.653c-1.713 0-3.102 1.389-3.102 3.103 0 1.713 1.389 3.103 3.102 3.103s3.102-1.39 3.102-3.103c0-1.714-1.389-3.103-3.102-3.103z"/><path d="m334.96 321.03c-1.713 0-3.102 1.389-3.102 3.102 0 1.714 1.389 3.103 3.102 3.103s3.102-1.389 3.102-3.103c.001-1.713-1.388-3.102-3.102-3.102z"/><path d="m345.337 330.653c-1.713 0-3.102 1.389-3.102 3.103 0 1.713 1.389 3.103 3.102 3.103s3.102-1.39 3.102-3.103c0-1.714-1.389-3.103-3.102-3.103z"/><path d="m314.96 341.03c-1.713 0-3.102 1.389-3.102 3.102 0 1.714 1.389 3.103 3.102 3.103s3.102-1.389 3.102-3.103c.001-1.713-1.388-3.102-3.102-3.102z"/><path d="m294.96 341.03c-1.713 0-3.102 1.389-3.102 3.102 0 1.714 1.389 3.103 3.102 3.103s3.102-1.389 3.102-3.103c.001-1.713-1.388-3.102-3.102-3.102z"/><path d="m305.337 350.653c-1.713 0-3.102 1.389-3.102 3.103 0 1.713 1.389 3.103 3.102 3.103s3.102-1.39 3.102-3.103c0-1.714-1.389-3.103-3.102-3.103z"/><path d="m294.96 361.03c-1.713 0-3.102 1.389-3.102 3.102 0 1.714 1.389 3.103 3.102 3.103s3.102-1.389 3.102-3.103c.001-1.713-1.388-3.102-3.102-3.102z"/><path d="m285.337 350.653c-1.713 0-3.102 1.389-3.102 3.103 0 1.713 1.389 3.103 3.102 3.103s3.102-1.39 3.102-3.103c0-1.714-1.389-3.103-3.102-3.103z"/><path d="m274.96 361.03c-1.713 0-3.102 1.389-3.102 3.102 0 1.714 1.389 3.103 3.102 3.103s3.102-1.389 3.102-3.103c.001-1.713-1.388-3.102-3.102-3.102z"/><path d="m285.337 370.653c-1.713 0-3.102 1.389-3.102 3.103 0 1.713 1.389 3.103 3.102 3.103s3.102-1.39 3.102-3.103c0-1.714-1.389-3.103-3.102-3.103z"/><path d="m274.96 381.03c-1.713 0-3.102 1.389-3.102 3.102 0 1.714 1.389 3.103 3.102 3.103s3.102-1.389 3.102-3.103c.001-1.713-1.388-3.102-3.102-3.102z"/><path d="m265.337 370.653c-1.713 0-3.102 1.389-3.102 3.103 0 1.713 1.389 3.103 3.102 3.103s3.102-1.39 3.102-3.103c0-1.714-1.389-3.103-3.102-3.103z"/><path d="m254.96 381.03c-1.713 0-3.102 1.389-3.102 3.102 0 1.714 1.389 3.103 3.102 3.103s3.102-1.389 3.102-3.103c.001-1.713-1.388-3.102-3.102-3.102z"/><path d="m265.337 390.653c-1.713 0-3.102 1.389-3.102 3.103 0 1.713 1.389 3.103 3.102 3.103s3.102-1.39 3.102-3.103c0-1.714-1.389-3.103-3.102-3.103z"/><path d="m254.96 401.03c-1.713 0-3.102 1.389-3.102 3.102 0 1.714 1.389 3.103 3.102 3.103s3.102-1.389 3.102-3.103c.001-1.713-1.388-3.102-3.102-3.102z"/><path d="m248.426 373.891c-1.313.954-2.628 1.897-3.942 2.834.273.078.555.134.853.134 1.667-.001 3.016-1.319 3.089-2.968z"/><path d="m232.094 385.315c.465 1.126 1.572 1.919 2.866 1.919 1.713 0 3.102-1.389 3.102-3.103 0-.879-.37-1.669-.958-2.234-1.669 1.153-3.339 2.292-5.01 3.418z"/><path d="m245.337 390.653c-1.713 0-3.102 1.389-3.102 3.103 0 1.713 1.389 3.103 3.102 3.103s3.102-1.39 3.102-3.103c0-1.714-1.389-3.103-3.102-3.103z"/><path d="m234.96 401.03c-1.713 0-3.102 1.389-3.102 3.102 0 1.714 1.389 3.103 3.102 3.103s3.102-1.389 3.102-3.103c.001-1.713-1.388-3.102-3.102-3.102z"/><path d="m245.337 410.653c-1.713 0-3.102 1.389-3.102 3.103 0 1.713 1.389 3.103 3.102 3.103s3.102-1.39 3.102-3.103c0-1.714-1.389-3.103-3.102-3.103z"/><path d="m225.337 390.653c-1.713 0-3.102 1.389-3.102 3.103 0 1.713 1.389 3.103 3.102 3.103s3.102-1.39 3.102-3.103c0-1.714-1.389-3.103-3.102-3.103z"/><path d="m214.96 401.03c-1.713 0-3.102 1.389-3.102 3.102 0 1.714 1.389 3.103 3.102 3.103s3.102-1.389 3.102-3.103c.001-1.713-1.388-3.102-3.102-3.102z"/><path d="m225.337 410.653c-1.713 0-3.102 1.389-3.102 3.103 0 1.713 1.389 3.103 3.102 3.103s3.102-1.39 3.102-3.103c0-1.714-1.389-3.103-3.102-3.103z"/><path d="m214.96 421.03c-1.713 0-3.102 1.389-3.102 3.102 0 1.714 1.389 3.103 3.102 3.103s3.102-1.389 3.102-3.103c.001-1.713-1.388-3.102-3.102-3.102z"/><path d="m205.337 410.653c-1.713 0-3.102 1.389-3.102 3.103 0 1.713 1.389 3.103 3.102 3.103s3.102-1.39 3.102-3.103c0-1.714-1.389-3.103-3.102-3.103z"/><path d="m194.96 421.03c-1.713 0-3.102 1.389-3.102 3.102 0 1.714 1.389 3.103 3.102 3.103s3.102-1.389 3.102-3.103c.001-1.713-1.388-3.102-3.102-3.102z"/><path d="m205.337 430.653c-1.713 0-3.102 1.389-3.102 3.103 0 1.713 1.389 3.103 3.102 3.103s3.102-1.39 3.102-3.103c0-1.714-1.389-3.103-3.102-3.103z"/><path d="m182.568 415.129c.508 1.021 1.551 1.729 2.768 1.729 1.713 0 3.102-1.39 3.102-3.103 0-.573-.166-1.104-.437-1.563-1.814.994-3.625 1.974-5.433 2.937z"/><path d="m174.96 447.234c1.713 0 3.102-1.389 3.102-3.103 0-1.713-1.389-3.102-3.102-3.102s-3.102 1.389-3.102 3.102c0 1.715 1.389 3.103 3.102 3.103z"/><path d="m165.337 436.858c1.713 0 3.102-1.39 3.102-3.103 0-1.714-1.389-3.103-3.102-3.103s-3.102 1.389-3.102 3.103 1.389 3.103 3.102 3.103z"/><path d="m154.96 447.234c1.713 0 3.102-1.389 3.102-3.103 0-1.713-1.389-3.102-3.102-3.102s-3.102 1.389-3.102 3.102c0 1.715 1.389 3.103 3.102 3.103z"/><path d="m165.337 456.858c1.713 0 3.102-1.39 3.102-3.103 0-1.714-1.389-3.103-3.102-3.103s-3.102 1.389-3.102 3.103 1.389 3.103 3.102 3.103z"/><path d="m145.337 436.858c1.713 0 3.102-1.39 3.102-3.103 0-.649-.201-1.251-.542-1.749-1.871.824-3.732 1.63-5.586 2.419.307 1.391 1.543 2.433 3.026 2.433z"/><path d="m134.96 447.234c1.713 0 3.102-1.389 3.102-3.103 0-1.713-1.389-3.102-3.102-3.102s-3.102 1.389-3.102 3.102c0 1.715 1.389 3.103 3.102 3.103z"/><path d="m145.337 456.858c1.713 0 3.102-1.39 3.102-3.103 0-1.714-1.389-3.103-3.102-3.103s-3.102 1.389-3.102 3.103 1.389 3.103 3.102 3.103z"/><path d="m114.96 461.03c-1.713 0-3.102 1.389-3.102 3.102 0 1.714 1.389 3.103 3.102 3.103s3.102-1.389 3.102-3.103c.001-1.713-1.388-3.102-3.102-3.102z"/><path d="m105.337 450.653c-1.713 0-3.102 1.389-3.102 3.103 0 1.713 1.389 3.103 3.102 3.103s3.102-1.39 3.102-3.103c0-1.714-1.389-3.103-3.102-3.103z"/><path d="m94.96 461.03c-1.713 0-3.102 1.389-3.102 3.102 0 1.714 1.389 3.103 3.102 3.103s3.102-1.389 3.102-3.103c.001-1.713-1.388-3.102-3.102-3.102z"/><path d="m105.337 470.653c-1.713 0-3.102 1.389-3.102 3.103 0 1.713 1.389 3.103 3.102 3.103s3.102-1.39 3.102-3.103c0-1.714-1.389-3.103-3.102-3.103z"/><path d="m82.421 454.778c.424 1.208 1.563 2.08 2.916 2.08 1.713 0 3.102-1.39 3.102-3.103 0-.172-.024-.337-.051-.5-2.014.537-4 1.041-5.967 1.523z"/><path d="m74.96 461.03c-1.713 0-3.102 1.389-3.102 3.102 0 1.714 1.389 3.103 3.102 3.103s3.102-1.389 3.102-3.103c.001-1.713-1.388-3.102-3.102-3.102z"/><path d="m85.337 470.653c-1.713 0-3.102 1.389-3.102 3.103 0 1.713 1.389 3.103 3.102 3.103s3.102-1.39 3.102-3.103c0-1.714-1.389-3.103-3.102-3.103z"/><path d="m54.96 461.03c-1.713 0-3.102 1.389-3.102 3.102 0 1.714 1.389 3.103 3.102 3.103s3.102-1.389 3.102-3.103c.001-1.713-1.388-3.102-3.102-3.102z"/><path d="m65.337 470.653c-1.713 0-3.102 1.389-3.102 3.103 0 1.713 1.389 3.103 3.102 3.103s3.102-1.39 3.102-3.103c0-1.714-1.389-3.103-3.102-3.103z"/><path d="m36.301 461.346c-.899.006-1.788.004-2.661-.011-1.05.497-1.782 1.559-1.782 2.797 0 1.714 1.389 3.103 3.102 3.103s3.102-1.389 3.102-3.103c.001-1.231-.722-2.285-1.761-2.786z"/><path d="m45.337 470.653c-1.713 0-3.102 1.389-3.102 3.103 0 1.713 1.389 3.103 3.102 3.103s3.102-1.39 3.102-3.103c0-1.714-1.389-3.103-3.102-3.103z"/><path d="m504.773 430.413-55.563-55.562c-.885-.885-2.139-1.298-3.374-1.112l-57.243 8.566c-.197.029-.389.075-.575.133l-37.845-37.845c71.638-72.789 106.221-152.895 120.527-194.479 20.332-59.1 24.467-110.442 10.055-124.854-14.367-14.365-63.498-9.228-122.261 12.785-40.405 15.136-118.596 51.155-191.686 123.184l-39.836-39.837 10.666-55.665c.246-1.285-.16-2.608-1.085-3.532l-55.564-55.564c-4.275-4.276-9.959-6.631-16.005-6.631s-11.731 2.355-16.006 6.631l-42.348 42.348c-4.275 4.274-6.63 9.959-6.63 16.005 0 6.045 2.354 11.73 6.63 16.004l55.563 55.564c.746.745 1.752 1.155 2.79 1.155.194 0 .389-.014.584-.043l57.242-8.567c.197-.03.389-.076.575-.133l37.855 37.855c-73.284 74.313-109.028 151.384-123.868 191.001-22.356 59.682-26.053 108.993-9.418 125.628 6.924 6.925 19.506 10.326 36.145 10.326 23.335 0 54.645-6.693 89.483-19.743 39.617-14.84 116.688-50.583 191.001-123.869l39.848 39.848-10.666 55.666c-.246 1.285.16 2.608 1.085 3.533l55.564 55.563c4.412 4.413 10.209 6.619 16.005 6.619 5.797 0 11.593-2.206 16.006-6.619l42.348-42.348c8.826-8.824 8.826-23.186.001-32.011zm-385.896-308.707-52.51 7.859-54.157-54.156c-2.785-2.785-4.318-6.487-4.318-10.425 0-3.939 1.534-7.642 4.319-10.427l42.347-42.347c2.784-2.785 6.487-4.318 10.426-4.318 3.938 0 7.641 1.533 10.425 4.318l54.085 54.085zm9.507 352.594c.031-.178.055-.357.055-.544 0-1.714-1.389-3.103-3.102-3.103s-3.102 1.389-3.102 3.103c0 .828.33 1.576.859 2.133-9.19 2.681-17.779 4.777-25.709 6.328-.568-.717-1.437-1.186-2.423-1.186-1.385 0-2.545.914-2.943 2.167-4.993.856-9.704 1.49-14.13 1.92.105-.311.175-.639.175-.985 0-1.713-1.389-3.102-3.102-3.102s-3.102 1.389-3.102 3.102c0 .521.141 1.005.367 1.436-5.336.325-10.197.333-14.559.053.245-.443.396-.946.396-1.488 0-1.713-1.389-3.102-3.102-3.102s-3.102 1.389-3.102 3.102c0 .328.065.638.159.935-8.779-1.193-15.016-3.73-18.483-7.198-10.938-10.938-12.67-49.344 8.119-108.676l75.179 75.18c-1.474.523-2.947 1.045-4.405 1.544.562.796 1.484 1.318 2.532 1.318 1.28 0 2.378-.776 2.852-1.883l5.817 5.816c-.84.556-1.395 1.506-1.395 2.588 0 1.713 1.389 3.103 3.102 3.103 1.082 0 2.032-.556 2.587-1.396l5.817 5.817c-1.107.474-1.883 1.571-1.883 2.852 0 1.714 1.389 3.103 3.102 3.103 1.28 0 2.378-.776 2.852-1.883l4.398 4.397c-4.749 1.662-9.348 3.166-13.826 4.549zm58.724-23.087c-.503-.351-1.111-.56-1.771-.56-1.618 0-2.931 1.243-3.074 2.824-8.911 4.104-17.046 7.54-24.228 10.38-.141-1.582-1.455-2.827-3.074-2.827-1.713 0-3.102 1.389-3.102 3.102 0 .706.245 1.351.643 1.872-.568.215-1.134.43-1.687.637-.136.052-.268.098-.404.148l-105.798-105.797c.051-.136.097-.268.148-.404 4.107-10.965 9.847-24.852 17.569-40.766l129.25 129.25c-1.511.734-2.998 1.444-4.472 2.141zm141.088-96.251c.157-.371.243-.778.243-1.206 0-1.714-1.389-3.103-3.102-3.103s-3.102 1.389-3.102 3.103c0 1.713 1.389 3.103 3.102 3.103.36 0 .701-.073 1.022-.186-2.769 2.565-5.537 5.076-8.305 7.54.001-.027.008-.053.008-.08 0-1.713-1.389-3.102-3.102-3.102s-3.102 1.389-3.102 3.102c0 1.613 1.236 2.924 2.81 3.073-2.14 1.874-4.278 3.716-6.414 5.53-.423-1.209-1.563-2.082-2.917-2.082-1.713 0-3.102 1.389-3.102 3.103 0 1.164.649 2.166 1.597 2.697-2.231 1.855-4.459 3.69-6.682 5.482-.561-.559-1.335-.905-2.189-.905-1.713 0-3.102 1.389-3.102 3.102 0 .604.18 1.163.478 1.64-2.131 1.68-4.255 3.322-6.375 4.945-.202-.042-.411-.064-.625-.064-1.636 0-2.962 1.271-3.08 2.877-15.213 11.445-30.084 21.427-44.245 30.1-.241-1.473-1.51-2.6-3.051-2.6-1.713 0-3.102 1.389-3.102 3.102 0 1.013.492 1.903 1.243 2.47-2.368 1.416-4.718 2.802-7.041 4.146-.233-.057-.473-.094-.723-.094-1.398 0-2.567.932-2.954 2.203-8.11 4.607-15.917 8.77-23.34 12.518l-1.004-1.004c.006-.08.024-.156.024-.238 0-1.713-1.389-3.102-3.102-3.102-.082 0-.158.017-.238.024l-6.424-6.424c.083-.279.141-.569.141-.875 0-1.714-1.389-3.103-3.102-3.103-.306 0-.596.058-.875.141l-6.424-6.424c.006-.08.024-.156.024-.238 0-1.713-1.389-3.102-3.102-3.102-.081 0-.158.017-.238.024l-108.696-108.696c20.061-39.73 51.959-90.449 100.784-139.967l23.428 23.428c-22.321 23.28-37.343 50.996-42.433 78.436-5.398 29.104.965 54.468 17.918 71.421 13.018 13.019 30.991 19.791 51.813 19.791 6.294 0 12.853-.619 19.608-1.873 22.447-4.164 45.077-14.977 65.315-30.992-.144.357-.227.745-.227 1.153 0 1.713 1.389 3.103 3.102 3.103s3.102-1.39 3.102-3.103c0-1.714-1.389-3.103-3.102-3.103-.178 0-.35.023-.52.053 2.4-1.966 4.763-4.007 7.088-6.118.222 1.496 1.499 2.647 3.056 2.647 1.713 0 3.102-1.389 3.102-3.103 0-.186-.023-.367-.055-.545l7.091 7.091c-1.6.123-2.864 1.446-2.864 3.078 0 1.713 1.389 3.103 3.102 3.103 1.632 0 2.954-1.265 3.078-2.864l7.091 7.091c-.178-.031-.359-.055-.546-.055-1.713 0-3.102 1.389-3.102 3.102 0 1.714 1.389 3.103 3.102 3.103s3.102-1.389 3.102-3.103c0-.186-.023-.367-.055-.545l1.003 1.003c-3.598 3.549-7.205 6.998-10.813 10.371zm-12.692-45.038-12.096-12.096c16.781-17.658 28.429-38.266 32.927-58.413 4.884-21.874.827-40.669-11.426-52.922s-31.045-16.31-52.923-11.427c-20.146 4.499-40.754 16.146-58.413 32.928l-12.096-12.096c22.137-21.188 48.363-35.426 74.236-40.226 6.257-1.16 12.308-1.733 18.106-1.733 18.698 0 34.724 5.968 46.199 17.442 30.826 30.825 19.692 92.336-24.514 138.543zm-107.51-96.35c-16.782 17.658-28.429 38.267-32.928 58.413-4.885 21.874-.826 40.67 11.426 52.923 8.868 8.868 21.16 13.442 35.569 13.442 5.5-.001 11.311-.667 17.353-2.017 20.147-4.498 40.755-16.146 58.413-32.928l12.096 12.096c-46.207 44.207-107.72 55.339-138.542 24.517-15.034-15.034-20.613-37.871-15.709-64.306 4.8-25.873 19.038-52.099 40.226-74.236zm113.169 102.008c.382-.398.757-.802 1.135-1.203.289 1.414 1.54 2.479 3.039 2.479 1.713 0 3.102-1.39 3.102-3.103 0-1.595-1.207-2.893-2.755-3.067 2.193-2.458 4.304-4.96 6.336-7.499-.096.299-.162.611-.162.942 0 1.714 1.389 3.103 3.102 3.103s3.102-1.389 3.102-3.103c0-1.713-1.389-3.102-3.102-3.102-.583 0-1.123.171-1.589.451 15.592-19.987 26.127-42.249 30.224-64.335 5.399-29.104-.965-54.468-17.918-71.421-16.953-16.955-42.316-23.321-71.421-17.918-27.439 5.09-55.154 20.111-78.435 42.433l-23.419-23.419c72.033-70.97 149.056-106.477 188.861-121.386 38.256-14.331 69.591-20.327 90.019-20.327 1.933 0 3.757.06 5.492.165.017.441.038.875.05 1.326.429-.324.758-.763.974-1.262 8.485.63 14.422 2.545 17.378 5.502 7.456 7.455 8.661 33.793.983 70.431-.369-.154-.773-.24-1.198-.24-1.713 0-3.102 1.389-3.102 3.102 0 1.675 1.33 3.03 2.99 3.091-1.828 7.986-4.059 16.409-6.722 25.197-.5-1.042-1.556-1.767-2.789-1.767-1.713 0-3.102 1.389-3.102 3.103 0 1.713 1.389 3.102 3.102 3.102.572 0 1.101-.166 1.561-.436-1.147 3.651-2.366 7.36-3.661 11.124-1.58 4.593-3.426 9.686-5.532 15.169-.516-.997-1.545-1.686-2.745-1.686-1.713 0-3.102 1.389-3.102 3.102 0 1.714 1.389 3.103 3.102 3.103.375 0 .729-.077 1.061-.198-2.881 7.292-6.212 15.219-10.062 23.68-.201-.041-.409-.062-.622-.062-1.713 0-3.102 1.389-3.102 3.103 0 .991.474 1.863 1.197 2.432-5.077 10.824-10.969 22.412-17.759 34.5-.112-.013-.221-.034-.335-.034-1.713 0-3.102 1.389-3.102 3.103 0 .699.24 1.337.63 1.855-1.568 2.724-3.171 5.464-4.832 8.23-.148-1.574-1.459-2.811-3.073-2.811-1.713 0-3.102 1.389-3.102 3.102 0 1.714 1.389 3.103 3.102 3.103.407 0 .793-.083 1.148-.226-6.915 11.342-14.614 22.998-23.164 34.782-.374.322-.674.725-.861 1.19-1.901 2.605-3.835 5.214-5.82 7.828-.294-.093-.602-.156-.927-.156-1.713 0-3.102 1.389-3.102 3.103 0 .607.181 1.17.483 1.648-1.756 2.258-3.544 4.517-5.364 6.777-.569-.697-1.424-1.151-2.394-1.151-1.713 0-3.102 1.389-3.102 3.102 0 1.196.685 2.223 1.676 2.74-1.701 2.061-3.425 4.123-5.182 6.183-.319-1.375-1.544-2.401-3.016-2.401-1.713 0-3.102 1.389-3.102 3.103 0 1.629 1.26 2.951 2.857 3.078-2.331 2.679-4.697 5.354-7.123 8.023.056-.233.094-.475.094-.726 0-1.713-1.389-3.102-3.102-3.102s-3.102 1.389-3.102 3.102c0 1.714 1.389 3.103 3.102 3.103.346 0 .672-.069.983-.174-3.68 4-7.45 7.988-11.35 11.952zm178.029 141.263-42.347 42.348c-5.748 5.749-15.102 5.749-20.851 0l-54.085-54.085 10.617-55.412 52.51-7.857 54.156 54.155c5.749 5.748 5.749 15.102 0 20.851z"/></g></svg>