<svg id="Capa_1" enable-background="new 0 0 511.151 511.151" height="512" viewBox="0 0 511.151 511.151" width="512" xmlns="http://www.w3.org/2000/svg"><g><path d="m479.96 268.568c-1.713 0-3.102 1.389-3.102 3.102s1.389 3.102 3.102 3.102 3.102-1.389 3.102-3.102-1.388-3.102-3.102-3.102z"/><path d="m490.337 278.192c-1.713 0-3.102 1.389-3.102 3.102 0 1.714 1.389 3.102 3.102 3.102s3.102-1.389 3.102-3.102-1.389-3.102-3.102-3.102z"/><path d="m479.96 288.568c-1.713 0-3.102 1.389-3.102 3.102s1.389 3.102 3.102 3.102 3.102-1.389 3.102-3.102-1.388-3.102-3.102-3.102z"/><path d="m470.337 258.192c-1.713 0-3.102 1.389-3.102 3.102 0 1.714 1.389 3.102 3.102 3.102s3.102-1.389 3.102-3.102-1.389-3.102-3.102-3.102z"/><path d="m459.96 268.568c-1.713 0-3.102 1.389-3.102 3.102s1.389 3.102 3.102 3.102 3.102-1.389 3.102-3.102-1.388-3.102-3.102-3.102z"/><path d="m470.337 278.192c-1.713 0-3.102 1.389-3.102 3.102 0 1.714 1.389 3.102 3.102 3.102s3.102-1.389 3.102-3.102-1.389-3.102-3.102-3.102z"/><path d="m459.96 288.568c-1.713 0-3.102 1.389-3.102 3.102s1.389 3.102 3.102 3.102 3.102-1.389 3.102-3.102-1.388-3.102-3.102-3.102z"/><path d="m442.959 272.427c-1.538.607-3.134 1.198-4.79 1.769.507.36 1.122.577 1.792.577 1.45 0 2.659-1.001 2.998-2.346z"/><path d="m450.337 278.192c-1.713 0-3.102 1.389-3.102 3.102 0 1.714 1.389 3.102 3.102 3.102s3.102-1.389 3.102-3.102-1.389-3.102-3.102-3.102z"/><path d="m439.96 288.568c-1.713 0-3.102 1.389-3.102 3.102s1.389 3.102 3.102 3.102 3.102-1.389 3.102-3.102-1.388-3.102-3.102-3.102z"/><path d="m450.337 298.192c-1.713 0-3.102 1.389-3.102 3.102 0 1.714 1.389 3.102 3.102 3.102s3.102-1.389 3.102-3.102-1.389-3.102-3.102-3.102z"/><path d="m430.337 278.192c-1.713 0-3.102 1.389-3.102 3.102 0 1.714 1.389 3.102 3.102 3.102s3.102-1.389 3.102-3.102-1.389-3.102-3.102-3.102z"/><path d="m419.96 288.568c-1.713 0-3.102 1.389-3.102 3.102s1.389 3.102 3.102 3.102 3.102-1.389 3.102-3.102-1.388-3.102-3.102-3.102z"/><path d="m430.337 298.192c-1.713 0-3.102 1.389-3.102 3.102 0 1.714 1.389 3.102 3.102 3.102s3.102-1.389 3.102-3.102-1.389-3.102-3.102-3.102z"/><path d="m407.297 281.91c.286 1.418 1.538 2.486 3.04 2.486 1.713 0 3.102-1.389 3.102-3.102 0-.192-.023-.378-.056-.56-1.992.405-4.02.798-6.086 1.176z"/><path d="m399.96 288.568c-1.713 0-3.102 1.389-3.102 3.102s1.389 3.102 3.102 3.102 3.102-1.389 3.102-3.102-1.388-3.102-3.102-3.102z"/><path d="m410.337 298.192c-1.713 0-3.102 1.389-3.102 3.102 0 1.714 1.389 3.102 3.102 3.102s3.102-1.389 3.102-3.102-1.389-3.102-3.102-3.102z"/><path d="m379.96 288.568c-1.713 0-3.102 1.389-3.102 3.102s1.389 3.102 3.102 3.102 3.102-1.389 3.102-3.102-1.388-3.102-3.102-3.102z"/><path d="m390.337 298.192c-1.713 0-3.102 1.389-3.102 3.102 0 1.714 1.389 3.102 3.102 3.102s3.102-1.389 3.102-3.102-1.389-3.102-3.102-3.102z"/><path d="m379.96 308.568c-1.713 0-3.102 1.389-3.102 3.102s1.389 3.102 3.102 3.102 3.102-1.389 3.102-3.102-1.388-3.102-3.102-3.102z"/><path d="m359.96 288.568c-1.713 0-3.102 1.389-3.102 3.102s1.389 3.102 3.102 3.102 3.102-1.389 3.102-3.102-1.388-3.102-3.102-3.102z"/><path d="m370.337 298.192c-1.713 0-3.102 1.389-3.102 3.102 0 1.714 1.389 3.102 3.102 3.102s3.102-1.389 3.102-3.102-1.389-3.102-3.102-3.102z"/><path d="m359.96 308.568c-1.713 0-3.102 1.389-3.102 3.102s1.389 3.102 3.102 3.102 3.102-1.389 3.102-3.102-1.388-3.102-3.102-3.102z"/><path d="m337.651 289.617c-.487.548-.793 1.262-.793 2.053 0 1.713 1.389 3.102 3.102 3.102s3.102-1.389 3.102-3.102c0-.932-.42-1.758-1.071-2.327-1.443.095-2.89.187-4.34.274z"/><path d="m350.337 298.192c-1.713 0-3.102 1.389-3.102 3.102 0 1.714 1.389 3.102 3.102 3.102s3.102-1.389 3.102-3.102-1.389-3.102-3.102-3.102z"/><path d="m339.96 308.568c-1.713 0-3.102 1.389-3.102 3.102s1.389 3.102 3.102 3.102 3.102-1.389 3.102-3.102-1.388-3.102-3.102-3.102z"/><path d="m317.04 290.661c-.11.318-.182.654-.182 1.009 0 1.713 1.389 3.102 3.102 3.102s3.102-1.389 3.102-3.102c0-.45-.1-.875-.273-1.261-1.914.09-3.831.173-5.749.252z"/><path d="m330.337 298.192c-1.713 0-3.102 1.389-3.102 3.102 0 1.714 1.389 3.102 3.102 3.102s3.102-1.389 3.102-3.102-1.389-3.102-3.102-3.102z"/><path d="m319.96 308.568c-1.713 0-3.102 1.389-3.102 3.102s1.389 3.102 3.102 3.102 3.102-1.389 3.102-3.102-1.388-3.102-3.102-3.102z"/><path d="m296.892 291.333c-.012.113-.034.222-.034.338 0 1.713 1.389 3.102 3.102 3.102s3.102-1.389 3.102-3.102c0-.174-.024-.343-.051-.509-2.043.061-4.083.118-6.119.171z"/><path d="m310.337 298.192c-1.713 0-3.102 1.389-3.102 3.102 0 1.714 1.389 3.102 3.102 3.102s3.102-1.389 3.102-3.102-1.389-3.102-3.102-3.102z"/><path d="m299.96 308.568c-1.713 0-3.102 1.389-3.102 3.102s1.389 3.102 3.102 3.102 3.102-1.389 3.102-3.102-1.388-3.102-3.102-3.102z"/><path d="m276.862 291.71c.022 1.694 1.398 3.062 3.098 3.062 1.713 0 3.102-1.389 3.102-3.102 0-.017-.005-.032-.005-.049-2.073.035-4.138.064-6.195.089z"/><path d="m290.337 298.192c-1.713 0-3.102 1.389-3.102 3.102 0 1.714 1.389 3.102 3.102 3.102s3.102-1.389 3.102-3.102-1.389-3.102-3.102-3.102z"/><path d="m279.96 308.568c-1.713 0-3.102 1.389-3.102 3.102s1.389 3.102 3.102 3.102 3.102-1.389 3.102-3.102-1.388-3.102-3.102-3.102z"/><path d="m259.96 294.773c1.662 0 3.006-1.309 3.087-2.951-2.072.008-4.129.012-6.173.013.088 1.635 1.429 2.938 3.086 2.938z"/><path d="m270.337 298.192c-1.713 0-3.102 1.389-3.102 3.102 0 1.714 1.389 3.102 3.102 3.102s3.102-1.389 3.102-3.102-1.389-3.102-3.102-3.102z"/><path d="m239.96 294.773c1.672 0 3.026-1.326 3.09-2.983-2.085-.014-4.146-.033-6.186-.053.037 1.682 1.405 3.036 3.096 3.036z"/><path d="m250.337 298.192c-1.713 0-3.102 1.389-3.102 3.102 0 1.714 1.389 3.102 3.102 3.102s3.102-1.389 3.102-3.102-1.389-3.102-3.102-3.102z"/><path d="m216.882 291.432c-.006.08-.024.157-.024.239 0 1.713 1.389 3.102 3.102 3.102s3.102-1.389 3.102-3.102c0-.042-.011-.081-.012-.124-2.091-.036-4.147-.074-6.168-.115z"/><path d="m230.337 298.192c-1.713 0-3.102 1.389-3.102 3.102 0 1.714 1.389 3.102 3.102 3.102s3.102-1.389 3.102-3.102-1.389-3.102-3.102-3.102z"/><path d="m196.956 290.933c-.058.237-.098.482-.098.737 0 1.713 1.389 3.102 3.102 3.102s3.102-1.389 3.102-3.102c0-.194-.023-.382-.057-.566-2.072-.055-4.09-.112-6.049-.171z"/><path d="m210.337 298.192c-1.713 0-3.102 1.389-3.102 3.102 0 1.714 1.389 3.102 3.102 3.102s3.102-1.389 3.102-3.102-1.389-3.102-3.102-3.102z"/><path d="m177.219 290.246c-.223.428-.362.908-.362 1.425 0 1.713 1.389 3.102 3.102 3.102s3.102-1.389 3.102-3.102c0-.429-.087-.838-.245-1.21-1.97-.073-3.836-.145-5.597-.215z"/><path d="m190.337 298.192c-1.713 0-3.102 1.389-3.102 3.102 0 1.714 1.389 3.102 3.102 3.102s3.102-1.389 3.102-3.102-1.389-3.102-3.102-3.102z"/><path d="m158.576 289.386s-.251.005-.716.014c-.613.567-1.002 1.371-1.002 2.271 0 1.713 1.389 3.102 3.102 3.102s3.102-1.389 3.102-3.102c0-.81-.318-1.541-.826-2.094-2.379-.119-3.66-.191-3.66-.191z"/><path d="m170.337 298.192c-1.713 0-3.102 1.389-3.102 3.102 0 1.714 1.389 3.102 3.102 3.102s3.102-1.389 3.102-3.102-1.389-3.102-3.102-3.102z"/><path d="m137.538 289.754c-.419.529-.68 1.189-.68 1.917 0 1.713 1.389 3.102 3.102 3.102s3.102-1.389 3.102-3.102c0-.763-.286-1.453-.743-1.993-1.511.024-3.114.05-4.781.076z"/><path d="m150.337 298.192c-1.713 0-3.102 1.389-3.102 3.102 0 1.714 1.389 3.102 3.102 3.102s3.102-1.389 3.102-3.102-1.389-3.102-3.102-3.102z"/><path d="m117.336 290.032c-.298.476-.478 1.035-.478 1.638 0 1.713 1.389 3.102 3.102 3.102s3.102-1.389 3.102-3.102c0-.63-.19-1.214-.513-1.703-1.706.023-3.447.044-5.213.065z"/><path d="m130.337 298.192c-1.713 0-3.102 1.389-3.102 3.102 0 1.714 1.389 3.102 3.102 3.102s3.102-1.389 3.102-3.102-1.389-3.102-3.102-3.102z"/><path d="m97.23 290.227c-.229.433-.372.919-.372 1.444 0 1.713 1.389 3.102 3.102 3.102s3.102-1.389 3.102-3.102c0-.542-.151-1.044-.396-1.487-1.804.015-3.618.03-5.436.043z"/><path d="m110.337 298.192c-1.713 0-3.102 1.389-3.102 3.102 0 1.714 1.389 3.102 3.102 3.102s3.102-1.389 3.102-3.102-1.389-3.102-3.102-3.102z"/><path d="m507.307 299.179c2.312-5.039 3.678-10.744 3.837-17.247.591-24.206-38.166-36.905-91.807-54.48-7.009-2.297-14.276-4.678-21.741-7.177-15.355-5.14-31.194-11.071-47.962-17.35-37.636-14.094-80.295-30.068-133.814-43.227-7.662-1.884-16.331-6.141-24.713-10.257-10.055-4.937-19.55-9.601-27.909-10.688-13.987-1.82-18.887 12.937-24.059 28.56-5.834 17.623-12.445 37.598-31.806 42.438-31.864 7.967-41.199-9.639-49.436-25.172-4.814-9.077-9.36-17.651-18.279-17.71-.045 0-.088 0-.133 0-14.416 0-17.255 15.584-19.759 29.336-1.086 5.966-2.209 12.135-4.111 17.374-11.117 30.623-12.777 59.168-12.777 73.458 0 1.572.076 3.108.209 4.616-2.229 1.349-3.344 3.533-2.98 5.847 2.98 18.968 37.261 40.596 50.935 44.648.464.138.98.272 1.522.404l3.264 19.577c1.007 6.039 6.741 10.421 13.635 10.421h7.837c6.894 0 12.628-4.382 13.635-10.421l2.582-15.485c3.751.19 7.657.364 11.682.524l2.495 14.961c1.007 6.039 6.741 10.421 13.635 10.421h7.837c6.894 0 12.628-4.382 13.635-10.42l2.311-13.853c24.37.449 49.631.583 71.058.583 4.602 0 9.031-.006 13.23-.017 1.685-.004 2.745-.007 3.074-.005.121 0 .241.001.362-.002 1.692.116 3.627.207 5.851.289 6.775.251 16.003.355 27.42.447l2.094 12.557c1.007 6.039 6.741 10.421 13.635 10.421h7.837c6.893 0 12.628-4.382 13.636-10.421l2.035-12.202c9.586.121 19.894.288 30.889.534l1.946 11.667c1.007 6.039 6.742 10.421 13.636 10.421h7.837c6.894 0 12.628-4.382 13.635-10.421l1.949-11.686c10.091-.419 19.691-1.163 28.738-2.136l2.305 13.821c1.007 6.039 6.741 10.421 13.635 10.421h7.837c6.893 0 12.628-4.382 13.636-10.421l3.378-20.258c22.147-4.682 37.485-10.031 43.738-12.949 12.698-5.926 22.265-21.258 19.871-27.952-.241-.681-.596-1.276-1.027-1.789zm-458.314-9.914c-10.581-.603-26.741-1.17-37.231.121-.041-.771-.066-1.552-.066-2.349 0-5.06.219-11.985 1.028-20.181.239.056.48.106.733.122l25.307 1.633c.097.006.194.009.29.009 2.316 0 4.264-1.8 4.416-4.144.157-2.441-1.694-4.547-4.135-4.705l-25.307-1.633c-.091-.006-.177.01-.267.01.677-4.858 1.564-10.029 2.72-15.423l27.936 2.205c.118.009.236.014.353.014 2.288 0 4.228-1.761 4.41-4.081.193-2.438-1.627-4.571-4.067-4.764l-26.563-2.097c1.472-5.658 3.245-11.488 5.392-17.402 2.157-5.941 3.349-12.483 4.5-18.811 2.729-14.986 4.713-22.065 11.062-22.065h.057c3.63.024 6.819 6.038 10.511 13.002 6.956 13.118 16.892 31.862 42.703 31.86 4.953 0 10.494-.691 16.707-2.244 24.091-6.023 31.84-29.435 38.067-48.248 4.812-14.533 8.095-23.395 14.508-22.56 6.907.898 15.767 5.249 25.146 9.855 8.805 4.324 17.91 8.795 26.502 10.908 33.518 8.241 62.79 17.619 89.243 26.942-43.79 1.235-125.68 3.706-131.089 5.058-4.17 1.043-11.103 8.148-31.222 30.431-8.518 9.434-20.184 22.355-22.853 23.841-2.713 1.079-15.113-2.136-22.52-4.056-14.73-3.819-24.01-6.018-28.977-3.258-7.822 4.349-14.455 29.594-17.294 42.01zm245.542 71.406c-.278 1.666-2.476 3.021-4.899 3.021h-7.837c-2.423 0-4.62-1.354-4.898-3.02l-1.839-11.032c6.571.049 13.67.104 21.283.184zm69.978.001c-.278 1.665-2.475 3.02-4.898 3.02h-7.837c-2.424 0-4.622-1.354-4.899-3.02l-1.667-9.995c.068.002.135.003.204.005 3.848.099 7.644.146 11.385.146 3.169 0 6.284-.045 9.372-.11zm70.759-15.947-2.659 15.946c-.278 1.666-2.476 3.021-4.899 3.021h-7.837c-2.423 0-4.62-1.354-4.898-3.02l-2.236-13.408c8.083-1.039 15.671-2.244 22.689-3.548zm49.449-23.83c-16.237 7.577-71.604 22.665-139.078 20.931-28.402-.728-52.562-.909-71.975-1.055-11.965-.09-23.067-.173-31.359-.396.965-1.219 2.038-2.612 3.234-4.207 4.983-6.642 7.32-10.554 8.44-12.907 3.473.133 7.914.377 12.496.629 40.415 2.226 134.162 7.388 232.036-16.652-2.259 4.293-7.19 10.575-13.794 13.657zm12.968-22.58c-1.613.4-3.225.792-4.836 1.176-.563-.784-1.477-1.299-2.516-1.299-1.54 0-2.808 1.125-3.051 2.595-5.256 1.197-10.495 2.313-15.712 3.35 1.097-.478 1.865-1.569 1.865-2.842 0-1.713-1.389-3.102-3.102-3.102s-3.102 1.389-3.102 3.102c0 1.699 1.366 3.074 3.059 3.098-9.561 1.878-19.037 3.494-28.384 4.884-.534-.435-1.207-.707-1.949-.707-1.069 0-2.01.54-2.568 1.363-4.821.682-9.604 1.306-14.343 1.873.002-.045.013-.088.013-.134 0-1.713-1.389-3.102-3.102-3.102s-3.102 1.389-3.102 3.102c0 .29.053.566.127.833-5.057.56-10.059 1.057-14.999 1.499.654-.569 1.076-1.397 1.076-2.332 0-1.713-1.389-3.102-3.102-3.102s-3.102 1.389-3.102 3.102c0 1.126.606 2.103 1.504 2.646-57.119 4.817-105.401 2.162-131.395.73-2.373-.131-4.473-.245-6.362-.343 1.404-.297 2.458-1.541 2.458-3.033 0-1.713-1.389-3.102-3.102-3.102s-3.102 1.389-3.102 3.102c0 1.398.931 2.567 2.203 2.954-6.108-.307-9.628-.406-11.862-.224-1.404-.124-3.14-.233-5.298-.328.703-.569 1.161-1.427 1.161-2.402 0-1.713-1.389-3.102-3.102-3.102s-3.102 1.389-3.102 3.102c0 .892.382 1.69.984 2.256-3.999-.118-9.069-.205-15.524-.262.458-.541.744-1.23.744-1.994 0-1.713-1.389-3.102-3.102-3.102s-3.102 1.389-3.102 3.102c0 .747.275 1.424.715 1.959-3.013-.018-6.288-.031-9.847-.039-1.763-.004-3.546-.006-5.341-.006.418-.529.678-1.188.678-1.914 0-1.713-1.389-3.102-3.102-3.102s-3.102 1.389-3.102 3.102c0 .727.261 1.387.68 1.916-5.071.006-10.186.022-15.193.046.441-.536.718-1.213.718-1.962 0-1.713-1.389-3.102-3.102-3.102s-3.102 1.389-3.102 3.102c0 .76.284 1.447.738 1.986-5.381.03-10.566.066-15.356.104.507-.552.823-1.281.823-2.09 0-1.713-1.389-3.102-3.102-3.102s-3.102 1.389-3.102 3.102c0 .826.328 1.571.853 2.126-4.716.04-8.925.078-12.389.11-1.176.011-2.261.021-3.256.03.61-.566.997-1.368.997-2.266 0-1.713-1.389-3.102-3.102-3.102s-3.102 1.389-3.102 3.102c0 .918.406 1.734 1.04 2.302-.951.007-1.673.011-2.11.011-2.386 0-7.314-1.477-13.031-3.635-.497-1.049-1.558-1.78-2.796-1.78-.411 0-.801.084-1.16.229-9.776-3.963-20.615-9.273-24.903-12.489-1.851-1.388-5.98-2.54-11.061-3.486.143-.357.226-.744.226-1.151 0-.495-.126-.956-.332-1.37-1.864.005-3.713.008-5.545.008-.203.413-.328.871-.328 1.362 0 .064.015.124.019.186-4.654-.661-9.626-1.186-14.166-1.591-.001-.002-.001-.004-.002-.006-.026 0-.05 0-.076-.001-1.629-.145-3.204-.275-4.684-.39 4.083-17.329 9.704-32.943 12.576-34.835 2.709-1.079 15.112 2.135 22.52 4.056 14.73 3.819 24.009 6.018 28.977 3.258 3.827-2.126 12.066-11.143 25.192-25.681 9.321-10.323 23.339-25.849 26.944-27.796 7.467-1.176 94.224-3.857 151.58-5.395 7.115 2.624 14.036 5.215 20.792 7.745 16.843 6.308 32.753 12.265 48.256 17.455 7.483 2.505 14.768 4.892 21.795 7.194 37.327 12.23 68.557 22.468 80.498 34.67-.138.351-.22.731-.22 1.131 0 1.713 1.389 3.102 3.102 3.102.131 0 .256-.023.383-.039 1.315 2.245 2.004 4.564 1.945 6.982-.061 2.519-.363 4.923-.882 7.226-.434-.231-.921-.374-1.447-.374-1.713 0-3.102 1.389-3.102 3.102 0 1.565 1.162 2.845 2.668 3.058-.542 1.228-1.15 2.425-1.843 3.585z"/><path d="m230.079 227.455h-31.838l57.345 45.305h31.838z"/><path d="m266.816 222.557 57.345 45.305h31.838l-57.345-45.305z"/></g></svg>