<svg id="Capa_1" enable-background="new 0 0 511.796 511.796" height="512" viewBox="0 0 511.796 511.796" width="512" xmlns="http://www.w3.org/2000/svg"><g><path d="m486.831 69.592c-1.713 0-3.102 1.389-3.102 3.103s1.389 3.102 3.102 3.102 3.102-1.389 3.102-3.102-1.389-3.103-3.102-3.103z"/><path d="m486.831 89.592c-1.713 0-3.102 1.389-3.102 3.103s1.389 3.102 3.102 3.102 3.102-1.389 3.102-3.102-1.389-3.103-3.102-3.103z"/><path d="m497.207 99.216c-1.713 0-3.102 1.389-3.102 3.103 0 1.713 1.389 3.102 3.102 3.102s3.102-1.389 3.102-3.102c.001-1.714-1.388-3.103-3.102-3.103z"/><path d="m486.831 109.592c-1.713 0-3.102 1.389-3.102 3.103s1.389 3.102 3.102 3.102 3.102-1.389 3.102-3.102-1.389-3.103-3.102-3.103z"/><path d="m497.207 119.216c-1.713 0-3.102 1.389-3.102 3.103 0 1.713 1.389 3.102 3.102 3.102s3.102-1.389 3.102-3.102c.001-1.714-1.388-3.103-3.102-3.103z"/><path d="m486.831 129.592c-1.713 0-3.102 1.389-3.102 3.102s1.389 3.102 3.102 3.102 3.102-1.389 3.102-3.102-1.389-3.102-3.102-3.102z"/><path d="m468.016 49.829c.516 1.487.996 2.982 1.45 4.485.291-.473.467-1.024.467-1.62 0-1.293-.792-2.399-1.917-2.865z"/><path d="m477.207 59.216c-1.713 0-3.102 1.389-3.102 3.103 0 1.713 1.389 3.102 3.102 3.102s3.102-1.389 3.102-3.102c.001-1.714-1.388-3.103-3.102-3.103z"/><path d="m477.207 79.216c-1.455 0-2.666 1.005-3.002 2.357.032.605.078 1.21.1 1.816.437 1.184 1.566 2.032 2.901 2.032 1.713 0 3.102-1.389 3.102-3.102.002-1.714-1.387-3.103-3.101-3.103z"/><path d="m477.207 99.216c-1.713 0-3.102 1.389-3.102 3.103 0 1.713 1.389 3.102 3.102 3.102s3.102-1.389 3.102-3.102c.001-1.714-1.388-3.103-3.102-3.103z"/><path d="m477.207 119.216c-1.713 0-3.102 1.389-3.102 3.103 0 1.713 1.389 3.102 3.102 3.102s3.102-1.389 3.102-3.102c.001-1.714-1.388-3.103-3.102-3.103z"/><path d="m446.831 215.797c1.713 0 3.102-1.389 3.102-3.102s-1.389-3.102-3.102-3.102-3.102 1.389-3.102 3.102 1.389 3.102 3.102 3.102z"/><path d="m426.831 209.592c-1.713 0-3.102 1.389-3.102 3.102s1.389 3.102 3.102 3.102 3.102-1.389 3.102-3.102-1.389-3.102-3.102-3.102z"/><path d="m437.207 219.216c-1.713 0-3.102 1.389-3.102 3.103 0 1.713 1.389 3.102 3.102 3.102s3.102-1.389 3.102-3.102c.001-1.714-1.388-3.103-3.102-3.103z"/><path d="m417.207 199.216c-1.713 0-3.102 1.389-3.102 3.103 0 1.713 1.389 3.102 3.102 3.102s3.102-1.389 3.102-3.102c.001-1.714-1.388-3.103-3.102-3.103z"/><path d="m417.207 219.216c-1.713 0-3.102 1.389-3.102 3.103 0 1.713 1.389 3.102 3.102 3.102s3.102-1.389 3.102-3.102c.001-1.714-1.388-3.103-3.102-3.103z"/><path d="m406.831 229.592c-1.713 0-3.102 1.389-3.102 3.102s1.389 3.102 3.102 3.102 3.102-1.389 3.102-3.102-1.389-3.102-3.102-3.102z"/><path d="m397.207 239.216c-1.713 0-3.102 1.389-3.102 3.103 0 1.713 1.389 3.102 3.102 3.102s3.102-1.389 3.102-3.102c.001-1.714-1.388-3.103-3.102-3.103z"/><path d="m386.831 249.592c-1.713 0-3.102 1.389-3.102 3.102s1.389 3.102 3.102 3.102 3.102-1.389 3.102-3.102-1.389-3.102-3.102-3.102z"/><path d="m377.207 259.216c-1.713 0-3.102 1.389-3.102 3.103 0 1.713 1.389 3.102 3.102 3.102s3.102-1.389 3.102-3.102c.001-1.714-1.388-3.103-3.102-3.103z"/><path d="m366.831 269.592c-1.713 0-3.102 1.389-3.102 3.103 0 1.713 1.389 3.102 3.102 3.102s3.102-1.389 3.102-3.102c0-1.714-1.389-3.103-3.102-3.103z"/><path d="m357.207 259.216c-1.713 0-3.102 1.389-3.102 3.103 0 1.713 1.389 3.102 3.102 3.102s3.102-1.389 3.102-3.102c.001-1.714-1.388-3.103-3.102-3.103z"/><path d="m346.831 269.592c-1.713 0-3.102 1.389-3.102 3.103 0 1.713 1.389 3.102 3.102 3.102s3.102-1.389 3.102-3.102c0-1.714-1.389-3.103-3.102-3.103z"/><path d="m357.207 279.216c-1.713 0-3.102 1.389-3.102 3.103 0 1.713 1.389 3.102 3.102 3.102s3.102-1.389 3.102-3.102c.001-1.714-1.388-3.103-3.102-3.103z"/><path d="m346.831 289.592c-1.713 0-3.102 1.389-3.102 3.103 0 1.713 1.389 3.102 3.102 3.102s3.102-1.389 3.102-3.102c0-1.714-1.389-3.103-3.102-3.103z"/><path d="m326.831 269.592c-1.713 0-3.102 1.389-3.102 3.103 0 1.713 1.389 3.102 3.102 3.102s3.102-1.389 3.102-3.102c0-1.714-1.389-3.103-3.102-3.103z"/><path d="m337.207 279.216c-1.713 0-3.102 1.389-3.102 3.103 0 1.713 1.389 3.102 3.102 3.102s3.102-1.389 3.102-3.102c.001-1.714-1.388-3.103-3.102-3.103z"/><path d="m326.831 289.592c-1.713 0-3.102 1.389-3.102 3.103 0 1.713 1.389 3.102 3.102 3.102s3.102-1.389 3.102-3.102c0-1.714-1.389-3.103-3.102-3.103z"/><path d="m337.207 299.216c-1.713 0-3.102 1.389-3.102 3.103 0 1.713 1.389 3.102 3.102 3.102s3.102-1.389 3.102-3.102c.001-1.714-1.388-3.103-3.102-3.103z"/><path d="m326.831 309.592c-1.713 0-3.102 1.389-3.102 3.103 0 1.713 1.389 3.102 3.102 3.102s3.102-1.389 3.102-3.102c0-1.714-1.389-3.103-3.102-3.103z"/><path d="m317.207 279.216c-1.713 0-3.102 1.389-3.102 3.103 0 1.713 1.389 3.102 3.102 3.102s3.102-1.389 3.102-3.102c.001-1.714-1.388-3.103-3.102-3.103z"/><path d="m306.831 289.592c-1.713 0-3.102 1.389-3.102 3.103 0 1.713 1.389 3.102 3.102 3.102s3.102-1.389 3.102-3.102c0-1.714-1.389-3.103-3.102-3.103z"/><path d="m317.207 299.216c-1.713 0-3.102 1.389-3.102 3.103 0 1.713 1.389 3.102 3.102 3.102s3.102-1.389 3.102-3.102c.001-1.714-1.388-3.103-3.102-3.103z"/><path d="m306.831 309.592c-1.713 0-3.102 1.389-3.102 3.103 0 1.713 1.389 3.102 3.102 3.102s3.102-1.389 3.102-3.102c0-1.714-1.389-3.103-3.102-3.103z"/><path d="m317.207 319.216c-1.713 0-3.102 1.389-3.102 3.103 0 1.713 1.389 3.102 3.102 3.102s3.102-1.389 3.102-3.102c.001-1.714-1.388-3.103-3.102-3.103z"/><path d="m306.831 329.592c-1.713 0-3.102 1.389-3.102 3.103 0 1.713 1.389 3.102 3.102 3.102s3.102-1.389 3.102-3.102c0-1.714-1.389-3.103-3.102-3.103z"/><path d="m297.207 299.216c-1.713 0-3.102 1.389-3.102 3.103 0 1.713 1.389 3.102 3.102 3.102s3.102-1.389 3.102-3.102c.001-1.714-1.388-3.103-3.102-3.103z"/><path d="m286.831 309.592c-1.713 0-3.102 1.389-3.102 3.103 0 1.713 1.389 3.102 3.102 3.102s3.102-1.389 3.102-3.102c0-1.714-1.389-3.103-3.102-3.103z"/><path d="m297.207 319.216c-1.713 0-3.102 1.389-3.102 3.103 0 1.713 1.389 3.102 3.102 3.102s3.102-1.389 3.102-3.102c.001-1.714-1.388-3.103-3.102-3.103z"/><path d="m286.831 329.592c-1.713 0-3.102 1.389-3.102 3.103 0 1.713 1.389 3.102 3.102 3.102s3.102-1.389 3.102-3.102c0-1.714-1.389-3.103-3.102-3.103z"/><path d="m297.207 339.216c-1.713 0-3.102 1.389-3.102 3.103 0 1.713 1.389 3.102 3.102 3.102s3.102-1.389 3.102-3.102c.001-1.714-1.388-3.103-3.102-3.103z"/><path d="m286.831 349.592c-1.713 0-3.102 1.389-3.102 3.103 0 1.713 1.389 3.102 3.102 3.102s3.102-1.389 3.102-3.102c0-1.714-1.389-3.103-3.102-3.103z"/><path d="m277.207 319.216c-1.713 0-3.102 1.389-3.102 3.103 0 1.713 1.389 3.102 3.102 3.102s3.102-1.389 3.102-3.102c.001-1.714-1.388-3.103-3.102-3.103z"/><path d="m266.831 329.592c-1.713 0-3.102 1.389-3.102 3.103 0 1.713 1.389 3.102 3.102 3.102s3.102-1.389 3.102-3.102c0-1.714-1.389-3.103-3.102-3.103z"/><path d="m277.207 339.216c-1.713 0-3.102 1.389-3.102 3.103 0 1.713 1.389 3.102 3.102 3.102s3.102-1.389 3.102-3.102c.001-1.714-1.388-3.103-3.102-3.103z"/><path d="m266.831 349.592c-1.713 0-3.102 1.389-3.102 3.103 0 1.713 1.389 3.102 3.102 3.102s3.102-1.389 3.102-3.102c0-1.714-1.389-3.103-3.102-3.103z"/><path d="m226.831 435.797c1.713 0 3.102-1.389 3.102-3.102s-1.389-3.103-3.102-3.103-3.102 1.389-3.102 3.103c0 1.713 1.389 3.102 3.102 3.102z"/><path d="m206.831 435.797c1.713 0 3.102-1.389 3.102-3.102s-1.389-3.103-3.102-3.103-3.102 1.389-3.102 3.103c0 1.713 1.389 3.102 3.102 3.102z"/><path d="m217.208 445.42c1.713 0 3.102-1.389 3.102-3.102s-1.389-3.103-3.102-3.103-3.102 1.389-3.102 3.103c-.001 1.714 1.388 3.102 3.102 3.102z"/><path d="m206.831 455.797c1.713 0 3.102-1.389 3.102-3.102s-1.389-3.103-3.102-3.103-3.102 1.389-3.102 3.103c0 1.713 1.389 3.102 3.102 3.102z"/><path d="m197.208 425.42c1.713 0 3.102-1.389 3.102-3.102s-1.389-3.103-3.102-3.103-3.102 1.389-3.102 3.103c-.001 1.714 1.388 3.102 3.102 3.102z"/><path d="m186.831 435.797c1.713 0 3.102-1.389 3.102-3.102s-1.389-3.103-3.102-3.103-3.102 1.389-3.102 3.103c0 1.713 1.389 3.102 3.102 3.102z"/><path d="m197.208 445.42c1.713 0 3.102-1.389 3.102-3.102s-1.389-3.103-3.102-3.103-3.102 1.389-3.102 3.103c-.001 1.714 1.388 3.102 3.102 3.102z"/><path d="m186.831 455.797c1.713 0 3.102-1.389 3.102-3.102s-1.389-3.103-3.102-3.103-3.102 1.389-3.102 3.103c0 1.713 1.389 3.102 3.102 3.102z"/><path d="m197.208 465.42c1.713 0 3.102-1.389 3.102-3.102s-1.389-3.103-3.102-3.103-3.102 1.389-3.102 3.103c-.001 1.714 1.388 3.102 3.102 3.102z"/><path d="m186.831 475.797c1.713 0 3.102-1.389 3.102-3.102s-1.389-3.103-3.102-3.103-3.102 1.389-3.102 3.103c0 1.713 1.389 3.102 3.102 3.102z"/><path d="m177.208 445.42c1.713 0 3.102-1.389 3.102-3.102s-1.389-3.103-3.102-3.103-3.102 1.389-3.102 3.103c-.001 1.714 1.388 3.102 3.102 3.102z"/><path d="m166.831 455.797c1.713 0 3.102-1.389 3.102-3.102s-1.389-3.103-3.102-3.103-3.102 1.389-3.102 3.103c0 1.713 1.389 3.102 3.102 3.102z"/><path d="m177.208 465.42c1.713 0 3.102-1.389 3.102-3.102s-1.389-3.103-3.102-3.103-3.102 1.389-3.102 3.103c-.001 1.714 1.388 3.102 3.102 3.102z"/><path d="m166.831 475.797c1.713 0 3.102-1.389 3.102-3.102s-1.389-3.103-3.102-3.103-3.102 1.389-3.102 3.103c0 1.713 1.389 3.102 3.102 3.102z"/><path d="m177.208 485.42c1.713 0 3.102-1.389 3.102-3.102s-1.389-3.103-3.102-3.103-3.102 1.389-3.102 3.103c-.001 1.714 1.388 3.102 3.102 3.102z"/><path d="m157.208 465.42c1.713 0 3.102-1.389 3.102-3.102s-1.389-3.103-3.102-3.103-3.102 1.389-3.102 3.103c-.001 1.714 1.388 3.102 3.102 3.102z"/><path d="m146.831 475.797c1.713 0 3.102-1.389 3.102-3.102s-1.389-3.103-3.102-3.103-3.102 1.389-3.102 3.103c0 1.713 1.389 3.102 3.102 3.102z"/><path d="m157.208 485.42c1.713 0 3.102-1.389 3.102-3.102s-1.389-3.103-3.102-3.103-3.102 1.389-3.102 3.103c-.001 1.714 1.388 3.102 3.102 3.102z"/><path d="m146.831 495.797c1.713 0 3.102-1.389 3.102-3.102s-1.389-3.103-3.102-3.103-3.102 1.389-3.102 3.103c0 1.713 1.389 3.102 3.102 3.102z"/><path d="m140.31 462.318c0-.201-.023-.396-.059-.587-1.783.913-3.588 1.762-5.406 2.575.569.676 1.41 1.114 2.363 1.114 1.713 0 3.102-1.388 3.102-3.102z"/><path d="m126.831 475.797c1.713 0 3.102-1.389 3.102-3.102s-1.389-3.103-3.102-3.103-3.102 1.389-3.102 3.103c0 1.713 1.389 3.102 3.102 3.102z"/><path d="m137.208 485.42c1.713 0 3.102-1.389 3.102-3.102s-1.389-3.103-3.102-3.103-3.102 1.389-3.102 3.103c-.001 1.714 1.388 3.102 3.102 3.102z"/><path d="m126.831 495.797c1.713 0 3.102-1.389 3.102-3.102s-1.389-3.103-3.102-3.103-3.102 1.389-3.102 3.103c0 1.713 1.389 3.102 3.102 3.102z"/><path d="m106.831 475.797c1.713 0 3.102-1.389 3.102-3.102 0-.169-.024-.331-.05-.493-2.026.395-4.059.749-6.1 1.034.257 1.454 1.52 2.561 3.048 2.561z"/><path d="m117.207 485.42c1.713 0 3.102-1.389 3.102-3.102s-1.389-3.103-3.102-3.103-3.102 1.389-3.102 3.103 1.389 3.102 3.102 3.102z"/><path d="m106.831 495.797c1.713 0 3.102-1.389 3.102-3.102s-1.389-3.103-3.102-3.103-3.102 1.389-3.102 3.103c0 1.713 1.389 3.102 3.102 3.102z"/><path d="m86.831 475.797c1.108 0 2.074-.586 2.623-1.46-1.755.026-3.51.019-5.264-.035.544.893 1.518 1.495 2.641 1.495z"/><path d="m97.207 485.42c1.713 0 3.102-1.389 3.102-3.102s-1.389-3.103-3.102-3.103-3.102 1.389-3.102 3.103 1.389 3.102 3.102 3.102z"/><path d="m86.831 495.797c1.713 0 3.102-1.389 3.102-3.102s-1.389-3.103-3.102-3.103-3.102 1.389-3.102 3.103c0 1.713 1.389 3.102 3.102 3.102z"/><path d="m66.831 475.797c1.618 0 2.931-1.243 3.074-2.823-2.024-.315-4.042-.682-6.051-1.105-.073.265-.125.538-.125.826 0 1.713 1.389 3.102 3.102 3.102z"/><path d="m77.207 485.42c1.713 0 3.102-1.389 3.102-3.102s-1.389-3.103-3.102-3.103-3.102 1.389-3.102 3.103 1.389 3.102 3.102 3.102z"/><path d="m486.831 149.592c-1.713 0-3.102 1.389-3.102 3.102s1.389 3.102 3.102 3.102 3.102-1.389 3.102-3.102-1.389-3.102-3.102-3.102z"/><path d="m486.831 169.592c-1.713 0-3.102 1.389-3.102 3.102s1.389 3.102 3.102 3.102 3.102-1.389 3.102-3.102-1.389-3.102-3.102-3.102z"/><path d="m466.831 149.592c-1.713 0-3.102 1.389-3.102 3.102s1.389 3.102 3.102 3.102 3.102-1.389 3.102-3.102-1.389-3.102-3.102-3.102z"/><path d="m477.207 159.216c-1.713 0-3.102 1.389-3.102 3.103 0 1.713 1.389 3.102 3.102 3.102s3.102-1.389 3.102-3.102c.001-1.714-1.388-3.103-3.102-3.103z"/><path d="m466.831 169.592c-1.713 0-3.102 1.389-3.102 3.102s1.389 3.102 3.102 3.102 3.102-1.389 3.102-3.102-1.389-3.102-3.102-3.102z"/><path d="m477.207 179.216c-1.713 0-3.102 1.389-3.102 3.103 0 1.713 1.389 3.102 3.102 3.102s3.102-1.389 3.102-3.102c.001-1.714-1.388-3.103-3.102-3.103z"/><path d="m466.831 189.592c-1.713 0-3.102 1.389-3.102 3.102s1.389 3.102 3.102 3.102 3.102-1.389 3.102-3.102-1.389-3.102-3.102-3.102z"/><path d="m459.412 144.499c.383-.388.657-.879.794-1.424-.261.476-.526.95-.794 1.424z"/><path d="m457.207 159.216c-1.713 0-3.102 1.389-3.102 3.103 0 1.713 1.389 3.102 3.102 3.102s3.102-1.389 3.102-3.102c.001-1.714-1.388-3.103-3.102-3.103z"/><path d="m446.831 169.592c-1.713 0-3.102 1.389-3.102 3.102s1.389 3.102 3.102 3.102 3.102-1.389 3.102-3.102-1.389-3.102-3.102-3.102z"/><path d="m457.207 179.216c-1.713 0-3.102 1.389-3.102 3.103 0 1.713 1.389 3.102 3.102 3.102s3.102-1.389 3.102-3.102c.001-1.714-1.388-3.103-3.102-3.103z"/><path d="m446.831 189.592c-1.713 0-3.102 1.389-3.102 3.102s1.389 3.102 3.102 3.102 3.102-1.389 3.102-3.102-1.389-3.102-3.102-3.102z"/><path d="m437.207 179.216c-1.713 0-3.102 1.389-3.102 3.103 0 1.713 1.389 3.102 3.102 3.102s3.102-1.389 3.102-3.102c.001-1.714-1.388-3.103-3.102-3.103z"/><path d="m257.207 379.216c-1.713 0-3.102 1.389-3.102 3.103 0 1.713 1.389 3.102 3.102 3.102s3.102-1.389 3.102-3.102c.001-1.714-1.388-3.103-3.102-3.103z"/><path d="m246.831 389.592c-1.713 0-3.102 1.389-3.102 3.103 0 1.713 1.389 3.102 3.102 3.102s3.102-1.389 3.102-3.102c0-1.714-1.389-3.103-3.102-3.103z"/><path d="m237.208 399.216c-1.713 0-3.102 1.389-3.102 3.103 0 1.713 1.389 3.102 3.102 3.102s3.102-1.389 3.102-3.102c0-1.714-1.389-3.103-3.102-3.103z"/><path d="m226.831 409.592c-1.713 0-3.102 1.389-3.102 3.103 0 1.713 1.389 3.102 3.102 3.102s3.102-1.389 3.102-3.102c0-1.714-1.389-3.103-3.102-3.103z"/><path d="m476.886 36.775-1.837-1.836c-22.529-22.531-52.485-34.939-84.347-34.939s-61.817 12.408-84.347 34.939c-.089.088-.173.181-.253.278-.835 1.008-83.922 101.332-125.179 143.92-41.196 42.525-144.6 126.067-145.639 126.905-.11.089-.216.184-.316.285-22.53 22.529-34.939 52.484-34.939 84.346s12.408 61.818 34.939 84.348l1.837 1.837c22.529 22.53 52.486 34.938 84.348 34.938s61.817-12.408 84.347-34.938c.104-.104.202-.212.293-.327.874-1.092 87.938-109.665 124.276-146.954 36.289-37.236 145.363-122.928 146.461-123.79.126-.099.245-.205.358-.318 46.508-46.508 46.508-122.185-.002-168.694zm-277.189 434.589c-8.833 8.799-18.886 15.928-29.773 21.244-.047-1.672-1.41-3.016-3.094-3.016-1.713 0-3.102 1.389-3.102 3.103 0 .906.395 1.713 1.013 2.28-7.811 3.325-16.002 5.749-24.446 7.206-.074-1.648-1.423-2.964-3.088-2.964-1.713 0-3.102 1.389-3.102 3.103 0 .254.039.497.097.733-4.301.499-8.656.759-13.051.759-.411 0-.821-.011-1.232-.015.241-.441.39-.939.39-1.477 0-1.713-1.389-3.103-3.102-3.103s-3.102 1.389-3.102 3.103c0 .459.106.891.285 1.283-4.773-.284-9.489-.868-14.126-1.744-.224-1.493-1.5-2.642-3.056-2.642-1.092 0-2.049.567-2.601 1.421-8.739-2.128-17.155-5.31-25.095-9.478-.535-.932-1.529-1.566-2.68-1.566-.06 0-.116.014-.175.017-2.617-1.474-5.177-3.059-7.677-4.75.803-.561 1.331-1.488 1.331-2.542 0-1.713-1.389-3.103-3.102-3.103-1.416 0-2.597.955-2.969 2.251-2.386-1.803-4.709-3.708-6.964-5.715 1.501-.217 2.658-1.496 2.658-3.057 0-1.713-1.389-3.103-3.102-3.103-1.64 0-2.968 1.276-3.081 2.888-.435-.421-.871-.84-1.3-1.269l-1.837-1.837c-1.305-1.305-2.573-2.637-3.805-3.994.132.017.262.04.399.04 1.11 0 2.076-.587 2.625-1.463-1.861-.85-3.702-1.757-5.525-2.711-.12.324-.193.671-.198 1.036-16.888-20.026-26.094-45.108-26.094-71.609 0-8.063.858-15.994 2.519-23.693l223.688 61.872c-18.78 22.901-32.949 40.547-34.526 42.512zm67.05-81.763c-1.674.045-3.019 1.409-3.019 3.094 0 .156.02.307.043.457-1.772 2.118-3.537 4.233-5.294 6.342-.389-.175-.816-.278-1.27-.278-1.713 0-3.102 1.389-3.102 3.103 0 .656.207 1.263.555 1.764-1.843 2.218-3.671 4.423-5.479 6.608-.569-.667-1.405-1.098-2.35-1.098-1.713 0-3.102 1.389-3.102 3.103 0 1.156.639 2.152 1.577 2.686-1.723 2.087-3.425 4.152-5.098 6.185-.338-1.348-1.547-2.35-3-2.35-1.105 0-2.068.582-2.618 1.451l-24.865-6.878c.129-.341.209-.708.209-1.095 0-1.713-1.389-3.103-3.102-3.103-1.526 0-2.787 1.103-3.047 2.554l-191.285-52.908c5.157-17.612 14.655-33.757 27.967-47.116.685-.554 3.35-2.711 7.518-6.111l57.528 16.995c.987 11.382 5.817 22.49 14.509 31.182l37.273 37.273c9.498 9.499 22.128 14.73 35.561 14.73 7.518 0 14.784-1.641 21.39-4.749-.083.28-.141.57-.141.878 0 1.713 1.389 3.102 3.102 3.102s3.102-1.389 3.102-3.102c0-1.382-.91-2.54-2.159-2.94 2.261-1.32 4.43-2.816 6.482-4.495.562.564 1.339.914 2.198.914 1.713 0 3.102-1.389 3.102-3.102 0-.767-.289-1.46-.749-2.001l6.023-6.023c.542.461 1.234.75 2.001.75 1.713 0 3.102-1.389 3.102-3.102 0-.767-.289-1.459-.749-2l4.309-4.309c.322-.322.617-.66.929-.989.546.477 1.251.776 2.033.776 1.713 0 3.102-1.389 3.102-3.102 0-.978-.461-1.839-1.169-2.408.994-1.348 1.934-2.724 2.777-4.143l13.532 3.998c-.811.56-1.345 1.493-1.345 2.553 0 1.713 1.389 3.102 3.102 3.102s3.102-1.389 3.102-3.102c0-.421-.086-.822-.237-1.188l9.859 2.913c-4.243 4.992-8.532 10.081-12.807 15.179zm163.175-156.792c.001-.039.011-.075.011-.114 0-1.713-1.389-3.102-3.102-3.102s-3.102 1.389-3.102 3.102c0 1.532 1.113 2.796 2.572 3.049-2.08 1.688-4.197 3.408-6.347 5.161-.515-.998-1.545-1.688-2.746-1.688-1.713 0-3.102 1.389-3.102 3.103 0 .977.461 1.838 1.168 2.407-2.192 1.792-4.411 3.61-6.646 5.447-.508-.362-1.125-.58-1.796-.58-1.713 0-3.102 1.389-3.102 3.102 0 .457.104.887.282 1.277-2.121 1.749-4.253 3.512-6.391 5.284-.136-.018-.271-.04-.412-.04-1.66 0-3.004 1.307-3.087 2.947-27.171 22.602-54.66 46.333-69.772 61.841-10.212 10.479-24.37 26.509-39.496 44.199l.148-.501-7.739-2.287c1.688-.029 3.049-1.402 3.049-3.097 0-1.713-1.389-3.103-3.102-3.103s-3.102 1.389-3.102 3.103c0 1.067.54 2.008 1.361 2.566l-20.373-6.019c1.728-4.408 2.807-9.012 3.246-13.666 1.152-.453 1.971-1.569 1.971-2.882 0-1.227-.718-2.277-1.751-2.78-.222-12.574-5.116-25.078-14.69-34.652l-37.273-37.272c-19.609-19.608-51.515-19.608-71.123 0l-15.45 15.45c-8.8 8.799-13.638 20.076-14.539 31.605l-50.021-14.777c30.544-25.059 99.263-82.234 131.197-115.197 10.479-10.817 23.629-25.324 37.442-40.977l-.013.048 34.783 9.454c-7.577 18.249-3.965 40.087 10.853 54.904l37.273 37.272c8.057 8.057 18.19 12.796 28.694 14.232-.941.533-1.584 1.531-1.584 2.69 0 1.713 1.389 3.102 3.102 3.102s3.102-1.389 3.102-3.102c0-.938-.425-1.77-1.084-2.338 1.109.073 2.22.123 3.332.123 7.603 0 15.201-1.723 22.171-5.14.553.513 1.289.834 2.103.834 1.713 0 3.102-1.389 3.102-3.102 0-.217-.023-.429-.066-.634 2.922-1.891 5.693-4.107 8.251-6.665l.185-.185c.829-.314 1.483-.968 1.797-1.797l7.826-7.826c.829-.314 1.483-.969 1.797-1.797l3.844-3.844c1.455-1.455 2.789-2.985 4.027-4.565 1.528-.193 2.714-1.483 2.714-3.063 0-.218-.024-.431-.066-.637 1.534-2.374 2.84-4.853 3.934-7.402.542.905 1.522 1.518 2.654 1.518 1.713 0 3.102-1.389 3.102-3.102s-1.389-3.102-3.102-3.102c-.34 0-.662.068-.968.169 1.486-4.658 2.279-9.488 2.379-14.333.548-.282.987-.722 1.283-1.262l24.918 6.773c-.209.417-.337.881-.337 1.38 0 1.713 1.389 3.102 3.102 3.102 1.642 0 2.972-1.279 3.081-2.893l20.458 5.56c-7.507 5.956-18.361 14.624-30.83 24.719zm-21.675-37.808c.005-.393.02-.785.015-1.178l1.083.295c-.362.291-.73.588-1.098.883zm63.159 4.655c-.397.312-1.387 1.091-2.88 2.269l-38.912-10.576c-.502-1.037-1.555-1.757-2.784-1.757-.642 0-1.238.195-1.734.529l-17.648-4.796c-1.766-9.715-6.386-19.008-13.881-26.503l-37.273-37.272c-19.609-19.609-51.514-19.609-71.123 0l-15.448 15.45c-2.763 2.763-5.123 5.778-7.108 8.96l-32.677-8.881c14.911-17.011 30.255-34.921 43.6-50.651l225.712 66.486c-.63 2.125-1.325 4.226-2.081 6.305-1.695.021-3.064 1.398-3.064 3.099 0 .879.369 1.669.957 2.234-5.482 12.943-13.441 24.846-23.656 35.104zm27.886-55.054c.621-.567 1.018-1.376 1.018-2.283 0-1.713-1.389-3.103-3.102-3.103s-3.102 1.389-3.102 3.103c0 .274.047.536.114.789l-25.992-7.656c1.008-.512 1.706-1.548 1.706-2.756 0-1.713-1.389-3.102-3.102-3.102-.113 0-.219.021-.329.033-.62 1.591-1.277 3.169-1.97 4.737l-185.351-54.598c18.159-21.471 31.515-37.578 32.951-39.311 21.007-20.94 48.901-32.468 78.568-32.468 29.729 0 57.679 11.578 78.701 32.599l1.837 1.837c10.783 10.783 19.073 23.392 24.598 37.126-1.023.507-1.733 1.551-1.733 2.771 0 1.713 1.389 3.102 3.102 3.102.266 0 .519-.044.766-.106 3.854 11.382 5.865 23.44 5.865 35.808 0 8.189-.882 16.243-2.595 24.054z"/></g></svg>