<svg id="Capa_1" enable-background="new 0 0 511.846 511.846" height="512" viewBox="0 0 511.846 511.846" width="512" xmlns="http://www.w3.org/2000/svg"><g><path d="m183.842 372.963c1.713 0 3.102-1.389 3.102-3.102s-1.389-3.102-3.102-3.102-3.102 1.389-3.102 3.102 1.389 3.102 3.102 3.102z"/><path d="m183.842 392.963c1.713 0 3.102-1.389 3.102-3.102s-1.389-3.102-3.102-3.102-3.102 1.389-3.102 3.102 1.389 3.102 3.102 3.102z"/><path d="m194.219 402.586c1.713 0 3.102-1.389 3.102-3.102s-1.389-3.103-3.102-3.103-3.102 1.389-3.102 3.103c-.001 1.714 1.388 3.102 3.102 3.102z"/><path d="m183.842 412.963c1.713 0 3.102-1.389 3.102-3.102s-1.389-3.102-3.102-3.102-3.102 1.389-3.102 3.102 1.389 3.102 3.102 3.102z"/><path d="m194.219 422.586c1.713 0 3.102-1.389 3.102-3.102s-1.389-3.103-3.102-3.103-3.102 1.389-3.102 3.103c-.001 1.714 1.388 3.102 3.102 3.102z"/><path d="m183.842 432.963c1.713 0 3.102-1.389 3.102-3.102s-1.389-3.102-3.102-3.102-3.102 1.389-3.102 3.102 1.389 3.102 3.102 3.102z"/><path d="m183.842 452.963c1.713 0 3.102-1.389 3.102-3.102s-1.389-3.102-3.102-3.102-3.102 1.389-3.102 3.102 1.389 3.102 3.102 3.102z"/><path d="m174.219 356.382c-.061 0-.118.015-.177.018.468 1.988.862 3.989 1.211 5.997 1.202-.427 2.068-1.564 2.068-2.912 0-1.714-1.389-3.103-3.102-3.103z"/><path d="m176.817 381.171c.316-.486.504-1.064.504-1.687 0-.65-.201-1.252-.543-1.75.029 1.145.048 2.291.039 3.437z"/><path d="m175.539 396.687c-.311 1.968-.688 3.927-1.111 5.878 1.614-.109 2.893-1.439 2.893-3.081 0-1.239-.732-2.3-1.782-2.797z"/><path d="m174.219 416.382c-1.713 0-3.102 1.389-3.102 3.103 0 1.713 1.389 3.102 3.102 3.102s3.102-1.389 3.102-3.102c0-1.714-1.389-3.103-3.102-3.103z"/><path d="m165.649 427.348c-.92 1.821-1.897 3.621-2.93 5.397.349.136.726.218 1.124.218 1.713 0 3.102-1.389 3.102-3.102-.001-1.037-.514-1.95-1.296-2.513z"/><path d="m174.219 436.382c-1.713 0-3.102 1.389-3.102 3.103 0 1.713 1.389 3.102 3.102 3.102s3.102-1.389 3.102-3.102c0-1.714-1.389-3.103-3.102-3.103z"/><path d="m163.842 446.758c-1.713 0-3.102 1.389-3.102 3.102s1.389 3.102 3.102 3.102 3.102-1.389 3.102-3.102-1.388-3.102-3.102-3.102z"/><path d="m174.219 456.382c-1.713 0-3.102 1.389-3.102 3.103 0 1.713 1.389 3.102 3.102 3.102s3.102-1.389 3.102-3.102c0-1.714-1.389-3.103-3.102-3.103z"/><path d="m343.842 426.758c-1.713 0-3.102 1.389-3.102 3.102s1.389 3.102 3.102 3.102 3.102-1.389 3.102-3.102-1.388-3.102-3.102-3.102z"/><path d="m351.116 439.484c0 1.713 1.389 3.102 3.102 3.102.599 0 1.153-.177 1.627-.471-1.228-1.666-2.39-3.364-3.506-5.084-.738.567-1.223 1.45-1.223 2.453z"/><path d="m343.842 446.758c-1.713 0-3.102 1.389-3.102 3.102s1.389 3.102 3.102 3.102 3.102-1.389 3.102-3.102-1.388-3.102-3.102-3.102z"/><path d="m334.219 356.382c-1.713 0-3.102 1.389-3.102 3.103 0 1.713 1.389 3.102 3.102 3.102s3.102-1.389 3.102-3.102c0-1.714-1.389-3.103-3.102-3.103z"/><path d="m323.842 366.758c-1.713 0-3.102 1.389-3.102 3.102s1.389 3.102 3.102 3.102 3.102-1.389 3.102-3.102-1.388-3.102-3.102-3.102z"/><path d="m334.219 376.382c-1.713 0-3.102 1.389-3.102 3.103 0 1.713 1.389 3.102 3.102 3.102.508 0 .981-.134 1.405-.351-.033-1.829-.033-3.658.03-5.486-.431-.228-.915-.368-1.435-.368z"/><path d="m323.842 386.758c-1.713 0-3.102 1.389-3.102 3.102s1.389 3.102 3.102 3.102 3.102-1.389 3.102-3.102-1.388-3.102-3.102-3.102z"/><path d="m337.247 398.824c-.303-1.396-1.542-2.442-3.029-2.442-1.713 0-3.102 1.389-3.102 3.103 0 1.713 1.389 3.102 3.102 3.102s3.102-1.389 3.102-3.102c0-.195-.023-.385-.057-.57-.005-.031-.01-.061-.016-.091z"/><path d="m323.842 406.758c-1.713 0-3.102 1.389-3.102 3.102s1.389 3.102 3.102 3.102 3.102-1.389 3.102-3.102-1.388-3.102-3.102-3.102z"/><path d="m334.219 416.382c-1.713 0-3.102 1.389-3.102 3.103 0 1.713 1.389 3.102 3.102 3.102s3.102-1.389 3.102-3.102c0-1.714-1.389-3.103-3.102-3.103z"/><path d="m323.842 426.758c-1.713 0-3.102 1.389-3.102 3.102s1.389 3.102 3.102 3.102 3.102-1.389 3.102-3.102-1.388-3.102-3.102-3.102z"/><path d="m334.219 436.382c-1.713 0-3.102 1.389-3.102 3.103 0 1.713 1.389 3.102 3.102 3.102s3.102-1.389 3.102-3.102c0-1.714-1.389-3.103-3.102-3.103z"/><path d="m323.842 446.758c-1.713 0-3.102 1.389-3.102 3.102s1.389 3.102 3.102 3.102 3.102-1.389 3.102-3.102-1.388-3.102-3.102-3.102z"/><path d="m334.219 456.382c-1.713 0-3.102 1.389-3.102 3.103 0 1.713 1.389 3.102 3.102 3.102s3.102-1.389 3.102-3.102c0-1.714-1.389-3.103-3.102-3.103z"/><path d="m314.219 396.382c-1.713 0-3.102 1.389-3.102 3.103 0 1.713 1.389 3.102 3.102 3.102s3.102-1.389 3.102-3.102c0-1.714-1.389-3.103-3.102-3.103z"/><path d="m314.219 416.382c-1.713 0-3.102 1.389-3.102 3.103 0 1.713 1.389 3.102 3.102 3.102s3.102-1.389 3.102-3.102c0-1.714-1.389-3.103-3.102-3.103z"/><path d="m505.085 469.736-74.784-74.784 49.255-49.255c2.738-2.737 4.197-6.526 4.003-10.394-.191-3.818-1.988-7.387-4.93-9.792-20.661-16.89-46.773-25.497-73.55-24.234-25.778 1.216-50.094 11.535-68.871 29.137l-74.642-74.749 247.126-247.484c1.559-1.561 1.557-4.089-.004-5.647-1.559-1.559-4.088-1.557-5.647.004l-247.118 247.474-247.119-247.474c-1.558-1.561-4.087-1.563-5.647-.005-1.56 1.559-1.562 4.087-.004 5.648l247.127 247.482-74.643 74.75c-18.722-17.551-42.966-27.866-68.665-29.128-26.685-1.308-52.757 7.196-73.419 23.951-3.075 2.494-4.957 6.181-5.161 10.117-.203 3.894 1.261 7.708 4.02 10.466l49.133 49.134-74.784 74.783c-9.014 9.014-9.014 23.682 0 32.697l1.277 1.276c4.366 4.367 10.172 6.771 16.348 6.771 6.175 0 11.982-2.404 16.348-6.771l74.784-74.784 49.693 49.693c2.588 2.589 6.109 4.038 9.751 4.038.238 0 .477-.006.715-.018 3.936-.206 7.623-2.087 10.116-5.162 16.755-20.661 25.261-46.734 23.951-73.418-1.245-25.384-11.323-49.349-28.482-67.975l74.662-74.77 74.662 74.769c-17.21 18.68-27.291 42.717-28.493 68.18-1.263 26.769 7.344 52.89 24.235 73.55 2.405 2.942 5.974 4.74 9.792 4.931.228.012.455.017.684.017 3.628 0 7.134-1.444 9.71-4.02l49.815-49.815 74.785 74.784c4.366 4.367 10.173 6.771 16.348 6.771s11.982-2.404 16.348-6.77l1.277-1.278c9.012-9.014 9.012-23.681-.002-32.696zm-469.998 28.326c-2.858 2.858-6.659 4.432-10.701 4.432s-7.842-1.574-10.701-4.433l-1.277-1.276c-5.899-5.9-5.899-15.501 0-21.402l15.356-15.356 22.679 22.678zm21.003-21.003-22.679-22.679 23.577-23.577 22.679 22.678zm29.225-29.225-22.678-22.679 24.555-24.555 22.678 22.678zm89.946 26.828c-1.664.081-3.227-.515-4.404-1.691l-4.084-4.085c-.308-.925-1.032-1.649-1.956-1.957l-7.501-7.501c-.03-1.668-1.373-3.011-3.041-3.041l-116.217-116.216c-1.177-1.177-1.777-2.741-1.691-4.403.089-1.704.875-3.242 2.216-4.329 37.16-30.133 89.576-29.585 126.025-.042.215.403.438.804.647 1.21.168-.086.322-.192.47-.306 2.043 1.704 4.026 3.512 5.959 5.401-.355.505-.568 1.117-.568 1.781 0 1.713 1.389 3.102 3.102 3.102.63 0 1.214-.19 1.704-.513 1.845 2.032 3.578 4.13 5.229 6.271-.254.45-.411.963-.411 1.517 0 1.713 1.389 3.102 3.102 3.102.219 0 .433-.024.64-.067 5.389 7.861 9.541 16.322 12.449 25.112-.526-.964-1.537-1.626-2.712-1.626-1.713 0-3.102 1.389-3.102 3.103 0 1.713 1.389 3.102 3.102 3.102s3.102-1.389 3.102-3.102c0-.111-.021-.216-.033-.323 2.914 9.178 4.478 18.694 4.67 28.25-.736.567-1.218 1.448-1.218 2.449 0 .994.476 1.868 1.202 2.436-.265 9.24-1.799 18.462-4.642 27.392.004-.069.02-.134.02-.204 0-1.713-1.389-3.103-3.102-3.103s-3.102 1.389-3.102 3.103c0 1.713 1.389 3.102 3.102 3.102 1.058 0 1.989-.531 2.549-1.339-2.999 8.91-7.304 17.503-12.921 25.512-.002 0-.003 0-.005 0-1.713 0-3.102 1.389-3.102 3.102 0 .316.061.615.149.903-.435.56-.852 1.129-1.3 1.682-1.085 1.34-2.623 2.127-4.327 2.216zm189.304-25.269c-1.148-.231-2.266-.642-3.288-1.276-.339.497-.537 1.097-.537 1.744 0 .922.41 1.741 1.049 2.309l-5.261 5.261c-.568-.639-1.387-1.049-2.309-1.049-1.713 0-3.102 1.389-3.102 3.103 0 .922.41 1.741 1.049 2.309l-6.014 6.014c-.568-.639-1.387-1.049-2.309-1.049-1.713 0-3.102 1.389-3.102 3.102 0 .922.41 1.741 1.049 2.309l-.923.922c-1.145 1.145-2.741 1.748-4.348 1.674-1.59-.08-3.014-.793-4.008-2.009-7.633-9.336-13.297-19.646-17.07-30.422 1.106-.474 1.881-1.572 1.881-2.851 0-1.713-1.389-3.103-3.102-3.103-.222 0-.439.025-.648.07-4.984-17.683-4.969-36.363-.049-53.951.225.052.456.085.697.085 1.713 0 3.102-1.389 3.102-3.102 0-1.302-.803-2.412-1.939-2.873 4.334-12.462 11.182-24.238 20.54-34.538.389-.256.709-.602.949-1.002.805-.863 1.609-1.726 2.45-2.567 19.567-19.567 45.189-29.5 70.911-29.5 22.342 0 44.76 7.497 63.342 22.688 1.217.995 1.93 2.418 2.009 4.009.081 1.618-.529 3.203-1.673 4.348zm37.41-26.116 22.679-22.678 24.556 24.556-22.679 22.678zm30.204 30.203 22.678-22.679 23.578 23.578-22.679 22.679zm67.259 43.304-1.277 1.278c-2.859 2.858-6.659 4.432-10.701 4.432s-7.843-1.574-10.701-4.433l-15.356-15.356 22.679-22.679 15.356 15.356c5.9 5.902 5.9 15.503 0 21.402z"/></g></svg>