<svg id="Capa_1" enable-background="new 0 0 512.047 512.047" height="512" viewBox="0 0 512.047 512.047" width="512" xmlns="http://www.w3.org/2000/svg"><g><path d="m133.811 31.297c0 1.723 1.396 3.119 3.119 3.119.044 0 .085-.011.128-.013v-6.212c-.043-.002-.084-.013-.128-.013-1.723 0-3.119 1.396-3.119 3.119z"/><path d="m126.497 38.611c-1.723 0-3.119 1.397-3.119 3.119s1.396 3.119 3.119 3.119 3.119-1.396 3.119-3.119-1.396-3.119-3.119-3.119z"/><path d="m133.811 51.405c0 1.723 1.396 3.119 3.119 3.119.044 0 .085-.011.128-.013v-6.212c-.043-.002-.084-.013-.128-.013-1.723 0-3.119 1.396-3.119 3.119z"/><path d="m126.497 58.718c-1.723 0-3.119 1.396-3.119 3.119s1.396 3.119 3.119 3.119 3.119-1.396 3.119-3.119c0-1.722-1.396-3.119-3.119-3.119z"/><path d="m133.811 71.513c0 1.723 1.396 3.119 3.119 3.119.044 0 .085-.011.128-.013v-6.212c-.043-.002-.084-.013-.128-.013-1.723 0-3.119 1.396-3.119 3.119z"/><path d="m126.497 78.826c-1.723 0-3.119 1.396-3.119 3.119s1.396 3.119 3.119 3.119 3.119-1.397 3.119-3.119-1.396-3.119-3.119-3.119z"/><path d="m126.497 159.259c-1.723 0-3.119 1.396-3.119 3.119s1.396 3.119 3.119 3.119 3.119-1.396 3.119-3.119-1.396-3.119-3.119-3.119z"/><path d="m133.811 172.053c0 1.723 1.396 3.119 3.119 3.119.044 0 .085-.011.128-.013v-6.212c-.043-.002-.084-.013-.128-.013-1.723 0-3.119 1.396-3.119 3.119z"/><path d="m126.497 179.366c-1.723 0-3.119 1.396-3.119 3.119s1.396 3.119 3.119 3.119 3.119-1.396 3.119-3.119c0-1.722-1.396-3.119-3.119-3.119z"/><path d="m133.811 192.161c0 1.723 1.396 3.119 3.119 3.119.044 0 .085-.011.128-.013v-6.212c-.043-.002-.084-.013-.128-.013-1.723 0-3.119 1.396-3.119 3.119z"/><path d="m126.497 199.474c-1.723 0-3.119 1.396-3.119 3.119s1.396 3.119 3.119 3.119 3.119-1.396 3.119-3.119c0-1.722-1.396-3.119-3.119-3.119z"/><path d="m133.811 212.269c0 1.723 1.396 3.119 3.119 3.119.044 0 .085-.011.128-.013v-6.212c-.043-.002-.084-.013-.128-.013-1.723 0-3.119 1.397-3.119 3.119z"/><path d="m106.389 38.611c-1.722 0-3.119 1.397-3.119 3.119s1.396 3.119 3.119 3.119 3.119-1.396 3.119-3.119-1.396-3.119-3.119-3.119z"/><path d="m116.822 48.286c-1.723 0-3.119 1.396-3.119 3.119s1.396 3.119 3.119 3.119c1.722 0 3.119-1.396 3.119-3.119s-1.397-3.119-3.119-3.119z"/><path d="m106.389 58.718c-1.722 0-3.119 1.396-3.119 3.119s1.396 3.119 3.119 3.119 3.119-1.396 3.119-3.119c0-1.722-1.396-3.119-3.119-3.119z"/><path d="m116.822 68.394c-1.723 0-3.119 1.396-3.119 3.119s1.396 3.119 3.119 3.119c1.722 0 3.119-1.396 3.119-3.119s-1.397-3.119-3.119-3.119z"/><path d="m106.389 78.826c-1.722 0-3.119 1.396-3.119 3.119s1.396 3.119 3.119 3.119 3.119-1.397 3.119-3.119-1.396-3.119-3.119-3.119z"/><path d="m116.822 168.934c-1.723 0-3.119 1.396-3.119 3.119s1.396 3.119 3.119 3.119c1.722 0 3.119-1.396 3.119-3.119s-1.397-3.119-3.119-3.119z"/><path d="m106.389 179.366c-1.722 0-3.119 1.396-3.119 3.119s1.396 3.119 3.119 3.119 3.119-1.396 3.119-3.119c0-1.722-1.396-3.119-3.119-3.119z"/><path d="m116.822 189.042c-1.723 0-3.119 1.396-3.119 3.119s1.396 3.119 3.119 3.119c1.722 0 3.119-1.396 3.119-3.119s-1.397-3.119-3.119-3.119z"/><path d="m106.389 199.474c-1.722 0-3.119 1.396-3.119 3.119s1.396 3.119 3.119 3.119 3.119-1.396 3.119-3.119c0-1.722-1.396-3.119-3.119-3.119z"/><path d="m116.822 209.15c-1.723 0-3.119 1.396-3.119 3.119s1.396 3.119 3.119 3.119c1.722 0 3.119-1.396 3.119-3.119 0-1.722-1.397-3.119-3.119-3.119z"/><path d="m106.389 219.583c-1.722 0-3.119 1.396-3.119 3.119s1.396 3.119 3.119 3.119 3.119-1.396 3.119-3.119-1.396-3.119-3.119-3.119z"/><path d="m96.714 48.286c-1.723 0-3.119 1.396-3.119 3.119s1.396 3.119 3.119 3.119c1.722 0 3.119-1.396 3.119-3.119s-1.397-3.119-3.119-3.119z"/><path d="m96.714 68.394c-1.723 0-3.119 1.396-3.119 3.119s1.396 3.119 3.119 3.119c1.722 0 3.119-1.396 3.119-3.119s-1.397-3.119-3.119-3.119z"/><path d="m96.714 88.502c-1.723 0-3.119 1.396-3.119 3.119s1.396 3.119 3.119 3.119c1.722 0 3.119-1.396 3.119-3.119s-1.397-3.119-3.119-3.119z"/><path d="m96.714 189.042c-1.723 0-3.119 1.396-3.119 3.119s1.396 3.119 3.119 3.119c1.722 0 3.119-1.396 3.119-3.119s-1.397-3.119-3.119-3.119z"/><path d="m96.714 209.15c-1.723 0-3.119 1.396-3.119 3.119s1.396 3.119 3.119 3.119c1.722 0 3.119-1.396 3.119-3.119 0-1.722-1.397-3.119-3.119-3.119z"/><path d="m96.714 229.258c-1.723 0-3.119 1.396-3.119 3.119s1.396 3.119 3.119 3.119c1.722 0 3.119-1.396 3.119-3.119 0-1.722-1.397-3.119-3.119-3.119z"/><path d="m476.84 44.817c-5.786-3.603-12.595-3.952-18.682-.957-31.27 15.38-82.41 25.005-148.464-16.477-56.361-35.395-114.625-30.062-153.578-19.355-31.4 8.63-55.169 21.74-65.678 28.163-1.964-10.887-11.502-19.175-22.946-19.175h-19.7c-12.861 0-23.324 10.463-23.324 23.323v448.385c0 12.86 10.463 23.323 23.324 23.323h19.701c12.861 0 23.323-10.463 23.323-23.323v-174.548c6.598-4.279 32.328-20.038 67.433-29.687 37.397-10.28 93.285-15.428 147.168 18.41 36.807 23.115 69.28 30.819 96.221 30.818 36.477-.001 62.807-14.126 75.987-23.243 6.234-4.311 9.955-11.761 9.955-19.928v-225.297c-.001-8.607-4.016-16.245-10.74-20.432zm-394.068 443.907c0 8.425-6.855 15.28-15.28 15.28h-19.7c-8.426 0-15.28-6.855-15.28-15.28v-448.385c0-8.425 6.855-15.28 15.28-15.28h19.701c8.425 0 15.28 6.854 15.28 15.28v448.385zm396.764-386.958c-1.543 1.13-3.12 2.272-4.199 3.018-11.386 7.875-34.21 20.412-65.991 22.217v68.03c-23.302 1.323-51.421-3.133-83.383-19.426v68.03c31.962 16.293 60.081 20.749 83.383 19.425v-68.03c31.781-1.805 54.605-14.342 65.991-22.217 1.079-.746 2.656-1.887 4.199-3.018v68.03c-1.543 1.13-3.12 2.271-4.199 3.018-11.386 7.875-34.21 20.413-65.991 22.217l.043 62.336c-23.199 1.358-51.319-3.202-83.427-19.961v-61.801c-6.004-3.061-12.14-6.528-18.408-10.464-21.697-13.626-43.695-21.192-64.975-24.604v62.346c-9.893-1.542-19.569-2.207-28.902-2.207-20.197 0-38.788 3.116-54.481 7.203v-62.156c24.403-6.482 53.165-10.028 83.383-5.185v-68.03c-30.218-4.844-58.98-1.298-83.383 5.185v68.029c-10.874 2.889-20.874 6.362-29.756 9.938.105-.312.175-.641.175-.988 0-1.722-1.396-3.119-3.119-3.119s-3.119 1.396-3.119 3.119c0 1.219.706 2.263 1.725 2.776-3.013 1.275-5.876 2.552-8.585 3.811-.747.073-1.419.395-1.917.901-11.01 5.225-19.209 10.037-23.738 12.863v-68.03c.856-.534 1.848-1.142 2.96-1.808.461 1.145 1.579 1.957 2.89 1.957 1.722 0 3.119-1.396 3.119-3.119 0-.729-.261-1.392-.68-1.923 8.27-4.638 20.368-10.761 35.225-16.4.564.805 1.495 1.334 2.552 1.334.044 0 .085-.011.128-.013v-2.321c6.863-2.52 14.271-4.917 22.14-7.008v-68.03c-14.952 3.973-28.259 9.048-39.261 13.977 0-.017.005-.032.005-.049 0-1.723-1.397-3.119-3.119-3.119-1.723 0-3.119 1.396-3.119 3.119 0 .968.45 1.822 1.142 2.394-11.133 5.27-19.419 10.131-23.981 12.979v-61.554c3.354-2.172 11.466-7.189 23.118-12.865.488 1.084 1.574 1.842 2.84 1.842 1.722 0 3.119-1.396 3.119-3.119 0-.498-.127-.962-.334-1.378 10.736-4.921 23.854-10.071 38.642-14.136.314-.086.632-.171.948-.257v62.167c24.403-6.483 53.165-10.028 83.383-5.185v-62.138c20.437 3.339 41.789 10.607 62.836 23.825 6.855 4.305 13.707 8.162 20.547 11.568v61.813c-6.004-3.061-12.14-6.528-18.409-10.464-21.696-13.625-43.694-21.192-64.975-24.604v68.03c21.28 3.411 43.278 10.977 64.975 24.603 6.269 3.937 12.405 7.404 18.409 10.464v-68.029c31.962 16.292 60.081 20.748 83.383 19.425v-62.298c18.367-.995 35.951-5.554 52.361-13.625 3.592-1.767 7.456-1.564 10.882.568 4.285 2.667 6.947 7.881 6.947 13.604v36.517z"/></g></svg>