<svg id="Capa_1" enable-background="new 0 0 511.722 511.722" height="512" viewBox="0 0 511.722 511.722" width="512" xmlns="http://www.w3.org/2000/svg"><g><path d="m128.76 232.062c1.721 0 3.117-1.396 3.117-3.118s-1.396-3.117-3.117-3.117c-1.722 0-3.118 1.396-3.118 3.117 0 1.722 1.396 3.118 3.118 3.118z"/><path d="m118.332 236.254c-1.722 0-3.117 1.396-3.117 3.117 0 1.722 1.396 3.118 3.117 3.118s3.117-1.396 3.117-3.118c.001-1.721-1.395-3.117-3.117-3.117z"/><path d="m128.76 252.16c1.721 0 3.117-1.396 3.117-3.118s-1.396-3.118-3.117-3.118c-1.722 0-3.118 1.396-3.118 3.118s1.396 3.118 3.118 3.118z"/><path d="m118.332 256.353c-1.722 0-3.117 1.396-3.117 3.117 0 1.722 1.396 3.118 3.117 3.118s3.117-1.396 3.117-3.118c.001-1.722-1.395-3.117-3.117-3.117z"/><path d="m108.662 225.827c-1.722 0-3.117 1.396-3.117 3.117 0 1.722 1.396 3.118 3.117 3.118 1.722 0 3.118-1.396 3.118-3.118-.001-1.721-1.397-3.117-3.118-3.117z"/><path d="m108.662 245.925c-1.722 0-3.117 1.396-3.117 3.118s1.396 3.118 3.117 3.118c1.722 0 3.118-1.396 3.118-3.118-.001-1.722-1.397-3.118-3.118-3.118z"/><path d="m395.758 232.062c1.722 0 3.117-1.396 3.117-3.118s-1.396-3.117-3.117-3.117c-1.722 0-3.118 1.396-3.118 3.117.001 1.722 1.397 3.118 3.118 3.118z"/><path d="m385.331 236.254c-1.722 0-3.117 1.396-3.117 3.117 0 1.722 1.396 3.118 3.117 3.118s3.117-1.396 3.117-3.118c0-1.721-1.395-3.117-3.117-3.117z"/><path d="m395.758 252.16c1.722 0 3.117-1.396 3.117-3.118s-1.396-3.118-3.117-3.118c-1.722 0-3.118 1.396-3.118 3.118.001 1.722 1.397 3.118 3.118 3.118z"/><path d="m385.331 256.353c-1.722 0-3.117 1.396-3.117 3.117 0 1.722 1.396 3.118 3.117 3.118s3.117-1.396 3.117-3.118-1.395-3.117-3.117-3.117z"/><path d="m375.66 225.827c-1.722 0-3.118 1.396-3.118 3.117 0 1.722 1.396 3.118 3.118 3.118 1.721 0 3.117-1.396 3.117-3.118.001-1.721-1.395-3.117-3.117-3.117z"/><path d="m375.66 245.925c-1.722 0-3.118 1.396-3.118 3.118s1.396 3.118 3.118 3.118c1.721 0 3.117-1.396 3.117-3.118.001-1.722-1.395-3.118-3.117-3.118z"/><path d="m149.399 270.203v-266.184c0-2.22-1.8-4.019-4.02-4.019h-46.036c-2.22 0-4.02 1.8-4.02 4.019v266.184c-54.452 12.339-95.231 61.12-95.231 119.251 0 67.418 54.85 122.268 122.269 122.268s122.269-54.85 122.269-122.268c.001-58.132-40.778-106.912-95.231-119.251zm-46.036-262.164h37.997v230.303c-.427-1.213-1.571-2.088-2.93-2.088-1.722 0-3.118 1.396-3.118 3.117 0 1.722 1.396 3.118 3.118 3.118 1.359 0 2.503-.875 2.93-2.088v18.04c-.427-1.213-1.571-2.088-2.93-2.088-1.722 0-3.118 1.396-3.118 3.117 0 1.722 1.396 3.118 3.118 3.118 1.359 0 2.503-.875 2.93-2.088v8.164c-6.193-.97-12.537-1.478-18.999-1.478-6.461 0-12.806.508-18.999 1.478v-260.625zm18.998 495.644c-62.986 0-114.23-51.243-114.23-114.229 0-62.987 51.244-114.23 114.23-114.23 62.987 0 114.23 51.243 114.23 114.23 0 62.986-51.243 114.229-114.23 114.229z"/><path d="m122.361 305.406c-46.344 0-84.047 37.704-84.047 84.048 0 46.343 37.704 84.047 84.047 84.047 46.344 0 84.047-37.704 84.047-84.047 0-46.345-37.703-84.048-84.047-84.048zm0 160.055c-41.911 0-76.008-34.097-76.008-76.008 0-41.912 34.097-76.008 76.008-76.008s76.008 34.097 76.008 76.008-34.097 76.008-76.008 76.008z"/><path d="m416.398 270.203v-266.184c0-2.22-1.8-4.019-4.02-4.019h-46.037c-2.22 0-4.02 1.8-4.02 4.019v266.184c-54.452 12.339-95.231 61.12-95.231 119.251 0 67.418 54.85 122.268 122.269 122.268s122.269-54.85 122.269-122.268c.001-58.132-40.777-106.912-95.23-119.251zm-46.036-262.164h37.997v230.305c-.426-1.214-1.571-2.089-2.93-2.089-1.722 0-3.117 1.396-3.117 3.117 0 1.722 1.396 3.118 3.117 3.118 1.36 0 2.504-.876 2.93-2.09v18.042c-.426-1.214-1.571-2.089-2.93-2.089-1.722 0-3.117 1.396-3.117 3.117 0 1.722 1.396 3.118 3.117 3.118 1.36 0 2.504-.876 2.93-2.09v8.165c-6.193-.97-12.537-1.478-18.998-1.478s-12.806.508-18.999 1.478zm18.999 495.644c-62.987 0-114.23-51.243-114.23-114.229 0-62.987 51.244-114.23 114.23-114.23s114.23 51.243 114.23 114.23c-.001 62.986-51.244 114.229-114.23 114.229z"/><path d="m389.361 305.406c-46.344 0-84.047 37.704-84.047 84.048 0 46.343 37.703 84.047 84.047 84.047s84.047-37.704 84.047-84.047c-.001-46.345-37.704-84.048-84.047-84.048zm0 160.055c-41.911 0-76.008-34.097-76.008-76.008 0-41.912 34.097-76.008 76.008-76.008 41.91 0 76.007 34.097 76.007 76.008s-34.097 76.008-76.007 76.008z"/></g></svg>