<svg id="Capa_1" enable-background="new 0 0 511.631 511.631" height="512" viewBox="0 0 511.631 511.631" width="512" xmlns="http://www.w3.org/2000/svg"><g><path d="m494.96 209.71c1.713 0 3.102-1.389 3.102-3.102s-1.389-3.102-3.102-3.102-3.102 1.389-3.102 3.102 1.389 3.102 3.102 3.102z"/><path d="m494.96 229.71c1.713 0 3.102-1.389 3.102-3.102s-1.389-3.102-3.102-3.102-3.102 1.389-3.102 3.102 1.389 3.102 3.102 3.102z"/><path d="m494.96 249.71c1.713 0 3.102-1.389 3.102-3.102s-1.389-3.102-3.102-3.102-3.102 1.389-3.102 3.102 1.389 3.102 3.102 3.102z"/><path d="m494.96 269.711c1.713 0 3.102-1.389 3.102-3.102s-1.389-3.103-3.102-3.103-3.102 1.389-3.102 3.103 1.389 3.102 3.102 3.102z"/><path d="m494.96 289.711c1.713 0 3.102-1.389 3.102-3.102s-1.389-3.103-3.102-3.103-3.102 1.389-3.102 3.103 1.389 3.102 3.102 3.102z"/><path d="m494.96 309.711c1.713 0 3.102-1.389 3.102-3.102s-1.389-3.103-3.102-3.103-3.102 1.389-3.102 3.103 1.389 3.102 3.102 3.102z"/><path d="m474.96 169.71c1.713 0 3.102-1.389 3.102-3.102s-1.389-3.102-3.102-3.102-3.102 1.389-3.102 3.102 1.389 3.102 3.102 3.102z"/><path d="m485.337 179.334c1.713 0 3.102-1.389 3.102-3.102s-1.389-3.103-3.102-3.103-3.102 1.389-3.102 3.103c-.001 1.713 1.388 3.102 3.102 3.102z"/><path d="m474.96 189.71c1.713 0 3.102-1.389 3.102-3.102s-1.389-3.102-3.102-3.102-3.102 1.389-3.102 3.102 1.389 3.102 3.102 3.102z"/><path d="m485.337 199.334c1.713 0 3.102-1.389 3.102-3.102s-1.389-3.103-3.102-3.103-3.102 1.389-3.102 3.103c-.001 1.713 1.388 3.102 3.102 3.102z"/><path d="m474.96 209.71c1.713 0 3.102-1.389 3.102-3.102s-1.389-3.102-3.102-3.102-3.102 1.389-3.102 3.102 1.389 3.102 3.102 3.102z"/><path d="m485.337 219.334c1.713 0 3.102-1.389 3.102-3.102s-1.389-3.103-3.102-3.103-3.102 1.389-3.102 3.103c-.001 1.713 1.388 3.102 3.102 3.102z"/><path d="m474.96 229.71c1.713 0 3.102-1.389 3.102-3.102s-1.389-3.102-3.102-3.102-3.102 1.389-3.102 3.102 1.389 3.102 3.102 3.102z"/><path d="m485.337 239.334c1.713 0 3.102-1.389 3.102-3.102s-1.389-3.103-3.102-3.103-3.102 1.389-3.102 3.103c-.001 1.713 1.388 3.102 3.102 3.102z"/><path d="m474.96 249.71c1.713 0 3.102-1.389 3.102-3.102s-1.389-3.102-3.102-3.102-3.102 1.389-3.102 3.102 1.389 3.102 3.102 3.102z"/><path d="m485.337 259.334c1.713 0 3.102-1.389 3.102-3.102s-1.389-3.103-3.102-3.103-3.102 1.389-3.102 3.103c-.001 1.713 1.388 3.102 3.102 3.102z"/><path d="m474.96 269.711c1.713 0 3.102-1.389 3.102-3.102s-1.389-3.103-3.102-3.103-3.102 1.389-3.102 3.103 1.389 3.102 3.102 3.102z"/><path d="m485.337 279.334c1.713 0 3.102-1.389 3.102-3.102s-1.389-3.103-3.102-3.103-3.102 1.389-3.102 3.103c-.001 1.713 1.388 3.102 3.102 3.102z"/><path d="m474.96 289.711c1.713 0 3.102-1.389 3.102-3.102s-1.389-3.103-3.102-3.103-3.102 1.389-3.102 3.103 1.389 3.102 3.102 3.102z"/><path d="m485.337 299.334c1.713 0 3.102-1.389 3.102-3.102s-1.389-3.103-3.102-3.103-3.102 1.389-3.102 3.103c-.001 1.713 1.388 3.102 3.102 3.102z"/><path d="m474.96 309.711c1.713 0 3.102-1.389 3.102-3.102s-1.389-3.103-3.102-3.103-3.102 1.389-3.102 3.103 1.389 3.102 3.102 3.102z"/><path d="m485.337 319.334c1.713 0 3.102-1.389 3.102-3.102s-1.389-3.103-3.102-3.103-3.102 1.389-3.102 3.103c-.001 1.713 1.388 3.102 3.102 3.102z"/><path d="m474.96 329.711c1.713 0 3.102-1.389 3.102-3.102s-1.389-3.103-3.102-3.103-3.102 1.389-3.102 3.103 1.389 3.102 3.102 3.102z"/><path d="m485.337 339.334c1.713 0 3.102-1.389 3.102-3.102s-1.389-3.103-3.102-3.103-3.102 1.389-3.102 3.103c-.001 1.713 1.388 3.102 3.102 3.102z"/><path d="m474.96 349.711c1.713 0 3.102-1.389 3.102-3.102s-1.389-3.103-3.102-3.103-3.102 1.389-3.102 3.103 1.389 3.102 3.102 3.102z"/><path d="m465.337 133.129c-1.713 0-3.102 1.389-3.102 3.103 0 1.713 1.389 3.102 3.102 3.102s3.102-1.389 3.102-3.102-1.389-3.103-3.102-3.103z"/><path d="m465.337 213.129c-1.713 0-3.102 1.389-3.102 3.103 0 1.713 1.389 3.102 3.102 3.102s3.102-1.389 3.102-3.102-1.389-3.103-3.102-3.103z"/><path d="m465.337 233.129c-1.713 0-3.102 1.389-3.102 3.103 0 1.713 1.389 3.102 3.102 3.102s3.102-1.389 3.102-3.102-1.389-3.103-3.102-3.103z"/><path d="m465.337 253.129c-1.713 0-3.102 1.389-3.102 3.103 0 1.713 1.389 3.102 3.102 3.102s3.102-1.389 3.102-3.102-1.389-3.103-3.102-3.103z"/><path d="m465.337 273.129c-1.713 0-3.102 1.389-3.102 3.103 0 1.713 1.389 3.102 3.102 3.102s3.102-1.389 3.102-3.102-1.389-3.103-3.102-3.103z"/><path d="m454.96 283.506c-1.713 0-3.102 1.389-3.102 3.103s1.389 3.102 3.102 3.102 3.102-1.389 3.102-3.102-1.388-3.103-3.102-3.103z"/><path d="m465.337 293.129c-1.713 0-3.102 1.389-3.102 3.103 0 1.713 1.389 3.102 3.102 3.102s3.102-1.389 3.102-3.102-1.389-3.103-3.102-3.103z"/><path d="m454.96 303.506c-1.713 0-3.102 1.389-3.102 3.103s1.389 3.102 3.102 3.102 3.102-1.389 3.102-3.102-1.388-3.103-3.102-3.103z"/><path d="m465.337 313.129c-1.713 0-3.102 1.389-3.102 3.103 0 1.713 1.389 3.102 3.102 3.102s3.102-1.389 3.102-3.102-1.389-3.103-3.102-3.103z"/><path d="m454.96 323.506c-1.713 0-3.102 1.389-3.102 3.103s1.389 3.102 3.102 3.102 3.102-1.389 3.102-3.102-1.388-3.103-3.102-3.103z"/><path d="m465.337 333.129c-1.713 0-3.102 1.389-3.102 3.103 0 1.713 1.389 3.102 3.102 3.102s3.102-1.389 3.102-3.102-1.389-3.103-3.102-3.103z"/><path d="m454.96 343.506c-1.713 0-3.102 1.389-3.102 3.103s1.389 3.102 3.102 3.102 3.102-1.389 3.102-3.102-1.388-3.103-3.102-3.103z"/><path d="m465.337 353.129c-1.713 0-3.102 1.389-3.102 3.103 0 1.713 1.389 3.102 3.102 3.102s3.102-1.389 3.102-3.102-1.389-3.103-3.102-3.103z"/><path d="m454.96 363.506c-1.713 0-3.102 1.389-3.102 3.103s1.389 3.102 3.102 3.102 3.102-1.389 3.102-3.102-1.388-3.103-3.102-3.103z"/><path d="m465.337 373.129c-1.713 0-3.102 1.389-3.102 3.103 0 1.713 1.389 3.102 3.102 3.102s3.102-1.389 3.102-3.102-1.389-3.103-3.102-3.103z"/><path d="m434.96 109.711c1.713 0 3.102-1.389 3.102-3.102s-1.389-3.103-3.102-3.103-3.102 1.389-3.102 3.103 1.389 3.102 3.102 3.102z"/><path d="m445.337 119.334c1.713 0 3.102-1.389 3.102-3.102s-1.389-3.103-3.102-3.103-3.102 1.389-3.102 3.103c-.001 1.713 1.388 3.102 3.102 3.102z"/><path d="m436.264 123.802c.422 1.526.831 3.057 1.225 4.594.358-.506.573-1.12.573-1.787 0-1.247-.738-2.314-1.798-2.807z"/><path d="m445.337 139.334c1.713 0 3.102-1.389 3.102-3.102s-1.389-3.103-3.102-3.103-3.102 1.389-3.102 3.103c-.001 1.713 1.388 3.102 3.102 3.102z"/><path d="m445.337 153.129c-1.093 0-2.05.569-2.602 1.423.193 1.327.38 2.657.552 3.991.548.486 1.261.79 2.05.79 1.713 0 3.102-1.389 3.102-3.102 0-1.712-1.389-3.102-3.102-3.102z"/><path d="m445.337 173.129c-.203 0-.4.023-.592.06.143 2.033.26 4.074.355 6.121.08.006.156.024.238.024 1.713 0 3.102-1.389 3.102-3.102-.001-1.713-1.39-3.103-3.103-3.103z"/><path d="m445.358 193.132c-.016 2.07-.055 4.134-.121 6.192.034.001.066.01.1.01 1.713 0 3.102-1.389 3.102-3.102 0-1.706-1.378-3.088-3.081-3.1z"/><path d="m445.337 213.129c-.328 0-.638.065-.934.159-.165 1.889-.348 3.772-.554 5.649.444.245.946.396 1.488.396 1.713 0 3.102-1.389 3.102-3.102 0-1.712-1.389-3.102-3.102-3.102z"/><path d="m445.337 239.334c1.713 0 3.102-1.389 3.102-3.102s-1.389-3.103-3.102-3.103-3.102 1.389-3.102 3.103c-.001 1.713 1.388 3.102 3.102 3.102z"/><path d="m434.96 263.506c-.053 0-.102.013-.155.016-.556 1.854-1.132 3.7-1.729 5.536.524.403 1.172.653 1.884.653 1.713 0 3.102-1.389 3.102-3.102s-1.388-3.103-3.102-3.103z"/><path d="m445.337 313.129c-1.713 0-3.102 1.389-3.102 3.103 0 1.713 1.389 3.102 3.102 3.102s3.102-1.389 3.102-3.102-1.389-3.103-3.102-3.103z"/><path d="m434.96 323.506c-1.713 0-3.102 1.389-3.102 3.103s1.389 3.102 3.102 3.102 3.102-1.389 3.102-3.102-1.388-3.103-3.102-3.103z"/><path d="m445.337 333.129c-1.713 0-3.102 1.389-3.102 3.103 0 1.713 1.389 3.102 3.102 3.102s3.102-1.389 3.102-3.102-1.389-3.103-3.102-3.103z"/><path d="m434.96 343.506c-1.713 0-3.102 1.389-3.102 3.103s1.389 3.102 3.102 3.102 3.102-1.389 3.102-3.102-1.388-3.103-3.102-3.103z"/><path d="m445.337 353.129c-1.713 0-3.102 1.389-3.102 3.103 0 1.713 1.389 3.102 3.102 3.102s3.102-1.389 3.102-3.102-1.389-3.103-3.102-3.103z"/><path d="m434.96 363.506c-1.713 0-3.102 1.389-3.102 3.103s1.389 3.102 3.102 3.102 3.102-1.389 3.102-3.102-1.388-3.103-3.102-3.103z"/><path d="m434.96 389.711c1.713 0 3.102-1.389 3.102-3.102s-1.389-3.103-3.102-3.103-3.102 1.389-3.102 3.103 1.389 3.102 3.102 3.102z"/><path d="m445.337 399.334c1.713 0 3.102-1.389 3.102-3.102s-1.389-3.103-3.102-3.103-3.102 1.389-3.102 3.103c-.001 1.713 1.388 3.102 3.102 3.102z"/><path d="m434.96 409.711c1.713 0 3.102-1.389 3.102-3.102s-1.389-3.103-3.102-3.103-3.102 1.389-3.102 3.103 1.389 3.102 3.102 3.102z"/><path d="m428.439 96.232c0-1.627-1.257-2.946-2.85-3.077.714 1.688 1.411 3.385 2.089 5.092.468-.543.761-1.242.761-2.015z"/><path d="m425.337 299.334c1.713 0 3.102-1.389 3.102-3.102s-1.389-3.103-3.102-3.103c-.63 0-1.215.191-1.705.514-.445.997-.9 1.99-1.358 2.98.194 1.527 1.484 2.711 3.063 2.711z"/><path d="m418.062 306.608c0-.335-.067-.652-.165-.955-.672 1.314-1.368 2.615-2.062 3.916 1.284-.379 2.227-1.553 2.227-2.961z"/><path d="m414.96 329.711c1.713 0 3.102-1.389 3.102-3.102s-1.389-3.103-3.102-3.103-3.102 1.389-3.102 3.103 1.389 3.102 3.102 3.102z"/><path d="m425.337 353.129c-1.713 0-3.102 1.389-3.102 3.103 0 1.713 1.389 3.102 3.102 3.102s3.102-1.389 3.102-3.102-1.389-3.103-3.102-3.103z"/><path d="m414.96 383.506c-1.713 0-3.102 1.389-3.102 3.103s1.389 3.102 3.102 3.102 3.102-1.389 3.102-3.102-1.388-3.103-3.102-3.103z"/><path d="m425.337 393.129c-1.713 0-3.102 1.389-3.102 3.103 0 1.713 1.389 3.102 3.102 3.102s3.102-1.389 3.102-3.102-1.389-3.103-3.102-3.103z"/><path d="m414.96 403.506c-1.713 0-3.102 1.389-3.102 3.103s1.389 3.102 3.102 3.102 3.102-1.389 3.102-3.102-1.388-3.103-3.102-3.103z"/><path d="m425.337 413.129c-1.713 0-3.102 1.389-3.102 3.103 0 1.713 1.389 3.102 3.102 3.102s3.102-1.389 3.102-3.102-1.389-3.103-3.102-3.103z"/><path d="m414.96 423.506c-1.713 0-3.102 1.389-3.102 3.103s1.389 3.102 3.102 3.102 3.102-1.389 3.102-3.102-1.388-3.103-3.102-3.103z"/><path d="m405.337 339.334c1.713 0 3.102-1.389 3.102-3.102s-1.389-3.103-3.102-3.103-3.102 1.389-3.102 3.103c-.001 1.713 1.388 3.102 3.102 3.102z"/><path d="m394.96 349.711c1.713 0 3.102-1.389 3.102-3.102s-1.389-3.103-3.102-3.103c-.373 0-.726.077-1.057.197-.67.879-1.336 1.761-2.017 2.631-.008.092-.028.18-.028.274 0 1.714 1.389 3.103 3.102 3.103z"/><path d="m405.337 373.129c-1.713 0-3.102 1.389-3.102 3.103 0 1.713 1.389 3.102 3.102 3.102s3.102-1.389 3.102-3.102-1.389-3.103-3.102-3.103z"/><path d="m394.96 383.506c-1.713 0-3.102 1.389-3.102 3.103s1.389 3.102 3.102 3.102 3.102-1.389 3.102-3.102-1.388-3.103-3.102-3.103z"/><path d="m405.337 393.129c-1.713 0-3.102 1.389-3.102 3.103 0 1.713 1.389 3.102 3.102 3.102s3.102-1.389 3.102-3.102-1.389-3.103-3.102-3.103z"/><path d="m394.96 403.506c-1.713 0-3.102 1.389-3.102 3.103s1.389 3.102 3.102 3.102 3.102-1.389 3.102-3.102-1.388-3.103-3.102-3.103z"/><path d="m405.337 413.129c-1.713 0-3.102 1.389-3.102 3.103 0 1.713 1.389 3.102 3.102 3.102s3.102-1.389 3.102-3.102-1.389-3.103-3.102-3.103z"/><path d="m394.96 423.506c-1.713 0-3.102 1.389-3.102 3.103s1.389 3.102 3.102 3.102 3.102-1.389 3.102-3.102-1.388-3.103-3.102-3.103z"/><path d="m405.337 433.129c-1.713 0-3.102 1.389-3.102 3.103 0 1.713 1.389 3.102 3.102 3.102s3.102-1.389 3.102-3.102-1.389-3.103-3.102-3.103z"/><path d="m376.655 364.015c-1.393 1.475-2.803 2.932-4.23 4.373.561.798 1.486 1.323 2.535 1.323 1.713 0 3.102-1.389 3.102-3.102 0-1.087-.561-2.041-1.407-2.594z"/><path d="m385.337 373.129c-1.713 0-3.102 1.389-3.102 3.103 0 1.713 1.389 3.102 3.102 3.102s3.102-1.389 3.102-3.102-1.389-3.103-3.102-3.103z"/><path d="m374.96 383.506c-1.713 0-3.102 1.389-3.102 3.103s1.389 3.102 3.102 3.102 3.102-1.389 3.102-3.102-1.388-3.103-3.102-3.103z"/><path d="m385.337 393.129c-1.713 0-3.102 1.389-3.102 3.103 0 1.713 1.389 3.102 3.102 3.102s3.102-1.389 3.102-3.102-1.389-3.103-3.102-3.103z"/><path d="m374.96 403.506c-1.713 0-3.102 1.389-3.102 3.103s1.389 3.102 3.102 3.102 3.102-1.389 3.102-3.102-1.388-3.103-3.102-3.103z"/><path d="m385.337 413.129c-1.713 0-3.102 1.389-3.102 3.103 0 1.713 1.389 3.102 3.102 3.102s3.102-1.389 3.102-3.102-1.389-3.103-3.102-3.103z"/><path d="m374.96 423.506c-1.713 0-3.102 1.389-3.102 3.103s1.389 3.102 3.102 3.102 3.102-1.389 3.102-3.102-1.388-3.103-3.102-3.103z"/><path d="m385.337 433.129c-1.713 0-3.102 1.389-3.102 3.103 0 1.713 1.389 3.102 3.102 3.102s3.102-1.389 3.102-3.102-1.389-3.103-3.102-3.103z"/><path d="m385.337 459.334c1.713 0 3.102-1.389 3.102-3.102s-1.389-3.103-3.102-3.103-3.102 1.389-3.102 3.103c-.001 1.713 1.388 3.102 3.102 3.102z"/><path d="m374.96 469.711c1.713 0 3.102-1.389 3.102-3.102s-1.389-3.103-3.102-3.103-3.102 1.389-3.102 3.103 1.389 3.102 3.102 3.102z"/><path d="m367.06 373.653c-1.455 1.383-2.926 2.75-4.413 4.098.533.941 1.531 1.583 2.689 1.583 1.713 0 3.102-1.389 3.102-3.102.001-1.076-.547-2.022-1.378-2.579z"/><path d="m355.873 383.658c-1.316 1.11-2.642 2.208-3.981 3.292.172 1.55 1.472 2.76 3.068 2.76 1.713 0 3.102-1.389 3.102-3.102 0-1.393-.924-2.558-2.189-2.95z"/><path d="m365.337 393.129c-1.713 0-3.102 1.389-3.102 3.103 0 1.713 1.389 3.102 3.102 3.102s3.102-1.389 3.102-3.102-1.389-3.103-3.102-3.103z"/><path d="m354.96 403.506c-1.713 0-3.102 1.389-3.102 3.103s1.389 3.102 3.102 3.102 3.102-1.389 3.102-3.102-1.388-3.103-3.102-3.103z"/><path d="m365.337 413.129c-1.713 0-3.102 1.389-3.102 3.103 0 1.713 1.389 3.102 3.102 3.102s3.102-1.389 3.102-3.102-1.389-3.103-3.102-3.103z"/><path d="m354.96 449.711c1.713 0 3.102-1.389 3.102-3.102s-1.389-3.103-3.102-3.103-3.102 1.389-3.102 3.103 1.389 3.102 3.102 3.102z"/><path d="m365.337 459.334c1.713 0 3.102-1.389 3.102-3.102s-1.389-3.103-3.102-3.103-3.102 1.389-3.102 3.103c-.001 1.713 1.388 3.102 3.102 3.102z"/><path d="m354.96 469.711c1.713 0 3.102-1.389 3.102-3.102s-1.389-3.103-3.102-3.103-3.102 1.389-3.102 3.103 1.389 3.102 3.102 3.102z"/><path d="m345.337 393.129c-1.713 0-3.102 1.389-3.102 3.103 0 1.713 1.389 3.102 3.102 3.102s3.102-1.389 3.102-3.102-1.389-3.103-3.102-3.103z"/><path d="m334.96 403.506c-1.713 0-3.102 1.389-3.102 3.103s1.389 3.102 3.102 3.102 3.102-1.389 3.102-3.102-1.388-3.103-3.102-3.103z"/><path d="m345.337 413.129c-1.713 0-3.102 1.389-3.102 3.103 0 1.713 1.389 3.102 3.102 3.102s3.102-1.389 3.102-3.102-1.389-3.103-3.102-3.103z"/><path d="m334.96 449.711c1.713 0 3.102-1.389 3.102-3.102s-1.389-3.103-3.102-3.103-3.102 1.389-3.102 3.103 1.389 3.102 3.102 3.102z"/><path d="m345.337 459.334c1.713 0 3.102-1.389 3.102-3.102s-1.389-3.103-3.102-3.103-3.102 1.389-3.102 3.103c-.001 1.713 1.388 3.102 3.102 3.102z"/><path d="m334.96 469.711c1.713 0 3.102-1.389 3.102-3.102s-1.389-3.103-3.102-3.103-3.102 1.389-3.102 3.103 1.389 3.102 3.102 3.102z"/><path d="m345.337 479.334c1.713 0 3.102-1.389 3.102-3.102s-1.389-3.103-3.102-3.103-3.102 1.389-3.102 3.103c-.001 1.713 1.388 3.102 3.102 3.102z"/><path d="m334.96 489.711c1.713 0 3.102-1.389 3.102-3.102s-1.389-3.103-3.102-3.103-3.102 1.389-3.102 3.103 1.389 3.102 3.102 3.102z"/><path d="m314.96 429.711c1.713 0 3.102-1.389 3.102-3.102s-1.389-3.103-3.102-3.103-3.102 1.389-3.102 3.103 1.389 3.102 3.102 3.102z"/><path d="m325.337 439.334c1.713 0 3.102-1.389 3.102-3.102s-1.389-3.103-3.102-3.103-3.102 1.389-3.102 3.103c-.001 1.713 1.388 3.102 3.102 3.102z"/><path d="m314.96 449.711c1.713 0 3.102-1.389 3.102-3.102s-1.389-3.103-3.102-3.103-3.102 1.389-3.102 3.103 1.389 3.102 3.102 3.102z"/><path d="m325.337 459.334c1.713 0 3.102-1.389 3.102-3.102s-1.389-3.103-3.102-3.103-3.102 1.389-3.102 3.103c-.001 1.713 1.388 3.102 3.102 3.102z"/><path d="m314.96 469.711c1.713 0 3.102-1.389 3.102-3.102s-1.389-3.103-3.102-3.103-3.102 1.389-3.102 3.103 1.389 3.102 3.102 3.102z"/><path d="m325.337 479.334c1.713 0 3.102-1.389 3.102-3.102s-1.389-3.103-3.102-3.103-3.102 1.389-3.102 3.103c-.001 1.713 1.388 3.102 3.102 3.102z"/><path d="m314.96 489.711c1.713 0 3.102-1.389 3.102-3.102s-1.389-3.103-3.102-3.103-3.102 1.389-3.102 3.103 1.389 3.102 3.102 3.102z"/><path d="m305.337 419.334c1.713 0 3.102-1.389 3.102-3.102 0-.304-.057-.591-.138-.868-1.803.925-3.619 1.828-5.448 2.71.566.761 1.463 1.26 2.484 1.26z"/><path d="m294.96 429.711c1.713 0 3.102-1.389 3.102-3.102s-1.389-3.103-3.102-3.103-3.102 1.389-3.102 3.103 1.389 3.102 3.102 3.102z"/><path d="m305.337 439.334c1.713 0 3.102-1.389 3.102-3.102s-1.389-3.103-3.102-3.103-3.102 1.389-3.102 3.103c-.001 1.713 1.388 3.102 3.102 3.102z"/><path d="m294.96 449.711c1.713 0 3.102-1.389 3.102-3.102s-1.389-3.103-3.102-3.103-3.102 1.389-3.102 3.103 1.389 3.102 3.102 3.102z"/><path d="m305.337 459.334c1.713 0 3.102-1.389 3.102-3.102s-1.389-3.103-3.102-3.103-3.102 1.389-3.102 3.103c-.001 1.713 1.388 3.102 3.102 3.102z"/><path d="m294.96 469.711c1.713 0 3.102-1.389 3.102-3.102s-1.389-3.103-3.102-3.103-3.102 1.389-3.102 3.103 1.389 3.102 3.102 3.102z"/><path d="m305.337 479.334c1.713 0 3.102-1.389 3.102-3.102s-1.389-3.103-3.102-3.103-3.102 1.389-3.102 3.103c-.001 1.713 1.388 3.102 3.102 3.102z"/><path d="m277.227 428.713c-.902.318-1.8.646-2.707.953.145.021.289.045.44.045.899 0 1.701-.388 2.267-.998z"/><path d="m285.337 439.334c1.713 0 3.102-1.389 3.102-3.102s-1.389-3.103-3.102-3.103-3.102 1.389-3.102 3.103c-.001 1.713 1.388 3.102 3.102 3.102z"/><path d="m274.96 449.711c1.713 0 3.102-1.389 3.102-3.102s-1.389-3.103-3.102-3.103-3.102 1.389-3.102 3.103 1.389 3.102 3.102 3.102z"/><path d="m285.337 459.334c1.713 0 3.102-1.389 3.102-3.102s-1.389-3.103-3.102-3.103-3.102 1.389-3.102 3.103c-.001 1.713 1.388 3.102 3.102 3.102z"/><path d="m274.96 463.506c-1.713 0-3.102 1.389-3.102 3.103s1.389 3.102 3.102 3.102 3.102-1.389 3.102-3.102-1.388-3.103-3.102-3.103z"/><path d="m285.337 479.334c1.713 0 3.102-1.389 3.102-3.102s-1.389-3.103-3.102-3.103-3.102 1.389-3.102 3.103c-.001 1.713 1.388 3.102 3.102 3.102z"/><path d="m285.337 499.334c1.713 0 3.102-1.389 3.102-3.102s-1.389-3.103-3.102-3.103-3.102 1.389-3.102 3.103c-.001 1.713 1.388 3.102 3.102 3.102z"/><path d="m265.337 433.129c-1.713 0-3.102 1.389-3.102 3.103 0 1.713 1.389 3.102 3.102 3.102s3.102-1.389 3.102-3.102-1.389-3.103-3.102-3.103z"/><path d="m254.96 443.506c-1.713 0-3.102 1.389-3.102 3.103s1.389 3.102 3.102 3.102 3.102-1.389 3.102-3.102-1.388-3.103-3.102-3.103z"/><path d="m265.337 453.129c-1.713 0-3.102 1.389-3.102 3.103 0 1.713 1.389 3.102 3.102 3.102s3.102-1.389 3.102-3.102-1.389-3.103-3.102-3.103z"/><path d="m254.96 489.711c1.713 0 3.102-1.389 3.102-3.102s-1.389-3.103-3.102-3.103-3.102 1.389-3.102 3.103 1.389 3.102 3.102 3.102z"/><path d="m265.337 499.334c1.713 0 3.102-1.389 3.102-3.102s-1.389-3.103-3.102-3.103-3.102 1.389-3.102 3.103c-.001 1.713 1.388 3.102 3.102 3.102z"/><path d="m245.337 439.334c1.456 0 2.67-1.007 3.003-2.361-1.809.401-3.624.787-5.447 1.149.567.732 1.446 1.212 2.444 1.212z"/><path d="m234.96 443.506c-1.713 0-3.102 1.389-3.102 3.103s1.389 3.102 3.102 3.102 3.102-1.389 3.102-3.102-1.388-3.103-3.102-3.103z"/><path d="m245.337 453.129c-1.713 0-3.102 1.389-3.102 3.103 0 1.713 1.389 3.102 3.102 3.102s3.102-1.389 3.102-3.102-1.389-3.103-3.102-3.103z"/><path d="m245.337 479.334c1.713 0 3.102-1.389 3.102-3.102s-1.389-3.103-3.102-3.103-3.102 1.389-3.102 3.103c-.001 1.713 1.388 3.102 3.102 3.102z"/><path d="m234.96 489.711c1.713 0 3.102-1.389 3.102-3.102s-1.389-3.103-3.102-3.103-3.102 1.389-3.102 3.103 1.389 3.102 3.102 3.102z"/><path d="m245.337 499.334c1.713 0 3.102-1.389 3.102-3.102s-1.389-3.103-3.102-3.103-3.102 1.389-3.102 3.103c-.001 1.713 1.388 3.102 3.102 3.102z"/><path d="m214.96 469.711c1.713 0 3.102-1.389 3.102-3.102s-1.389-3.103-3.102-3.103-3.102 1.389-3.102 3.103 1.389 3.102 3.102 3.102z"/><path d="m225.337 479.334c1.713 0 3.102-1.389 3.102-3.102s-1.389-3.103-3.102-3.103-3.102 1.389-3.102 3.103c-.001 1.713 1.388 3.102 3.102 3.102z"/><path d="m214.96 489.711c1.713 0 3.102-1.389 3.102-3.102s-1.389-3.103-3.102-3.103-3.102 1.389-3.102 3.103 1.389 3.102 3.102 3.102z"/><path d="m225.337 499.334c1.713 0 3.102-1.389 3.102-3.102s-1.389-3.103-3.102-3.103-3.102 1.389-3.102 3.103c-.001 1.713 1.388 3.102 3.102 3.102z"/><path d="m194.96 449.711c1.713 0 3.102-1.389 3.102-3.102s-1.389-3.103-3.102-3.103-3.102 1.389-3.102 3.103 1.389 3.102 3.102 3.102z"/><path d="m205.337 459.334c1.713 0 3.102-1.389 3.102-3.102s-1.389-3.103-3.102-3.103-3.102 1.389-3.102 3.103c-.001 1.713 1.388 3.102 3.102 3.102z"/><path d="m194.96 469.711c1.713 0 3.102-1.389 3.102-3.102s-1.389-3.103-3.102-3.103-3.102 1.389-3.102 3.103 1.389 3.102 3.102 3.102z"/><path d="m205.337 479.334c1.713 0 3.102-1.389 3.102-3.102s-1.389-3.103-3.102-3.103-3.102 1.389-3.102 3.103c-.001 1.713 1.388 3.102 3.102 3.102z"/><path d="m194.96 489.711c1.713 0 3.102-1.389 3.102-3.102s-1.389-3.103-3.102-3.103-3.102 1.389-3.102 3.103 1.389 3.102 3.102 3.102z"/><path d="m174.96 449.711c1.713 0 3.102-1.389 3.102-3.102s-1.389-3.103-3.102-3.103-3.102 1.389-3.102 3.103 1.389 3.102 3.102 3.102z"/><path d="m185.337 459.334c1.713 0 3.102-1.389 3.102-3.102s-1.389-3.103-3.102-3.103-3.102 1.389-3.102 3.103c-.001 1.713 1.388 3.102 3.102 3.102z"/><path d="m174.96 469.711c1.713 0 3.102-1.389 3.102-3.102s-1.389-3.103-3.102-3.103-3.102 1.389-3.102 3.103 1.389 3.102 3.102 3.102z"/><path d="m185.337 479.334c1.713 0 3.102-1.389 3.102-3.102s-1.389-3.103-3.102-3.103-3.102 1.389-3.102 3.103c-.001 1.713 1.388 3.102 3.102 3.102z"/><path d="m174.96 489.711c1.713 0 3.102-1.389 3.102-3.102s-1.389-3.103-3.102-3.103-3.102 1.389-3.102 3.103 1.389 3.102 3.102 3.102z"/><path d="m154.96 449.711c1.713 0 3.102-1.389 3.102-3.102s-1.389-3.103-3.102-3.103-3.102 1.389-3.102 3.103 1.389 3.102 3.102 3.102z"/><path d="m165.337 459.334c1.713 0 3.102-1.389 3.102-3.102s-1.389-3.103-3.102-3.103-3.102 1.389-3.102 3.103c-.001 1.713 1.388 3.102 3.102 3.102z"/><path d="m154.96 469.711c1.713 0 3.102-1.389 3.102-3.102s-1.389-3.103-3.102-3.103-3.102 1.389-3.102 3.103 1.389 3.102 3.102 3.102z"/><path d="m165.337 479.334c1.713 0 3.102-1.389 3.102-3.102s-1.389-3.103-3.102-3.103-3.102 1.389-3.102 3.103c-.001 1.713 1.388 3.102 3.102 3.102z"/><path d="m145.337 439.334c.701 0 1.341-.242 1.861-.634-1.509-.281-3.014-.573-4.513-.881.542.904 1.521 1.515 2.652 1.515z"/><path d="m134.96 449.711c1.713 0 3.102-1.389 3.102-3.102s-1.389-3.103-3.102-3.103-3.102 1.389-3.102 3.103 1.389 3.102 3.102 3.102z"/><path d="m145.337 459.334c1.713 0 3.102-1.389 3.102-3.102s-1.389-3.103-3.102-3.103-3.102 1.389-3.102 3.103c-.001 1.713 1.388 3.102 3.102 3.102z"/><path d="m134.96 469.711c1.713 0 3.102-1.389 3.102-3.102s-1.389-3.103-3.102-3.103-3.102 1.389-3.102 3.103 1.389 3.102 3.102 3.102z"/><path d="m125.337 439.334c1.713 0 3.102-1.389 3.102-3.102 0-.754-.279-1.435-.726-1.972-1.139-.308-2.278-.617-3.41-.94-1.202.427-2.069 1.563-2.069 2.913 0 1.712 1.389 3.101 3.103 3.101z"/><path d="m114.96 449.711c1.713 0 3.102-1.389 3.102-3.102s-1.389-3.103-3.102-3.103-3.102 1.389-3.102 3.103 1.389 3.102 3.102 3.102z"/><path d="m125.337 459.334c1.713 0 3.102-1.389 3.102-3.102s-1.389-3.103-3.102-3.103-3.102 1.389-3.102 3.103c-.001 1.713 1.388 3.102 3.102 3.102z"/><path d="m94.96 429.711c1.713 0 3.102-1.389 3.102-3.102s-1.389-3.103-3.102-3.103-3.102 1.389-3.102 3.103 1.389 3.102 3.102 3.102z"/><path d="m105.337 439.334c1.713 0 3.102-1.389 3.102-3.102s-1.389-3.103-3.102-3.103-3.102 1.389-3.102 3.103c-.001 1.713 1.388 3.102 3.102 3.102z"/><path d="m85.337 419.334c.402 0 .784-.083 1.137-.222-1.369-.644-2.731-1.299-4.086-1.967.391 1.265 1.556 2.189 2.949 2.189z"/><path d="m436.704 74.927c-48.317-48.318-112.558-74.927-180.889-74.927s-132.571 26.609-180.889 74.927c-27.225 27.226-47.556 59.507-60.12 94.727-.058.062-.118.121-.176.183l.086.081c-9.673 27.208-14.716 56.165-14.716 85.898 0 68.331 26.61 132.572 74.926 180.889 48.317 48.317 112.558 74.927 180.889 74.927s132.572-26.609 180.889-74.927c48.317-48.317 74.927-112.558 74.927-180.889s-26.609-132.572-74.927-180.889zm-23.778-10.639c-.441.392-.776.9-.94 1.485.727 1.264 1.443 2.535 2.148 3.812.264.073.538.125.826.125 1.119 0 2.092-.598 2.637-1.487 2.048 1.769 4.063 3.576 6.052 5.41-.85.554-1.415 1.509-1.415 2.599 0 1.713 1.389 3.102 3.102 3.102 1.155 0 2.15-.638 2.684-1.574 2.008 1.942 3.978 3.923 5.919 5.931-1.209.423-2.082 1.563-2.082 2.917 0 1.713 1.389 3.102 3.102 3.102 1.29 0 2.396-.789 2.863-1.91 1.855 2.008 3.683 4.043 5.472 6.111-.646.569-1.061 1.392-1.061 2.32 0 1.713 1.389 3.102 3.102 3.102.739 0 1.408-.269 1.941-.7.25.304.507.6.756.905 1.638 8.658 2.99 17.286 4.062 25.881-.152.366-.238.767-.238 1.189 0 .67.218 1.287.579 1.794.599 5.107 1.106 10.204 1.505 15.288-1.211.423-2.085 1.562-2.085 2.917 0 1.51 1.08 2.765 2.509 3.042.293 4.63.49 9.248.617 13.857-.008 0-.016-.002-.024-.002-1.713 0-3.102 1.389-3.102 3.102s1.389 3.102 3.102 3.102c.051 0 .099-.013.15-.015.052 4.616.029 9.223-.086 13.817-.022-.001-.042-.006-.064-.006-1.713 0-3.102 1.389-3.102 3.102 0 1.661 1.308 3.005 2.949 3.086-.194 4.674-.472 9.337-.839 13.988-1.223.415-2.109 1.561-2.109 2.925 0 1.181.668 2.195 1.639 2.719-1.398 14.826-3.7 29.525-6.867 44.092-.395-.182-.83-.29-1.293-.29-1.713 0-3.102 1.389-3.102 3.103 0 1.704 1.375 3.084 3.075 3.099-2.097 8.942-4.543 17.831-7.309 26.666-.284-1.42-1.537-2.491-3.04-2.491-1.713 0-3.102 1.389-3.102 3.103s1.389 3.102 3.102 3.102c.831 0 1.583-.332 2.139-.864-2.762 8.589-5.828 17.129-9.222 25.612-.561-.802-1.488-1.329-2.541-1.329-1.713 0-3.102 1.389-3.102 3.103 0 1.713 1.389 3.102 3.102 3.102.191 0 .376-.023.558-.056-3.377 8.13-7.044 16.209-11.004 24.235-1.68.038-3.033 1.406-3.033 3.096 0 .673.219 1.291.583 1.799-1.309 2.568-2.647 5.132-4.016 7.689-.072-1.649-1.422-2.967-3.089-2.967-1.713 0-3.102 1.389-3.102 3.103 0 1.713 1.389 3.102 3.102 3.102.577 0 1.111-.168 1.574-.443-.559 1.027-1.102 2.058-1.671 3.083-5.967-2.463-11.847-5.087-17.652-7.853-.369-.389-.833-.688-1.36-.847-.036.044-.074.086-.111.128-15.63-7.534-30.684-16.156-45.171-25.943 44.39-92.213 55.691-197.469 31.333-290.369 14.466 7.735 28.073 16.863 40.65 27.199zm-50.213-32.058c26.194 92.365 15.815 198.09-28.406 290.635-26.107-18.482-50.393-40.763-73.089-66.955 14.358-42.101 21.879-84.513 22.349-126.065.458-40.542-5.783-81.44-18.551-121.69 34.868 1.281 67.923 9.782 97.697 24.075zm-106.898-24.263c.255 0 .507.009.761.01 5.185 15.98 9.31 32.037 12.361 48.156-97.476 9.125-179.791 43.249-239.632 99.124 38.641-86.697 125.628-147.29 226.51-147.29zm-247.848 247.849c0-28.766 4.943-56.395 13.995-82.104 59.443-62.289 145.227-100.182 248.38-109.71 4.677 27.92 6.151 56.015 4.441 84.193-47.984 4.554-98.186 18.444-145.425 40.268-47.669 22.022-89.27 50.874-120.836 83.731-.355-5.416-.555-10.874-.555-16.378zm1.48 27.033c61.816-67.468 165.199-116.82 264.761-126.599-2.478 30.137-8.594 60.361-18.368 90.566-.068.01-.134.006-.202.019-43.773 8.671-84.371 23.454-120.668 43.938-36.421 20.554-69.587 47.479-98.659 80.032-14.103-26.816-23.436-56.51-26.864-87.956zm322.622 144.862c.446 1.167 1.568 2 2.891 2 .302 0 .588-.057.865-.137 2.713 1.329 5.431 2.622 8.153 3.882-1.029.505-1.744 1.553-1.744 2.777 0 1.713 1.389 3.102 3.102 3.102s3.102-1.389 3.102-3.102c0-.278-.048-.542-.117-.799 7.941 3.558 15.914 6.813 23.893 9.758-.221.427-.358.904-.358 1.418 0 1.713 1.389 3.102 3.102 3.102 1.485 0 2.723-1.045 3.027-2.439 8.2 2.871 16.401 5.407 24.574 7.599-.115.233-.211.477-.264.738-10.679 7.851-22.01 14.861-33.891 20.946.011-.107.033-.212.033-.323 0-1.713-1.389-3.103-3.102-3.103s-3.102 1.389-3.102 3.103c0 1.128.609 2.106 1.51 2.649-11.91 5.786-24.348 10.645-37.224 14.484-.365-.151-.764-.236-1.183-.236-.662 0-1.273.211-1.777.565-8.685-2.265-17.236-4.932-25.638-7.96-.379-1.285-1.554-2.228-2.962-2.228-.626 0-1.207.189-1.695.508-12.193-4.616-24.067-9.979-35.576-15.96.23-.433.373-.92.373-1.445 0-1.713-1.389-3.103-3.102-3.103-1.184 0-2.201.671-2.724 1.647-66.432-35.991-120.296-92.108-153.242-141.236 21.072-15.768 43.657-29.192 67.691-40.24 27.183 40.172 63.775 77.44 105.954 107.872 19.2 13.851 39.154 25.97 59.431 36.161zm-254.348.284c.211-.419.341-.886.341-1.387 0-1.713-1.389-3.103-3.102-3.103-.442 0-.86.095-1.241.262-1.891-2.049-3.749-4.129-5.571-6.242.182-.395.291-.831.291-1.294 0-1.713-1.389-3.103-3.102-3.103-.275 0-.537.047-.792.115-9.014-10.933-17.117-22.644-24.178-35.025 16.174-18.363 33.624-34.858 52.301-49.464 26.039 38.774 59.456 74.808 96.848 104.349 10.698 8.452 21.645 16.259 32.749 23.429.154 1.57 1.462 2.801 3.072 2.801.353 0 .687-.072 1.004-.181 2.48 1.56 4.968 3.087 7.463 4.581-1.139.459-1.946 1.571-1.946 2.875 0 1.713 1.389 3.102 3.102 3.102s3.102-1.389 3.102-3.102c0-.139-.023-.271-.041-.405 11.568 6.731 23.265 12.746 35.011 17.991-.711.569-1.175 1.433-1.175 2.414 0 1.713 1.389 3.102 3.102 3.102s3.102-1.389 3.102-3.102c0-.073-.016-.141-.021-.212 8.078 3.455 16.171 6.543 24.252 9.254-.036.188-.059.382-.059.581 0 1.183.67 2.199 1.644 2.722-15.532 3.068-31.572 4.704-47.99 4.709-.295-.093-.603-.157-.928-.157-.309 0-.602.059-.883.143-16.092-.111-31.824-1.763-47.056-4.817.852-.553 1.419-1.508 1.419-2.6 0-1.713-1.389-3.103-3.102-3.103s-3.102 1.389-3.102 3.103c0 .63.191 1.215.513 1.704-5.115-1.12-10.17-2.399-15.162-3.831-.565-.598-1.361-.976-2.249-.976-.258 0-.505.04-.745.1-12.902-3.878-25.367-8.777-37.295-14.611.692-.569 1.142-1.421 1.142-2.386 0-1.713-1.389-3.103-3.102-3.103-1.658 0-2.999 1.304-3.086 2.94-12.035-6.232-23.496-13.42-34.284-21.465-.406-.654-1.046-1.139-1.806-1.35-2.753-2.092-5.456-4.247-8.118-6.449.004-.066.019-.129.019-.197 0-1.713-1.389-3.103-3.102-3.103-.249 0-.487.037-.719.092-2.141-1.845-4.252-3.724-6.328-5.639.332-.494.526-1.087.526-1.727 0-1.713-1.389-3.103-3.102-3.103-.699 0-1.337.24-1.856.63-1.951-1.887-3.871-3.809-5.76-5.762zm230.032 70.16c.15-.189.282-.391.385-.611.334.104.669.222 1.003.325-.46.101-.926.187-1.388.286zm119.918-63.947c-.569-.655-1.398-1.079-2.334-1.079-1.713 0-3.102 1.389-3.102 3.103 0 .869.359 1.651.934 2.214-2.097 1.922-4.231 3.805-6.393 5.656-.511-.371-1.135-.596-1.815-.596-1.713 0-3.102 1.389-3.102 3.103 0 .482.12.934.316 1.341-.361.294-.716.595-1.078.887-4.451-1.095-8.91-2.302-13.372-3.609-.509-1.017-1.55-1.721-2.764-1.721-.565 0-1.087.163-1.544.426-8.41-2.59-16.821-5.548-25.204-8.85-.457-1.143-1.57-1.953-2.876-1.953-.459 0-.891.106-1.283.285-2.945-1.202-5.885-2.447-8.82-3.732 1.583-.141 2.829-1.455 2.829-3.075 0-1.713-1.389-3.103-3.102-3.103s-3.102 1.389-3.102 3.103c0 .706.245 1.349.642 1.871-8.095-3.619-16.141-7.552-24.109-11.771.024-.156.048-.313.048-.476 0-1.713-1.389-3.103-3.102-3.103-.804 0-1.53.314-2.082.816-58.426-31.984-112.218-79.402-149.181-133.569 24.18-10.499 49.784-18.646 76.754-24.404.081.121.151.246.246.36 29.016 34.369 61.444 62.879 96.382 84.736 14.351 8.979 29.341 16.941 44.88 23.9-.298.477-.478 1.036-.478 1.64 0 1.713 1.389 3.102 3.102 3.102 1.427 0 2.617-.969 2.978-2.281 7.982 3.419 16.108 6.567 24.366 9.452.299 1.401 1.542 2.453 3.032 2.453.757 0 1.441-.282 1.98-.732 8.084 2.7 16.296 5.138 24.622 7.324-.049.22-.081.447-.081.682 0 1.713 1.389 3.102 3.102 3.102 1.416 0 2.597-.954 2.969-2.251 2.253.554 4.509 1.099 6.778 1.616-3.165 4.944-6.511 9.76-10.009 14.456-1.589.135-2.84 1.453-2.84 3.076 0 .201.023.397.059.587-1.657 2.141-3.339 4.261-5.064 6.346-.45-.254-.963-.412-1.516-.412-1.713 0-3.102 1.389-3.102 3.103 0 .733.265 1.397.69 1.928-1.865 2.146-3.763 4.261-5.699 6.341-.566-.609-1.368-.995-2.265-.995-1.713 0-3.102 1.389-3.102 3.103 0 .949.435 1.787 1.106 2.356-1.738 1.776-3.506 3.521-5.294 5.244zm20.716-57.455c.029-.17.053-.343.053-.521 0-1.713-1.389-3.103-3.102-3.103-1.296 0-2.405.797-2.868 1.926-8.295-2.44-16.441-5.137-24.442-8.095.013-.117.036-.232.036-.353 0-1.713-1.389-3.103-3.102-3.103-.677 0-1.298.223-1.808.59 4.507-8.206 8.707-16.478 12.616-24.806 1.507-.212 2.671-1.493 2.671-3.059 0-.607-.181-1.169-.483-1.648 5.54-12.184 10.423-24.486 14.669-36.875.526.963 1.537 1.625 2.712 1.625 1.713 0 3.102-1.389 3.102-3.102s-1.389-3.103-3.102-3.103c-.445 0-.866.098-1.249.266 2.931-8.885 5.515-17.814 7.771-26.776.006 1.708 1.392 3.091 3.101 3.091 1.713 0 3.102-1.389 3.102-3.102s-1.389-3.103-3.102-3.103c-1.197 0-2.223.685-2.74 1.677 1.284-5.183 2.452-10.377 3.508-15.58 1.34-.343 2.335-1.548 2.335-2.995 0-1.021-.5-1.919-1.261-2.485.371-1.981.743-3.962 1.081-5.946 2.283-13.406 3.81-26.986 4.617-40.7.48 1.092 1.568 1.856 2.838 1.856 1.713 0 3.102-1.389 3.102-3.102s-1.389-3.103-3.102-3.103c-1.155 0-2.151.639-2.685 1.576.279-5.405.446-10.831.496-16.276.561.559 1.335.905 2.189.905 1.713 0 3.102-1.389 3.102-3.102s-1.389-3.103-3.102-3.103c-.848 0-1.616.342-2.176.895-.011-5.321-.131-10.659-.359-16.013.561.798 1.486 1.323 2.535 1.323 1.713 0 3.102-1.389 3.102-3.102s-1.389-3.103-3.102-3.103c-1.155 0-2.151.639-2.685 1.576-.698-13.733-2.094-27.563-4.213-41.461 6.988 9.902 13.265 20.339 18.767 31.232-.565-.595-1.359-.97-2.245-.97-1.713 0-3.102 1.389-3.102 3.102s1.389 3.102 3.102 3.102 3.102-1.389 3.102-3.102c0-.177-.024-.348-.052-.517 1.516 3.058 2.969 6.152 4.361 9.279-.08.275-.137.561-.137.862 0 1.213.703 2.252 1.717 2.762 3.482 8.17 6.543 16.56 9.143 25.149-.747.566-1.237 1.455-1.237 2.465 0 1.623 1.25 2.939 2.838 3.076 4.011 14.464 6.735 29.456 8.051 44.845-.323.489-.513 1.073-.513 1.703 0 .798.31 1.519.805 2.068.356 5.073.558 10.186.603 15.337-.846.554-1.408 1.507-1.408 2.595 0 1.085.56 2.038 1.404 2.592-.062 5.178-.284 10.317-.66 15.415-.457.54-.743 1.23-.743 1.994 0 .586.172 1.129.455 1.596-1.392 15.723-4.262 31.027-8.465 45.775-1.356.332-2.367 1.547-2.367 3.005 0 .821.325 1.563.846 2.118-2.641 8.556-5.73 16.917-9.246 25.052-.739.567-1.223 1.45-1.223 2.454 0 .094.019.183.028.274-1.386 3.103-2.839 6.17-4.347 9.206-.387-1.273-1.556-2.206-2.955-2.206-1.713 0-3.102 1.389-3.102 3.103s1.389 3.102 3.102 3.102c.359 0 .698-.073 1.018-.185-2.177 4.198-4.464 8.33-6.87 12.384-7.014-1.542-13.917-3.266-20.725-5.153z"/></g></svg>