<svg id="Capa_1" enable-background="new 0 0 511.894 511.894" height="512" viewBox="0 0 511.894 511.894" width="512" xmlns="http://www.w3.org/2000/svg"><g><path d="m400.205 190.97h-331.401c-19.22 0-34.801 15.582-34.801 34.802v50.861c0 46.705 37.862 84.568 84.568 84.568h13.943c19.982 0 44.135-16.415 58.747-30.47 1.951-1.876 3.762-3.704 5.513-5.471 10.492-10.586 18.073-18.234 37.725-18.234.003 0 .005-.001.007-.001.001 0 .003.001.004.001 19.652 0 27.233 7.648 37.725 18.234 1.751 1.767 3.563 3.594 5.514 5.471 14.611 14.056 38.764 30.47 58.746 30.47h13.944c46.705 0 84.567-37.862 84.567-84.568v-50.861c.001-19.221-15.58-34.802-34.801-34.802zm26.802 85.663c0 42.287-34.281 76.568-76.568 76.568h-13.943c-16.475 0-38.59-14.181-53.2-28.236-1.882-1.81-3.659-3.604-5.378-5.337-10.957-11.056-20.42-20.602-43.407-20.602-.031 0-.06.008-.091.009-.038-.001-.074-.009-.111-.009-22.849.052-32.289 9.578-43.216 20.602-1.719 1.734-3.496 3.527-5.377 5.337-14.61 14.055-36.726 28.236-53.201 28.236h-13.945c-42.287 0-76.568-34.281-76.568-76.568v-50.861c0-14.802 12-26.802 26.802-26.802h331.401c14.802 0 26.801 11.999 26.801 26.802v50.861z"/><path d="m496.649.145h-44.695c-8.406 0-15.245 6.838-15.245 15.244v66.164c0 5.403 2.834 10.148 7.085 12.856v73.88c-9.225-6.283-20.359-9.961-32.337-9.961h-353.817c-.001 0 0 0-.001 0-15.384 0-29.849 5.991-40.728 16.87s-16.87 25.343-16.87 40.729v59.043c-.027 1.031-.041 2.065-.041 3.102 0 65.529 53.312 118.842 118.841 118.842 37.396 0 73.063-17.938 95.408-47.983 4.614-6.204 11.641-9.758 19.29-9.758h.07c7.605.022 14.568 3.574 19.104 9.746 22.502 30.619 58.592 48.899 96.541 48.899 31.689 0 61.559-12.258 84.109-34.517 3.759-3.71 7.235-7.632 10.433-11.73v38.507c0 17.702-14.401 32.103-32.103 32.103h-122.838c-10.362-16.809-28.936-28.04-50.09-28.04-32.425 0-58.804 26.379-58.804 58.805 0 32.425 26.38 58.804 58.804 58.804 21.154 0 39.729-11.231 50.09-28.04h122.838c51.628 0 93.631-42.003 93.631-93.631v-296.006c3.965-2.755 6.57-7.337 6.57-12.521v-66.163c0-8.407-6.839-15.244-15.245-15.244zm-257.885 479.429c-14.683 0-26.629-11.945-26.629-26.629s11.946-26.63 26.629-26.63c14.684 0 26.63 11.946 26.63 26.63s-11.946 26.629-26.63 26.629zm110.49-89.752c-35.415 0-69.096-17.061-90.098-45.638-6.053-8.237-15.356-12.978-25.524-13.007h-.094c-10.201 0-19.566 4.729-25.704 12.981-21.155 28.445-53.592 44.759-88.993 44.759-61.12 0-110.846-49.725-110.846-110.846 0-.985.014-1.969.039-2.948.001-.034.001-.068.001-.104v-59.095c0-13.249 5.16-25.706 14.529-35.075 9.369-9.37 21.825-14.529 35.075-14.529h353.818c27.352 0 49.604 22.252 49.604 49.604v63c-.048.238-.074.483-.077.734-.846 60.745-50.968 110.164-111.73 110.164zm148.074.256c0 47.22-38.416 85.635-85.635 85.635h-118.713c2.954-7.006 4.589-14.7 4.589-22.768 0-8.069-1.636-15.762-4.589-22.769h118.713c22.111 0 40.098-17.987 40.098-40.098v-50.098c10.772-17.782 16.738-38.137 17.174-59.407.061-.276.092-.563.092-.857v-63.79c0-16.066-6.62-30.611-17.266-41.068v-78.069c.055.001.109.009.164.009h44.695c.229 0 .452-.025.679-.034v293.314z"/><path d="m142.378 216.463c-1.839-1.225-4.32-.729-5.544 1.109l-59.691 89.537c-1.225 1.837-.729 4.319 1.109 5.544.682.454 1.452.672 2.214.672 1.292 0 2.56-.625 3.33-1.781l59.691-89.537c1.224-1.837.728-4.319-1.109-5.544z"/><path d="m388.743 216.463c-1.839-1.225-4.321-.729-5.544 1.109l-59.691 89.537c-1.225 1.837-.729 4.319 1.109 5.544.682.454 1.452.672 2.214.672 1.292 0 2.56-.625 3.33-1.781l59.691-89.537c1.225-1.837.729-4.319-1.109-5.544z"/><path d="m156.497 257.103c-1.827-1.238-4.313-.762-5.552 1.066l-33.162 48.914c-1.239 1.828-.762 4.313 1.066 5.552.687.466 1.467.689 2.24.689 1.281 0 2.539-.615 3.312-1.755l33.162-48.913c1.238-1.828.762-4.314-1.066-5.553z"/></g></svg>