<svg id="Capa_1" enable-background="new 0 0 511.697 511.697" height="512" viewBox="0 0 511.697 511.697" width="512" xmlns="http://www.w3.org/2000/svg"><g><path d="m497.028 431.111c-1.713 0-3.102 1.389-3.102 3.103 0 1.713 1.389 3.103 3.102 3.103s3.102-1.39 3.102-3.103c0-1.715-1.389-3.103-3.102-3.103z"/><path d="m486.651 441.488c-1.713 0-3.102 1.389-3.102 3.102 0 1.714 1.389 3.103 3.102 3.103s3.102-1.389 3.102-3.103-1.388-3.102-3.102-3.102z"/><path d="m475.588 434.188h-1.66c0 .009-.002.017-.002.025 0 1.713 1.389 3.103 3.102 3.103s3.102-1.39 3.102-3.103c0-.119-.022-.232-.035-.348-1.473.208-2.977.323-4.507.323z"/><path d="m466.651 441.488c-1.713 0-3.102 1.389-3.102 3.102 0 1.714 1.389 3.103 3.102 3.103s3.102-1.389 3.102-3.103-1.388-3.102-3.102-3.102z"/><path d="m453.928 434.188c0 .009-.002.017-.002.025 0 1.713 1.389 3.103 3.102 3.103s3.102-1.39 3.102-3.103c0-.009-.003-.017-.003-.025z"/><path d="m446.651 441.488c-1.713 0-3.102 1.389-3.102 3.102 0 1.714 1.389 3.103 3.102 3.103s3.102-1.389 3.102-3.103-1.388-3.102-3.102-3.102z"/><path d="m433.928 434.188c0 .009-.002.017-.002.025 0 1.713 1.389 3.103 3.102 3.103s3.102-1.39 3.102-3.103c0-.009-.003-.017-.003-.025z"/><path d="m426.651 441.488c-1.713 0-3.102 1.389-3.102 3.102 0 1.714 1.389 3.103 3.102 3.103s3.102-1.389 3.102-3.103-1.388-3.102-3.102-3.102z"/><path d="m413.928 434.188c0 .009-.002.017-.002.025 0 1.713 1.389 3.103 3.102 3.103s3.102-1.39 3.102-3.103c0-.009-.003-.017-.003-.025z"/><path d="m406.651 441.488c-1.713 0-3.102 1.389-3.102 3.102 0 1.714 1.389 3.103 3.102 3.103s3.102-1.389 3.102-3.103-1.388-3.102-3.102-3.102z"/><path d="m393.928 434.188c0 .009-.002.017-.002.025 0 1.713 1.389 3.103 3.102 3.103s3.102-1.39 3.102-3.103c0-.009-.003-.017-.003-.025z"/><path d="m386.651 441.488c-1.713 0-3.102 1.389-3.102 3.102 0 1.714 1.389 3.103 3.102 3.103s3.102-1.389 3.102-3.103-1.388-3.102-3.102-3.102z"/><path d="m373.928 434.188c0 .009-.002.017-.002.025 0 1.713 1.389 3.103 3.102 3.103s3.102-1.39 3.102-3.103c0-.009-.003-.017-.003-.025z"/><path d="m366.651 441.488c-1.713 0-3.102 1.389-3.102 3.102 0 1.714 1.389 3.103 3.102 3.103s3.102-1.389 3.102-3.103-1.388-3.102-3.102-3.102z"/><path d="m353.928 434.188c0 .009-.002.017-.002.025 0 1.713 1.389 3.103 3.102 3.103s3.102-1.39 3.102-3.103c0-.009-.003-.017-.003-.025z"/><path d="m346.651 441.488c-1.713 0-3.102 1.389-3.102 3.102 0 1.714 1.389 3.103 3.102 3.103s3.102-1.389 3.102-3.103-1.388-3.102-3.102-3.102z"/><path d="m333.928 434.188c0 .009-.002.017-.002.025 0 1.713 1.389 3.103 3.102 3.103s3.102-1.39 3.102-3.103c0-.009-.003-.017-.003-.025z"/><path d="m326.651 441.488c-1.713 0-3.102 1.389-3.102 3.102 0 1.714 1.389 3.103 3.102 3.103s3.102-1.389 3.102-3.103-1.388-3.102-3.102-3.102z"/><path d="m313.928 434.188c0 .009-.002.017-.002.025 0 1.713 1.389 3.103 3.102 3.103s3.102-1.39 3.102-3.103c0-.009-.003-.017-.003-.025z"/><path d="m306.651 441.488c-1.713 0-3.102 1.389-3.102 3.102 0 1.714 1.389 3.103 3.102 3.103s3.102-1.389 3.102-3.103-1.388-3.102-3.102-3.102z"/><path d="m293.928 434.188c0 .009-.002.017-.002.025 0 1.713 1.389 3.103 3.102 3.103s3.102-1.39 3.102-3.103c0-.009-.003-.017-.003-.025z"/><path d="m286.651 441.488c-1.713 0-3.102 1.389-3.102 3.102 0 1.714 1.389 3.103 3.102 3.103s3.102-1.389 3.102-3.103-1.388-3.102-3.102-3.102z"/><path d="m273.928 434.188c0 .009-.002.017-.002.025 0 1.713 1.389 3.103 3.102 3.103s3.102-1.39 3.102-3.103c0-.009-.003-.017-.003-.025z"/><path d="m266.651 441.488c-1.713 0-3.102 1.389-3.102 3.102 0 1.714 1.389 3.103 3.102 3.103s3.102-1.389 3.102-3.103-1.388-3.102-3.102-3.102z"/><path d="m253.928 434.188c0 .009-.002.017-.002.025 0 1.713 1.389 3.103 3.102 3.103s3.102-1.39 3.102-3.103c0-.009-.003-.017-.003-.025z"/><path d="m246.651 441.488c-1.713 0-3.102 1.389-3.102 3.102 0 1.714 1.389 3.103 3.102 3.103s3.102-1.389 3.102-3.103-1.388-3.102-3.102-3.102z"/><path d="m233.928 434.188c0 .009-.002.017-.002.025 0 1.713 1.389 3.103 3.102 3.103s3.102-1.39 3.102-3.103c0-.009-.003-.017-.003-.025z"/><path d="m226.651 441.488c-1.713 0-3.102 1.389-3.102 3.102 0 1.714 1.389 3.103 3.102 3.103s3.102-1.389 3.102-3.103-1.388-3.102-3.102-3.102z"/><path d="m213.928 434.188c0 .009-.002.017-.002.025 0 1.713 1.389 3.103 3.102 3.103s3.102-1.39 3.102-3.103c0-.009-.003-.017-.003-.025z"/><path d="m206.651 441.488c-1.713 0-3.102 1.389-3.102 3.102 0 1.714 1.389 3.103 3.102 3.103s3.102-1.389 3.102-3.103-1.388-3.102-3.102-3.102z"/><path d="m193.928 434.188c0 .009-.002.017-.002.025 0 1.713 1.389 3.103 3.102 3.103s3.102-1.39 3.102-3.103c0-.009-.003-.017-.003-.025z"/><path d="m186.651 441.488c-1.713 0-3.102 1.389-3.102 3.102 0 1.714 1.389 3.103 3.102 3.103s3.102-1.389 3.102-3.103-1.388-3.102-3.102-3.102z"/><path d="m173.928 434.188c0 .009-.002.017-.002.025 0 1.713 1.389 3.103 3.102 3.103s3.102-1.39 3.102-3.103c0-.009-.003-.017-.003-.025z"/><path d="m166.651 441.488c-1.713 0-3.102 1.389-3.102 3.102 0 1.714 1.389 3.103 3.102 3.103s3.102-1.389 3.102-3.103-1.388-3.102-3.102-3.102z"/><path d="m153.928 434.188c0 .009-.002.017-.002.025 0 1.713 1.389 3.103 3.102 3.103s3.102-1.39 3.102-3.103c0-.009-.003-.017-.003-.025z"/><path d="m146.651 441.488c-1.713 0-3.102 1.389-3.102 3.102 0 1.714 1.389 3.103 3.102 3.103s3.102-1.389 3.102-3.103-1.388-3.102-3.102-3.102z"/><path d="m133.928 434.188c0 .009-.002.017-.002.025 0 1.713 1.389 3.103 3.102 3.103s3.102-1.39 3.102-3.103c0-.009-.003-.017-.003-.025z"/><path d="m126.651 441.488c-1.713 0-3.102 1.389-3.102 3.102 0 1.714 1.389 3.103 3.102 3.103s3.102-1.389 3.102-3.103-1.388-3.102-3.102-3.102z"/><path d="m113.928 434.188c0 .009-.002.017-.002.025 0 1.713 1.389 3.103 3.102 3.103s3.102-1.39 3.102-3.103c0-.009-.002-.017-.002-.025z"/><path d="m106.651 441.488c-1.713 0-3.102 1.389-3.102 3.102 0 1.714 1.389 3.103 3.102 3.103s3.102-1.389 3.102-3.103-1.388-3.102-3.102-3.102z"/><path d="m93.928 434.188c0 .009-.002.017-.002.025 0 1.713 1.389 3.103 3.102 3.103s3.102-1.39 3.102-3.103c0-.009-.002-.017-.002-.025z"/><path d="m86.651 441.488c-1.713 0-3.102 1.389-3.102 3.102 0 1.714 1.389 3.103 3.102 3.103s3.102-1.389 3.102-3.103-1.388-3.102-3.102-3.102z"/><path d="m73.928 434.188c0 .009-.002.017-.002.025 0 1.713 1.389 3.103 3.102 3.103s3.102-1.39 3.102-3.103c0-.009-.002-.017-.002-.025z"/><path d="m66.651 441.488c-1.713 0-3.102 1.389-3.102 3.102 0 1.714 1.389 3.103 3.102 3.103s3.102-1.389 3.102-3.103-1.388-3.102-3.102-3.102z"/><path d="m53.928 434.188c0 .009-.002.017-.002.025 0 1.713 1.389 3.103 3.102 3.103s3.102-1.39 3.102-3.103c0-.009-.003-.017-.003-.025z"/><path d="m46.651 441.488c-1.713 0-3.102 1.389-3.102 3.102 0 1.714 1.389 3.103 3.102 3.103s3.102-1.389 3.102-3.103-1.389-3.102-3.102-3.102z"/><path d="m35.682 434.188c-.587 0-1.169-.02-1.749-.051-.001.025-.008.05-.008.076 0 1.713 1.389 3.103 3.102 3.103s3.102-1.39 3.102-3.103c0-.009-.003-.017-.003-.025z"/><path d="m26.651 441.488c-1.713 0-3.102 1.389-3.102 3.102 0 1.714 1.389 3.103 3.102 3.103s3.102-1.389 3.102-3.103-1.388-3.102-3.102-3.102z"/><path d="m17.028 431.111c-1.713 0-3.102 1.389-3.102 3.103 0 1.713 1.389 3.103 3.102 3.103s3.102-1.39 3.102-3.103c0-1.715-1.389-3.103-3.102-3.103z"/><path d="m314.879 236.248c4.067.801 8.007-1.85 8.805-5.914 2.508-12.765 13.789-22.03 26.825-22.03 14.924 0 27.093 12.02 27.333 26.888l-.559 4.375c-1.874 7.785-6.323 16.73-13.229 26.597-21.66 30.948-34.594 47.884-41.542 56.983-8.232 10.777-9.944 13.02-8.513 17.674.783 2.545 2.739 4.508 5.367 5.384 1.009.336 2.796.933 28.528.933 10.197 0 24.157-.094 43.316-.335 4.143-.052 7.458-3.451 7.405-7.593-.051-4.11-3.398-7.406-7.497-7.406-.032 0-.064 0-.096.001-20.616.258-43.146.388-56.456.27 7.047-9.227 20.075-26.304 41.775-57.309 8.116-11.596 13.378-22.417 15.637-32.164.057-.245.1-.493.133-.743l.673-5.267c.04-.315.061-.633.061-.95 0-23.345-18.992-42.337-42.337-42.337-20.187 0-37.658 14.357-41.544 34.14-.797 4.063 1.851 8.004 5.915 8.803z"/><path d="m134.26 348.562c25.845 0 46.871-21.025 46.871-46.87v-62.964c0-25.845-21.026-46.87-46.871-46.87s-46.871 21.025-46.871 46.87v62.964c0 25.844 21.026 46.87 46.871 46.87zm-31.871-109.834c0-17.573 14.297-31.87 31.871-31.87s31.871 14.297 31.871 31.87v62.964c0 17.573-14.297 31.87-31.871 31.87s-31.871-14.297-31.871-31.87z"/><path d="m249.28 371.634v-158.259c0-17.422-10.599-32.403-25.682-38.868-6.458-15.099-21.458-25.706-38.891-25.706h-100.894c-23.313 0-42.279 18.966-42.279 42.279v158.258c0 17.436 10.609 32.436 25.709 38.893 6.464 15.083 21.443 25.682 38.865 25.682h100.892c23.315 0 42.28-18.965 42.28-42.279zm-199.778-22.296v-158.258c0-18.919 15.393-34.312 34.312-34.312h100.893c18.919 0 34.312 15.393 34.312 34.312v158.258c0 18.92-15.393 34.312-34.312 34.312h-100.894c-18.918.001-34.311-15.392-34.311-34.312zm157.499 56.608h-100.892c-11.646 0-21.938-5.845-28.144-14.742 1.913.266 3.863.414 5.848.414h100.893c23.313 0 42.279-18.966 42.279-42.279v-158.259c0-1.99-.149-3.946-.416-5.863 8.903 6.203 14.743 16.509 14.743 28.158v158.259c.001 18.919-15.391 34.312-34.311 34.312z"/><path d="m468.741 371.634v-158.259c0-17.42-10.596-32.395-25.677-38.857-6.456-15.104-21.458-25.717-38.896-25.717h-100.894c-23.313 0-42.279 18.966-42.279 42.279v158.258c0 17.434 10.607 32.433 25.705 38.892 6.464 15.084 21.447 25.684 38.87 25.684h100.892c23.313-.001 42.279-18.966 42.279-42.28zm-199.778-22.296v-158.258c0-18.919 15.393-34.312 34.312-34.312h100.894c18.919 0 34.311 15.393 34.311 34.312v158.258c0 18.92-15.393 34.312-34.311 34.312h-100.895c-18.919.001-34.311-15.392-34.311-34.312zm157.499 56.608h-100.892c-11.648 0-21.949-5.842-28.153-14.743 1.916.267 3.869.415 5.857.415h100.894c23.313 0 42.279-18.966 42.279-42.279v-158.259c0-1.982-.148-3.93-.413-5.84 8.896 6.204 14.741 16.491 14.741 28.135v158.259c-.001 18.919-15.393 34.312-34.313 34.312z"/><path d="m475.802 72.518h-39.777v-5.456c0-10.281-8.364-18.646-18.645-18.646h-105.022c-10.281 0-18.646 8.365-18.646 18.646v5.456h-77.148v-5.456c0-10.281-8.364-18.646-18.645-18.646h-105.022c-10.281 0-18.646 8.365-18.646 18.646v5.456h-38.356c-19.792 0-35.895 16.102-35.895 35.894v318.975c0 19.792 16.103 35.895 35.895 35.895h439.907c19.793 0 35.895-16.103 35.895-35.895v-318.975c0-19.792-16.102-35.894-35.895-35.894zm4.216 382.478c.066-.252.112-.511.112-.783 0-1.714-1.389-3.103-3.102-3.103s-3.102 1.389-3.102 3.103c0 .39.08.759.211 1.102h-14.217c.131-.343.211-.712.211-1.102 0-1.714-1.389-3.103-3.102-3.103s-3.102 1.389-3.102 3.103c0 .39.08.759.211 1.102h-14.217c.131-.343.211-.712.211-1.102 0-1.714-1.389-3.103-3.102-3.103s-3.102 1.389-3.102 3.103c0 .39.08.759.211 1.102h-14.217c.131-.343.211-.712.211-1.102 0-1.714-1.389-3.103-3.102-3.103s-3.102 1.389-3.102 3.103c0 .39.08.759.211 1.102h-14.217c.131-.343.211-.712.211-1.102 0-1.714-1.389-3.103-3.102-3.103s-3.102 1.389-3.102 3.103c0 .39.08.759.211 1.102h-14.217c.131-.343.211-.712.211-1.102 0-1.714-1.389-3.103-3.102-3.103s-3.102 1.389-3.102 3.103c0 .39.08.759.211 1.102h-14.217c.131-.343.211-.712.211-1.102 0-1.714-1.389-3.103-3.102-3.103s-3.102 1.389-3.102 3.103c0 .39.08.759.211 1.102h-14.217c.131-.343.211-.712.211-1.102 0-1.714-1.389-3.103-3.102-3.103s-3.102 1.389-3.102 3.103c0 .39.08.759.211 1.102h-14.217c.131-.343.211-.712.211-1.102 0-1.714-1.389-3.103-3.102-3.103s-3.102 1.389-3.102 3.103c0 .39.08.759.211 1.102h-14.217c.131-.343.211-.712.211-1.102 0-1.714-1.389-3.103-3.102-3.103s-3.102 1.389-3.102 3.103c0 .39.08.759.211 1.102h-14.217c.131-.343.211-.712.211-1.102 0-1.714-1.389-3.103-3.102-3.103s-3.102 1.389-3.102 3.103c0 .39.08.759.211 1.102h-14.217c.131-.343.211-.712.211-1.102 0-1.714-1.389-3.103-3.102-3.103s-3.102 1.389-3.102 3.103c0 .39.08.759.211 1.102h-14.217c.131-.343.211-.712.211-1.102 0-1.714-1.389-3.103-3.102-3.103s-3.102 1.389-3.102 3.103c0 .39.08.759.211 1.102h-14.217c.131-.343.211-.712.211-1.102 0-1.714-1.389-3.103-3.102-3.103s-3.102 1.389-3.102 3.103c0 .39.08.759.211 1.102h-14.217c.131-.343.211-.712.211-1.102 0-1.714-1.389-3.103-3.102-3.103s-3.102 1.389-3.102 3.103c0 .39.08.759.211 1.102h-14.217c.131-.343.211-.712.211-1.102 0-1.714-1.389-3.103-3.102-3.103s-3.102 1.389-3.102 3.103c0 .39.08.759.211 1.102h-14.217c.131-.343.211-.712.211-1.102 0-1.714-1.389-3.103-3.102-3.103s-3.102 1.389-3.102 3.103c0 .39.08.759.211 1.102h-14.217c.131-.343.211-.712.211-1.102 0-1.714-1.389-3.103-3.102-3.103s-3.102 1.389-3.102 3.103c0 .39.08.759.211 1.102h-14.217c.131-.343.211-.712.211-1.102 0-1.714-1.389-3.103-3.102-3.103s-3.102 1.389-3.102 3.103c0 .39.08.759.211 1.102h-14.236c.131-.343.211-.712.211-1.102 0-1.714-1.389-3.103-3.102-3.103s-3.102 1.389-3.102 3.103c0 .39.08.759.211 1.102h-14.218c.131-.343.211-.712.211-1.102 0-1.714-1.389-3.103-3.102-3.103s-3.102 1.389-3.102 3.103c0 .39.08.759.211 1.102h-14.218c.131-.343.211-.712.211-1.102 0-1.714-1.389-3.103-3.102-3.103s-3.102 1.389-3.102 3.103c0 .39.08.759.211 1.102h-14.218c.131-.343.211-.712.211-1.102 0-1.714-1.389-3.103-3.102-3.103s-3.102 1.389-3.102 3.103c0 .366.075.713.192 1.039-14.573-.921-26.149-13.062-26.15-27.863 1.053-.496 1.786-1.559 1.786-2.8 0-1.24-.734-2.303-1.786-2.799v-313.378c0-15.399 12.529-27.928 27.928-27.928h38.357v20.88c0 10.28 8.365 18.646 18.646 18.646h105.022c10.281 0 18.645-8.365 18.645-18.646v-20.88h77.148v20.88c0 10.28 8.365 18.646 18.646 18.646h105.02c10.281 0 18.645-8.365 18.645-18.646v-20.88h39.777c15.399 0 27.928 12.528 27.928 27.928v315.172c-.109.316-.181.651-.181 1.005 0 .353.072.688.181 1.005v1.793c0 13.967-10.306 25.571-23.712 27.609z"/></g></svg>