<svg id="Capa_1" enable-background="new 0 0 511.264 511.264" height="512" viewBox="0 0 511.264 511.264" width="512" xmlns="http://www.w3.org/2000/svg"><g><path d="m464.057 384.085c1.713 0 3.102-1.389 3.102-3.102s-1.389-3.102-3.102-3.102c-.368 0-.716.075-1.044.193.013.594.04 1.184.04 1.781 0 1.348-.04 2.686-.107 4.017.346.132.718.213 1.111.213z"/><path d="m455.325 413.98c.873-.549 1.458-1.514 1.458-2.621 0-.168-.024-.33-.049-.49-.448 1.049-.918 2.086-1.409 3.111z"/><path d="m464.057 424.085c1.713 0 3.102-1.389 3.102-3.102s-1.389-3.102-3.102-3.102-3.102 1.389-3.102 3.102c-.001 1.713 1.388 3.102 3.102 3.102z"/><path d="m453.68 428.257c-1.713 0-3.102 1.389-3.102 3.102s1.389 3.102 3.102 3.102 3.102-1.389 3.102-3.102c.001-1.713-1.388-3.102-3.102-3.102z"/><path d="m444.057 437.881c-1.713 0-3.102 1.389-3.102 3.102 0 1.714 1.389 3.102 3.102 3.102s3.102-1.389 3.102-3.102c0-1.714-1.389-3.102-3.102-3.102z"/><path d="m433.68 448.257c-1.713 0-3.102 1.389-3.102 3.102s1.389 3.102 3.102 3.102 3.102-1.389 3.102-3.102c.001-1.713-1.388-3.102-3.102-3.102z"/><path d="m416.721 451.974c-1.55.71-3.127 1.371-4.729 1.982.487.317 1.065.505 1.689.505 1.502 0 2.754-1.069 3.04-2.487z"/><path d="m424.057 457.881c-1.713 0-3.102 1.389-3.102 3.102 0 1.714 1.389 3.102 3.102 3.102s3.102-1.389 3.102-3.102c0-1.714-1.389-3.102-3.102-3.102z"/><path d="m413.68 468.257c-1.713 0-3.102 1.389-3.102 3.102s1.389 3.102 3.102 3.102 3.102-1.389 3.102-3.102c.001-1.713-1.388-3.102-3.102-3.102z"/><path d="m384.057 464.085c1.713 0 3.102-1.389 3.102-3.102 0-.716-.252-1.366-.659-1.891-.909.031-1.82.052-2.736.052-.725 0-1.448-.011-2.168-.03-.397.521-.641 1.164-.641 1.869-.001 1.713 1.388 3.102 3.102 3.102z"/><path d="m373.68 474.461c1.713 0 3.102-1.389 3.102-3.102s-1.389-3.102-3.102-3.102-3.102 1.389-3.102 3.102c0 1.714 1.389 3.102 3.102 3.102z"/><path d="m353.68 454.461c.651 0 1.254-.202 1.753-.545-1.626-.623-3.228-1.296-4.801-2.021.255 1.457 1.518 2.566 3.048 2.566z"/><path d="m364.057 464.085c1.713 0 3.102-1.389 3.102-3.102s-1.389-3.102-3.102-3.102-3.102 1.389-3.102 3.102c-.001 1.713 1.388 3.102 3.102 3.102z"/><path d="m457.014 345.243c-14.198-14.198-33.056-22.783-53.101-24.174-24.082-1.67-47.663 7.14-64.697 24.174-17.033 17.034-25.844 40.615-24.173 64.696 1.391 20.045 9.975 38.904 24.173 53.101 14.198 14.198 33.056 22.783 53.101 24.174 1.937.134 3.869.201 5.796.201 22.035 0 43.237-8.711 58.901-24.374 17.033-17.033 25.844-40.614 24.173-64.696-1.39-20.046-9.975-38.904-24.173-53.102zm-112.131 5.666c14.156-14.156 33.316-22.027 53.235-22.027.556 0 1.114.017 1.672.029.127 5.986-.457 11.913-1.706 17.67l-2.423-1.671c-1.821-1.256-4.316-.799-5.573 1.023-1.256 1.822-.798 4.317 1.024 5.573l4.707 3.246c-3.245 9.587-8.392 18.506-15.268 26.157l-3.263-3.263c-1.565-1.565-4.102-1.565-5.667 0-1.565 1.564-1.565 4.101 0 5.666l3.263 3.263c-7.331 6.589-15.826 11.594-24.957 14.856l-3.568-5.174c-1.257-1.822-3.751-2.279-5.573-1.023-1.821 1.256-2.28 3.751-1.024 5.573l2.076 3.009c-6.157 1.449-12.52 2.136-18.951 1.999-.455-20.513 7.444-40.355 21.996-54.906zm-21.387 62.932c.354.004.709.018 1.063.018 7.538 0 14.972-1.043 22.127-3.012l2.988 4.333c.778 1.127 2.029 1.733 3.302 1.733.785 0 1.577-.23 2.271-.709 1.821-1.256 2.28-3.751 1.024-5.573l-1.655-2.399c9.476-3.662 18.289-9.037 25.94-15.984l3.41 3.41c.783.783 1.808 1.174 2.833 1.174 1.026 0 2.051-.391 2.833-1.174 1.565-1.564 1.565-4.101 0-5.666l-3.412-3.412c7.233-7.965 12.784-17.181 16.448-27.103l2.814 1.941c.694.479 1.487.709 2.271.709 1.273 0 2.524-.605 3.302-1.732 1.256-1.822.798-4.317-1.024-5.573l-4.856-3.349c1.838-7.108 2.728-14.487 2.634-21.951 16.442 2.128 31.765 9.614 43.538 21.387 10.437 10.437 17.516 23.661 20.472 37.982-.75.566-1.242 1.456-1.242 2.468 0 1.374.899 2.525 2.136 2.933.007.052.015.103.021.155-7.517-.095-14.947.81-22.101 2.674l-3.793-5.5c-1.257-1.822-3.751-2.279-5.573-1.023-1.821 1.256-2.28 3.751-1.024 5.573l2.392 3.469c-9.868 3.664-19.033 9.199-26.96 16.397l-3.411-3.411c-1.565-1.565-4.101-1.565-5.667 0-1.565 1.565-1.565 4.102 0 5.666l3.412 3.412c-6.909 7.609-12.28 16.359-15.941 25.775l-3.037-2.095c-1.821-1.256-4.316-.798-5.573 1.023-1.256 1.822-.798 4.317 1.024 5.573l4.955 3.417c-2.092 7.542-3.116 15.404-3.016 23.364-.905-.117-1.807-.242-2.705-.392-.481-.306-1.048-.489-1.66-.489-.219 0-.432.024-.638.067-14.534-2.886-27.966-10.003-38.536-20.573-11.771-11.772-19.257-27.093-21.386-43.533zm133.283 37.48c-.021-1.695-1.398-3.064-3.098-3.064-1.713 0-3.102 1.389-3.102 3.102s1.389 3.102 3.102 3.102c.162 0 .317-.024.472-.048-.905 1.009-1.84 1.997-2.804 2.961-1.355 1.355-2.772 2.632-4.215 3.87.007-.088.026-.172.026-.262 0-1.713-1.389-3.102-3.102-3.102s-3.102 1.389-3.102 3.102c0 1.58 1.185 2.869 2.711 3.063-2.483 1.888-5.065 3.621-7.745 5.177-.565-.592-1.357-.965-2.24-.965-1.713 0-3.102 1.389-3.102 3.102 0 .22.024.434.068.64-7.618 3.647-15.822 5.997-24.282 6.927-.568-.637-1.386-1.046-2.307-1.046-1.099 0-2.06.575-2.611 1.438-1.663.073-3.332.09-5.006.053-.051-2.374.013-4.738.186-7.086.092-.294.156-.601.156-.926 0-.154-.024-.302-.045-.45.331-3.602.911-7.163 1.742-10.656l2.376 1.639c.099.068.204.12.306.178.442 1.175 1.567 2.015 2.896 2.015 1.713 0 3.102-1.389 3.102-3.102 0-.415-.085-.808-.232-1.17.525-1.638-.034-3.49-1.523-4.517l-4.525-3.121c3.264-9.071 8.251-17.511 14.802-24.801l3.263 3.263c.783.782 1.808 1.174 2.833 1.174 1.026 0 2.051-.391 2.833-1.174 1.565-1.564 1.565-4.101 0-5.666l-3.263-3.263c7.613-6.842 16.482-11.971 26.013-15.219l2.796 4.054c.777 1.127 2.029 1.732 3.302 1.732.785 0 1.577-.23 2.271-.709 1.821-1.256 2.28-3.751 1.024-5.573l-1.231-1.785c2.075-.455 4.174-.814 6.288-1.096.565.596 1.359.972 2.246.972 1.11 0 2.077-.588 2.625-1.464 2.209-.15 4.432-.196 6.663-.151.043 1.952-.001 3.896-.108 5.832-1.502.217-2.659 1.496-2.659 3.058 0 1.359.88 2.502 2.096 2.921-1.13 8.329-3.632 16.389-7.402 23.849-.374-.159-.784-.249-1.216-.249-1.713 0-3.102 1.389-3.102 3.102 0 1.04.516 1.955 1.302 2.518-1.66 2.707-3.474 5.328-5.478 7.821z"/><path d="m476.54 51.359c0 1.713 1.389 3.102 3.102 3.102s3.102-1.389 3.102-3.102-1.389-3.102-3.102-3.102-3.102 1.389-3.102 3.102z"/><path d="m459.642 28.257c-1.713 0-3.102 1.389-3.102 3.102s1.389 3.102 3.102 3.102 3.102-1.389 3.102-3.102-1.388-3.102-3.102-3.102z"/><path d="m470.019 37.881c-1.713 0-3.102 1.389-3.102 3.102 0 1.714 1.389 3.102 3.102 3.102s3.102-1.389 3.102-3.102c0-1.714-1.389-3.102-3.102-3.102z"/><path d="m459.642 48.257c-1.713 0-3.102 1.389-3.102 3.102s1.389 3.102 3.102 3.102 3.102-1.389 3.102-3.102-1.388-3.102-3.102-3.102z"/><path d="m470.019 57.881c-1.713 0-3.102 1.389-3.102 3.102 0 1.714 1.389 3.102 3.102 3.102s3.102-1.389 3.102-3.102c0-1.714-1.389-3.102-3.102-3.102z"/><path d="m459.642 68.257c-1.713 0-3.102 1.389-3.102 3.102s1.389 3.102 3.102 3.102 3.102-1.389 3.102-3.102-1.388-3.102-3.102-3.102z"/><path d="m470.019 77.881c-1.713 0-3.102 1.389-3.102 3.102 0 1.714 1.389 3.102 3.102 3.102s3.102-1.389 3.102-3.102c0-1.714-1.389-3.102-3.102-3.102z"/><path d="m459.642 88.257c-1.713 0-3.102 1.389-3.102 3.102s1.389 3.102 3.102 3.102 3.102-1.389 3.102-3.102-1.388-3.102-3.102-3.102z"/><path d="m450.019 17.881c-1.713 0-3.102 1.389-3.102 3.102 0 1.714 1.389 3.102 3.102 3.102s3.102-1.389 3.102-3.102c0-1.714-1.389-3.102-3.102-3.102z"/><path d="m450.019 37.881c-1.713 0-3.102 1.389-3.102 3.102 0 1.714 1.389 3.102 3.102 3.102s3.102-1.389 3.102-3.102c0-1.714-1.389-3.102-3.102-3.102z"/><path d="m439.575 54.454c.023 0 .044.007.068.007 1.713 0 3.102-1.389 3.102-3.102 0-.955-.44-1.798-1.118-2.367-.63 1.811-1.309 3.632-2.052 5.462z"/><path d="m450.019 57.881c-1.713 0-3.102 1.389-3.102 3.102 0 1.714 1.389 3.102 3.102 3.102s3.102-1.389 3.102-3.102c0-1.714-1.389-3.102-3.102-3.102z"/><path d="m439.642 68.257c-1.713 0-3.102 1.389-3.102 3.102s1.389 3.102 3.102 3.102 3.102-1.389 3.102-3.102-1.388-3.102-3.102-3.102z"/><path d="m450.019 77.881c-1.713 0-3.102 1.389-3.102 3.102 0 1.714 1.389 3.102 3.102 3.102s3.102-1.389 3.102-3.102c0-1.714-1.389-3.102-3.102-3.102z"/><path d="m439.642 88.257c-1.713 0-3.102 1.389-3.102 3.102s1.389 3.102 3.102 3.102 3.102-1.389 3.102-3.102-1.388-3.102-3.102-3.102z"/><path d="m450.019 97.881c-1.713 0-3.102 1.389-3.102 3.102 0 1.714 1.389 3.102 3.102 3.102s3.102-1.389 3.102-3.102c0-1.714-1.389-3.102-3.102-3.102z"/><path d="m439.642 108.257c-1.713 0-3.102 1.389-3.102 3.102s1.389 3.102 3.102 3.102 3.102-1.389 3.102-3.102-1.388-3.102-3.102-3.102z"/><path d="m430.019 77.881c-1.713 0-3.102 1.389-3.102 3.102 0 1.714 1.389 3.102 3.102 3.102s3.102-1.389 3.102-3.102c0-1.714-1.389-3.102-3.102-3.102z"/><path d="m420.864 88.508c-1.129 1.683-2.278 3.354-3.441 5.013.564.579 1.348.94 2.22.94 1.713 0 3.102-1.389 3.102-3.102-.001-1.279-.776-2.376-1.881-2.851z"/><path d="m430.019 97.881c-1.713 0-3.102 1.389-3.102 3.102 0 1.714 1.389 3.102 3.102 3.102s3.102-1.389 3.102-3.102c0-1.714-1.389-3.102-3.102-3.102z"/><path d="m419.642 108.257c-1.713 0-3.102 1.389-3.102 3.102s1.389 3.102 3.102 3.102 3.102-1.389 3.102-3.102-1.388-3.102-3.102-3.102z"/><path d="m430.019 117.881c-1.713 0-3.102 1.389-3.102 3.102 0 1.714 1.389 3.102 3.102 3.102s3.102-1.389 3.102-3.102c0-1.714-1.389-3.102-3.102-3.102z"/><path d="m419.642 128.257c-1.713 0-3.102 1.389-3.102 3.102s1.389 3.102 3.102 3.102 3.102-1.389 3.102-3.102-1.388-3.102-3.102-3.102z"/><path d="m409.732 104.056c.096.009.188.029.286.029 1.713 0 3.102-1.389 3.102-3.102 0-.41-.084-.8-.228-1.158-1.047 1.422-2.1 2.835-3.16 4.231z"/><path d="m410.019 117.881c-1.713 0-3.102 1.389-3.102 3.102 0 1.714 1.389 3.102 3.102 3.102s3.102-1.389 3.102-3.102c0-1.714-1.389-3.102-3.102-3.102z"/><path d="m399.642 128.257c-1.713 0-3.102 1.389-3.102 3.102s1.389 3.102 3.102 3.102 3.102-1.389 3.102-3.102-1.388-3.102-3.102-3.102z"/><path d="m410.019 137.881c-1.713 0-3.102 1.389-3.102 3.102 0 1.714 1.389 3.102 3.102 3.102s3.102-1.389 3.102-3.102c0-1.714-1.389-3.102-3.102-3.102z"/><path d="m399.642 148.257c-1.713 0-3.102 1.389-3.102 3.102s1.389 3.102 3.102 3.102 3.102-1.389 3.102-3.102-1.388-3.102-3.102-3.102z"/><path d="m390.019 137.881c-1.713 0-3.102 1.389-3.102 3.102 0 1.714 1.389 3.102 3.102 3.102s3.102-1.389 3.102-3.102c0-1.714-1.389-3.102-3.102-3.102z"/><path d="m379.642 148.257c-1.713 0-3.102 1.389-3.102 3.102s1.389 3.102 3.102 3.102 3.102-1.389 3.102-3.102-1.388-3.102-3.102-3.102z"/><path d="m390.019 157.881c-1.713 0-3.102 1.389-3.102 3.102 0 1.714 1.389 3.102 3.102 3.102s3.102-1.389 3.102-3.102c0-1.714-1.389-3.102-3.102-3.102z"/><path d="m379.642 168.257c-1.713 0-3.102 1.389-3.102 3.102s1.389 3.102 3.102 3.102 3.102-1.389 3.102-3.102-1.388-3.102-3.102-3.102z"/><path d="m370.019 157.881c-1.713 0-3.102 1.389-3.102 3.102 0 1.714 1.389 3.102 3.102 3.102s3.102-1.389 3.102-3.102c0-1.714-1.389-3.102-3.102-3.102z"/><path d="m359.642 168.257c-1.713 0-3.102 1.389-3.102 3.102s1.389 3.102 3.102 3.102 3.102-1.389 3.102-3.102-1.388-3.102-3.102-3.102z"/><path d="m370.019 177.881c-1.713 0-3.102 1.389-3.102 3.102 0 1.714 1.389 3.102 3.102 3.102s3.102-1.389 3.102-3.102c0-1.714-1.389-3.102-3.102-3.102z"/><path d="m359.642 188.257c-1.713 0-3.102 1.389-3.102 3.102s1.389 3.102 3.102 3.102 3.102-1.389 3.102-3.102-1.388-3.102-3.102-3.102z"/><path d="m350.019 177.881c-1.713 0-3.102 1.389-3.102 3.102 0 1.714 1.389 3.102 3.102 3.102s3.102-1.389 3.102-3.102c0-1.714-1.389-3.102-3.102-3.102z"/><path d="m339.642 188.257c-1.713 0-3.102 1.389-3.102 3.102s1.389 3.102 3.102 3.102 3.102-1.389 3.102-3.102-1.388-3.102-3.102-3.102z"/><path d="m350.019 197.881c-1.713 0-3.102 1.389-3.102 3.102 0 1.714 1.389 3.102 3.102 3.102s3.102-1.389 3.102-3.102c0-1.714-1.389-3.102-3.102-3.102z"/><path d="m339.642 208.257c-1.713 0-3.102 1.389-3.102 3.102s1.389 3.102 3.102 3.102 3.102-1.389 3.102-3.102-1.388-3.102-3.102-3.102z"/><path d="m330.019 197.881c-1.713 0-3.102 1.389-3.102 3.102 0 1.714 1.389 3.102 3.102 3.102s3.102-1.389 3.102-3.102c0-1.714-1.389-3.102-3.102-3.102z"/><path d="m319.642 208.257c-1.713 0-3.102 1.389-3.102 3.102s1.389 3.102 3.102 3.102 3.102-1.389 3.102-3.102-1.388-3.102-3.102-3.102z"/><path d="m330.019 217.881c-1.713 0-3.102 1.389-3.102 3.102 0 1.714 1.389 3.102 3.102 3.102s3.102-1.389 3.102-3.102c0-1.714-1.389-3.102-3.102-3.102z"/><path d="m319.642 228.257c-1.713 0-3.102 1.389-3.102 3.102s1.389 3.102 3.102 3.102 3.102-1.389 3.102-3.102-1.388-3.102-3.102-3.102z"/><path d="m310.019 217.881c-1.713 0-3.102 1.389-3.102 3.102 0 1.714 1.389 3.102 3.102 3.102s3.102-1.389 3.102-3.102c0-1.714-1.389-3.102-3.102-3.102z"/><path d="m299.642 228.257c-.099 0-.192.02-.289.029l-2.805 3.162c.048 1.671 1.411 3.013 3.093 3.013 1.713 0 3.102-1.389 3.102-3.102s-1.387-3.102-3.101-3.102z"/><path d="m310.019 237.881c-1.713 0-3.102 1.389-3.102 3.102 0 1.714 1.389 3.102 3.102 3.102s3.102-1.389 3.102-3.102c0-1.714-1.389-3.102-3.102-3.102z"/><path d="m299.642 248.257c-1.713 0-3.102 1.389-3.102 3.102s1.389 3.102 3.102 3.102 3.102-1.389 3.102-3.102-1.388-3.102-3.102-3.102z"/><path d="m290.757 237.979-3.633 4.096c.443 1.173 1.567 2.01 2.894 2.01 1.713 0 3.102-1.389 3.102-3.102.001-1.458-1.008-2.672-2.363-3.004z"/><path d="m281.238 248.712-4.033 4.547c.568.727 1.443 1.203 2.437 1.203 1.713 0 3.102-1.389 3.102-3.102 0-1.128-.607-2.105-1.506-2.648z"/><path d="m268.162 263.455c.519.39 1.157.63 1.856.63 1.713 0 3.102-1.389 3.102-3.102 0-.833-.332-1.585-.866-2.142z"/><path d="m258.577 274.262c.333.123.689.199 1.065.199 1.713 0 3.102-1.389 3.102-3.102 0-.507-.133-.979-.349-1.402z"/><path d="m249.878 284.071c.048.002.093.014.141.014 1.713 0 3.102-1.389 3.102-3.102 0-.175-.024-.344-.052-.51z"/><path d="m242.586 292.293-1.681 1.895c.802-.359 1.412-1.049 1.681-1.895z"/><path d="m472.318 14.473c-16.784-15.135-37.214-18.476-59.078-9.664-19.905 8.023-35.271 23.547-40.954 29.85-.08.089-.157.182-.229.278l-227.368 302.921c-4.411 5.783-14.061 16.941-14.103 16.992l-81.701 100.152c-7.269-1.67-20.521-2.805-25.13 2.307-8.081 8.963-2.473 28.275 12.002 41.327 9.058 8.167 20.193 12.628 29.242 12.627 5.412 0 10.079-1.597 13.104-4.952 4.548-5.044 1.91-18.317-.566-25.48l91.454-91.339c.049-.049.097-.1.144-.152 4.861-5.391 10.013-10.652 15.289-15.615l277.879-257.415c.088-.082.173-.167.253-.256 7.24-8.029 20.233-24.341 25.906-43.37 6.711-22.508 1.128-42.637-16.144-58.211zm-402.29 462.532c-1.172 1.171-1.503 2.942-.833 4.457 2.911 6.575 4.231 17.435 2.955 19.485-3.949 4.378-18.716 2.84-31.027-8.261s-15.366-25.632-11.469-29.959c.892-.73 3.604-1.116 6.929-1.116 3.992 0 8.867.557 12.533 1.745 1.571.509 3.296.002 4.34-1.279l22.839-27.997 18.993 17.698zm30.932-30.894-19.59-18.254 38.58-47.294 24.128 22.484zm77.994-78.242c-5.432 5.109-10.714 10.502-15.701 16.029l-13.501 13.484-24.725-23.04 35.752-44.572 29.564 27.55zm302.302-299.147c-.471-.289-1.021-.465-1.614-.465-1.713 0-3.102 1.389-3.102 3.102 0 1.64 1.277 2.969 2.889 3.081-5.186 14.262-14.495 26.639-20.865 34.021-.959.357-1.691 1.17-1.931 2.18l-8.71 8.069c-.044.041-.089.078-.131.121l-155.073 143.651c.249-.446.402-.953.402-1.5 0-1.713-1.389-3.102-3.102-3.102s-3.102 1.389-3.102 3.102c0 1.714 1.389 3.102 3.102 3.102.453 0 .881-.103 1.27-.277l-8.584 7.952c.017-.132.04-.263.04-.4 0-1.713-1.389-3.102-3.102-3.102s-3.102 1.389-3.102 3.102 1.389 3.102 3.102 3.102c.056 0 .108-.013.163-.016l-6.716 6.221c-.161-1.562-1.466-2.786-3.07-2.786-1.713 0-3.102 1.389-3.102 3.102 0 1.522 1.098 2.782 2.543 3.046l-6.881 6.374c-.405-1.242-1.559-2.146-2.936-2.146-1.713 0-3.102 1.389-3.102 3.102 0 1.292.791 2.398 1.914 2.864l-5.716 5.295c-.524-.971-1.539-1.638-2.719-1.638-1.713 0-3.102 1.389-3.102 3.102 0 1.096.571 2.053 1.429 2.605l-6.298 5.834c-.569-.705-1.429-1.165-2.405-1.165-1.713 0-3.102 1.389-3.102 3.102 0 .891.381 1.689.982 2.254l-5.456 5.055c-.547-.484-1.259-.788-2.047-.788-1.713 0-3.102 1.389-3.102 3.102 0 .704.243 1.345.638 1.865l-6.325 5.859c-.466-.28-1.005-.45-1.587-.45-1.713 0-3.102 1.389-3.102 3.102 0 .498.128.962.337 1.379l-5.773 5.348c-.339-.127-.702-.206-1.085-.206-1.713 0-3.102 1.389-3.102 3.102 0 .3.056.584.135.858l-6.973 6.46c-.144-.021-.287-.043-.436-.043-1.713 0-3.102 1.389-3.102 3.102 0 .069.015.133.019.201l-.322.298-30.62-28.534 212.74-283.432c7.833-8.653 44.455-45.807 79.068-26.369.377.386.856.663 1.39.812 2.733 1.658 5.45 3.666 8.137 6.089.006.006.012.011.019.017-.031.176-.055.355-.055.54 0 1.714 1.389 3.102 3.102 3.102.206 0 .408-.022.603-.061 2.297 2.451 4.279 4.999 5.949 7.642.094.947.6 1.771 1.351 2.273 5.679 10.278 6.802 21.917 3.33 34.788z"/></g></svg>