<svg id="Capa_1" enable-background="new 0 0 510.951 510.951" height="512" viewBox="0 0 510.951 510.951" width="512" xmlns="http://www.w3.org/2000/svg"><g><path d="m471.911 281.615c1.713 0 3.102-1.389 3.102-3.102s-1.389-3.103-3.102-3.103-3.102 1.389-3.102 3.103c0 1.713 1.389 3.102 3.102 3.102z"/><path d="m461.534 291.992c1.713 0 3.102-1.389 3.102-3.102s-1.389-3.103-3.102-3.103-3.102 1.389-3.102 3.103 1.389 3.102 3.102 3.102z"/><path d="m471.911 301.615c1.713 0 3.102-1.389 3.102-3.102s-1.389-3.103-3.102-3.103-3.102 1.389-3.102 3.103c0 1.713 1.389 3.102 3.102 3.102z"/><path d="m461.534 311.992c1.713 0 3.102-1.389 3.102-3.102s-1.389-3.103-3.102-3.103-3.102 1.389-3.102 3.103 1.389 3.102 3.102 3.102z"/><path d="m441.534 291.992c1.713 0 3.102-1.389 3.102-3.102 0-.177-.024-.348-.052-.517-1.759.822-3.608 1.602-5.549 2.34.564.772 1.47 1.279 2.499 1.279z"/><path d="m451.911 301.615c1.713 0 3.102-1.389 3.102-3.102s-1.389-3.103-3.102-3.103-3.102 1.389-3.102 3.103c0 1.713 1.389 3.102 3.102 3.102z"/><path d="m441.534 311.992c1.713 0 3.102-1.389 3.102-3.102s-1.389-3.103-3.102-3.103-3.102 1.389-3.102 3.103 1.389 3.102 3.102 3.102z"/><path d="m451.911 321.615c1.713 0 3.102-1.389 3.102-3.102s-1.389-3.103-3.102-3.103-3.102 1.389-3.102 3.103c0 1.713 1.389 3.102 3.102 3.102z"/><path d="m431.911 301.615c1.713 0 3.102-1.389 3.102-3.102s-1.389-3.103-3.102-3.103-3.102 1.389-3.102 3.103c0 1.713 1.389 3.102 3.102 3.102z"/><path d="m421.534 311.992c1.713 0 3.102-1.389 3.102-3.102s-1.389-3.103-3.102-3.103-3.102 1.389-3.102 3.103 1.389 3.102 3.102 3.102z"/><path d="m431.911 321.615c1.713 0 3.102-1.389 3.102-3.102s-1.389-3.103-3.102-3.103-3.102 1.389-3.102 3.103c0 1.713 1.389 3.102 3.102 3.102z"/><path d="m411.911 301.615c1.713 0 3.102-1.389 3.102-3.102 0-.516-.138-.995-.361-1.423-1.879.331-3.807.647-5.796.945-.024.157-.048.314-.048.478.001 1.713 1.39 3.102 3.103 3.102z"/><path d="m401.534 311.992c1.713 0 3.102-1.389 3.102-3.102s-1.389-3.103-3.102-3.103-3.102 1.389-3.102 3.103 1.389 3.102 3.102 3.102z"/><path d="m411.911 321.615c1.713 0 3.102-1.389 3.102-3.102s-1.389-3.103-3.102-3.103-3.102 1.389-3.102 3.103c0 1.713 1.389 3.102 3.102 3.102z"/><path d="m401.534 331.992c1.713 0 3.102-1.389 3.102-3.102s-1.389-3.103-3.102-3.103-3.102 1.389-3.102 3.103 1.389 3.102 3.102 3.102z"/><path d="m391.911 301.615c1.258 0 2.336-.752 2.823-1.829-1.751.178-3.533.348-5.357.508.562.797 1.485 1.321 2.534 1.321z"/><path d="m381.534 311.992c1.713 0 3.102-1.389 3.102-3.102s-1.389-3.103-3.102-3.103-3.102 1.389-3.102 3.103 1.389 3.102 3.102 3.102z"/><path d="m391.911 321.615c1.713 0 3.102-1.389 3.102-3.102s-1.389-3.103-3.102-3.103-3.102 1.389-3.102 3.103c0 1.713 1.389 3.102 3.102 3.102z"/><path d="m381.534 331.992c1.713 0 3.102-1.389 3.102-3.102s-1.389-3.103-3.102-3.103-3.102 1.389-3.102 3.103 1.389 3.102 3.102 3.102z"/><path d="m372.849 301.455c-.53.029-1.063.058-1.598.086.213.046.433.074.66.074.329 0 .64-.065.938-.16z"/><path d="m361.534 311.992c1.713 0 3.102-1.389 3.102-3.102s-1.389-3.103-3.102-3.103-3.102 1.389-3.102 3.103 1.389 3.102 3.102 3.102z"/><path d="m371.911 321.615c1.713 0 3.102-1.389 3.102-3.102s-1.389-3.103-3.102-3.103-3.102 1.389-3.102 3.103c0 1.713 1.389 3.102 3.102 3.102z"/><path d="m361.534 331.992c1.713 0 3.102-1.389 3.102-3.102s-1.389-3.103-3.102-3.103-3.102 1.389-3.102 3.103 1.389 3.102 3.102 3.102z"/><path d="m341.534 311.992c1.713 0 3.102-1.389 3.102-3.102s-1.389-3.103-3.102-3.103-3.102 1.389-3.102 3.103 1.389 3.102 3.102 3.102z"/><path d="m351.911 321.615c1.713 0 3.102-1.389 3.102-3.102s-1.389-3.103-3.102-3.103-3.102 1.389-3.102 3.103c0 1.713 1.389 3.102 3.102 3.102z"/><path d="m341.534 331.992c1.713 0 3.102-1.389 3.102-3.102s-1.389-3.103-3.102-3.103-3.102 1.389-3.102 3.103 1.389 3.102 3.102 3.102z"/><path d="m321.534 311.992c1.713 0 3.102-1.389 3.102-3.102s-1.389-3.103-3.102-3.103-3.102 1.389-3.102 3.103 1.389 3.102 3.102 3.102z"/><path d="m301.534 305.787c-1.713 0-3.102 1.389-3.102 3.103s1.389 3.102 3.102 3.102 3.102-1.389 3.102-3.102-1.388-3.103-3.102-3.103z"/><path d="m311.911 321.615c1.713 0 3.102-1.389 3.102-3.102s-1.389-3.103-3.102-3.103-3.102 1.389-3.102 3.103c0 1.713 1.389 3.102 3.102 3.102z"/><path d="m301.534 325.787c-1.713 0-3.102 1.389-3.102 3.103s1.389 3.102 3.102 3.102 3.102-1.389 3.102-3.102-1.388-3.103-3.102-3.103z"/><path d="m281.534 305.787c-1.713 0-3.102 1.389-3.102 3.103s1.389 3.102 3.102 3.102 3.102-1.389 3.102-3.102-1.388-3.103-3.102-3.103z"/><path d="m291.911 315.41c-1.713 0-3.102 1.389-3.102 3.103 0 1.713 1.389 3.102 3.102 3.102s3.102-1.389 3.102-3.102-1.389-3.103-3.102-3.103z"/><path d="m281.534 325.787c-1.713 0-3.102 1.389-3.102 3.103s1.389 3.102 3.102 3.102 3.102-1.389 3.102-3.102-1.388-3.103-3.102-3.103z"/><path d="m291.911 335.41c-1.713 0-3.102 1.389-3.102 3.103 0 1.713 1.389 3.102 3.102 3.102s3.102-1.389 3.102-3.102-1.389-3.103-3.102-3.103z"/><path d="m261.534 305.787c-1.713 0-3.102 1.389-3.102 3.103s1.389 3.102 3.102 3.102 3.102-1.389 3.102-3.102-1.388-3.103-3.102-3.103z"/><path d="m271.911 315.41c-1.713 0-3.102 1.389-3.102 3.103 0 1.713 1.389 3.102 3.102 3.102s3.102-1.389 3.102-3.102-1.389-3.103-3.102-3.103z"/><path d="m261.534 325.787c-1.713 0-3.102 1.389-3.102 3.103s1.389 3.102 3.102 3.102 3.102-1.389 3.102-3.102-1.388-3.103-3.102-3.103z"/><path d="m271.911 335.41c-1.713 0-3.102 1.389-3.102 3.103 0 1.713 1.389 3.102 3.102 3.102s3.102-1.389 3.102-3.102-1.389-3.103-3.102-3.103z"/><path d="m241.534 305.787c-1.713 0-3.102 1.389-3.102 3.103s1.389 3.102 3.102 3.102 3.102-1.389 3.102-3.102-1.388-3.103-3.102-3.103z"/><path d="m251.911 315.41c-1.713 0-3.102 1.389-3.102 3.103 0 1.713 1.389 3.102 3.102 3.102s3.102-1.389 3.102-3.102-1.389-3.103-3.102-3.103z"/><path d="m241.534 325.787c-1.713 0-3.102 1.389-3.102 3.103s1.389 3.102 3.102 3.102 3.102-1.389 3.102-3.102-1.388-3.103-3.102-3.103z"/><path d="m221.534 305.787c-1.713 0-3.102 1.389-3.102 3.103s1.389 3.102 3.102 3.102 3.102-1.389 3.102-3.102-1.388-3.103-3.102-3.103z"/><path d="m231.911 315.41c-1.713 0-3.102 1.389-3.102 3.103 0 1.713 1.389 3.102 3.102 3.102s3.102-1.389 3.102-3.102-1.389-3.103-3.102-3.103z"/><path d="m221.534 325.787c-1.713 0-3.102 1.389-3.102 3.103s1.389 3.102 3.102 3.102 3.102-1.389 3.102-3.102-1.388-3.103-3.102-3.103z"/><path d="m201.534 305.787c-1.713 0-3.102 1.389-3.102 3.103s1.389 3.102 3.102 3.102 3.102-1.389 3.102-3.102-1.388-3.103-3.102-3.103z"/><path d="m211.911 315.41c-1.713 0-3.102 1.389-3.102 3.103 0 1.713 1.389 3.102 3.102 3.102s3.102-1.389 3.102-3.102-1.389-3.103-3.102-3.103z"/><path d="m201.534 325.787c-1.713 0-3.102 1.389-3.102 3.103s1.389 3.102 3.102 3.102 3.102-1.389 3.102-3.102-1.388-3.103-3.102-3.103z"/><path d="m191.911 301.615c.917 0 1.732-.405 2.3-1.038-1.602-.103-3.223-.207-4.859-.312.56.814 1.496 1.35 2.559 1.35z"/><path d="m181.534 305.787c-1.713 0-3.102 1.389-3.102 3.103s1.389 3.102 3.102 3.102 3.102-1.389 3.102-3.102-1.388-3.103-3.102-3.103z"/><path d="m191.911 315.41c-1.713 0-3.102 1.389-3.102 3.103 0 1.713 1.389 3.102 3.102 3.102s3.102-1.389 3.102-3.102-1.389-3.103-3.102-3.103z"/><path d="m181.534 325.787c-1.713 0-3.102 1.389-3.102 3.103s1.389 3.102 3.102 3.102 3.102-1.389 3.102-3.102-1.388-3.103-3.102-3.103z"/><path d="m171.911 301.615c1.436 0 2.633-.98 2.986-2.306-2.019-.136-4.038-.275-6.05-.415.19 1.532 1.481 2.721 3.064 2.721z"/><path d="m161.534 305.787c-1.713 0-3.102 1.389-3.102 3.103s1.389 3.102 3.102 3.102 3.102-1.389 3.102-3.102-1.388-3.103-3.102-3.103z"/><path d="m171.911 315.41c-1.713 0-3.102 1.389-3.102 3.103 0 1.713 1.389 3.102 3.102 3.102s3.102-1.389 3.102-3.102-1.389-3.103-3.102-3.103z"/><path d="m161.534 325.787c-1.713 0-3.102 1.389-3.102 3.103s1.389 3.102 3.102 3.102 3.102-1.389 3.102-3.102-1.388-3.103-3.102-3.103z"/><path d="m149.012 297.435c-.125.337-.203.697-.203 1.078 0 1.713 1.389 3.102 3.102 3.102s3.102-1.389 3.102-3.102c0-.213-.022-.421-.062-.621-2.011-.151-3.995-.304-5.939-.457z"/><path d="m141.534 305.787c-1.713 0-3.102 1.389-3.102 3.103s1.389 3.102 3.102 3.102 3.102-1.389 3.102-3.102-1.388-3.103-3.102-3.103z"/><path d="m151.911 315.41c-1.713 0-3.102 1.389-3.102 3.103 0 1.713 1.389 3.102 3.102 3.102s3.102-1.389 3.102-3.102-1.389-3.103-3.102-3.103z"/><path d="m141.534 325.787c-1.713 0-3.102 1.389-3.102 3.103s1.389 3.102 3.102 3.102 3.102-1.389 3.102-3.102-1.388-3.103-3.102-3.103z"/><path d="m130.412 295.813c-.952.53-1.603 1.534-1.603 2.7 0 1.713 1.389 3.102 3.102 3.102s3.102-1.389 3.102-3.102c0-.954-.439-1.796-1.116-2.365-1.196-.112-2.359-.224-3.485-.335z"/><path d="m121.534 305.787c-1.713 0-3.102 1.389-3.102 3.103s1.389 3.102 3.102 3.102 3.102-1.389 3.102-3.102-1.388-3.103-3.102-3.103z"/><path d="m131.911 315.41c-1.713 0-3.102 1.389-3.102 3.103 0 1.713 1.389 3.102 3.102 3.102s3.102-1.389 3.102-3.102-1.389-3.103-3.102-3.103z"/><path d="m121.534 325.787c-1.713 0-3.102 1.389-3.102 3.103s1.389 3.102 3.102 3.102 3.102-1.389 3.102-3.102-1.388-3.103-3.102-3.103z"/><path d="m111.911 295.41c-1.713 0-3.102 1.389-3.102 3.103 0 1.713 1.389 3.102 3.102 3.102s3.102-1.389 3.102-3.102-1.389-3.103-3.102-3.103z"/><path d="m101.534 305.787c-1.713 0-3.102 1.389-3.102 3.103s1.389 3.102 3.102 3.102 3.102-1.389 3.102-3.102-1.388-3.103-3.102-3.103z"/><path d="m111.911 315.41c-1.713 0-3.102 1.389-3.102 3.103 0 1.713 1.389 3.102 3.102 3.102s3.102-1.389 3.102-3.102-1.389-3.103-3.102-3.103z"/><path d="m101.534 325.787c-1.713 0-3.102 1.389-3.102 3.103s1.389 3.102 3.102 3.102 3.102-1.389 3.102-3.102-1.388-3.103-3.102-3.103z"/><path d="m91.911 295.41c-1.713 0-3.102 1.389-3.102 3.103 0 1.713 1.389 3.102 3.102 3.102s3.102-1.389 3.102-3.102-1.389-3.103-3.102-3.103z"/><path d="m81.534 305.787c-1.713 0-3.102 1.389-3.102 3.103s1.389 3.102 3.102 3.102 3.102-1.389 3.102-3.102-1.388-3.103-3.102-3.103z"/><path d="m91.911 315.41c-1.713 0-3.102 1.389-3.102 3.103 0 1.713 1.389 3.102 3.102 3.102s3.102-1.389 3.102-3.102-1.389-3.103-3.102-3.103z"/><path d="m81.534 325.787c-1.713 0-3.102 1.389-3.102 3.103s1.389 3.102 3.102 3.102 3.102-1.389 3.102-3.102-1.388-3.103-3.102-3.103z"/><path d="m71.911 295.41c-1.713 0-3.102 1.389-3.102 3.103 0 1.713 1.389 3.102 3.102 3.102s3.102-1.389 3.102-3.102-1.389-3.103-3.102-3.103z"/><path d="m61.534 305.787c-1.713 0-3.102 1.389-3.102 3.103s1.389 3.102 3.102 3.102 3.102-1.389 3.102-3.102-1.388-3.103-3.102-3.103z"/><path d="m71.911 315.41c-1.713 0-3.102 1.389-3.102 3.103 0 1.713 1.389 3.102 3.102 3.102s3.102-1.389 3.102-3.102-1.389-3.103-3.102-3.103z"/><path d="m61.534 325.787c-1.713 0-3.102 1.389-3.102 3.103s1.389 3.102 3.102 3.102 3.102-1.389 3.102-3.102-1.388-3.103-3.102-3.103z"/><path d="m51.911 295.41c-1.713 0-3.102 1.389-3.102 3.103 0 1.713 1.389 3.102 3.102 3.102s3.102-1.389 3.102-3.102-1.389-3.103-3.102-3.103z"/><path d="m41.534 305.787c-1.713 0-3.102 1.389-3.102 3.103s1.389 3.102 3.102 3.102 3.102-1.389 3.102-3.102-1.388-3.103-3.102-3.103z"/><path d="m51.911 315.41c-1.713 0-3.102 1.389-3.102 3.103 0 1.713 1.389 3.102 3.102 3.102s3.102-1.389 3.102-3.102-1.389-3.103-3.102-3.103z"/><path d="m41.534 325.787c-1.713 0-3.102 1.389-3.102 3.103s1.389 3.102 3.102 3.102 3.102-1.389 3.102-3.102-1.388-3.103-3.102-3.103z"/><path d="m31.911 295.41c-1.713 0-3.102 1.389-3.102 3.103 0 1.713 1.389 3.102 3.102 3.102s3.102-1.389 3.102-3.102-1.389-3.103-3.102-3.103z"/><path d="m31.911 315.41c-1.713 0-3.102 1.389-3.102 3.103 0 1.713 1.389 3.102 3.102 3.102s3.102-1.389 3.102-3.102-1.389-3.103-3.102-3.103z"/><path d="m507.966 379.574-19.642-35.103c.319-.192.643-.383.947-.576 7.433-4.73 9.625-14.59 4.895-22.023-2.307-3.624-5.836-5.991-9.705-6.928 3.259-6.46 4.965-13.832 5.169-22.206.711-29.182-30.449-44.79-96.187-66.794-10.549-3.532-21.699-6.951-33.505-10.571-45.704-14.016-97.507-29.901-112.882-53.818-.278-.433-.553-.988-.825-1.643.787-.64 1.508-1.367 2.125-2.193 2.061-2.764 2.881-6.274 2.261-9.661l-3.124-27.796-.052-.335c-.956-4.812-4.56-8.439-9.07-9.599-.43-4.223-.848-8.523-1.255-12.831 2.124-.841 4.006-2.247 5.396-4.111 2.057-2.758 2.878-6.259 2.266-9.64l-2.941-28.826-.057-.375c-.989-4.983-4.823-8.698-9.559-9.715-2.74-26.972-4.574-35.989-7.768-38.544-5.857-4.686-53.333-6.013-55.351-6.067-33.946-.911-53.688 1.043-58.683 5.809-.92.878-2.236 2.163-3.895 10.607-5.228-.147-10.673-.271-16.211-.367-15.484-.268-29.945-.284-40.717-.047-20.139.446-21.365 1.557-22.663 2.733-2.698 2.446-3.072 7.959-3.077 45.379-.004 28.122-.009 63.122-3.561 76.496-6.597 24.832-11.17 69.957-11.035 88.26.101 13.557 4.577 87.538 12.1 107.037-2.832 2.495-4.807 5.984-5.299 10.025-1.066 8.746 5.161 16.699 13.907 17.765 2.438.297 60.184 7.207 100.254 1.039 4.477-.579 24.632 1.191 42.412 2.752 12.219 1.073 26.101 2.292 40.811 3.372-30.606 1.259-56.18 22.283-64.322 50.611h-11.272c-8.398-29.222-35.346-50.672-67.232-50.672-38.58 0-69.967 31.387-69.967 69.967s31.387 69.967 69.967 69.967c31.887 0 58.834-21.45 67.232-50.672h11.272c8.398 29.222 35.346 50.672 67.232 50.672s58.834-21.45 67.232-50.672h11.453c8.398 29.222 35.346 50.672 67.233 50.672 38.58 0 69.966-31.387 69.966-69.967s-31.386-69.967-69.966-69.967c-31.886 0-58.834 21.45-67.233 50.672h-11.453c-7.288-25.359-28.55-44.855-54.882-49.569 17.834 1.118 36.425 1.908 54.432 1.908 3.104 0 6.198-.024 9.26-.073 34.888-.562 81.6-3.814 121.645-9.762l18.547 49.612c1.66 4.697 5.193 8.402 9.946 10.435 2.546 1.089 5.3 1.631 8.092 1.631 3.093 0 6.232-.666 9.182-1.993l37.783-16.999c5.686-2.558 9.983-7.252 11.791-12.877 1.601-4.978 1.085-10.123-1.417-14.429zm-437.346 93.095c-17.47 0-31.684-14.213-31.684-31.684s14.213-31.684 31.684-31.684c10.213 0 19.303 4.863 25.1 12.389h-16.759c-10.448 0-18.947 8.5-18.947 18.947v.696c0 10.447 8.499 18.947 18.947 18.947h16.758c-5.796 7.525-14.887 12.389-25.099 12.389zm145.736.048c-10.241 0-19.356-4.884-25.16-12.438h50.32c-5.804 7.555-14.918 12.438-25.16 12.438zm145.917-63.465c17.497 0 31.732 14.235 31.732 31.732 0 17.498-14.235 31.733-31.732 31.733-10.242 0-19.356-4.884-25.16-12.438h15.965c10.447 0 18.947-8.5 18.947-18.947v-.696c0-10.447-8.5-18.947-18.947-18.947h-15.965c5.804-7.554 14.919-12.437 25.16-12.437zm-116.244 20.502h39.381 7.81 39.38 20.478c6.001 0 10.883 4.882 10.883 10.883v.696c0 6.001-4.882 10.883-10.883 10.883h-20.478-39.381-7.81-39.38-59.346-39.381-7.629-39.433-21.28c-6.001 0-10.883-4.882-10.883-10.883v-.696c0-6.001 4.882-10.883 10.883-10.883h21.28 39.433 7.629 39.381zm-4.513-8.064h-50.32c5.804-7.554 14.918-12.438 25.16-12.438 10.241 0 19.356 4.883 25.16 12.438zm1.105-272.58.052.335c.243 1.225-.034 2.452-.781 3.453s-1.843 1.617-3.11 1.735l-140.457 13.935c-4.922.44-9.734-1.068-13.53-4.244s-6.128-7.64-6.566-12.569 1.069-9.734 4.245-13.53c3.175-3.796 7.639-6.128 12.603-6.569l139.774-13.648c.139-.013.277-.02.414-.02 2.015 0 3.775 1.383 4.236 3.37zm-13.478-50.358c.382 4.016.759 7.891 1.134 11.599l-71.88 7.019c-.062-4.003-.119-8.002-.169-11.991zm.047-46.128c.139-.013.277-.019.414-.019 2.01 0 3.765 1.375 4.232 3.352l2.936 28.778.057.376c.243 1.226-.034 2.452-.781 3.454-.747 1.001-1.843 1.617-3.087 1.733l-145.193 13.567c-10.174.914-19.191-6.637-20.096-16.813-.438-4.929 1.069-9.734 4.245-13.53 3.175-3.796 7.639-6.128 12.609-6.57zm-113.047-40.883c2.415-1.664 15.902-4.375 51.556-3.493 26.672.661 47.242 2.906 51.546 4.353 1.602 3.471 3.296 16.729 4.901 32.42l-66.657 6.602c-.609-27.825-1.526-29.591-3.858-31.189-1.158-.793-2.599-1.781-22.487-2.839-4.921-.262-10.494-.5-16.488-.707.522-2.521 1.023-4.278 1.487-5.147zm175.741 330.313c-12.666.205-25.855-.061-39.002-.609 1.235-.409 2.132-1.56 2.132-2.932 0-1.713-1.389-3.103-3.102-3.103s-3.102 1.389-3.102 3.103c0 1.27.764 2.357 1.856 2.837-5.489-.242-10.964-.531-16.386-.855.452-.539.734-1.224.734-1.982 0-1.713-1.389-3.103-3.102-3.103s-3.102 1.389-3.102 3.103c0 .618.186 1.191.497 1.675-4.856-.31-9.657-.644-14.374-.992.049-.22.081-.447.081-.683 0-1.713-1.389-3.103-3.102-3.103s-3.102 1.389-3.102 3.103c0 .076.017.147.022.222-4.77-.369-9.438-.749-13.969-1.13-.39-1.267-1.556-2.194-2.951-2.194-1.21 0-2.246.699-2.758 1.71-4.763-.409-9.357-.812-13.727-1.196-.731-.064-1.446-.127-2.158-.189-.411-.201-.868-.325-1.357-.325-.296 0-.576.055-.847.132-25.598-2.236-38.58-3.213-45.655-2.127-9.861 1.517-21.211 2.111-32.49 2.177-.318-.11-.653-.182-1.008-.182-.363 0-.705.074-1.029.189-28.878.009-56.667-3.308-57.06-3.355-1.808-.22-3.576-.112-5.263.249-1.577-4.316-3.096-12.204-4.48-21.836.349-.502.557-1.11.557-1.768 0-.96-.445-1.807-1.13-2.376-3.548-26.617-6.08-63.616-6.183-77.484-.132-17.867 4.329-61.905 10.764-86.13 3.823-14.391 3.828-48.484 3.832-78.564.003-15.909.005-33.749.861-39.143 13.603-2.204 101.132-.806 115.428 1.843.606 3.782.981 13.423 1.241 25.384l-65.679 6.505c-7.075.629-13.481 3.976-18.039 9.423-4.558 5.448-6.721 12.344-6.092 19.42 1.229 13.807 12.858 24.236 26.48 24.235.787 0 1.582-.035 2.381-.106l61.673-5.764c.051 4.003.109 8.014.172 12.024l-56.016 5.47c-7.075.629-13.481 3.976-18.039 9.423-4.558 5.448-6.722 12.344-6.092 19.419.629 7.075 3.976 13.481 9.423 18.039 4.826 4.038 10.789 6.196 17.034 6.196.805 0 1.614-.036 2.426-.108l52.997-5.258c1.483 22.644 3.606 26.387 5.837 28.171 8.399 6.718 49.078 24.335 84.968 39.876 4.835 2.094 9.549 4.135 14.038 6.087l4.355 1.892c19.392 8.424 37.709 16.381 50.553 23.474 16.5 9.113 18.964 14.156 18.964 16.351 0 6.169-3.974 23.352-7.951 38.895-.398-.186-.838-.297-1.306-.297-1.713 0-3.102 1.389-3.102 3.103 0 1.638 1.274 2.966 2.883 3.08-.858 3.27-1.692 6.385-2.459 9.206-1.989.095-3.974.181-5.957.263 1.226-.415 2.114-1.561 2.114-2.926 0-1.713-1.389-3.103-3.102-3.103s-3.102 1.389-3.102 3.103c0 1.449.998 2.656 2.341 2.997-6.488.255-12.928.442-19.269.544zm40.413-20.478c1.529-.192 2.717-1.482 2.717-3.063 0-1.062-.536-1.999-1.35-2.558 2.831-11.873 5.193-23.39 5.193-28.766 0-14.252-25.5-25.993-74.368-47.221l-4.353-1.891c-4.491-1.953-9.209-3.996-14.048-6.091-33.307-14.423-74.67-32.335-82.877-38.572-.568-1.069-1.957-5.434-3.099-22.872l78.618-7.8c.495 1.272 1.008 2.34 1.544 3.173 16.971 26.4 67.976 42.042 117.302 57.167 11.753 3.605 22.856 7.009 33.309 10.508 61.741 20.667 85.927 34.3 90.039 52.258-1.421.284-2.491 1.537-2.491 3.041 0 1.713 1.389 3.102 3.102 3.102.013 0 .025-.004.038-.004-.001.184 0 .368-.004.553-.134 5.515-1.076 10.482-2.802 14.974-.103.206-.186.422-.241.651-1.112 2.744-2.527 5.305-4.251 7.692-.155.069-.308.148-.462.221-.527-.412-1.181-.668-1.902-.668-1.713 0-3.102 1.389-3.102 3.103 0 .082.018.159.024.239-5.582 2.599-14.366 5.192-25.451 7.657-.517-.386-1.152-.622-1.847-.622-1.165 0-2.168.65-2.699 1.6-4.511.938-9.35 1.853-14.459 2.74.165-.379.26-.797.26-1.237 0-1.713-1.389-3.103-3.102-3.103s-3.102 1.389-3.102 3.103c0 .813.32 1.547.832 2.1-13.517 2.218-28.708 4.23-44.711 5.916-.545-.893-1.519-1.495-2.642-1.495-1.347 0-2.483.864-2.911 2.065-4.62.459-9.297.891-14.012 1.292.007-.085.026-.167.026-.254 0-1.713-1.389-3.103-3.102-3.103s-3.102 1.389-3.102 3.103c0 .261.042.51.102.752-4.802.379-9.633.726-14.472 1.036.359-.506.574-1.121.574-1.788 0-1.713-1.389-3.103-3.102-3.103s-3.102 1.389-3.102 3.103c0 .807.315 1.534.82 2.086-.767.045-1.533.091-2.3.134 1.455-5.406 3.24-12.186 4.966-19.158zm169.409 69.96c-1.109 3.455-3.815 6.367-7.422 7.99l-37.783 16.999c-3.56 1.602-7.496 1.712-10.795.302-2.656-1.136-4.614-3.163-5.538-5.777l-17.989-48.12c24.137-3.905 45.243-8.84 58.946-14.809l19.835 35.447c1.373 2.362 1.638 5.192.746 7.968z"/></g></svg>