<svg id="Capa_1" enable-background="new 0 0 511.843 511.843" height="512" viewBox="0 0 511.843 511.843" width="512" xmlns="http://www.w3.org/2000/svg"><g><path d="m491.969 364.998c-.617.567-1.01 1.373-1.01 2.277 0 1.713 1.389 3.102 3.102 3.102s3.102-1.389 3.102-3.102c0-.93-.417-1.754-1.064-2.322z"/><path d="m483.685 374.548c-1.713 0-3.102 1.389-3.102 3.103s1.389 3.102 3.102 3.102 3.102-1.389 3.102-3.102-1.389-3.103-3.102-3.103z"/><path d="m494.061 384.172c-1.713 0-3.102 1.389-3.102 3.103 0 1.713 1.389 3.102 3.102 3.102s3.102-1.389 3.102-3.102c.001-1.714-1.388-3.103-3.102-3.103z"/><path d="m483.685 394.548c-1.713 0-3.102 1.389-3.102 3.103s1.389 3.102 3.102 3.102 3.102-1.389 3.102-3.102-1.389-3.103-3.102-3.103z"/><path d="m494.061 404.172c-1.713 0-3.102 1.389-3.102 3.103 0 1.713 1.389 3.102 3.102 3.102s3.102-1.389 3.102-3.102c.001-1.714-1.388-3.103-3.102-3.103z"/><path d="m483.685 414.548c-1.713 0-3.102 1.389-3.102 3.103s1.389 3.102 3.102 3.102 3.102-1.389 3.102-3.102-1.389-3.103-3.102-3.103z"/><path d="m494.061 424.172c-1.713 0-3.102 1.389-3.102 3.103 0 1.713 1.389 3.102 3.102 3.102s3.102-1.389 3.102-3.102c.001-1.714-1.388-3.103-3.102-3.103z"/><path d="m483.685 434.548c-1.713 0-3.102 1.389-3.102 3.103s1.389 3.102 3.102 3.102 3.102-1.389 3.102-3.102-1.389-3.103-3.102-3.103z"/><path d="m494.061 444.172c-1.713 0-3.102 1.389-3.102 3.103 0 1.713 1.389 3.102 3.102 3.102s3.102-1.389 3.102-3.102c.001-1.714-1.388-3.103-3.102-3.103z"/><path d="m483.685 454.548c-1.713 0-3.102 1.389-3.102 3.103s1.389 3.102 3.102 3.102 3.102-1.389 3.102-3.102-1.389-3.103-3.102-3.103z"/><path d="m471.754 365.218c-.489.548-.795 1.264-.795 2.056 0 1.713 1.389 3.102 3.102 3.102s3.102-1.389 3.102-3.102c0-.816-.321-1.552-.836-2.106z"/><path d="m463.685 374.548c-1.713 0-3.102 1.389-3.102 3.103s1.389 3.102 3.102 3.102 3.102-1.389 3.102-3.102-1.389-3.103-3.102-3.103z"/><path d="m474.061 384.172c-1.713 0-3.102 1.389-3.102 3.103 0 1.713 1.389 3.102 3.102 3.102s3.102-1.389 3.102-3.102c.001-1.714-1.388-3.103-3.102-3.103z"/><path d="m463.685 394.548c-1.713 0-3.102 1.389-3.102 3.103s1.389 3.102 3.102 3.102 3.102-1.389 3.102-3.102-1.389-3.103-3.102-3.103z"/><path d="m474.061 404.172c-1.713 0-3.102 1.389-3.102 3.103 0 1.713 1.389 3.102 3.102 3.102s3.102-1.389 3.102-3.102c.001-1.714-1.388-3.103-3.102-3.103z"/><path d="m463.685 414.548c-1.713 0-3.102 1.389-3.102 3.103s1.389 3.102 3.102 3.102 3.102-1.389 3.102-3.102-1.389-3.103-3.102-3.103z"/><path d="m474.061 424.172c-1.713 0-3.102 1.389-3.102 3.103 0 1.713 1.389 3.102 3.102 3.102s3.102-1.389 3.102-3.102c.001-1.714-1.388-3.103-3.102-3.103z"/><path d="m463.685 434.548c-1.713 0-3.102 1.389-3.102 3.103s1.389 3.102 3.102 3.102 3.102-1.389 3.102-3.102-1.389-3.103-3.102-3.103z"/><path d="m474.061 444.172c-1.713 0-3.102 1.389-3.102 3.103 0 1.713 1.389 3.102 3.102 3.102s3.102-1.389 3.102-3.102c.001-1.714-1.388-3.103-3.102-3.103z"/><path d="m463.685 454.548c-1.713 0-3.102 1.389-3.102 3.103s1.389 3.102 3.102 3.102 3.102-1.389 3.102-3.102-1.389-3.103-3.102-3.103z"/><path d="m451.572 365.439c-.381.515-.613 1.146-.613 1.835 0 1.713 1.389 3.102 3.102 3.102s3.102-1.389 3.102-3.102c0-.715-.251-1.365-.658-1.89z"/><path d="m443.685 374.548c-1.713 0-3.102 1.389-3.102 3.103s1.389 3.102 3.102 3.102 3.102-1.389 3.102-3.102-1.389-3.103-3.102-3.103z"/><path d="m454.061 384.172c-1.713 0-3.102 1.389-3.102 3.103 0 1.713 1.389 3.102 3.102 3.102s3.102-1.389 3.102-3.102c.001-1.714-1.388-3.103-3.102-3.103z"/><path d="m443.685 394.548c-1.713 0-3.102 1.389-3.102 3.103s1.389 3.102 3.102 3.102 3.102-1.389 3.102-3.102-1.389-3.103-3.102-3.103z"/><path d="m454.061 404.172c-1.713 0-3.102 1.389-3.102 3.103 0 1.713 1.389 3.102 3.102 3.102s3.102-1.389 3.102-3.102c.001-1.714-1.388-3.103-3.102-3.103z"/><path d="m443.685 414.548c-1.713 0-3.102 1.389-3.102 3.103s1.389 3.102 3.102 3.102 3.102-1.389 3.102-3.102-1.389-3.103-3.102-3.103z"/><path d="m454.061 424.172c-1.713 0-3.102 1.389-3.102 3.103 0 1.713 1.389 3.102 3.102 3.102s3.102-1.389 3.102-3.102c.001-1.714-1.388-3.103-3.102-3.103z"/><path d="m443.685 434.548c-1.713 0-3.102 1.389-3.102 3.103s1.389 3.102 3.102 3.102 3.102-1.389 3.102-3.102-1.389-3.103-3.102-3.103z"/><path d="m454.061 444.172c-1.713 0-3.102 1.389-3.102 3.103 0 1.713 1.389 3.102 3.102 3.102s3.102-1.389 3.102-3.102c.001-1.714-1.388-3.103-3.102-3.103z"/><path d="m443.685 454.548c-1.713 0-3.102 1.389-3.102 3.103s1.389 3.102 3.102 3.102 3.102-1.389 3.102-3.102-1.389-3.103-3.102-3.103z"/><path d="m431.424 365.659c-.29.472-.465 1.021-.465 1.615 0 1.713 1.389 3.102 3.102 3.102s3.102-1.389 3.102-3.102c0-.617-.185-1.189-.496-1.672z"/><path d="m423.685 374.548c-1.713 0-3.102 1.389-3.102 3.103s1.389 3.102 3.102 3.102 3.102-1.389 3.102-3.102-1.389-3.103-3.102-3.103z"/><path d="m434.061 384.172c-1.713 0-3.102 1.389-3.102 3.103 0 1.713 1.389 3.102 3.102 3.102s3.102-1.389 3.102-3.102c.001-1.714-1.388-3.103-3.102-3.103z"/><path d="m423.685 394.548c-1.713 0-3.102 1.389-3.102 3.103s1.389 3.102 3.102 3.102 3.102-1.389 3.102-3.102-1.389-3.103-3.102-3.103z"/><path d="m434.061 404.172c-1.713 0-3.102 1.389-3.102 3.103 0 1.713 1.389 3.102 3.102 3.102s3.102-1.389 3.102-3.102c.001-1.714-1.388-3.103-3.102-3.103z"/><path d="m423.685 414.548c-1.713 0-3.102 1.389-3.102 3.103s1.389 3.102 3.102 3.102 3.102-1.389 3.102-3.102-1.389-3.103-3.102-3.103z"/><path d="m434.061 424.172c-1.713 0-3.102 1.389-3.102 3.103 0 1.713 1.389 3.102 3.102 3.102s3.102-1.389 3.102-3.102c.001-1.714-1.388-3.103-3.102-3.103z"/><path d="m423.685 434.548c-1.713 0-3.102 1.389-3.102 3.103s1.389 3.102 3.102 3.102 3.102-1.389 3.102-3.102-1.389-3.103-3.102-3.103z"/><path d="m434.061 444.172c-1.713 0-3.102 1.389-3.102 3.103 0 1.713 1.389 3.102 3.102 3.102s3.102-1.389 3.102-3.102c.001-1.714-1.388-3.103-3.102-3.103z"/><path d="m423.685 454.548c-1.713 0-3.102 1.389-3.102 3.103s1.389 3.102 3.102 3.102 3.102-1.389 3.102-3.102-1.389-3.103-3.102-3.103z"/><path d="m414.061 384.172c-1.713 0-3.102 1.389-3.102 3.103 0 1.713 1.389 3.102 3.102 3.102s3.102-1.389 3.102-3.102c.001-1.714-1.388-3.103-3.102-3.103z"/><path d="m403.685 394.548c-1.713 0-3.102 1.389-3.102 3.103s1.389 3.102 3.102 3.102 3.102-1.389 3.102-3.102-1.389-3.103-3.102-3.103z"/><path d="m414.061 404.172c-1.713 0-3.102 1.389-3.102 3.103 0 1.713 1.389 3.102 3.102 3.102s3.102-1.389 3.102-3.102c.001-1.714-1.388-3.103-3.102-3.103z"/><path d="m403.685 414.548c-1.713 0-3.102 1.389-3.102 3.103s1.389 3.102 3.102 3.102 3.102-1.389 3.102-3.102-1.389-3.103-3.102-3.103z"/><path d="m414.061 424.172c-1.713 0-3.102 1.389-3.102 3.103 0 1.713 1.389 3.102 3.102 3.102s3.102-1.389 3.102-3.102c.001-1.714-1.388-3.103-3.102-3.103z"/><path d="m403.685 434.548c-1.713 0-3.102 1.389-3.102 3.103s1.389 3.102 3.102 3.102 3.102-1.389 3.102-3.102-1.389-3.103-3.102-3.103z"/><path d="m414.061 444.172c-1.713 0-3.102 1.389-3.102 3.103 0 1.713 1.389 3.102 3.102 3.102s3.102-1.389 3.102-3.102c.001-1.714-1.388-3.103-3.102-3.103z"/><path d="m403.685 454.548c-1.713 0-3.102 1.389-3.102 3.103s1.389 3.102 3.102 3.102 3.102-1.389 3.102-3.102-1.389-3.103-3.102-3.103z"/><path d="m394.061 404.172c-1.713 0-3.102 1.389-3.102 3.103 0 1.713 1.389 3.102 3.102 3.102s3.102-1.389 3.102-3.102c.001-1.714-1.388-3.103-3.102-3.103z"/><path d="m383.685 414.548c-1.713 0-3.102 1.389-3.102 3.103s1.389 3.102 3.102 3.102 3.102-1.389 3.102-3.102-1.389-3.103-3.102-3.103z"/><path d="m394.061 424.172c-1.713 0-3.102 1.389-3.102 3.103 0 1.713 1.389 3.102 3.102 3.102s3.102-1.389 3.102-3.102c.001-1.714-1.388-3.103-3.102-3.103z"/><path d="m383.685 434.548c-1.713 0-3.102 1.389-3.102 3.103s1.389 3.102 3.102 3.102 3.102-1.389 3.102-3.102-1.389-3.103-3.102-3.103z"/><path d="m394.061 444.172c-1.713 0-3.102 1.389-3.102 3.103 0 1.713 1.389 3.102 3.102 3.102s3.102-1.389 3.102-3.102c.001-1.714-1.388-3.103-3.102-3.103z"/><path d="m383.685 454.548c-1.713 0-3.102 1.389-3.102 3.103s1.389 3.102 3.102 3.102 3.102-1.389 3.102-3.102-1.389-3.103-3.102-3.103z"/><path d="m374.061 424.172c-1.713 0-3.102 1.389-3.102 3.103 0 1.713 1.389 3.102 3.102 3.102s3.102-1.389 3.102-3.102c.001-1.714-1.388-3.103-3.102-3.103z"/><path d="m363.685 434.548c-1.713 0-3.102 1.389-3.102 3.103s1.389 3.102 3.102 3.102 3.102-1.389 3.102-3.102-1.389-3.103-3.102-3.103z"/><path d="m374.061 444.172c-1.713 0-3.102 1.389-3.102 3.103 0 1.713 1.389 3.102 3.102 3.102s3.102-1.389 3.102-3.102c.001-1.714-1.388-3.103-3.102-3.103z"/><path d="m363.685 454.548c-1.713 0-3.102 1.389-3.102 3.103s1.389 3.102 3.102 3.102 3.102-1.389 3.102-3.102-1.389-3.103-3.102-3.103z"/><path d="m343.685 434.548c-1.713 0-3.102 1.389-3.102 3.103s1.389 3.102 3.102 3.102 3.102-1.389 3.102-3.102-1.389-3.103-3.102-3.103z"/><path d="m354.061 444.172c-1.713 0-3.102 1.389-3.102 3.103 0 1.713 1.389 3.102 3.102 3.102s3.102-1.389 3.102-3.102c.001-1.714-1.388-3.103-3.102-3.103z"/><path d="m343.685 454.548c-1.713 0-3.102 1.389-3.102 3.103s1.389 3.102 3.102 3.102 3.102-1.389 3.102-3.102-1.389-3.103-3.102-3.103z"/><path d="m323.685 434.548c-1.713 0-3.102 1.389-3.102 3.103s1.389 3.102 3.102 3.102 3.102-1.389 3.102-3.102-1.389-3.103-3.102-3.103z"/><path d="m334.061 444.172c-1.713 0-3.102 1.389-3.102 3.103 0 1.713 1.389 3.102 3.102 3.102s3.102-1.389 3.102-3.102c.001-1.714-1.388-3.103-3.102-3.103z"/><path d="m323.685 454.548c-1.713 0-3.102 1.389-3.102 3.103s1.389 3.102 3.102 3.102 3.102-1.389 3.102-3.102-1.389-3.103-3.102-3.103z"/><path d="m303.685 434.548c-1.713 0-3.102 1.389-3.102 3.103s1.389 3.102 3.102 3.102 3.102-1.389 3.102-3.102-1.389-3.103-3.102-3.103z"/><path d="m314.061 444.172c-1.713 0-3.102 1.389-3.102 3.103 0 1.713 1.389 3.102 3.102 3.102s3.102-1.389 3.102-3.102c.001-1.714-1.388-3.103-3.102-3.103z"/><path d="m303.685 454.548c-1.713 0-3.102 1.389-3.102 3.103s1.389 3.102 3.102 3.102 3.102-1.389 3.102-3.102-1.389-3.103-3.102-3.103z"/><path d="m283.685 434.548c-1.713 0-3.102 1.389-3.102 3.103s1.389 3.102 3.102 3.102 3.102-1.389 3.102-3.102-1.389-3.103-3.102-3.103z"/><path d="m294.061 444.172c-1.713 0-3.102 1.389-3.102 3.103 0 1.713 1.389 3.102 3.102 3.102s3.102-1.389 3.102-3.102c.001-1.714-1.388-3.103-3.102-3.103z"/><path d="m283.685 454.548c-1.713 0-3.102 1.389-3.102 3.103s1.389 3.102 3.102 3.102 3.102-1.389 3.102-3.102-1.389-3.103-3.102-3.103z"/><path d="m274.061 444.172c-1.713 0-3.102 1.389-3.102 3.103 0 1.713 1.389 3.102 3.102 3.102s3.102-1.389 3.102-3.102c.001-1.714-1.388-3.103-3.102-3.103z"/><path d="m263.685 454.548c-1.713 0-3.102 1.389-3.102 3.103s1.389 3.102 3.102 3.102 3.102-1.389 3.102-3.102-1.389-3.103-3.102-3.103z"/><path d="m212.265 322.272c9.798-5.363 18.921-10.366 26.501-14.526 1.25.579 2.551 1.069 3.899 1.461 2.535.738 5.117 1.104 7.686 1.104 4.541 0 9.035-1.143 13.126-3.389 6.405-3.517 11.058-9.317 13.101-16.333 2.042-7.016 1.231-14.406-2.285-20.811 0 0 0 0-.001 0-1.854-3.379-4.326-6.207-7.195-8.43l-3.341-127.49 33.695 22.734c-3.022 6.003-5.522 12.323-7.441 18.915-8.219 28.229-4.954 57.969 9.195 83.741 20.007 36.444 57.768 57.084 96.673 57.084 17.89-.001 36.026-4.366 52.785-13.566 25.772-14.149 44.494-37.488 52.713-65.716 8.219-28.229 4.953-57.97-9.195-83.742-29.208-53.203-96.253-72.724-149.457-43.518-11.574 6.354-21.699 14.583-30.114 24.256l-41.184-27.729-23.716-15.784 42.359-23.254 1.854 3.379-15.312 8.406c-6.598 3.621-9.018 11.935-5.396 18.531 1.755 3.196 4.648 5.518 8.148 6.537 3.502 1.019 7.189.614 10.385-1.14l27.276-14.976c6.597-3.621 9.018-11.935 5.396-18.532l-14.991-27.308c-1.755-3.196-4.648-5.518-8.149-6.537-3.498-1.02-7.189-.613-10.384 1.141l-74.073 40.666c-4.158 2.282-6.866 6.644-7.067 11.382-.203 4.738 2.124 9.316 6.073 11.944l11.088 7.379-115.399 63.353-10.275-6.228 22.589-12.4c0-.001 0-.001 0-.001 6.752-3.707 9.231-12.217 5.524-18.971l-.798-1.452c-3.707-6.752-12.218-9.23-18.971-5.524l-59.136 32.465c-3.271 1.795-5.647 4.758-6.69 8.341-1.044 3.582-.63 7.358 1.166 10.629l.798 1.452c2.539 4.626 7.333 7.246 12.271 7.246 2.271 0 4.573-.554 6.699-1.721l8.912-4.893 24.022 14.559 1.354 58.741c-13.818 1.653-27.33 5.955-39.897 12.854-53.206 29.209-72.727 96.254-43.52 149.458 20.008 36.444 57.768 57.083 96.674 57.083 17.891 0 36.026-4.365 52.785-13.565 49.223-27.024 69.597-86.432 49.24-137.305zm55.082-48.682c5.157 9.393 1.711 21.231-7.683 26.388-4.55 2.499-9.802 3.074-14.785 1.622-4.984-1.451-9.104-4.756-11.603-9.306-5.156-9.393-1.71-21.229 7.684-26.387 2.96-1.625 6.161-2.395 9.32-2.395 6.868.001 13.535 3.645 17.067 10.078zm-131.229-85.548 100.352-55.092 3.971 124.488c-.52.202-1.035.42-1.547.656zm223.305-47.827c11.477-6.301 23.89-9.289 36.142-9.289 26.636 0 52.494 14.134 66.191 39.085 19.999 36.429 6.632 82.335-29.796 102.332-17.646 9.686-38.007 11.924-57.337 6.296-19.327-5.628-35.307-18.445-44.994-36.092-11.645-21.21-11.964-45.628-3.018-66.279l61.721 41.643c.053.036.107.071.162.104 4.154 2.521 9.388 2.635 13.656.292 2.091-1.148 3.852-2.838 5.093-4.885 3.883-6.405 1.859-14.768-4.506-18.693l-60.99-41.064c5.072-5.211 10.978-9.773 17.676-13.45zm-300.542 38.181c-2.922 1.607-6.609.533-8.215-2.392l-.797-1.451c-.778-1.417-.957-3.051-.506-4.603.452-1.551 1.48-2.833 2.897-3.611l59.136-32.465c.921-.505 1.918-.745 2.901-.745 2.139 0 4.214 1.134 5.314 3.137l.797 1.452c1.605 2.924.533 6.609-2.391 8.215v-.001zm20.823-2.394 11.437-6.278 16.202 9.819c1.223.741 2.746.772 3.998.086l123.211-67.641c1.227-.674 2.012-1.938 2.071-3.337.06-1.397-.615-2.725-1.78-3.5l-16.583-11.038c-1.635-1.088-2.598-2.981-2.514-4.943.084-1.961 1.204-3.766 2.925-4.711l74.074-40.665c1.321-.726 2.848-.894 4.297-.472 1.448.421 2.646 1.382 3.373 2.705l14.991 27.308c1.499 2.73.497 6.172-2.232 7.67l-27.276 14.975c-1.321.727-2.848.895-4.298.473-1.448-.422-2.646-1.383-3.373-2.706-1.498-2.73-.496-6.171 2.233-7.669l18.818-10.331c.93-.511 1.619-1.37 1.916-2.389.296-1.019.176-2.113-.335-3.043l-5.705-10.392c-1.062-1.937-3.494-2.644-5.431-1.582l-51.653 28.356c-1.227.674-2.012 1.938-2.071 3.337-.06 1.397.615 2.725 1.78 3.5l29.194 19.432 131.366 88.447c.053.035.107.069.16.102 2.663 1.615 3.516 5.096 1.9 7.76-.515.849-1.241 1.548-2.102 2.02-1.743.958-3.875.926-5.584-.076l-130.94-88.142c-1.244-.829-2.844-.893-4.151-.171-1.307.723-2.102 2.113-2.063 3.605l3.42 130.505c-3.387-1.131-6.987-1.6-10.591-1.352l-4.13-129.485c-.044-1.39-.808-2.657-2.016-3.347-1.209-.689-2.689-.702-3.907-.032l-111.783 61.367c-1.22.67-2.004 1.925-2.07 3.314-.067 1.39.593 2.714 1.742 3.498l105.482 71.898c-2.783 2.571-4.987 5.697-6.498 9.212l-104.326-71.124c-1.244-.849-2.859-.925-4.179-.201-1.319.725-2.12 2.129-2.072 3.634l4.488 140.377c.045 1.39.808 2.657 2.017 3.347.613.35 1.297.525 1.981.525.662 0 1.325-.164 1.925-.493l99.948-54.87c.394.958.837 1.902 1.342 2.823 1.357 2.472 3.058 4.68 5.034 6.58-50.959 27.967-111.486 60.935-119.043 64.323-1.255-.173-2.408-.759-3.298-1.688-1.043-1.09-1.6-2.521-1.567-4.028.001-.06.001-.119 0-.179l-3.883-168.484c-.031-1.366-.758-2.621-1.926-3.329zm143.341 109.223-23.964 13.156c-14.265-19.709-34.52-34.063-58.255-40.974-5.492-1.598-11.042-2.724-16.607-3.452l-1.341-41.947 100.202 68.312c-.161 1.638-.171 3.278-.035 4.905zm-55.417 30.422-40.721 22.355-1.534-47.96c16.241 3.493 31.256 12.312 42.255 25.605zm-21.761 114.109c-17.646 9.686-38.007 11.924-57.337 6.296-19.327-5.628-35.307-18.446-44.994-36.092-19.999-36.428-6.632-82.333 29.795-102.332 7.836-4.302 16.11-7.033 24.469-8.349l1.658 71.937c-.053 3.609 1.291 7.029 3.79 9.639 2.521 2.633 5.918 4.126 9.563 4.205.046.001.091.002.138.002 1.51 0 4.395-1.025 67.972-35.67 11.596 33.983-2.521 72.504-35.054 90.364z"/><path d="m511.775 328.828c0-1.058-.423-2.071-1.176-2.814-.752-.743-1.772-1.147-2.829-1.144l-117.764 1.287c-1.027.012-2.01.421-2.742 1.144l-66.419 65.659h-79.404c-1.228 0-2.387.569-3.136 1.541l-58.527 75.872c-.922 1.196-1.085 2.812-.419 4.167s2.045 2.213 3.555 2.213h324.966c1.051 0 2.059-.417 2.802-1.16.742-.744 1.16-1.751 1.159-2.802zm-15.045 140.003c.268-.459.433-.986.433-1.557 0-1.713-1.389-3.103-3.102-3.103s-3.102 1.389-3.102 3.103c0 .57.165 1.098.433 1.557h-14.662c.268-.459.433-.986.433-1.557 0-1.713-1.389-3.103-3.102-3.103s-3.102 1.389-3.102 3.103c0 .57.165 1.098.433 1.557h-14.662c.268-.459.433-.986.433-1.557 0-1.713-1.389-3.103-3.102-3.103s-3.102 1.389-3.102 3.103c0 .57.165 1.098.433 1.557h-14.662c.268-.459.433-.986.433-1.557 0-1.713-1.389-3.103-3.102-3.103s-3.102 1.389-3.102 3.103c0 .57.165 1.098.433 1.557h-14.662c.268-.459.433-.986.433-1.557 0-1.713-1.389-3.103-3.102-3.103s-3.102 1.389-3.102 3.103c0 .57.165 1.098.433 1.557h-14.662c.268-.459.433-.986.433-1.557 0-1.713-1.389-3.103-3.102-3.103s-3.102 1.389-3.102 3.103c0 .57.165 1.098.433 1.557h-14.662c.268-.459.433-.986.433-1.557 0-1.713-1.389-3.103-3.102-3.103s-3.102 1.389-3.102 3.103c0 .57.165 1.098.433 1.557h-14.662c.268-.459.433-.986.433-1.557 0-1.713-1.389-3.103-3.102-3.103s-3.102 1.389-3.102 3.103c0 .57.165 1.098.433 1.557h-14.662c.268-.459.433-.986.433-1.557 0-1.713-1.389-3.103-3.102-3.103s-3.102 1.389-3.102 3.103c0 .57.165 1.098.433 1.557h-14.662c.268-.459.433-.986.433-1.557 0-1.713-1.389-3.103-3.102-3.103s-3.102 1.389-3.102 3.103c0 .57.165 1.098.433 1.557h-14.662c.268-.459.433-.986.433-1.557 0-1.713-1.389-3.103-3.102-3.103s-3.102 1.389-3.102 3.103c0 .57.165 1.098.433 1.557h-14.662c.268-.459.433-.986.433-1.557 0-1.713-1.389-3.103-3.102-3.103s-3.102 1.389-3.102 3.103c0 .57.165 1.098.433 1.557h-14.662c.268-.459.433-.986.433-1.557 0-1.713-1.389-3.103-3.102-3.103s-3.102 1.389-3.102 3.103c0 .57.165 1.098.433 1.557h-60.419l52.415-67.95h79.085c1.042 0 2.043-.411 2.785-1.144l66.437-65.676 112.16-1.227.02 41.733c-.064-.004-.125-.019-.19-.019-1.713 0-3.102 1.389-3.102 3.103s1.389 3.102 3.102 3.102c.066 0 .128-.015.193-.02l.007 13.835c-.067-.004-.131-.02-.199-.02-1.713 0-3.102 1.389-3.102 3.103s1.389 3.102 3.102 3.102c.069 0 .134-.016.202-.021l.006 13.837c-.07-.005-.137-.021-.209-.021-1.713 0-3.102 1.389-3.102 3.103s1.389 3.102 3.102 3.102c.073 0 .14-.017.212-.022l.007 13.839c-.073-.005-.144-.022-.218-.022-1.713 0-3.102 1.389-3.102 3.103s1.389 3.102 3.102 3.102c.076 0 .147-.017.221-.023l.006 13.841c-.076-.006-.15-.023-.228-.023-1.713 0-3.102 1.389-3.102 3.103s1.389 3.102 3.102 3.102c.079 0 .153-.018.23-.023l.004 8.102h-7.189z"/></g></svg>