<svg id="Capa_1" enable-background="new 0 0 511.952 511.952" height="512" viewBox="0 0 511.952 511.952" width="512" xmlns="http://www.w3.org/2000/svg"><g><path d="m400.289 284.773c.302 0 .587-.057.863-.137.591-1.564 1.157-3.136 1.697-4.715-.559-.816-1.496-1.352-2.56-1.352-1.713 0-3.102 1.389-3.102 3.102s1.389 3.102 3.102 3.102z"/><path d="m389.913 295.149c1.713 0 3.102-1.389 3.102-3.102s-1.389-3.102-3.102-3.102-3.102 1.389-3.102 3.102c-.001 1.714 1.388 3.102 3.102 3.102z"/><path d="m389.501 308.987c-1.517.203-2.69 1.489-2.69 3.061 0 .365.075.71.19 1.035.855-1.355 1.689-2.721 2.5-4.096z"/><path d="m389.913 475.149c1.713 0 3.102-1.389 3.102-3.102s-1.389-3.102-3.102-3.102-3.102 1.389-3.102 3.102c-.001 1.714 1.388 3.102 3.102 3.102z"/><path d="m369.913 288.945c-1.713 0-3.102 1.389-3.102 3.102s1.389 3.102 3.102 3.102 3.102-1.389 3.102-3.102-1.389-3.102-3.102-3.102z"/><path d="m380.289 298.569c-1.713 0-3.102 1.389-3.102 3.102 0 1.714 1.389 3.102 3.102 3.102s3.102-1.389 3.102-3.102-1.388-3.102-3.102-3.102z"/><path d="m369.913 308.945c-1.713 0-3.102 1.389-3.102 3.102s1.389 3.102 3.102 3.102 3.102-1.389 3.102-3.102-1.389-3.102-3.102-3.102z"/><path d="m369.913 328.945c-1.713 0-3.102 1.389-3.102 3.102s1.389 3.102 3.102 3.102c.107 0 .207-.021.31-.031.943-1.04 1.873-2.087 2.784-3.147-.041-1.677-1.407-3.026-3.094-3.026z"/><path d="m369.913 415.149c.806 0 1.533-.315 2.084-.818l-2.845-5.281c-1.343.341-2.342 1.548-2.342 2.997 0 1.714 1.389 3.102 3.103 3.102z"/><path d="m369.913 435.149c1.713 0 3.102-1.389 3.102-3.102s-1.389-3.102-3.102-3.102-3.102 1.389-3.102 3.102c-.001 1.714 1.388 3.102 3.102 3.102z"/><path d="m380.289 444.773c1.713 0 3.102-1.389 3.102-3.102s-1.389-3.102-3.102-3.102-3.102 1.389-3.102 3.102 1.389 3.102 3.102 3.102z"/><path d="m369.913 455.149c1.713 0 3.102-1.389 3.102-3.102s-1.389-3.102-3.102-3.102-3.102 1.389-3.102 3.102c-.001 1.714 1.388 3.102 3.102 3.102z"/><path d="m380.289 464.773c1.713 0 3.102-1.389 3.102-3.102s-1.389-3.102-3.102-3.102-3.102 1.389-3.102 3.102 1.389 3.102 3.102 3.102z"/><path d="m369.913 475.149c1.713 0 3.102-1.389 3.102-3.102s-1.389-3.102-3.102-3.102-3.102 1.389-3.102 3.102c-.001 1.714 1.388 3.102 3.102 3.102z"/><path d="m380.289 484.773c1.713 0 3.102-1.389 3.102-3.102s-1.389-3.102-3.102-3.102-3.102 1.389-3.102 3.102 1.389 3.102 3.102 3.102z"/><path d="m369.913 495.149c1.713 0 3.102-1.389 3.102-3.102s-1.389-3.102-3.102-3.102-3.102 1.389-3.102 3.102c-.001 1.714 1.388 3.102 3.102 3.102z"/><path d="m360.289 298.569c-1.713 0-3.102 1.389-3.102 3.102 0 1.714 1.389 3.102 3.102 3.102s3.102-1.389 3.102-3.102-1.388-3.102-3.102-3.102z"/><path d="m349.913 308.945c-1.713 0-3.102 1.389-3.102 3.102s1.389 3.102 3.102 3.102 3.102-1.389 3.102-3.102-1.389-3.102-3.102-3.102z"/><path d="m360.289 318.569c-1.713 0-3.102 1.389-3.102 3.102 0 1.714 1.389 3.102 3.102 3.102s3.102-1.389 3.102-3.102-1.388-3.102-3.102-3.102z"/><path d="m349.913 328.945c-1.713 0-3.102 1.389-3.102 3.102s1.389 3.102 3.102 3.102 3.102-1.389 3.102-3.102-1.389-3.102-3.102-3.102z"/><path d="m360.289 338.569c-1.713 0-3.102 1.389-3.102 3.102 0 1.714 1.389 3.102 3.102 3.102s3.102-1.389 3.102-3.102-1.388-3.102-3.102-3.102z"/><path d="m349.913 348.945c-1.713 0-3.102 1.389-3.102 3.102s1.389 3.102 3.102 3.102 3.102-1.389 3.102-3.102-1.389-3.102-3.102-3.102z"/><path d="m349.913 368.945c-1.713 0-3.102 1.389-3.102 3.102s1.389 3.102 3.102 3.102 3.102-1.389 3.102-3.102-1.389-3.102-3.102-3.102z"/><path d="m349.913 388.945c-1.713 0-3.102 1.389-3.102 3.102s1.389 3.102 3.102 3.102 3.102-1.389 3.102-3.102-1.389-3.102-3.102-3.102z"/><path d="m360.289 404.773c1.713 0 3.102-1.389 3.102-3.102s-1.389-3.102-3.102-3.102-3.102 1.389-3.102 3.102 1.389 3.102 3.102 3.102z"/><path d="m349.913 408.945c-1.713 0-3.102 1.389-3.102 3.102s1.389 3.102 3.102 3.102 3.102-1.389 3.102-3.102-1.389-3.102-3.102-3.102z"/><path d="m360.289 424.773c1.713 0 3.102-1.389 3.102-3.102s-1.389-3.102-3.102-3.102-3.102 1.389-3.102 3.102 1.389 3.102 3.102 3.102z"/><path d="m349.913 428.945c-1.713 0-3.102 1.389-3.102 3.102s1.389 3.102 3.102 3.102 3.102-1.389 3.102-3.102-1.389-3.102-3.102-3.102z"/><path d="m360.289 444.773c1.713 0 3.102-1.389 3.102-3.102s-1.389-3.102-3.102-3.102-3.102 1.389-3.102 3.102 1.389 3.102 3.102 3.102z"/><path d="m349.913 448.945c-1.713 0-3.102 1.389-3.102 3.102s1.389 3.102 3.102 3.102 3.102-1.389 3.102-3.102-1.389-3.102-3.102-3.102z"/><path d="m360.289 464.773c1.713 0 3.102-1.389 3.102-3.102s-1.389-3.102-3.102-3.102-3.102 1.389-3.102 3.102 1.389 3.102 3.102 3.102z"/><path d="m349.913 468.945c-1.713 0-3.102 1.389-3.102 3.102s1.389 3.102 3.102 3.102 3.102-1.389 3.102-3.102-1.389-3.102-3.102-3.102z"/><path d="m360.289 484.773c1.713 0 3.102-1.389 3.102-3.102s-1.389-3.102-3.102-3.102-3.102 1.389-3.102 3.102 1.389 3.102 3.102 3.102z"/><path d="m349.913 488.945c-1.713 0-3.102 1.389-3.102 3.102s1.389 3.102 3.102 3.102 3.102-1.389 3.102-3.102-1.389-3.102-3.102-3.102z"/><path d="m340.289 318.569c-1.713 0-3.102 1.389-3.102 3.102 0 1.714 1.389 3.102 3.102 3.102s3.102-1.389 3.102-3.102-1.388-3.102-3.102-3.102z"/><path d="m329.913 328.945c-1.713 0-3.102 1.389-3.102 3.102s1.389 3.102 3.102 3.102 3.102-1.389 3.102-3.102-1.389-3.102-3.102-3.102z"/><path d="m340.289 338.569c-1.713 0-3.102 1.389-3.102 3.102 0 1.714 1.389 3.102 3.102 3.102s3.102-1.389 3.102-3.102-1.388-3.102-3.102-3.102z"/><path d="m329.913 348.945c-1.713 0-3.102 1.389-3.102 3.102s1.389 3.102 3.102 3.102 3.102-1.389 3.102-3.102-1.389-3.102-3.102-3.102z"/><path d="m340.289 358.569c-1.713 0-3.102 1.389-3.102 3.102 0 1.714 1.389 3.102 3.102 3.102s3.102-1.389 3.102-3.102-1.388-3.102-3.102-3.102z"/><path d="m329.913 368.945c-1.713 0-3.102 1.389-3.102 3.102s1.389 3.102 3.102 3.102 3.102-1.389 3.102-3.102-1.389-3.102-3.102-3.102z"/><path d="m340.289 378.569c-1.713 0-3.102 1.389-3.102 3.102 0 1.714 1.389 3.102 3.102 3.102s3.102-1.389 3.102-3.102-1.388-3.102-3.102-3.102z"/><path d="m329.913 388.945c-1.713 0-3.102 1.389-3.102 3.102s1.389 3.102 3.102 3.102 3.102-1.389 3.102-3.102-1.389-3.102-3.102-3.102z"/><path d="m340.289 398.569c-1.713 0-3.102 1.389-3.102 3.102 0 1.714 1.389 3.102 3.102 3.102s3.102-1.389 3.102-3.102-1.388-3.102-3.102-3.102z"/><path d="m329.913 408.945c-.678 0-1.3.223-1.811.592l2.524 5.521c1.368-.323 2.389-1.545 2.389-3.012 0-1.712-1.389-3.101-3.102-3.101z"/><path d="m340.289 418.569c-1.713 0-3.102 1.389-3.102 3.102 0 1.714 1.389 3.102 3.102 3.102s3.102-1.389 3.102-3.102-1.388-3.102-3.102-3.102z"/><path d="m341.396 438.781c.336.867.637 1.748.877 2.647.186.699.339 1.405.476 2.113.397-.521.642-1.165.642-1.871 0-1.321-.83-2.442-1.995-2.889z"/><path d="m342.16 459.211c-.479 1.886-1.102 3.745-1.846 5.56 1.702-.013 3.078-1.395 3.078-3.1-.001-1.007-.488-1.893-1.232-2.46z"/><path d="m340.289 478.569c-1.713 0-3.102 1.389-3.102 3.102 0 1.714 1.389 3.102 3.102 3.102s3.102-1.389 3.102-3.102-1.388-3.102-3.102-3.102z"/><path d="m329.913 488.945c-1.713 0-3.102 1.389-3.102 3.102s1.389 3.102 3.102 3.102 3.102-1.389 3.102-3.102-1.389-3.102-3.102-3.102z"/><path d="m320.289 338.569c-1.713 0-3.102 1.389-3.102 3.102 0 1.714 1.389 3.102 3.102 3.102s3.102-1.389 3.102-3.102-1.388-3.102-3.102-3.102z"/><path d="m310.267 348.981c-.439 2.014-.743 4.056-.903 6.113.179.032.361.055.549.055 1.713 0 3.102-1.389 3.102-3.102 0-1.592-1.204-2.889-2.748-3.066z"/><path d="m320.289 358.569c-1.713 0-3.102 1.389-3.102 3.102 0 1.714 1.389 3.102 3.102 3.102s3.102-1.389 3.102-3.102-1.388-3.102-3.102-3.102z"/><path d="m310.473 369.001c.427 1.767.967 3.52 1.62 5.25.569-.562.922-1.342.922-2.205 0-1.52-1.097-2.78-2.542-3.045z"/><path d="m320.289 378.569c-1.713 0-3.102 1.389-3.102 3.102 0 1.714 1.389 3.102 3.102 3.102s3.102-1.389 3.102-3.102-1.388-3.102-3.102-3.102z"/><path d="m409.913 248.945c-1.713 0-3.102 1.389-3.102 3.102 0 1.456 1.007 2.669 2.36 3.003.34-2.024.639-4.054.9-6.089-.055-.003-.105-.016-.158-.016z"/><path d="m400.289 238.569c-1.713 0-3.102 1.389-3.102 3.102 0 1.714 1.389 3.102 3.102 3.102s3.102-1.389 3.102-3.102-1.388-3.102-3.102-3.102z"/><path d="m389.913 248.945c-1.713 0-3.102 1.389-3.102 3.102s1.389 3.102 3.102 3.102 3.102-1.389 3.102-3.102-1.389-3.102-3.102-3.102z"/><path d="m369.913 115.149c1.713 0 3.102-1.389 3.102-3.102s-1.389-3.102-3.102-3.102-3.102 1.389-3.102 3.102c-.001 1.714 1.388 3.102 3.102 3.102z"/><path d="m372.793 233.183c.139-.352.221-.734.221-1.135 0-.042-.011-.082-.012-.123-.065.419-.139.838-.209 1.258z"/><path d="m380.289 238.569c-1.713 0-3.102 1.389-3.102 3.102 0 1.714 1.389 3.102 3.102 3.102s3.102-1.389 3.102-3.102-1.388-3.102-3.102-3.102z"/><path d="m369.913 248.945c-.182 0-.357.023-.531.053-.482 1.792-.998 3.572-1.539 5.344.55.496 1.271.807 2.07.807 1.713 0 3.102-1.389 3.102-3.102s-1.389-3.102-3.102-3.102z"/><path d="m380.289 258.569c-1.713 0-3.102 1.389-3.102 3.102 0 1.714 1.389 3.102 3.102 3.102s3.102-1.389 3.102-3.102-1.388-3.102-3.102-3.102z"/><path d="m369.913 268.945c-1.713 0-3.102 1.389-3.102 3.102s1.389 3.102 3.102 3.102 3.102-1.389 3.102-3.102-1.389-3.102-3.102-3.102z"/><path d="m359.688 84.712c-.777-1.295-1.576-2.57-2.385-3.836-.068.255-.116.518-.116.794 0 1.508 1.075 2.762 2.501 3.042z"/><path d="m349.913 95.149c1.713 0 3.102-1.389 3.102-3.102s-1.389-3.102-3.102-3.102-3.102 1.389-3.102 3.102c-.001 1.714 1.388 3.102 3.102 3.102z"/><path d="m360.289 104.773c1.713 0 3.102-1.389 3.102-3.102s-1.389-3.102-3.102-3.102-3.102 1.389-3.102 3.102 1.389 3.102 3.102 3.102z"/><path d="m349.913 108.945c-.39 0-.76.08-1.103.211l2.224 5.776c1.158-.45 1.981-1.568 1.981-2.885 0-1.713-1.389-3.102-3.102-3.102z"/><path d="m360.289 124.773c1.713 0 3.102-1.389 3.102-3.102s-1.389-3.102-3.102-3.102-3.102 1.389-3.102 3.102 1.389 3.102 3.102 3.102z"/><path d="m360.289 278.569c-1.713 0-3.102 1.389-3.102 3.102 0 .456.104.885.28 1.274l5.586-2.658c-.51-1.015-1.55-1.718-2.764-1.718z"/><path d="m330.322 48.986c-.135-.018-.269-.041-.41-.041-1.713 0-3.102 1.389-3.102 3.102s1.389 3.102 3.102 3.102 3.102-1.389 3.102-3.102c0-.232-.03-.456-.078-.673-.858-.812-1.739-1.596-2.614-2.388z"/><path d="m340.289 64.773c1.522 0 2.782-1.097 3.046-2.543-1.074-1.231-2.159-2.447-3.267-3.639-1.608.115-2.882 1.442-2.882 3.08.001 1.713 1.39 3.102 3.103 3.102z"/><path d="m343.391 81.671c0-1.713-1.389-3.102-3.102-3.102-1.171 0-2.178.656-2.706 1.614.572 1.373 1.131 2.756 1.669 4.153l.108.28c.296.094.604.158.93.158 1.713-.001 3.101-1.39 3.101-3.103z"/><path d="m306.81 32.047c0 .097.02.188.029.283.844.91 1.678 1.831 2.503 2.762.185.034.375.057.57.057.683 0 1.309-.227 1.822-.602-1.604-1.064-3.224-2.098-4.863-3.101-.038.195-.061.396-.061.601z"/><path d="m317.187 41.671c0 1.714 1.389 3.102 3.102 3.102 1.289 0 2.393-.787 2.862-1.905-1.559-1.248-3.14-2.464-4.741-3.649-.739.566-1.223 1.448-1.223 2.452z"/><path d="m402.833 109.824c-7.062 0-13.843 1.206-20.169 3.396l-7.752-16.777c-38.427-83.16-137.343-119.555-220.505-81.129l-10.673 4.932c-83.16 38.425-119.555 137.343-81.129 220.504l28.973 62.704c14.089 30.492 36.718 55.683 65.439 72.849 2.778 1.66 5.606 3.211 8.459 4.701.202.131.415.243.637.335 25.773 13.32 54.414 19.689 83.477 18.441 18.048-.776 34.361 9.85 40.6 26.442l22.907 60.917c.825 2.193 1.645 3.93 2.581 5.464 7.364 12.079 22.989 19.35 38.16 19.349 6.055 0 12.043-1.159 17.398-3.634l7.41-3.424c18.557-8.574 29.178-32.835 22.729-51.919-.557-1.648-1.325-3.361-2.419-5.392l-30.996-57.546c-8.336-15.477-5.747-34.633 6.442-47.667 21.024-22.482 35.278-50.148 41.447-80.305.001-.009.004-.018.005-.028.375-1.836.729-3.68 1.044-5.534 1.427-8.399 2.199-16.834 2.33-25.247 26.157-7.204 45.433-31.188 45.433-59.604 0-34.092-27.736-61.828-61.828-61.828zm-44.823 393.933c1.757-.196 3.486-.515 5.162-.97-1.676.455-3.404.774-5.162.97zm21.051-179.256c1.22-1.603 2.401-3.227 3.553-4.866-.569-.649-1.394-1.067-2.324-1.067-1.713 0-3.102 1.389-3.102 3.102 0 1.273.768 2.364 1.865 2.842-3.254 4.275-6.736 8.424-10.468 12.415-14.528 15.535-17.597 38.396-7.637 56.887l30.996 57.546c.008.015.014.028.023.043-.008-.015-.014-.028-.023-.043l-1.24-2.302c-.253-.067-.515-.114-.789-.114-1.713 0-3.102 1.389-3.102 3.102s1.389 3.102 3.102 3.102c1.343 0 2.476-.858 2.908-2.052-.124-.26-.254-.526-.392-.8.614 1.209 1.071 2.257 1.398 3.228 5.137 15.2-3.692 35.284-18.523 42.136l-7.41 3.424c-1.509.697-3.09 1.258-4.717 1.7.134-.347.215-.721.215-1.115 0-1.713-1.389-3.102-3.102-3.102s-3.102 1.389-3.102 3.102c0 .807.316 1.535.82 2.087-5.874.654-12.065-.103-17.739-2.039.974.332 1.962.63 2.963.892.095-.298.16-.609.16-.939 0-1.713-1.389-3.102-3.102-3.102-1.34 0-2.471.854-2.905 2.044.939.401 1.897.768 2.87 1.101-7.478-2.555-14.05-7.149-17.775-13.258-.669-1.097-1.281-2.407-1.926-4.121l-22.907-60.917c-7.2-19.146-25.587-31.645-46.202-31.645-.729 0-1.464.016-2.199.047-2.318.1-4.623.149-6.926.149-23.115-.001-45.41-4.991-65.624-14.199l174.08-82.819-.298.142c.531-.098 1.006-.337 1.405-.669l25.382-12.076c.31 1.387 1.543 2.425 3.023 2.425 1.713 0 3.102-1.389 3.102-3.102 0-.726-.26-1.385-.678-1.914l23.573-11.215c-5.186 19.966-14.323 39.004-27.226 55.96zm21.113-61.874 3.162-1.504c-.26-1.451-1.521-2.554-3.047-2.554-1.713 0-3.102 1.389-3.102 3.102 0 .774.293 1.472.761 2.015l-230.324 109.577c-29.614-15.866-54.019-41.133-68.813-73.151l-28.973-62.704c-36.583-79.173-1.934-173.347 77.238-209.93l10.673-4.932c69.81-32.257 151.272-9.125 194.645 51.068-1.103-1.531-2.231-3.038-3.383-4.521-1.27.388-2.201 1.556-2.201 2.953 0 1.713 1.389 3.102 3.102 3.102 1.08 0 2.029-.553 2.584-1.391 5.775 8.034 10.881 16.718 15.183 26.027l7.635 16.524c-20.315 10.143-34.308 31.134-34.308 55.343 0 28.578 19.494 52.679 45.879 59.731-.047.214-.076.436-.076.664 0 1.713 1.389 3.102 3.102 3.102 1.497 0 2.745-1.06 3.037-2.47 3.22.519 6.519.8 9.884.8 1.432 0 2.852-.053 4.259-.154.488 1.074 1.564 1.824 2.82 1.824.47 0 .91-.114 1.309-.301-.296 7.999-1.189 15.957-2.695 23.805zm11.076-28.577c.012-.387.013-.774.022-1.161.006-.001.012-.001.019-.002-.01.387-.029.775-.041 1.163z"/></g></svg>