<svg id="Capa_1" enable-background="new 0 0 511.332 511.332" height="512" viewBox="0 0 511.332 511.332" width="512" xmlns="http://www.w3.org/2000/svg"><g><path d="m163.557 443.206c-1.713 0-3.102 1.389-3.102 3.103 0 1.713 1.389 3.102 3.102 3.102s3.102-1.389 3.102-3.102c.001-1.714-1.388-3.103-3.102-3.103z"/><path d="m173.934 452.83c-1.713 0-3.102 1.389-3.102 3.103 0 1.713 1.389 3.102 3.102 3.102s3.102-1.389 3.102-3.102c0-1.714-1.389-3.103-3.102-3.103z"/><path d="m163.557 463.206c-1.713 0-3.102 1.389-3.102 3.103 0 1.713 1.389 3.102 3.102 3.102s3.102-1.389 3.102-3.102c.001-1.714-1.388-3.103-3.102-3.103z"/><path d="m157.026 436.029-2.995 2.996c1.634-.052 2.944-1.361 2.995-2.996z"/><path d="m146.65 446.405-2.996 2.996c1.635-.051 2.944-1.361 2.996-2.996z"/><path d="m153.934 452.83c-1.713 0-3.102 1.389-3.102 3.103 0 1.713 1.389 3.102 3.102 3.102s3.102-1.389 3.102-3.102c0-1.714-1.389-3.103-3.102-3.103z"/><path d="m143.557 463.206c-1.713 0-3.102 1.389-3.102 3.103 0 1.713 1.389 3.102 3.102 3.102s3.102-1.389 3.102-3.102c.001-1.714-1.388-3.103-3.102-3.103z"/><path d="m153.934 472.83c-1.713 0-3.102 1.389-3.102 3.103 0 1.713 1.389 3.102 3.102 3.102s3.102-1.389 3.102-3.102c0-1.714-1.389-3.103-3.102-3.103z"/><path d="m143.557 483.206c-1.713 0-3.102 1.389-3.102 3.103 0 1.713 1.389 3.102 3.102 3.102s3.102-1.389 3.102-3.102c.001-1.714-1.388-3.103-3.102-3.103z"/><path d="m132.796 458.812c.353.14.735.222 1.138.222 1.713 0 3.102-1.389 3.102-3.102 0-.149-.023-.292-.044-.436-1.374 1.152-2.776 2.251-4.196 3.316z"/><path d="m125.424 463.845c-1.623 1.004-3.262 1.969-4.928 2.871.201 1.519 1.488 2.694 3.061 2.694 1.713 0 3.102-1.389 3.102-3.102.001-1.009-.489-1.896-1.235-2.463z"/><path d="m133.934 472.83c-1.713 0-3.102 1.389-3.102 3.103 0 1.713 1.389 3.102 3.102 3.102s3.102-1.389 3.102-3.102c0-1.714-1.389-3.103-3.102-3.103z"/><path d="m123.557 483.206c-1.713 0-3.102 1.389-3.102 3.103 0 1.713 1.389 3.102 3.102 3.102s3.102-1.389 3.102-3.102c.001-1.714-1.388-3.103-3.102-3.103z"/><path d="m133.934 492.83c-1.713 0-3.102 1.389-3.102 3.103 0 1.713 1.389 3.102 3.102 3.102s3.102-1.389 3.102-3.102c0-1.714-1.389-3.103-3.102-3.103z"/><path d="m113.934 472.83c-1.713 0-3.102 1.389-3.102 3.103 0 1.713 1.389 3.102 3.102 3.102s3.102-1.389 3.102-3.102c0-1.714-1.389-3.103-3.102-3.103z"/><path d="m103.557 483.206c-1.713 0-3.102 1.389-3.102 3.103 0 1.713 1.389 3.102 3.102 3.102s3.102-1.389 3.102-3.102c.001-1.714-1.388-3.103-3.102-3.103z"/><path d="m113.934 492.83c-1.713 0-3.102 1.389-3.102 3.103 0 1.713 1.389 3.102 3.102 3.102s3.102-1.389 3.102-3.102c0-1.714-1.389-3.103-3.102-3.103z"/><path d="m91.055 477.073c.456 1.147 1.57 1.961 2.879 1.961 1.713 0 3.102-1.389 3.102-3.102 0-.054-.013-.104-.016-.157-1.978.489-3.966.933-5.965 1.298z"/><path d="m83.557 483.206c-1.713 0-3.102 1.389-3.102 3.103 0 1.713 1.389 3.102 3.102 3.102s3.102-1.389 3.102-3.102c.001-1.714-1.388-3.103-3.102-3.103z"/><path d="m93.934 492.83c-1.713 0-3.102 1.389-3.102 3.103 0 1.713 1.389 3.102 3.102 3.102s3.102-1.389 3.102-3.102c0-1.714-1.389-3.103-3.102-3.103z"/><path d="m73.934 479.034c.516 0 .996-.138 1.424-.361-.939.021-1.877.021-2.816.017.42.213.888.344 1.392.344z"/><path d="m63.557 483.206c-1.713 0-3.102 1.389-3.102 3.103 0 1.713 1.389 3.102 3.102 3.102s3.102-1.389 3.102-3.102c.001-1.714-1.388-3.103-3.102-3.103z"/><path d="m53.934 479.034c1.199 0 2.228-.688 2.744-1.684-1.949-.323-3.889-.713-5.819-1.152.137 1.587 1.453 2.836 3.075 2.836z"/><path d="m483.557 223.206c-1.713 0-3.102 1.389-3.102 3.102s1.389 3.102 3.102 3.102 3.102-1.389 3.102-3.102c.001-1.713-1.388-3.102-3.102-3.102z"/><path d="m493.934 239.034c1.713 0 3.102-1.389 3.102-3.102s-1.389-3.103-3.102-3.103-3.102 1.389-3.102 3.103c0 1.713 1.389 3.102 3.102 3.102z"/><path d="m483.557 243.206c-1.713 0-3.102 1.389-3.102 3.102s1.389 3.102 3.102 3.102 3.102-1.389 3.102-3.102c.001-1.713-1.388-3.102-3.102-3.102z"/><path d="m493.934 259.034c1.713 0 3.102-1.389 3.102-3.102s-1.389-3.103-3.102-3.103-3.102 1.389-3.102 3.103 1.389 3.102 3.102 3.102z"/><path d="m483.557 263.206c-1.713 0-3.102 1.389-3.102 3.103 0 1.713 1.389 3.102 3.102 3.102s3.102-1.389 3.102-3.102c.001-1.714-1.388-3.103-3.102-3.103z"/><path d="m483.557 283.206c-1.713 0-3.102 1.389-3.102 3.103 0 1.713 1.389 3.102 3.102 3.102s3.102-1.389 3.102-3.102c.001-1.714-1.388-3.103-3.102-3.103z"/><path d="m474.445 212.881c.133 1.713.22 3.439.22 5.188 0 .292-.009.582-.013.874 1.365-.325 2.384-1.545 2.384-3.01 0-1.539-1.122-2.807-2.591-3.052z"/><path d="m473.934 232.83c-.337 0-.655.067-.959.167-.387 1.689-.835 3.355-1.348 4.991.568.637 1.386 1.046 2.307 1.046 1.713 0 3.102-1.389 3.102-3.102s-1.389-3.102-3.102-3.102z"/><path d="m473.934 252.83c-1.713 0-3.102 1.389-3.102 3.103 0 1.713 1.389 3.102 3.102 3.102s3.102-1.389 3.102-3.102c0-1.714-1.389-3.103-3.102-3.103z"/><path d="m463.557 263.206c-1.713 0-3.102 1.389-3.102 3.103 0 1.713 1.389 3.102 3.102 3.102s3.102-1.389 3.102-3.102c.001-1.714-1.388-3.103-3.102-3.103z"/><path d="m473.934 272.83c-1.713 0-3.102 1.389-3.102 3.103 0 1.713 1.389 3.102 3.102 3.102s3.102-1.389 3.102-3.102c0-1.714-1.389-3.103-3.102-3.103z"/><path d="m463.557 283.206c-1.713 0-3.102 1.389-3.102 3.103 0 1.713 1.389 3.102 3.102 3.102s3.102-1.389 3.102-3.102c.001-1.714-1.388-3.103-3.102-3.103z"/><path d="m473.934 292.83c-1.713 0-3.102 1.389-3.102 3.103 0 1.713 1.389 3.102 3.102 3.102s3.102-1.389 3.102-3.102c0-1.714-1.389-3.103-3.102-3.103z"/><path d="m453.934 272.83c-1.713 0-3.102 1.389-3.102 3.103 0 1.713 1.389 3.102 3.102 3.102s3.102-1.389 3.102-3.102c0-1.714-1.389-3.103-3.102-3.103z"/><path d="m443.557 283.206c-1.713 0-3.102 1.389-3.102 3.103 0 1.713 1.389 3.102 3.102 3.102s3.102-1.389 3.102-3.102c.001-1.714-1.388-3.103-3.102-3.103z"/><path d="m453.934 292.83c-1.713 0-3.102 1.389-3.102 3.103 0 1.713 1.389 3.102 3.102 3.102s3.102-1.389 3.102-3.102c0-1.714-1.389-3.103-3.102-3.103z"/><path d="m443.557 303.206c-1.713 0-3.102 1.389-3.102 3.103 0 1.713 1.389 3.102 3.102 3.102s3.102-1.389 3.102-3.102c.001-1.714-1.388-3.103-3.102-3.103z"/><path d="m436.817 277.059-3.681 1.859c.256.068.52.116.797.116 1.316 0 2.432-.821 2.884-1.975z"/><path d="m424.392 283.335-3.73 1.884c-.128.34-.207.705-.207 1.09 0 1.713 1.389 3.102 3.102 3.102s3.102-1.389 3.102-3.102c.001-1.423-.962-2.608-2.267-2.974z"/><path d="m433.934 292.83c-1.713 0-3.102 1.389-3.102 3.103 0 1.713 1.389 3.102 3.102 3.102s3.102-1.389 3.102-3.102c0-1.714-1.389-3.103-3.102-3.103z"/><path d="m423.557 303.206c-1.713 0-3.102 1.389-3.102 3.103 0 1.713 1.389 3.102 3.102 3.102s3.102-1.389 3.102-3.102c.001-1.714-1.388-3.103-3.102-3.103z"/><path d="m433.934 312.83c-1.713 0-3.102 1.389-3.102 3.103 0 1.713 1.389 3.102 3.102 3.102s3.102-1.389 3.102-3.102c0-1.714-1.389-3.103-3.102-3.103z"/><path d="m413.934 292.83c-1.713 0-3.102 1.389-3.102 3.103 0 1.713 1.389 3.102 3.102 3.102s3.102-1.389 3.102-3.102c0-1.714-1.389-3.103-3.102-3.103z"/><path d="m403.557 303.206c-1.713 0-3.102 1.389-3.102 3.103 0 1.713 1.389 3.102 3.102 3.102s3.102-1.389 3.102-3.102c.001-1.714-1.388-3.103-3.102-3.103z"/><path d="m413.934 312.83c-1.713 0-3.102 1.389-3.102 3.103 0 1.713 1.389 3.102 3.102 3.102s3.102-1.389 3.102-3.102c0-1.714-1.389-3.103-3.102-3.103z"/><path d="m403.557 323.206c-1.713 0-3.102 1.389-3.102 3.103 0 1.713 1.389 3.102 3.102 3.102s3.102-1.389 3.102-3.102c.001-1.714-1.388-3.103-3.102-3.103z"/><path d="m396.692 297.325-3.28 1.657c.171.029.343.053.522.053 1.21-.001 2.246-.7 2.758-1.71z"/><path d="m384.641 303.412-4.053 2.047c-.078.272-.133.553-.133.85 0 1.713 1.389 3.102 3.102 3.102s3.102-1.389 3.102-3.102c.001-1.331-.841-2.457-2.018-2.897z"/><path d="m393.934 312.83c-1.713 0-3.102 1.389-3.102 3.103 0 1.713 1.389 3.102 3.102 3.102s3.102-1.389 3.102-3.102c0-1.714-1.389-3.103-3.102-3.103z"/><path d="m383.557 323.206c-1.713 0-3.102 1.389-3.102 3.103 0 1.713 1.389 3.102 3.102 3.102s3.102-1.389 3.102-3.102c.001-1.714-1.388-3.103-3.102-3.103z"/><path d="m393.934 332.83c-1.713 0-3.102 1.389-3.102 3.103 0 1.713 1.389 3.102 3.102 3.102s3.102-1.389 3.102-3.102c0-1.714-1.389-3.103-3.102-3.103z"/><path d="m373.934 312.83c-1.713 0-3.102 1.389-3.102 3.103 0 1.713 1.389 3.102 3.102 3.102s3.102-1.389 3.102-3.102c0-1.714-1.389-3.103-3.102-3.103z"/><path d="m363.557 323.206c-1.713 0-3.102 1.389-3.102 3.103 0 1.713 1.389 3.102 3.102 3.102s3.102-1.389 3.102-3.102c.001-1.714-1.388-3.103-3.102-3.103z"/><path d="m373.934 332.83c-1.713 0-3.102 1.389-3.102 3.103 0 1.713 1.389 3.102 3.102 3.102s3.102-1.389 3.102-3.102c0-1.714-1.389-3.103-3.102-3.103z"/><path d="m363.557 343.206c-1.713 0-3.102 1.389-3.102 3.103 0 1.713 1.389 3.102 3.102 3.102s3.102-1.389 3.102-3.102c.001-1.714-1.388-3.103-3.102-3.103z"/><path d="m356.54 317.604-2.794 1.411c.063.004.124.019.188.019 1.096 0 2.055-.572 2.606-1.43z"/><path d="m344.861 323.503-4.345 2.194c-.04.198-.062.402-.062.612 0 1.713 1.389 3.102 3.102 3.102s3.102-1.389 3.102-3.102c.002-1.246-.737-2.313-1.797-2.806z"/><path d="m353.934 332.83c-1.713 0-3.102 1.389-3.102 3.103 0 1.713 1.389 3.102 3.102 3.102s3.102-1.389 3.102-3.102c0-1.714-1.389-3.103-3.102-3.103z"/><path d="m343.557 343.206c-1.713 0-3.102 1.389-3.102 3.103 0 1.713 1.389 3.102 3.102 3.102s3.102-1.389 3.102-3.102c.001-1.714-1.388-3.103-3.102-3.103z"/><path d="m353.934 352.83c-1.713 0-3.102 1.389-3.102 3.103 0 1.713 1.389 3.102 3.102 3.102s3.102-1.389 3.102-3.102c0-1.714-1.389-3.103-3.102-3.103z"/><path d="m333.934 332.83c-1.713 0-3.102 1.389-3.102 3.103 0 1.713 1.389 3.102 3.102 3.102s3.102-1.389 3.102-3.102c0-1.714-1.389-3.103-3.102-3.103z"/><path d="m323.557 343.206c-1.713 0-3.102 1.389-3.102 3.103 0 1.713 1.389 3.102 3.102 3.102s3.102-1.389 3.102-3.102c.001-1.714-1.388-3.103-3.102-3.103z"/><path d="m333.934 352.83c-1.713 0-3.102 1.389-3.102 3.103 0 1.713 1.389 3.102 3.102 3.102s3.102-1.389 3.102-3.102c0-1.714-1.389-3.103-3.102-3.103z"/><path d="m323.557 363.206c-1.713 0-3.102 1.389-3.102 3.103 0 1.713 1.389 3.102 3.102 3.102s3.102-1.389 3.102-3.102c.001-1.714-1.388-3.103-3.102-3.103z"/><path d="m314.153 339.012c.855-.061 1.607-.463 2.131-1.077z"/><path d="m305.055 343.607-4.559 2.303c-.017.132-.04.262-.04.398 0 1.713 1.389 3.102 3.102 3.102s3.102-1.389 3.102-3.102c0-1.167-.653-2.171-1.605-2.701z"/><path d="m313.934 352.83c-1.713 0-3.102 1.389-3.102 3.103 0 1.713 1.389 3.102 3.102 3.102s3.102-1.389 3.102-3.102c0-1.714-1.389-3.103-3.102-3.103z"/><path d="m303.557 363.206c-1.713 0-3.102 1.389-3.102 3.103 0 1.713 1.389 3.102 3.102 3.102s3.102-1.389 3.102-3.102c.001-1.714-1.388-3.103-3.102-3.103z"/><path d="m313.934 372.83c-1.713 0-3.102 1.389-3.102 3.103 0 1.713 1.389 3.102 3.102 3.102s3.102-1.389 3.102-3.102c0-1.714-1.389-3.103-3.102-3.103z"/><path d="m293.934 352.83c-1.713 0-3.102 1.389-3.102 3.103 0 1.713 1.389 3.102 3.102 3.102s3.102-1.389 3.102-3.102c0-1.714-1.389-3.103-3.102-3.103z"/><path d="m283.557 363.206c-1.713 0-3.102 1.389-3.102 3.103 0 1.713 1.389 3.102 3.102 3.102s3.102-1.389 3.102-3.102c.001-1.714-1.388-3.103-3.102-3.103z"/><path d="m293.934 372.83c-1.713 0-3.102 1.389-3.102 3.103 0 1.713 1.389 3.102 3.102 3.102s3.102-1.389 3.102-3.102c0-1.714-1.389-3.103-3.102-3.103z"/><path d="m283.557 383.206c-1.713 0-3.102 1.389-3.102 3.103 0 1.713 1.389 3.102 3.102 3.102s3.102-1.389 3.102-3.102c.001-1.714-1.388-3.103-3.102-3.103z"/><path d="m274.756 358.91c.401-.111.767-.298 1.085-.548z"/><path d="m265.248 363.712-4.774 2.411c-.004.062-.019.121-.019.185 0 1.713 1.389 3.102 3.102 3.102s3.102-1.389 3.102-3.102c.001-1.088-.563-2.042-1.411-2.596z"/><path d="m273.934 372.83c-1.713 0-3.102 1.389-3.102 3.103 0 1.713 1.389 3.102 3.102 3.102s3.102-1.389 3.102-3.102c0-1.714-1.389-3.103-3.102-3.103z"/><path d="m263.557 383.206c-1.713 0-3.102 1.389-3.102 3.103 0 1.713 1.389 3.102 3.102 3.102s3.102-1.389 3.102-3.102c.001-1.714-1.388-3.103-3.102-3.103z"/><path d="m273.934 392.83c-1.713 0-3.102 1.389-3.102 3.103 0 1.713 1.389 3.102 3.102 3.102s3.102-1.389 3.102-3.102c0-1.714-1.389-3.103-3.102-3.103z"/><path d="m253.934 372.83c-1.713 0-3.102 1.389-3.102 3.103 0 1.713 1.389 3.102 3.102 3.102s3.102-1.389 3.102-3.102c0-1.714-1.389-3.103-3.102-3.103z"/><path d="m243.557 383.206c-1.713 0-3.102 1.389-3.102 3.103 0 1.713 1.389 3.102 3.102 3.102s3.102-1.389 3.102-3.102c.001-1.714-1.388-3.103-3.102-3.103z"/><path d="m253.934 392.83c-1.713 0-3.102 1.389-3.102 3.103 0 1.713 1.389 3.102 3.102 3.102s3.102-1.389 3.102-3.102c0-1.714-1.389-3.103-3.102-3.103z"/><path d="m243.557 403.206c-1.713 0-3.102 1.389-3.102 3.103 0 1.713 1.389 3.102 3.102 3.102s3.102-1.389 3.102-3.102c.001-1.714-1.388-3.103-3.102-3.103z"/><path d="m225.41 383.833-4.952 2.501c.014 1.701 1.395 3.077 3.1 3.077 1.713 0 3.102-1.389 3.102-3.102 0-1.016-.496-1.91-1.25-2.476z"/><path d="m233.934 392.83c-1.713 0-3.102 1.389-3.102 3.103 0 1.713 1.389 3.102 3.102 3.102s3.102-1.389 3.102-3.102c0-1.714-1.389-3.103-3.102-3.103z"/><path d="m223.557 423.206c-1.713 0-3.102 1.389-3.102 3.103 0 1.713 1.389 3.102 3.102 3.102s3.102-1.389 3.102-3.102c.001-1.714-1.388-3.103-3.102-3.103z"/><path d="m203.557 403.206c-1.713 0-3.102 1.389-3.102 3.103 0 1.713 1.389 3.102 3.102 3.102s3.102-1.389 3.102-3.102c.001-1.714-1.388-3.103-3.102-3.103z"/><path d="m213.934 412.83c-1.713 0-3.102 1.389-3.102 3.103 0 1.713 1.389 3.102 3.102 3.102s3.102-1.389 3.102-3.102c0-1.714-1.389-3.103-3.102-3.103z"/><path d="m203.557 423.206c-1.713 0-3.102 1.389-3.102 3.103 0 1.713 1.389 3.102 3.102 3.102s3.102-1.389 3.102-3.102c.001-1.714-1.388-3.103-3.102-3.103z"/><path d="m213.934 432.83c-1.713 0-3.102 1.389-3.102 3.103 0 1.713 1.389 3.102 3.102 3.102s3.102-1.389 3.102-3.102c0-1.714-1.389-3.103-3.102-3.103z"/><path d="m203.557 443.206c-1.713 0-3.102 1.389-3.102 3.103 0 1.713 1.389 3.102 3.102 3.102s3.102-1.389 3.102-3.102c.001-1.714-1.388-3.103-3.102-3.103z"/><path d="m193.934 412.83c-1.713 0-3.102 1.389-3.102 3.103 0 1.713 1.389 3.102 3.102 3.102s3.102-1.389 3.102-3.102c0-1.714-1.389-3.103-3.102-3.103z"/><path d="m183.557 423.206c-1.713 0-3.102 1.389-3.102 3.103 0 1.713 1.389 3.102 3.102 3.102s3.102-1.389 3.102-3.102c.001-1.714-1.388-3.103-3.102-3.103z"/><path d="m193.934 432.83c-1.713 0-3.102 1.389-3.102 3.103 0 1.713 1.389 3.102 3.102 3.102s3.102-1.389 3.102-3.102c0-1.714-1.389-3.103-3.102-3.103z"/><path d="m176.29 417.929-1.209.88c.475-.189.883-.497 1.209-.88z"/><path d="m438.071 181.151c-3.298 0-6.563.225-9.783.672 11.758-12.878 18.599-29.904 18.599-47.686 0-38.921-31.665-70.586-70.585-70.586-18.815 0-36.506 6.574-49.634 17.889.558-3.561.839-7.183.839-10.854-.002-38.921-31.666-70.586-70.587-70.586-29.675 0-56.338 18.73-66.404 46.627l-103.399 222.744c-2.942.66-5.566 2.347-7.371 4.812l-23.567 29.441-.128.168c-2.04 2.839-2.744 6.253-2.183 9.473l-20.842 20.937c-40.467 40.468-40.467 106.313 0 146.78 20.234 20.234 46.812 30.351 73.39 30.351s53.156-10.117 73.39-30.351l21.318-21.318c.323.025.647.047.971.047 2.679 0 5.368-.854 7.628-2.586l31.27-21.403.214-.157c2.727-2.142 4.431-5.322 4.735-8.766 0 0 233.539-117.901 234.029-118.263 17.971-13.258 28.684-34.504 28.684-56.798.001-38.923-31.664-70.587-70.584-70.587zm-61.77-109.471c34.438 0 62.456 28.018 62.456 62.457 0 22.149-7.838 34.739-30.144 53.85-22.306 19.112-213.958 180.995-213.958 180.995l-45.201-45.36s169.637-222.072 170.148-222.837c11.706-17.56 33.567-29.105 56.699-29.105zm-178.191-22.147c8.866-24.765 32.5-41.404 58.81-41.404 34.438 0 62.456 28.018 62.456 62.457 0 8.407-1.971 16.567-5.257 24.197l-170.454 223.028s-46.929-46.783-48.077-47.372c0 0 102.483-220.797 102.522-220.906zm-22.298 423.945c-.523-.401-1.169-.649-1.879-.649-1.713 0-3.102 1.389-3.102 3.103 0 .676.222 1.297.59 1.807-2.175 2.018-4.424 3.909-6.734 5.687-.351-.138-.73-.22-1.13-.22-1.713 0-3.102 1.389-3.102 3.103 0 .063.014.122.018.183-25.052 17.178-56.511 21.099-84.493 11.755.642-.568 1.055-1.389 1.055-2.314 0-1.713-1.389-3.103-3.102-3.103s-3.102 1.389-3.102 3.103c0 .158.024.309.046.46-11.695-4.662-22.652-11.707-32.103-21.159-37.298-37.298-37.298-97.986 0-135.284l19.236-19.324 107.129 107.29-1.486 1.486c.811-.025 1.541-.362 2.078-.893l5.653 5.661c-.347.501-.553 1.107-.553 1.763 0 1.713 1.389 3.102 3.102 3.102.654 0 1.259-.205 1.759-.55l5.649 5.657c-.547.56-.887 1.323-.887 2.167 0 1.713 1.389 3.102 3.102 3.102.843 0 1.605-.338 2.164-.884l5.65 5.659c-.34.497-.54 1.099-.54 1.747 0 .71.248 1.356.649 1.879l-6.044 6.044c-.523-.401-1.169-.649-1.879-.649-1.713 0-3.102 1.389-3.102 3.103 0 .71.248 1.356.649 1.878zm60.463-44.379-31.242 21.384-.214.157c-1.757 1.378-4.272 1.229-5.85-.35l.001.001-135.853-136.057c-1.516-1.516-1.727-3.869-.515-5.627l23.55-29.419.128-.168c.769-1.069 1.915-1.717 3.229-1.825 1.312-.108 2.55.348 3.476 1.273l118.017 118.433c.306.926 1.029 1.651 1.953 1.96l7.509 7.536c.047 1.638 1.357 2.95 2.993 3.003l7.576 7.603c.312.845.976 1.511 1.82 1.826l3.73 3.743c.906.906 1.362 2.109 1.286 3.388-.075 1.242-.64 2.351-1.594 3.139zm239.138-127.305-8.763 4.426c-.048-1.672-1.41-3.014-3.093-3.014-1.713 0-3.102 1.389-3.102 3.103 0 .993.475 1.867 1.2 2.434l-8.184 4.133c-.68.102-1.289.415-1.749.884l-25.075 12.664c.001-.039.012-.076.012-.115 0-1.713-1.389-3.103-3.102-3.103s-3.102 1.389-3.102 3.103c0 1.064.537 2.001 1.353 2.56l-7.848 3.963c-.009 0-.017-.003-.026-.003-1.028 0-1.933.506-2.498 1.277l-24.81 12.531c.012-.109.033-.216.033-.329 0-1.713-1.389-3.103-3.102-3.103s-3.102 1.389-3.102 3.103c0 1.142.624 2.128 1.542 2.667l-7.703 3.891c-.12-.014-.237-.036-.36-.036-1.154 0-2.15.638-2.684 1.574l-24.645 12.447c.031-.177.055-.356.055-.542 0-1.713-1.389-3.103-3.102-3.103s-3.102 1.389-3.102 3.103c0 1.22.711 2.265 1.735 2.772l-7.58 3.829c-.218-.049-.443-.079-.676-.079-1.268 0-2.354.763-2.835 1.853l-24.547 12.398c.064-.248.108-.503.108-.772 0-1.713-1.389-3.103-3.102-3.103s-3.102 1.389-3.102 3.103c0 1.301.802 2.411 1.938 2.872l-7.535 3.806c-.294-.093-.6-.156-.924-.156-1.36 0-2.503.881-2.922 2.099l-24.535 12.392c.11-.318.183-.655.183-1.011 0-1.713-1.389-3.103-3.102-3.103s-3.102 1.389-3.102 3.103c0 1.392.923 2.556 2.186 2.949l-7.534 3.805c-.362-.148-.757-.233-1.173-.233-1.448 0-2.654.997-2.996 2.339l-7.054 3.562c-.452-.677-43.471-43.973-43.471-43.973s209.138-177.069 213.526-180.246c4.387-3.177 15.68-5.232 24.133-5.232 16.365 0 31.272 6.335 42.42 16.672-.014.119-.036.234-.036.357 0 1.713 1.389 3.102 3.102 3.102.121 0 .237-.022.354-.036 10.303 11.141 16.615 26.025 16.615 42.361 0 7.694-1.463 15.237-4.167 22.284-.568-.719-1.438-1.19-2.426-1.19-1.713 0-3.102 1.389-3.102 3.103 0 1.713 1.389 3.102 3.102 3.102.09 0 .175-.019.264-.026-4.323 8.874-10.71 16.745-18.788 22.782z"/></g></svg>