<svg id="Capa_1" enable-background="new 0 0 511.846 511.846" height="512" viewBox="0 0 511.846 511.846" width="512" xmlns="http://www.w3.org/2000/svg"><g><path d="m457.844 118.523c-1.713 0-3.102 1.389-3.102 3.102 0 1.714 1.389 3.103 3.102 3.103s3.102-1.389 3.102-3.103c0-1.713-1.389-3.102-3.102-3.102z"/><path d="m457.844 138.523c-1.713 0-3.102 1.389-3.102 3.102 0 1.714 1.389 3.103 3.102 3.103s3.102-1.389 3.102-3.103c0-1.713-1.389-3.102-3.102-3.102z"/><path d="m457.844 158.523c-1.713 0-3.102 1.389-3.102 3.102 0 1.714 1.389 3.103 3.102 3.103s3.102-1.389 3.102-3.103c0-1.713-1.389-3.102-3.102-3.102z"/><path d="m457.844 178.523c-1.713 0-3.102 1.389-3.102 3.102 0 1.714 1.389 3.103 3.102 3.103s3.102-1.389 3.102-3.103c0-1.713-1.389-3.102-3.102-3.102z"/><path d="m457.844 198.523c-1.713 0-3.102 1.389-3.102 3.102 0 1.714 1.389 3.103 3.102 3.103s3.102-1.389 3.102-3.103c0-1.713-1.389-3.102-3.102-3.102z"/><path d="m457.844 218.523c-1.713 0-3.102 1.389-3.102 3.102 0 1.714 1.389 3.103 3.102 3.103s3.102-1.389 3.102-3.103c0-1.713-1.389-3.102-3.102-3.102z"/><path d="m457.844 238.523c-1.713 0-3.102 1.389-3.102 3.102 0 1.714 1.389 3.103 3.102 3.103s3.102-1.389 3.102-3.103c0-1.713-1.389-3.102-3.102-3.102z"/><path d="m457.844 258.523c-1.713 0-3.102 1.389-3.102 3.102 0 1.714 1.389 3.103 3.102 3.103s3.102-1.389 3.102-3.103c0-1.713-1.389-3.102-3.102-3.102z"/><path d="m457.844 278.523c-1.713 0-3.102 1.389-3.102 3.102 0 1.714 1.389 3.103 3.102 3.103s3.102-1.389 3.102-3.103c0-1.713-1.389-3.102-3.102-3.102z"/><path d="m457.844 298.523c-1.713 0-3.102 1.389-3.102 3.102 0 1.714 1.389 3.103 3.102 3.103s3.102-1.389 3.102-3.103c0-1.713-1.389-3.102-3.102-3.102z"/><path d="m457.844 318.523c-1.713 0-3.102 1.389-3.102 3.102 0 1.714 1.389 3.103 3.102 3.103s3.102-1.389 3.102-3.103c0-1.713-1.389-3.102-3.102-3.102z"/><path d="m457.844 338.523c-1.713 0-3.102 1.389-3.102 3.102 0 1.714 1.389 3.103 3.102 3.103s3.102-1.389 3.102-3.103c0-1.713-1.389-3.102-3.102-3.102z"/><path d="m437.844 98.523c-1.713 0-3.102 1.389-3.102 3.102 0 1.714 1.389 3.103 3.102 3.103s3.102-1.389 3.102-3.103c0-1.713-1.389-3.102-3.102-3.102z"/><path d="m448.22 108.146c-1.713 0-3.102 1.389-3.102 3.103 0 1.713 1.389 3.103 3.102 3.103s3.102-1.39 3.102-3.103c0-1.714-1.389-3.103-3.102-3.103z"/><path d="m437.844 118.523c-1.713 0-3.102 1.389-3.102 3.102 0 1.714 1.389 3.103 3.102 3.103s3.102-1.389 3.102-3.103c0-1.713-1.389-3.102-3.102-3.102z"/><path d="m448.22 128.146c-1.713 0-3.102 1.389-3.102 3.103 0 1.713 1.389 3.102 3.102 3.102s3.102-1.39 3.102-3.102c0-1.714-1.389-3.103-3.102-3.103z"/><path d="m437.844 138.523c-1.713 0-3.102 1.389-3.102 3.102 0 1.714 1.389 3.103 3.102 3.103s3.102-1.389 3.102-3.103c0-1.713-1.389-3.102-3.102-3.102z"/><path d="m448.22 148.146c-1.713 0-3.102 1.389-3.102 3.103 0 1.713 1.389 3.102 3.102 3.102s3.102-1.39 3.102-3.102c0-1.714-1.389-3.103-3.102-3.103z"/><path d="m437.844 158.523c-1.713 0-3.102 1.389-3.102 3.102 0 1.714 1.389 3.103 3.102 3.103s3.102-1.389 3.102-3.103c0-1.713-1.389-3.102-3.102-3.102z"/><path d="m448.22 168.146c-1.713 0-3.102 1.389-3.102 3.103 0 1.713 1.389 3.102 3.102 3.102s3.102-1.39 3.102-3.102c0-1.714-1.389-3.103-3.102-3.103z"/><path d="m437.844 178.523c-1.713 0-3.102 1.389-3.102 3.102 0 1.714 1.389 3.103 3.102 3.103s3.102-1.389 3.102-3.103c0-1.713-1.389-3.102-3.102-3.102z"/><path d="m448.22 188.146c-1.713 0-3.102 1.389-3.102 3.103 0 1.713 1.389 3.102 3.102 3.102s3.102-1.39 3.102-3.102c0-1.714-1.389-3.103-3.102-3.103z"/><path d="m437.844 198.523c-1.713 0-3.102 1.389-3.102 3.102 0 1.714 1.389 3.103 3.102 3.103s3.102-1.389 3.102-3.103c0-1.713-1.389-3.102-3.102-3.102z"/><path d="m448.22 208.146c-1.713 0-3.102 1.389-3.102 3.103 0 1.713 1.389 3.102 3.102 3.102s3.102-1.39 3.102-3.102c0-1.714-1.389-3.103-3.102-3.103z"/><path d="m437.844 218.523c-1.713 0-3.102 1.389-3.102 3.102 0 1.714 1.389 3.103 3.102 3.103s3.102-1.389 3.102-3.103c0-1.713-1.389-3.102-3.102-3.102z"/><path d="m448.22 228.146c-1.713 0-3.102 1.389-3.102 3.103 0 1.713 1.389 3.102 3.102 3.102s3.102-1.39 3.102-3.102c0-1.714-1.389-3.103-3.102-3.103z"/><path d="m437.844 238.523c-1.713 0-3.102 1.389-3.102 3.102 0 1.714 1.389 3.103 3.102 3.103s3.102-1.389 3.102-3.103c0-1.713-1.389-3.102-3.102-3.102z"/><path d="m448.22 248.146c-1.713 0-3.102 1.389-3.102 3.103 0 1.713 1.389 3.102 3.102 3.102s3.102-1.39 3.102-3.102c0-1.714-1.389-3.103-3.102-3.103z"/><path d="m437.844 258.523c-1.713 0-3.102 1.389-3.102 3.102 0 1.714 1.389 3.103 3.102 3.103s3.102-1.389 3.102-3.103c0-1.713-1.389-3.102-3.102-3.102z"/><path d="m448.22 268.147c-1.713 0-3.102 1.389-3.102 3.103 0 1.713 1.389 3.102 3.102 3.102s3.102-1.39 3.102-3.102c0-1.715-1.389-3.103-3.102-3.103z"/><path d="m437.844 278.523c-1.713 0-3.102 1.389-3.102 3.102 0 1.714 1.389 3.103 3.102 3.103s3.102-1.389 3.102-3.103c0-1.713-1.389-3.102-3.102-3.102z"/><path d="m448.22 288.147c-1.713 0-3.102 1.389-3.102 3.103 0 1.713 1.389 3.102 3.102 3.102s3.102-1.39 3.102-3.102c0-1.715-1.389-3.103-3.102-3.103z"/><path d="m437.844 298.523c-1.713 0-3.102 1.389-3.102 3.102 0 1.714 1.389 3.103 3.102 3.103s3.102-1.389 3.102-3.103c0-1.713-1.389-3.102-3.102-3.102z"/><path d="m448.22 308.147c-1.713 0-3.102 1.389-3.102 3.103 0 1.713 1.389 3.102 3.102 3.102s3.102-1.39 3.102-3.102c0-1.715-1.389-3.103-3.102-3.103z"/><path d="m437.844 318.523c-1.713 0-3.102 1.389-3.102 3.102 0 1.714 1.389 3.103 3.102 3.103s3.102-1.389 3.102-3.103c0-1.713-1.389-3.102-3.102-3.102z"/><path d="m448.22 328.147c-1.713 0-3.102 1.389-3.102 3.103 0 1.713 1.389 3.102 3.102 3.102s3.102-1.39 3.102-3.102c0-1.715-1.389-3.103-3.102-3.103z"/><path d="m437.844 338.523c-1.713 0-3.102 1.389-3.102 3.102 0 1.714 1.389 3.103 3.102 3.103s3.102-1.389 3.102-3.103c0-1.713-1.389-3.102-3.102-3.102z"/><path d="m448.22 348.147c-1.713 0-3.102 1.389-3.102 3.103 0 1.713 1.389 3.102 3.102 3.102s3.102-1.39 3.102-3.102c0-1.715-1.389-3.103-3.102-3.103z"/><path d="m437.844 358.523c-1.713 0-3.102 1.389-3.102 3.102 0 1.714 1.389 3.103 3.102 3.103s3.102-1.389 3.102-3.103c0-1.713-1.389-3.102-3.102-3.102z"/><path d="m437.844 378.523c-1.713 0-3.102 1.389-3.102 3.102 0 1.714 1.389 3.103 3.102 3.103s3.102-1.389 3.102-3.103c0-1.713-1.389-3.102-3.102-3.102z"/><path d="m428.22 108.146c-.275 0-.537.048-.791.114v5.976c.254.067.516.115.791.115 1.713 0 3.102-1.39 3.102-3.103s-1.389-3.102-3.102-3.102z"/><path d="m428.22 128.146c-.275 0-.537.048-.791.114v5.976c.254.067.516.115.791.115 1.713 0 3.102-1.39 3.102-3.102 0-1.714-1.389-3.103-3.102-3.103z"/><path d="m428.22 148.146c-.275 0-.537.048-.791.114v5.976c.254.067.516.115.791.115 1.713 0 3.102-1.39 3.102-3.102 0-1.714-1.389-3.103-3.102-3.103z"/><path d="m428.22 168.146c-.275 0-.537.048-.791.114v5.976c.254.067.516.115.791.115 1.713 0 3.102-1.39 3.102-3.102 0-1.714-1.389-3.103-3.102-3.103z"/><path d="m428.22 188.146c-.275 0-.537.048-.791.114v5.976c.254.067.516.115.791.115 1.713 0 3.102-1.39 3.102-3.102 0-1.714-1.389-3.103-3.102-3.103z"/><path d="m428.22 208.146c-.275 0-.537.048-.791.114v5.976c.254.067.516.115.791.115 1.713 0 3.102-1.39 3.102-3.102 0-1.714-1.389-3.103-3.102-3.103z"/><path d="m428.22 228.146c-.275 0-.537.048-.791.114v5.976c.254.067.516.115.791.115 1.713 0 3.102-1.39 3.102-3.102 0-1.714-1.389-3.103-3.102-3.103z"/><path d="m428.22 248.146c-.275 0-.537.048-.791.114v5.976c.254.067.516.115.791.115 1.713 0 3.102-1.39 3.102-3.102 0-1.714-1.389-3.103-3.102-3.103z"/><path d="m428.22 268.147c-.275 0-.537.048-.791.114v5.971.005c.254.067.516.115.791.115 1.713 0 3.102-1.39 3.102-3.102 0-1.715-1.389-3.103-3.102-3.103z"/><path d="m428.22 288.147c-1.339 0-2.47.853-2.904 2.043-.046.173-.095.344-.143.516-.031.177-.055.357-.055.544 0 1.713 1.389 3.102 3.102 3.102s3.102-1.39 3.102-3.102c0-1.715-1.389-3.103-3.102-3.103z"/><path d="m428.22 308.147c-1.713 0-3.102 1.389-3.102 3.103 0 1.713 1.389 3.102 3.102 3.102s3.102-1.39 3.102-3.102c0-1.715-1.389-3.103-3.102-3.103z"/><path d="m418.903 318.721c-.732 1.917-1.525 3.819-2.376 5.704.401.189.844.303 1.316.303 1.713 0 3.102-1.389 3.102-3.103.001-1.339-.853-2.47-2.042-2.904z"/><path d="m428.22 328.147c-1.713 0-3.102 1.389-3.102 3.103 0 1.713 1.389 3.102 3.102 3.102s3.102-1.39 3.102-3.102c0-1.715-1.389-3.103-3.102-3.103z"/><path d="m417.844 338.523c-1.713 0-3.102 1.389-3.102 3.102 0 1.714 1.389 3.103 3.102 3.103s3.102-1.389 3.102-3.103c0-1.713-1.389-3.102-3.102-3.102z"/><path d="m428.22 348.147c-1.713 0-3.102 1.389-3.102 3.103 0 1.713 1.389 3.102 3.102 3.102s3.102-1.39 3.102-3.102c0-1.715-1.389-3.103-3.102-3.103z"/><path d="m417.844 358.523c-1.713 0-3.102 1.389-3.102 3.102 0 1.714 1.389 3.103 3.102 3.103s3.102-1.389 3.102-3.103c0-1.713-1.389-3.102-3.102-3.102z"/><path d="m428.22 368.147c-1.713 0-3.102 1.389-3.102 3.103 0 1.713 1.389 3.102 3.102 3.102s3.102-1.39 3.102-3.102c0-1.715-1.389-3.103-3.102-3.103z"/><path d="m417.844 378.523c-1.713 0-3.102 1.389-3.102 3.102 0 1.714 1.389 3.103 3.102 3.103s3.102-1.389 3.102-3.103c0-1.713-1.389-3.102-3.102-3.102z"/><path d="m428.22 388.147c-1.713 0-3.102 1.389-3.102 3.103 0 1.713 1.389 3.102 3.102 3.102s3.102-1.39 3.102-3.102c0-1.715-1.389-3.103-3.102-3.103z"/><path d="m417.844 398.523c-1.713 0-3.102 1.389-3.102 3.102 0 1.714 1.389 3.103 3.102 3.103s3.102-1.389 3.102-3.103c0-1.713-1.389-3.102-3.102-3.102z"/><path d="m408.22 348.147c-1.713 0-3.102 1.389-3.102 3.103 0 1.713 1.389 3.102 3.102 3.102s3.102-1.39 3.102-3.102c0-1.715-1.389-3.103-3.102-3.103z"/><path d="m397.844 358.523c-1.713 0-3.102 1.389-3.102 3.102 0 1.714 1.389 3.103 3.102 3.103s3.102-1.389 3.102-3.103c0-1.713-1.389-3.102-3.102-3.102z"/><path d="m408.22 368.147c-1.713 0-3.102 1.389-3.102 3.103 0 1.713 1.389 3.102 3.102 3.102s3.102-1.39 3.102-3.102c0-1.715-1.389-3.103-3.102-3.103z"/><path d="m397.844 378.523c-1.713 0-3.102 1.389-3.102 3.102 0 1.714 1.389 3.103 3.102 3.103s3.102-1.389 3.102-3.103c0-1.713-1.389-3.102-3.102-3.102z"/><path d="m408.22 388.147c-1.713 0-3.102 1.389-3.102 3.103 0 1.713 1.389 3.102 3.102 3.102s3.102-1.39 3.102-3.102c0-1.715-1.389-3.103-3.102-3.103z"/><path d="m397.844 398.523c-1.713 0-3.102 1.389-3.102 3.102 0 1.714 1.389 3.103 3.102 3.103s3.102-1.389 3.102-3.103c0-1.713-1.389-3.102-3.102-3.102z"/><path d="m388.22 368.147c-1.713 0-3.102 1.389-3.102 3.103 0 1.713 1.389 3.102 3.102 3.102s3.102-1.39 3.102-3.102c0-1.715-1.389-3.103-3.102-3.103z"/><path d="m377.844 378.523c-1.713 0-3.102 1.389-3.102 3.102 0 1.714 1.389 3.103 3.102 3.103s3.102-1.389 3.102-3.103c0-1.713-1.389-3.102-3.102-3.102z"/><path d="m388.22 388.147c-1.713 0-3.102 1.389-3.102 3.103 0 1.713 1.389 3.102 3.102 3.102s3.102-1.39 3.102-3.102c0-1.715-1.389-3.103-3.102-3.103z"/><path d="m377.844 398.523c-1.713 0-3.102 1.389-3.102 3.102 0 1.714 1.389 3.103 3.102 3.103s3.102-1.389 3.102-3.103c0-1.713-1.389-3.102-3.102-3.102z"/><path d="m388.22 408.147c-1.713 0-3.102 1.389-3.102 3.103 0 1.713 1.389 3.102 3.102 3.102s3.102-1.39 3.102-3.102c0-1.715-1.389-3.103-3.102-3.103z"/><path d="m377.844 418.523c-1.713 0-3.102 1.389-3.102 3.102 0 1.714 1.389 3.103 3.102 3.103s3.102-1.389 3.102-3.103c0-1.713-1.389-3.102-3.102-3.102z"/><path d="m360.898 382.104c-1.506.772-3.029 1.509-4.566 2.214.449.253.96.409 1.512.409 1.549.001 2.822-1.138 3.054-2.623z"/><path d="m368.22 388.147c-1.713 0-3.102 1.389-3.102 3.103 0 1.713 1.389 3.102 3.102 3.102s3.102-1.39 3.102-3.102c0-1.715-1.389-3.103-3.102-3.103z"/><path d="m357.844 398.523c-1.713 0-3.102 1.389-3.102 3.102 0 1.714 1.389 3.103 3.102 3.103s3.102-1.389 3.102-3.103c0-1.713-1.389-3.102-3.102-3.102z"/><path d="m368.22 408.147c-1.713 0-3.102 1.389-3.102 3.103 0 1.713 1.389 3.102 3.102 3.102s3.102-1.39 3.102-3.102c0-1.715-1.389-3.103-3.102-3.103z"/><path d="m357.844 418.523c-1.713 0-3.102 1.389-3.102 3.102 0 1.714 1.389 3.103 3.102 3.103s3.102-1.389 3.102-3.103c0-1.713-1.389-3.102-3.102-3.102z"/><path d="m348.22 388.147c-1.713 0-3.102 1.389-3.102 3.103 0 1.713 1.389 3.102 3.102 3.102s3.102-1.39 3.102-3.102c0-1.715-1.389-3.103-3.102-3.103z"/><path d="m337.844 398.523c-1.713 0-3.102 1.389-3.102 3.102 0 1.714 1.389 3.103 3.102 3.103s3.102-1.389 3.102-3.103c0-1.713-1.389-3.102-3.102-3.102z"/><path d="m348.22 408.147c-1.713 0-3.102 1.389-3.102 3.103 0 1.713 1.389 3.102 3.102 3.102s3.102-1.39 3.102-3.102c0-1.715-1.389-3.103-3.102-3.103z"/><path d="m331.081 392.45c-1.716.326-3.442.607-5.175.846.568.643 1.39 1.056 2.315 1.056 1.286 0 2.39-.786 2.86-1.902z"/><path d="m317.844 398.523c-1.713 0-3.102 1.389-3.102 3.102 0 1.714 1.389 3.103 3.102 3.103s3.102-1.389 3.102-3.103c0-1.713-1.389-3.102-3.102-3.102z"/><path d="m328.22 408.147c-1.713 0-3.102 1.389-3.102 3.103 0 1.713 1.389 3.102 3.102 3.102s3.102-1.39 3.102-3.102c0-1.715-1.389-3.103-3.102-3.103z"/><path d="m317.844 418.523c-1.713 0-3.102 1.389-3.102 3.102 0 1.714 1.389 3.103 3.102 3.103s3.102-1.389 3.102-3.103c0-1.713-1.389-3.102-3.102-3.102z"/><path d="m308.999 394.24c-.49.007-.976.02-1.465.029.221.05.449.082.685.082.272.001.53-.045.78-.111z"/><path d="m297.844 398.523c-1.713 0-3.102 1.389-3.102 3.102 0 1.714 1.389 3.103 3.102 3.103s3.102-1.389 3.102-3.103c0-1.713-1.389-3.102-3.102-3.102z"/><path d="m308.22 408.147c-1.713 0-3.102 1.389-3.102 3.103 0 1.713 1.389 3.102 3.102 3.102s3.102-1.39 3.102-3.102c0-1.715-1.389-3.103-3.102-3.103z"/><path d="m297.844 418.523c-1.713 0-3.102 1.389-3.102 3.102 0 1.714 1.389 3.103 3.102 3.103s3.102-1.389 3.102-3.103c0-1.713-1.389-3.102-3.102-3.102z"/><path d="m277.844 398.523c-1.713 0-3.102 1.389-3.102 3.102 0 1.714 1.389 3.103 3.102 3.103s3.102-1.389 3.102-3.103c0-1.713-1.389-3.102-3.102-3.102z"/><path d="m288.22 408.147c-1.713 0-3.102 1.389-3.102 3.103 0 1.713 1.389 3.102 3.102 3.102s3.102-1.39 3.102-3.102c0-1.715-1.389-3.103-3.102-3.103z"/><path d="m277.844 418.523c-1.713 0-3.102 1.389-3.102 3.102 0 1.714 1.389 3.103 3.102 3.103s3.102-1.389 3.102-3.103c0-1.713-1.389-3.102-3.102-3.102z"/><path d="m257.844 398.523c-1.713 0-3.102 1.389-3.102 3.102 0 1.714 1.389 3.103 3.102 3.103s3.102-1.389 3.102-3.103c0-1.713-1.389-3.102-3.102-3.102z"/><path d="m268.22 408.147c-1.713 0-3.102 1.389-3.102 3.103 0 1.713 1.389 3.102 3.102 3.102s3.102-1.39 3.102-3.102c0-1.715-1.389-3.103-3.102-3.103z"/><path d="m257.844 418.523c-1.713 0-3.102 1.389-3.102 3.102 0 1.714 1.389 3.103 3.102 3.103s3.102-1.389 3.102-3.103c0-1.713-1.389-3.102-3.102-3.102z"/><path d="m237.844 398.523c-1.713 0-3.102 1.389-3.102 3.102 0 1.714 1.389 3.103 3.102 3.103s3.102-1.389 3.102-3.103c0-1.713-1.389-3.102-3.102-3.102z"/><path d="m248.22 408.147c-1.713 0-3.102 1.389-3.102 3.103 0 1.713 1.389 3.102 3.102 3.102s3.102-1.39 3.102-3.102c0-1.715-1.389-3.103-3.102-3.103z"/><path d="m237.844 418.523c-1.713 0-3.102 1.389-3.102 3.102 0 1.714 1.389 3.103 3.102 3.103s3.102-1.389 3.102-3.103c0-1.713-1.389-3.102-3.102-3.102z"/><path d="m217.844 398.523c-1.713 0-3.102 1.389-3.102 3.102 0 1.714 1.389 3.103 3.102 3.103s3.102-1.389 3.102-3.103c0-1.713-1.389-3.102-3.102-3.102z"/><path d="m228.22 408.147c-1.713 0-3.102 1.389-3.102 3.103 0 1.713 1.389 3.102 3.102 3.102s3.102-1.39 3.102-3.102c0-1.715-1.389-3.103-3.102-3.103z"/><path d="m217.844 418.523c-1.713 0-3.102 1.389-3.102 3.102 0 1.714 1.389 3.103 3.102 3.103s3.102-1.389 3.102-3.103c0-1.713-1.389-3.102-3.102-3.102z"/><path d="m197.844 398.523c-1.713 0-3.102 1.389-3.102 3.102 0 1.714 1.389 3.103 3.102 3.103s3.102-1.389 3.102-3.103c0-1.713-1.389-3.102-3.102-3.102z"/><path d="m208.22 408.147c-1.713 0-3.102 1.389-3.102 3.103 0 1.713 1.389 3.102 3.102 3.102s3.102-1.39 3.102-3.102c0-1.715-1.389-3.103-3.102-3.103z"/><path d="m197.844 418.523c-1.713 0-3.102 1.389-3.102 3.102 0 1.714 1.389 3.103 3.102 3.103s3.102-1.389 3.102-3.103c0-1.713-1.389-3.102-3.102-3.102z"/><path d="m177.844 398.523c-1.713 0-3.102 1.389-3.102 3.102 0 1.714 1.389 3.103 3.102 3.103s3.102-1.389 3.102-3.103c0-1.713-1.389-3.102-3.102-3.102z"/><path d="m188.22 408.147c-1.713 0-3.102 1.389-3.102 3.103 0 1.713 1.389 3.102 3.102 3.102s3.102-1.39 3.102-3.102c0-1.715-1.389-3.103-3.102-3.103z"/><path d="m177.844 418.523c-1.713 0-3.102 1.389-3.102 3.102 0 1.714 1.389 3.103 3.102 3.103s3.102-1.389 3.102-3.103c0-1.713-1.389-3.102-3.102-3.102z"/><path d="m157.844 398.523c-1.713 0-3.102 1.389-3.102 3.102 0 1.714 1.389 3.103 3.102 3.103s3.102-1.389 3.102-3.103c0-1.713-1.389-3.102-3.102-3.102z"/><path d="m168.22 408.147c-1.713 0-3.102 1.389-3.102 3.103 0 1.713 1.389 3.102 3.102 3.102s3.102-1.39 3.102-3.102c0-1.715-1.389-3.103-3.102-3.103z"/><path d="m157.844 418.523c-1.713 0-3.102 1.389-3.102 3.102 0 1.714 1.389 3.103 3.102 3.103s3.102-1.389 3.102-3.103c0-1.713-1.389-3.102-3.102-3.102z"/><path d="m137.844 398.523c-1.713 0-3.102 1.389-3.102 3.102 0 1.714 1.389 3.103 3.102 3.103s3.102-1.389 3.102-3.103c0-1.713-1.389-3.102-3.102-3.102z"/><path d="m148.22 408.147c-1.713 0-3.102 1.389-3.102 3.103 0 1.713 1.389 3.102 3.102 3.102s3.102-1.39 3.102-3.102c0-1.715-1.389-3.103-3.102-3.103z"/><path d="m137.844 418.523c-1.713 0-3.102 1.389-3.102 3.102 0 1.714 1.389 3.103 3.102 3.103s3.102-1.389 3.102-3.103c0-1.713-1.389-3.102-3.102-3.102z"/><path d="m117.844 398.523c-1.713 0-3.102 1.389-3.102 3.102 0 1.714 1.389 3.103 3.102 3.103s3.102-1.389 3.102-3.103c0-1.713-1.389-3.102-3.102-3.102z"/><path d="m128.22 408.147c-1.713 0-3.102 1.389-3.102 3.103 0 1.713 1.389 3.102 3.102 3.102s3.102-1.39 3.102-3.102c0-1.715-1.389-3.103-3.102-3.103z"/><path d="m109.347 394.133c-1.01-.134-2.016-.282-3.018-.44.525.406 1.176.659 1.891.659.399 0 .777-.082 1.127-.219z"/><path d="m97.844 398.523c-1.713 0-3.102 1.389-3.102 3.102 0 1.714 1.389 3.103 3.102 3.103s3.102-1.389 3.102-3.103c0-1.713-1.389-3.102-3.102-3.102z"/><path d="m108.22 408.147c-1.713 0-3.102 1.389-3.102 3.103 0 1.713 1.389 3.102 3.102 3.102s3.102-1.39 3.102-3.102c0-1.715-1.389-3.103-3.102-3.103z"/><path d="m86.398 388.749c-.773.563-1.28 1.47-1.28 2.5 0 1.713 1.389 3.102 3.102 3.102s3.102-1.39 3.102-3.102c0-.345-.069-.67-.173-.981-1.598-.472-3.181-.982-4.751-1.519z"/><path d="m307.258 208.352c1.713 0 3.102-1.39 3.102-3.102 0-1.714-1.389-3.103-3.102-3.103-.954 0-1.796.439-2.365 1.116.013.662.045 1.32.045 1.985 0 .666-.033 1.323-.046 1.985.569.678 1.412 1.119 2.366 1.119z"/><path d="m307.258 242.146c-1.713 0-3.102 1.389-3.102 3.103 0 1.713 1.389 3.102 3.102 3.102s3.102-1.39 3.102-3.102c.001-1.714-1.389-3.103-3.102-3.103z"/><path d="m296.882 252.523c-1.713 0-3.102 1.389-3.102 3.102 0 1.714 1.389 3.103 3.102 3.103s3.102-1.389 3.102-3.103c0-1.713-1.389-3.102-3.102-3.102z"/><path d="m307.258 262.147c-1.713 0-3.102 1.389-3.102 3.103 0 1.713 1.389 3.102 3.102 3.102s3.102-1.39 3.102-3.102c.001-1.715-1.389-3.103-3.102-3.103z"/><path d="m296.882 272.523c-1.713 0-3.102 1.389-3.102 3.102 0 1.714 1.389 3.103 3.102 3.103s3.102-1.389 3.102-3.103c0-1.713-1.389-3.102-3.102-3.102z"/><path d="m287.258 262.147c-.067 0-.13.016-.197.02-.905 1.299-1.84 2.576-2.804 3.83.336 1.35 1.547 2.354 3.001 2.354 1.713 0 3.102-1.39 3.102-3.102 0-1.714-1.389-3.102-3.102-3.102z"/><path d="m278.417 272.944c-1.353 1.464-2.752 2.885-4.189 4.265.542.906 1.522 1.519 2.654 1.519 1.713 0 3.102-1.389 3.102-3.103 0-1.151-.635-2.146-1.567-2.681z"/><path d="m287.258 282.147c-1.713 0-3.102 1.389-3.102 3.103 0 1.713 1.389 3.102 3.102 3.102s3.102-1.39 3.102-3.102c0-1.715-1.389-3.103-3.102-3.103z"/><path d="m276.882 292.523c-1.713 0-3.102 1.389-3.102 3.102 0 1.714 1.389 3.103 3.102 3.103s3.102-1.389 3.102-3.103c0-1.713-1.389-3.102-3.102-3.102z"/><path d="m268.415 282.375c-1.376 1.131-2.782 2.225-4.218 3.282.202 1.519 1.488 2.694 3.061 2.694 1.713 0 3.102-1.39 3.102-3.102 0-1.304-.806-2.415-1.945-2.874z"/><path d="m256.882 292.523c-1.713 0-3.102 1.389-3.102 3.102 0 1.714 1.389 3.103 3.102 3.103s3.102-1.389 3.102-3.103c0-1.713-1.389-3.102-3.102-3.102z"/><path d="m267.258 302.147c-1.713 0-3.102 1.389-3.102 3.103 0 1.713 1.389 3.102 3.102 3.102s3.102-1.39 3.102-3.102c0-1.715-1.389-3.103-3.102-3.103z"/><path d="m256.882 312.523c-1.713 0-3.102 1.389-3.102 3.102 0 1.714 1.389 3.103 3.102 3.103s3.102-1.389 3.102-3.103c0-1.713-1.389-3.102-3.102-3.102z"/><path d="m247.258 302.147c-1.713 0-3.102 1.389-3.102 3.103 0 1.713 1.389 3.102 3.102 3.102s3.102-1.39 3.102-3.102c0-1.715-1.389-3.103-3.102-3.103z"/><path d="m236.882 312.523c-1.713 0-3.102 1.389-3.102 3.102 0 1.714 1.389 3.103 3.102 3.103s3.102-1.389 3.102-3.103c0-1.713-1.389-3.102-3.102-3.102z"/><path d="m227.258 322.147c-1.713 0-3.102 1.389-3.102 3.103 0 1.713 1.389 3.102 3.102 3.102s3.102-1.39 3.102-3.102c0-1.715-1.389-3.103-3.102-3.103z"/><path d="m205.157 305.029c-.327 0-.652-.011-.978-.014-.006.078-.023.153-.023.233 0 1.713 1.389 3.102 3.102 3.102s3.102-1.39 3.102-3.102c0-.122-.022-.238-.036-.357-1.711.088-3.433.138-5.167.138z"/><path d="m196.882 312.523c-1.713 0-3.102 1.389-3.102 3.102 0 1.714 1.389 3.103 3.102 3.103s3.102-1.389 3.102-3.103c0-1.713-1.389-3.102-3.102-3.102z"/><path d="m207.258 322.147c-1.713 0-3.102 1.389-3.102 3.103 0 1.713 1.389 3.102 3.102 3.102s3.102-1.39 3.102-3.102c0-1.715-1.389-3.103-3.102-3.103z"/><path d="m185.124 303.006c-.594.565-.968 1.358-.968 2.243 0 1.713 1.389 3.102 3.102 3.102s3.102-1.39 3.102-3.102c0-.495-.126-.956-.332-1.371-1.648-.251-3.283-.541-4.904-.872z"/><path d="m156.815 292.53c-1.682.036-3.036 1.404-3.036 3.095 0 1.714 1.389 3.103 3.102 3.103s3.102-1.389 3.102-3.103c0-.612-.183-1.18-.49-1.661-.9-.465-1.793-.942-2.678-1.434z"/><path d="m167.258 302.147c-1.713 0-3.102 1.389-3.102 3.103 0 1.713 1.389 3.102 3.102 3.102s3.102-1.39 3.102-3.102c0-1.715-1.389-3.103-3.102-3.103z"/><path d="m144.156 285.249c0 1.713 1.389 3.102 3.102 3.102.68 0 1.303-.226 1.814-.596-1.62-1.104-3.203-2.258-4.753-3.454-.097.302-.163.615-.163.948z"/><path d="m433.6 85.335h-5.656c-16.061 0-29.747 10.162-34.985 24.405h-64.939v-64.376c.001-25.053-20.309-45.364-45.363-45.364h-196.311c-25.054 0-45.364 20.311-45.364 45.364v269.738c0 51.232 31.194 95.176 75.623 113.881v40.137c0 23.559 19.166 42.726 42.724 42.726h196.649c23.559 0 42.725-19.167 42.725-42.726v-41.947c38.595-17.358 69.519-54.168 72.143-94.215l.018-210.359c0-20.58-16.684-37.264-37.264-37.264zm-105.579 32.482h62.975c-.201 1.566-.315 3.16-.315 4.78v30.212h-62.66zm0 43.07h62.66v34.992h-62.66zm-.021 73.319c.004-.072.021-.14.021-.213v-30.037h62.66v21.296c-23.565.004-45.378 7.612-63.141 20.483.361-3.814.519-7.663.46-11.529zm-22.443 48.452c-.776.51-1.296 1.36-1.376 2.338-1.691 2.786-3.529 5.491-5.51 8.103-.506-.359-1.121-.575-1.79-.575-1.713 0-3.102 1.389-3.102 3.102 0 .897.386 1.698.995 2.265-1.461 1.684-2.979 3.326-4.566 4.913-.176.177-.357.346-.535.521-.568-.712-1.433-1.177-2.415-1.177-1.713 0-3.102 1.389-3.102 3.103 0 .892.381 1.689.984 2.256-2.203 1.902-4.483 3.698-6.835 5.379-.428-.223-.907-.36-1.422-.36-1.713 0-3.102 1.389-3.102 3.102 0 .095.02.185.028.277-7.412 4.678-15.424 8.292-23.801 10.758.219-.426.354-.9.354-1.411 0-1.714-1.389-3.103-3.102-3.103s-3.102 1.389-3.102 3.103c0 1.09.565 2.045 1.416 2.599-7.938 1.924-16.155 2.831-24.462 2.647-.18-8.174.686-16.262 2.546-24.082l1.298.895c.329.369.74.657 1.211.835l.501.346c.874.603 1.871.893 2.858.893 1.601 0 3.176-.762 4.155-2.181 1.581-2.292 1.004-5.432-1.288-7.013l-5.708-3.936c4.108-11.415 10.396-22.029 18.64-31.203l4.107 4.107c.985.984 2.275 1.478 3.566 1.478s2.58-.493 3.565-1.478c1.969-1.969 1.969-5.162 0-7.13l-4.107-4.107c9.578-8.608 20.727-15.091 32.719-19.178l3.537 5.128c.979 1.419 2.554 2.18 4.155 2.18.987 0 1.984-.288 2.858-.891 2.292-1.582 2.869-4.722 1.288-7.014l-1.563-2.266c6.21-1.363 12.581-2.093 19.021-2.181-.425.53-.69 1.195-.69 1.928 0 1.714 1.389 3.103 3.102 3.103.352 0 .684-.071.999-.179-.136 4.727-.622 9.411-1.448 14.02-1.499.22-2.653 1.497-2.653 3.057 0 1.105.582 2.069 1.453 2.619-2.08 8.541-5.33 16.761-9.677 24.41zm-115.264 41.951c-.295-1.406-1.541-2.463-3.035-2.463-.649 0-1.251.201-1.749.542-2.782-1.206-5.506-2.54-8.16-4.008 1.49-.227 2.635-1.502 2.635-3.056 0-1.713-1.389-3.102-3.102-3.102s-3.102 1.389-3.102 3.102c0 .391.08.76.211 1.103-6.409-3.895-12.385-8.547-17.763-13.926-14.814-14.814-24.234-34.093-26.914-54.78.446.007.892.02 1.337.02 9.49 0 18.856-1.286 27.863-3.765l3.743 5.427c.979 1.418 2.554 2.18 4.155 2.18.987 0 1.984-.289 2.858-.893 2.292-1.58 2.869-4.721 1.288-7.013l-2.065-2.994c11.923-4.608 23.002-11.397 32.628-20.139l4.29 4.29c.985.984 2.275 1.477 3.566 1.477s2.581-.492 3.566-1.477c1.969-1.969 1.969-5.161 0-7.13l-4.293-4.294c9.103-10.024 16.089-21.621 20.699-34.107l3.541 2.442c.874.603 1.871.892 2.858.892 1.601 0 3.176-.761 4.155-2.179 1.581-2.293 1.004-5.433-1.288-7.014l-6.111-4.215c2.313-8.944 3.43-18.232 3.308-27.625 20.694 2.677 39.98 12.098 54.796 26.914 12.262 12.262 20.831 27.585 24.943 44.23-.827.557-1.371 1.501-1.371 2.573 0 1.531 1.11 2.795 2.568 3.049.3 1.636.56 3.279.775 4.934-2.392-.025-4.776.034-7.151.164-.526-.964-1.537-1.626-2.713-1.626-1.35 0-2.487.867-2.913 2.071-5.089.555-10.114 1.477-15.035 2.76l-4.774-6.922c-1.582-2.292-4.72-2.868-7.013-1.287-2.292 1.58-2.869 4.721-1.288 7.013l3.011 4.365c-12.418 4.611-23.952 11.575-33.928 20.635l-4.293-4.293c-1.97-1.969-5.162-1.969-7.131 0-1.969 1.97-1.969 5.162 0 7.131l4.293 4.294c-8.695 9.574-15.454 20.586-20.061 32.436l-3.822-2.636c-2.292-1.581-5.432-1.005-7.013 1.288s-1.004 5.432 1.288 7.014l6.236 4.3c-2.633 9.492-3.916 19.386-3.786 29.404-7.123-.916-14.074-2.639-20.737-5.106zm-34.065-155.788c17.815-17.814 41.926-27.719 66.993-27.719.7 0 1.403.02 2.106.036.165 7.536-.558 15.001-2.132 22.25l-3.067-2.116c-2.291-1.58-5.431-1.004-7.013 1.288-1.58 2.292-1.004 5.433 1.288 7.013l5.947 4.102c-4.083 12.062-10.585 23.275-19.237 32.902l-4.107-4.106c-1.97-1.97-5.161-1.97-7.131 0-1.969 1.969-1.969 5.161 0 7.13l4.107 4.107c-9.225 8.291-19.908 14.606-31.397 18.712l-4.501-6.527c-1.581-2.292-4.721-2.868-7.014-1.288-2.292 1.581-2.869 4.721-1.288 7.014l2.628 3.81c-7.754 1.825-15.772 2.673-23.873 2.494-.572-25.818 9.378-50.788 27.691-69.102zm102.603-101.913 10.956 10.956c.781.781 1.804 1.171 2.828 1.171s2.047-.39 2.828-1.171c1.562-1.562 1.562-4.094 0-5.655l-14.486-14.486 14.486-14.485c1.562-1.562 1.562-4.094 0-5.655-1.562-1.562-4.094-1.562-5.656 0l-10.956 10.955v-40.461h23.826c20.594 0 37.288 16.694 37.288 37.287v150.133c-5.22-12.54-12.851-24.051-22.605-33.806-10.963-10.962-24.139-19.251-38.508-24.436v-70.347zm-70.217-.039 10.995 10.995c.781.781 1.804 1.171 2.828 1.171s2.047-.39 2.828-1.171c1.562-1.562 1.562-4.094 0-5.655l-14.486-14.486 14.486-14.485c1.562-1.562 1.562-4.094 0-5.655-1.562-1.562-4.094-1.562-5.656 0l-10.995 10.995v-40.5h62.139v39.442l-9.938-9.938c-1.562-1.562-4.094-1.562-5.656 0s-1.562 4.094 0 5.655l14.486 14.485-14.485 14.487c-1.562 1.562-1.562 4.094 0 5.655.781.781 1.804 1.171 2.828 1.171s2.047-.39 2.828-1.171l9.938-9.938v66.787c-6.578-1.788-13.35-2.965-20.24-3.443-14.38-.997-28.616.981-41.9 5.619zm202.012 402.251c0 19.105-15.543 34.648-34.648 34.648h-196.649c-19.105 0-34.647-15.543-34.647-34.648v-37.067c12.49 4.25 25.879 6.559 39.807 6.559h1.016v19.17c0 2.209 1.791 3.999 3.999 3.999 2.209 0 3.999-1.79 3.999-3.999v-19.17h50.175v19.17c0 2.209 1.791 3.999 3.999 3.999s3.999-1.79 3.999-3.999v-19.17h50.176v19.17c0 2.209 1.791 3.999 3.999 3.999s3.999-1.79 3.999-3.999v-19.17s46.727-.571 50.175-.704v19.874c0 2.209 1.79 3.999 3.999 3.999s3.999-1.79 3.999-3.999v-20.088c1.309-.02 2.615-.044 3.935-.044 13.08 0 26.184-2.566 38.667-7.175v38.645zm72.186-137.108c-.554 9.185-2.73 18.186-6.223 26.78-1.087.482-1.848 1.567-1.848 2.833 0 .358.079.692.192 1.011-1.163 2.536-2.446 5.031-3.831 7.482-.453-1.152-1.569-1.972-2.882-1.972-1.713 0-3.102 1.389-3.102 3.103 0 1.713 1.389 3.102 3.102 3.102.13 0 .254-.022.38-.038-9.198 14.636-22.217 27.438-37.287 37.023.001-.03.009-.058.009-.088 0-1.714-1.389-3.103-3.102-3.103s-3.102 1.389-3.102 3.103c0 1.228.72 2.281 1.757 2.784-2.801 1.622-5.662 3.138-8.576 4.532-.149-.022-.299-.042-.455-.042-1.107 0-2.071.584-2.621 1.456-8.631 3.836-17.667 6.632-26.843 8.184-.054-.003-.105-.017-.16-.017-.43 0-.839.088-1.212.246-4.993.775-10.024 1.18-15.05 1.18-.38 0-.751.009-1.128.013-.551-.863-1.511-1.438-2.611-1.438-.067 0-.13.016-.197.019v-9.167c0-2.208-1.79-3.999-3.999-3.999s-3.999 1.791-3.999 3.999v.423c-.561-.555-1.331-.898-2.182-.898-1.713 0-3.102 1.389-3.102 3.102 0 1.714 1.389 3.103 3.102 3.103.851 0 1.621-.344 2.182-.898v5.994c-.875.033-4.3.092-8.977.163-.484-1.083-1.566-1.84-2.828-1.84-1.295 0-2.402.795-2.867 1.923-4.454.062-9.425.13-14.206.192-.414-1.227-1.561-2.115-2.927-2.115-1.394 0-2.56.926-2.951 2.192-6.304.081-11.636.147-14.043.178-.195-.8-.696-1.475-1.376-1.897v-9.621c0-2.208-1.791-3.999-3.999-3.999s-3.999 1.791-3.999 3.999v11.534h-10.621c-.324-1.367-1.545-2.387-3.011-2.387s-2.687 1.019-3.011 2.387h-13.977c-.324-1.367-1.545-2.387-3.011-2.387s-2.687 1.019-3.011 2.387h-13.532v-11.534c0-2.208-1.791-3.999-3.999-3.999s-3.999 1.791-3.999 3.999v11.534h-12.447c-.324-1.367-1.545-2.387-3.011-2.387s-2.687 1.019-3.011 2.387h-13.977c-.324-1.367-1.545-2.387-3.011-2.387s-2.687 1.019-3.011 2.387h-11.706v-11.534c0-2.208-1.79-3.999-3.999-3.999-2.208 0-3.999 1.791-3.999 3.999v10.778c-.129.236-.232.487-.296.756h-.719c-4.594 0-9.123-.276-13.577-.799-.532-.943-1.532-1.588-2.692-1.588-.858 0-1.634.348-2.195.91-8.74-1.405-17.151-3.792-25.118-7.043.016-.129.039-.256.039-.389 0-1.713-1.389-3.102-3.102-3.102-.951 0-1.792.438-2.361 1.111-39.246-18.431-66.424-58.304-66.424-104.532v-269.737c0-20.593 16.694-37.287 37.287-37.287h21.827v39.988l-10.486-10.483c-1.562-1.562-4.094-1.562-5.656 0s-1.562 4.094 0 5.655l14.486 14.485-14.485 14.487c-1.562 1.562-1.562 4.094 0 5.655.781.781 1.804 1.171 2.828 1.171s2.047-.39 2.828-1.171l10.483-10.483v145.027h8.077v-144.954l10.411 10.41c.781.781 1.804 1.171 2.828 1.171s2.047-.39 2.828-1.171c1.562-1.562 1.562-4.094 0-5.655l-14.486-14.486 14.486-14.485c1.562-1.562 1.562-4.094 0-5.655-1.562-1.562-4.094-1.562-5.656 0l-10.411 10.41v-39.916h64.286v39.403l-9.898-9.898c-1.562-1.562-4.094-1.562-5.656 0s-1.562 4.094 0 5.655l14.486 14.485-14.486 14.486c-1.562 1.562-1.562 4.094 0 5.655.781.781 1.804 1.171 2.828 1.171s2.047-.39 2.828-1.171l9.898-9.899v72.128c-11.59 5.16-22.27 12.428-31.44 21.598-21.436 21.437-32.524 51.111-30.42 81.417 1.75 25.226 12.554 48.959 30.42 66.825 17.867 17.866 41.599 28.671 66.825 30.421 2.438.169 4.868.252 7.294.252 21.64 0 42.642-6.676 60.191-18.977-.406 3.794-.628 7.642-.628 11.541 0 2.232 1.808 4.039 4.039 4.039 2.23 0 4.039-1.808 4.039-4.039 0-6.439.621-12.735 1.793-18.838 1.601-1.416 3.169-2.879 4.69-4.399 14.515-14.515 24.278-32.81 28.42-52.52 17.472-15 40.16-24.085 64.94-24.085.132 0 .256-.026.385-.039 4.275-.22 7.674-3.744 7.674-8.072v-102.616c0-15.947 12.791-28.897 28.671-29.175v.812c.254.067.516.115.791.115.871 0 1.655-.361 2.219-.939h3.161c8.428 0 16.017 3.576 21.344 9.289.26.701.765 1.274 1.413 1.631 4.02 5.001 6.43 11.352 6.43 18.267-.001-.001.044 209.081.024 209.412z"/></g></svg>