<svg id="Capa_1" enable-background="new 0 0 511.377 511.377" height="512" viewBox="0 0 511.377 511.377" width="512" xmlns="http://www.w3.org/2000/svg"><g><path d="m489.96 204.572c1.713 0 3.102-1.389 3.102-3.102s-1.389-3.103-3.102-3.103-3.102 1.389-3.102 3.103c0 1.712 1.389 3.102 3.102 3.102z"/><path d="m489.96 224.572c1.713 0 3.102-1.389 3.102-3.102s-1.389-3.103-3.102-3.103-3.102 1.389-3.102 3.103c0 1.712 1.389 3.102 3.102 3.102z"/><path d="m489.96 244.572c1.713 0 3.102-1.389 3.102-3.102s-1.389-3.103-3.102-3.103-3.102 1.389-3.102 3.103c0 1.712 1.389 3.102 3.102 3.102z"/><path d="m489.96 284.572c1.713 0 3.102-1.389 3.102-3.102s-1.389-3.103-3.102-3.103-3.102 1.389-3.102 3.103c0 1.712 1.389 3.102 3.102 3.102z"/><path d="m489.96 304.572c1.713 0 3.102-1.389 3.102-3.102s-1.389-3.103-3.102-3.103-3.102 1.389-3.102 3.103c0 1.712 1.389 3.102 3.102 3.102z"/><path d="m489.96 324.572c1.713 0 3.102-1.389 3.102-3.102s-1.389-3.103-3.102-3.103-3.102 1.389-3.102 3.103c0 1.712 1.389 3.102 3.102 3.102z"/><path d="m469.96 144.572c1.713 0 3.102-1.389 3.102-3.102s-1.389-3.103-3.102-3.103-3.102 1.389-3.102 3.103c0 1.712 1.389 3.102 3.102 3.102z"/><path d="m469.96 164.572c1.713 0 3.102-1.389 3.102-3.102s-1.389-3.103-3.102-3.103-3.102 1.389-3.102 3.103c0 1.712 1.389 3.102 3.102 3.102z"/><path d="m480.337 174.195c1.713 0 3.102-1.389 3.102-3.103 0-1.713-1.389-3.102-3.102-3.102s-3.102 1.389-3.102 3.102c-.001 1.714 1.388 3.103 3.102 3.103z"/><path d="m469.96 184.572c1.713 0 3.102-1.389 3.102-3.102s-1.389-3.103-3.102-3.103-3.102 1.389-3.102 3.103c0 1.712 1.389 3.102 3.102 3.102z"/><path d="m480.337 194.195c1.713 0 3.102-1.389 3.102-3.103 0-1.713-1.389-3.102-3.102-3.102s-3.102 1.389-3.102 3.102c-.001 1.714 1.388 3.103 3.102 3.103z"/><path d="m469.96 204.572c1.713 0 3.102-1.389 3.102-3.102s-1.389-3.103-3.102-3.103-3.102 1.389-3.102 3.103c0 1.712 1.389 3.102 3.102 3.102z"/><path d="m480.337 214.195c1.713 0 3.102-1.389 3.102-3.103 0-1.713-1.389-3.102-3.102-3.102s-3.102 1.389-3.102 3.102c-.001 1.714 1.388 3.103 3.102 3.103z"/><path d="m469.96 224.572c1.713 0 3.102-1.389 3.102-3.102s-1.389-3.103-3.102-3.103-3.102 1.389-3.102 3.103c0 1.712 1.389 3.102 3.102 3.102z"/><path d="m480.337 234.195c1.713 0 3.102-1.389 3.102-3.103 0-1.713-1.389-3.102-3.102-3.102s-3.102 1.389-3.102 3.102c-.001 1.714 1.388 3.103 3.102 3.103z"/><path d="m469.96 244.572c1.713 0 3.102-1.389 3.102-3.102s-1.389-3.103-3.102-3.103-3.102 1.389-3.102 3.103c0 1.712 1.389 3.102 3.102 3.102z"/><path d="m480.337 254.195c1.713 0 3.102-1.389 3.102-3.103 0-1.713-1.389-3.102-3.102-3.102s-3.102 1.389-3.102 3.102c-.001 1.714 1.388 3.103 3.102 3.103z"/><path d="m480.337 274.195c1.713 0 3.102-1.389 3.102-3.103 0-1.713-1.389-3.102-3.102-3.102s-3.102 1.389-3.102 3.102c-.001 1.714 1.388 3.103 3.102 3.103z"/><path d="m469.96 284.572c1.713 0 3.102-1.389 3.102-3.102s-1.389-3.103-3.102-3.103-3.102 1.389-3.102 3.103c0 1.712 1.389 3.102 3.102 3.102z"/><path d="m480.337 294.195c1.713 0 3.102-1.389 3.102-3.103 0-1.713-1.389-3.102-3.102-3.102s-3.102 1.389-3.102 3.102c-.001 1.714 1.388 3.103 3.102 3.103z"/><path d="m469.96 304.572c1.713 0 3.102-1.389 3.102-3.102s-1.389-3.103-3.102-3.103-3.102 1.389-3.102 3.103c0 1.712 1.389 3.102 3.102 3.102z"/><path d="m480.337 314.195c1.713 0 3.102-1.389 3.102-3.103 0-1.713-1.389-3.102-3.102-3.102s-3.102 1.389-3.102 3.102c-.001 1.714 1.388 3.103 3.102 3.103z"/><path d="m469.96 324.572c1.713 0 3.102-1.389 3.102-3.102s-1.389-3.103-3.102-3.103-3.102 1.389-3.102 3.103c0 1.712 1.389 3.102 3.102 3.102z"/><path d="m480.337 334.195c1.713 0 3.102-1.389 3.102-3.103 0-1.713-1.389-3.102-3.102-3.102s-3.102 1.389-3.102 3.102c-.001 1.714 1.388 3.103 3.102 3.103z"/><path d="m469.96 344.572c1.713 0 3.102-1.389 3.102-3.102s-1.389-3.103-3.102-3.103-3.102 1.389-3.102 3.103c0 1.712 1.389 3.102 3.102 3.102z"/><path d="m480.337 354.195c1.713 0 3.102-1.389 3.102-3.103 0-1.713-1.389-3.102-3.102-3.102s-3.102 1.389-3.102 3.102c-.001 1.714 1.388 3.103 3.102 3.103z"/><path d="m469.96 364.572c1.713 0 3.102-1.389 3.102-3.102s-1.389-3.103-3.102-3.103-3.102 1.389-3.102 3.103c0 1.712 1.389 3.102 3.102 3.102z"/><path d="m453.062 121.47c0-.872-.362-1.657-.94-2.22.295.962.581 1.925.864 2.89.047-.217.076-.44.076-.67z"/><path d="m460.337 134.195c1.713 0 3.102-1.389 3.102-3.103 0-1.713-1.389-3.102-3.102-3.102s-3.102 1.389-3.102 3.102c-.001 1.714 1.388 3.103 3.102 3.103z"/><path d="m460.337 147.991c-.419 0-.818.085-1.183.236.358 1.98.686 3.963.996 5.949.063.004.123.019.187.019 1.713 0 3.102-1.389 3.102-3.103 0-1.712-1.389-3.101-3.102-3.101z"/><path d="m461.965 168.463c.161 1.643.306 3.287.435 4.932.633-.568 1.039-1.384 1.039-2.302 0-1.114-.592-2.083-1.474-2.63z"/><path d="m463.176 192.335c.167-.381.263-.8.263-1.242 0-.464-.109-.9-.292-1.296.011.846.027 1.692.029 2.538z"/><path d="m462.357 213.429c.657-.569 1.082-1.399 1.082-2.337 0-.778-.297-1.481-.77-2.026-.092 1.456-.195 2.91-.312 4.363z"/><path d="m459.828 234.144c.167.027.334.051.508.051 1.713 0 3.102-1.389 3.102-3.103 0-1.569-1.17-2.853-2.683-3.06-.282 2.041-.593 4.078-.927 6.112z"/><path d="m460.337 254.195c1.713 0 3.102-1.389 3.102-3.103 0-1.713-1.389-3.102-3.102-3.102s-3.102 1.389-3.102 3.102c-.001 1.714 1.388 3.103 3.102 3.103z"/><path d="m449.96 278.367c-.665 0-1.279.214-1.784.571-.396 1.095-.806 2.187-1.218 3.277.335 1.351 1.547 2.356 3.002 2.356 1.713 0 3.102-1.389 3.102-3.102s-1.388-3.102-3.102-3.102z"/><path d="m460.337 294.195c1.713 0 3.102-1.389 3.102-3.103 0-1.713-1.389-3.102-3.102-3.102s-3.102 1.389-3.102 3.102c-.001 1.714 1.388 3.103 3.102 3.103z"/><path d="m449.96 298.367c-1.713 0-3.102 1.389-3.102 3.103 0 1.713 1.389 3.102 3.102 3.102s3.102-1.389 3.102-3.102c0-1.714-1.388-3.103-3.102-3.103z"/><path d="m460.337 314.195c1.713 0 3.102-1.389 3.102-3.103 0-1.713-1.389-3.102-3.102-3.102s-3.102 1.389-3.102 3.102c-.001 1.714 1.388 3.103 3.102 3.103z"/><path d="m449.96 318.367c-1.713 0-3.102 1.389-3.102 3.103 0 1.713 1.389 3.102 3.102 3.102s3.102-1.389 3.102-3.102c0-1.714-1.388-3.103-3.102-3.103z"/><path d="m460.337 334.195c1.713 0 3.102-1.389 3.102-3.103 0-1.713-1.389-3.102-3.102-3.102s-3.102 1.389-3.102 3.102c-.001 1.714 1.388 3.103 3.102 3.103z"/><path d="m449.96 338.367c-1.713 0-3.102 1.389-3.102 3.103 0 1.713 1.389 3.102 3.102 3.102s3.102-1.389 3.102-3.102c0-1.714-1.388-3.103-3.102-3.103z"/><path d="m460.337 354.195c1.713 0 3.102-1.389 3.102-3.103 0-1.713-1.389-3.102-3.102-3.102s-3.102 1.389-3.102 3.102c-.001 1.714 1.388 3.103 3.102 3.103z"/><path d="m449.96 358.367c-1.713 0-3.102 1.389-3.102 3.103 0 1.713 1.389 3.102 3.102 3.102s3.102-1.389 3.102-3.102c0-1.714-1.388-3.103-3.102-3.103z"/><path d="m460.337 374.195c1.713 0 3.102-1.389 3.102-3.103 0-1.713-1.389-3.102-3.102-3.102s-3.102 1.389-3.102 3.102c-.001 1.714 1.388 3.103 3.102 3.103z"/><path d="m449.96 378.367c-1.713 0-3.102 1.389-3.102 3.103 0 1.713 1.389 3.102 3.102 3.102s3.102-1.389 3.102-3.102c0-1.714-1.388-3.103-3.102-3.103z"/><path d="m449.96 398.367c-1.713 0-3.102 1.389-3.102 3.103 0 1.713 1.389 3.102 3.102 3.102s3.102-1.389 3.102-3.102c0-1.714-1.388-3.103-3.102-3.103z"/><path d="m442.466 293.34c.596-.565.973-1.36.973-2.247 0-.017-.005-.032-.005-.048-.322.764-.638 1.532-.968 2.295z"/><path d="m440.337 307.991c-1.713 0-3.102 1.389-3.102 3.102s1.389 3.103 3.102 3.103 3.102-1.389 3.102-3.103c0-1.713-1.389-3.102-3.102-3.102z"/><path d="m429.96 318.367c-.02 0-.039.006-.059.006-.873 1.521-1.763 3.036-2.67 4.542.521.981 1.541 1.656 2.729 1.656 1.713 0 3.102-1.389 3.102-3.102s-1.388-3.102-3.102-3.102z"/><path d="m440.337 327.991c-1.713 0-3.102 1.389-3.102 3.102s1.389 3.103 3.102 3.103 3.102-1.389 3.102-3.103c0-1.713-1.389-3.102-3.102-3.102z"/><path d="m429.96 338.367c-1.713 0-3.102 1.389-3.102 3.103 0 1.713 1.389 3.102 3.102 3.102s3.102-1.389 3.102-3.102c0-1.714-1.388-3.103-3.102-3.103z"/><path d="m440.337 347.991c-1.713 0-3.102 1.389-3.102 3.102s1.389 3.103 3.102 3.103 3.102-1.389 3.102-3.103c0-1.713-1.389-3.102-3.102-3.102z"/><path d="m429.96 358.367c-1.713 0-3.102 1.389-3.102 3.103 0 1.713 1.389 3.102 3.102 3.102s3.102-1.389 3.102-3.102c0-1.714-1.388-3.103-3.102-3.103z"/><path d="m440.337 367.991c-1.713 0-3.102 1.389-3.102 3.102s1.389 3.103 3.102 3.103 3.102-1.389 3.102-3.103c0-1.713-1.389-3.102-3.102-3.102z"/><path d="m429.96 378.367c-1.713 0-3.102 1.389-3.102 3.103 0 1.713 1.389 3.102 3.102 3.102s3.102-1.389 3.102-3.102c0-1.714-1.388-3.103-3.102-3.103z"/><path d="m440.337 387.991c-1.713 0-3.102 1.389-3.102 3.102s1.389 3.103 3.102 3.103 3.102-1.389 3.102-3.103c0-1.713-1.389-3.102-3.102-3.102z"/><path d="m429.96 398.367c-1.713 0-3.102 1.389-3.102 3.103 0 1.713 1.389 3.102 3.102 3.102s3.102-1.389 3.102-3.102c0-1.714-1.388-3.103-3.102-3.103z"/><path d="m440.337 407.991c-1.713 0-3.102 1.389-3.102 3.102s1.389 3.103 3.102 3.103 3.102-1.389 3.102-3.103c0-1.713-1.389-3.102-3.102-3.102z"/><path d="m429.96 418.367c-1.713 0-3.102 1.389-3.102 3.103 0 1.713 1.389 3.102 3.102 3.102s3.102-1.389 3.102-3.102c0-1.714-1.388-3.103-3.102-3.103z"/><path d="m420.046 334.166c.097.009.191.029.291.029 1.713 0 3.102-1.389 3.102-3.103 0-.534-.147-1.029-.385-1.468-.984 1.523-1.988 3.036-3.008 4.542z"/><path d="m420.337 347.991c-1.713 0-3.102 1.389-3.102 3.102s1.389 3.103 3.102 3.103 3.102-1.389 3.102-3.103c0-1.713-1.389-3.102-3.102-3.102z"/><path d="m409.96 358.367c-1.713 0-3.102 1.389-3.102 3.103 0 1.713 1.389 3.102 3.102 3.102s3.102-1.389 3.102-3.102c0-1.714-1.388-3.103-3.102-3.103z"/><path d="m420.337 367.991c-1.713 0-3.102 1.389-3.102 3.102s1.389 3.103 3.102 3.103 3.102-1.389 3.102-3.103c0-1.713-1.389-3.102-3.102-3.102z"/><path d="m409.96 378.367c-1.713 0-3.102 1.389-3.102 3.103 0 1.713 1.389 3.102 3.102 3.102s3.102-1.389 3.102-3.102c0-1.714-1.388-3.103-3.102-3.103z"/><path d="m420.337 387.991c-1.713 0-3.102 1.389-3.102 3.102s1.389 3.103 3.102 3.103 3.102-1.389 3.102-3.103c0-1.713-1.389-3.102-3.102-3.102z"/><path d="m409.96 398.367c-1.713 0-3.102 1.389-3.102 3.103 0 1.713 1.389 3.102 3.102 3.102s3.102-1.389 3.102-3.102c0-1.714-1.388-3.103-3.102-3.103z"/><path d="m420.337 407.991c-1.713 0-3.102 1.389-3.102 3.102s1.389 3.103 3.102 3.103 3.102-1.389 3.102-3.103c0-1.713-1.389-3.102-3.102-3.102z"/><path d="m409.96 444.572c1.713 0 3.102-1.389 3.102-3.102s-1.389-3.103-3.102-3.103-3.102 1.389-3.102 3.103c0 1.712 1.389 3.102 3.102 3.102z"/><path d="m400.337 367.991c-1.713 0-3.102 1.389-3.102 3.102s1.389 3.103 3.102 3.103 3.102-1.389 3.102-3.103c0-1.713-1.389-3.102-3.102-3.102z"/><path d="m389.96 378.367c-1.713 0-3.102 1.389-3.102 3.103 0 1.713 1.389 3.102 3.102 3.102s3.102-1.389 3.102-3.102c0-1.714-1.388-3.103-3.102-3.103z"/><path d="m400.337 387.991c-1.713 0-3.102 1.389-3.102 3.102s1.389 3.103 3.102 3.103 3.102-1.389 3.102-3.103c0-1.713-1.389-3.102-3.102-3.102z"/><path d="m386.858 421.47c0 1.713 1.389 3.102 3.102 3.102s3.102-1.389 3.102-3.102-1.389-3.103-3.102-3.103-3.102 1.389-3.102 3.103z"/><path d="m400.337 434.195c1.713 0 3.102-1.389 3.102-3.103 0-1.713-1.389-3.102-3.102-3.102s-3.102 1.389-3.102 3.102c-.001 1.714 1.388 3.103 3.102 3.103z"/><path d="m389.96 438.367c-1.713 0-3.102 1.389-3.102 3.103 0 1.713 1.389 3.102 3.102 3.102s3.102-1.389 3.102-3.102c0-1.714-1.388-3.103-3.102-3.103z"/><path d="m400.337 454.195c1.713 0 3.102-1.389 3.102-3.103 0-1.713-1.389-3.102-3.102-3.102s-3.102 1.389-3.102 3.102c-.001 1.714 1.388 3.103 3.102 3.103z"/><path d="m369.96 398.367c-1.713 0-3.102 1.389-3.102 3.103 0 1.713 1.389 3.102 3.102 3.102s3.102-1.389 3.102-3.102c0-1.714-1.388-3.103-3.102-3.103z"/><path d="m380.337 407.991c-1.713 0-3.102 1.389-3.102 3.102s1.389 3.103 3.102 3.103 3.102-1.389 3.102-3.103c0-1.713-1.389-3.102-3.102-3.102z"/><path d="m369.96 418.367c-1.713 0-3.102 1.389-3.102 3.103 0 1.713 1.389 3.102 3.102 3.102s3.102-1.389 3.102-3.102c0-1.714-1.388-3.103-3.102-3.103z"/><path d="m380.337 427.991c-1.713 0-3.102 1.389-3.102 3.102s1.389 3.103 3.102 3.103 3.102-1.389 3.102-3.103c0-1.713-1.389-3.102-3.102-3.102z"/><path d="m369.96 438.367c-1.713 0-3.102 1.389-3.102 3.103 0 1.713 1.389 3.102 3.102 3.102s3.102-1.389 3.102-3.102c0-1.714-1.388-3.103-3.102-3.103z"/><path d="m380.337 447.991c-1.713 0-3.102 1.389-3.102 3.102s1.389 3.103 3.102 3.103 3.102-1.389 3.102-3.103c0-1.713-1.389-3.102-3.102-3.102z"/><path d="m369.96 458.367c-1.713 0-3.102 1.389-3.102 3.103 0 1.713 1.389 3.102 3.102 3.102s3.102-1.389 3.102-3.102c0-1.714-1.388-3.103-3.102-3.103z"/><path d="m348.628 404.26c.405.194.853.312 1.332.312 1.713 0 3.102-1.389 3.102-3.102 0-.056-.013-.108-.016-.164-1.466.999-2.936 1.99-4.418 2.954z"/><path d="m360.337 407.991c-1.713 0-3.102 1.389-3.102 3.102s1.389 3.103 3.102 3.103 3.102-1.389 3.102-3.103c0-1.713-1.389-3.102-3.102-3.102z"/><path d="m349.96 418.367c-1.713 0-3.102 1.389-3.102 3.103 0 1.713 1.389 3.102 3.102 3.102s3.102-1.389 3.102-3.102c0-1.714-1.388-3.103-3.102-3.103z"/><path d="m360.337 427.991c-1.713 0-3.102 1.389-3.102 3.102s1.389 3.103 3.102 3.103 3.102-1.389 3.102-3.103c0-1.713-1.389-3.102-3.102-3.102z"/><path d="m349.96 438.367c-1.713 0-3.102 1.389-3.102 3.103 0 1.713 1.389 3.102 3.102 3.102s3.102-1.389 3.102-3.102c0-1.714-1.388-3.103-3.102-3.103z"/><path d="m360.337 447.991c-1.713 0-3.102 1.389-3.102 3.102s1.389 3.103 3.102 3.103 3.102-1.389 3.102-3.103c0-1.713-1.389-3.102-3.102-3.102z"/><path d="m349.96 458.367c-1.713 0-3.102 1.389-3.102 3.103 0 1.713 1.389 3.102 3.102 3.102s3.102-1.389 3.102-3.102c0-1.714-1.388-3.103-3.102-3.103z"/><path d="m360.337 467.991c-1.713 0-3.102 1.389-3.102 3.102s1.389 3.103 3.102 3.103 3.102-1.389 3.102-3.103c0-1.713-1.389-3.102-3.102-3.102z"/><path d="m341.94 408.449c-1.557.945-3.119 1.877-4.691 2.785.075 1.647 1.423 2.962 3.088 2.962 1.713 0 3.102-1.389 3.102-3.103 0-1.124-.604-2.1-1.499-2.644z"/><path d="m329.96 418.367c-1.713 0-3.102 1.389-3.102 3.103 0 1.713 1.389 3.102 3.102 3.102s3.102-1.389 3.102-3.102c0-1.714-1.388-3.103-3.102-3.103z"/><path d="m340.337 427.991c-1.713 0-3.102 1.389-3.102 3.102s1.389 3.103 3.102 3.103 3.102-1.389 3.102-3.103c0-1.713-1.389-3.102-3.102-3.102z"/><path d="m329.96 438.367c-1.713 0-3.102 1.389-3.102 3.103 0 1.713 1.389 3.102 3.102 3.102s3.102-1.389 3.102-3.102c0-1.714-1.388-3.103-3.102-3.103z"/><path d="m340.337 447.991c-1.713 0-3.102 1.389-3.102 3.102s1.389 3.103 3.102 3.103 3.102-1.389 3.102-3.103c0-1.713-1.389-3.102-3.102-3.102z"/><path d="m329.96 458.367c-1.713 0-3.102 1.389-3.102 3.103 0 1.713 1.389 3.102 3.102 3.102s3.102-1.389 3.102-3.102c0-1.714-1.388-3.103-3.102-3.103z"/><path d="m340.337 467.991c-1.713 0-3.102 1.389-3.102 3.102s1.389 3.103 3.102 3.103 3.102-1.389 3.102-3.103c0-1.713-1.389-3.102-3.102-3.102z"/><path d="m329.96 478.367c-1.713 0-3.102 1.389-3.102 3.103 0 1.713 1.389 3.102 3.102 3.102s3.102-1.389 3.102-3.102c0-1.714-1.388-3.103-3.102-3.103z"/><path d="m320.337 427.991c-1.713 0-3.102 1.389-3.102 3.102s1.389 3.103 3.102 3.103 3.102-1.389 3.102-3.103c0-1.713-1.389-3.102-3.102-3.102z"/><path d="m309.96 438.367c-1.713 0-3.102 1.389-3.102 3.103 0 1.713 1.389 3.102 3.102 3.102s3.102-1.389 3.102-3.102c0-1.714-1.388-3.103-3.102-3.103z"/><path d="m320.337 447.991c-1.713 0-3.102 1.389-3.102 3.102s1.389 3.103 3.102 3.103 3.102-1.389 3.102-3.103c0-1.713-1.389-3.102-3.102-3.102z"/><path d="m309.96 458.367c-1.713 0-3.102 1.389-3.102 3.103 0 1.713 1.389 3.102 3.102 3.102s3.102-1.389 3.102-3.102c0-1.714-1.388-3.103-3.102-3.103z"/><path d="m320.337 467.991c-1.713 0-3.102 1.389-3.102 3.102s1.389 3.103 3.102 3.103 3.102-1.389 3.102-3.103c0-1.713-1.389-3.102-3.102-3.102z"/><path d="m309.96 478.367c-1.713 0-3.102 1.389-3.102 3.103 0 1.713 1.389 3.102 3.102 3.102s3.102-1.389 3.102-3.102c0-1.714-1.388-3.103-3.102-3.103z"/><path d="m320.337 487.991c-1.713 0-3.102 1.389-3.102 3.102s1.389 3.103 3.102 3.103 3.102-1.389 3.102-3.103c0-1.713-1.389-3.102-3.102-3.102z"/><path d="m301.541 428.233c-1.32.505-2.643 1-3.97 1.482-.208.417-.336.88-.336 1.378 0 1.713 1.389 3.103 3.102 3.103s3.102-1.389 3.102-3.103c0-1.287-.783-2.39-1.898-2.86z"/><path d="m289.96 438.367c-1.713 0-3.102 1.389-3.102 3.103 0 1.713 1.389 3.102 3.102 3.102s3.102-1.389 3.102-3.102c.001-1.714-1.388-3.103-3.102-3.103z"/><path d="m300.337 447.991c-1.713 0-3.102 1.389-3.102 3.102s1.389 3.103 3.102 3.103 3.102-1.389 3.102-3.103c0-1.713-1.389-3.102-3.102-3.102z"/><path d="m289.96 458.367c-1.713 0-3.102 1.389-3.102 3.103 0 1.713 1.389 3.102 3.102 3.102s3.102-1.389 3.102-3.102c.001-1.714-1.388-3.103-3.102-3.103z"/><path d="m300.337 467.991c-1.713 0-3.102 1.389-3.102 3.102s1.389 3.103 3.102 3.103 3.102-1.389 3.102-3.103c0-1.713-1.389-3.102-3.102-3.102z"/><path d="m289.96 478.367c-1.713 0-3.102 1.389-3.102 3.103 0 1.713 1.389 3.102 3.102 3.102s3.102-1.389 3.102-3.102c.001-1.714-1.388-3.103-3.102-3.103z"/><path d="m300.337 487.991c-1.713 0-3.102 1.389-3.102 3.102s1.389 3.103 3.102 3.103 3.102-1.389 3.102-3.103c0-1.713-1.389-3.102-3.102-3.102z"/><path d="m269.96 438.367c-1.713 0-3.102 1.389-3.102 3.103 0 1.713 1.389 3.102 3.102 3.102s3.102-1.389 3.102-3.102c.001-1.714-1.388-3.103-3.102-3.103z"/><path d="m280.337 447.991c-1.713 0-3.102 1.389-3.102 3.102s1.389 3.103 3.102 3.103 3.102-1.389 3.102-3.103c0-1.713-1.389-3.102-3.102-3.102z"/><path d="m269.96 458.367c-1.713 0-3.102 1.389-3.102 3.103 0 1.713 1.389 3.102 3.102 3.102s3.102-1.389 3.102-3.102c.001-1.714-1.388-3.103-3.102-3.103z"/><path d="m280.337 467.991c-1.713 0-3.102 1.389-3.102 3.102s1.389 3.103 3.102 3.103 3.102-1.389 3.102-3.103c0-1.713-1.389-3.102-3.102-3.102z"/><path d="m269.96 478.367c-1.713 0-3.102 1.389-3.102 3.103 0 1.713 1.389 3.102 3.102 3.102s3.102-1.389 3.102-3.102c.001-1.714-1.388-3.103-3.102-3.103z"/><path d="m280.337 487.991c-1.713 0-3.102 1.389-3.102 3.102s1.389 3.103 3.102 3.103 3.102-1.389 3.102-3.103c0-1.713-1.389-3.102-3.102-3.102z"/><path d="m260.337 467.991c-1.713 0-3.102 1.389-3.102 3.102s1.389 3.103 3.102 3.103 3.102-1.389 3.102-3.103c0-1.713-1.389-3.102-3.102-3.102z"/><path d="m260.337 487.991c-1.713 0-3.102 1.389-3.102 3.102s1.389 3.103 3.102 3.103 3.102-1.389 3.102-3.103c0-1.713-1.389-3.102-3.102-3.102z"/><path d="m231.747 443.998c-1.05.084-2.1.173-3.152.244.413.204.872.329 1.365.329.667.001 1.281-.214 1.787-.573z"/><path d="m240.337 447.991c-1.713 0-3.102 1.389-3.102 3.102s1.389 3.103 3.102 3.103 3.102-1.389 3.102-3.103c0-1.713-1.389-3.102-3.102-3.102z"/><path d="m229.96 458.367c-1.713 0-3.102 1.389-3.102 3.103 0 1.713 1.389 3.102 3.102 3.102s3.102-1.389 3.102-3.102c.001-1.714-1.388-3.103-3.102-3.103z"/><path d="m240.337 467.991c-1.713 0-3.102 1.389-3.102 3.102s1.389 3.103 3.102 3.103 3.102-1.389 3.102-3.103c0-1.713-1.389-3.102-3.102-3.102z"/><path d="m229.96 478.367c-1.713 0-3.102 1.389-3.102 3.103 0 1.713 1.389 3.102 3.102 3.102s3.102-1.389 3.102-3.102c.001-1.714-1.388-3.103-3.102-3.103z"/><path d="m240.337 487.991c-1.713 0-3.102 1.389-3.102 3.102s1.389 3.103 3.102 3.103 3.102-1.389 3.102-3.103c0-1.713-1.389-3.102-3.102-3.102z"/><path d="m220.337 447.991c-1.713 0-3.102 1.389-3.102 3.102s1.389 3.103 3.102 3.103 3.102-1.389 3.102-3.103c0-1.713-1.389-3.102-3.102-3.102z"/><path d="m209.96 458.367c-1.713 0-3.102 1.389-3.102 3.103 0 1.713 1.389 3.102 3.102 3.102s3.102-1.389 3.102-3.102c.001-1.714-1.388-3.103-3.102-3.103z"/><path d="m220.337 467.991c-1.713 0-3.102 1.389-3.102 3.102s1.389 3.103 3.102 3.103 3.102-1.389 3.102-3.103c0-1.713-1.389-3.102-3.102-3.102z"/><path d="m209.96 478.367c-1.713 0-3.102 1.389-3.102 3.103 0 1.713 1.389 3.102 3.102 3.102s3.102-1.389 3.102-3.102c.001-1.714-1.388-3.103-3.102-3.103z"/><path d="m220.337 487.991c-1.713 0-3.102 1.389-3.102 3.102s1.389 3.103 3.102 3.103 3.102-1.389 3.102-3.103c0-1.713-1.389-3.102-3.102-3.102z"/><path d="m191.72 444.021c-1.308-.103-2.615-.208-3.922-.332.559.544 1.32.882 2.162.882.655.001 1.26-.205 1.76-.55z"/><path d="m200.337 447.991c-1.713 0-3.102 1.389-3.102 3.102s1.389 3.103 3.102 3.103 3.102-1.389 3.102-3.103c0-1.713-1.389-3.102-3.102-3.102z"/><path d="m189.96 458.367c-1.713 0-3.102 1.389-3.102 3.103 0 1.713 1.389 3.102 3.102 3.102s3.102-1.389 3.102-3.102c.001-1.714-1.388-3.103-3.102-3.103z"/><path d="m200.337 467.991c-1.713 0-3.102 1.389-3.102 3.102s1.389 3.103 3.102 3.103 3.102-1.389 3.102-3.103c0-1.713-1.389-3.102-3.102-3.102z"/><path d="m189.96 478.367c-1.713 0-3.102 1.389-3.102 3.103 0 1.713 1.389 3.102 3.102 3.102s3.102-1.389 3.102-3.102c.001-1.714-1.388-3.103-3.102-3.103z"/><path d="m200.337 487.991c-1.713 0-3.102 1.389-3.102 3.102s1.389 3.103 3.102 3.103 3.102-1.389 3.102-3.103c0-1.713-1.389-3.102-3.102-3.102z"/><path d="m169.96 444.572c1.586 0 2.879-1.195 3.065-2.731-2.036-.314-4.069-.653-6.097-1.018-.044.208-.07.424-.07.646 0 1.713 1.389 3.103 3.102 3.103z"/><path d="m180.337 447.991c-1.713 0-3.102 1.389-3.102 3.102s1.389 3.103 3.102 3.103 3.102-1.389 3.102-3.103c0-1.713-1.389-3.102-3.102-3.102z"/><path d="m169.96 458.367c-1.713 0-3.102 1.389-3.102 3.103 0 1.713 1.389 3.102 3.102 3.102s3.102-1.389 3.102-3.102c.001-1.714-1.388-3.103-3.102-3.103z"/><path d="m180.337 467.991c-1.713 0-3.102 1.389-3.102 3.102s1.389 3.103 3.102 3.103 3.102-1.389 3.102-3.103c0-1.713-1.389-3.102-3.102-3.102z"/><path d="m169.96 478.367c-1.713 0-3.102 1.389-3.102 3.103 0 1.713 1.389 3.102 3.102 3.102s3.102-1.389 3.102-3.102c.001-1.714-1.388-3.103-3.102-3.103z"/><path d="m149.96 438.367c-1.713 0-3.102 1.389-3.102 3.103 0 1.713 1.389 3.102 3.102 3.102s3.102-1.389 3.102-3.102c.001-1.714-1.388-3.103-3.102-3.103z"/><path d="m160.337 447.991c-1.713 0-3.102 1.389-3.102 3.102s1.389 3.103 3.102 3.103 3.102-1.389 3.102-3.103c0-1.713-1.389-3.102-3.102-3.102z"/><path d="m149.96 458.367c-1.713 0-3.102 1.389-3.102 3.103 0 1.713 1.389 3.102 3.102 3.102s3.102-1.389 3.102-3.102c.001-1.714-1.388-3.103-3.102-3.103z"/><path d="m160.337 467.991c-1.713 0-3.102 1.389-3.102 3.102s1.389 3.103 3.102 3.103 3.102-1.389 3.102-3.103c0-1.713-1.389-3.102-3.102-3.102z"/><path d="m129.96 438.367c-1.713 0-3.102 1.389-3.102 3.103 0 1.713 1.389 3.102 3.102 3.102s3.102-1.389 3.102-3.102c.001-1.714-1.388-3.103-3.102-3.103z"/><path d="m140.337 447.991c-1.713 0-3.102 1.389-3.102 3.102s1.389 3.103 3.102 3.103 3.102-1.389 3.102-3.103c0-1.713-1.389-3.102-3.102-3.102z"/><path d="m129.96 458.367c-1.713 0-3.102 1.389-3.102 3.103 0 1.713 1.389 3.102 3.102 3.102s3.102-1.389 3.102-3.102c.001-1.714-1.388-3.103-3.102-3.103z"/><path d="m140.337 467.991c-1.713 0-3.102 1.389-3.102 3.102s1.389 3.103 3.102 3.103 3.102-1.389 3.102-3.103c0-1.713-1.389-3.102-3.102-3.102z"/><path d="m109.96 424.572c.572 0 1.101-.165 1.561-.436-1.539-.666-3.072-1.347-4.6-2.044.288 1.415 1.539 2.48 3.039 2.48z"/><path d="m120.337 427.991c-1.713 0-3.102 1.389-3.102 3.102s1.389 3.103 3.102 3.103 3.102-1.389 3.102-3.103c0-1.713-1.389-3.102-3.102-3.102z"/><path d="m109.96 438.367c-1.713 0-3.102 1.389-3.102 3.103 0 1.713 1.389 3.102 3.102 3.102s3.102-1.389 3.102-3.102c.001-1.714-1.388-3.103-3.102-3.103z"/><path d="m120.337 447.991c-1.713 0-3.102 1.389-3.102 3.102s1.389 3.103 3.102 3.103 3.102-1.389 3.102-3.103c0-1.713-1.389-3.102-3.102-3.102z"/><path d="m89.96 418.367c-1.713 0-3.102 1.389-3.102 3.103 0 1.713 1.389 3.102 3.102 3.102s3.102-1.389 3.102-3.102c.001-1.714-1.388-3.103-3.102-3.103z"/><path d="m100.337 427.991c-1.713 0-3.102 1.389-3.102 3.102s1.389 3.103 3.102 3.103 3.102-1.389 3.102-3.103c0-1.713-1.389-3.102-3.102-3.102z"/><path d="m66.858 401.47c0 1.713 1.389 3.102 3.102 3.102 1.141 0 2.128-.624 2.667-1.542-1.709-1.134-3.408-2.29-5.095-3.47-.416.528-.674 1.185-.674 1.91z"/><path d="m60.113 394.173c-.904-.683-1.801-1.378-2.697-2.074.395 1.148 1.438 1.982 2.697 2.074z"/><path d="m442.443 81.051c-46.647-49.884-109.928-78.617-178.185-80.906-.133-.004-.265-.004-.398-.008h-.001c-.001 0-.003 0-.005 0-68.11-2.179-133.015 22.24-182.802 68.795-49.883 46.646-78.615 109.927-80.905 178.184-2.288 68.257 22.14 133.321 68.787 183.204 46.647 49.884 109.928 78.617 178.185 80.906 2.937.099 5.861.147 8.786.147 65.036 0 126.681-24.294 174.419-68.934 49.883-46.646 78.617-109.927 80.906-178.185 2.288-68.256-22.14-133.319-68.787-183.203zm-3.179 8.503c2.905 3.208 5.709 6.483 8.427 9.812-.513.554-.833 1.289-.833 2.103 0 1.713 1.389 3.102 3.102 3.102.562 0 1.083-.161 1.538-.423 2.023 2.605 3.996 5.239 5.906 7.91.195.591.557 1.1 1.038 1.474 7.81 11.09 14.651 22.729 20.48 34.815-.997.516-1.687 1.545-1.687 2.745 0 1.713 1.389 3.103 3.102 3.103.425 0 .83-.087 1.199-.241 3.628 8.037 6.82 16.257 9.559 24.634-.352-.139-.733-.221-1.134-.221-1.713 0-3.102 1.389-3.102 3.103 0 1.713 1.389 3.102 3.102 3.102 1.078 0 2.025-.55 2.581-1.384 2.525 8.274 4.619 16.689 6.261 25.224-.933.535-1.568 1.529-1.568 2.681 0 1.542 1.128 2.811 2.601 3.052.792 4.71 1.441 9.454 1.961 14.227-.437-.235-.929-.381-1.46-.381-1.713 0-3.102 1.389-3.102 3.102s1.389 3.103 3.102 3.103c.748 0 1.425-.276 1.961-.717.479 5.445.783 10.924.905 16.432-.465-1.126-1.572-1.919-2.866-1.919-1.713 0-3.102 1.389-3.102 3.102s1.389 3.103 3.102 3.103c1.341 0 2.472-.855 2.905-2.046.034 2.584.043 5.173-.002 7.769-3.601-.168-7.193-.25-10.778-.268-.564-.774-1.471-1.283-2.502-1.283-1.045 0-1.964.521-2.526 1.312-4.885.072-9.755.271-14.603.624-.462-1.134-1.571-1.936-2.871-1.936-1.483 0-2.719 1.042-3.025 2.433-19.679 1.897-39.004 6.112-57.782 12.635-31.383 10.902-59.771 27.769-84.46 50.129l-63.294-67.686zm-171.46-81.057c60.802 2.972 120.577 28.188 165.938 75.159l-177.862 166.32-63.533-67.941c23.932-23.104 42.645-50.259 55.623-80.793 12.483-29.371 19.138-60.553 19.834-92.745zm-12.196-.3c1.373 0 2.745.029 4.118.051-1.363 64.324-27.121 123.646-72.898 167.884l-97.271-104.022c47.207-42.742 106.68-63.913 166.051-63.913zm-171.952 69.434 97.27 104.021c-47.206 42.71-108.121 64.436-172.393 61.487 3.069-60.657 28.26-120.251 75.123-165.508zm-10.643 343.345c-.238-1.478-1.508-2.609-3.052-2.609-.275 0-.537.047-.792.115-1.975-2.261-3.904-4.547-5.783-6.861.03-.172.053-.347.053-.528 0-1.659-1.307-3.003-2.946-3.086-35.937-45.983-53.239-101.567-52.237-156.778 3.902.177 7.794.268 11.677.268 28.119 0 55.695-4.645 82.174-13.858 31.335-10.903 59.682-27.755 84.338-50.085l63.533 67.942-166.554 155.744c.002-.05.015-.097.015-.147 0-.56-.16-1.078-.42-1.531-.87-.518-1.741-1.034-2.605-1.563-.026 0-.051-.008-.077-.008-1.713 0-3.102 1.389-3.102 3.102 0 1.691 1.354 3.06 3.037 3.096zm159.946 81.249c.061-.243.104-.494.104-.756 0-1.713-1.389-3.103-3.102-3.103s-3.102 1.389-3.102 3.103c0 .044.011.085.013.129-4.886-.564-9.736-1.273-14.549-2.119-.569-.675-1.41-1.112-2.361-1.112-.554 0-1.067.157-1.518.412-8.589-1.65-17.044-3.762-25.348-6.293.213-.421.345-.89.345-1.394 0-1.713-1.389-3.102-3.102-3.102-1.557 0-2.833 1.15-3.056 2.644-8.255-2.742-16.352-5.905-24.252-9.503-.171-1.552-1.471-2.765-3.068-2.765-.636 0-1.227.193-1.72.522-15.823-7.623-30.836-16.961-44.813-27.907-.06-1.661-1.416-2.991-3.091-2.991-.199 0-.392.023-.58.059-2.304-1.876-4.572-3.804-6.815-5.768.071-.261.121-.529.121-.812 0-1.713-1.389-3.103-3.102-3.103-.405 0-.788.083-1.143.224-2.023-1.852-4.022-3.738-5.991-5.663.381-.515.613-1.146.613-1.835 0-1.713-1.389-3.102-3.102-3.102-.688 0-1.318.231-1.833.611-.289-.296-.584-.584-.872-.882l177.865-166.322 63.294 67.686c-23.964 23.135-42.694 50.328-55.674 80.91-4.372 10.301-8.011 20.829-10.944 31.54-1.724.281-3.449.553-5.178.797.376 1.291 1.554 2.24 2.966 2.24.544 0 1.047-.152 1.491-.398-1.288 4.916-2.412 9.874-3.396 14.864-.724.568-1.197 1.441-1.197 2.432 0 .575.167 1.107.44 1.568-2.362 13.094-3.699 26.421-3.972 39.928-3.476-.171-6.93-.426-10.371-.739zm160.076-40.484c.008-.091.027-.179.027-.272 0-1.713-1.389-3.103-3.102-3.103s-3.102 1.389-3.102 3.103c0 1.371.896 2.521 2.129 2.931-2.248 1.443-4.519 2.844-6.807 4.21-.517-.384-1.15-.62-1.843-.62-1.713 0-3.102 1.389-3.102 3.102 0 .127.023.248.037.371-8.293 4.694-16.828 8.89-25.572 12.573.822-.558 1.362-1.5 1.362-2.567 0-1.713-1.389-3.103-3.102-3.103s-3.102 1.389-3.102 3.103c0 1.713 1.389 3.102 3.102 3.102.226 0 .445-.027.657-.073-3.089 1.284-6.206 2.496-9.344 3.651-.297-.095-.608-.16-.936-.16-1.098 0-2.057.574-2.608 1.434-14.504 5.088-29.498 8.808-44.826 11.106-.4-1.251-1.558-2.164-2.942-2.164-1.676 0-3.032 1.331-3.091 2.993-4.665.582-9.357 1.045-14.075 1.363.17-.384.269-.806.269-1.253 0-1.713-1.389-3.103-3.102-3.103s-3.102 1.389-3.102 3.103c0 .574.166 1.105.438 1.565-3.786.171-7.587.259-11.4.259-1.135 0-2.274-.016-3.412-.032.361-.507.578-1.123.578-1.792 0-1.133-.613-2.114-1.52-2.655.197-5.304.564-10.571 1.091-15.797.265-.457.428-.981.428-1.547 0-.338-.068-.658-.168-.962 1.051-9.448 2.645-18.754 4.755-27.891.534.939 1.53 1.579 2.687 1.579 1.713 0 3.102-1.389 3.102-3.103 0-1.713-1.389-3.102-3.102-3.102-.629 0-1.212.19-1.7.511 10.743-43.038 33.145-82.082 65.673-113.517l52.98 56.657c.215 1.201 1.119 2.153 2.29 2.449l7.324 7.832c.19 1.284 1.155 2.313 2.412 2.579l32.505 34.761c-9.116 8.258-18.741 15.751-28.786 22.479zm34.686-27.998-97.509-104.277c35.978-32.553 79.91-52.898 127.222-59.438-.123.333-.2.689-.2 1.065 0 1.713 1.389 3.103 3.102 3.103s3.102-1.389 3.102-3.103c0-.653-.204-1.258-.549-1.758 13.148-1.514 26.538-1.981 40.08-1.34-.022.447-.057.891-.082 1.338-.56-.81-1.493-1.342-2.551-1.342-1.713 0-3.102 1.389-3.102 3.102s1.389 3.103 3.102 3.103c.928 0 1.751-.416 2.319-1.061-.351 5.026-.859 10.019-1.505 14.978-.261-.071-.531-.122-.814-.122-1.713 0-3.102 1.389-3.102 3.102 0 1.695 1.361 3.068 3.049 3.097-2.359 15.183-6.097 30-11.153 44.304-1.307.365-2.272 1.552-2.272 2.976 0 .653.204 1.257.549 1.757-4.588 12.178-10.131 23.969-16.602 35.272-.27-.077-.55-.131-.845-.131-1.713 0-3.102 1.389-3.102 3.103 0 .856.347 1.631.908 2.192-1.414 2.336-2.883 4.642-4.377 6.933-.24-1.475-1.509-2.604-3.052-2.604-1.713 0-3.102 1.389-3.102 3.102s1.389 3.103 3.102 3.103c.254 0 .497-.039.734-.097-9.604 14.19-20.748 27.477-33.35 39.643z"/></g></svg>