<svg id="Capa_1" enable-background="new 0 0 511.85 511.85" height="512" viewBox="0 0 511.85 511.85" width="512" xmlns="http://www.w3.org/2000/svg"><g><path d="m406.803 373.598c-1.713 0-3.102 1.389-3.102 3.103s1.389 3.102 3.102 3.102 3.102-1.389 3.102-3.102-1.389-3.103-3.102-3.103z"/><path d="m397.179 363.222c-1.713 0-3.102 1.389-3.102 3.103 0 1.713 1.389 3.102 3.102 3.102s3.102-1.389 3.102-3.102c0-1.714-1.389-3.103-3.102-3.103z"/><path d="m386.803 373.598c-1.713 0-3.102 1.389-3.102 3.103s1.389 3.102 3.102 3.102 3.102-1.389 3.102-3.102-1.389-3.103-3.102-3.103z"/><path d="m397.179 383.222c-1.713 0-3.102 1.389-3.102 3.103 0 1.713 1.389 3.102 3.102 3.102s3.102-1.389 3.102-3.102c0-1.714-1.389-3.103-3.102-3.103z"/><path d="m377.179 363.222c-1.713 0-3.102 1.389-3.102 3.103 0 1.713 1.389 3.102 3.102 3.102s3.102-1.389 3.102-3.102c0-1.714-1.389-3.103-3.102-3.103z"/><path d="m366.803 373.598c-1.713 0-3.102 1.389-3.102 3.103s1.389 3.102 3.102 3.102 3.102-1.389 3.102-3.102-1.389-3.103-3.102-3.103z"/><path d="m377.179 383.222c-1.713 0-3.102 1.389-3.102 3.103 0 1.713 1.389 3.102 3.102 3.102s3.102-1.389 3.102-3.102c0-1.714-1.389-3.103-3.102-3.103z"/><path d="m357.179 363.222c-1.713 0-3.102 1.389-3.102 3.103 0 1.713 1.389 3.102 3.102 3.102s3.102-1.389 3.102-3.102c0-1.714-1.389-3.103-3.102-3.103z"/><path d="m346.803 373.598c-1.713 0-3.102 1.389-3.102 3.103s1.389 3.102 3.102 3.102 3.102-1.389 3.102-3.102-1.389-3.103-3.102-3.103z"/><path d="m357.179 383.222c-1.713 0-3.102 1.389-3.102 3.103 0 1.713 1.389 3.102 3.102 3.102s3.102-1.389 3.102-3.102c0-1.714-1.389-3.103-3.102-3.103z"/><path d="m337.179 363.222c-1.713 0-3.102 1.389-3.102 3.103 0 1.713 1.389 3.102 3.102 3.102s3.102-1.389 3.102-3.102c0-1.714-1.389-3.103-3.102-3.103z"/><path d="m326.803 373.598c-1.713 0-3.102 1.389-3.102 3.103s1.389 3.102 3.102 3.102 3.102-1.389 3.102-3.102-1.389-3.103-3.102-3.103z"/><path d="m337.179 383.222c-1.713 0-3.102 1.389-3.102 3.103 0 1.713 1.389 3.102 3.102 3.102s3.102-1.389 3.102-3.102c0-1.714-1.389-3.103-3.102-3.103z"/><path d="m317.179 363.222c-1.713 0-3.102 1.389-3.102 3.103 0 1.713 1.389 3.102 3.102 3.102s3.102-1.389 3.102-3.102c0-1.714-1.389-3.103-3.102-3.103z"/><path d="m306.803 373.598c-1.713 0-3.102 1.389-3.102 3.103s1.389 3.102 3.102 3.102 3.102-1.389 3.102-3.102-1.389-3.103-3.102-3.103z"/><path d="m317.179 383.222c-1.713 0-3.102 1.389-3.102 3.103 0 1.713 1.389 3.102 3.102 3.102s3.102-1.389 3.102-3.102c0-1.714-1.389-3.103-3.102-3.103z"/><path d="m297.179 383.222c-1.713 0-3.102 1.389-3.102 3.103 0 1.713 1.389 3.102 3.102 3.102s3.102-1.389 3.102-3.102c0-1.714-1.389-3.103-3.102-3.103z"/><path d="m214.077 426.324c0 1.713 1.389 3.102 3.102 3.102s3.102-1.389 3.102-3.102-1.389-3.103-3.102-3.103c-1.713.001-3.102 1.39-3.102 3.103z"/><path d="m206.803 433.598c-1.713 0-3.102 1.389-3.102 3.103s1.389 3.102 3.102 3.102 3.102-1.389 3.102-3.102-1.389-3.103-3.102-3.103z"/><path d="m217.179 443.222c-1.713 0-3.102 1.389-3.102 3.103 0 1.713 1.389 3.102 3.102 3.102s3.102-1.389 3.102-3.102c0-1.714-1.388-3.103-3.102-3.103z"/><path d="m197.179 423.222c-1.713 0-3.102 1.389-3.102 3.103 0 1.713 1.389 3.102 3.102 3.102s3.102-1.389 3.102-3.102c0-1.714-1.388-3.103-3.102-3.103z"/><path d="m186.803 433.598c-1.713 0-3.102 1.389-3.102 3.103s1.389 3.102 3.102 3.102 3.102-1.389 3.102-3.102-1.389-3.103-3.102-3.103z"/><path d="m197.179 443.222c-1.713 0-3.102 1.389-3.102 3.103 0 1.713 1.389 3.102 3.102 3.102s3.102-1.389 3.102-3.102c0-1.714-1.388-3.103-3.102-3.103z"/><path d="m177.179 423.222c-1.713 0-3.102 1.389-3.102 3.103 0 1.713 1.389 3.102 3.102 3.102s3.102-1.389 3.102-3.102c0-1.714-1.388-3.103-3.102-3.103z"/><path d="m166.803 433.598c-1.713 0-3.102 1.389-3.102 3.103s1.389 3.102 3.102 3.102 3.102-1.389 3.102-3.102-1.389-3.103-3.102-3.103z"/><path d="m177.179 443.222c-1.713 0-3.102 1.389-3.102 3.103 0 1.713 1.389 3.102 3.102 3.102s3.102-1.389 3.102-3.102c0-1.714-1.388-3.103-3.102-3.103z"/><path d="m157.179 423.222c-1.713 0-3.102 1.389-3.102 3.103 0 1.713 1.389 3.102 3.102 3.102s3.102-1.389 3.102-3.102c0-1.714-1.388-3.103-3.102-3.103z"/><path d="m146.803 433.598c-1.713 0-3.102 1.389-3.102 3.103s1.389 3.102 3.102 3.102 3.102-1.389 3.102-3.102-1.389-3.103-3.102-3.103z"/><path d="m157.179 443.222c-1.713 0-3.102 1.389-3.102 3.103 0 1.713 1.389 3.102 3.102 3.102s3.102-1.389 3.102-3.102c0-1.714-1.388-3.103-3.102-3.103z"/><path d="m137.179 423.222c-1.713 0-3.102 1.389-3.102 3.103 0 1.713 1.389 3.102 3.102 3.102s3.102-1.389 3.102-3.102c0-1.714-1.388-3.103-3.102-3.103z"/><path d="m126.803 433.598c-1.713 0-3.102 1.389-3.102 3.103s1.389 3.102 3.102 3.102 3.102-1.389 3.102-3.102-1.389-3.103-3.102-3.103z"/><path d="m137.179 443.222c-1.713 0-3.102 1.389-3.102 3.103 0 1.713 1.389 3.102 3.102 3.102s3.102-1.389 3.102-3.102c0-1.714-1.388-3.103-3.102-3.103z"/><path d="m117.179 423.222c-1.713 0-3.102 1.389-3.102 3.103 0 1.713 1.389 3.102 3.102 3.102s3.102-1.389 3.102-3.102c.001-1.714-1.388-3.103-3.102-3.103z"/><path d="m106.803 433.598c-1.713 0-3.102 1.389-3.102 3.103s1.389 3.102 3.102 3.102 3.102-1.389 3.102-3.102-1.389-3.103-3.102-3.103z"/><path d="m117.179 443.222c-1.713 0-3.102 1.389-3.102 3.103 0 1.713 1.389 3.102 3.102 3.102s3.102-1.389 3.102-3.102c.001-1.714-1.388-3.103-3.102-3.103z"/><path d="m97.179 423.222c-1.713 0-3.102 1.389-3.102 3.103 0 1.713 1.389 3.102 3.102 3.102s3.102-1.389 3.102-3.102c.001-1.714-1.388-3.103-3.102-3.103z"/><path d="m86.803 433.598c-1.713 0-3.102 1.389-3.102 3.103s1.389 3.102 3.102 3.102 3.102-1.389 3.102-3.102-1.389-3.103-3.102-3.103z"/><path d="m97.179 443.222c-1.713 0-3.102 1.389-3.102 3.103 0 1.713 1.389 3.102 3.102 3.102s3.102-1.389 3.102-3.102c.001-1.714-1.388-3.103-3.102-3.103z"/><path d="m77.179 423.222c-1.713 0-3.102 1.389-3.102 3.103 0 1.713 1.389 3.102 3.102 3.102s3.102-1.389 3.102-3.102c.001-1.714-1.388-3.103-3.102-3.103z"/><path d="m77.179 443.222c-1.713 0-3.102 1.389-3.102 3.103 0 1.713 1.389 3.102 3.102 3.102s3.102-1.389 3.102-3.102c.001-1.714-1.388-3.103-3.102-3.103z"/><path d="m478.864 170.818v-45.536c0-59.238-48.193-107.432-107.432-107.432h-72.57c-43.412 0-80.871 25.893-97.799 63.037-6.813-1.36-13.855-2.079-21.062-2.079h-72.569c-59.238.001-107.432 48.195-107.432 107.433v125.161c0 40.726 22.778 76.231 56.264 94.446v41.532c0 25.706 20.914 46.62 46.621 46.62h81.663c25.707 0 46.621-20.914 46.621-46.62v-29.06c8.607-.619 16.829-2.653 24.559-5.829 8.388 12.38 22.54 20.549 38.587 20.549h81.664c25.706 0 46.619-20.913 46.619-46.62v-29.058c51.454-3.701 89.251-57.747 89.251-106.254v-44.545c.001-18.806-14.551-34.269-32.985-35.745zm-468.514 15.423c0-53.531 43.55-97.082 97.082-97.082h72.569c53.531 0 97.082 43.551 97.082 97.082v45.396l-19.677-.034h-52.073c-22.224 0-42.302 14.01-49.965 34.862-.37 1.006-.697 2.025-1.004 3.048h-73.608c-38.804 0-70.373-31.569-70.373-70.373h-.033zm210.469 261.138c0 20-16.271 36.27-36.271 36.27h-81.663c-20 0-36.271-16.27-36.271-36.27v-7.596c.063.004.124.019.188.019 1.713 0 3.102-1.389 3.102-3.102s-1.389-3.103-3.102-3.103c-.064 0-.125.015-.188.019v-13.833c.063.004.124.019.188.019 1.713 0 3.102-1.389 3.102-3.102s-1.389-3.103-3.102-3.103c-.064 0-.125.015-.188.019v-2.846c5.499 2.268 11.227 4.092 17.136 5.428-.027.165-.05.33-.05.501 0 1.713 1.389 3.102 3.102 3.102 1.479 0 2.711-1.037 3.022-2.421 4.802.796 9.708 1.278 14.701 1.412.567.617 1.373 1.01 2.277 1.01.885 0 1.678-.374 2.243-.969h15.514c.565.594 1.358.969 2.243.969s1.678-.374 2.243-.969h15.514c.565.594 1.358.969 2.243.969.884 0 1.678-.374 2.243-.969h15.514c.565.594 1.358.969 2.243.969.884 0 1.678-.374 2.243-.969h15.514c.565.594 1.358.969 2.243.969.884 0 1.678-.374 2.243-.969h15.514c.565.594 1.358.969 2.243.969.884 0 1.678-.374 2.243-.969h10.047c.578 0 1.151-.021 1.726-.038v28.584zm4.736-39.2c-.394-.009-.775.053-1.143.136v-.093c-1.753.161-3.524.262-5.319.262h-111.661c-53.531 0-97.082-43.551-97.082-97.082v-72.842c13.841 24.623 40.205 41.305 70.406 41.305h71.594c-.151 1.641-.232 3.293-.232 4.955 0 29.344 23.873 53.217 53.216 53.217h19.931c2.858 0 5.175-2.317 5.175-5.175s-2.317-5.175-5.175-5.175h-19.931c-23.636 0-42.866-19.23-42.866-42.867 0-5.085.881-10.059 2.617-14.785 6.172-16.796 22.346-28.082 40.249-28.082h52.065l27.15.046c14.073 0 25.522 11.449 25.522 25.522v44.545c-1.046 47-36.824 97.174-84.516 96.113zm186.694-21.758c0 20-16.27 36.27-36.269 36.27h-81.664c-11.949 0-22.557-5.814-29.168-14.756 19.528-10.94 35.171-29.312 44.763-50.107l13.99-.061c.436 1.186 1.565 2.037 2.903 2.037 1.346 0 2.481-.863 2.91-2.062l14.16-.062c.411 1.231 1.56 2.124 2.93 2.124 1.379 0 2.534-.905 2.938-2.15l14.105-.061c.385 1.276 1.555 2.211 2.957 2.211 1.411 0 2.589-.948 2.965-2.237l14.051-.062c.355 1.322 1.55 2.299 2.984 2.299 1.443 0 2.646-.99 2.992-2.325l13.997-.061c.324 1.367 1.545 2.387 3.011 2.387 1.476 0 2.705-1.033 3.02-2.413l2.426-.011v29.04zm89.251-135.312c0 43.708-33.547 92.395-79.253 95.902-.086-.004-.167-.025-.254-.025h-.023l-107.853.473c4.084-11.594 6.303-23.655 6.303-35.392v-44.545c0-18.81-14.556-34.274-32.987-35.746v-45.534c0-48.366-32.128-89.363-76.162-102.786 15.654-32.65 49.029-55.255 87.591-55.255h72.57c53.531 0 97.082 43.551 97.082 97.082v120.628c0 2.858 2.317 5.175 5.175 5.175s5.175-2.317 5.175-5.175v-64.702c12.718 1.439 22.636 12.258 22.636 25.354z"/><path d="m31.044 188.748c2.209 0 4-1.791 4-4 0-37.515 30.521-68.036 68.036-68.036h12.577c2.209 0 4-1.791 4-4s-1.791-4-4-4h-12.577c-41.927 0-76.036 34.109-76.036 76.036 0 2.209 1.791 4 4 4z"/></g></svg>