<svg id="Capa_1" enable-background="new 0 0 512 512" height="512" viewBox="0 0 512 512" width="512" xmlns="http://www.w3.org/2000/svg"><g><path d="m339.863 393.879c-1.721 0-3.115 1.395-3.115 3.115s1.395 3.115 3.115 3.115 3.115-1.395 3.115-3.115-1.395-3.115-3.115-3.115z"/><path d="m339.863 413.962c-1.721 0-3.115 1.395-3.115 3.115 0 1.721 1.395 3.115 3.115 3.115s3.115-1.395 3.115-3.115-1.395-3.115-3.115-3.115z"/><path d="m319.779 373.795c-1.721 0-3.115 1.395-3.115 3.115s1.395 3.115 3.115 3.115 3.115-1.395 3.115-3.115-1.395-3.115-3.115-3.115z"/><path d="m330.199 383.459c-1.72 0-3.115 1.395-3.115 3.115s1.395 3.115 3.115 3.115 3.115-1.395 3.115-3.115-1.395-3.115-3.115-3.115z"/><path d="m319.779 393.879c-1.721 0-3.115 1.395-3.115 3.115s1.395 3.115 3.115 3.115 3.115-1.395 3.115-3.115-1.395-3.115-3.115-3.115z"/><path d="m330.199 403.542c-1.72 0-3.115 1.395-3.115 3.115 0 1.721 1.395 3.115 3.115 3.115s3.115-1.395 3.115-3.115-1.395-3.115-3.115-3.115z"/><path d="m299.695 353.712c-1.721 0-3.115 1.395-3.115 3.115s1.395 3.115 3.115 3.115 3.115-1.395 3.115-3.115c.001-1.721-1.394-3.115-3.115-3.115z"/><path d="m310.115 363.375c-1.72 0-3.115 1.395-3.115 3.115s1.395 3.115 3.115 3.115 3.115-1.395 3.115-3.115-1.394-3.115-3.115-3.115z"/><path d="m299.695 373.795c-1.721 0-3.115 1.395-3.115 3.115s1.395 3.115 3.115 3.115 3.115-1.395 3.115-3.115c.001-1.72-1.394-3.115-3.115-3.115z"/><path d="m310.115 383.459c-1.72 0-3.115 1.395-3.115 3.115s1.395 3.115 3.115 3.115 3.115-1.395 3.115-3.115-1.394-3.115-3.115-3.115z"/><path d="m279.612 333.628c-1.72 0-3.115 1.395-3.115 3.115 0 1.721 1.395 3.115 3.115 3.115s3.115-1.395 3.115-3.115-1.395-3.115-3.115-3.115z"/><path d="m290.032 343.292c-1.72 0-3.115 1.395-3.115 3.115s1.395 3.115 3.115 3.115c1.721 0 3.115-1.395 3.115-3.115 0-1.721-1.395-3.115-3.115-3.115z"/><path d="m279.612 353.712c-1.72 0-3.115 1.395-3.115 3.115s1.395 3.115 3.115 3.115 3.115-1.395 3.115-3.115c0-1.721-1.395-3.115-3.115-3.115z"/><circle cx="290.032" cy="366.49" r="3.115"/><path d="m259.528 313.544c-1.721 0-3.115 1.395-3.115 3.115 0 1.721 1.395 3.115 3.115 3.115s3.115-1.395 3.115-3.115-1.394-3.115-3.115-3.115z"/><path d="m269.948 323.208c-1.72 0-3.115 1.395-3.115 3.115 0 1.721 1.395 3.115 3.115 3.115s3.115-1.395 3.115-3.115-1.395-3.115-3.115-3.115z"/><path d="m259.528 333.628c-1.721 0-3.115 1.395-3.115 3.115 0 1.721 1.395 3.115 3.115 3.115s3.115-1.395 3.115-3.115-1.394-3.115-3.115-3.115z"/><path d="m269.948 343.292c-1.72 0-3.115 1.395-3.115 3.115s1.395 3.115 3.115 3.115 3.115-1.395 3.115-3.115c0-1.721-1.395-3.115-3.115-3.115z"/><path d="m239.444 293.461c-1.721 0-3.115 1.395-3.115 3.115s1.395 3.115 3.115 3.115 3.115-1.395 3.115-3.115-1.394-3.115-3.115-3.115z"/><path d="m249.864 303.124c-1.72 0-3.115 1.395-3.115 3.115 0 1.721 1.395 3.115 3.115 3.115 1.721 0 3.115-1.395 3.115-3.115.001-1.72-1.394-3.115-3.115-3.115z"/><path d="m239.444 313.544c-1.721 0-3.115 1.395-3.115 3.115 0 1.721 1.395 3.115 3.115 3.115s3.115-1.395 3.115-3.115c.001-1.72-1.394-3.115-3.115-3.115z"/><path d="m249.864 323.208c-1.72 0-3.115 1.395-3.115 3.115 0 1.721 1.395 3.115 3.115 3.115 1.721 0 3.115-1.395 3.115-3.115.001-1.72-1.394-3.115-3.115-3.115z"/><path d="m219.361 273.377c-1.721 0-3.115 1.395-3.115 3.115s1.395 3.115 3.115 3.115 3.115-1.395 3.115-3.115-1.395-3.115-3.115-3.115z"/><path d="m229.781 283.041c-1.72 0-3.115 1.395-3.115 3.115s1.395 3.115 3.115 3.115 3.115-1.395 3.115-3.115-1.395-3.115-3.115-3.115z"/><path d="m219.361 293.461c-1.721 0-3.115 1.395-3.115 3.115s1.395 3.115 3.115 3.115 3.115-1.395 3.115-3.115-1.395-3.115-3.115-3.115z"/><path d="m229.781 303.124c-1.72 0-3.115 1.395-3.115 3.115 0 1.721 1.395 3.115 3.115 3.115s3.115-1.395 3.115-3.115-1.395-3.115-3.115-3.115z"/><path d="m199.277 253.294c-1.72 0-3.115 1.395-3.115 3.115s1.395 3.115 3.115 3.115c1.721 0 3.115-1.395 3.115-3.115.001-1.721-1.394-3.115-3.115-3.115z"/><path d="m209.697 262.957c-1.721 0-3.115 1.395-3.115 3.115s1.395 3.115 3.115 3.115 3.115-1.395 3.115-3.115-1.394-3.115-3.115-3.115z"/><path d="m199.277 273.377c-1.72 0-3.115 1.395-3.115 3.115s1.395 3.115 3.115 3.115c1.721 0 3.115-1.395 3.115-3.115.001-1.72-1.394-3.115-3.115-3.115z"/><path d="m209.697 283.041c-1.721 0-3.115 1.395-3.115 3.115s1.395 3.115 3.115 3.115 3.115-1.395 3.115-3.115-1.394-3.115-3.115-3.115z"/><ellipse cx="179.194" cy="236.325" rx="3.115" ry="3.115" transform="matrix(.987 -.16 .16 .987 -35.401 31.608)"/><path d="m189.614 242.874c-1.721 0-3.115 1.395-3.115 3.115s1.395 3.115 3.115 3.115 3.115-1.395 3.115-3.115c0-1.721-1.395-3.115-3.115-3.115z"/><path d="m179.194 253.294c-1.72 0-3.115 1.395-3.115 3.115s1.395 3.115 3.115 3.115 3.115-1.395 3.115-3.115c0-1.721-1.395-3.115-3.115-3.115z"/><path d="m189.614 262.957c-1.721 0-3.115 1.395-3.115 3.115s1.395 3.115 3.115 3.115 3.115-1.395 3.115-3.115-1.395-3.115-3.115-3.115z"/><circle cx="159.11" cy="216.241" r="3.115"/><path d="m169.53 222.79c-1.72 0-3.115 1.395-3.115 3.115 0 1.721 1.395 3.115 3.115 3.115 1.721 0 3.115-1.395 3.115-3.115s-1.395-3.115-3.115-3.115z"/><circle cx="159.11" cy="236.325" r="3.115"/><path d="m169.53 242.874c-1.72 0-3.115 1.395-3.115 3.115s1.395 3.115 3.115 3.115c1.721 0 3.115-1.395 3.115-3.115 0-1.721-1.395-3.115-3.115-3.115z"/><path d="m139.026 193.043c-1.721 0-3.115 1.395-3.115 3.115s1.395 3.115 3.115 3.115 3.115-1.395 3.115-3.115c.001-1.721-1.394-3.115-3.115-3.115z"/><path d="m149.446 202.706c-1.721 0-3.115 1.395-3.115 3.115 0 1.721 1.395 3.115 3.115 3.115s3.115-1.395 3.115-3.115c.001-1.72-1.394-3.115-3.115-3.115z"/><path d="m139.026 213.126c-1.721 0-3.115 1.395-3.115 3.115 0 1.721 1.395 3.115 3.115 3.115s3.115-1.394 3.115-3.115c.001-1.72-1.394-3.115-3.115-3.115z"/><path d="m149.446 222.79c-1.721 0-3.115 1.395-3.115 3.115 0 1.721 1.395 3.115 3.115 3.115s3.115-1.395 3.115-3.115c.001-1.72-1.394-3.115-3.115-3.115z"/><path d="m129.363 182.623c-1.721 0-3.115 1.395-3.115 3.115s1.395 3.115 3.115 3.115 3.115-1.395 3.115-3.115-1.395-3.115-3.115-3.115z"/><path d="m118.943 193.043c-1.72 0-3.115 1.395-3.115 3.115s1.395 3.115 3.115 3.115c1.721 0 3.115-1.395 3.115-3.115 0-1.721-1.395-3.115-3.115-3.115z"/><path d="m129.363 202.706c-1.721 0-3.115 1.395-3.115 3.115 0 1.721 1.395 3.115 3.115 3.115s3.115-1.395 3.115-3.115-1.395-3.115-3.115-3.115z"/><path d="m483.555 376.986-3.031 3.031c1.658-.04 2.99-1.372 3.031-3.031z"/><path d="m480.448 393.879c-1.721 0-3.115 1.395-3.115 3.115s1.395 3.115 3.115 3.115c1.721 0 3.115-1.395 3.115-3.115s-1.395-3.115-3.115-3.115z"/><path d="m480.448 413.962c-1.721 0-3.115 1.395-3.115 3.115 0 1.721 1.395 3.115 3.115 3.115 1.721 0 3.115-1.395 3.115-3.115s-1.395-3.115-3.115-3.115z"/><path d="m473.892 386.65-3.031 3.031c1.658-.04 2.99-1.372 3.031-3.031z"/><path d="m463.472 397.07-3.031 3.031c1.658-.04 2.99-1.373 3.031-3.031z"/><circle cx="470.784" cy="406.657" r="3.115"/><path d="m460.364 413.962c-1.721 0-3.115 1.395-3.115 3.115 0 1.721 1.395 3.115 3.115 3.115s3.115-1.395 3.115-3.115-1.395-3.115-3.115-3.115z"/><circle cx="470.784" cy="426.741" r="3.115"/><path d="m460.364 434.046c-1.721 0-3.115 1.395-3.115 3.115 0 1.721 1.395 3.115 3.115 3.115s3.115-1.395 3.115-3.115-1.395-3.115-3.115-3.115z"/><path d="m453.808 406.734-3.031 3.031c1.658-.041 2.99-1.373 3.031-3.031z"/><path d="m443.388 417.154-1.74 1.74c-.447.447-.907.872-1.366 1.298 1.694 0 3.064-1.354 3.106-3.038z"/><path d="m450.7 423.626c-1.721 0-3.116 1.395-3.116 3.115 0 1.721 1.395 3.115 3.116 3.115 1.72 0 3.115-1.395 3.115-3.115.001-1.72-1.394-3.115-3.115-3.115z"/><path d="m440.281 434.046c-1.721 0-3.115 1.395-3.115 3.115 0 1.721 1.395 3.115 3.115 3.115s3.115-1.395 3.115-3.115-1.395-3.115-3.115-3.115z"/><path d="m450.7 443.71c-1.721 0-3.116 1.395-3.116 3.115s1.395 3.115 3.116 3.115c1.72 0 3.115-1.395 3.115-3.115.001-1.721-1.394-3.115-3.115-3.115z"/><path d="m440.281 454.13c-1.721 0-3.115 1.395-3.115 3.115s1.395 3.115 3.115 3.115 3.115-1.395 3.115-3.115c0-1.721-1.395-3.115-3.115-3.115z"/><path d="m428.1 428.564c.566.78 1.479 1.292 2.516 1.292 1.72 0 3.115-1.395 3.115-3.115 0-.434-.09-.847-.25-1.222-1.741 1.136-3.541 2.146-5.381 3.045z"/><path d="m420.197 434.046c-1.721 0-3.115 1.395-3.115 3.115 0 1.721 1.395 3.115 3.115 3.115s3.115-1.395 3.115-3.115-1.395-3.115-3.115-3.115z"/><path d="m430.617 443.71c-1.72 0-3.115 1.395-3.115 3.115s1.395 3.115 3.115 3.115 3.115-1.395 3.115-3.115c0-1.721-1.395-3.115-3.115-3.115z"/><path d="m420.197 454.13c-1.721 0-3.115 1.395-3.115 3.115s1.395 3.115 3.115 3.115 3.115-1.395 3.115-3.115c0-1.721-1.395-3.115-3.115-3.115z"/><path d="m430.617 463.793c-1.72 0-3.115 1.395-3.115 3.115s1.395 3.115 3.115 3.115 3.115-1.395 3.115-3.115-1.395-3.115-3.115-3.115z"/><path d="m420.197 474.213c-1.721 0-3.115 1.395-3.115 3.115s1.395 3.115 3.115 3.115 3.115-1.395 3.115-3.115-1.395-3.115-3.115-3.115z"/><path d="m400.113 434.046c-1.72 0-3.115 1.395-3.115 3.115 0 1.721 1.395 3.115 3.115 3.115 1.721 0 3.115-1.395 3.115-3.115.001-1.72-1.394-3.115-3.115-3.115z"/><path d="m410.533 443.71c-1.72 0-3.115 1.395-3.115 3.115s1.395 3.115 3.115 3.115 3.115-1.395 3.115-3.115c0-1.721-1.394-3.115-3.115-3.115z"/><path d="m400.113 454.13c-1.72 0-3.115 1.395-3.115 3.115s1.395 3.115 3.115 3.115c1.721 0 3.115-1.395 3.115-3.115.001-1.721-1.394-3.115-3.115-3.115z"/><path d="m410.533 463.793c-1.72 0-3.115 1.395-3.115 3.115s1.395 3.115 3.115 3.115 3.115-1.395 3.115-3.115-1.394-3.115-3.115-3.115z"/><path d="m400.113 474.213c-1.72 0-3.115 1.395-3.115 3.115s1.395 3.115 3.115 3.115c1.721 0 3.115-1.395 3.115-3.115.001-1.72-1.394-3.115-3.115-3.115z"/><path d="m380.03 434.046c-1.72 0-3.115 1.395-3.115 3.115 0 1.721 1.395 3.115 3.115 3.115 1.721 0 3.115-1.395 3.115-3.115s-1.395-3.115-3.115-3.115z"/><path d="m390.449 443.71c-1.72 0-3.115 1.395-3.115 3.115s1.395 3.115 3.115 3.115c1.721 0 3.115-1.395 3.115-3.115.001-1.721-1.394-3.115-3.115-3.115z"/><path d="m380.03 454.13c-1.72 0-3.115 1.395-3.115 3.115s1.395 3.115 3.115 3.115c1.721 0 3.115-1.395 3.115-3.115 0-1.721-1.395-3.115-3.115-3.115z"/><path d="m390.449 463.793c-1.72 0-3.115 1.395-3.115 3.115s1.395 3.115 3.115 3.115c1.721 0 3.115-1.395 3.115-3.115.001-1.72-1.394-3.115-3.115-3.115z"/><path d="m370.366 423.626c-1.72 0-3.115 1.395-3.115 3.115 0 1.721 1.395 3.115 3.115 3.115s3.115-1.395 3.115-3.115-1.395-3.115-3.115-3.115z"/><path d="m370.366 443.71c-1.72 0-3.115 1.395-3.115 3.115s1.395 3.115 3.115 3.115 3.115-1.395 3.115-3.115c0-1.721-1.395-3.115-3.115-3.115z"/><path d="m486.805 358.348-254.122-254.122c-6.854-6.854-15.966-10.628-25.658-10.628s-18.804 3.775-25.658 10.628l-14.718 14.718-84.445-84.445c2.772-3.867 2.433-9.292-1.039-12.764l-18.838-18.839c-3.862-3.861-10.145-3.861-14.007 0l-36.141 36.14c-3.861 3.861-3.861 10.145 0 14.006l18.839 18.838c1.931 1.931 4.467 2.896 7.003 2.896 1.964 0 3.924-.586 5.607-1.744l84.465 84.466-14.718 14.719c-6.854 6.852-10.628 15.964-10.628 25.656s3.774 18.805 10.628 25.657l254.123 254.123c10.591 10.591 24.503 15.887 38.415 15.887s27.824-5.296 38.415-15.887l42.477-42.478c10.261-10.261 15.912-23.903 15.912-38.415-.001-14.508-5.652-28.151-15.912-38.412zm-447.437-292.123c-.742.742-1.95.742-2.692 0l-18.84-18.839c-.743-.743-.743-1.95 0-2.693l36.141-36.141c.371-.371.858-.557 1.346-.557s.975.186 1.346.557l18.839 18.839c.743.744.743 1.95 0 2.694zm10.039 1.274 27.242-27.242 84.344 84.343-27.242 27.242zm301.597 382.348c.345-.082.667-.219.956-.405v1.361zm.956-105.419v59.612c-.485-.311-1.059-.497-1.678-.497-1.721 0-3.115 1.395-3.115 3.115 0 1.721 1.395 3.115 3.115 3.115.619 0 1.193-.186 1.678-.497v14.848c-.485-.311-1.059-.497-1.678-.497-1.721 0-3.115 1.395-3.115 3.115 0 1.721 1.395 3.115 3.115 3.115.619 0 1.193-.186 1.678-.497v14.849c-.485-.312-1.059-.497-1.678-.497-1.471 0-2.696 1.022-3.023 2.393l-6.112-6.111c1.077-.49 1.83-1.57 1.83-2.831 0-1.72-1.395-3.115-3.115-3.115-1.261 0-2.341.752-2.831 1.83l-6.112-6.111c1.371-.327 2.394-1.552 2.394-3.023 0-1.72-1.395-3.115-3.115-3.115-1.471 0-2.696 1.023-3.023 2.393l-6.111-6.111c1.077-.49 1.829-1.57 1.829-2.831 0-1.72-1.395-3.115-3.115-3.115-1.26 0-2.34.752-2.831 1.83l-6.111-6.111c1.371-.327 2.394-1.552 2.394-3.023 0-1.72-1.395-3.115-3.115-3.115-1.471 0-2.696 1.023-3.023 2.393l-6.111-6.111c1.077-.49 1.829-1.57 1.829-2.831 0-1.721-1.395-3.115-3.115-3.115-1.261 0-2.34.752-2.831 1.83l-6.111-6.111c1.371-.327 2.394-1.552 2.394-3.023 0-1.721-1.395-3.115-3.115-3.115-1.471 0-2.696 1.022-3.023 2.393l-6.111-6.111c1.077-.49 1.829-1.57 1.829-2.831 0-1.721-1.395-3.115-3.115-3.115-1.261 0-2.34.752-2.831 1.83l-6.111-6.111c1.371-.327 2.394-1.552 2.394-3.023 0-1.721-1.395-3.115-3.115-3.115-1.471 0-2.696 1.022-3.023 2.393l-6.111-6.111c1.077-.491 1.829-1.57 1.829-2.831 0-1.721-1.395-3.115-3.115-3.115-1.261 0-2.34.752-2.831 1.829l-6.111-6.111c1.371-.327 2.393-1.552 2.393-3.023 0-1.721-1.395-3.115-3.115-3.115-1.471 0-2.696 1.022-3.023 2.393l-6.111-6.111c1.077-.49 1.83-1.57 1.83-2.83 0-1.72-1.395-3.115-3.115-3.115-1.261 0-2.34.753-2.831 1.83l-6.111-6.111c1.371-.327 2.394-1.552 2.394-3.023 0-1.72-1.395-3.115-3.115-3.115-1.471 0-2.696 1.023-3.023 2.394l-6.111-6.111c1.077-.49 1.829-1.57 1.829-2.831 0-1.72-1.395-3.115-3.115-3.115-1.261 0-2.34.753-2.831 1.83l-6.111-6.111c1.371-.327 2.394-1.552 2.394-3.023 0-1.72-1.395-3.115-3.115-3.115-1.471 0-2.696 1.023-3.023 2.394l-6.111-6.111c1.077-.49 1.829-1.57 1.829-2.831 0-1.721-1.395-3.115-3.115-3.115-1.261 0-2.34.752-2.831 1.829l-6.111-6.111c1.371-.327 2.394-1.552 2.394-3.023 0-1.721-1.395-3.115-3.115-3.115-1.471 0-2.696 1.022-3.023 2.394l-6.111-6.111c1.077-.49 1.829-1.57 1.829-2.831 0-1.721-1.395-3.115-3.115-3.115-1.261 0-2.34.753-2.831 1.829l-6.111-6.111c1.371-.327 2.394-1.552 2.394-3.023 0-1.721-1.395-3.115-3.115-3.115-1.471 0-2.696 1.022-3.023 2.393l-6.111-6.111c1.077-.491 1.829-1.57 1.829-2.831 0-1.721-1.395-3.115-3.115-3.115-1.261 0-2.34.752-2.831 1.829l-6.111-6.111c1.371-.327 2.393-1.552 2.393-3.022 0-1.721-1.395-3.115-3.115-3.115-1.471 0-2.696 1.023-3.023 2.394l-6.111-6.112c1.077-.49 1.83-1.57 1.83-2.831 0-1.72-1.395-3.115-3.115-3.115-1.261 0-2.34.752-2.831 1.829l-6.111-6.111c1.371-.327 2.394-1.552 2.394-3.023 0-1.72-1.395-3.115-3.115-3.115-1.471 0-2.696 1.023-3.023 2.394l-6.111-6.111c1.077-.49 1.829-1.57 1.829-2.831 0-1.72-1.395-3.115-3.115-3.115-1.144 0-2.134.624-2.675 1.543-1.77-2.389-3.131-5.023-4.062-7.813.115-.325.19-.67.19-1.035 0-.946-.431-1.784-1.097-2.355-.363-1.821-.55-3.692-.55-5.592 0-7.03 2.551-13.666 7.209-18.859.312.105.64.175.987.175 1.721 0 3.115-1.395 3.115-3.115 0-.365-.075-.71-.19-1.036l26.443-26.443 152.402 152.397c.781.782 1.805 1.172 2.829 1.172s2.047-.39 2.829-1.172c1.562-1.561 1.562-4.095 0-5.656l-152.41-152.409 33.056-33.056c5.342-5.342 12.445-8.284 20-8.284s14.658 2.942 20.001 8.284l230.546 230.546h-101.611c-2.209 0-4 1.791-4 4zm141.882 61.352c-.381-1.291-1.561-2.238-2.975-2.238-1.721 0-3.115 1.395-3.115 3.115 0 1.721 1.395 3.115 3.115 3.115.899 0 1.703-.387 2.272-.996-2.073 7.773-6.151 14.903-11.992 20.744l-42.477 42.478c-7.248 7.248-16.32 11.58-25.753 13.011-.571-.687-1.422-1.133-2.385-1.133-1.177 0-2.189.66-2.719 1.623-8.736.356-17.553-1.737-25.32-6.286.402-.525.651-1.173.651-1.886 0-1.721-1.395-3.115-3.115-3.115-1.129 0-2.109.607-2.655 1.506-1.461-1.144-2.875-2.376-4.22-3.721l-2.067-2.067c1.371-.327 2.393-1.552 2.393-3.023 0-1.721-1.395-3.115-3.115-3.115-1.471 0-2.696 1.023-3.023 2.394l-6.111-6.111c1.077-.491 1.829-1.57 1.829-2.831 0-1.716-1.387-3.105-3.101-3.114v-13.856c1.714-.008 3.101-1.398 3.101-3.114 0-1.715-1.387-3.105-3.101-3.114v-13.856c1.714-.008 3.101-1.398 3.101-3.114 0-1.715-1.387-3.106-3.101-3.114v-65.536h105.611l15.576 15.576c5.737 5.737 9.771 12.718 11.878 20.33-.56-.54-1.319-.875-2.158-.875-1.721 0-3.115 1.395-3.115 3.115s1.395 3.115 3.115 3.115c1.372 0 2.524-.893 2.939-2.124.6 2.996.91 6.072.91 9.197.001 3.064-.296 6.081-.873 9.02z"/><path d="m137.921 416.111c-.151 0-.295.023-.44.045.523 1.973.929 3.992 1.233 6.045 1.327-.353 2.309-1.55 2.309-2.987 0-1.714-1.389-3.103-3.102-3.103z"/><path d="m139.008 436.318c-.219 2.032-.554 4.028-.987 5.988 1.666-.054 3.002-1.413 3.002-3.092 0-1.33-.84-2.455-2.015-2.896z"/><path d="m148.297 445.735c-1.713 0-3.102 1.389-3.102 3.102s1.389 3.103 3.102 3.103 3.102-1.389 3.102-3.103-1.389-3.102-3.102-3.102z"/><path d="m137.921 456.111c-1.713 0-3.102 1.389-3.102 3.102s1.389 3.103 3.102 3.103 3.102-1.389 3.102-3.103c0-1.713-1.389-3.102-3.102-3.102z"/><path d="m148.297 465.735c-1.713 0-3.102 1.389-3.102 3.102s1.389 3.103 3.102 3.103 3.102-1.389 3.102-3.103-1.389-3.102-3.102-3.102z"/><path d="m137.921 476.111c-1.713 0-3.102 1.389-3.102 3.102s1.389 3.103 3.102 3.103 3.102-1.389 3.102-3.103c0-1.713-1.389-3.102-3.102-3.102z"/><path d="m128.297 465.735c-1.713 0-3.102 1.389-3.102 3.102s1.389 3.103 3.102 3.103 3.102-1.389 3.102-3.103-1.389-3.102-3.102-3.102z"/><path d="m117.921 476.111c-1.713 0-3.102 1.389-3.102 3.102s1.389 3.103 3.102 3.103 3.102-1.389 3.102-3.103c0-1.713-1.389-3.102-3.102-3.102z"/><path d="m128.297 485.735c-1.713 0-3.102 1.389-3.102 3.102s1.389 3.103 3.102 3.103 3.102-1.389 3.102-3.103-1.389-3.102-3.102-3.102z"/><path d="m117.921 496.111c-1.713 0-3.102 1.389-3.102 3.102s1.389 3.103 3.102 3.103 3.102-1.389 3.102-3.103c0-1.713-1.389-3.102-3.102-3.102z"/><path d="m108.297 485.735c-1.713 0-3.102 1.389-3.102 3.102s1.389 3.103 3.102 3.103 3.102-1.389 3.102-3.103-1.389-3.102-3.102-3.102z"/><path d="m97.921 496.111c-1.713 0-3.102 1.389-3.102 3.102s1.389 3.103 3.102 3.103 3.102-1.389 3.102-3.103c0-1.713-1.389-3.102-3.102-3.102z"/><path d="m88.297 485.735c-1.713 0-3.102 1.389-3.102 3.102s1.389 3.103 3.102 3.103 3.102-1.389 3.102-3.103-1.389-3.102-3.102-3.102z"/><path d="m106.547 393.554c-32.655 0-59.223 26.567-59.223 59.223 0 32.655 26.567 59.223 59.223 59.223s59.223-26.567 59.223-59.223c0-32.655-26.568-59.223-59.223-59.223zm0 110.446c-13.685 0-26.124-5.405-35.322-14.18.104-.311.174-.638.174-.983 0-1.713-1.389-3.102-3.102-3.102-.284 0-.553.05-.814.121-7.575-8.932-12.158-20.478-12.158-33.079 0-28.244 22.978-51.223 51.223-51.223 18.846 0 35.335 10.238 44.231 25.436-.566-.759-1.462-1.256-2.481-1.256-1.713 0-3.102 1.389-3.102 3.102s1.389 3.103 3.102 3.103 3.102-1.389 3.102-3.103c0-.414-.085-.807-.232-1.168 1.732 3.066 3.165 6.321 4.242 9.735-.368.51-.591 1.132-.591 1.809 0 1.249.743 2.319 1.806 2.811.744 3.47 1.145 7.065 1.145 10.753 0 1.131-.05 2.249-.122 3.361-1.583.141-2.829 1.455-2.829 3.075 0 1.353.872 2.492 2.08 2.917-4.41 23.792-25.303 41.871-50.352 41.871z"/><path d="m188.767 435.915h34.361c2.209 0 4-1.791 4-4s-1.791-4-4-4h-34.361c-2.209 0-4 1.791-4 4s1.791 4 4 4z"/><path d="m264.852 469.639h-76.085c-2.209 0-4 1.791-4 4s1.791 4 4 4h76.085c2.209 0 4-1.791 4-4s-1.791-4-4-4z"/></g></svg>