<svg id="Capa_1" enable-background="new 0 0 510.731 510.731" height="512" viewBox="0 0 510.731 510.731" width="512" xmlns="http://www.w3.org/2000/svg"><g><path d="m489.324 293.929c1.713 0 3.102-1.389 3.102-3.102s-1.389-3.102-3.102-3.102-3.102 1.389-3.102 3.102 1.389 3.102 3.102 3.102z"/><path d="m489.324 313.929c1.713 0 3.102-1.389 3.102-3.102s-1.389-3.102-3.102-3.102-3.102 1.389-3.102 3.102 1.389 3.102 3.102 3.102z"/><path d="m469.324 273.929c1.713 0 3.102-1.389 3.102-3.102s-1.389-3.102-3.102-3.102-3.102 1.389-3.102 3.102 1.389 3.102 3.102 3.102z"/><path d="m479.701 283.552c1.713 0 3.102-1.389 3.102-3.102s-1.389-3.102-3.102-3.102-3.102 1.389-3.102 3.102c0 1.714 1.389 3.102 3.102 3.102z"/><path d="m469.324 293.929c1.713 0 3.102-1.389 3.102-3.102s-1.389-3.102-3.102-3.102-3.102 1.389-3.102 3.102 1.389 3.102 3.102 3.102z"/><path d="m479.701 303.552c1.713 0 3.102-1.389 3.102-3.102s-1.389-3.102-3.102-3.102-3.102 1.389-3.102 3.102c0 1.714 1.389 3.102 3.102 3.102z"/><path d="m469.324 313.929c1.713 0 3.102-1.389 3.102-3.102s-1.389-3.102-3.102-3.102-3.102 1.389-3.102 3.102 1.389 3.102 3.102 3.102z"/><path d="m479.701 323.552c1.713 0 3.102-1.389 3.102-3.102s-1.389-3.102-3.102-3.102-3.102 1.389-3.102 3.102c0 1.714 1.389 3.102 3.102 3.102z"/><path d="m469.324 333.929c1.713 0 3.102-1.389 3.102-3.102s-1.389-3.102-3.102-3.102-3.102 1.389-3.102 3.102 1.389 3.102 3.102 3.102z"/><path d="m479.701 343.552c1.713 0 3.102-1.389 3.102-3.102s-1.389-3.102-3.102-3.102-3.102 1.389-3.102 3.102c0 1.714 1.389 3.102 3.102 3.102z"/><path d="m469.324 353.929c1.713 0 3.102-1.389 3.102-3.102s-1.389-3.102-3.102-3.102-3.102 1.389-3.102 3.102 1.389 3.102 3.102 3.102z"/><path d="m469.324 373.929c1.713 0 3.102-1.389 3.102-3.102s-1.389-3.102-3.102-3.102-3.102 1.389-3.102 3.102 1.389 3.102 3.102 3.102z"/><path d="m462.803 260.45c0-1.45-1-2.659-2.345-2.998-.441 2.02-.904 4.032-1.392 6.035.205.042.417.066.635.066 1.713-.001 3.102-1.389 3.102-3.103z"/><path d="m459.701 283.552c1.713 0 3.102-1.389 3.102-3.102s-1.389-3.102-3.102-3.102-3.102 1.389-3.102 3.102c0 1.714 1.389 3.102 3.102 3.102z"/><path d="m452.427 290.827c0-.834-.333-1.586-.867-2.144-.617 1.746-1.252 3.484-1.905 5.212 1.555-.166 2.772-1.468 2.772-3.068z"/><path d="m459.701 303.552c1.713 0 3.102-1.389 3.102-3.102s-1.389-3.102-3.102-3.102-3.102 1.389-3.102 3.102c0 1.714 1.389 3.102 3.102 3.102z"/><path d="m449.324 313.929c1.713 0 3.102-1.389 3.102-3.102s-1.389-3.102-3.102-3.102-3.102 1.389-3.102 3.102 1.389 3.102 3.102 3.102z"/><path d="m459.701 323.552c1.713 0 3.102-1.389 3.102-3.102s-1.389-3.102-3.102-3.102-3.102 1.389-3.102 3.102c0 1.714 1.389 3.102 3.102 3.102z"/><path d="m449.324 333.929c1.713 0 3.102-1.389 3.102-3.102s-1.389-3.102-3.102-3.102-3.102 1.389-3.102 3.102 1.389 3.102 3.102 3.102z"/><path d="m459.701 343.552c1.713 0 3.102-1.389 3.102-3.102s-1.389-3.102-3.102-3.102-3.102 1.389-3.102 3.102c0 1.714 1.389 3.102 3.102 3.102z"/><path d="m449.324 353.929c1.713 0 3.102-1.389 3.102-3.102s-1.389-3.102-3.102-3.102-3.102 1.389-3.102 3.102 1.389 3.102 3.102 3.102z"/><path d="m459.701 363.552c1.713 0 3.102-1.389 3.102-3.102s-1.389-3.102-3.102-3.102-3.102 1.389-3.102 3.102c0 1.714 1.389 3.102 3.102 3.102z"/><path d="m449.324 373.929c1.713 0 3.102-1.389 3.102-3.102s-1.389-3.102-3.102-3.102-3.102 1.389-3.102 3.102 1.389 3.102 3.102 3.102z"/><path d="m459.701 383.552c1.713 0 3.102-1.389 3.102-3.102s-1.389-3.102-3.102-3.102-3.102 1.389-3.102 3.102c0 1.714 1.389 3.102 3.102 3.102z"/><path d="m449.324 393.929c1.713 0 3.102-1.389 3.102-3.102s-1.389-3.102-3.102-3.102-3.102 1.389-3.102 3.102 1.389 3.102 3.102 3.102z"/><path d="m439.701 317.348c-.09 0-.175.019-.264.027-.777 1.57-1.571 3.131-2.378 4.683.545.893 1.519 1.495 2.641 1.495 1.713 0 3.102-1.389 3.102-3.102.001-1.714-1.388-3.103-3.101-3.103z"/><path d="m430.695 333.597c1.022-.507 1.732-1.551 1.732-2.77 0-.071-.016-.138-.021-.209-.566.996-1.133 1.991-1.711 2.979z"/><path d="m439.701 337.348c-1.713 0-3.102 1.389-3.102 3.102 0 1.714 1.389 3.102 3.102 3.102s3.102-1.389 3.102-3.102-1.389-3.102-3.102-3.102z"/><path d="m429.324 347.724c-1.713 0-3.102 1.389-3.102 3.102s1.389 3.102 3.102 3.102 3.102-1.389 3.102-3.102c.001-1.713-1.388-3.102-3.102-3.102z"/><path d="m439.701 357.348c-1.713 0-3.102 1.389-3.102 3.102 0 1.714 1.389 3.102 3.102 3.102s3.102-1.389 3.102-3.102-1.389-3.102-3.102-3.102z"/><path d="m429.324 367.724c-1.713 0-3.102 1.389-3.102 3.102s1.389 3.102 3.102 3.102 3.102-1.389 3.102-3.102c.001-1.713-1.388-3.102-3.102-3.102z"/><path d="m439.701 377.348c-1.713 0-3.102 1.389-3.102 3.102 0 1.714 1.389 3.102 3.102 3.102s3.102-1.389 3.102-3.102-1.389-3.102-3.102-3.102z"/><path d="m429.324 387.724c-1.713 0-3.102 1.389-3.102 3.102s1.389 3.102 3.102 3.102 3.102-1.389 3.102-3.102c.001-1.713-1.388-3.102-3.102-3.102z"/><path d="m439.701 397.348c-1.713 0-3.102 1.389-3.102 3.102 0 1.714 1.389 3.102 3.102 3.102s3.102-1.389 3.102-3.102-1.389-3.102-3.102-3.102z"/><path d="m429.324 407.724c-1.713 0-3.102 1.389-3.102 3.102s1.389 3.102 3.102 3.102 3.102-1.389 3.102-3.102c.001-1.713-1.388-3.102-3.102-3.102z"/><path d="m419.701 357.348c-1.713 0-3.102 1.389-3.102 3.102 0 1.714 1.389 3.102 3.102 3.102s3.102-1.389 3.102-3.102-1.389-3.102-3.102-3.102z"/><path d="m409.324 367.724c-1.713 0-3.102 1.389-3.102 3.102s1.389 3.102 3.102 3.102 3.102-1.389 3.102-3.102c.001-1.713-1.388-3.102-3.102-3.102z"/><path d="m419.701 377.348c-1.713 0-3.102 1.389-3.102 3.102 0 1.714 1.389 3.102 3.102 3.102s3.102-1.389 3.102-3.102-1.389-3.102-3.102-3.102z"/><path d="m409.324 387.724c-1.713 0-3.102 1.389-3.102 3.102s1.389 3.102 3.102 3.102 3.102-1.389 3.102-3.102c.001-1.713-1.388-3.102-3.102-3.102z"/><path d="m419.701 397.348c-1.713 0-3.102 1.389-3.102 3.102 0 1.714 1.389 3.102 3.102 3.102s3.102-1.389 3.102-3.102-1.389-3.102-3.102-3.102z"/><path d="m409.324 407.724c-1.713 0-3.102 1.389-3.102 3.102s1.389 3.102 3.102 3.102 3.102-1.389 3.102-3.102c.001-1.713-1.388-3.102-3.102-3.102z"/><path d="m399.701 377.348c-.552 0-1.063.156-1.512.409-.446.489-.887.982-1.337 1.468-.162.376-.253.789-.253 1.225 0 1.714 1.389 3.102 3.102 3.102s3.102-1.389 3.102-3.102-1.389-3.102-3.102-3.102z"/><path d="m389.324 387.724c-.279 0-.545.049-.802.118-.711.702-1.434 1.39-2.152 2.084-.088.287-.148.585-.148.9 0 1.713 1.389 3.102 3.102 3.102s3.102-1.389 3.102-3.102c.001-1.713-1.388-3.102-3.102-3.102z"/><path d="m399.701 397.348c-1.713 0-3.102 1.389-3.102 3.102 0 1.714 1.389 3.102 3.102 3.102s3.102-1.389 3.102-3.102-1.389-3.102-3.102-3.102z"/><path d="m389.324 407.724c-1.713 0-3.102 1.389-3.102 3.102s1.389 3.102 3.102 3.102 3.102-1.389 3.102-3.102c.001-1.713-1.388-3.102-3.102-3.102z"/><path d="m379.701 397.348c-1.713 0-3.102 1.389-3.102 3.102 0 1.714 1.389 3.102 3.102 3.102s3.102-1.389 3.102-3.102-1.389-3.102-3.102-3.102z"/><path d="m369.324 407.724c-1.713 0-3.102 1.389-3.102 3.102s1.389 3.102 3.102 3.102 3.102-1.389 3.102-3.102c.001-1.713-1.388-3.102-3.102-3.102z"/><path d="m332.427 430.827c0-.238-.033-.468-.083-.691-1.733.972-3.478 1.924-5.234 2.858.563.576 1.346.935 2.216.935 1.712 0 3.101-1.389 3.101-3.102z"/><path d="m339.701 443.552c1.713 0 3.102-1.389 3.102-3.102s-1.389-3.102-3.102-3.102-3.102 1.389-3.102 3.102c0 1.714 1.389 3.102 3.102 3.102z"/><path d="m329.324 453.929c1.713 0 3.102-1.389 3.102-3.102s-1.389-3.102-3.102-3.102-3.102 1.389-3.102 3.102 1.389 3.102 3.102 3.102z"/><path d="m329.324 473.929c1.713 0 3.102-1.389 3.102-3.102s-1.389-3.102-3.102-3.102-3.102 1.389-3.102 3.102 1.389 3.102 3.102 3.102z"/><path d="m316.599 440.45c0 1.714 1.389 3.102 3.102 3.102s3.102-1.389 3.102-3.102-1.389-3.102-3.102-3.102-3.102 1.389-3.102 3.102z"/><path d="m309.324 447.724c-1.713 0-3.102 1.389-3.102 3.102s1.389 3.102 3.102 3.102 3.102-1.389 3.102-3.102c.001-1.713-1.388-3.102-3.102-3.102z"/><path d="m319.701 457.348c-1.713 0-3.102 1.389-3.102 3.102 0 1.714 1.389 3.102 3.102 3.102s3.102-1.389 3.102-3.102-1.389-3.102-3.102-3.102z"/><path d="m309.324 467.724c-1.713 0-3.102 1.389-3.102 3.102s1.389 3.102 3.102 3.102 3.102-1.389 3.102-3.102c.001-1.713-1.388-3.102-3.102-3.102z"/><path d="m319.701 477.348c-1.713 0-3.102 1.389-3.102 3.102 0 1.714 1.389 3.102 3.102 3.102s3.102-1.389 3.102-3.102-1.389-3.102-3.102-3.102z"/><path d="m309.324 487.724c-1.713 0-3.102 1.389-3.102 3.102s1.389 3.102 3.102 3.102 3.102-1.389 3.102-3.102c.001-1.713-1.388-3.102-3.102-3.102z"/><path d="m286.261 450.439c-.016.128-.039.255-.039.388 0 1.713 1.389 3.102 3.102 3.102s3.102-1.389 3.102-3.102c0-.853-.345-1.625-.902-2.186-1.746.616-3.5 1.217-5.263 1.798z"/><path d="m299.701 457.348c-1.713 0-3.102 1.389-3.102 3.102 0 1.714 1.389 3.102 3.102 3.102s3.102-1.389 3.102-3.102-1.389-3.102-3.102-3.102z"/><path d="m289.324 467.724c-1.713 0-3.102 1.389-3.102 3.102s1.389 3.102 3.102 3.102 3.102-1.389 3.102-3.102c.001-1.713-1.388-3.102-3.102-3.102z"/><path d="m299.701 477.348c-1.713 0-3.102 1.389-3.102 3.102 0 1.714 1.389 3.102 3.102 3.102s3.102-1.389 3.102-3.102-1.389-3.102-3.102-3.102z"/><path d="m289.324 487.724c-1.713 0-3.102 1.389-3.102 3.102s1.389 3.102 3.102 3.102 3.102-1.389 3.102-3.102c.001-1.713-1.388-3.102-3.102-3.102z"/><path d="m279.701 457.348c-1.713 0-3.102 1.389-3.102 3.102 0 1.714 1.389 3.102 3.102 3.102s3.102-1.389 3.102-3.102-1.389-3.102-3.102-3.102z"/><path d="m269.324 467.724c-1.713 0-3.102 1.389-3.102 3.102s1.389 3.102 3.102 3.102 3.102-1.389 3.102-3.102c.001-1.713-1.388-3.102-3.102-3.102z"/><path d="m279.701 477.348c-1.713 0-3.102 1.389-3.102 3.102 0 1.714 1.389 3.102 3.102 3.102s3.102-1.389 3.102-3.102-1.389-3.102-3.102-3.102z"/><path d="m269.324 487.724c-1.713 0-3.102 1.389-3.102 3.102s1.389 3.102 3.102 3.102 3.102-1.389 3.102-3.102c.001-1.713-1.388-3.102-3.102-3.102z"/><path d="m260.493 457.463c-.916.2-1.83.409-2.75.6-.693.569-1.144 1.421-1.144 2.387 0 1.714 1.389 3.102 3.102 3.102s3.102-1.389 3.102-3.102c0-1.438-.983-2.636-2.31-2.987z"/><path d="m249.324 467.724c-1.713 0-3.102 1.389-3.102 3.102s1.389 3.102 3.102 3.102 3.102-1.389 3.102-3.102c.001-1.713-1.388-3.102-3.102-3.102z"/><path d="m259.701 477.348c-1.713 0-3.102 1.389-3.102 3.102 0 1.714 1.389 3.102 3.102 3.102s3.102-1.389 3.102-3.102-1.389-3.102-3.102-3.102z"/><path d="m249.324 487.724c-1.713 0-3.102 1.389-3.102 3.102s1.389 3.102 3.102 3.102 3.102-1.389 3.102-3.102c.001-1.713-1.388-3.102-3.102-3.102z"/><path d="m239.701 463.552c1.627 0 2.946-1.256 3.077-2.85-1.986.293-3.979.564-5.98.812.436 1.187 1.565 2.038 2.903 2.038z"/><path d="m229.324 467.724c-1.713 0-3.102 1.389-3.102 3.102s1.389 3.102 3.102 3.102 3.102-1.389 3.102-3.102c.001-1.713-1.388-3.102-3.102-3.102z"/><path d="m239.701 477.348c-1.713 0-3.102 1.389-3.102 3.102 0 1.714 1.389 3.102 3.102 3.102s3.102-1.389 3.102-3.102-1.389-3.102-3.102-3.102z"/><path d="m229.324 487.724c-1.713 0-3.102 1.389-3.102 3.102s1.389 3.102 3.102 3.102 3.102-1.389 3.102-3.102c.001-1.713-1.388-3.102-3.102-3.102z"/><path d="m221.502 462.968c-1.094.071-2.191.131-3.289.189.444.245.946.396 1.488.396.673-.001 1.292-.221 1.801-.585z"/><path d="m209.324 467.724c-1.713 0-3.102 1.389-3.102 3.102s1.389 3.102 3.102 3.102 3.102-1.389 3.102-3.102c.001-1.713-1.388-3.102-3.102-3.102z"/><path d="m219.701 477.348c-1.713 0-3.102 1.389-3.102 3.102 0 1.714 1.389 3.102 3.102 3.102s3.102-1.389 3.102-3.102-1.389-3.102-3.102-3.102z"/><path d="m209.324 487.724c-1.713 0-3.102 1.389-3.102 3.102s1.389 3.102 3.102 3.102 3.102-1.389 3.102-3.102c.001-1.713-1.388-3.102-3.102-3.102z"/><path d="m200.15 463.507c-.36-.005-.72-.012-1.081-.019.204.042.415.065.631.065.155-.001.302-.024.45-.046z"/><path d="m189.324 467.724c-1.713 0-3.102 1.389-3.102 3.102s1.389 3.102 3.102 3.102 3.102-1.389 3.102-3.102c.001-1.713-1.388-3.102-3.102-3.102z"/><path d="m199.701 477.348c-1.713 0-3.102 1.389-3.102 3.102 0 1.714 1.389 3.102 3.102 3.102s3.102-1.389 3.102-3.102-1.389-3.102-3.102-3.102z"/><path d="m179.701 463.552c.872 0 1.658-.363 2.222-.942-1.607-.135-3.21-.288-4.808-.451.554.839 1.504 1.393 2.586 1.393z"/><path d="m510.662 249.631c-.174-7.598-.668-15.189-1.508-22.741-6.333-57.441-31.761-110.644-73.217-152.1-35.394-35.394-79.353-59.101-127.199-69.223-35.063-7.422-71.685-7.422-106.748 0-47.846 10.122-91.805 33.829-127.199 69.223-42.697 42.696-68.395 97.853-73.736 157.267-1.04 11.462-1.314 22.983-.806 34.486 2.687 62.774 27.963 121.476 71.931 166.717 4.297 4.451 8.786 8.715 13.391 12.838 46.811 41.779 106.542 64.633 169.794 64.633 63.239 0 122.959-22.846 169.766-64.609 4.596-4.115 9.08-8.369 13.369-12.812 46.051-47.358 71.608-109.478 72.204-175.581.055-2.699.018-5.402-.042-8.098zm-251.347-147.697 98.708-71.715c41.903 19.183 77.558 49.726 103.004 87.669l-36.909 96.374-63.89 20.759-100.914-73.318v-59.769zm-106.611-71.716 98.708 71.715v59.768l-100.914 73.319-67.21-21.838-35.428-92.504c25.555-39.236 61.919-70.81 104.844-90.46zm-87.138 383.752c-31.226-37.305-51.678-83.912-56.536-135.002l71.998-58.211 66.69 21.669 38.675 119.029-38.825 53.437zm286.657 3.774-3.126 10.003c-1.605.119-2.874 1.444-2.874 3.079 0 .974.458 1.833 1.161 2.402l-7.543 24.133c-.047-.002-.092-.014-.139-.014-1.713 0-3.102 1.389-3.102 3.102 0 1.107.585 2.072 1.457 2.621l-7.758 24.824c-.308-.102-.631-.171-.973-.171-1.713 0-3.102 1.389-3.102 3.102 0 .558.159 1.075.417 1.527-8.043 2.424-16.254 4.456-24.616 6.058-.569-.647-1.393-1.064-2.322-1.064-1.324 0-2.446.833-2.891 2-4.673.792-9.39 1.451-14.147 1.975.082-.279.14-.568.14-.874 0-1.713-1.389-3.102-3.102-3.102s-3.102 1.389-3.102 3.102c0 .52.14 1.002.366 1.433-5.02.436-10.082.723-15.182.854.623-.567 1.021-1.377 1.021-2.286 0-1.713-1.389-3.102-3.102-3.102s-3.102 1.389-3.102 3.102c0 .949.435 1.787 1.106 2.356-.78.007-1.559.022-2.341.022-4.47 0-8.911-.127-13.323-.363.469-.543.762-1.242.762-2.016 0-1.713-1.389-3.102-3.102-3.102s-3.102 1.389-3.102 3.102c0 .631.191 1.216.514 1.705-4.817-.353-9.596-.843-14.333-1.469.006-.079.024-.155.024-.236 0-1.713-1.389-3.102-3.102-3.102-1.49 0-2.731 1.05-3.031 2.45-9.243-1.458-18.317-3.43-27.194-5.885 1.641-.081 2.951-1.425 2.951-3.087 0-1.713-1.389-3.102-3.102-3.102s-3.102 1.389-3.102 3.102c0 1.054.529 1.982 1.332 2.543-2.036-.581-4.065-1.178-6.079-1.809l-2.536-8.113c.245.062.497.105.761.105 1.713 0 3.102-1.389 3.102-3.102s-1.389-3.102-3.102-3.102c-.934 0-1.762.422-2.331 1.075l-18.964-60.678c-.279-.893-.862-1.623-1.606-2.113l35.858-49.355h125.411l35.827 49.312c-.781.492-1.39 1.239-1.677 2.158zm10.935-2.853-38.824-53.436 38.675-119.029 63.41-20.603 59.865 48.402c-.038.195-.061.396-.061.602 0 1.713 1.389 3.102 3.102 3.102.436 0 .85-.092 1.226-.254l6.473 5.234c-.263.456-.425.977-.425 1.541 0 1.714 1.389 3.102 3.102 3.102.572 0 1.1-.165 1.56-.435-.539 4.802-1.217 9.562-2.027 14.278-1.49.227-2.635 1.502-2.635 3.055 0 1.155.639 2.152 1.576 2.685-1.715 8.735-3.889 17.306-6.499 25.688-.569-.667-1.405-1.098-2.35-1.098-1.713 0-3.102 1.389-3.102 3.102s1.389 3.102 3.102 3.102c.252 0 .494-.038.728-.095-2.713 8.092-5.826 16.003-9.329 23.7-.322-.113-.662-.186-1.023-.186-1.713 0-3.102 1.389-3.102 3.102 0 1.125.605 2.101 1.501 2.645-7.741 15.941-17.141 30.931-27.98 44.745-.255-.068-.519-.116-.796-.116-1.713 0-3.102 1.389-3.102 3.102 0 .514.137.991.358 1.417-.472.575-.94 1.154-1.418 1.725z"/></g></svg>