<svg id="Capa_1" enable-background="new 0 0 511.743 511.743" height="512" viewBox="0 0 511.743 511.743" width="512" xmlns="http://www.w3.org/2000/svg"><g><path d="m234.219 394.274c1.713 0 3.102-1.39 3.102-3.103 0-1.714-1.389-3.103-3.102-3.103s-3.102 1.389-3.102 3.103c-.001 1.714 1.388 3.103 3.102 3.103z"/><path d="m203.842 384.65c1.713 0 3.102-1.389 3.102-3.103 0-1.713-1.389-3.102-3.102-3.102s-3.102 1.389-3.102 3.102c0 1.715 1.389 3.103 3.102 3.103z"/><path d="m183.842 384.65c1.713 0 3.102-1.389 3.102-3.103 0-1.713-1.389-3.102-3.102-3.102s-3.102 1.389-3.102 3.102c0 1.715 1.389 3.103 3.102 3.103z"/><path d="m94.218 388.069c-1.713 0-3.102 1.389-3.102 3.103 0 1.713 1.389 3.103 3.102 3.103s3.102-1.39 3.102-3.103c.001-1.714-1.388-3.103-3.102-3.103z"/><path d="m283.842 124.65c1.713 0 3.102-1.389 3.102-3.103 0-1.713-1.389-3.102-3.102-3.102s-3.102 1.389-3.102 3.102c0 1.715 1.389 3.103 3.102 3.103z"/><path d="m263.842 124.65c1.713 0 3.102-1.389 3.102-3.103 0-1.713-1.389-3.102-3.102-3.102s-3.102 1.389-3.102 3.102c0 1.715 1.389 3.103 3.102 3.103z"/><path d="m254.219 114.274c1.713 0 3.102-1.39 3.102-3.103 0-1.714-1.389-3.103-3.102-3.103s-3.102 1.389-3.102 3.103c-.001 1.714 1.388 3.103 3.102 3.103z"/><path d="m243.842 124.65c1.713 0 3.102-1.389 3.102-3.103 0-1.713-1.389-3.102-3.102-3.102s-3.102 1.389-3.102 3.102c0 1.715 1.389 3.103 3.102 3.103z"/><path d="m254.219 134.274c1.713 0 3.102-1.39 3.102-3.102 0-1.714-1.389-3.103-3.102-3.103s-3.102 1.389-3.102 3.103c-.001 1.713 1.388 3.102 3.102 3.102z"/><path d="m243.842 144.65c1.713 0 3.102-1.389 3.102-3.103 0-1.713-1.389-3.102-3.102-3.102s-3.102 1.389-3.102 3.102c0 1.715 1.389 3.103 3.102 3.103z"/><path d="m223.842 124.65c1.713 0 3.102-1.389 3.102-3.103 0-.829-.33-1.577-.86-2.134l-5.3 2.58c.219 1.501 1.497 2.657 3.058 2.657z"/><path d="m234.219 134.274c1.713 0 3.102-1.39 3.102-3.102 0-1.714-1.389-3.103-3.102-3.103s-3.102 1.389-3.102 3.103c-.001 1.713 1.388 3.102 3.102 3.102z"/><path d="m223.842 144.65c1.713 0 3.102-1.389 3.102-3.103 0-1.713-1.389-3.102-3.102-3.102s-3.102 1.389-3.102 3.102c0 1.715 1.389 3.103 3.102 3.103z"/><path d="m214.219 134.274c1.713 0 3.102-1.39 3.102-3.102 0-1.714-1.389-3.103-3.102-3.103s-3.102 1.389-3.102 3.103c-.001 1.713 1.388 3.102 3.102 3.102z"/><path d="m203.842 144.65c1.713 0 3.102-1.389 3.102-3.103 0-1.713-1.389-3.102-3.102-3.102s-3.102 1.389-3.102 3.102c0 1.715 1.389 3.103 3.102 3.103z"/><path d="m214.219 154.274c1.713 0 3.102-1.39 3.102-3.102 0-1.714-1.389-3.103-3.102-3.103s-3.102 1.389-3.102 3.103c-.001 1.713 1.388 3.102 3.102 3.102z"/><path d="m203.842 164.65c1.713 0 3.102-1.389 3.102-3.103 0-1.713-1.389-3.102-3.102-3.102s-3.102 1.389-3.102 3.102c0 1.715 1.389 3.103 3.102 3.103z"/><path d="m183.842 144.65c1.713 0 3.102-1.389 3.102-3.103 0-1.014-.493-1.905-1.245-2.471l-4.953 2.411c-.001.021-.006.039-.006.06 0 1.715 1.389 3.103 3.102 3.103z"/><path d="m194.219 154.274c1.713 0 3.102-1.39 3.102-3.102 0-1.714-1.389-3.103-3.102-3.103s-3.102 1.389-3.102 3.103c-.001 1.713 1.388 3.102 3.102 3.102z"/><path d="m183.842 164.65c1.713 0 3.102-1.389 3.102-3.103 0-1.713-1.389-3.102-3.102-3.102s-3.102 1.389-3.102 3.102c0 1.715 1.389 3.103 3.102 3.103z"/><path d="m174.219 154.274c1.713 0 3.102-1.39 3.102-3.102 0-1.714-1.389-3.103-3.102-3.103s-3.102 1.389-3.102 3.103c-.001 1.713 1.388 3.102 3.102 3.102z"/><path d="m163.842 164.65c1.713 0 3.102-1.389 3.102-3.103 0-1.713-1.389-3.102-3.102-3.102s-3.102 1.389-3.102 3.102c0 1.715 1.389 3.103 3.102 3.103z"/><path d="m174.219 174.274c1.713 0 3.102-1.39 3.102-3.102 0-1.714-1.389-3.103-3.102-3.103s-3.102 1.389-3.102 3.103c-.001 1.713 1.388 3.102 3.102 3.102z"/><path d="m154.556 154.24c.742-.082 1.406-.413 1.897-.924z"/><path d="m154.219 174.274c1.713 0 3.102-1.39 3.102-3.102 0-1.714-1.389-3.103-3.102-3.103s-3.102 1.389-3.102 3.103c-.001 1.713 1.388 3.102 3.102 3.102z"/><path d="m366.944 321.548c0-1.467-1.022-2.688-2.39-3.012-.375 2.048-.864 4.055-1.479 6.008.246.062.5.106.766.106 1.714 0 3.103-1.388 3.103-3.102z"/><path d="m363.842 338.446c-1.713 0-3.102 1.389-3.102 3.102 0 1.714 1.389 3.103 3.102 3.103s3.102-1.389 3.102-3.103c0-1.713-1.389-3.102-3.102-3.102z"/><path d="m354.219 348.069c-1.713 0-3.102 1.389-3.102 3.103 0 1.713 1.389 3.103 3.102 3.103s3.102-1.39 3.102-3.103c0-1.714-1.389-3.103-3.102-3.103z"/><path d="m343.842 358.446c-1.713 0-3.102 1.389-3.102 3.102 0 1.714 1.389 3.103 3.102 3.103s3.102-1.389 3.102-3.103c0-1.713-1.389-3.102-3.102-3.102z"/><path d="m325.166 358.753c-1.145.234-2.308.415-3.479.569-.583.564-.947 1.352-.947 2.226 0 1.714 1.389 3.103 3.102 3.103s3.102-1.389 3.102-3.103c0-1.238-.73-2.297-1.778-2.795z"/><path d="m331.116 371.172c0 1.713 1.389 3.103 3.102 3.103s3.102-1.39 3.102-3.103c0-1.714-1.389-3.103-3.102-3.103s-3.102 1.389-3.102 3.103z"/><path d="m305.332 358.843c-.563-.109-1.114-.25-1.669-.379-1.628.095-2.923 1.433-2.923 3.084 0 1.714 1.389 3.103 3.102 3.103s3.102-1.389 3.102-3.103c0-1.17-.655-2.177-1.612-2.705z"/><path d="m314.219 368.069c-1.713 0-3.102 1.389-3.102 3.103 0 1.713 1.389 3.103 3.102 3.103s3.102-1.39 3.102-3.103c0-1.714-1.389-3.103-3.102-3.103z"/><path d="m478.64 323.603c-20.745-13.125-48.242-20.353-77.426-20.353-10.41 0-20.59.933-30.329 2.711-9.21-16.981-27.198-28.539-47.836-28.539-22.474 0-41.807 13.705-50.082 33.195-21.624-3.418-44.533-5.198-68.075-5.198-21.738 0-42.933 1.55-63.038 4.463v-105.079l151.905-73.96c4.229-2.059 6.857-6.262 6.857-10.964 0-4.704-2.628-8.906-6.857-10.965 0-.001 0-.001 0-.001l-152.781-74.387c-2.542-8.409-10.355-14.552-19.581-14.552-11.281 0-20.458 9.178-20.458 20.459v277.679c-14.259 3.786-27.579 8.371-39.649 13.721-39.524 17.519-61.29 41.227-61.29 66.761s21.766 49.242 61.29 66.761c38.428 17.032 89.428 26.414 143.603 26.414 73.788 0 141.69-17.798 177.918-46.54 6.062.653 12.244.984 18.403.984 29.184 0 56.68-7.228 77.426-20.353 21.347-13.506 33.103-31.664 33.103-51.129s-11.756-37.624-33.103-51.128zm-335.935-139.174c.353.14.734.222 1.137.222 1.713 0 3.102-1.389 3.102-3.103 0-1.713-1.389-3.102-3.102-3.102-.402 0-.784.082-1.137.222v-14.239c.353.14.734.222 1.137.222 1.713 0 3.102-1.389 3.102-3.103 0-1.214-.705-2.255-1.721-2.764l-2.518 1.226v-115.225l118.329 57.612-.141.068c.393 1.263 1.557 2.185 2.949 2.185.45 0 .875-.101 1.261-.272l8.015 3.902c-1.168.445-2.001 1.567-2.001 2.892 0 1.713 1.389 3.103 3.102 3.103s3.102-1.39 3.102-3.103c0-.323-.063-.628-.155-.921l12.889 6.275c1.944.947 2.096 2.805 2.096 3.353 0 .547-.152 2.404-2.096 3.351l-13.156 6.405c-.535-.931-1.529-1.565-2.68-1.565-1.713 0-3.102 1.389-3.102 3.103 0 .413.084.806.231 1.166l-34.718 16.903c-.569-.709-1.432-1.172-2.411-1.172-1.713 0-3.102 1.389-3.102 3.103 0 .245.036.481.089.71l-34.912 16.998c-.551-.498-1.274-.811-2.075-.811-1.713 0-3.102 1.389-3.102 3.103 0 .075.017.145.022.219l-24.924 12.135c.449-.538.73-1.222.73-1.978 0-1.713-1.389-3.102-3.102-3.102s-3.102 1.389-3.102 3.102c0 1.714 1.389 3.103 3.102 3.103.027 0 .051-.007.078-.008l-8.043 3.916c-.481-.307-1.047-.489-1.659-.489-1.607 0-2.913 1.227-3.071 2.792l-8.442 4.11v-10.544zm180.345 100.993c25.573 0 46.378 20.805 46.378 46.378s-20.805 46.379-46.378 46.379c-9.575 0-18.482-2.918-25.878-7.909-.389-1.271-1.556-2.2-2.953-2.2-.007 0-.014.002-.021.002-2.73-2.177-5.209-4.652-7.388-7.38-.217-.751-.702-1.382-1.354-1.781-5.518-7.631-8.783-16.994-8.783-27.11-.001-25.574 20.804-46.379 46.377-46.379zm-181.194 98.491c.539.453 1.226.737 1.986.737 1.713 0 3.102-1.389 3.102-3.103 0-1.713-1.389-3.102-3.102-3.102-.76 0-1.447.284-1.986.737v-9.444c3.264-.276 6.621-.482 10.053-.62-.487.548-.793 1.262-.793 2.053 0 1.713 1.389 3.103 3.102 3.103s3.102-1.39 3.102-3.103c0-.855-.346-1.63-.906-2.191 1.484-.029 2.977-.049 4.489-.049 3.732 0 7.377.096 10.941.265-.448.538-.728 1.221-.728 1.976 0 1.713 1.389 3.103 3.102 3.103s3.102-1.39 3.102-3.103c0-.624-.188-1.203-.505-1.69 4.987.348 9.769.856 14.32 1.495-.004.065-.02.128-.02.194 0 1.713 1.389 3.103 3.102 3.103 1.449 0 2.655-.998 2.997-2.34 9.906 1.73 18.486 4.1 25.283 6.829-1.037.502-1.759 1.555-1.759 2.784 0 1.714 1.389 3.103 3.102 3.103s3.102-1.389 3.102-3.103c0-.315-.061-.614-.149-.9 8.178 3.932 12.847 8.407 12.847 12.695 0 2.422-1.596 4.688-3.464 6.512-5.001-3.196-11.418-5.982-18.897-8.288.017-.131.04-.26.04-.395 0-1.714-1.389-3.103-3.102-3.103-1.261 0-2.342.756-2.827 1.837-13.17-3.383-29.001-5.397-45.969-5.702.907-.541 1.521-1.522 1.521-2.656 0-1.713-1.389-3.102-3.102-3.102s-3.102 1.389-3.102 3.102c0 1.105.583 2.069 1.453 2.619-.43-.003-.857-.008-1.289-.008-6.532 0-12.895.276-19.048.766v-1.011zm-32.45-343.479c0-6.612 5.379-11.992 11.991-11.992s11.992 5.38 11.992 11.992v355.242c0 6.612-5.38 11.992-11.992 11.992s-11.991-5.38-11.991-11.992zm291.809 397.311c-6.431 0-12.886-.379-19.187-1.127-1.149-.136-2.292.201-3.182.932-34.414 28.221-101.068 45.751-173.952 45.751-53.02 0-102.801-9.122-140.172-25.687-36.276-16.08-56.255-37.04-56.255-59.021 0-21.98 19.978-42.94 56.255-59.02 11.061-4.902 23.22-9.144 36.217-12.698v42.198c-16.235 5.547-27.239 13.703-27.239 24.27 0 4.829 2.35 9.354 6.993 13.484 0 0 1.465 1.242 2.115 1.735 14.358 10.893 44.283 17.659 78.096 17.659 33.814 0 63.74-6.767 78.097-17.659.004-.003.008-.007.011-.01 6.036-4.582 9.097-9.699 9.097-15.21 0-21.354-44.931-32.879-87.206-32.879-6.347 0-12.744.281-19.048.797v-42.834c20.049-2.966 41.256-4.54 63.038-4.54 22.607 0 44.59 1.678 65.367 4.886-1.031 4.176-1.588 8.537-1.588 13.027 0 29.984 24.394 54.379 54.378 54.379s54.378-24.395 54.378-54.379c0-6.258-1.076-12.267-3.03-17.866 8.629-1.454 17.621-2.217 26.817-2.217 56.277 0 102.061 28.268 102.061 63.015s-45.784 63.014-102.061 63.014zm-300.276-55.134v10.134c-5.7 1.97-10.681 4.241-14.765 6.776-.456-.525-1.079-.896-1.792-1.021-1.277-1.543-2.215-3.305-2.215-5.158 0-5.234 6.967-10.744 18.772-15.206v2.348c-.122.333-.199.688-.199 1.063s.077.731.199 1.064z"/><path d="m322.979 315.96c6.69 0 12.133-5.442 12.133-12.133 0-2.209-1.791-4-4-4s-4 1.791-4 4c0 2.279-1.854 4.133-4.133 4.133s-4.133-1.853-4.133-4.133c0-2.209-1.791-4-4-4s-4 1.791-4 4c.001 6.691 5.443 12.133 12.133 12.133z"/><path d="m349.914 336.932c6.69 0 12.133-5.442 12.133-12.133 0-2.209-1.791-4-4-4s-4 1.791-4 4c0 2.279-1.854 4.133-4.133 4.133s-4.133-1.854-4.133-4.133c0-2.209-1.791-4-4-4s-4 1.791-4 4c0 6.69 5.443 12.133 12.133 12.133z"/><path d="m331.287 340.912c-2.209 0-4 1.791-4 4 0 2.279-1.854 4.133-4.133 4.133s-4.133-1.853-4.133-4.133c0-2.209-1.791-4-4-4s-4 1.791-4 4c0 6.69 5.442 12.133 12.133 12.133 6.69 0 12.133-5.442 12.133-12.133 0-2.209-1.791-4-4-4z"/><path d="m297.794 336.844c6.69 0 12.133-5.442 12.133-12.133 0-2.209-1.791-4-4-4s-4 1.791-4 4c0 2.279-1.853 4.133-4.133 4.133-2.279 0-4.133-1.853-4.133-4.133 0-2.209-1.791-4-4-4s-4 1.791-4 4c0 6.69 5.442 12.133 12.133 12.133z"/><path d="m347.38 262.41c1.083 0 2.168-.413 2.993-1.24l19.817-19.818c1.654-1.652 1.654-4.334 0-5.986-1.654-1.653-4.335-1.653-5.986 0l-19.817 19.818c-1.654 1.652-1.654 4.334 0 5.986.826.827 1.91 1.24 2.993 1.24z"/><path d="m366.003 282.787c.826.826 1.91 1.24 2.993 1.24s2.168-.414 2.993-1.24l38.09-38.091c1.654-1.652 1.654-4.334 0-5.986-1.652-1.653-4.335-1.653-5.987 0l-38.09 38.09c-1.653 1.653-1.653 4.334.001 5.987z"/></g></svg>