<svg id="Capa_1" enable-background="new 0 0 511.656 511.656" height="512" viewBox="0 0 511.656 511.656" width="512" xmlns="http://www.w3.org/2000/svg"><g><path d="m479.225 422.582c1.812 0 3.281-1.469 3.281-3.281s-1.469-3.281-3.281-3.281-3.281 1.469-3.281 3.281 1.469 3.281 3.281 3.281z"/><path d="m479.225 443.734c1.812 0 3.281-1.469 3.281-3.281s-1.469-3.281-3.281-3.281-3.281 1.469-3.281 3.281 1.469 3.281 3.281 3.281z"/><path d="m469.047 432.76c1.812 0 3.281-1.469 3.281-3.281s-1.469-3.281-3.281-3.281-3.281 1.469-3.281 3.281 1.47 3.281 3.281 3.281z"/><path d="m458.073 443.734c1.812 0 3.281-1.469 3.281-3.281s-1.469-3.281-3.281-3.281-3.281 1.469-3.281 3.281c.001 1.812 1.47 3.281 3.281 3.281z"/><path d="m469.047 453.912c1.812 0 3.281-1.469 3.281-3.281s-1.469-3.281-3.281-3.281-3.281 1.469-3.281 3.281c.001 1.812 1.47 3.281 3.281 3.281z"/><path d="m458.073 464.886c1.812 0 3.281-1.469 3.281-3.281s-1.469-3.281-3.281-3.281-3.281 1.469-3.281 3.281c.001 1.812 1.47 3.281 3.281 3.281z"/><path d="m436.922 443.734c1.812 0 3.281-1.469 3.281-3.281 0-.579-.163-1.114-.426-1.586-1.98.376-3.994.654-6.04.828-.058.244-.097.496-.097.758.001 1.812 1.469 3.281 3.282 3.281z"/><path d="m447.896 453.912c1.812 0 3.281-1.469 3.281-3.281s-1.469-3.281-3.281-3.281-3.281 1.469-3.281 3.281 1.469 3.281 3.281 3.281z"/><path d="m436.922 464.886c1.812 0 3.281-1.469 3.281-3.281s-1.469-3.281-3.281-3.281-3.281 1.469-3.281 3.281 1.468 3.281 3.281 3.281z"/><path d="m447.896 475.063c1.812 0 3.281-1.469 3.281-3.281s-1.469-3.281-3.281-3.281-3.281 1.469-3.281 3.281c0 1.813 1.469 3.281 3.281 3.281z"/><circle cx="436.922" cy="482.757" r="3.281"/><path d="m415.77 443.734c1.812 0 3.281-1.469 3.281-3.281 0-.124-.023-.24-.036-.36-2.135.036-4.308.072-6.5.109-.007.085-.025.166-.025.251-.001 1.812 1.468 3.281 3.28 3.281z"/><path d="m426.744 453.912c1.812 0 3.281-1.469 3.281-3.281s-1.469-3.281-3.281-3.281-3.281 1.469-3.281 3.281 1.469 3.281 3.281 3.281z"/><path d="m415.77 464.886c1.812 0 3.281-1.469 3.281-3.281s-1.469-3.281-3.281-3.281-3.281 1.469-3.281 3.281 1.469 3.281 3.281 3.281z"/><path d="m426.744 475.063c1.812 0 3.281-1.469 3.281-3.281s-1.469-3.281-3.281-3.281-3.281 1.469-3.281 3.281c0 1.813 1.469 3.281 3.281 3.281z"/><path d="m415.77 486.038c1.812 0 3.281-1.469 3.281-3.281s-1.469-3.281-3.281-3.281-3.281 1.469-3.281 3.281 1.469 3.281 3.281 3.281z"/><path d="m394.618 443.734c1.812 0 3.281-1.469 3.281-3.281 0-.004-.001-.008-.001-.012-2.168.035-4.35.07-6.551.104.05 1.769 1.491 3.189 3.271 3.189z"/><path d="m405.592 453.912c1.812 0 3.281-1.469 3.281-3.281s-1.469-3.281-3.281-3.281-3.281 1.469-3.281 3.281 1.469 3.281 3.281 3.281z"/><path d="m394.618 464.886c1.812 0 3.281-1.469 3.281-3.281s-1.469-3.281-3.281-3.281-3.281 1.469-3.281 3.281 1.469 3.281 3.281 3.281z"/><path d="m405.592 475.063c1.812 0 3.281-1.469 3.281-3.281s-1.469-3.281-3.281-3.281-3.281 1.469-3.281 3.281c0 1.813 1.469 3.281 3.281 3.281z"/><circle cx="394.618" cy="482.757" r="3.281"/><path d="m373.466 443.734c1.702 0 3.085-1.301 3.249-2.96-2.154.033-4.317.065-6.487.098.207 1.612 1.57 2.862 3.238 2.862z"/><path d="m384.44 453.912c1.812 0 3.281-1.469 3.281-3.281s-1.469-3.281-3.281-3.281-3.281 1.469-3.281 3.281 1.469 3.281 3.281 3.281z"/><path d="m373.466 464.886c1.812 0 3.281-1.469 3.281-3.281s-1.469-3.281-3.281-3.281-3.281 1.469-3.281 3.281 1.469 3.281 3.281 3.281z"/><path d="m384.44 475.063c1.812 0 3.281-1.469 3.281-3.281s-1.469-3.281-3.281-3.281-3.281 1.469-3.281 3.281c0 1.813 1.469 3.281 3.281 3.281z"/><path d="m373.466 486.038c1.812 0 3.281-1.469 3.281-3.281s-1.469-3.281-3.281-3.281-3.281 1.469-3.281 3.281 1.469 3.281 3.281 3.281z"/><path d="m352.314 443.734c1.595 0 2.921-1.138 3.217-2.646-2.137.03-4.273.06-6.411.09.331 1.463 1.633 2.556 3.194 2.556z"/><path d="m363.288 453.912c1.812 0 3.281-1.469 3.281-3.281s-1.469-3.281-3.281-3.281-3.281 1.469-3.281 3.281c.001 1.812 1.47 3.281 3.281 3.281z"/><path d="m352.314 464.886c1.812 0 3.281-1.469 3.281-3.281s-1.469-3.281-3.281-3.281-3.281 1.469-3.281 3.281c.001 1.812 1.469 3.281 3.281 3.281z"/><path d="m363.288 475.063c1.812 0 3.281-1.469 3.281-3.281s-1.469-3.281-3.281-3.281-3.281 1.469-3.281 3.281c.001 1.813 1.47 3.281 3.281 3.281z"/><path d="m352.314 486.038c1.812 0 3.281-1.469 3.281-3.281s-1.469-3.281-3.281-3.281-3.281 1.469-3.281 3.281 1.469 3.281 3.281 3.281z"/><path d="m331.163 443.734c1.488 0 2.729-.996 3.132-2.354-2.085.027-4.165.054-6.238.081.426 1.316 1.648 2.273 3.106 2.273z"/><path d="m342.137 453.912c1.812 0 3.281-1.469 3.281-3.281s-1.469-3.281-3.281-3.281-3.281 1.469-3.281 3.281 1.469 3.281 3.281 3.281z"/><path d="m331.163 464.886c1.812 0 3.281-1.469 3.281-3.281s-1.469-3.281-3.281-3.281-3.281 1.469-3.281 3.281 1.469 3.281 3.281 3.281z"/><path d="m342.137 475.063c1.812 0 3.281-1.469 3.281-3.281s-1.469-3.281-3.281-3.281-3.281 1.469-3.281 3.281c0 1.813 1.469 3.281 3.281 3.281z"/><path d="m331.163 486.038c1.812 0 3.281-1.469 3.281-3.281s-1.469-3.281-3.281-3.281-3.281 1.469-3.281 3.281 1.469 3.281 3.281 3.281z"/><path d="m310.011 443.734c1.391 0 2.573-.869 3.05-2.09-2.039.023-4.065.047-6.079.069.494 1.186 1.663 2.021 3.029 2.021z"/><path d="m320.985 453.912c1.812 0 3.281-1.469 3.281-3.281s-1.469-3.281-3.281-3.281-3.281 1.469-3.281 3.281 1.469 3.281 3.281 3.281z"/><path d="m310.011 464.886c1.812 0 3.281-1.469 3.281-3.281s-1.469-3.281-3.281-3.281-3.281 1.469-3.281 3.281 1.469 3.281 3.281 3.281z"/><path d="m320.985 475.063c1.812 0 3.281-1.469 3.281-3.281s-1.469-3.281-3.281-3.281-3.281 1.469-3.281 3.281c0 1.813 1.469 3.281 3.281 3.281z"/><path d="m310.011 486.038c1.812 0 3.281-1.469 3.281-3.281s-1.469-3.281-3.281-3.281-3.281 1.469-3.281 3.281 1.469 3.281 3.281 3.281z"/><path d="m288.859 443.734c1.303 0 2.418-.765 2.948-1.864-1.977.019-3.931.037-5.866.054.54 1.069 1.637 1.81 2.918 1.81z"/><path d="m299.833 453.912c1.812 0 3.281-1.469 3.281-3.281s-1.469-3.281-3.281-3.281-3.281 1.469-3.281 3.281 1.469 3.281 3.281 3.281z"/><path d="m288.859 464.886c1.812 0 3.281-1.469 3.281-3.281s-1.469-3.281-3.281-3.281-3.281 1.469-3.281 3.281 1.469 3.281 3.281 3.281z"/><path d="m299.833 475.063c1.812 0 3.281-1.469 3.281-3.281s-1.469-3.281-3.281-3.281-3.281 1.469-3.281 3.281c0 1.813 1.469 3.281 3.281 3.281z"/><path d="m288.859 486.038c1.812 0 3.281-1.469 3.281-3.281s-1.469-3.281-3.281-3.281-3.281 1.469-3.281 3.281 1.469 3.281 3.281 3.281z"/><path d="m267.707 443.734c1.232 0 2.293-.687 2.854-1.692-1.934.012-3.825.023-5.69.033.566.987 1.617 1.659 2.836 1.659z"/><path d="m278.681 453.912c1.812 0 3.281-1.469 3.281-3.281s-1.469-3.281-3.281-3.281-3.281 1.469-3.281 3.281 1.469 3.281 3.281 3.281z"/><path d="m267.707 458.324c-1.812 0-3.281 1.469-3.281 3.281s1.469 3.281 3.281 3.281 3.281-1.469 3.281-3.281-1.469-3.281-3.281-3.281z"/><path d="m278.681 475.063c1.812 0 3.281-1.469 3.281-3.281s-1.469-3.281-3.281-3.281-3.281 1.469-3.281 3.281c0 1.813 1.469 3.281 3.281 3.281z"/><path d="m267.707 479.476c-1.812 0-3.281 1.469-3.281 3.281s1.469 3.281 3.281 3.281 3.281-1.469 3.281-3.281-1.469-3.281-3.281-3.281z"/><path d="m246.555 443.734c1.199 0 2.236-.65 2.809-1.609-.719 0-1.456.002-2.157.002-1.164 0-2.322-.025-3.481-.041.567.98 1.615 1.648 2.829 1.648z"/><path d="m257.529 447.35c-1.812 0-3.281 1.469-3.281 3.281s1.469 3.281 3.281 3.281 3.281-1.469 3.281-3.281-1.469-3.281-3.281-3.281z"/><path d="m246.555 458.324c-1.812 0-3.281 1.469-3.281 3.281s1.469 3.281 3.281 3.281 3.281-1.469 3.281-3.281-1.469-3.281-3.281-3.281z"/><path d="m257.529 468.502c-1.812 0-3.281 1.469-3.281 3.281s1.469 3.281 3.281 3.281 3.281-1.469 3.281-3.281-1.469-3.281-3.281-3.281z"/><circle cx="246.555" cy="482.757" r="3.281"/><path d="m225.404 443.734c1.478 0 2.713-.983 3.123-2.327-2.13-.162-4.251-.354-6.365-.571.191 1.63 1.561 2.898 3.242 2.898z"/><path d="m236.378 447.35c-1.812 0-3.281 1.469-3.281 3.281s1.469 3.281 3.281 3.281 3.281-1.469 3.281-3.281-1.469-3.281-3.281-3.281z"/><path d="m225.404 458.324c-1.812 0-3.281 1.469-3.281 3.281s1.469 3.281 3.281 3.281 3.281-1.469 3.281-3.281-1.469-3.281-3.281-3.281z"/><path d="m236.378 468.502c-1.812 0-3.281 1.469-3.281 3.281s1.469 3.281 3.281 3.281 3.281-1.469 3.281-3.281-1.469-3.281-3.281-3.281z"/><circle cx="225.404" cy="482.757" r="3.281"/><path d="m202.152 437.952c-.716.602-1.181 1.493-1.181 2.501 0 1.812 1.469 3.281 3.281 3.281s3.281-1.469 3.281-3.281c0-.594-.17-1.144-.447-1.625-1.651-.274-3.295-.569-4.934-.876z"/><path d="m215.226 447.35c-1.812 0-3.281 1.469-3.281 3.281s1.469 3.281 3.281 3.281 3.281-1.469 3.281-3.281-1.469-3.281-3.281-3.281z"/><path d="m204.252 458.324c-1.812 0-3.281 1.469-3.281 3.281s1.469 3.281 3.281 3.281 3.281-1.469 3.281-3.281-1.469-3.281-3.281-3.281z"/><path d="m215.226 468.502c-1.812 0-3.281 1.469-3.281 3.281s1.469 3.281 3.281 3.281 3.281-1.469 3.281-3.281-1.469-3.281-3.281-3.281z"/><circle cx="204.252" cy="482.757" r="3.281"/><path d="m183.1 437.172c-1.812 0-3.281 1.469-3.281 3.281s1.469 3.281 3.281 3.281 3.281-1.469 3.281-3.281-1.469-3.281-3.281-3.281z"/><path d="m194.074 447.35c-1.812 0-3.281 1.469-3.281 3.281s1.469 3.281 3.281 3.281 3.281-1.469 3.281-3.281-1.469-3.281-3.281-3.281z"/><path d="m183.1 458.324c-1.812 0-3.281 1.469-3.281 3.281s1.469 3.281 3.281 3.281 3.281-1.469 3.281-3.281-1.469-3.281-3.281-3.281z"/><path d="m194.074 468.502c-1.812 0-3.281 1.469-3.281 3.281s1.469 3.281 3.281 3.281 3.281-1.469 3.281-3.281-1.469-3.281-3.281-3.281z"/><path d="m172.922 432.76c1.098 0 2.065-.544 2.66-1.374-1.991-.613-3.973-1.246-5.941-1.909v.001c0 1.813 1.469 3.282 3.281 3.282z"/><path d="m161.948 437.172c-1.812 0-3.281 1.469-3.281 3.281s1.469 3.281 3.281 3.281 3.281-1.469 3.281-3.281-1.469-3.281-3.281-3.281z"/><path d="m172.922 447.35c-1.812 0-3.281 1.469-3.281 3.281s1.469 3.281 3.281 3.281 3.281-1.469 3.281-3.281-1.469-3.281-3.281-3.281z"/><path d="m161.948 458.324c-1.812 0-3.281 1.469-3.281 3.281s1.469 3.281 3.281 3.281 3.281-1.469 3.281-3.281-1.469-3.281-3.281-3.281z"/><path d="m172.922 468.502c-1.812 0-3.281 1.469-3.281 3.281s1.469 3.281 3.281 3.281 3.281-1.469 3.281-3.281-1.469-3.281-3.281-3.281z"/><path d="m138.842 416.68c-.801.598-1.327 1.545-1.327 2.622 0 1.812 1.469 3.281 3.281 3.281s3.281-1.469 3.281-3.281c0-.032-.009-.062-.009-.094-1.753-.824-3.496-1.665-5.226-2.528z"/><path d="m151.77 426.198c-1.812 0-3.281 1.469-3.281 3.281s1.469 3.281 3.281 3.281 3.281-1.469 3.281-3.281-1.469-3.281-3.281-3.281z"/><path d="m140.796 437.172c-1.812 0-3.281 1.469-3.281 3.281s1.469 3.281 3.281 3.281 3.281-1.469 3.281-3.281-1.469-3.281-3.281-3.281z"/><path d="m151.77 447.35c-1.812 0-3.281 1.469-3.281 3.281s1.469 3.281 3.281 3.281 3.281-1.469 3.281-3.281-1.469-3.281-3.281-3.281z"/><path d="m140.796 458.324c-1.812 0-3.281 1.469-3.281 3.281s1.469 3.281 3.281 3.281 3.281-1.469 3.281-3.281-1.469-3.281-3.281-3.281z"/><path d="m119.645 416.021c-1.812 0-3.281 1.469-3.281 3.281s1.469 3.281 3.281 3.281 3.281-1.469 3.281-3.281c-.001-1.813-1.469-3.281-3.281-3.281z"/><path d="m130.619 426.198c-1.812 0-3.281 1.469-3.281 3.281s1.469 3.281 3.281 3.281 3.281-1.469 3.281-3.281-1.469-3.281-3.281-3.281z"/><path d="m119.645 437.172c-1.812 0-3.281 1.469-3.281 3.281s1.469 3.281 3.281 3.281 3.281-1.469 3.281-3.281c-.001-1.812-1.469-3.281-3.281-3.281z"/><path d="m130.619 447.35c-1.812 0-3.281 1.469-3.281 3.281s1.469 3.281 3.281 3.281 3.281-1.469 3.281-3.281-1.469-3.281-3.281-3.281z"/><path d="m98.493 394.869c-1.812 0-3.281 1.469-3.281 3.281s1.469 3.281 3.281 3.281 3.281-1.469 3.281-3.281c0-1.813-1.469-3.281-3.281-3.281z"/><path d="m109.467 405.046c-1.812 0-3.281 1.469-3.281 3.281s1.469 3.281 3.281 3.281 3.281-1.469 3.281-3.281-1.469-3.281-3.281-3.281z"/><path d="m98.493 416.021c-1.812 0-3.281 1.469-3.281 3.281s1.469 3.281 3.281 3.281 3.281-1.469 3.281-3.281c0-1.813-1.469-3.281-3.281-3.281z"/><path d="m109.467 426.198c-1.812 0-3.281 1.469-3.281 3.281s1.469 3.281 3.281 3.281 3.281-1.469 3.281-3.281-1.469-3.281-3.281-3.281z"/><path d="m78.438 373.919c-.345-.123-.71-.202-1.097-.202-1.812 0-3.281 1.469-3.281 3.281 0 1.811 1.469 3.281 3.281 3.281s3.281-1.469 3.281-3.281c0-.431-.088-.839-.239-1.215-.652-.617-1.299-1.24-1.945-1.864z"/><path d="m89.911 384.325c-.474-.266-1.013-.431-1.596-.431-1.812 0-3.281 1.469-3.281 3.281s1.469 3.281 3.281 3.281 3.281-1.469 3.281-3.281c0-.79-.29-1.504-.755-2.07-.309-.26-.622-.518-.93-.78z"/><path d="m77.341 394.869c-1.812 0-3.281 1.469-3.281 3.281s1.469 3.281 3.281 3.281 3.281-1.469 3.281-3.281c0-1.813-1.469-3.281-3.281-3.281z"/><path d="m88.315 405.046c-1.812 0-3.281 1.469-3.281 3.281s1.469 3.281 3.281 3.281 3.281-1.469 3.281-3.281-1.469-3.281-3.281-3.281z"/><path d="m56.189 352.565c-1.812 0-3.281 1.469-3.281 3.281s1.469 3.281 3.281 3.281 3.281-1.469 3.281-3.281-1.469-3.281-3.281-3.281z"/><path d="m67.629 362.79c-.154-.022-.307-.047-.466-.047-1.812 0-3.281 1.469-3.281 3.281s1.469 3.281 3.281 3.281 3.281-1.469 3.281-3.281c0-.073-.017-.142-.021-.214-.941-.998-1.87-2.007-2.794-3.02z"/><path d="m56.189 373.717c-1.812 0-3.281 1.469-3.281 3.281 0 1.811 1.469 3.281 3.281 3.281s3.281-1.469 3.281-3.281-1.469-3.281-3.281-3.281z"/><path d="m67.163 383.895c-1.812 0-3.281 1.469-3.281 3.281s1.469 3.281 3.281 3.281 3.281-1.469 3.281-3.281c0-1.813-1.469-3.281-3.281-3.281z"/><path d="m34.568 316.776c-.848-1.53-1.679-3.07-2.494-4.619-.198.422-.317.889-.317 1.386-.001 1.65 1.223 3.003 2.811 3.233z"/><path d="m35.037 331.413c-1.812 0-3.281 1.469-3.281 3.281s1.469 3.281 3.281 3.281 3.281-1.469 3.281-3.281-1.469-3.281-3.281-3.281z"/><path d="m46.012 341.591c-1.812 0-3.281 1.469-3.281 3.281s1.469 3.281 3.281 3.281 3.281-1.469 3.281-3.281c-.001-1.812-1.47-3.281-3.281-3.281z"/><path d="m35.037 352.565c-1.812 0-3.281 1.469-3.281 3.281s1.469 3.281 3.281 3.281 3.281-1.469 3.281-3.281-1.469-3.281-3.281-3.281z"/><path d="m46.012 362.743c-1.812 0-3.281 1.469-3.281 3.281s1.469 3.281 3.281 3.281 3.281-1.469 3.281-3.281c-.001-1.812-1.47-3.281-3.281-3.281z"/><path d="m13.885 267.958c-1.812 0-3.281 1.469-3.281 3.281s1.469 3.281 3.281 3.281c.783 0 1.492-.285 2.056-.743-.619-1.92-1.216-3.851-1.789-5.792-.089-.007-.175-.027-.267-.027z"/><path d="m24.86 305.849c1.374 0 2.547-.846 3.035-2.043-.688-1.439-1.36-2.887-2.021-4.342-.321-.105-.658-.176-1.015-.176-1.812 0-3.281 1.469-3.281 3.281.001 1.811 1.47 3.28 3.282 3.28z"/><path d="m24.86 320.439c-1.812 0-3.281 1.469-3.281 3.281s1.469 3.281 3.281 3.281 3.281-1.469 3.281-3.281-1.469-3.281-3.281-3.281z"/><path d="m503.092 235.457c-2.493-4.341-5.456-5.166-7.549-5.138-.075.003-.921.029-2.436.079-5.727-56.42-30.455-108.727-71.098-149.371-46.691-46.69-108.769-72.404-174.8-72.405-.004 0 .002 0-.002 0-65.869 0-127.91 25.76-174.678 72.529-46.772 46.771-72.53 108.807-72.529 174.68.001 66.031 25.715 128.109 72.406 174.8 46.691 46.69 108.77 72.404 174.801 72.404 44.374 0 123.771-1.206 182.564-2.218 34.256-.587 61.572-27.88 62.188-62.132.19-10.588.394-22.14.599-34.178 1.399.056 2.453.088 3.087.093h.047c1.769 0 4.299-.765 6.405-4.37 6.459-11.06 9.165-50.75 9.52-81.378.181-15.762.107-68.358-8.525-83.395zm-19.592 203.076c-.126 7.02-1.561 13.695-4.05 19.814-.076-.005-.148-.023-.225-.023-1.812 0-3.281 1.469-3.281 3.281 0 .875.348 1.665.906 2.254-1.361 2.5-2.914 4.877-4.633 7.12-.36-1.421-1.637-2.477-3.17-2.477-1.812 0-3.281 1.469-3.281 3.281 0 1.719 1.327 3.113 3.009 3.253-2.312 2.473-4.851 4.73-7.588 6.738-.42-1.329-1.647-2.298-3.115-2.298-1.812 0-3.281 1.469-3.281 3.281 0 .975.433 1.84 1.108 2.441-7.658 4.357-16.485 6.927-25.935 7.147-.279-1.53-1.612-2.691-3.221-2.691-1.651 0-3.003 1.223-3.233 2.81-4.776.081-9.676.163-14.66.246-.118-1.705-1.523-3.055-3.258-3.055-1.772 0-3.205 1.406-3.269 3.162-4.81.079-9.686.157-14.613.234.001-.039.012-.076.012-.116 0-1.812-1.469-3.281-3.281-3.281s-3.281 1.469-3.281 3.281c0 .075.017.145.022.218-4.859.076-9.751.15-14.656.223.02-.146.044-.29.044-.44 0-1.812-1.469-3.281-3.281-3.281s-3.281 1.469-3.281 3.281c0 .184.025.36.054.536-4.918.072-9.837.142-14.736.209.056-.24.093-.488.093-.745 0-1.812-1.469-3.281-3.281-3.281s-3.281 1.469-3.281 3.281c0 .289.049.564.119.832-5.005.067-9.972.131-14.889.193.107-.324.179-.665.179-1.025 0-1.812-1.469-3.281-3.281-3.281s-3.281 1.469-3.281 3.281c0 .388.079.754.203 1.1-5.097.061-10.127.119-15.049.172.165-.391.256-.821.256-1.271 0-1.812-1.469-3.281-3.281-3.281s-3.281 1.469-3.281 3.281c0 .476.106.926.289 1.334-5.227.053-10.316.1-15.243.14.226-.445.365-.94.365-1.474 0-1.812-1.469-3.281-3.281-3.281s-3.281 1.469-3.281 3.281c0 .551.149 1.063.389 1.519-5.386.039-10.542.07-15.418.09.271-.477.438-1.022.438-1.609 0-1.812-1.469-3.281-3.281-3.281s-3.281 1.469-3.281 3.281c0 .596.171 1.147.449 1.628-2.587.007-5.099.011-7.491.011-2.653 0-5.292-.06-7.924-.145.232-.45.376-.953.376-1.494 0-1.812-1.469-3.281-3.281-3.281s-3.281 1.469-3.281 3.281c0 .435.089.847.242 1.227-4.99-.287-9.938-.728-14.841-1.319-.05-1.768-1.491-3.189-3.272-3.189-1.48 0-2.717.987-3.125 2.333-9.673-1.432-19.157-3.449-28.419-6.008 1.533-.275 2.699-1.609 2.699-3.222 0-1.812-1.469-3.281-3.281-3.281s-3.281 1.469-3.281 3.281c0 .981.439 1.851 1.121 2.452-9.746-2.82-19.234-6.25-28.427-10.238 1.452-.337 2.538-1.633 2.538-3.188 0-1.812-1.469-3.281-3.281-3.281s-3.281 1.469-3.281 3.281c0 .59.169 1.137.441 1.615-12.93-5.863-25.24-12.858-36.823-20.837.397-.543.639-1.206.639-1.93 0-1.812-1.469-3.281-3.281-3.281-1.121 0-2.108.564-2.7 1.421-2.365-1.727-4.707-3.483-7.005-5.293 1.182-.496 2.012-1.664 2.012-3.025 0-1.812-1.469-3.281-3.281-3.281-1.607 0-2.938 1.157-3.221 2.682-3.046-2.519-6.025-5.115-8.942-7.779.552.423 1.235.684 1.985.684 1.812 0 3.281-1.469 3.281-3.281s-1.469-3.281-3.281-3.281-3.281 1.469-3.281 3.281c0 .834.321 1.587.834 2.167-3.252-2.987-6.418-6.066-9.5-9.227.309.096.632.163.973.163 1.812 0 3.281-1.469 3.281-3.281s-1.469-3.281-3.281-3.281-3.281 1.469-3.281 3.281c0 .306.055.596.134.877-2.691-2.831-5.311-5.729-7.862-8.689.267.07.542.119.831.119 1.812 0 3.281-1.469 3.281-3.281s-1.469-3.281-3.281-3.281-3.281 1.469-3.281 3.281c0 .104.021.201.03.302-2.089-2.503-4.125-5.051-6.112-7.638.992-.565 1.669-1.619 1.669-2.842 0-1.812-1.469-3.281-3.281-3.281-.884 0-1.684.354-2.274.922-1.704-2.347-3.374-4.72-4.994-7.13.229-.448.371-.948.371-1.485 0-1.812-1.469-3.281-3.281-3.281-.068 0-.132.016-.2.02-7.34-11.501-13.718-23.671-19.03-36.395.82-.596 1.359-1.556 1.359-2.648 0-1.812-1.469-3.281-3.281-3.281-.151 0-.295.024-.44.044-3.229-8.355-6.009-16.932-8.293-25.708.637-.598 1.04-1.442 1.04-2.385 0-1.507-1.022-2.763-2.407-3.148-1.206-5.141-2.236-10.348-3.103-15.609.586.545 1.365.886 2.229.886 1.812 0 3.281-1.469 3.281-3.281s-1.469-3.281-3.281-3.281c-1.234 0-2.295.689-2.856 1.695-1.684-11.419-2.569-23.095-2.569-34.975.004-63.611 24.882-123.523 70.056-168.697 45.173-45.173 105.084-70.051 168.698-70.051 82.215.001 154.843 41.784 197.798 105.224h-70.73c-34.418-32.775-79.471-50.8-127.069-50.8-.003 0 .001 0-.002 0-49.114 0-95.373 19.207-130.245 54.079-34.873 34.873-54.079 81.129-54.078 130.246 0 .621.142 1.206.382 1.738-14.164 8.767-23.623 24.441-23.623 42.288 0 27.407 22.297 49.704 49.703 49.704s49.703-22.297 49.703-49.704c0-27.406-22.297-49.703-49.703-49.703-6.337 0-12.395 1.205-17.973 3.377.59-45.999 18.843-89.234 51.573-121.963 33.275-33.276 77.406-51.601 124.264-51.601 45.96 0 89.435 17.617 122.42 49.606.79.765 1.846 1.194 2.945 1.194h75.29c.816 0 1.572-.242 2.219-.643 18.53 29.801 30.678 63.961 34.528 100.559-23.145.789-79.647 2.815-136.396 5.624-150.254 7.436-155.666 12.848-158.266 15.449-2.821 2.819-3.656 7.385-2.555 13.959 4.084 24.376 39.091 84.242 81.732 105.017 42.904 20.902 174.13 31.053 214.977 33.354-.208 12.135-.413 23.781-.604 34.448zm-394.154-179.92c22.741 0 41.243 18.501 41.243 41.242s-18.501 41.243-41.243 41.243c-22.741 0-41.243-18.502-41.243-41.243s18.501-41.242 41.243-41.242zm412.528 93.68c-1.982 29.337-5.36 41.126-7.152 43.832-22.912-.465-177.316-11.286-221.891-33-38.736-18.873-73.169-75.384-77.094-98.81-.681-4.067-.201-5.945.108-6.464 3.5-1.925 25.979-6.869 155.306-13.22 68.891-3.381 136.735-5.601 144.019-5.835.971 1.106 5 7.469 7.015 38.333 1.466 22.477 1.351 50.576-.311 75.164z"/><path d="m412.927 269.828c-1.652-1.652-4.332-1.652-5.982 0l-70.165 70.166c-1.653 1.651-1.653 4.331 0 5.982.826.827 1.908 1.24 2.991 1.24 1.082 0 2.166-.413 2.991-1.24l70.165-70.166c1.653-1.651 1.653-4.33 0-5.982z"/><path d="m463.82 269.828-70.165 70.166c-1.652 1.651-1.652 4.331 0 5.982.826.827 1.909 1.24 2.991 1.24s2.166-.413 2.991-1.24l70.165-70.166c1.652-1.651 1.652-4.331 0-5.982-1.653-1.652-4.332-1.652-5.982 0z"/></g></svg>