<svg id="Capa_1" enable-background="new 0 0 511.526 511.526" height="512" viewBox="0 0 511.526 511.526" width="512" xmlns="http://www.w3.org/2000/svg"><g><path d="m377.684 329.605c1.713 0 3.102-1.389 3.102-3.102s-1.389-3.103-3.102-3.103-3.102 1.389-3.102 3.103 1.388 3.102 3.102 3.102z"/><path d="m377.684 349.605c1.713 0 3.102-1.389 3.102-3.102s-1.389-3.103-3.102-3.103-3.102 1.389-3.102 3.103 1.388 3.102 3.102 3.102z"/><path d="m377.684 369.605c1.713 0 3.102-1.389 3.102-3.102s-1.389-3.103-3.102-3.103-3.102 1.389-3.102 3.103 1.388 3.102 3.102 3.102z"/><path d="m377.684 389.605c1.713 0 3.102-1.389 3.102-3.102s-1.389-3.103-3.102-3.103-3.102 1.389-3.102 3.103 1.388 3.102 3.102 3.102z"/><path d="m377.684 409.605c1.713 0 3.102-1.389 3.102-3.102s-1.389-3.103-3.102-3.103-3.102 1.389-3.102 3.103 1.388 3.102 3.102 3.102z"/><path d="m357.684 309.605c1.713 0 3.102-1.389 3.102-3.102s-1.389-3.103-3.102-3.103-3.102 1.389-3.102 3.103 1.388 3.102 3.102 3.102z"/><path d="m368.06 319.228c1.713 0 3.102-1.389 3.102-3.102s-1.389-3.103-3.102-3.103-3.102 1.389-3.102 3.103 1.389 3.102 3.102 3.102z"/><path d="m368.06 339.228c1.713 0 3.102-1.389 3.102-3.102s-1.389-3.103-3.102-3.103-3.102 1.389-3.102 3.103 1.389 3.102 3.102 3.102z"/><path d="m371.163 356.126c0-1.713-1.389-3.103-3.102-3.103-.65 0-1.252.201-1.75.543-1.372-8.524-3.734-16.721-6.967-24.468.863-.547 1.443-1.497 1.443-2.596 0-1.713-1.389-3.103-3.102-3.103-.233 0-.459.031-.677.08.033.199.061.4.093.6-17.565-36.737-55.094-62.177-98.457-62.177-60.136 0-109.061 48.925-109.061 109.061 0 60.137 48.924 109.061 109.061 109.061 9.098 0 17.936-1.126 26.39-3.235.304 1.394 1.542 2.438 3.027 2.438 1.713 0 3.102-1.389 3.102-3.102 0-.351-.071-.682-.178-.997 12.515-3.894 24.066-9.99 34.208-17.826.464 1.128 1.572 1.924 2.868 1.924 1.713 0 3.102-1.389 3.102-3.102 0-1.071-.543-2.016-1.369-2.574 1.893-1.633 3.727-3.332 5.504-5.09.569.692 1.421 1.142 2.386 1.142 1.713 0 3.102-1.389 3.102-3.102 0-1.015-.494-1.907-1.247-2.473 1.969-2.178 3.849-4.439 5.639-6.771.453 1.152 1.569 1.97 2.882 1.97 1.713 0 3.102-1.389 3.102-3.102 0-1.646-1.285-2.979-2.904-3.083 10.787-15.525 17.653-33.968 19.139-53.89.214.047.435.075.663.075 1.713 0 3.102-1.389 3.102-3.102s-1.389-3.103-3.102-3.103c-.131 0-.256.023-.383.039.013-.698.027-1.397.027-2.098 0-4.027-.226-8.003-.654-11.918.318.11.655.183 1.01.183 1.714.001 3.103-1.387 3.103-3.101zm-60.339 101.382c.209-.418.338-.882.338-1.381 0-1.713-1.389-3.103-3.102-3.103-.355 0-.69.072-1.008.182-.527.418-1.059.828-1.593 1.237-.315.485-.502 1.062-.502 1.683 0 1.655 1.3 2.995 2.932 3.085-2.903 1.626-5.893 3.113-8.963 4.453-.381-.167-.801-.264-1.244-.264-1.307 0-2.42.81-2.877 1.954-11.235 4.319-23.427 6.694-36.164 6.694-55.738 0-101.083-45.346-101.083-101.083s45.347-101.085 101.085-101.085c53.391 0 97.239 41.609 100.838 94.102-.479-.34-1.059-.548-1.686-.571-.258 2.04-.567 4.064-.914 6.075.258.069.524.118.803.118.774 0 1.472-.294 2.016-.762.014.706.027 1.412.027 2.121 0 4.301-.272 8.54-.796 12.701-.382-.168-.802-.265-1.247-.265-1.713 0-3.102 1.389-3.102 3.103s1.389 3.102 3.102 3.102c.109 0 .213-.021.319-.032-1.591 8.516-4.254 16.658-7.842 24.283-.553-.512-1.287-.832-2.101-.832-1.713 0-3.102 1.389-3.102 3.103 0 1.512 1.083 2.768 2.515 3.043-8.604 15.793-21.298 29.049-36.649 38.339z"/><path d="m368.06 393.024c-1.713 0-3.102 1.389-3.102 3.103 0 1.713 1.389 3.102 3.102 3.102s3.102-1.389 3.102-3.102c.001-1.714-1.388-3.103-3.102-3.103z"/><path d="m368.06 413.024c-1.713 0-3.102 1.389-3.102 3.103 0 1.713 1.389 3.102 3.102 3.102s3.102-1.389 3.102-3.102c.001-1.714-1.388-3.103-3.102-3.103z"/><path d="m357.684 423.4c-1.713 0-3.102 1.389-3.102 3.103s1.389 3.102 3.102 3.102 3.102-1.389 3.102-3.102-1.389-3.103-3.102-3.103z"/><path d="m368.06 433.024c-1.713 0-3.102 1.389-3.102 3.103 0 1.713 1.389 3.102 3.102 3.102s3.102-1.389 3.102-3.102c.001-1.714-1.388-3.103-3.102-3.103z"/><path d="m357.684 443.4c-1.713 0-3.102 1.389-3.102 3.103s1.389 3.102 3.102 3.102 3.102-1.389 3.102-3.102-1.389-3.103-3.102-3.103z"/><path d="m351.163 296.126c0-1.674-1.328-3.028-2.986-3.091.733 1.736 1.435 3.488 2.097 5.26.548-.559.889-1.323.889-2.169z"/><path d="m351.163 396.126c0-.853-.345-1.625-.902-2.186-.664 1.776-1.357 3.537-2.092 5.277 1.662-.058 2.994-1.414 2.994-3.091z"/><path d="m337.684 423.4c-1.713 0-3.102 1.389-3.102 3.103s1.389 3.102 3.102 3.102 3.102-1.389 3.102-3.102-1.389-3.103-3.102-3.103z"/><path d="m348.06 453.024c-1.713 0-3.102 1.389-3.102 3.103 0 1.713 1.389 3.102 3.102 3.102s3.102-1.389 3.102-3.102c.001-1.714-1.388-3.103-3.102-3.103z"/><path d="m337.684 463.4c-1.713 0-3.102 1.389-3.102 3.103s1.389 3.102 3.102 3.102 3.102-1.389 3.102-3.102-1.389-3.103-3.102-3.103z"/><path d="m328.06 433.024c-.151 0-.296.024-.442.045-.868 1.05-1.757 2.083-2.656 3.106.027 1.69 1.401 3.054 3.097 3.054 1.713 0 3.102-1.389 3.102-3.102.002-1.714-1.387-3.103-3.101-3.103z"/><path d="m318.096 443.442c-1.144 1.126-2.306 2.233-3.489 3.319.133 1.59 1.451 2.844 3.076 2.844 1.713 0 3.102-1.389 3.102-3.102.001-1.572-1.173-2.857-2.689-3.061z"/><path d="m317.684 463.4c-1.713 0-3.102 1.389-3.102 3.103s1.389 3.102 3.102 3.102 3.102-1.389 3.102-3.102-1.389-3.103-3.102-3.103z"/><path d="m328.06 473.024c-1.713 0-3.102 1.389-3.102 3.103 0 1.713 1.389 3.102 3.102 3.102s3.102-1.389 3.102-3.102c.001-1.714-1.388-3.103-3.102-3.103z"/><path d="m308.06 473.024c-1.713 0-3.102 1.389-3.102 3.103 0 1.713 1.389 3.102 3.102 3.102s3.102-1.389 3.102-3.102c.001-1.714-1.388-3.103-3.102-3.103z"/><path d="m297.684 483.4c-1.713 0-3.102 1.389-3.102 3.103s1.389 3.102 3.102 3.102 3.102-1.389 3.102-3.102-1.389-3.103-3.102-3.103z"/><path d="m277.684 483.4c-1.713 0-3.102 1.389-3.102 3.103s1.389 3.102 3.102 3.102 3.102-1.389 3.102-3.102-1.389-3.103-3.102-3.103z"/><path d="m288.06 493.024c-1.713 0-3.102 1.389-3.102 3.103 0 1.713 1.389 3.102 3.102 3.102s3.102-1.389 3.102-3.102c.001-1.714-1.388-3.103-3.102-3.103z"/><path d="m257.684 483.4c-1.713 0-3.102 1.389-3.102 3.103s1.389 3.102 3.102 3.102 3.102-1.389 3.102-3.102-1.389-3.103-3.102-3.103z"/><path d="m268.06 493.024c-1.713 0-3.102 1.389-3.102 3.103 0 1.713 1.389 3.102 3.102 3.102s3.102-1.389 3.102-3.102c.001-1.714-1.388-3.103-3.102-3.103z"/><path d="m237.684 483.4c-1.713 0-3.102 1.389-3.102 3.103s1.389 3.102 3.102 3.102 3.102-1.389 3.102-3.102-1.389-3.103-3.102-3.103z"/><path d="m248.06 493.024c-1.713 0-3.102 1.389-3.102 3.103 0 1.713 1.389 3.102 3.102 3.102s3.102-1.389 3.102-3.102c.001-1.714-1.388-3.103-3.102-3.103z"/><path d="m217.684 483.4c-1.713 0-3.102 1.389-3.102 3.103s1.389 3.102 3.102 3.102 3.102-1.389 3.102-3.102-1.389-3.103-3.102-3.103z"/><path d="m228.06 493.024c-1.713 0-3.102 1.389-3.102 3.103 0 1.713 1.389 3.102 3.102 3.102s3.102-1.389 3.102-3.102c.001-1.714-1.388-3.103-3.102-3.103z"/><path d="m188.06 479.228c.608 0 1.17-.181 1.649-.483-1.462-.358-2.917-.734-4.36-1.139.527.962 1.537 1.622 2.711 1.622z"/><path d="m498.964 1.959c-.718-1.214-2.023-1.959-3.433-1.959h-153.412c-1.455 0-2.794.793-3.495 2.067l-80.738 146.843-80.739-146.843-1.137-2.067h-164.004l148.627 270.315c-26.231 25.549-42.551 61.227-42.551 100.649 0 77.506 63.056 140.562 140.561 140.562 77.506 0 140.562-63.056 140.562-140.562 0-40.4-17.139-76.868-44.52-102.532l144.342-262.521c.679-1.236.655-2.739-.063-3.952zm-296.741 240.274-128.8-234.256h52.971l104.49 190.042-23.027 41.881c-1.898.738-3.776 1.516-5.634 2.333zm187.787-234.256h52.971l-128.632 233.95c-14.503-6.287-30.262-10.199-46.791-11.239zm-31.862 275.47c-.153-.023-.305-.047-.464-.047-1.713 0-3.102 1.389-3.102 3.103s1.389 3.102 3.102 3.102c1.706 0 3.089-1.378 3.1-3.081 1.903 2.298 3.726 4.663 5.473 7.087-.784.563-1.299 1.477-1.299 2.516 0 1.713 1.389 3.102 3.102 3.102.628 0 1.211-.189 1.699-.51 1.708 2.617 3.324 5.298 4.848 8.039.074.895.521 1.677 1.193 2.195 4.183 7.872 7.597 16.212 10.139 24.92-.601.566-.981 1.363-.981 2.254 0 1.471 1.026 2.695 2.399 3.015 1.187 4.798 2.117 9.695 2.764 14.682-.549-.491-1.266-.799-2.061-.799-1.713 0-3.102 1.389-3.102 3.103 0 1.713 1.389 3.102 3.102 3.102 1.044 0 1.962-.519 2.525-1.31.421 4.293.642 8.644.642 13.045 0 1.619-.039 3.229-.097 4.835-.166-1.557-1.468-2.775-3.069-2.775-1.713 0-3.102 1.389-3.102 3.103 0 1.713 1.389 3.102 3.102 3.102 1.491 0 2.734-1.052 3.032-2.454-.243 5.606-.836 11.123-1.757 16.529-.39-.176-.819-.28-1.275-.28-1.713 0-3.102 1.389-3.102 3.103 0 1.713 1.389 3.102 3.102 3.102.043 0 .084-.011.127-.013-1.907 8.751-4.678 17.181-8.224 25.197-.567-.619-1.374-1.013-2.279-1.013-1.713 0-3.102 1.389-3.102 3.103 0 1.663 1.312 3.009 2.956 3.087-12.445 25.137-32.628 45.785-57.42 58.815.412-.527.668-1.182.668-1.902 0-1.713-1.389-3.103-3.102-3.103s-3.102 1.389-3.102 3.103 1.389 3.102 3.102 3.102c.041 0 .079-.01.119-.012-2.715 1.359-5.48 2.63-8.297 3.804-.434-.23-.921-.373-1.446-.373-1.361 0-2.505.883-2.923 2.103-14.475 5.438-30.142 8.422-46.495 8.422-.021 0-.042-.001-.063-.001-.285-.086-.582-.147-.896-.147-.288 0-.561.052-.826.126-16.237-.216-31.778-3.36-46.118-8.936-.535-.932-1.529-1.566-2.68-1.566-.301 0-.585.056-.86.136-2.801-1.184-5.549-2.465-8.249-3.831 1.08-.485 1.835-1.565 1.835-2.826 0-1.713-1.389-3.103-3.102-3.103s-3.102 1.389-3.102 3.103c0 .184.023.362.054.537-40.852-22.617-68.577-66.167-68.577-116.076 0-73.107 59.477-132.584 132.584-132.584 24.258 0 47.011 6.554 66.593 17.975.816.935 1.626 1.875 2.416 2.832.135.018.269.041.409.041.49 0 .948-.124 1.36-.327 2.39 1.515 4.727 3.106 7.011 4.767-1.089.482-1.85 1.567-1.85 2.835 0 1.713 1.389 3.102 3.102 3.102 1.567 0 2.849-1.165 3.059-2.674 2.467 1.952 4.865 3.988 7.186 6.106-1.651.07-2.971 1.421-2.971 3.089 0 1.713 1.389 3.102 3.102 3.102s3.102-1.389 3.102-3.102c0-.011-.003-.021-.003-.032 2.421 2.36 4.753 4.812 6.989 7.351z"/><path d="m347.265 342.984c-1.856-5.713-6.702-9.798-12.646-10.662l-38.792-5.637c-2.504-.364-4.668-1.935-5.788-4.206l-17.348-35.151c-2.659-5.386-8.041-8.732-14.048-8.732-6.006 0-11.389 3.346-14.048 8.732l-17.348 35.151c-1.12 2.27-3.284 3.841-5.788 4.205l-38.791 5.637c-5.944.864-10.79 4.949-12.646 10.662-1.856 5.712-.337 11.866 3.964 16.059l28.069 27.361c1.812 1.767 2.639 4.311 2.211 6.805l-6.626 38.634c-1.015 5.921 1.373 11.792 6.232 15.322 4.861 3.532 11.183 3.987 16.498 1.192l34.696-18.241c2.24-1.177 4.915-1.177 7.155 0l34.696 18.241c2.312 1.216 4.815 1.816 7.305 1.816 3.235 0 6.447-1.014 9.193-3.009 4.859-3.53 7.247-9.401 6.232-15.322l-6.626-38.634c-.428-2.495.399-5.039 2.211-6.806l28.069-27.361c4.301-4.19 5.82-10.344 3.964-16.056zm-9.533 10.347-28.07 27.361c-3.693 3.599-5.377 8.783-4.505 13.866l6.626 38.635c.506 2.949-.637 5.76-3.059 7.519-2.421 1.758-5.448 1.978-8.096.586l-34.696-18.241c-2.282-1.2-4.785-1.8-7.29-1.8-2.504 0-5.008.6-7.29 1.8l-34.696 18.241c-2.649 1.391-5.676 1.173-8.096-.586-2.421-1.759-3.565-4.57-3.059-7.519l6.626-38.635c.872-5.082-.812-10.266-4.505-13.866l-28.07-27.361c-2.143-2.089-2.87-5.035-1.945-7.881s3.245-4.802 6.206-5.232l38.791-5.637c5.103-.741 9.513-3.944 11.796-8.569l17.348-35.151c1.324-2.684 3.902-4.286 6.894-4.286 2.993 0 5.57 1.602 6.894 4.286l17.348 35.151c2.282 4.625 6.692 7.829 11.795 8.569l38.791 5.637c2.961.431 5.282 2.386 6.206 5.232.926 2.845.199 5.792-1.944 7.881z"/></g></svg>