<svg id="Capa_1" enable-background="new 0 0 512.005 512.005" height="512" viewBox="0 0 512.005 512.005" width="512" xmlns="http://www.w3.org/2000/svg"><g><path d="m486.804 315.657c-1.713 0-3.102 1.389-3.102 3.103s1.389 3.102 3.102 3.102 3.102-1.389 3.102-3.102-1.388-3.103-3.102-3.103z"/><path d="m497.181 325.281c-1.713 0-3.102 1.389-3.102 3.103 0 1.713 1.389 3.102 3.102 3.102s3.102-1.389 3.102-3.102c0-1.714-1.389-3.103-3.102-3.103z"/><path d="m486.804 335.657c-1.713 0-3.102 1.389-3.102 3.103s1.389 3.102 3.102 3.102 3.102-1.389 3.102-3.102-1.388-3.103-3.102-3.103z"/><path d="m497.181 345.281c-1.713 0-3.102 1.389-3.102 3.103 0 1.713 1.389 3.102 3.102 3.102s3.102-1.389 3.102-3.102c0-1.714-1.389-3.103-3.102-3.103z"/><path d="m486.804 355.657c-1.713 0-3.102 1.389-3.102 3.103s1.389 3.102 3.102 3.102 3.102-1.389 3.102-3.102-1.388-3.103-3.102-3.103z"/><path d="m497.181 365.281c-1.713 0-3.102 1.389-3.102 3.103 0 1.713 1.389 3.102 3.102 3.102s3.102-1.389 3.102-3.102c0-1.714-1.389-3.103-3.102-3.103z"/><path d="m486.804 375.657c-1.713 0-3.102 1.389-3.102 3.103s1.389 3.102 3.102 3.102 3.102-1.389 3.102-3.102-1.388-3.103-3.102-3.103z"/><path d="m497.181 385.281c-1.713 0-3.102 1.389-3.102 3.103 0 1.713 1.389 3.102 3.102 3.102s3.102-1.389 3.102-3.102c0-1.714-1.389-3.103-3.102-3.103z"/><path d="m486.804 395.657c-1.713 0-3.102 1.389-3.102 3.103s1.389 3.102 3.102 3.102 3.102-1.389 3.102-3.102-1.388-3.103-3.102-3.103z"/><path d="m497.181 405.281c-1.713 0-3.102 1.389-3.102 3.103 0 1.713 1.389 3.102 3.102 3.102s3.102-1.389 3.102-3.102c0-1.714-1.389-3.103-3.102-3.103z"/><path d="m486.804 415.657c-1.713 0-3.102 1.389-3.102 3.103s1.389 3.102 3.102 3.102 3.102-1.389 3.102-3.102-1.388-3.103-3.102-3.103z"/><path d="m466.804 315.657c-1.713 0-3.102 1.389-3.102 3.103s1.389 3.102 3.102 3.102 3.102-1.389 3.102-3.102-1.388-3.103-3.102-3.103z"/><path d="m477.181 325.281c-1.713 0-3.102 1.389-3.102 3.103 0 1.713 1.389 3.102 3.102 3.102s3.102-1.389 3.102-3.102c0-1.714-1.389-3.103-3.102-3.103z"/><path d="m466.804 335.657c-1.713 0-3.102 1.389-3.102 3.103s1.389 3.102 3.102 3.102 3.102-1.389 3.102-3.102-1.388-3.103-3.102-3.103z"/><path d="m477.181 345.281c-1.713 0-3.102 1.389-3.102 3.103 0 1.713 1.389 3.102 3.102 3.102s3.102-1.389 3.102-3.102c0-1.714-1.389-3.103-3.102-3.103z"/><path d="m466.804 355.657c-1.713 0-3.102 1.389-3.102 3.103s1.389 3.102 3.102 3.102 3.102-1.389 3.102-3.102-1.388-3.103-3.102-3.103z"/><path d="m477.181 365.281c-1.713 0-3.102 1.389-3.102 3.103 0 1.713 1.389 3.102 3.102 3.102s3.102-1.389 3.102-3.102c0-1.714-1.389-3.103-3.102-3.103z"/><path d="m466.804 375.657c-1.713 0-3.102 1.389-3.102 3.103s1.389 3.102 3.102 3.102 3.102-1.389 3.102-3.102-1.388-3.103-3.102-3.103z"/><path d="m477.181 385.281c-1.713 0-3.102 1.389-3.102 3.103 0 1.713 1.389 3.102 3.102 3.102s3.102-1.389 3.102-3.102c0-1.714-1.389-3.103-3.102-3.103z"/><path d="m466.804 395.657c-1.713 0-3.102 1.389-3.102 3.103s1.389 3.102 3.102 3.102 3.102-1.389 3.102-3.102-1.388-3.103-3.102-3.103z"/><path d="m477.181 405.281c-1.713 0-3.102 1.389-3.102 3.103 0 1.713 1.389 3.102 3.102 3.102s3.102-1.389 3.102-3.102c0-1.714-1.389-3.103-3.102-3.103z"/><path d="m466.804 415.657c-1.713 0-3.102 1.389-3.102 3.103s1.389 3.102 3.102 3.102 3.102-1.389 3.102-3.102-1.388-3.103-3.102-3.103z"/><path d="m446.804 315.657c-.872 0-1.657.362-2.221.941v4.322c.564.579 1.349.941 2.221.941 1.713 0 3.102-1.389 3.102-3.102s-1.388-3.102-3.102-3.102z"/><path d="m457.181 325.281c-1.713 0-3.102 1.389-3.102 3.103 0 1.713 1.389 3.102 3.102 3.102s3.102-1.389 3.102-3.102c0-1.714-1.389-3.103-3.102-3.103z"/><path d="m446.804 335.657c-.872 0-1.657.362-2.221.941v4.322c.564.579 1.349.941 2.221.941 1.713 0 3.102-1.389 3.102-3.102s-1.388-3.102-3.102-3.102z"/><path d="m457.181 345.281c-1.713 0-3.102 1.389-3.102 3.103 0 1.713 1.389 3.102 3.102 3.102s3.102-1.389 3.102-3.102c0-1.714-1.389-3.103-3.102-3.103z"/><path d="m446.804 355.657c-.872 0-1.657.362-2.221.941v4.322c.564.579 1.349.941 2.221.941 1.713 0 3.102-1.389 3.102-3.102s-1.388-3.102-3.102-3.102z"/><path d="m457.181 365.281c-1.713 0-3.102 1.389-3.102 3.103 0 1.713 1.389 3.102 3.102 3.102s3.102-1.389 3.102-3.102c0-1.714-1.389-3.103-3.102-3.103z"/><path d="m446.804 375.657c-.872 0-1.657.362-2.221.941v4.322c.564.579 1.349.941 2.221.941 1.713 0 3.102-1.389 3.102-3.102s-1.388-3.102-3.102-3.102z"/><path d="m457.181 385.281c-1.713 0-3.102 1.389-3.102 3.103 0 1.713 1.389 3.102 3.102 3.102s3.102-1.389 3.102-3.102c0-1.714-1.389-3.103-3.102-3.103z"/><path d="m446.804 395.657c-.872 0-1.657.362-2.221.941v4.322c.564.579 1.349.941 2.221.941 1.713 0 3.102-1.389 3.102-3.102s-1.388-3.102-3.102-3.102z"/><path d="m457.181 405.281c-1.713 0-3.102 1.389-3.102 3.103 0 1.713 1.389 3.102 3.102 3.102s3.102-1.389 3.102-3.102c0-1.714-1.389-3.103-3.102-3.103z"/><path d="m446.804 415.657c-.872 0-1.657.362-2.221.941v4.322c.564.579 1.349.941 2.221.941 1.713 0 3.102-1.389 3.102-3.102s-1.388-3.102-3.102-3.102z"/><path d="m326.804 155.657c-1.713 0-3.102 1.389-3.102 3.103s1.389 3.102 3.102 3.102 3.102-1.389 3.102-3.102-1.388-3.103-3.102-3.103z"/><path d="m326.804 175.657c-1.713 0-3.102 1.389-3.102 3.103s1.389 3.102 3.102 3.102 3.102-1.389 3.102-3.102-1.388-3.103-3.102-3.103z"/><path d="m326.804 195.657c-1.713 0-3.102 1.389-3.102 3.103s1.389 3.102 3.102 3.102 3.102-1.389 3.102-3.102-1.388-3.103-3.102-3.103z"/><path d="m326.804 215.657c-1.713 0-3.102 1.389-3.102 3.103s1.389 3.102 3.102 3.102 3.102-1.389 3.102-3.102-1.388-3.103-3.102-3.103z"/><path d="m326.804 235.657c-1.713 0-3.102 1.389-3.102 3.103s1.389 3.102 3.102 3.102 3.102-1.389 3.102-3.102-1.388-3.103-3.102-3.103z"/><path d="m326.804 255.657c-1.713 0-3.102 1.389-3.102 3.103s1.389 3.102 3.102 3.102 3.102-1.389 3.102-3.102-1.388-3.103-3.102-3.103z"/><path d="m326.804 275.657c-1.713 0-3.102 1.389-3.102 3.103s1.389 3.102 3.102 3.102 3.102-1.389 3.102-3.102-1.388-3.103-3.102-3.103z"/><path d="m326.804 295.657c-1.713 0-3.102 1.389-3.102 3.103s1.389 3.102 3.102 3.102 3.102-1.389 3.102-3.102-1.388-3.103-3.102-3.103z"/><path d="m326.804 315.657c-1.713 0-3.102 1.389-3.102 3.103s1.389 3.102 3.102 3.102 3.102-1.389 3.102-3.102-1.388-3.103-3.102-3.103z"/><path d="m326.804 335.657c-1.713 0-3.102 1.389-3.102 3.103s1.389 3.102 3.102 3.102 3.102-1.389 3.102-3.102-1.388-3.103-3.102-3.103z"/><path d="m326.804 355.657c-1.713 0-3.102 1.389-3.102 3.103s1.389 3.102 3.102 3.102 3.102-1.389 3.102-3.102-1.388-3.103-3.102-3.103z"/><path d="m326.804 375.657c-1.713 0-3.102 1.389-3.102 3.103s1.389 3.102 3.102 3.102 3.102-1.389 3.102-3.102-1.388-3.103-3.102-3.103z"/><path d="m326.804 395.657c-1.713 0-3.102 1.389-3.102 3.103s1.389 3.102 3.102 3.102 3.102-1.389 3.102-3.102-1.388-3.103-3.102-3.103z"/><path d="m326.804 415.657c-1.713 0-3.102 1.389-3.102 3.103s1.389 3.102 3.102 3.102 3.102-1.389 3.102-3.102-1.388-3.103-3.102-3.103z"/><path d="m306.804 155.657c-1.713 0-3.102 1.389-3.102 3.103s1.389 3.102 3.102 3.102 3.102-1.389 3.102-3.102-1.388-3.103-3.102-3.103z"/><path d="m317.181 165.281c-1.713 0-3.102 1.389-3.102 3.103 0 1.713 1.389 3.102 3.102 3.102s3.102-1.389 3.102-3.102c0-1.714-1.389-3.103-3.102-3.103z"/><path d="m306.804 175.657c-1.713 0-3.102 1.389-3.102 3.103s1.389 3.102 3.102 3.102 3.102-1.389 3.102-3.102-1.388-3.103-3.102-3.103z"/><path d="m317.181 185.281c-1.713 0-3.102 1.389-3.102 3.103 0 1.713 1.389 3.102 3.102 3.102s3.102-1.389 3.102-3.102c0-1.714-1.389-3.103-3.102-3.103z"/><path d="m306.804 195.657c-1.713 0-3.102 1.389-3.102 3.103s1.389 3.102 3.102 3.102 3.102-1.389 3.102-3.102-1.388-3.103-3.102-3.103z"/><path d="m317.181 205.281c-1.713 0-3.102 1.389-3.102 3.103 0 1.713 1.389 3.102 3.102 3.102s3.102-1.389 3.102-3.102c0-1.714-1.389-3.103-3.102-3.103z"/><path d="m306.804 215.657c-1.713 0-3.102 1.389-3.102 3.103s1.389 3.102 3.102 3.102 3.102-1.389 3.102-3.102-1.388-3.103-3.102-3.103z"/><path d="m317.181 225.281c-1.713 0-3.102 1.389-3.102 3.103 0 1.713 1.389 3.102 3.102 3.102s3.102-1.389 3.102-3.102c0-1.714-1.389-3.103-3.102-3.103z"/><path d="m306.804 235.657c-1.713 0-3.102 1.389-3.102 3.103s1.389 3.102 3.102 3.102 3.102-1.389 3.102-3.102-1.388-3.103-3.102-3.103z"/><path d="m317.181 245.281c-1.713 0-3.102 1.389-3.102 3.103 0 1.713 1.389 3.102 3.102 3.102s3.102-1.389 3.102-3.102c0-1.714-1.389-3.103-3.102-3.103z"/><path d="m306.804 255.657c-1.713 0-3.102 1.389-3.102 3.103s1.389 3.102 3.102 3.102 3.102-1.389 3.102-3.102-1.388-3.103-3.102-3.103z"/><path d="m317.181 265.281c-1.713 0-3.102 1.389-3.102 3.103 0 1.713 1.389 3.102 3.102 3.102s3.102-1.389 3.102-3.102c0-1.714-1.389-3.103-3.102-3.103z"/><path d="m306.804 275.657c-1.713 0-3.102 1.389-3.102 3.103s1.389 3.102 3.102 3.102 3.102-1.389 3.102-3.102-1.388-3.103-3.102-3.103z"/><path d="m317.181 285.281c-1.713 0-3.102 1.389-3.102 3.103 0 1.713 1.389 3.102 3.102 3.102s3.102-1.389 3.102-3.102c0-1.714-1.389-3.103-3.102-3.103z"/><path d="m306.804 295.657c-1.713 0-3.102 1.389-3.102 3.103s1.389 3.102 3.102 3.102 3.102-1.389 3.102-3.102-1.388-3.103-3.102-3.103z"/><path d="m317.181 305.281c-1.713 0-3.102 1.389-3.102 3.103 0 1.713 1.389 3.102 3.102 3.102s3.102-1.389 3.102-3.102c0-1.714-1.389-3.103-3.102-3.103z"/><path d="m306.804 315.657c-1.713 0-3.102 1.389-3.102 3.103s1.389 3.102 3.102 3.102 3.102-1.389 3.102-3.102-1.388-3.103-3.102-3.103z"/><path d="m317.181 325.281c-1.713 0-3.102 1.389-3.102 3.103 0 1.713 1.389 3.102 3.102 3.102s3.102-1.389 3.102-3.102c0-1.714-1.389-3.103-3.102-3.103z"/><path d="m306.804 335.657c-1.713 0-3.102 1.389-3.102 3.103s1.389 3.102 3.102 3.102 3.102-1.389 3.102-3.102-1.388-3.103-3.102-3.103z"/><path d="m317.181 345.281c-1.713 0-3.102 1.389-3.102 3.103 0 1.713 1.389 3.102 3.102 3.102s3.102-1.389 3.102-3.102c0-1.714-1.389-3.103-3.102-3.103z"/><path d="m306.804 355.657c-1.713 0-3.102 1.389-3.102 3.103s1.389 3.102 3.102 3.102 3.102-1.389 3.102-3.102-1.388-3.103-3.102-3.103z"/><path d="m317.181 365.281c-1.713 0-3.102 1.389-3.102 3.103 0 1.713 1.389 3.102 3.102 3.102s3.102-1.389 3.102-3.102c0-1.714-1.389-3.103-3.102-3.103z"/><path d="m306.804 375.657c-1.713 0-3.102 1.389-3.102 3.103s1.389 3.102 3.102 3.102 3.102-1.389 3.102-3.102-1.388-3.103-3.102-3.103z"/><path d="m317.181 385.281c-1.713 0-3.102 1.389-3.102 3.103 0 1.713 1.389 3.102 3.102 3.102s3.102-1.389 3.102-3.102c0-1.714-1.389-3.103-3.102-3.103z"/><path d="m306.804 395.657c-1.713 0-3.102 1.389-3.102 3.103s1.389 3.102 3.102 3.102 3.102-1.389 3.102-3.102-1.388-3.103-3.102-3.103z"/><path d="m317.181 405.281c-1.713 0-3.102 1.389-3.102 3.103 0 1.713 1.389 3.102 3.102 3.102s3.102-1.389 3.102-3.102c0-1.714-1.389-3.103-3.102-3.103z"/><path d="m306.804 415.657c-1.713 0-3.102 1.389-3.102 3.103s1.389 3.102 3.102 3.102 3.102-1.389 3.102-3.102-1.388-3.103-3.102-3.103z"/><path d="m286.804 155.657c-1.713 0-3.102 1.389-3.102 3.103s1.389 3.102 3.102 3.102 3.102-1.389 3.102-3.102-1.388-3.103-3.102-3.103z"/><path d="m297.181 165.281c-1.713 0-3.102 1.389-3.102 3.103 0 1.713 1.389 3.102 3.102 3.102s3.102-1.389 3.102-3.102c0-1.714-1.389-3.103-3.102-3.103z"/><path d="m286.804 175.657c-1.713 0-3.102 1.389-3.102 3.103s1.389 3.102 3.102 3.102 3.102-1.389 3.102-3.102-1.388-3.103-3.102-3.103z"/><path d="m297.181 185.281c-1.713 0-3.102 1.389-3.102 3.103 0 1.713 1.389 3.102 3.102 3.102s3.102-1.389 3.102-3.102c0-1.714-1.389-3.103-3.102-3.103z"/><path d="m286.804 195.657c-1.713 0-3.102 1.389-3.102 3.103s1.389 3.102 3.102 3.102 3.102-1.389 3.102-3.102-1.388-3.103-3.102-3.103z"/><path d="m297.181 205.281c-1.713 0-3.102 1.389-3.102 3.103 0 1.713 1.389 3.102 3.102 3.102s3.102-1.389 3.102-3.102c0-1.714-1.389-3.103-3.102-3.103z"/><path d="m286.804 215.657c-1.713 0-3.102 1.389-3.102 3.103s1.389 3.102 3.102 3.102 3.102-1.389 3.102-3.102-1.388-3.103-3.102-3.103z"/><path d="m297.181 225.281c-1.713 0-3.102 1.389-3.102 3.103 0 1.713 1.389 3.102 3.102 3.102s3.102-1.389 3.102-3.102c0-1.714-1.389-3.103-3.102-3.103z"/><path d="m286.804 235.657c-1.713 0-3.102 1.389-3.102 3.103s1.389 3.102 3.102 3.102 3.102-1.389 3.102-3.102-1.388-3.103-3.102-3.103z"/><path d="m297.181 245.281c-1.713 0-3.102 1.389-3.102 3.103 0 1.713 1.389 3.102 3.102 3.102s3.102-1.389 3.102-3.102c0-1.714-1.389-3.103-3.102-3.103z"/><path d="m286.804 255.657c-1.713 0-3.102 1.389-3.102 3.103s1.389 3.102 3.102 3.102 3.102-1.389 3.102-3.102-1.388-3.103-3.102-3.103z"/><path d="m297.181 265.281c-1.713 0-3.102 1.389-3.102 3.103 0 1.713 1.389 3.102 3.102 3.102s3.102-1.389 3.102-3.102c0-1.714-1.389-3.103-3.102-3.103z"/><path d="m286.804 275.657c-1.713 0-3.102 1.389-3.102 3.103s1.389 3.102 3.102 3.102 3.102-1.389 3.102-3.102-1.388-3.103-3.102-3.103z"/><path d="m297.181 285.281c-1.713 0-3.102 1.389-3.102 3.103 0 1.713 1.389 3.102 3.102 3.102s3.102-1.389 3.102-3.102c0-1.714-1.389-3.103-3.102-3.103z"/><path d="m286.804 295.657c-1.713 0-3.102 1.389-3.102 3.103s1.389 3.102 3.102 3.102 3.102-1.389 3.102-3.102-1.388-3.103-3.102-3.103z"/><path d="m297.181 305.281c-1.713 0-3.102 1.389-3.102 3.103 0 1.713 1.389 3.102 3.102 3.102s3.102-1.389 3.102-3.102c0-1.714-1.389-3.103-3.102-3.103z"/><path d="m286.804 315.657c-1.713 0-3.102 1.389-3.102 3.103s1.389 3.102 3.102 3.102 3.102-1.389 3.102-3.102-1.388-3.103-3.102-3.103z"/><path d="m297.181 325.281c-1.713 0-3.102 1.389-3.102 3.103 0 1.713 1.389 3.102 3.102 3.102s3.102-1.389 3.102-3.102c0-1.714-1.389-3.103-3.102-3.103z"/><path d="m286.804 335.657c-1.713 0-3.102 1.389-3.102 3.103s1.389 3.102 3.102 3.102 3.102-1.389 3.102-3.102-1.388-3.103-3.102-3.103z"/><path d="m297.181 345.281c-1.713 0-3.102 1.389-3.102 3.103 0 1.713 1.389 3.102 3.102 3.102s3.102-1.389 3.102-3.102c0-1.714-1.389-3.103-3.102-3.103z"/><path d="m286.804 355.657c-1.713 0-3.102 1.389-3.102 3.103s1.389 3.102 3.102 3.102 3.102-1.389 3.102-3.102-1.388-3.103-3.102-3.103z"/><path d="m297.181 365.281c-1.713 0-3.102 1.389-3.102 3.103 0 1.713 1.389 3.102 3.102 3.102s3.102-1.389 3.102-3.102c0-1.714-1.389-3.103-3.102-3.103z"/><path d="m286.804 375.657c-1.713 0-3.102 1.389-3.102 3.103s1.389 3.102 3.102 3.102 3.102-1.389 3.102-3.102-1.388-3.103-3.102-3.103z"/><path d="m297.181 385.281c-1.713 0-3.102 1.389-3.102 3.103 0 1.713 1.389 3.102 3.102 3.102s3.102-1.389 3.102-3.102c0-1.714-1.389-3.103-3.102-3.103z"/><path d="m286.804 395.657c-1.713 0-3.102 1.389-3.102 3.103s1.389 3.102 3.102 3.102 3.102-1.389 3.102-3.102-1.388-3.103-3.102-3.103z"/><path d="m297.181 405.281c-1.713 0-3.102 1.389-3.102 3.103 0 1.713 1.389 3.102 3.102 3.102s3.102-1.389 3.102-3.102c0-1.714-1.389-3.103-3.102-3.103z"/><path d="m286.804 415.657c-1.713 0-3.102 1.389-3.102 3.103s1.389 3.102 3.102 3.102 3.102-1.389 3.102-3.102-1.388-3.103-3.102-3.103z"/><path d="m277.181 165.281c-1.357 0-2.498.877-2.919 2.09v2.024c.421 1.214 1.562 2.09 2.919 2.09 1.713 0 3.102-1.389 3.102-3.102s-1.389-3.102-3.102-3.102z"/><path d="m277.181 185.281c-1.357 0-2.498.877-2.919 2.09v2.024c.421 1.214 1.562 2.09 2.919 2.09 1.713 0 3.102-1.389 3.102-3.102s-1.389-3.102-3.102-3.102z"/><path d="m277.181 205.281c-1.357 0-2.498.877-2.919 2.09v2.024c.421 1.214 1.562 2.09 2.919 2.09 1.713 0 3.102-1.389 3.102-3.102s-1.389-3.102-3.102-3.102z"/><path d="m277.181 225.281c-1.357 0-2.498.877-2.919 2.09v2.024c.421 1.214 1.562 2.09 2.919 2.09 1.713 0 3.102-1.389 3.102-3.102s-1.389-3.102-3.102-3.102z"/><path d="m277.181 245.281c-1.357 0-2.498.877-2.919 2.09v2.024c.421 1.214 1.562 2.09 2.919 2.09 1.713 0 3.102-1.389 3.102-3.102s-1.389-3.102-3.102-3.102z"/><path d="m277.181 265.281c-1.357 0-2.498.877-2.919 2.09v2.024c.421 1.214 1.562 2.09 2.919 2.09 1.713 0 3.102-1.389 3.102-3.102s-1.389-3.102-3.102-3.102z"/><path d="m277.181 285.281c-1.357 0-2.498.877-2.919 2.09v2.024c.421 1.214 1.562 2.09 2.919 2.09 1.713 0 3.102-1.389 3.102-3.102s-1.389-3.102-3.102-3.102z"/><path d="m277.181 305.281c-1.357 0-2.498.877-2.919 2.09v2.024c.421 1.214 1.562 2.09 2.919 2.09 1.713 0 3.102-1.389 3.102-3.102s-1.389-3.102-3.102-3.102z"/><path d="m277.181 325.281c-1.357 0-2.498.877-2.919 2.09v2.024c.421 1.214 1.562 2.09 2.919 2.09 1.713 0 3.102-1.389 3.102-3.102s-1.389-3.102-3.102-3.102z"/><path d="m277.181 345.281c-1.357 0-2.498.877-2.919 2.09v2.024c.421 1.214 1.562 2.09 2.919 2.09 1.713 0 3.102-1.389 3.102-3.102s-1.389-3.102-3.102-3.102z"/><path d="m277.181 365.281c-1.357 0-2.498.877-2.919 2.09v2.024c.421 1.214 1.562 2.09 2.919 2.09 1.713 0 3.102-1.389 3.102-3.102s-1.389-3.102-3.102-3.102z"/><path d="m277.181 385.281c-1.357 0-2.498.877-2.919 2.09v2.024c.421 1.214 1.562 2.09 2.919 2.09 1.713 0 3.102-1.389 3.102-3.102s-1.389-3.102-3.102-3.102z"/><path d="m277.181 405.281c-1.357 0-2.498.877-2.919 2.09v2.024c.421 1.214 1.562 2.09 2.919 2.09 1.713 0 3.102-1.389 3.102-3.102s-1.389-3.102-3.102-3.102z"/><path d="m146.804 235.657c-1.713 0-3.102 1.389-3.102 3.103s1.389 3.102 3.102 3.102 3.102-1.389 3.102-3.102-1.388-3.103-3.102-3.103z"/><path d="m157.181 245.281c-1.713 0-3.102 1.389-3.102 3.103 0 1.713 1.389 3.102 3.102 3.102s3.102-1.389 3.102-3.102c0-1.714-1.389-3.103-3.102-3.103z"/><path d="m146.804 255.657c-1.713 0-3.102 1.389-3.102 3.103s1.389 3.102 3.102 3.102 3.102-1.389 3.102-3.102-1.388-3.103-3.102-3.103z"/><path d="m157.181 265.281c-1.713 0-3.102 1.389-3.102 3.103 0 1.713 1.389 3.102 3.102 3.102s3.102-1.389 3.102-3.102c0-1.714-1.389-3.103-3.102-3.103z"/><path d="m146.804 275.657c-1.713 0-3.102 1.389-3.102 3.103s1.389 3.102 3.102 3.102 3.102-1.389 3.102-3.102-1.388-3.103-3.102-3.103z"/><path d="m157.181 285.281c-1.713 0-3.102 1.389-3.102 3.103 0 1.713 1.389 3.102 3.102 3.102s3.102-1.389 3.102-3.102c0-1.714-1.389-3.103-3.102-3.103z"/><path d="m146.804 295.657c-1.713 0-3.102 1.389-3.102 3.103s1.389 3.102 3.102 3.102 3.102-1.389 3.102-3.102-1.388-3.103-3.102-3.103z"/><path d="m157.181 305.281c-1.713 0-3.102 1.389-3.102 3.103 0 1.713 1.389 3.102 3.102 3.102s3.102-1.389 3.102-3.102c0-1.714-1.389-3.103-3.102-3.103z"/><path d="m146.804 315.657c-1.713 0-3.102 1.389-3.102 3.103s1.389 3.102 3.102 3.102 3.102-1.389 3.102-3.102-1.388-3.103-3.102-3.103z"/><path d="m157.181 325.281c-1.713 0-3.102 1.389-3.102 3.103 0 1.713 1.389 3.102 3.102 3.102s3.102-1.389 3.102-3.102c0-1.714-1.389-3.103-3.102-3.103z"/><path d="m146.804 335.657c-1.713 0-3.102 1.389-3.102 3.103s1.389 3.102 3.102 3.102 3.102-1.389 3.102-3.102-1.388-3.103-3.102-3.103z"/><path d="m157.181 345.281c-1.713 0-3.102 1.389-3.102 3.103 0 1.713 1.389 3.102 3.102 3.102s3.102-1.389 3.102-3.102c0-1.714-1.389-3.103-3.102-3.103z"/><path d="m146.804 355.657c-1.713 0-3.102 1.389-3.102 3.103s1.389 3.102 3.102 3.102 3.102-1.389 3.102-3.102-1.388-3.103-3.102-3.103z"/><path d="m157.181 365.281c-1.713 0-3.102 1.389-3.102 3.103 0 1.713 1.389 3.102 3.102 3.102s3.102-1.389 3.102-3.102c0-1.714-1.389-3.103-3.102-3.103z"/><path d="m146.804 375.657c-1.713 0-3.102 1.389-3.102 3.103s1.389 3.102 3.102 3.102 3.102-1.389 3.102-3.102-1.388-3.103-3.102-3.103z"/><path d="m157.181 385.281c-1.713 0-3.102 1.389-3.102 3.103 0 1.713 1.389 3.102 3.102 3.102s3.102-1.389 3.102-3.102c0-1.714-1.389-3.103-3.102-3.103z"/><path d="m146.804 395.657c-1.713 0-3.102 1.389-3.102 3.103s1.389 3.102 3.102 3.102 3.102-1.389 3.102-3.102-1.388-3.103-3.102-3.103z"/><path d="m157.181 405.281c-1.713 0-3.102 1.389-3.102 3.103 0 1.713 1.389 3.102 3.102 3.102s3.102-1.389 3.102-3.102c0-1.714-1.389-3.103-3.102-3.103z"/><path d="m146.804 415.657c-1.713 0-3.102 1.389-3.102 3.103s1.389 3.102 3.102 3.102 3.102-1.389 3.102-3.102-1.388-3.103-3.102-3.103z"/><path d="m126.804 235.657c-1.713 0-3.102 1.389-3.102 3.103s1.389 3.102 3.102 3.102 3.102-1.389 3.102-3.102-1.388-3.103-3.102-3.103z"/><path d="m137.181 245.281c-1.713 0-3.102 1.389-3.102 3.103 0 1.713 1.389 3.102 3.102 3.102s3.102-1.389 3.102-3.102c0-1.714-1.389-3.103-3.102-3.103z"/><path d="m126.804 255.657c-1.713 0-3.102 1.389-3.102 3.103s1.389 3.102 3.102 3.102 3.102-1.389 3.102-3.102-1.388-3.103-3.102-3.103z"/><path d="m137.181 265.281c-1.713 0-3.102 1.389-3.102 3.103 0 1.713 1.389 3.102 3.102 3.102s3.102-1.389 3.102-3.102c0-1.714-1.389-3.103-3.102-3.103z"/><path d="m126.804 275.657c-1.713 0-3.102 1.389-3.102 3.103s1.389 3.102 3.102 3.102 3.102-1.389 3.102-3.102-1.388-3.103-3.102-3.103z"/><path d="m137.181 285.281c-1.713 0-3.102 1.389-3.102 3.103 0 1.713 1.389 3.102 3.102 3.102s3.102-1.389 3.102-3.102c0-1.714-1.389-3.103-3.102-3.103z"/><path d="m126.804 295.657c-1.713 0-3.102 1.389-3.102 3.103s1.389 3.102 3.102 3.102 3.102-1.389 3.102-3.102-1.388-3.103-3.102-3.103z"/><path d="m137.181 305.281c-1.713 0-3.102 1.389-3.102 3.103 0 1.713 1.389 3.102 3.102 3.102s3.102-1.389 3.102-3.102c0-1.714-1.389-3.103-3.102-3.103z"/><path d="m126.804 315.657c-1.713 0-3.102 1.389-3.102 3.103s1.389 3.102 3.102 3.102 3.102-1.389 3.102-3.102-1.388-3.103-3.102-3.103z"/><path d="m137.181 325.281c-1.713 0-3.102 1.389-3.102 3.103 0 1.713 1.389 3.102 3.102 3.102s3.102-1.389 3.102-3.102c0-1.714-1.389-3.103-3.102-3.103z"/><path d="m126.804 335.657c-1.713 0-3.102 1.389-3.102 3.103s1.389 3.102 3.102 3.102 3.102-1.389 3.102-3.102-1.388-3.103-3.102-3.103z"/><path d="m137.181 345.281c-1.713 0-3.102 1.389-3.102 3.103 0 1.713 1.389 3.102 3.102 3.102s3.102-1.389 3.102-3.102c0-1.714-1.389-3.103-3.102-3.103z"/><path d="m126.804 355.657c-1.713 0-3.102 1.389-3.102 3.103s1.389 3.102 3.102 3.102 3.102-1.389 3.102-3.102-1.388-3.103-3.102-3.103z"/><path d="m137.181 365.281c-1.713 0-3.102 1.389-3.102 3.103 0 1.713 1.389 3.102 3.102 3.102s3.102-1.389 3.102-3.102c0-1.714-1.389-3.103-3.102-3.103z"/><path d="m126.804 375.657c-1.713 0-3.102 1.389-3.102 3.103s1.389 3.102 3.102 3.102 3.102-1.389 3.102-3.102-1.388-3.103-3.102-3.103z"/><path d="m137.181 385.281c-1.713 0-3.102 1.389-3.102 3.103 0 1.713 1.389 3.102 3.102 3.102s3.102-1.389 3.102-3.102c0-1.714-1.389-3.103-3.102-3.103z"/><path d="m126.804 395.657c-1.713 0-3.102 1.389-3.102 3.103s1.389 3.102 3.102 3.102 3.102-1.389 3.102-3.102-1.388-3.103-3.102-3.103z"/><path d="m137.181 405.281c-1.713 0-3.102 1.389-3.102 3.103 0 1.713 1.389 3.102 3.102 3.102s3.102-1.389 3.102-3.102c0-1.714-1.389-3.103-3.102-3.103z"/><path d="m126.804 415.657c-1.713 0-3.102 1.389-3.102 3.103s1.389 3.102 3.102 3.102 3.102-1.389 3.102-3.102-1.388-3.103-3.102-3.103z"/><path d="m106.804 235.657c-.006 0-.012.002-.019.002v6.201c.007 0 .013.002.019.002 1.713 0 3.102-1.389 3.102-3.102s-1.388-3.103-3.102-3.103z"/><path d="m117.181 245.281c-1.713 0-3.102 1.389-3.102 3.103 0 1.713 1.389 3.102 3.102 3.102s3.102-1.389 3.102-3.102c0-1.714-1.389-3.103-3.102-3.103z"/><path d="m106.804 255.657c-.006 0-.012.002-.019.002v6.201c.007 0 .013.002.019.002 1.713 0 3.102-1.389 3.102-3.102s-1.388-3.103-3.102-3.103z"/><path d="m117.181 265.281c-1.713 0-3.102 1.389-3.102 3.103 0 1.713 1.389 3.102 3.102 3.102s3.102-1.389 3.102-3.102c0-1.714-1.389-3.103-3.102-3.103z"/><path d="m106.804 275.657c-.006 0-.012.002-.019.002v6.201c.007 0 .013.002.019.002 1.713 0 3.102-1.389 3.102-3.102s-1.388-3.103-3.102-3.103z"/><path d="m117.181 285.281c-1.713 0-3.102 1.389-3.102 3.103 0 1.713 1.389 3.102 3.102 3.102s3.102-1.389 3.102-3.102c0-1.714-1.389-3.103-3.102-3.103z"/><path d="m106.804 295.657c-.006 0-.012.002-.019.002v6.201c.007 0 .013.002.019.002 1.713 0 3.102-1.389 3.102-3.102s-1.388-3.103-3.102-3.103z"/><path d="m117.181 305.281c-1.713 0-3.102 1.389-3.102 3.103 0 1.713 1.389 3.102 3.102 3.102s3.102-1.389 3.102-3.102c0-1.714-1.389-3.103-3.102-3.103z"/><path d="m106.804 315.657c-.006 0-.012.002-.019.002v6.201c.007 0 .013.002.019.002 1.713 0 3.102-1.389 3.102-3.102s-1.388-3.103-3.102-3.103z"/><path d="m117.181 325.281c-1.713 0-3.102 1.389-3.102 3.103 0 1.713 1.389 3.102 3.102 3.102s3.102-1.389 3.102-3.102c0-1.714-1.389-3.103-3.102-3.103z"/><path d="m106.804 335.657c-.006 0-.012.002-.019.002v6.201c.007 0 .013.002.019.002 1.713 0 3.102-1.389 3.102-3.102s-1.388-3.103-3.102-3.103z"/><path d="m117.181 345.281c-1.713 0-3.102 1.389-3.102 3.103 0 1.713 1.389 3.102 3.102 3.102s3.102-1.389 3.102-3.102c0-1.714-1.389-3.103-3.102-3.103z"/><path d="m106.804 355.657c-.006 0-.012.002-.019.002v6.201c.007 0 .013.002.019.002 1.713 0 3.102-1.389 3.102-3.102s-1.388-3.103-3.102-3.103z"/><path d="m117.181 365.281c-1.713 0-3.102 1.389-3.102 3.103 0 1.713 1.389 3.102 3.102 3.102s3.102-1.389 3.102-3.102c0-1.714-1.389-3.103-3.102-3.103z"/><path d="m106.804 375.657c-.006 0-.012.002-.019.002v6.201c.007 0 .013.002.019.002 1.713 0 3.102-1.389 3.102-3.102s-1.388-3.103-3.102-3.103z"/><path d="m117.181 385.281c-1.713 0-3.102 1.389-3.102 3.103 0 1.713 1.389 3.102 3.102 3.102s3.102-1.389 3.102-3.102c0-1.714-1.389-3.103-3.102-3.103z"/><path d="m106.804 395.657c-.006 0-.012.002-.019.002v6.201c.007 0 .013.002.019.002 1.713 0 3.102-1.389 3.102-3.102s-1.388-3.103-3.102-3.103z"/><path d="m117.181 405.281c-1.713 0-3.102 1.389-3.102 3.103 0 1.713 1.389 3.102 3.102 3.102s3.102-1.389 3.102-3.102c0-1.714-1.389-3.103-3.102-3.103z"/><path d="m106.804 415.657c-.006 0-.012.002-.019.002v6.201c.007 0 .013.002.019.002 1.713 0 3.102-1.389 3.102-3.102s-1.388-3.103-3.102-3.103z"/><path d="m512.005 307c0-2.209-1.791-4-4-4h-163.811v-159.602c0-2.209-1.791-4-4-4h-168.046c-2.209 0-4 1.791-4 4v82.247h-164.148c-2.209 0-4 1.791-4 4l.003 278.355c0 2.175 1.764 3.94 3.94 3.94h504.117c2.176 0 3.94-1.764 3.94-3.94zm-503.906 117.812v-191.167h160.048v2.33c-.408-.197-.86-.317-1.343-.317-1.713 0-3.102 1.389-3.102 3.103s1.389 3.102 3.102 3.102c.483 0 .935-.12 1.343-.317v14.43c-.408-.197-.86-.317-1.343-.317-1.713 0-3.102 1.389-3.102 3.103s1.389 3.102 3.102 3.102c.483 0 .935-.12 1.343-.317v14.43c-.408-.197-.86-.317-1.343-.317-1.713 0-3.102 1.389-3.102 3.103s1.389 3.102 3.102 3.102c.483 0 .935-.12 1.343-.317v14.43c-.408-.197-.86-.317-1.343-.317-1.713 0-3.102 1.389-3.102 3.103s1.389 3.102 3.102 3.102c.483 0 .935-.12 1.343-.317v14.43c-.408-.197-.86-.317-1.343-.317-1.713 0-3.102 1.389-3.102 3.103s1.389 3.102 3.102 3.102c.483 0 .935-.12 1.343-.317v14.43c-.408-.197-.86-.317-1.343-.317-1.713 0-3.102 1.389-3.102 3.103s1.389 3.102 3.102 3.102c.483 0 .935-.12 1.343-.317v14.43c-.408-.197-.86-.317-1.343-.317-1.713 0-3.102 1.389-3.102 3.103s1.389 3.102 3.102 3.102c.483 0 .935-.12 1.343-.317v14.43c-.408-.197-.86-.317-1.343-.317-1.713 0-3.102 1.389-3.102 3.103s1.389 3.102 3.102 3.102c.483 0 .935-.12 1.343-.317v14.43c-.408-.197-.86-.317-1.343-.317-1.713 0-3.102 1.389-3.102 3.103s1.389 3.102 3.102 3.102c.483 0 .935-.12 1.343-.317v14.43c-.408-.197-.86-.317-1.343-.317-1.713 0-3.102 1.389-3.102 3.103s1.389 3.102 3.102 3.102c.483 0 .935-.12 1.343-.317v3.268h-160.048zm168.049-195.167v-82.247h98.114v1.997c.421 1.214 1.562 2.09 2.919 2.09 1.713 0 3.102-1.389 3.102-3.102 0-.347-.07-.674-.175-.985h14.145c-.105.311-.175.639-.175.985 0 1.713 1.389 3.102 3.102 3.102s3.102-1.389 3.102-3.102c0-.347-.07-.674-.175-.985h14.145c-.105.311-.175.639-.175.985 0 1.713 1.389 3.102 3.102 3.102s3.102-1.389 3.102-3.102c0-.347-.07-.674-.175-.985h14.145c-.105.311-.175.639-.175.985 0 1.366.889 2.513 2.116 2.927v14.146c-1.227.414-2.116 1.561-2.116 2.927s.889 2.513 2.116 2.927v14.146c-1.227.414-2.116 1.561-2.116 2.927s.889 2.513 2.116 2.927v14.146c-1.227.414-2.116 1.561-2.116 2.927s.889 2.513 2.116 2.927v14.146c-1.227.414-2.116 1.561-2.116 2.927s.889 2.513 2.116 2.927v14.146c-1.227.414-2.116 1.561-2.116 2.927s.889 2.513 2.116 2.927v14.146c-1.227.414-2.116 1.561-2.116 2.927s.889 2.513 2.116 2.927v14.146c-1.227.414-2.116 1.561-2.116 2.927s.889 2.513 2.116 2.927v14.146c-1.227.414-2.116 1.561-2.116 2.927s.889 2.513 2.116 2.927v14.146c-1.227.414-2.116 1.561-2.116 2.927s.889 2.513 2.116 2.927v14.146c-1.227.414-2.116 1.561-2.116 2.927s.889 2.513 2.116 2.927v14.146c-1.227.414-2.116 1.561-2.116 2.927s.889 2.513 2.116 2.927v14.146c-1.227.414-2.116 1.561-2.116 2.927s.889 2.513 2.116 2.927v14.146c-1.227.414-2.116 1.561-2.116 2.927s.889 2.513 2.116 2.927v13.502h-160.044zm168.046 195.167v-113.812h111.333c.479.304 1.044.486 1.653.486s1.174-.182 1.653-.486h16.694c.479.304 1.044.486 1.653.486s1.174-.182 1.653-.486h16.694c.479.304 1.044.486 1.653.486s1.174-.182 1.653-.486h5.408v6.013c-.34.498-.54 1.099-.54 1.747s.2 1.249.54 1.747v16.506c-.34.498-.54 1.099-.54 1.747s.2 1.249.54 1.747v16.506c-.34.498-.54 1.099-.54 1.747s.2 1.249.54 1.747v16.506c-.34.498-.54 1.099-.54 1.747s.2 1.249.54 1.747v16.506c-.34.498-.54 1.099-.54 1.747s.2 1.249.54 1.747v16.506c-.34.498-.54 1.099-.54 1.747s.2 1.249.54 1.747v4.305z"/><path d="m218.632 72.343c.158.153.229.373.192.589l-4.021 23.442c-.875 5.103 1.184 10.164 5.373 13.209 2.367 1.72 5.137 2.594 7.926 2.594 2.146 0 4.304-.518 6.297-1.565l21.052-11.068c.193-.102.426-.103.619.001l21.054 11.067c1.945 1.021 4.12 1.562 6.293 1.562 2.855 0 5.597-.896 7.93-2.591 4.189-3.044 6.247-8.105 5.372-13.208l-4.021-23.443c-.037-.216.034-.436.191-.588l17.032-16.602c3.708-3.615 5.018-8.92 3.418-13.844-1.6-4.926-5.778-8.447-10.903-9.192l-23.537-3.42c-.217-.032-.403-.167-.5-.364l-10.527-21.329c-2.292-4.644-6.933-7.528-12.111-7.528s-9.818 2.885-12.11 7.528l-10.526 21.328c-.097.196-.284.332-.501.364l-23.537 3.42c-5.125.745-9.303 4.268-10.902 9.191-1.599 4.926-.29 10.231 3.418 13.845zm-12.839-27.974c.651-2.007 2.355-3.443 4.443-3.747l23.536-3.419c2.823-.41 5.263-2.182 6.525-4.74l10.526-21.328c.935-1.894 2.826-3.069 4.937-3.069s4.003 1.176 4.938 3.069l10.525 21.326c1.262 2.559 3.7 4.331 6.525 4.741l23.537 3.42c2.09.304 3.793 1.74 4.444 3.748.652 2.007.119 4.17-1.393 5.644l-17.033 16.602c-2.042 1.991-2.972 4.858-2.49 7.669l4.021 23.442c.356 2.081-.482 4.145-2.19 5.385-1.688 1.227-3.949 1.392-5.799.419l-21.052-11.066c-1.263-.664-2.648-.996-4.032-.996-1.385 0-2.771.332-4.032.995l-21.051 11.068c-1.867.981-4.09.82-5.798-.419-1.708-1.241-2.547-3.305-2.19-5.386l4.02-23.441c.482-2.81-.449-5.678-2.492-7.67l-17.031-16.602c-1.513-1.474-2.047-3.637-1.394-5.645z"/></g></svg>