<svg id="Capa_1" enable-background="new 0 0 509.152 509.152" height="512" viewBox="0 0 509.152 509.152" width="512" xmlns="http://www.w3.org/2000/svg"><g><path d="m291.415 461.508c1.713 0 3.102-1.389 3.102-3.103 0-1.713-1.389-3.102-3.102-3.102s-3.102 1.389-3.102 3.102c0 1.714 1.389 3.103 3.102 3.103z"/><path d="m271.415 441.508c1.713 0 3.102-1.389 3.102-3.103 0-1.579-1.185-2.868-2.712-3.062-.791 1.684-1.777 3.297-2.949 4.814.56.815 1.496 1.351 2.559 1.351z"/><path d="m281.792 451.132c1.713 0 3.102-1.39 3.102-3.103 0-1.714-1.389-3.103-3.102-3.103s-3.102 1.389-3.102 3.103c-.001 1.713 1.388 3.103 3.102 3.103z"/><path d="m271.415 461.508c1.713 0 3.102-1.389 3.102-3.103 0-1.713-1.389-3.102-3.102-3.102s-3.102 1.389-3.102 3.102c0 1.714 1.389 3.103 3.102 3.103z"/><path d="m281.792 471.132c1.713 0 3.102-1.39 3.102-3.103 0-1.714-1.389-3.103-3.102-3.103s-3.102 1.389-3.102 3.103c-.001 1.713 1.388 3.103 3.102 3.103z"/><path d="m271.415 481.508c1.713 0 3.102-1.389 3.102-3.103 0-1.713-1.389-3.102-3.102-3.102s-3.102 1.389-3.102 3.102c0 1.714 1.389 3.103 3.102 3.103z"/><path d="m261.792 451.132c1.713 0 3.102-1.39 3.102-3.103 0-.982-.466-1.848-1.179-2.416l-4.34 4.34c.569.713 1.434 1.179 2.417 1.179z"/><path d="m251.415 461.508c1.713 0 3.102-1.389 3.102-3.103 0-.982-.466-1.848-1.178-2.416l-4.34 4.34c.568.713 1.434 1.179 2.416 1.179z"/><path d="m261.792 471.132c1.713 0 3.102-1.39 3.102-3.103 0-1.714-1.389-3.103-3.102-3.103s-3.102 1.389-3.102 3.103c-.001 1.713 1.388 3.103 3.102 3.103z"/><path d="m251.415 481.508c1.713 0 3.102-1.389 3.102-3.103 0-1.713-1.389-3.102-3.102-3.102s-3.102 1.389-3.102 3.102c0 1.714 1.389 3.103 3.102 3.103z"/><path d="m261.792 491.132c1.713 0 3.102-1.39 3.102-3.103 0-1.714-1.389-3.103-3.102-3.103s-3.102 1.389-3.102 3.103c-.001 1.713 1.388 3.103 3.102 3.103z"/><path d="m241.792 471.132c1.713 0 3.102-1.39 3.102-3.103 0-.982-.466-1.848-1.179-2.416l-1.253 1.253c-1.028 1.027-2.135 1.955-3.303 2.788.547.883 1.517 1.478 2.633 1.478z"/><path d="m231.415 481.508c1.713 0 3.102-1.389 3.102-3.103 0-1.713-1.389-3.102-3.102-3.102s-3.102 1.389-3.102 3.102c0 1.714 1.389 3.103 3.102 3.103z"/><path d="m241.792 491.132c1.713 0 3.102-1.39 3.102-3.103 0-1.714-1.389-3.103-3.102-3.103s-3.102 1.389-3.102 3.103c-.001 1.713 1.388 3.103 3.102 3.103z"/><path d="m211.415 481.508c1.713 0 3.102-1.389 3.102-3.103 0-1.713-1.389-3.102-3.102-3.102s-3.102 1.389-3.102 3.102c0 1.714 1.389 3.103 3.102 3.103z"/><path d="m221.792 491.132c1.713 0 3.102-1.39 3.102-3.103 0-1.714-1.389-3.103-3.102-3.103s-3.102 1.389-3.102 3.103c-.001 1.713 1.388 3.103 3.102 3.103z"/><path d="m191.415 481.508c1.713 0 3.102-1.389 3.102-3.103 0-1.713-1.389-3.102-3.102-3.102s-3.102 1.389-3.102 3.102c0 1.714 1.389 3.103 3.102 3.103z"/><path d="m201.792 491.132c1.713 0 3.102-1.39 3.102-3.103 0-1.714-1.389-3.103-3.102-3.103s-3.102 1.389-3.102 3.103c-.001 1.713 1.388 3.103 3.102 3.103z"/><path d="m181.792 491.132c1.713 0 3.102-1.39 3.102-3.103 0-1.714-1.389-3.103-3.102-3.103s-3.102 1.389-3.102 3.103c-.001 1.713 1.388 3.103 3.102 3.103z"/><path d="m131.415 41.508c1.713 0 3.102-1.389 3.102-3.103 0-1.713-1.389-3.102-3.102-3.102s-3.102 1.389-3.102 3.102c0 1.714 1.389 3.103 3.102 3.103z"/><path d="m131.415 61.508c1.713 0 3.102-1.389 3.102-3.103 0-1.713-1.389-3.102-3.102-3.102s-3.102 1.389-3.102 3.102c0 1.714 1.389 3.103 3.102 3.103z"/><path d="m141.792 71.132c1.713 0 3.102-1.39 3.102-3.103 0-1.714-1.389-3.103-3.102-3.103s-3.102 1.389-3.102 3.103c-.001 1.713 1.388 3.103 3.102 3.103z"/><path d="m131.415 81.508c1.713 0 3.102-1.389 3.102-3.103 0-1.713-1.389-3.101-3.102-3.101s-3.102 1.389-3.102 3.101c0 1.714 1.389 3.103 3.102 3.103z"/><path d="m141.792 91.132c1.713 0 3.102-1.39 3.102-3.103 0-1.714-1.389-3.103-3.102-3.103s-3.102 1.389-3.102 3.103c-.001 1.713 1.388 3.103 3.102 3.103z"/><path d="m131.415 101.508c1.713 0 3.102-1.389 3.102-3.103 0-1.713-1.389-3.101-3.102-3.101s-3.102 1.389-3.102 3.101c0 1.714 1.389 3.103 3.102 3.103z"/><path d="m131.415 121.508c1.713 0 3.102-1.389 3.102-3.103 0-1.713-1.389-3.101-3.102-3.101s-3.102 1.389-3.102 3.101c0 1.714 1.389 3.103 3.102 3.103z"/><path d="m124.894 28.029c0-1.714-1.389-3.103-3.102-3.103-.162 0-.317.024-.472.048.712 1.895 1.345 3.827 1.904 5.791.988-.518 1.67-1.542 1.67-2.736z"/><path d="m124.894 68.029c0-.584-.171-1.124-.451-1.59-.3 1.425-.65 2.83-1.03 4.224.885-.546 1.481-1.517 1.481-2.634z"/><path d="m121.792 91.132c1.713 0 3.102-1.39 3.102-3.103 0-1.714-1.389-3.103-3.102-3.103s-3.102 1.389-3.102 3.103c-.001 1.713 1.388 3.103 3.102 3.103z"/><path d="m111.415 101.508c1.713 0 3.102-1.389 3.102-3.103 0-1.708-1.381-3.092-3.087-3.101-.967 1.303-1.984 2.563-3.033 3.798.318 1.377 1.545 2.406 3.018 2.406z"/><path d="m121.792 111.132c1.713 0 3.102-1.39 3.102-3.103 0-1.714-1.389-3.103-3.102-3.103s-3.102 1.389-3.102 3.103c-.001 1.713 1.388 3.103 3.102 3.103z"/><path d="m111.415 121.508c1.713 0 3.102-1.389 3.102-3.103 0-1.713-1.389-3.101-3.102-3.101s-3.102 1.389-3.102 3.101c0 1.714 1.389 3.103 3.102 3.103z"/><path d="m121.792 131.132c1.713 0 3.102-1.39 3.102-3.103 0-1.714-1.389-3.103-3.102-3.103s-3.102 1.389-3.102 3.103c-.001 1.713 1.388 3.103 3.102 3.103z"/><path d="m101.792 111.132c1.713 0 3.102-1.39 3.102-3.103 0-1.388-.918-2.549-2.175-2.945-1.285 1.213-2.604 2.389-3.973 3.509.266 1.443 1.525 2.539 3.046 2.539z"/><path d="m91.415 121.508c1.713 0 3.102-1.389 3.102-3.103 0-1.713-1.389-3.101-3.102-3.101s-3.102 1.389-3.102 3.101c0 1.714 1.389 3.103 3.102 3.103z"/><path d="m101.792 131.132c1.713 0 3.102-1.39 3.102-3.103 0-1.714-1.389-3.103-3.102-3.103s-3.102 1.389-3.102 3.103c-.001 1.713 1.388 3.103 3.102 3.103z"/><path d="m91.415 141.508c1.713 0 3.102-1.389 3.102-3.103 0-1.713-1.389-3.102-3.102-3.102s-3.102 1.389-3.102 3.102c0 1.714 1.389 3.103 3.102 3.103z"/><path d="m81.792 131.132c1.713 0 3.102-1.39 3.102-3.103 0-1.714-1.389-3.103-3.102-3.103s-3.102 1.389-3.102 3.103c-.001 1.713 1.388 3.103 3.102 3.103z"/><path d="m71.415 141.508c1.713 0 3.102-1.389 3.102-3.103 0-1.713-1.389-3.102-3.102-3.102s-3.102 1.389-3.102 3.102c0 1.714 1.389 3.103 3.102 3.103z"/><path d="m61.792 131.132c1.713 0 3.102-1.39 3.102-3.103 0-1.714-1.389-3.103-3.102-3.103s-3.102 1.389-3.102 3.103c-.001 1.713 1.388 3.103 3.102 3.103z"/><path d="m51.415 141.508c1.713 0 3.102-1.389 3.102-3.103 0-1.713-1.389-3.102-3.102-3.102s-3.102 1.389-3.102 3.102c0 1.714 1.389 3.103 3.102 3.103z"/><path d="m41.792 131.132c1.713 0 3.102-1.39 3.102-3.103 0-1.714-1.389-3.103-3.102-3.103s-3.102 1.389-3.102 3.103c-.001 1.713 1.388 3.103 3.102 3.103z"/><path d="m508.455 86.854c0-4.894-1.906-9.494-5.366-12.954l-14.761-14.761c-3.46-3.461-8.062-5.366-12.955-5.366-4.894 0-9.494 1.905-12.955 5.366l-268.42 268.421c-38.692-38.665-73.163-73.101-73.265-73.165-16.537-14.534-52.048-3.072-81.869 26.75-14.194 14.194-24.797 30.37-29.856 45.546-5.175 15.523-3.996 28.407 3.26 36.491.117.158 134.879 134.96 134.879 134.96 5.479 5.478 12.761 8.604 20.504 8.802l86.248 2.199c.253.006.504.01.757.01 7.938 0 15.658-3.188 21.281-8.812l24.178-24.178c11.729-11.728 11.729-30.813 0-42.542 0 0-29.985-29.974-65.436-65.404l268.41-268.409c3.46-3.46 5.366-8.061 5.366-12.954zm-491.858 242.367c4.673-14.022 14.59-29.086 27.924-42.42 13.333-13.333 28.398-23.25 42.419-27.924 5.497-1.833 10.585-2.74 15.055-2.74 6.015 0 10.909 1.646 14.163 4.899 12.433 12.433.634 45.238-25.764 71.638-26.398 26.397-59.205 38.193-71.637 25.764-5.672-5.671-6.459-16.321-2.16-29.217zm105.288 34.945c-26.39 26.39-59.181 38.188-71.624 25.775l-18.59-18.59c.382.011.763.021 1.151.021 5.347 0 11.293-1.057 17.682-3.186 15.177-5.059 31.352-15.662 45.547-29.857 21.631-21.631 33.595-46.254 32.998-64.463l18.336 18.336c.088.108.165.224.266.325 12.432 12.434.633 45.24-25.766 71.639zm135.117 37.655 16.6 16.6c.132.583.262 1.167.355 1.757.201-.287.348-.612.444-.958l6.033 6.032c-1.029.505-1.744 1.554-1.744 2.777 0 1.713 1.389 3.103 3.102 3.103 1.224 0 2.272-.715 2.777-1.744l6.037 6.036c-1.318.358-2.292 1.551-2.292 2.981 0 1.714 1.389 3.103 3.102 3.103 1.431 0 2.624-.974 2.982-2.292l.061.062c2.088 2.088 3.659 4.497 4.734 7.066-.316.485-.503 1.062-.503 1.686 0 1.267.762 2.353 1.85 2.835 1.272 6.908-.75 14.311-6.082 19.643l-24.178 24.178c-4.259 4.259-10.164 6.633-16.177 6.46l-1.204-.03c.96-.528 1.618-1.536 1.618-2.709 0-1.713-1.389-3.102-3.102-3.102s-3.102 1.389-3.102 3.102c0 1.113.591 2.082 1.472 2.629l-16.202-.413c.576-.563.935-1.347.935-2.216 0-1.713-1.389-3.102-3.102-3.102s-3.102 1.389-3.102 3.102c0 .814.32 1.55.833 2.103l-15.149-.386c.327-.492.52-1.081.52-1.717 0-1.713-1.389-3.102-3.102-3.102s-3.102 1.389-3.102 3.102c0 .581.17 1.118.447 1.583l-14.49-.369c.159-.373.247-.783.247-1.214 0-1.713-1.389-3.102-3.102-3.102s-3.102 1.389-3.102 3.102c0 .377.077.732.2 1.066l-14.084-.358c.053-.228.089-.464.089-.708 0-1.713-1.389-3.102-3.102-3.102s-3.102 1.389-3.102 3.102c0 .189.023.373.056.553l-.513-.013c-2.325-.06-4.586-.495-6.728-1.25zm-27.98-39.259c-9.646-9.642-19.592-19.581-29.366-29.349l64.26-64.26 29.356 29.357zm268.41-268.411-198.503 198.503-29.356-29.357 198.503-198.502c1.949-1.949 4.54-3.022 7.297-3.022 2.756 0 5.348 1.073 7.297 3.022l14.761 14.761c1.949 1.949 3.023 4.541 3.023 7.298.001 2.756-1.073 5.348-3.022 7.297z"/><path d="m78.994 156.593c43.173 0 78.296-35.124 78.296-78.297s-35.124-78.296-78.296-78.296c-43.173 0-78.297 35.123-78.297 78.296s35.124 78.297 78.297 78.297zm0-148.593c26.749 0 50.05 15.02 61.928 37.065-1.286.379-2.232 1.555-2.232 2.964 0 1.713 1.389 3.103 3.102 3.103.666 0 1.279-.214 1.785-.571 3.409 7.906 5.393 16.56 5.661 25.639-.57.562-.924 1.343-.924 2.206 0 .861.352 1.64.919 2.202-.288 8.851-2.199 17.298-5.479 25.035-.536-.44-1.213-.716-1.96-.716-1.713 0-3.102 1.389-3.102 3.103 0 1.495 1.059 2.743 2.468 3.037-6.135 11.59-15.413 21.262-26.695 27.885.032-.178.055-.359.055-.546 0-1.713-1.389-3.102-3.102-3.102s-3.102 1.389-3.102 3.102c0 1.283.779 2.384 1.889 2.855-2.912 1.449-5.939 2.698-9.063 3.737-.221.048-.432.123-.633.215-4.995 1.609-10.233 2.666-15.642 3.116.01-.101.03-.197.03-.3 0-1.714-1.389-3.103-3.102-3.103s-3.102 1.389-3.102 3.103c0 .19.023.376.056.557-4.792-.017-9.473-.512-13.997-1.446-.384-1.276-1.555-2.213-2.957-2.213-.862 0-1.641.353-2.203.92-29.35-8.444-50.891-35.521-50.891-67.551-.004-38.762 31.531-70.296 70.293-70.296z"/></g></svg>