<svg id="Capa_1" enable-background="new 0 0 511.629 511.629" height="512" viewBox="0 0 511.629 511.629" width="512" xmlns="http://www.w3.org/2000/svg"><g><path d="m137.924 398.59c1.713 0 3.102-1.389 3.102-3.102s-1.389-3.103-3.102-3.103-3.102 1.389-3.102 3.103 1.389 3.102 3.102 3.102z"/><path d="m128.301 388.214c1.713 0 3.102-1.389 3.102-3.102s-1.389-3.103-3.102-3.103c-.391 0-.762.081-1.107.213l-1.802 1.843c-.118.328-.194.678-.194 1.047 0 1.713 1.389 3.102 3.103 3.102z"/><path d="m117.924 398.59c1.713 0 3.102-1.389 3.102-3.102s-1.389-3.103-3.102-3.103c-.269 0-.525.045-.773.109l-2.243 2.294c-.052.225-.086.457-.086.699 0 1.715 1.389 3.103 3.102 3.103z"/><path d="m128.301 408.214c1.713 0 3.102-1.389 3.102-3.102s-1.389-3.103-3.102-3.103-3.102 1.389-3.102 3.103c-.001 1.713 1.388 3.102 3.102 3.102z"/><path d="m117.924 418.59c1.713 0 3.102-1.389 3.102-3.102s-1.389-3.103-3.102-3.103-3.102 1.389-3.102 3.103 1.389 3.102 3.102 3.102z"/><path d="m108.301 408.214c1.713 0 3.102-1.389 3.102-3.102s-1.389-3.103-3.102-3.103c-.172 0-.337.024-.501.051l-2.558 2.616c-.02.144-.044.286-.044.436 0 1.713 1.389 3.102 3.103 3.102z"/><path d="m97.924 438.59c1.713 0 3.102-1.389 3.102-3.102s-1.389-3.103-3.102-3.103-3.102 1.389-3.102 3.103 1.389 3.102 3.102 3.102z"/><path d="m88.301 428.214c1.713 0 3.102-1.389 3.102-3.102s-1.389-3.103-3.102-3.103c-.001 0-.003 0-.004 0l-3.092 3.163c.033 1.686 1.403 3.042 3.096 3.042z"/><path d="m77.924 438.59c1.713 0 3.102-1.389 3.102-3.102 0-1.642-1.28-2.972-2.894-3.082l-3.283 3.358c.143 1.582 1.457 2.826 3.075 2.826z"/><path d="m88.301 448.214c1.713 0 3.102-1.389 3.102-3.102s-1.389-3.103-3.102-3.103-3.102 1.389-3.102 3.103c-.001 1.713 1.388 3.102 3.102 3.102z"/><path d="m77.924 458.59c1.713 0 3.102-1.389 3.102-3.102s-1.389-3.103-3.102-3.103-3.102 1.389-3.102 3.103 1.389 3.102 3.102 3.102z"/><path d="m68.705 442.05-3.459 3.538c.231 1.486 1.504 2.626 3.054 2.626 1.713 0 3.102-1.389 3.102-3.102.001-1.575-1.177-2.861-2.697-3.062z"/><path d="m57.924 478.59c1.713 0 3.102-1.389 3.102-3.102s-1.389-3.103-3.102-3.103-3.102 1.389-3.102 3.103 1.389 3.102 3.102 3.102z"/><path d="m48.301 468.214c1.713 0 3.102-1.389 3.102-3.102 0-1.441-.988-2.642-2.32-2.99l-3.753 3.838c.372 1.298 1.554 2.254 2.971 2.254z"/><path d="m37.924 478.59c1.713 0 3.102-1.389 3.102-3.102 0-1.376-.901-2.529-2.141-2.935l-3.875 3.963c.426 1.206 1.563 2.074 2.914 2.074z"/><path d="m48.301 488.214c1.713 0 3.102-1.389 3.102-3.102s-1.389-3.103-3.102-3.103-3.102 1.389-3.102 3.103c-.001 1.713 1.388 3.102 3.102 3.102z"/><path d="m37.924 492.386c-1.713 0-3.102 1.389-3.102 3.103 0 1.713 1.389 3.102 3.102 3.102s3.102-1.389 3.102-3.102c0-1.714-1.389-3.103-3.102-3.103z"/><path d="m29.427 482.228-3.988 4.08c.468 1.12 1.573 1.906 2.862 1.906 1.713 0 3.102-1.389 3.102-3.102 0-1.315-.821-2.432-1.976-2.884z"/><path d="m488.301 408.214c1.713 0 3.102-1.389 3.102-3.102s-1.389-3.103-3.102-3.103c-.657 0-1.264.207-1.766.556.365 1.811.662 3.646.881 5.505.282.085.575.144.885.144z"/><path d="m488.301 422.009c-.235 0-.463.031-.683.081-.168 1.945-.418 3.865-.744 5.76.429.225.91.363 1.427.363 1.713 0 3.102-1.389 3.102-3.102 0-1.712-1.389-3.102-3.102-3.102z"/><path d="m488.301 442.009c-1.713 0-3.102 1.389-3.102 3.103 0 1.713 1.389 3.102 3.102 3.102s3.102-1.389 3.102-3.102-1.389-3.103-3.102-3.103z"/><path d="m477.924 452.386c-.152 0-.298.024-.444.045-.811 1.296-1.666 2.561-2.56 3.797.333 1.355 1.547 2.362 3.004 2.362 1.713 0 3.102-1.389 3.102-3.102s-1.388-3.102-3.102-3.102z"/><path d="m488.301 462.009c-1.713 0-3.102 1.389-3.102 3.103 0 1.713 1.389 3.102 3.102 3.102s3.102-1.389 3.102-3.102-1.389-3.103-3.102-3.103z"/><path d="m477.924 472.386c-1.713 0-3.102 1.389-3.102 3.103 0 1.713 1.389 3.102 3.102 3.102s3.102-1.389 3.102-3.102c0-1.714-1.388-3.103-3.102-3.103z"/><path d="m469.862 462.445c-1.348 1.469-2.758 2.88-4.229 4.226.539.919 1.525 1.543 2.667 1.543 1.713 0 3.102-1.389 3.102-3.102.001-1.141-.622-2.128-1.54-2.667z"/><path d="m458.408 472.435c-1.137.79-2.291 1.559-3.477 2.28-.064.249-.109.505-.109.773 0 1.713 1.389 3.102 3.102 3.102s3.102-1.389 3.102-3.102c0-1.547-1.136-2.819-2.618-3.053z"/><path d="m468.301 482.009c-1.713 0-3.102 1.389-3.102 3.103 0 1.713 1.389 3.102 3.102 3.102s3.102-1.389 3.102-3.102-1.389-3.103-3.102-3.103z"/><path d="m448.301 482.009c-1.713 0-3.102 1.389-3.102 3.103 0 1.713 1.389 3.102 3.102 3.102s3.102-1.389 3.102-3.102-1.389-3.103-3.102-3.103z"/><path d="m428.301 488.214c1.713 0 3.102-1.389 3.102-3.102 0-.533-.147-1.027-.383-1.465-1.884.323-3.793.569-5.726.735-.057.235-.095.477-.095.73-.001 1.713 1.388 3.102 3.102 3.102z"/><path d="m411.241 484.169c-1.839-.218-3.654-.513-5.445-.874-.372.512-.598 1.136-.598 1.817 0 1.713 1.389 3.102 3.102 3.102s3.102-1.389 3.102-3.102c.001-.332-.065-.645-.161-.943z"/><path d="m511.392 434.588c-.551-39.316-32.511-71.163-71.872-71.521-.004 0-.008-.001-.012-.001l-.177-.005c-.152-.006-.305-.01-.457-.01-.007 0-.014-.001-.021-.001-40.012 0-72.565 32.552-72.565 72.565s32.553 72.564 72.565 72.564c.343 0 .681-.021 1.023-.026h.003.005c39.537-.556 71.534-32.872 71.534-72.539 0-.334-.021-.663-.025-.996 0-.009-.001-.02-.001-.03zm-75.311-63.377c.426 2.846.653 5.717.653 8.575 0 30.769-24.095 55.803-53.711 55.803-2.871 0-5.76-.249-8.626-.735.401-34.274 27.668-62.196 61.684-63.643zm-61.256 71.875c2.728.378 5.469.593 8.198.593 34.077 0 61.802-28.663 61.802-63.893 0-2.799-.202-5.608-.561-8.401 25.092 2.097 46.137 18.614 54.805 41.226-.355-.142-.74-.225-1.145-.225-1.713 0-3.102 1.389-3.102 3.103 0 1.713 1.389 3.102 3.102 3.102 1.141 0 2.128-.623 2.667-1.541 1.247 4.138 2.083 8.449 2.472 12.888-2.123-.229-4.246-.356-6.351-.356-34.077 0-61.801 28.662-61.801 63.893 0 .405.019.813.027 1.219-.068.255-.116.519-.116.795 0 .33.065.641.16.938.054 1.182.148 2.368.266 3.556-5.143-.285-10.123-1.181-14.878-2.607.405-.524.656-1.173.656-1.887 0-1.713-1.389-3.103-3.102-3.103-1.693 0-3.063 1.357-3.096 3.042-21.471-8.656-37.242-28.538-40.003-52.342zm86.115 53.105c.053-.227.087-.46.087-.702 0-1.713-1.389-3.103-3.102-3.103s-3.102 1.389-3.102 3.103c0 .92.408 1.738 1.044 2.306-4.02 1.101-8.195 1.819-12.485 2.118-.244-2.16-.38-4.315-.38-6.438 0-30.434 23.576-55.239 52.748-55.776.56.551 1.327.893 2.175.893.795 0 1.512-.308 2.061-.799 1.091.07 2.185.173 3.279.311-.21 5.508-1.113 10.839-2.626 15.912-.526-.965-1.537-1.628-2.714-1.628-1.713 0-3.102 1.389-3.102 3.103 0 1.713 1.389 3.102 3.102 3.102.452 0 .878-.102 1.265-.275-6.615 17.519-20.644 31.433-38.25 37.873z"/><path d="m216.401 338.08c-18.247-11.71-32.875-26.331-43.477-43.457-.849-1.372-2.434-2.114-4.029-1.873-1.596.235-2.9 1.397-3.318 2.955l-16.373 61.104c-.374 1.396.025 2.886 1.047 3.907.769.77 1.802 1.185 2.861 1.185.349 0 .701-.045 1.047-.138l61.105-16.373c1.547-.414 2.704-1.703 2.951-3.285.245-1.582-.466-3.16-1.814-4.025zm-57.569 14.055 12.245-45.697c9.04 12.647 20.284 23.842 33.566 33.423z"/><path d="m440.36 71.267c-26.486-26.486-63.757-38.947-104.956-35.092-40.91 3.832-80.832 23.333-112.41 54.911-65.392 65.392-74.283 162.901-19.82 217.365 23.984 23.984 56.305 35.68 90.565 35.68 43.54 0 90.206-18.904 126.801-55.5 65.392-65.391 74.283-162.9 19.82-217.364zm-225.961 236.591c-1.881-1.639-3.72-3.343-5.504-5.127-3.052-3.052-5.883-6.253-8.511-9.58h14.015zm0-22.797h-19.826c-9.667-14.838-15.603-31.777-17.913-49.7h37.739zm0-57.791h-38.53c-1.322-19.54 1.521-40.017 8.39-60.051h30.14zm0-68.141h-27.139c6.441-16.103 15.511-31.787 27.139-46.322zm66.848 176.38c-21.526-1.955-41.805-9.024-58.957-21.39h.2v-20.969h58.757zm0-50.448h-58.757v-49.7h58.757zm0-57.791h-58.757v-60.051h58.757zm0-68.141h-58.757v-51.855h58.757zm0-59.947h-54.858c.769-.795 1.54-1.59 2.326-2.375 15.705-15.705 33.546-28.281 52.532-37.263zm62.103 228.549c-18 6.04-36.337 8.826-54.013 8.271v-42.851h54.013zm0-42.67h-54.013v-49.7h54.013zm0-57.791h-54.013v-60.051h54.013zm0-68.141h-54.013v-51.855h54.013zm0-59.947h-54.013v-43.227c15.143-6.247 30.909-10.233 46.821-11.723 2.413-.226 4.81-.39 7.192-.498zm72.782-37.082c6.651 4.262 12.848 9.228 18.507 14.887 6.741 6.742 12.433 14.197 17.111 22.195h-35.618zm0 45.173h39.921c7.617 15.868 11.55 33.522 11.902 51.855h-51.823zm-64.691 217.508v-31.63h52.303c-16.201 13.869-33.994 24.446-52.303 31.63zm56.6-39.72h-56.6v-49.7h56.6zm0-57.791h-56.6v-60.051h56.6zm0-68.141h-56.6v-51.855h56.6zm0-59.947h-56.6v-55.584c20.611.22 39.83 4.934 56.6 13.788zm8.091 182.388v-46.21h33.433c-8.361 16.371-19.536 32.046-33.433 46.21zm37.306-54.3h-37.306v-60.051h51.744c-.744 19.885-5.6 40.359-14.438 60.051z"/><path d="m510.78 172.914c4.742-50.633-10.565-96.435-43.099-128.969-32.535-32.535-78.34-47.839-128.969-43.1-50.347 4.715-99.485 28.722-138.362 67.598-23.154 23.154-40.917 49.672-52.794 78.82-11.352 27.858-16.697 57.345-15.456 85.277l.236 5.118c4.723 67.492-10.575 106.861-15.453 117.479-5.067-1.366-10.707-.077-14.677 3.894l-97.772 97.774c-5.907 5.907-5.907 15.518 0 21.424l28.963 28.962c2.861 2.862 6.666 4.438 10.713 4.438s7.851-1.575 10.713-4.438l97.773-97.773c3.985-3.984 5.27-9.652 3.879-14.734 10.613-4.887 49.742-20.092 117.129-15.373.042.003.085.005.127.007l5.041.193c27.968 1.291 57.511-4.026 85.43-15.377 29.209-11.876 55.782-29.66 78.982-52.86 38.875-38.875 62.882-88.013 67.596-138.36zm-402.852 191.838c1.376-1.376 3.184-2.064 4.991-2.064s3.616.688 4.992 2.064l28.963 28.963c1.333 1.334 2.068 3.106 2.068 4.992 0 1.178-.287 2.312-.826 3.322-1.625.098-2.917 1.434-2.917 3.084 0 .082.017.159.023.239l-7.058 7.058c-.08-.006-.157-.023-.239-.023-1.713 0-3.102 1.389-3.102 3.103 0 .082.017.159.023.239l-6.305 6.306c-.08-.006-.157-.023-.239-.023-1.713 0-3.102 1.389-3.102 3.103 0 .082.017.159.023.239l-6.745 6.746-7.083-7.083c-.052-1.633-1.361-2.942-2.994-2.994l-7.562-7.561c-.312-.88-1.003-1.571-1.883-1.883l-19.426-19.429zm-39.389 117.281c-.08-.006-.157-.023-.239-.023-1.713 0-3.102 1.389-3.102 3.103 0 .081.017.159.023.238l-7.059 7.059c-.08-.006-.157-.023-.239-.023-1.713 0-3.102 1.389-3.102 3.103 0 .082.017.159.023.239l-5.745 5.744c-.2.2-.412.382-.631.554-.057-.003-.111-.016-.169-.016-1.052 0-1.978.527-2.539 1.328-.536.128-1.088.202-1.652.202-1.886 0-3.658-.734-4.992-2.067l-28.963-28.962c-2.752-2.752-2.752-7.231 0-9.984l25.057-25.057 38.946 38.946zm40.001-40c-.08-.006-.157-.023-.239-.023-1.713 0-3.102 1.389-3.102 3.103 0 .082.017.159.023.239l-7.059 7.058c-.08-.006-.157-.023-.239-.023-1.713 0-3.102 1.389-3.102 3.103 0 .082.017.159.023.239l-6.306 6.306c-.08-.006-.157-.023-.239-.023-1.713 0-3.102 1.389-3.102 3.103 0 .081.017.159.023.238l-5.343 5.343-38.946-38.945 32.877-32.878 38.946 38.946zm170.573-70.604-5.01-.193c-71.211-4.972-111.279 11.365-121.818 16.449l-28.388-28.389c5.086-10.576 21.5-50.893 16.515-122.106l-.231-5.015c-2.49-56.055 21.525-113.648 65.889-158.012 77.303-77.303 192.096-88.293 255.889-24.498 63.794 63.794 52.804 178.585-24.499 255.889-44.457 44.46-102.164 68.481-158.347 65.875z"/></g></svg>