<svg id="Capa_1" enable-background="new 0 0 511.678 511.678" height="512" viewBox="0 0 511.678 511.678" width="512" xmlns="http://www.w3.org/2000/svg"><g><path d="m454.799 106.513c-1.713 0-3.102 1.389-3.102 3.103 0 1.713 1.389 3.102 3.102 3.102s3.102-1.389 3.102-3.102c0-1.714-1.389-3.103-3.102-3.103z"/><path d="m462.073 119.239c0 1.713 1.389 3.102 3.102 3.102s3.102-1.389 3.102-3.102-1.389-3.103-3.102-3.103-3.102 1.39-3.102 3.103z"/><path d="m454.799 126.513c-1.713 0-3.102 1.389-3.102 3.103 0 1.713 1.389 3.102 3.102 3.102s3.102-1.389 3.102-3.102c0-1.714-1.389-3.103-3.102-3.103z"/><path d="m434.709 92.709c.031.001.059.009.09.009 1.713 0 3.102-1.389 3.102-3.102 0-.301-.056-.585-.136-.86z"/><path d="m445.176 96.137c-1.713 0-3.102 1.389-3.102 3.103 0 1.713 1.389 3.102 3.102 3.102s3.102-1.389 3.102-3.102c0-1.714-1.389-3.103-3.102-3.103z"/><path d="m434.799 106.513c-1.713 0-3.102 1.389-3.102 3.103 0 1.713 1.389 3.102 3.102 3.102s3.102-1.389 3.102-3.102c0-1.714-1.389-3.103-3.102-3.103z"/><path d="m445.176 116.137c-1.713 0-3.102 1.389-3.102 3.103 0 1.713 1.389 3.102 3.102 3.102s3.102-1.389 3.102-3.102c0-1.714-1.389-3.103-3.102-3.103z"/><path d="m434.799 126.513c-1.713 0-3.102 1.389-3.102 3.103 0 1.713 1.389 3.102 3.102 3.102s3.102-1.389 3.102-3.102c0-1.714-1.389-3.103-3.102-3.103z"/><path d="m445.176 136.137c-1.713 0-3.102 1.389-3.102 3.103 0 1.713 1.389 3.102 3.102 3.102s3.102-1.389 3.102-3.102c0-1.714-1.389-3.103-3.102-3.103z"/><path d="m434.799 146.513c-1.713 0-3.102 1.389-3.102 3.103 0 1.713 1.389 3.102 3.102 3.102s3.102-1.389 3.102-3.102c0-1.714-1.389-3.103-3.102-3.103z"/><path d="m425.176 116.137c-1.713 0-3.102 1.389-3.102 3.103 0 1.713 1.389 3.102 3.102 3.102s3.102-1.389 3.102-3.102c0-1.714-1.389-3.103-3.102-3.103z"/><path d="m414.799 126.513c-1.713 0-3.102 1.389-3.102 3.103 0 1.713 1.389 3.102 3.102 3.102s3.102-1.389 3.102-3.102c0-1.714-1.389-3.103-3.102-3.103z"/><path d="m425.176 136.137c-1.713 0-3.102 1.389-3.102 3.103 0 1.713 1.389 3.102 3.102 3.102s3.102-1.389 3.102-3.102c0-1.714-1.389-3.103-3.102-3.103z"/><path d="m414.799 146.513c-1.713 0-3.102 1.389-3.102 3.103 0 1.713 1.389 3.102 3.102 3.102s3.102-1.389 3.102-3.102c0-1.714-1.389-3.103-3.102-3.103z"/><path d="m425.176 156.137c-1.713 0-3.102 1.389-3.102 3.103 0 1.713 1.389 3.102 3.102 3.102s3.102-1.389 3.102-3.102c0-1.714-1.389-3.103-3.102-3.103z"/><path d="m414.799 166.513c-1.713 0-3.102 1.389-3.102 3.103 0 1.713 1.389 3.102 3.102 3.102s3.102-1.389 3.102-3.102c0-1.714-1.389-3.103-3.102-3.103z"/><path d="m405.176 136.137c-1.713 0-3.102 1.389-3.102 3.103 0 1.713 1.389 3.102 3.102 3.102s3.102-1.389 3.102-3.102c0-1.714-1.389-3.103-3.102-3.103z"/><path d="m394.799 146.513c-1.713 0-3.102 1.389-3.102 3.103 0 1.713 1.389 3.102 3.102 3.102s3.102-1.389 3.102-3.102c0-1.714-1.389-3.103-3.102-3.103z"/><path d="m405.176 156.137c-1.713 0-3.102 1.389-3.102 3.103 0 1.713 1.389 3.102 3.102 3.102s3.102-1.389 3.102-3.102c0-1.714-1.389-3.103-3.102-3.103z"/><path d="m394.799 166.513c-1.713 0-3.102 1.389-3.102 3.103 0 1.713 1.389 3.102 3.102 3.102s3.102-1.389 3.102-3.102c0-1.714-1.389-3.103-3.102-3.103z"/><path d="m405.176 176.137c-1.713 0-3.102 1.389-3.102 3.103 0 1.713 1.389 3.102 3.102 3.102s3.102-1.389 3.102-3.102c0-1.714-1.389-3.103-3.102-3.103z"/><path d="m394.799 186.513c-1.713 0-3.102 1.389-3.102 3.103 0 1.713 1.389 3.102 3.102 3.102s3.102-1.389 3.102-3.102c0-1.714-1.389-3.103-3.102-3.103z"/><path d="m405.176 196.137c-1.713 0-3.102 1.389-3.102 3.103 0 1.713 1.389 3.102 3.102 3.102s3.102-1.389 3.102-3.102c0-1.714-1.389-3.103-3.102-3.103z"/><path d="m394.799 206.513c-1.713 0-3.102 1.389-3.102 3.103 0 1.713 1.389 3.102 3.102 3.102s3.102-1.389 3.102-3.102c0-1.714-1.389-3.103-3.102-3.103z"/><path d="m385.636 156.184-3.31 4.28c.475 1.104 1.571 1.877 2.849 1.877 1.713 0 3.102-1.389 3.102-3.102.001-1.555-1.148-2.832-2.641-3.055z"/><path d="m373.204 172.264c.467.282 1.009.454 1.595.454 1.713 0 3.102-1.389 3.102-3.102 0-.87-.36-1.653-.936-2.217z"/><path d="m385.176 176.137c-1.713 0-3.102 1.389-3.102 3.103 0 1.713 1.389 3.102 3.102 3.102s3.102-1.389 3.102-3.102c0-1.714-1.389-3.103-3.102-3.103z"/><path d="m374.799 186.513c-1.713 0-3.102 1.389-3.102 3.103 0 1.713 1.389 3.102 3.102 3.102s3.102-1.389 3.102-3.102c0-1.714-1.389-3.103-3.102-3.103z"/><path d="m385.176 196.137c-1.713 0-3.102 1.389-3.102 3.103 0 1.713 1.389 3.102 3.102 3.102s3.102-1.389 3.102-3.102c0-1.714-1.389-3.103-3.102-3.103z"/><path d="m374.799 206.513c-1.713 0-3.102 1.389-3.102 3.103 0 1.713 1.389 3.102 3.102 3.102s3.102-1.389 3.102-3.102c0-1.714-1.389-3.103-3.102-3.103z"/><path d="m385.176 216.137c-1.713 0-3.102 1.389-3.102 3.103 0 1.713 1.389 3.102 3.102 3.102s3.102-1.389 3.102-3.102c0-1.714-1.389-3.103-3.102-3.103z"/><path d="m374.799 226.513c-1.713 0-3.102 1.389-3.102 3.103 0 1.713 1.389 3.102 3.102 3.102s3.102-1.389 3.102-3.102c0-1.714-1.389-3.103-3.102-3.103z"/><path d="m365.433 182.316c1.591-.133 2.845-1.451 2.845-3.076 0-.183-.023-.36-.054-.534z"/><path d="m365.176 196.137c-1.713 0-3.102 1.389-3.102 3.103 0 1.713 1.389 3.102 3.102 3.102s3.102-1.389 3.102-3.102c0-1.714-1.389-3.103-3.102-3.103z"/><path d="m354.799 206.513c-1.713 0-3.102 1.389-3.102 3.103 0 1.713 1.389 3.102 3.102 3.102s3.102-1.389 3.102-3.102c0-1.714-1.389-3.103-3.102-3.103z"/><path d="m365.176 216.137c-1.713 0-3.102 1.389-3.102 3.103 0 1.713 1.389 3.102 3.102 3.102s3.102-1.389 3.102-3.102c0-1.714-1.389-3.103-3.102-3.103z"/><path d="m354.799 226.513c-1.713 0-3.102 1.389-3.102 3.103 0 1.713 1.389 3.102 3.102 3.102s3.102-1.389 3.102-3.102c0-1.714-1.389-3.103-3.102-3.103z"/><path d="m365.176 236.137c-1.713 0-3.102 1.389-3.102 3.103 0 1.713 1.389 3.102 3.102 3.102s3.102-1.389 3.102-3.102c0-1.714-1.389-3.103-3.102-3.103z"/><path d="m354.799 272.718c1.713 0 3.102-1.389 3.102-3.102s-1.389-3.102-3.102-3.102-3.102 1.389-3.102 3.102 1.389 3.102 3.102 3.102z"/><path d="m354.799 292.718c1.713 0 3.102-1.389 3.102-3.102s-1.389-3.102-3.102-3.102-3.102 1.389-3.102 3.102 1.389 3.102 3.102 3.102z"/><path d="m365.176 302.341c1.713 0 3.102-1.389 3.102-3.102s-1.389-3.103-3.102-3.103-3.102 1.389-3.102 3.103c-.001 1.714 1.388 3.102 3.102 3.102z"/><path d="m354.799 312.718c1.713 0 3.102-1.389 3.102-3.102s-1.389-3.102-3.102-3.102-3.102 1.389-3.102 3.102 1.389 3.102 3.102 3.102z"/><path d="m365.176 322.341c1.713 0 3.102-1.389 3.102-3.102s-1.389-3.103-3.102-3.103-3.102 1.389-3.102 3.103c-.001 1.714 1.388 3.102 3.102 3.102z"/><path d="m354.799 332.718c1.713 0 3.102-1.389 3.102-3.102s-1.389-3.102-3.102-3.102-3.102 1.389-3.102 3.102 1.389 3.102 3.102 3.102z"/><path d="m365.176 342.341c1.713 0 3.102-1.389 3.102-3.102s-1.389-3.103-3.102-3.103-3.102 1.389-3.102 3.103c-.001 1.714 1.388 3.102 3.102 3.102z"/><path d="m354.799 352.718c1.713 0 3.102-1.389 3.102-3.102s-1.389-3.102-3.102-3.102-3.102 1.389-3.102 3.102 1.389 3.102 3.102 3.102z"/><path d="m365.176 362.341c1.713 0 3.102-1.389 3.102-3.102s-1.389-3.103-3.102-3.103-3.102 1.389-3.102 3.103c-.001 1.714 1.388 3.102 3.102 3.102z"/><path d="m354.799 372.718c1.713 0 3.102-1.389 3.102-3.102s-1.389-3.102-3.102-3.102-3.102 1.389-3.102 3.102 1.389 3.102 3.102 3.102z"/><path d="m354.799 392.718c1.713 0 3.102-1.389 3.102-3.102s-1.389-3.102-3.102-3.102-3.102 1.389-3.102 3.102 1.389 3.102 3.102 3.102z"/><path d="m345.176 216.137c-1.713 0-3.102 1.389-3.102 3.103 0 1.713 1.389 3.102 3.102 3.102s3.102-1.389 3.102-3.102c0-1.714-1.389-3.103-3.102-3.103z"/><path d="m348.278 259.239c0-1.713-1.389-3.103-3.102-3.103-.249 0-.488.037-.72.093.406 2.012.781 4.034 1.113 6.072 1.525-.194 2.709-1.482 2.709-3.062z"/><path d="m347.513 281.259c.47-.544.765-1.244.765-2.02 0-.905-.394-1.712-1.012-2.279.101 1.428.183 2.861.247 4.299z"/><path d="m347.165 301.602c.675-.569 1.113-1.41 1.113-2.362 0-.806-.315-1.533-.818-2.084-.078 1.487-.178 2.969-.295 4.446z"/><path d="m348.278 319.239c0-1.653-1.297-2.991-2.926-3.084-.345 2.018-.731 4.023-1.149 6.016.308.102.631.171.973.171 1.713-.001 3.102-1.389 3.102-3.103z"/><path d="m345.176 342.341c1.713 0 3.102-1.389 3.102-3.102s-1.389-3.103-3.102-3.103-3.102 1.389-3.102 3.103c-.001 1.714 1.388 3.102 3.102 3.102z"/><path d="m337.901 349.616c0-.954-.439-1.796-1.116-2.365-.708 1.832-1.458 3.644-2.23 5.443.082.006.16.024.244.024 1.713 0 3.102-1.389 3.102-3.102z"/><path d="m345.176 362.341c1.713 0 3.102-1.389 3.102-3.102s-1.389-3.103-3.102-3.103-3.102 1.389-3.102 3.103c-.001 1.714 1.388 3.102 3.102 3.102z"/><path d="m334.799 372.718c1.713 0 3.102-1.389 3.102-3.102s-1.389-3.102-3.102-3.102-3.102 1.389-3.102 3.102 1.389 3.102 3.102 3.102z"/><path d="m345.176 382.341c1.713 0 3.102-1.389 3.102-3.102s-1.389-3.103-3.102-3.103-3.102 1.389-3.102 3.103c-.001 1.714 1.388 3.102 3.102 3.102z"/><path d="m334.799 392.718c1.713 0 3.102-1.389 3.102-3.102s-1.389-3.102-3.102-3.102-3.102 1.389-3.102 3.102 1.389 3.102 3.102 3.102z"/><path d="m345.176 402.341c1.713 0 3.102-1.389 3.102-3.102s-1.389-3.103-3.102-3.103-3.102 1.389-3.102 3.103c-.001 1.714 1.388 3.102 3.102 3.102z"/><path d="m334.799 412.718c1.713 0 3.102-1.389 3.102-3.102s-1.389-3.102-3.102-3.102-3.102 1.389-3.102 3.102 1.389 3.102 3.102 3.102z"/><path d="m334.799 432.718c1.713 0 3.102-1.389 3.102-3.102s-1.389-3.102-3.102-3.102-3.102 1.389-3.102 3.102 1.389 3.102 3.102 3.102z"/><path d="m325.176 382.341c1.713 0 3.102-1.389 3.102-3.102s-1.389-3.103-3.102-3.103-3.102 1.389-3.102 3.103c-.001 1.714 1.388 3.102 3.102 3.102z"/><path d="m314.799 392.718c1.713 0 3.102-1.389 3.102-3.102 0-1.675-1.33-3.031-2.991-3.091-1.007 1.334-2.029 2.656-3.075 3.957.377 1.289 1.554 2.236 2.964 2.236z"/><path d="m325.176 402.341c1.713 0 3.102-1.389 3.102-3.102s-1.389-3.103-3.102-3.103-3.102 1.389-3.102 3.103c-.001 1.714 1.388 3.102 3.102 3.102z"/><path d="m314.799 412.718c1.713 0 3.102-1.389 3.102-3.102s-1.389-3.102-3.102-3.102-3.102 1.389-3.102 3.102 1.389 3.102 3.102 3.102z"/><path d="m325.176 422.341c1.713 0 3.102-1.389 3.102-3.102s-1.389-3.103-3.102-3.103-3.102 1.389-3.102 3.103c-.001 1.714 1.388 3.102 3.102 3.102z"/><path d="m314.799 432.718c1.713 0 3.102-1.389 3.102-3.102s-1.389-3.102-3.102-3.102-3.102 1.389-3.102 3.102 1.389 3.102 3.102 3.102z"/><path d="m325.176 442.341c1.713 0 3.102-1.389 3.102-3.102s-1.389-3.103-3.102-3.103-3.102 1.389-3.102 3.103c-.001 1.714 1.388 3.102 3.102 3.102z"/><path d="m314.799 452.718c1.713 0 3.102-1.389 3.102-3.102s-1.389-3.102-3.102-3.102-3.102 1.389-3.102 3.102 1.389 3.102 3.102 3.102z"/><path d="m305.176 402.341c1.713 0 3.102-1.389 3.102-3.102 0-1.156-.639-2.152-1.577-2.686-1.335 1.504-2.699 2.98-4.088 4.433.559.818 1.498 1.355 2.563 1.355z"/><path d="m296.528 407.04c-1.457 1.373-2.945 2.713-4.452 4.032.523.975 1.54 1.646 2.724 1.646 1.713 0 3.102-1.389 3.102-3.102-.001-1.073-.546-2.019-1.374-2.576z"/><path d="m305.176 422.341c1.713 0 3.102-1.389 3.102-3.102s-1.389-3.103-3.102-3.103-3.102 1.389-3.102 3.103c-.001 1.714 1.388 3.102 3.102 3.102z"/><path d="m294.799 426.513c-1.713 0-3.102 1.389-3.102 3.102s1.389 3.102 3.102 3.102 3.102-1.389 3.102-3.102-1.389-3.102-3.102-3.102z"/><path d="m305.176 442.341c1.713 0 3.102-1.389 3.102-3.102s-1.389-3.103-3.102-3.103-3.102 1.389-3.102 3.103c-.001 1.714 1.388 3.102 3.102 3.102z"/><path d="m294.799 446.513c-1.713 0-3.102 1.389-3.102 3.102s1.389 3.102 3.102 3.102 3.102-1.389 3.102-3.102-1.389-3.102-3.102-3.102z"/><path d="m285.887 416.227c-1.255.994-2.521 1.974-3.806 2.931-.001.028-.008.054-.008.082 0 1.713 1.389 3.102 3.102 3.102s3.102-1.389 3.102-3.102c.001-1.468-1.021-2.691-2.39-3.013z"/><path d="m274.799 426.513c-1.713 0-3.102 1.389-3.102 3.102s1.389 3.102 3.102 3.102 3.102-1.389 3.102-3.102-1.389-3.102-3.102-3.102z"/><path d="m285.176 436.137c-1.713 0-3.102 1.389-3.102 3.103 0 1.713 1.389 3.102 3.102 3.102s3.102-1.389 3.102-3.102c0-1.714-1.389-3.103-3.102-3.103z"/><path d="m274.799 446.513c-1.713 0-3.102 1.389-3.102 3.102s1.389 3.102 3.102 3.102 3.102-1.389 3.102-3.102-1.389-3.102-3.102-3.102z"/><path d="m285.176 456.137c-1.713 0-3.102 1.389-3.102 3.103 0 1.713 1.389 3.102 3.102 3.102s3.102-1.389 3.102-3.102c0-1.714-1.389-3.103-3.102-3.103z"/><path d="m274.799 466.513c-1.713 0-3.102 1.389-3.102 3.102s1.389 3.102 3.102 3.102 3.102-1.389 3.102-3.102-1.389-3.102-3.102-3.102z"/><path d="m265.176 436.137c-1.713 0-3.102 1.389-3.102 3.103 0 1.713 1.389 3.102 3.102 3.102s3.102-1.389 3.102-3.102c0-1.714-1.389-3.103-3.102-3.103z"/><path d="m254.799 446.513c-1.713 0-3.102 1.389-3.102 3.102s1.389 3.102 3.102 3.102 3.102-1.389 3.102-3.102-1.389-3.102-3.102-3.102z"/><path d="m265.176 456.137c-1.713 0-3.102 1.389-3.102 3.103 0 1.713 1.389 3.102 3.102 3.102s3.102-1.389 3.102-3.102c0-1.714-1.389-3.103-3.102-3.103z"/><path d="m254.799 466.513c-1.713 0-3.102 1.389-3.102 3.102s1.389 3.102 3.102 3.102 3.102-1.389 3.102-3.102-1.389-3.102-3.102-3.102z"/><path d="m242.526 440.831c.543.901 1.521 1.51 2.65 1.51 1.713 0 3.102-1.389 3.102-3.102 0-.23-.029-.454-.077-.67-1.873.791-3.767 1.541-5.675 2.262z"/><path d="m234.799 446.513c-1.713 0-3.102 1.389-3.102 3.102s1.389 3.102 3.102 3.102 3.102-1.389 3.102-3.102-1.389-3.102-3.102-3.102z"/><path d="m245.176 456.137c-1.713 0-3.102 1.389-3.102 3.103 0 1.713 1.389 3.102 3.102 3.102s3.102-1.389 3.102-3.102c0-1.714-1.389-3.103-3.102-3.103z"/><path d="m234.799 466.513c-1.713 0-3.102 1.389-3.102 3.102s1.389 3.102 3.102 3.102 3.102-1.389 3.102-3.102-1.389-3.102-3.102-3.102z"/><path d="m245.176 476.137c-1.713 0-3.102 1.389-3.102 3.103 0 1.713 1.389 3.102 3.102 3.102s3.102-1.389 3.102-3.102c0-1.714-1.389-3.103-3.102-3.103z"/><path d="m211.747 449.12c-.026.163-.05.326-.05.496 0 1.713 1.389 3.102 3.102 3.102s3.102-1.389 3.102-3.102c0-.568-.164-1.093-.43-1.551-1.896.385-3.804.736-5.724 1.055z"/><path d="m225.176 456.137c-1.713 0-3.102 1.389-3.102 3.103 0 1.713 1.389 3.102 3.102 3.102s3.102-1.389 3.102-3.102c0-1.714-1.389-3.103-3.102-3.103z"/><path d="m214.799 466.513c-1.713 0-3.102 1.389-3.102 3.102s1.389 3.102 3.102 3.102 3.102-1.389 3.102-3.102-1.389-3.102-3.102-3.102z"/><path d="m225.176 476.137c-1.713 0-3.102 1.389-3.102 3.103 0 1.713 1.389 3.102 3.102 3.102s3.102-1.389 3.102-3.102c0-1.714-1.389-3.103-3.102-3.103z"/><path d="m194.799 452.718c1.283 0 2.383-.778 2.855-1.889-1.835.142-3.679.251-5.531.332.537.927 1.528 1.557 2.676 1.557z"/><path d="m205.176 456.137c-1.713 0-3.102 1.389-3.102 3.103 0 1.713 1.389 3.102 3.102 3.102s3.102-1.389 3.102-3.102c0-1.714-1.389-3.103-3.102-3.103z"/><path d="m194.799 466.513c-1.713 0-3.102 1.389-3.102 3.102s1.389 3.102 3.102 3.102 3.102-1.389 3.102-3.102-1.389-3.102-3.102-3.102z"/><path d="m205.176 476.137c-1.713 0-3.102 1.389-3.102 3.103 0 1.713 1.389 3.102 3.102 3.102s3.102-1.389 3.102-3.102c0-1.714-1.389-3.103-3.102-3.103z"/><path d="m174.799 452.718c1.152 0 2.145-.635 2.68-1.566-1.859-.086-3.707-.214-5.55-.363.464 1.131 1.572 1.929 2.87 1.929z"/><path d="m185.176 456.137c-1.713 0-3.102 1.389-3.102 3.103 0 1.713 1.389 3.102 3.102 3.102s3.102-1.389 3.102-3.102c0-1.714-1.389-3.103-3.102-3.103z"/><path d="m174.799 466.513c-1.713 0-3.102 1.389-3.102 3.102s1.389 3.102 3.102 3.102 3.102-1.389 3.102-3.102-1.389-3.102-3.102-3.102z"/><path d="m185.176 476.137c-1.713 0-3.102 1.389-3.102 3.103 0 1.713 1.389 3.102 3.102 3.102s3.102-1.389 3.102-3.102c0-1.714-1.389-3.103-3.102-3.103z"/><path d="m152.185 447.959c-.305.48-.488 1.046-.488 1.657 0 1.713 1.389 3.102 3.102 3.102s3.102-1.389 3.102-3.102c0-.203-.022-.401-.06-.593-1.895-.324-3.782-.675-5.656-1.064z"/><path d="m165.176 456.137c-1.713 0-3.102 1.389-3.102 3.103 0 1.713 1.389 3.102 3.102 3.102s3.102-1.389 3.102-3.102c0-1.714-1.389-3.103-3.102-3.103z"/><path d="m154.799 466.513c-1.713 0-3.102 1.389-3.102 3.102s1.389 3.102 3.102 3.102 3.102-1.389 3.102-3.102-1.389-3.102-3.102-3.102z"/><path d="m134.799 446.513c-1.713 0-3.102 1.389-3.102 3.102s1.389 3.102 3.102 3.102 3.102-1.389 3.102-3.102-1.389-3.102-3.102-3.102z"/><path d="m145.176 456.137c-1.713 0-3.102 1.389-3.102 3.103 0 1.713 1.389 3.102 3.102 3.102s3.102-1.389 3.102-3.102c0-1.714-1.389-3.103-3.102-3.103z"/><path d="m122.073 439.239c0 1.713 1.389 3.102 3.102 3.102 1.122 0 2.096-.601 2.641-1.494-1.906-.723-3.796-1.479-5.669-2.271-.046.214-.074.435-.074.663z"/><path d="m105.176 436.137c-1.713 0-3.102 1.389-3.102 3.103 0 1.713 1.389 3.102 3.102 3.102s3.102-1.389 3.102-3.102c0-1.714-1.389-3.103-3.102-3.103z"/><path d="m215.778 247.31c-45.716 0-82.908 37.192-82.908 82.908s37.193 82.909 82.908 82.909c45.716 0 82.909-37.193 82.909-82.909-.001-45.716-37.193-82.908-82.909-82.908zm0 157.77c-41.279 0-74.861-33.583-74.861-74.862 0-41.278 33.583-74.861 74.861-74.861 41.279 0 74.861 33.582 74.861 74.861s-33.583 74.862-74.861 74.862z"/><path d="m472.577 102.563-68.106-92.503c-3.948-5.362-9.752-8.842-16.343-9.799-6.588-.955-13.143.731-18.452 4.749l-152.392 115.344c-1.753 1.327-2.117 3.814-.817 5.587l6.215 8.481c8.392 11.453 5.901 27.598-5.551 35.99-11.452 8.391-27.598 5.902-35.99-5.551l-5.668-7.735c-.637-.87-1.596-1.447-2.663-1.604-1.068-.158-2.151.123-3.011.773l-45.695 34.586c-47.137 31.074-75.213 83.27-75.109 139.651.045 24.322 5.305 47.811 15.25 69.265-17.879 10.397-29.926 29.762-29.926 51.892 0 33.078 26.911 59.988 59.989 59.988 22.141 0 41.513-12.061 51.907-29.955 21.605 10.026 45.205 15.28 69.558 15.279 1.915 0 3.841-.032 5.765-.098 43.332-1.47 83.837-19.462 114.056-50.662 30.29-31.273 46.97-72.478 46.97-116.025 0-22.53-4.416-44.365-13.13-64.942l102.796-132.962c6.709-8.68 6.853-20.914.347-29.749zm-378.271 401.068c-28.641 0-51.942-23.301-51.942-51.941 0-18.97 10.224-35.593 25.449-44.658 3.518 6.705 7.515 13.185 11.963 19.407-8.729 5.042-14.621 14.467-14.621 25.251 0 16.074 13.077 29.151 29.151 29.151 10.797 0 20.222-5.912 25.259-14.657 6.233 4.451 12.717 8.448 19.418 11.966-9.061 15.242-25.694 25.481-44.677 25.481zm-9.629-70.679c4.721 5.97 9.872 11.676 15.46 17.067 4.154 4.008 8.474 7.769 12.936 11.29-3.504 6.81-10.596 11.484-18.767 11.484-11.637 0-21.104-9.467-21.104-21.104 0-8.163 4.675-15.231 11.475-18.737zm381.184-305.561-30.323 39.221c-.238-.059-.483-.099-.74-.099-1.713 0-3.102 1.389-3.102 3.103 0 .534.147 1.029.385 1.467l-4.659 6.027c-.565-.597-1.36-.973-2.247-.973-1.713 0-3.102 1.389-3.102 3.103 0 1.17.655 2.176 1.612 2.704l-5.801 7.503c-.089-1.634-1.43-2.934-3.085-2.934-1.713 0-3.102 1.389-3.102 3.103 0 1.713 1.389 3.102 3.102 3.102.207 0 .408-.023.604-.061l-41.836 54.113c-.954.415-1.651 1.295-1.82 2.354l-5.562 7.194c-.318-.11-.654-.182-1.009-.182-.019 0-.037.005-.056.006-13.36-26.998-33.735-49.812-59.273-66.209-1.87-1.2-4.36-.658-5.56 1.212-1.201 1.869-.658 4.358 1.212 5.56 13.077 8.396 24.733 18.559 34.696 30.154-.234-.119-.479-.218-.743-.275.655 1.588 1.281 3.191 1.887 4.805.352-.503.562-1.113.562-1.774 0-.303-.053-.591-.135-.868 2.091 2.512 4.109 5.082 6.041 7.72-1.024.507-1.734 1.552-1.734 2.771 0 1.713 1.389 3.102 3.102 3.102.834 0 1.588-.333 2.145-.869 1.579 2.342 3.099 4.725 4.552 7.153-.106.312-.176.642-.176.99 0 1.507 1.076 2.761 2.501 3.041 2.235 3.996 4.323 8.086 6.215 12.289.137.304.314.576.511.827.051.183.114.363.192.54 1.429 3.245 2.732 6.526 3.933 9.836-1.653.068-2.975 1.42-2.975 3.09 0 1.713 1.389 3.102 3.102 3.102.674 0 1.294-.221 1.803-.586 2.67 8.314 4.623 16.815 5.876 25.461-.701.569-1.158 1.427-1.158 2.4 0 1.258.752 2.335 1.828 2.822.518 4.665.837 9.37.943 14.109-1.555.167-2.771 1.469-2.771 3.069 0 1.605 1.224 2.911 2.787 3.07-.071 4.736-.341 9.421-.811 14.046-1.155.452-1.976 1.569-1.976 2.884 0 1.051.526 1.976 1.325 2.537-1.172 8.602-3.02 16.982-5.498 25.08-.569-.665-1.404-1.096-2.348-1.096-1.713 0-3.102 1.389-3.102 3.103 0 1.713 1.389 3.102 3.102 3.102.248 0 .485-.037.716-.091-2.898 8.451-6.485 16.574-10.697 24.303-.131-.017-.26-.039-.396-.039-1.713 0-3.102 1.389-3.102 3.102 0 .725.259 1.383.676 1.912-1.362 2.296-2.783 4.553-4.255 6.772-.4-1.251-1.558-2.163-2.942-2.163-1.713 0-3.102 1.389-3.102 3.103 0 1.713 1.389 3.102 3.102 3.102.061 0 .118-.015.178-.018-10.198 14.381-22.741 26.97-37.107 37.22.01-.102.031-.2.031-.304 0-1.713-1.389-3.103-3.102-3.103s-3.102 1.389-3.102 3.103c0 1.437.981 2.633 2.306 2.986-2.539 1.7-5.137 3.319-7.779 4.873-.509-.365-1.128-.585-1.801-.585-1.713 0-3.102 1.389-3.102 3.102 0 .085.017.165.024.248-7.517 4.067-15.411 7.541-23.621 10.372.107-.314.178-.645.178-.996 0-1.713-1.389-3.103-3.102-3.103s-3.102 1.389-3.102 3.103c0 1.052.527 1.979 1.328 2.539-8.472 2.628-17.26 4.575-26.303 5.772-.568-.632-1.383-1.037-2.299-1.037-1.169 0-2.175.655-2.704 1.611-3.576.36-7.186.614-10.832.737-1.149.039-2.296.06-3.441.074-.311-1.385-1.543-2.422-3.022-2.422-1.463 0-2.682 1.017-3.009 2.38-4.842-.121-9.651-.45-14.414-1.004-.557-.83-1.503-1.376-2.577-1.376-.777 0-1.479.296-2.023.768-8.64-1.264-17.115-3.241-25.364-5.9.534-.557.865-1.309.865-2.141 0-1.713-1.389-3.103-3.102-3.103s-3.102 1.389-3.102 3.103c0 .112.021.218.033.327-8.483-3.076-16.703-6.884-24.583-11.405-.523-.976-1.54-1.648-2.724-1.648-.022 0-.043.006-.065.006-2.578-1.55-5.117-3.177-7.616-4.88.702-.568 1.16-1.427 1.16-2.4 0-1.713-1.389-3.103-3.102-3.103-1.345 0-2.479.861-2.909 2.058-2.399-1.768-4.76-3.604-7.075-5.516 1.526-.195 2.71-1.484 2.71-3.062 0-1.713-1.389-3.102-3.102-3.102s-3.102 1.389-3.102 3.102c0 .037.01.072.011.108-2.031-1.775-4.026-3.608-5.983-5.497-3.826-3.691-7.439-7.537-10.841-11.518 1.673-.046 3.017-1.409 3.017-3.093 0-1.713-1.389-3.102-3.102-3.102-1.485 0-2.722 1.045-3.027 2.438-1.821-2.267-3.571-4.578-5.256-6.926 1.039-.501 1.762-1.555 1.762-2.786 0-.021-.006-.042-.006-.063-1.294-.961-2.573-1.941-3.838-2.94-.53.131-1.003.399-1.387.762-16.873-25.519-25.947-55.284-26.005-86.48-.1-53.703 26.666-103.419 71.596-132.987.074-.049.146-.1.217-.153l42.542-32.199 3.253 4.439c11.015 15.031 32.205 18.299 47.238 7.285 15.032-11.015 18.301-32.205 7.286-47.237l-3.873-5.286 149.228-112.955c3.58-2.711 7.999-3.847 12.44-3.202 4.443.644 8.356 2.99 11.017 6.606l45.505 61.805c-.495.323-.893.782-1.14 1.326-.062.535-.145 1.066-.25 1.596.162 1.562 1.466 2.784 3.07 2.784.757 0 1.442-.282 1.981-.733l4.879 6.626c-.209.418-.338.882-.338 1.381 0 1.713 1.389 3.102 3.102 3.102.171 0 .337-.022.5-.049l10.797 14.665c4.388 5.956 4.291 14.205-.234 20.057z"/></g></svg>