<svg id="Capa_1" enable-background="new 0 0 511.885 511.885" height="512" viewBox="0 0 511.885 511.885" width="512" xmlns="http://www.w3.org/2000/svg"><g><path d="m490.593 381.088h-469.301c-9.552 0-17.295-7.743-17.295-17.295v-312.412c0-9.552 7.743-17.295 17.295-17.295h469.301c9.552 0 17.295 7.743 17.295 17.295v312.412c0 9.552-7.743 17.295-17.295 17.295z" fill="#eaa895"/><path d="m468.942 65.466h-425.998c-4.27 0-7.731 3.461-7.731 7.731v269.593c0 4.27 3.461 7.731 7.731 7.731h116.323l37.811 121.24 25.218-23.914 29.132 29.132 28.065-28.865 22.59 23.647 45.399-121.24h121.462c4.27 0 7.731-3.461 7.731-7.731v-269.592c-.002-4.271-3.463-7.732-7.733-7.732z" fill="#f9fbfc"/><path d="m365.314 313.628h-219.36c-7.965 0-14.422-6.457-14.422-14.422v-3.31c0-7.965 6.457-14.422 14.422-14.422h219.36c7.965 0 14.422 6.457 14.422 14.422v3.31c0 7.965-6.457 14.422-14.422 14.422z" fill="#e9c278"/><g fill="#f9fbfc"><path d="m372.108 297.127c.498 1.047 1.557 1.777 2.795 1.777 1.237 0 2.297-.729 2.795-1.777z"/><path d="m354.903 298.904c1.237 0 2.297-.729 2.795-1.777h-5.589c.497 1.047 1.557 1.777 2.794 1.777z"/><path d="m368.382 305.425c0-1.713-1.389-3.103-3.102-3.103s-3.102 1.389-3.102 3.103c0 1.713 1.389 3.102 3.102 3.102 1.712 0 3.102-1.389 3.102-3.102z"/><path d="m354.903 312.699c-.866 0-1.648.357-2.211.929h4.421c-.562-.572-1.344-.929-2.21-.929z"/><path d="m334.903 298.904c1.237 0 2.297-.729 2.795-1.777h-5.589c.497 1.047 1.557 1.777 2.794 1.777z"/><path d="m342.177 305.425c0 1.713 1.389 3.102 3.102 3.102s3.102-1.389 3.102-3.102-1.389-3.103-3.102-3.103-3.102 1.39-3.102 3.103z"/><path d="m334.903 312.699c-.866 0-1.648.357-2.211.929h4.421c-.562-.572-1.344-.929-2.21-.929z"/><path d="m314.903 298.904c1.237 0 2.297-.729 2.795-1.777h-5.589c.497 1.047 1.557 1.777 2.794 1.777z"/><path d="m322.177 305.425c0 1.713 1.389 3.102 3.102 3.102s3.102-1.389 3.102-3.102-1.389-3.103-3.102-3.103-3.102 1.39-3.102 3.103z"/><path d="m314.903 312.699c-.866 0-1.648.357-2.211.929h4.421c-.562-.572-1.344-.929-2.21-.929z"/><path d="m294.903 298.904c1.237 0 2.297-.729 2.795-1.777h-5.589c.497 1.047 1.557 1.777 2.794 1.777z"/><path d="m302.177 305.425c0 1.713 1.389 3.102 3.102 3.102s3.102-1.389 3.102-3.102-1.389-3.103-3.102-3.103-3.102 1.39-3.102 3.103z"/><path d="m294.903 312.699c-.866 0-1.648.357-2.211.929h4.421c-.562-.572-1.344-.929-2.21-.929z"/><path d="m274.903 298.904c1.237 0 2.297-.729 2.795-1.777h-5.589c.497 1.047 1.557 1.777 2.794 1.777z"/><path d="m282.177 305.425c0 1.713 1.389 3.102 3.102 3.102s3.102-1.389 3.102-3.102-1.389-3.103-3.102-3.103-3.102 1.39-3.102 3.103z"/><path d="m274.903 312.699c-.866 0-1.648.357-2.211.929h4.421c-.562-.572-1.344-.929-2.21-.929z"/><path d="m254.903 298.904c1.237 0 2.296-.729 2.795-1.777h-5.589c.497 1.047 1.557 1.777 2.794 1.777z"/><path d="m262.177 305.425c0 1.713 1.389 3.102 3.102 3.102s3.102-1.389 3.102-3.102-1.389-3.103-3.102-3.103-3.102 1.39-3.102 3.103z"/><path d="m254.903 312.699c-.866 0-1.648.357-2.211.929h4.421c-.562-.572-1.344-.929-2.21-.929z"/><path d="m234.903 298.904c1.237 0 2.296-.729 2.795-1.777h-5.589c.497 1.047 1.557 1.777 2.794 1.777z"/><path d="m242.177 305.425c0 1.713 1.389 3.102 3.102 3.102s3.102-1.389 3.102-3.102-1.389-3.103-3.102-3.103-3.102 1.39-3.102 3.103z"/><path d="m234.903 312.699c-.866 0-1.648.357-2.211.929h4.421c-.562-.572-1.344-.929-2.21-.929z"/><path d="m214.903 298.904c1.237 0 2.296-.729 2.795-1.777h-5.589c.497 1.047 1.557 1.777 2.794 1.777z"/><path d="m222.177 305.425c0 1.713 1.389 3.102 3.102 3.102s3.102-1.389 3.102-3.102-1.389-3.103-3.102-3.103-3.102 1.39-3.102 3.103z"/><path d="m214.903 312.699c-.866 0-1.648.357-2.211.929h4.421c-.562-.572-1.344-.929-2.21-.929z"/><path d="m194.903 298.904c1.237 0 2.296-.729 2.795-1.777h-5.589c.497 1.047 1.557 1.777 2.794 1.777z"/><path d="m202.177 305.425c0 1.713 1.389 3.102 3.102 3.102s3.102-1.389 3.102-3.102-1.389-3.103-3.102-3.103-3.102 1.39-3.102 3.103z"/><path d="m194.903 312.699c-.866 0-1.648.357-2.211.929h4.421c-.562-.572-1.344-.929-2.21-.929z"/><path d="m174.903 298.904c1.237 0 2.296-.729 2.795-1.777h-5.589c.497 1.047 1.557 1.777 2.794 1.777z"/><path d="m182.177 305.425c0 1.713 1.389 3.102 3.102 3.102s3.102-1.389 3.102-3.102-1.389-3.103-3.102-3.103-3.102 1.39-3.102 3.103z"/><path d="m174.903 312.699c-.866 0-1.648.357-2.211.929h4.421c-.562-.572-1.344-.929-2.21-.929z"/><path d="m154.903 298.904c1.237 0 2.297-.729 2.795-1.777h-5.589c.497 1.047 1.557 1.777 2.794 1.777z"/><path d="m162.177 305.425c0 1.713 1.389 3.102 3.102 3.102s3.102-1.389 3.102-3.102-1.389-3.103-3.102-3.103-3.102 1.39-3.102 3.103z"/><path d="m154.903 312.699c-.866 0-1.648.357-2.211.929h4.421c-.562-.572-1.344-.929-2.21-.929z"/><path d="m137.697 297.127h-5.589c.498 1.047 1.558 1.777 2.795 1.777s2.296-.73 2.794-1.777z"/><path d="m148.382 305.425c0-1.713-1.389-3.103-3.102-3.103s-3.102 1.389-3.102 3.103c0 1.713 1.389 3.102 3.102 3.102s3.102-1.389 3.102-3.102z"/></g><path d="m490.605 30.089h-469.325c-11.734 0-21.28 9.546-21.28 21.281v312.435c0 11.734 9.546 21.281 21.28 21.281h143.327l27.816 88.723c.536 1.709 2.112 2.803 3.813 2.803.078 0 .158-.013.236-.018 1.118.072 2.232-.319 3.051-1.119l22.936-22.367 26.723 27.478c.753.774 1.787 1.21 2.866 1.21.022 0 .044 0 .066-.001 1.103-.017 2.148-.491 2.891-1.307l24.156-26.553 20.473 21.439c.836.874 2.016 1.314 3.206 1.221.06.003.12.017.18.017 1.6 0 3.111-.967 3.726-2.548l20.788-53.413c.556-.678.859-1.487.901-2.315l12.94-33.249h149.229c11.734 0 21.28-9.546 21.28-21.281v-312.436c.001-11.735-9.545-21.281-21.279-21.281zm-160.665 318.203 26.884-26.218-14.877 38.225zm35.383-62.82c5.743 0 10.415 4.672 10.415 10.415v3.329c0 5.743-4.672 10.416-10.415 10.416h-219.379c-5.743 0-10.415-4.673-10.415-10.416v-3.329c0-5.743 4.672-10.415 10.415-10.415zm-199.476-7.995v-118.836h179.573v118.836zm110.102 40.149-23.76 22.582-22.582-22.582zm-71.804 0-23.975 21.07-20.12-21.07zm12.112 0h2.043l28.091 28.091-31.2 29.653-29.495-30.887zm35.79 33.746 31.245 31.245-31.679 30.893-30.9-32.358zm5.797-5.509 29.71-28.237h.414l30.594 30.594-29.547 28.815zm41.431-28.237h50.66l-25.648 25.012zm68.422-.17c9.031-1.171 16.036-8.895 16.036-18.24v-3.329c0-10.151-8.259-18.41-18.41-18.41h-11.909v-122.834c0-2.208-1.79-3.997-3.997-3.997h-187.567c-2.208 0-3.997 1.79-3.997 3.997v122.834h-11.909c-10.151 0-18.41 8.258-18.41 18.41v3.329c0 9.284 6.915 16.965 15.862 18.213l9.122 29.096h-109.574c-2.059 0-3.734-1.675-3.734-3.734v-269.594c0-2.058 1.675-3.733 3.734-3.733h425.998c2.059 0 3.734 1.675 3.734 3.733v269.593c0 2.059-1.675 3.734-3.734 3.734h-112.558zm-213.735 5.372 20.197 21.15-10.636 9.347zm12.178 38.841 13.546-11.904 29.711 31.113-28.686 27.264zm32.462 103.539-15.227-48.569 31.544-29.98 30.971 32.433zm53.35 6.758-23.768-24.44 23.227-22.651 22.216 23.265zm49.126-6.656-43.944-46.018 31.811-31.022 30.317 30.317zm21.352-54.861-27.76-27.76 29.547-28.814 14.564 14.564zm181.46-46.644c0 7.326-5.96 13.286-13.286 13.286h-146.117l2.37-6.089c.025-.023.053-.039.077-.063.846-.845 1.217-1.974 1.146-3.081l5.191-13.339h115.669c6.467 0 11.729-5.261 11.729-11.729v-269.593c0-6.466-5.262-11.728-11.729-11.728h-425.996c-6.467 0-11.729 5.261-11.729 11.728v269.593c0 6.467 5.261 11.729 11.729 11.729h112.08l7.077 22.572h-140.821c-7.326 0-13.286-5.96-13.286-13.286v-312.435c0-7.326 5.96-13.286 13.286-13.286h469.324c7.326 0 13.286 5.96 13.286 13.286z" fill="#31373d"/></g></svg>