<svg id="Capa_1" enable-background="new 0 0 511.578 511.578" height="512" viewBox="0 0 511.578 511.578" width="512" xmlns="http://www.w3.org/2000/svg"><g><path d="m3.941 108.334h503.697v294.911h-503.697z" fill="#e9c278"/><g fill="#f9fbfc"><path d="m507.637 337.786h-69.134c-6.682 0-12.119-5.436-12.119-12.119v-139.755c0-6.682 5.436-12.118 12.119-12.118h69.134v7.882h-69.134c-2.336 0-4.237 1.9-4.237 4.236v139.755c0 2.336 1.9 4.237 4.237 4.237h69.134z"/><path d="m73.075 337.786h-69.134v-7.882h69.134c2.336 0 4.237-1.9 4.237-4.237v-139.755c0-2.335-1.9-4.236-4.237-4.236h-69.134v-7.882h69.134c6.683 0 12.119 5.436 12.119 12.118v139.755c0 6.682-5.437 12.119-12.119 12.119z"/><g><path d="m506.803 358.467c-1.713 0-3.102 1.389-3.102 3.102 0 1.714 1.389 3.103 3.102 3.103.291 0 .568-.053.835-.128v-5.948c-.268-.076-.544-.129-.835-.129z"/><path d="m503.7 381.569c0 1.714 1.389 3.103 3.102 3.103.291 0 .568-.053.835-.128v-5.948c-.267-.075-.544-.128-.835-.128-1.713-.001-3.102 1.388-3.102 3.101z"/><path d="m503.7 401.569c0 .619.186 1.192.498 1.676h3.439v-4.649c-.267-.075-.544-.128-.835-.128-1.713-.001-3.102 1.388-3.102 3.101z"/><path d="m486.803 358.467c-1.713 0-3.102 1.389-3.102 3.102 0 1.714 1.389 3.103 3.102 3.103s3.102-1.389 3.102-3.103c0-1.713-1.389-3.102-3.102-3.102z"/><path d="m497.179 368.09c-1.713 0-3.102 1.389-3.102 3.103 0 1.713 1.389 3.103 3.102 3.103s3.102-1.39 3.102-3.103c0-1.714-1.389-3.103-3.102-3.103z"/><path d="m486.803 378.467c-1.713 0-3.102 1.389-3.102 3.102 0 1.714 1.389 3.103 3.102 3.103s3.102-1.389 3.102-3.103c0-1.713-1.389-3.102-3.102-3.102z"/><path d="m497.179 388.09c-1.713 0-3.102 1.389-3.102 3.103 0 1.713 1.389 3.103 3.102 3.103s3.102-1.39 3.102-3.103c0-1.714-1.389-3.103-3.102-3.103z"/><path d="m486.803 398.467c-1.713 0-3.102 1.389-3.102 3.102 0 .619.186 1.192.498 1.676h5.209c.312-.483.498-1.057.498-1.676-.001-1.713-1.39-3.102-3.103-3.102z"/><path d="m466.803 358.467c-1.713 0-3.102 1.389-3.102 3.102 0 1.714 1.389 3.103 3.102 3.103s3.102-1.389 3.102-3.103c0-1.713-1.389-3.102-3.102-3.102z"/><path d="m477.179 368.09c-1.713 0-3.102 1.389-3.102 3.103 0 1.713 1.389 3.103 3.102 3.103s3.102-1.39 3.102-3.103c0-1.714-1.389-3.103-3.102-3.103z"/><path d="m466.803 378.467c-1.713 0-3.102 1.389-3.102 3.102 0 1.714 1.389 3.103 3.102 3.103s3.102-1.389 3.102-3.103c0-1.713-1.389-3.102-3.102-3.102z"/><path d="m477.179 388.09c-1.713 0-3.102 1.389-3.102 3.103 0 1.713 1.389 3.103 3.102 3.103s3.102-1.39 3.102-3.103c0-1.714-1.389-3.103-3.102-3.103z"/><path d="m466.803 398.467c-1.713 0-3.102 1.389-3.102 3.102 0 .619.186 1.192.498 1.676h5.209c.312-.483.498-1.057.498-1.676-.001-1.713-1.39-3.102-3.103-3.102z"/><path d="m446.803 358.467c-1.713 0-3.102 1.389-3.102 3.102 0 1.714 1.389 3.103 3.102 3.103s3.102-1.389 3.102-3.103c0-1.713-1.389-3.102-3.102-3.102z"/><path d="m457.179 368.09c-1.713 0-3.102 1.389-3.102 3.103 0 1.713 1.389 3.103 3.102 3.103s3.102-1.39 3.102-3.103c0-1.714-1.389-3.103-3.102-3.103z"/><path d="m446.803 378.467c-1.713 0-3.102 1.389-3.102 3.102 0 1.714 1.389 3.103 3.102 3.103s3.102-1.389 3.102-3.103c0-1.713-1.389-3.102-3.102-3.102z"/><path d="m457.179 388.09c-1.713 0-3.102 1.389-3.102 3.103 0 1.713 1.389 3.103 3.102 3.103s3.102-1.39 3.102-3.103c0-1.714-1.389-3.103-3.102-3.103z"/><path d="m446.803 398.467c-1.713 0-3.102 1.389-3.102 3.102 0 .619.186 1.192.498 1.676h5.209c.312-.483.498-1.057.498-1.676-.001-1.713-1.39-3.102-3.103-3.102z"/><path d="m426.803 358.467c-1.713 0-3.102 1.389-3.102 3.102 0 1.714 1.389 3.103 3.102 3.103s3.102-1.389 3.102-3.103c0-1.713-1.389-3.102-3.102-3.102z"/><path d="m437.179 368.09c-1.713 0-3.102 1.389-3.102 3.103 0 1.713 1.389 3.103 3.102 3.103s3.102-1.39 3.102-3.103c0-1.714-1.389-3.103-3.102-3.103z"/><path d="m426.803 378.467c-1.713 0-3.102 1.389-3.102 3.102 0 1.714 1.389 3.103 3.102 3.103s3.102-1.389 3.102-3.103c0-1.713-1.389-3.102-3.102-3.102z"/><path d="m437.179 388.09c-1.713 0-3.102 1.389-3.102 3.103 0 1.713 1.389 3.103 3.102 3.103s3.102-1.39 3.102-3.103c0-1.714-1.389-3.103-3.102-3.103z"/><path d="m426.803 398.467c-1.713 0-3.102 1.389-3.102 3.102 0 .619.186 1.192.498 1.676h5.209c.312-.483.498-1.057.498-1.676-.001-1.713-1.39-3.102-3.103-3.102z"/><path d="m406.803 358.467c-1.713 0-3.102 1.389-3.102 3.102 0 1.714 1.389 3.103 3.102 3.103s3.102-1.389 3.102-3.103c0-1.713-1.389-3.102-3.102-3.102z"/><path d="m417.179 368.09c-1.713 0-3.102 1.389-3.102 3.103 0 1.713 1.389 3.103 3.102 3.103s3.102-1.39 3.102-3.103c0-1.714-1.389-3.103-3.102-3.103z"/><path d="m406.803 378.467c-1.713 0-3.102 1.389-3.102 3.102 0 1.714 1.389 3.103 3.102 3.103s3.102-1.389 3.102-3.103c0-1.713-1.389-3.102-3.102-3.102z"/><path d="m417.179 388.09c-1.713 0-3.102 1.389-3.102 3.103 0 1.713 1.389 3.103 3.102 3.103s3.102-1.39 3.102-3.103c0-1.714-1.389-3.103-3.102-3.103z"/><path d="m406.803 398.467c-1.713 0-3.102 1.389-3.102 3.102 0 .619.186 1.192.498 1.676h5.209c.312-.483.498-1.057.498-1.676-.001-1.713-1.39-3.102-3.103-3.102z"/><path d="m386.803 358.467c-1.713 0-3.102 1.389-3.102 3.102 0 1.714 1.389 3.103 3.102 3.103s3.102-1.389 3.102-3.103c0-1.713-1.389-3.102-3.102-3.102z"/><path d="m397.179 368.09c-1.713 0-3.102 1.389-3.102 3.103 0 1.713 1.389 3.103 3.102 3.103s3.102-1.39 3.102-3.103c0-1.714-1.389-3.103-3.102-3.103z"/><path d="m386.803 378.467c-1.713 0-3.102 1.389-3.102 3.102 0 1.714 1.389 3.103 3.102 3.103s3.102-1.389 3.102-3.103c0-1.713-1.389-3.102-3.102-3.102z"/><path d="m397.179 388.09c-1.713 0-3.102 1.389-3.102 3.103 0 1.713 1.389 3.103 3.102 3.103s3.102-1.39 3.102-3.103c0-1.714-1.389-3.103-3.102-3.103z"/><path d="m386.803 398.467c-1.713 0-3.102 1.389-3.102 3.102 0 .619.186 1.192.498 1.676h5.209c.312-.483.498-1.057.498-1.676-.001-1.713-1.39-3.102-3.103-3.102z"/><path d="m366.803 358.467c-1.713 0-3.102 1.389-3.102 3.102 0 1.714 1.389 3.103 3.102 3.103s3.102-1.389 3.102-3.103c0-1.713-1.389-3.102-3.102-3.102z"/><path d="m377.179 368.09c-1.713 0-3.102 1.389-3.102 3.103 0 1.713 1.389 3.103 3.102 3.103s3.102-1.39 3.102-3.103c0-1.714-1.389-3.103-3.102-3.103z"/><path d="m366.803 378.467c-1.713 0-3.102 1.389-3.102 3.102 0 1.714 1.389 3.103 3.102 3.103s3.102-1.389 3.102-3.103c0-1.713-1.389-3.102-3.102-3.102z"/><path d="m377.179 388.09c-1.713 0-3.102 1.389-3.102 3.103 0 1.713 1.389 3.103 3.102 3.103s3.102-1.39 3.102-3.103c0-1.714-1.389-3.103-3.102-3.103z"/><path d="m366.803 398.467c-1.713 0-3.102 1.389-3.102 3.102 0 .619.186 1.192.498 1.676h5.209c.312-.483.498-1.057.498-1.676-.001-1.713-1.39-3.102-3.103-3.102z"/><path d="m346.803 358.467c-1.713 0-3.102 1.389-3.102 3.102 0 1.714 1.389 3.103 3.102 3.103s3.102-1.389 3.102-3.103c0-1.713-1.389-3.102-3.102-3.102z"/><path d="m357.179 368.09c-1.713 0-3.102 1.389-3.102 3.103 0 1.713 1.389 3.103 3.102 3.103s3.102-1.39 3.102-3.103c0-1.714-1.389-3.103-3.102-3.103z"/><path d="m346.803 378.467c-1.713 0-3.102 1.389-3.102 3.102 0 1.714 1.389 3.103 3.102 3.103s3.102-1.389 3.102-3.103c0-1.713-1.389-3.102-3.102-3.102z"/><path d="m357.179 388.09c-1.713 0-3.102 1.389-3.102 3.103 0 1.713 1.389 3.103 3.102 3.103s3.102-1.39 3.102-3.103c0-1.714-1.389-3.103-3.102-3.103z"/><path d="m346.803 398.467c-1.713 0-3.102 1.389-3.102 3.102 0 .619.186 1.192.498 1.676h5.209c.312-.483.498-1.057.498-1.676-.001-1.713-1.39-3.102-3.103-3.102z"/><path d="m326.803 358.467c-1.713 0-3.102 1.389-3.102 3.102 0 1.714 1.389 3.103 3.102 3.103s3.102-1.389 3.102-3.103c0-1.713-1.389-3.102-3.102-3.102z"/><path d="m337.179 368.09c-1.713 0-3.102 1.389-3.102 3.103 0 1.713 1.389 3.103 3.102 3.103s3.102-1.39 3.102-3.103c0-1.714-1.389-3.103-3.102-3.103z"/><path d="m326.803 378.467c-1.713 0-3.102 1.389-3.102 3.102 0 1.714 1.389 3.103 3.102 3.103s3.102-1.389 3.102-3.103c0-1.713-1.389-3.102-3.102-3.102z"/><path d="m337.179 388.09c-1.713 0-3.102 1.389-3.102 3.103 0 1.713 1.389 3.103 3.102 3.103s3.102-1.39 3.102-3.103c0-1.714-1.389-3.103-3.102-3.103z"/><path d="m326.803 398.467c-1.713 0-3.102 1.389-3.102 3.102 0 .619.186 1.192.498 1.676h5.209c.312-.483.498-1.057.498-1.676-.001-1.713-1.39-3.102-3.103-3.102z"/><path d="m306.803 358.467c-1.713 0-3.102 1.389-3.102 3.102 0 1.714 1.389 3.103 3.102 3.103s3.102-1.389 3.102-3.103c0-1.713-1.389-3.102-3.102-3.102z"/><path d="m317.179 368.09c-1.713 0-3.102 1.389-3.102 3.103 0 1.713 1.389 3.103 3.102 3.103s3.102-1.39 3.102-3.103c0-1.714-1.389-3.103-3.102-3.103z"/><path d="m306.803 378.467c-1.713 0-3.102 1.389-3.102 3.102 0 1.714 1.389 3.103 3.102 3.103s3.102-1.389 3.102-3.103c0-1.713-1.389-3.102-3.102-3.102z"/><path d="m317.179 388.09c-1.713 0-3.102 1.389-3.102 3.103 0 1.713 1.389 3.103 3.102 3.103s3.102-1.39 3.102-3.103c0-1.714-1.389-3.103-3.102-3.103z"/><path d="m306.803 398.467c-1.713 0-3.102 1.389-3.102 3.102 0 .619.186 1.192.498 1.676h5.209c.312-.483.498-1.057.498-1.676-.001-1.713-1.39-3.102-3.103-3.102z"/><path d="m286.803 358.467c-1.713 0-3.102 1.389-3.102 3.102 0 1.714 1.389 3.103 3.102 3.103s3.102-1.389 3.102-3.103c0-1.713-1.389-3.102-3.102-3.102z"/><path d="m297.179 368.09c-1.713 0-3.102 1.389-3.102 3.103 0 1.713 1.389 3.103 3.102 3.103s3.102-1.39 3.102-3.103c0-1.714-1.389-3.103-3.102-3.103z"/><path d="m286.803 378.467c-1.713 0-3.102 1.389-3.102 3.102 0 1.714 1.389 3.103 3.102 3.103s3.102-1.389 3.102-3.103c0-1.713-1.389-3.102-3.102-3.102z"/><path d="m297.179 388.09c-1.713 0-3.102 1.389-3.102 3.103 0 1.713 1.389 3.103 3.102 3.103s3.102-1.39 3.102-3.103c0-1.714-1.389-3.103-3.102-3.103z"/><path d="m286.803 398.467c-1.713 0-3.102 1.389-3.102 3.102 0 .619.186 1.192.498 1.676h5.209c.312-.483.498-1.057.498-1.676-.001-1.713-1.39-3.102-3.103-3.102z"/><path d="m266.803 358.467c-1.713 0-3.102 1.389-3.102 3.102 0 1.714 1.389 3.103 3.102 3.103s3.102-1.389 3.102-3.103c0-1.713-1.389-3.102-3.102-3.102z"/><path d="m277.179 368.09c-1.713 0-3.102 1.389-3.102 3.103 0 1.713 1.389 3.103 3.102 3.103s3.102-1.39 3.102-3.103c0-1.714-1.389-3.103-3.102-3.103z"/><path d="m266.803 378.467c-1.713 0-3.102 1.389-3.102 3.102 0 1.714 1.389 3.103 3.102 3.103s3.102-1.389 3.102-3.103c0-1.713-1.389-3.102-3.102-3.102z"/><path d="m277.179 388.09c-1.713 0-3.102 1.389-3.102 3.103 0 1.713 1.389 3.103 3.102 3.103s3.102-1.39 3.102-3.103c0-1.714-1.389-3.103-3.102-3.103z"/><path d="m266.803 398.467c-1.713 0-3.102 1.389-3.102 3.102 0 .619.186 1.192.498 1.676h5.209c.312-.483.498-1.057.498-1.676-.001-1.713-1.39-3.102-3.103-3.102z"/><path d="m246.803 358.467c-1.713 0-3.102 1.389-3.102 3.102 0 1.714 1.389 3.103 3.102 3.103s3.102-1.389 3.102-3.103c0-1.713-1.389-3.102-3.102-3.102z"/><path d="m246.803 378.467c-1.713 0-3.102 1.389-3.102 3.102 0 1.714 1.389 3.103 3.102 3.103s3.102-1.389 3.102-3.103c0-1.713-1.389-3.102-3.102-3.102z"/><path d="m246.803 398.467c-1.713 0-3.102 1.389-3.102 3.102 0 .619.186 1.192.498 1.676h5.209c.312-.483.498-1.057.498-1.676-.001-1.713-1.39-3.102-3.103-3.102z"/><path d="m226.803 358.467c-1.713 0-3.102 1.389-3.102 3.102 0 1.714 1.389 3.103 3.102 3.103s3.102-1.389 3.102-3.103c0-1.713-1.389-3.102-3.102-3.102z"/><path d="m237.179 368.09c-1.713 0-3.102 1.389-3.102 3.103 0 1.713 1.389 3.103 3.102 3.103s3.102-1.39 3.102-3.103c0-1.714-1.388-3.103-3.102-3.103z"/><path d="m226.803 378.467c-1.713 0-3.102 1.389-3.102 3.102 0 1.714 1.389 3.103 3.102 3.103s3.102-1.389 3.102-3.103c0-1.713-1.389-3.102-3.102-3.102z"/><path d="m237.179 388.09c-1.713 0-3.102 1.389-3.102 3.103 0 1.713 1.389 3.103 3.102 3.103s3.102-1.39 3.102-3.103c0-1.714-1.388-3.103-3.102-3.103z"/><path d="m226.803 398.467c-1.713 0-3.102 1.389-3.102 3.102 0 .619.186 1.192.498 1.676h5.209c.312-.483.498-1.057.498-1.676-.001-1.713-1.39-3.102-3.103-3.102z"/><path d="m206.803 358.467c-1.713 0-3.102 1.389-3.102 3.102 0 1.714 1.389 3.103 3.102 3.103s3.102-1.389 3.102-3.103c0-1.713-1.389-3.102-3.102-3.102z"/><path d="m217.179 368.09c-1.713 0-3.102 1.389-3.102 3.103 0 1.713 1.389 3.103 3.102 3.103s3.102-1.39 3.102-3.103c0-1.714-1.388-3.103-3.102-3.103z"/><path d="m206.803 378.467c-1.713 0-3.102 1.389-3.102 3.102 0 1.714 1.389 3.103 3.102 3.103s3.102-1.389 3.102-3.103c0-1.713-1.389-3.102-3.102-3.102z"/><path d="m217.179 388.09c-1.713 0-3.102 1.389-3.102 3.103 0 1.713 1.389 3.103 3.102 3.103s3.102-1.39 3.102-3.103c0-1.714-1.388-3.103-3.102-3.103z"/><path d="m206.803 398.467c-1.713 0-3.102 1.389-3.102 3.102 0 .619.186 1.192.498 1.676h5.209c.312-.483.498-1.057.498-1.676-.001-1.713-1.39-3.102-3.103-3.102z"/><path d="m186.803 358.467c-1.713 0-3.102 1.389-3.102 3.102 0 1.714 1.389 3.103 3.102 3.103s3.102-1.389 3.102-3.103c0-1.713-1.389-3.102-3.102-3.102z"/><path d="m197.179 368.09c-1.713 0-3.102 1.389-3.102 3.103 0 1.713 1.389 3.103 3.102 3.103s3.102-1.39 3.102-3.103c0-1.714-1.388-3.103-3.102-3.103z"/><path d="m186.803 378.467c-1.713 0-3.102 1.389-3.102 3.102 0 1.714 1.389 3.103 3.102 3.103s3.102-1.389 3.102-3.103c0-1.713-1.389-3.102-3.102-3.102z"/><path d="m197.179 388.09c-1.713 0-3.102 1.389-3.102 3.103 0 1.713 1.389 3.103 3.102 3.103s3.102-1.39 3.102-3.103c0-1.714-1.388-3.103-3.102-3.103z"/><path d="m186.803 398.467c-1.713 0-3.102 1.389-3.102 3.102 0 .619.186 1.192.498 1.676h5.209c.312-.483.498-1.057.498-1.676-.001-1.713-1.39-3.102-3.103-3.102z"/><path d="m166.803 358.467c-1.713 0-3.102 1.389-3.102 3.102 0 1.714 1.389 3.103 3.102 3.103s3.102-1.389 3.102-3.103c0-1.713-1.389-3.102-3.102-3.102z"/><path d="m177.179 368.09c-1.713 0-3.102 1.389-3.102 3.103 0 1.713 1.389 3.103 3.102 3.103s3.102-1.39 3.102-3.103c0-1.714-1.388-3.103-3.102-3.103z"/><path d="m166.803 378.467c-1.713 0-3.102 1.389-3.102 3.102 0 1.714 1.389 3.103 3.102 3.103s3.102-1.389 3.102-3.103c0-1.713-1.389-3.102-3.102-3.102z"/><path d="m177.179 388.09c-1.713 0-3.102 1.389-3.102 3.103 0 1.713 1.389 3.103 3.102 3.103s3.102-1.39 3.102-3.103c0-1.714-1.388-3.103-3.102-3.103z"/><path d="m166.803 398.467c-1.713 0-3.102 1.389-3.102 3.102 0 .619.186 1.192.498 1.676h5.209c.312-.483.498-1.057.498-1.676-.001-1.713-1.39-3.102-3.103-3.102z"/><path d="m146.803 358.467c-1.713 0-3.102 1.389-3.102 3.102 0 1.714 1.389 3.103 3.102 3.103s3.102-1.389 3.102-3.103c0-1.713-1.389-3.102-3.102-3.102z"/><path d="m157.179 368.09c-1.713 0-3.102 1.389-3.102 3.103 0 1.713 1.389 3.103 3.102 3.103s3.102-1.39 3.102-3.103c0-1.714-1.388-3.103-3.102-3.103z"/><path d="m146.803 378.467c-1.713 0-3.102 1.389-3.102 3.102 0 1.714 1.389 3.103 3.102 3.103s3.102-1.389 3.102-3.103c0-1.713-1.389-3.102-3.102-3.102z"/><path d="m157.179 388.09c-1.713 0-3.102 1.389-3.102 3.103 0 1.713 1.389 3.103 3.102 3.103s3.102-1.39 3.102-3.103c0-1.714-1.388-3.103-3.102-3.103z"/><path d="m146.803 398.467c-1.713 0-3.102 1.389-3.102 3.102 0 .619.186 1.192.498 1.676h5.209c.312-.483.498-1.057.498-1.676-.001-1.713-1.39-3.102-3.103-3.102z"/><path d="m126.803 358.467c-1.713 0-3.102 1.389-3.102 3.102 0 1.714 1.389 3.103 3.102 3.103s3.102-1.389 3.102-3.103c0-1.713-1.389-3.102-3.102-3.102z"/><path d="m137.179 368.09c-1.713 0-3.102 1.389-3.102 3.103 0 1.713 1.389 3.103 3.102 3.103s3.102-1.39 3.102-3.103c0-1.714-1.388-3.103-3.102-3.103z"/><path d="m126.803 378.467c-1.713 0-3.102 1.389-3.102 3.102 0 1.714 1.389 3.103 3.102 3.103s3.102-1.389 3.102-3.103c0-1.713-1.389-3.102-3.102-3.102z"/><path d="m137.179 388.09c-1.713 0-3.102 1.389-3.102 3.103 0 1.713 1.389 3.103 3.102 3.103s3.102-1.39 3.102-3.103c0-1.714-1.388-3.103-3.102-3.103z"/><path d="m126.803 398.467c-1.713 0-3.102 1.389-3.102 3.102 0 .619.186 1.192.498 1.676h5.209c.312-.483.498-1.057.498-1.676-.001-1.713-1.39-3.102-3.103-3.102z"/><path d="m106.803 358.467c-1.713 0-3.102 1.389-3.102 3.102 0 1.714 1.389 3.103 3.102 3.103s3.102-1.389 3.102-3.103c0-1.713-1.389-3.102-3.102-3.102z"/><path d="m117.179 368.09c-1.713 0-3.102 1.389-3.102 3.103 0 1.713 1.389 3.103 3.102 3.103s3.102-1.39 3.102-3.103c.001-1.714-1.388-3.103-3.102-3.103z"/><path d="m106.803 378.467c-1.713 0-3.102 1.389-3.102 3.102 0 1.714 1.389 3.103 3.102 3.103s3.102-1.389 3.102-3.103c0-1.713-1.389-3.102-3.102-3.102z"/><path d="m117.179 388.09c-1.713 0-3.102 1.389-3.102 3.103 0 1.713 1.389 3.103 3.102 3.103s3.102-1.39 3.102-3.103c.001-1.714-1.388-3.103-3.102-3.103z"/><path d="m106.803 398.467c-1.713 0-3.102 1.389-3.102 3.102 0 .619.186 1.192.498 1.676h5.209c.312-.483.498-1.057.498-1.676-.001-1.713-1.39-3.102-3.103-3.102z"/><path d="m86.803 358.467c-1.713 0-3.102 1.389-3.102 3.102 0 1.714 1.389 3.103 3.102 3.103s3.102-1.389 3.102-3.103c0-1.713-1.389-3.102-3.102-3.102z"/><path d="m97.179 368.09c-1.713 0-3.102 1.389-3.102 3.103 0 1.713 1.389 3.103 3.102 3.103s3.102-1.39 3.102-3.103c.001-1.714-1.388-3.103-3.102-3.103z"/><path d="m86.803 378.467c-1.713 0-3.102 1.389-3.102 3.102 0 1.714 1.389 3.103 3.102 3.103s3.102-1.389 3.102-3.103c0-1.713-1.389-3.102-3.102-3.102z"/><path d="m97.179 388.09c-1.713 0-3.102 1.389-3.102 3.103 0 1.713 1.389 3.103 3.102 3.103s3.102-1.39 3.102-3.103c.001-1.714-1.388-3.103-3.102-3.103z"/><path d="m86.803 398.467c-1.713 0-3.102 1.389-3.102 3.102 0 .619.186 1.192.498 1.676h5.209c.312-.483.498-1.057.498-1.676-.001-1.713-1.39-3.102-3.103-3.102z"/><path d="m66.803 358.467c-1.713 0-3.102 1.389-3.102 3.102 0 1.714 1.389 3.103 3.102 3.103s3.102-1.389 3.102-3.103c0-1.713-1.389-3.102-3.102-3.102z"/><path d="m77.179 368.09c-1.713 0-3.102 1.389-3.102 3.103 0 1.713 1.389 3.103 3.102 3.103s3.102-1.39 3.102-3.103c.001-1.714-1.388-3.103-3.102-3.103z"/><path d="m66.803 378.467c-1.713 0-3.102 1.389-3.102 3.102 0 1.714 1.389 3.103 3.102 3.103s3.102-1.389 3.102-3.103c0-1.713-1.389-3.102-3.102-3.102z"/><path d="m77.179 388.09c-1.713 0-3.102 1.389-3.102 3.103 0 1.713 1.389 3.103 3.102 3.103s3.102-1.39 3.102-3.103c.001-1.714-1.388-3.103-3.102-3.103z"/><path d="m66.803 398.467c-1.713 0-3.102 1.389-3.102 3.102 0 .619.186 1.192.498 1.676h5.209c.312-.483.498-1.057.498-1.676-.001-1.713-1.39-3.102-3.103-3.102z"/><path d="m46.803 358.467c-1.713 0-3.102 1.389-3.102 3.102 0 1.714 1.389 3.103 3.102 3.103s3.102-1.389 3.102-3.103c0-1.713-1.389-3.102-3.102-3.102z"/><path d="m57.179 368.09c-1.713 0-3.102 1.389-3.102 3.103 0 1.713 1.389 3.103 3.102 3.103s3.102-1.39 3.102-3.103c.001-1.714-1.388-3.103-3.102-3.103z"/><path d="m46.803 378.467c-1.713 0-3.102 1.389-3.102 3.102 0 1.714 1.389 3.103 3.102 3.103s3.102-1.389 3.102-3.103c0-1.713-1.389-3.102-3.102-3.102z"/><path d="m57.179 388.09c-1.713 0-3.102 1.389-3.102 3.103 0 1.713 1.389 3.103 3.102 3.103s3.102-1.39 3.102-3.103c.001-1.714-1.388-3.103-3.102-3.103z"/><path d="m46.803 398.467c-1.713 0-3.102 1.389-3.102 3.102 0 .619.186 1.192.498 1.676h5.209c.312-.483.498-1.057.498-1.676-.001-1.713-1.39-3.102-3.103-3.102z"/><path d="m26.803 358.467c-1.713 0-3.102 1.389-3.102 3.102 0 1.714 1.389 3.103 3.102 3.103s3.102-1.389 3.102-3.103c0-1.713-1.389-3.102-3.102-3.102z"/><path d="m37.179 368.09c-1.713 0-3.102 1.389-3.102 3.103 0 1.713 1.389 3.103 3.102 3.103s3.102-1.39 3.102-3.103c.001-1.714-1.388-3.103-3.102-3.103z"/><path d="m26.803 378.467c-1.713 0-3.102 1.389-3.102 3.102 0 1.714 1.389 3.103 3.102 3.103s3.102-1.389 3.102-3.103c0-1.713-1.389-3.102-3.102-3.102z"/><path d="m37.179 388.09c-1.713 0-3.102 1.389-3.102 3.103 0 1.713 1.389 3.103 3.102 3.103s3.102-1.39 3.102-3.103c.001-1.714-1.388-3.103-3.102-3.103z"/><path d="m26.803 398.467c-1.713 0-3.102 1.389-3.102 3.102 0 .619.186 1.192.498 1.676h5.209c.312-.483.498-1.057.498-1.676-.001-1.713-1.39-3.102-3.103-3.102z"/><path d="m6.803 358.467c-1.289 0-2.393.786-2.862 1.905v2.394c.468 1.119 1.573 1.905 2.862 1.905 1.713 0 3.102-1.389 3.102-3.103 0-1.712-1.389-3.101-3.102-3.101z"/><path d="m17.179 368.09c-1.713 0-3.102 1.389-3.102 3.103 0 1.713 1.389 3.103 3.102 3.103s3.102-1.39 3.102-3.103c0-1.714-1.389-3.103-3.102-3.103z"/><path d="m6.803 378.467c-1.289 0-2.393.786-2.862 1.905v2.394c.468 1.119 1.573 1.905 2.862 1.905 1.713 0 3.102-1.389 3.102-3.103 0-1.712-1.389-3.101-3.102-3.101z"/><path d="m17.179 388.09c-1.713 0-3.102 1.389-3.102 3.103 0 1.713 1.389 3.103 3.102 3.103s3.102-1.39 3.102-3.103c0-1.714-1.389-3.103-3.102-3.103z"/><path d="m6.803 398.467c-1.289 0-2.393.786-2.862 1.905v2.394c.071.169.159.327.257.479h5.209c.312-.483.498-1.057.498-1.676 0-1.713-1.389-3.102-3.102-3.102z"/><path d="m259.73 181.202v-75.179h-7.882v75.179c-39.361 2.057-70.751 34.724-70.751 74.588 0 39.863 31.391 72.531 70.751 74.588v70.251h7.882v-7.676c.346-.5.551-1.105.551-1.76 0-.654-.205-1.26-.551-1.761v-16.479c.346-.5.551-1.105.551-1.76 0-.654-.205-1.26-.551-1.761v-39.055c39.361-2.057 70.751-34.725 70.751-74.588.001-39.864-31.39-72.531-70.751-74.587zm-7.882 141.272c-35.011-2.048-62.869-31.169-62.869-66.685 0-35.517 27.858-64.637 62.869-66.685zm7.882 0v-133.369c35.011 2.048 62.869 31.168 62.869 66.685 0 35.515-27.858 64.636-62.869 66.684z"/></g></g><path d="m507.637 407.186h-503.696c-2.176 0-3.941-1.765-3.941-3.941v-294.911c0-2.176 1.765-3.941 3.941-3.941h503.696c2.177 0 3.941 1.765 3.941 3.941v294.911c0 2.176-1.764 3.941-3.941 3.941zm-499.755-7.882h495.814v-287.029h-495.814z" fill="#31373d"/></g></svg>