<svg id="Capa_1" enable-background="new 0 0 511.64 511.64" height="512" viewBox="0 0 511.64 511.64" width="512" xmlns="http://www.w3.org/2000/svg"><g><path d="m319.18 441.943c-18.614-2.72-43.323-4.218-69.573-4.218-26.251 0-50.959 1.498-69.573 4.218-28.189 4.118-31.99 9.402-31.99 14.026v37.427c0 4.625 3.801 9.907 31.99 14.026 18.615 2.72 43.323 4.218 69.573 4.218s50.958-1.498 69.573-4.218c28.188-4.119 31.99-9.402 31.99-14.026v-37.427c0-4.624-3.801-9.908-31.99-14.026z" fill="#31373d"/><path d="m468.815 256.773-125.984 48.159-62.146-93.253 138.361-207.405-49.779-.144-113.447 170.236-113.447-170.235-49.779.143 138.36 207.404-62.146 93.253-125.983-48.158c-17.941-6.636-36.919 6.92-36.461 26.043l1.072 44.764c.265 11.052 7.222 20.832 17.575 24.709l120.811 45.229c5.104 1.911 10.853.056 13.877-4.479l96.12-144.086 96.12 144.086c3.024 4.535 8.772 6.39 13.877 4.479l120.811-45.229c10.353-3.876 17.31-13.657 17.575-24.709l1.073-44.764c.459-19.123-18.519-32.678-36.46-26.043z" fill="#e9c278"/><path d="m379.362 63.112 39.971-58.981-50.927-.144-31.906 47.794z" fill="#eaa895"/><path d="m110.441 282.62-67.616-25.847c-17.941-6.636-36.919 6.919-36.461 26.043l1.073 44.764c.265 11.052 7.222 20.832 17.575 24.709l87.986 32.94z" fill="#eaa895"/><g fill="#f9fbfc"><g><path d="m413.352 4.258-4.559-.013c.567.622 1.377 1.019 2.285 1.019.902 0 1.707-.391 2.274-1.006z"/><path d="m397.599 12.538c0 1.713 1.389 3.102 3.102 3.102s3.102-1.389 3.102-3.102-1.389-3.102-3.102-3.102-3.102 1.389-3.102 3.102z"/><path d="m397.599 32.538c0 .923.411 1.742 1.05 2.311l3.398-5.094c-.409-.198-.861-.319-1.346-.319-1.713 0-3.102 1.389-3.102 3.102z"/><path d="m391.078 5.264c.929 0 1.753-.417 2.321-1.063l-4.654-.014c.569.655 1.398 1.077 2.333 1.077z"/><path d="m380.702 9.436c-1.713 0-3.102 1.389-3.102 3.102s1.389 3.102 3.102 3.102 3.102-1.389 3.102-3.102-1.389-3.102-3.102-3.102z"/><path d="m391.078 19.059c-1.713 0-3.102 1.389-3.102 3.103 0 1.713 1.389 3.102 3.102 3.102s3.102-1.389 3.102-3.102-1.389-3.103-3.102-3.103z"/><path d="m380.702 29.436c-1.713 0-3.102 1.389-3.102 3.102s1.389 3.102 3.102 3.102 3.102-1.389 3.102-3.102-1.389-3.102-3.102-3.102z"/><path d="m391.078 39.059c-1.713 0-3.102 1.389-3.102 3.103 0 1.713 1.389 3.102 3.102 3.102.233 0 .458-.03.676-.079l2.373-3.557c-.254-1.457-1.518-2.569-3.049-2.569z"/><path d="m380.702 49.436c-1.713 0-3.102 1.389-3.102 3.102s1.389 3.102 3.102 3.102 3.102-1.389 3.102-3.102-1.389-3.102-3.102-3.102z"/><path d="m369.035 4.479c.547.483 1.257.785 2.043.785.956 0 1.8-.441 2.369-1.121l-4.18-.012z"/><path d="m363.804 12.538c0-.062-.015-.121-.018-.182l-2.065 3.099c1.209-.422 2.083-1.562 2.083-2.917z"/><path d="m371.078 19.059c-1.713 0-3.102 1.389-3.102 3.103 0 1.713 1.389 3.102 3.102 3.102s3.102-1.389 3.102-3.102-1.389-3.103-3.102-3.103z"/><path d="m360.702 29.436c-1.713 0-3.102 1.389-3.102 3.102s1.389 3.102 3.102 3.102 3.102-1.389 3.102-3.102-1.389-3.102-3.102-3.102z"/><path d="m371.078 39.059c-1.713 0-3.102 1.389-3.102 3.103 0 1.713 1.389 3.102 3.102 3.102s3.102-1.389 3.102-3.102-1.389-3.103-3.102-3.103z"/><path d="m360.702 49.436c-1.713 0-3.102 1.389-3.102 3.102s1.389 3.102 3.102 3.102 3.102-1.389 3.102-3.102-1.389-3.102-3.102-3.102z"/><path d="m371.078 59.059c-1.713 0-3.102 1.389-3.102 3.103 0 1.713 1.389 3.102 3.102 3.102s3.102-1.389 3.102-3.102-1.389-3.103-3.102-3.103z"/><path d="m360.702 69.436c-1.713 0-3.102 1.389-3.102 3.103s1.389 3.102 3.102 3.102 3.102-1.389 3.102-3.102-1.389-3.103-3.102-3.103z"/><path d="m357.599 92.538c0 .915.403 1.729 1.033 2.296l3.396-5.09c-.404-.192-.85-.309-1.327-.309-1.713.001-3.102 1.39-3.102 3.103z"/><path d="m351.078 39.059c-1.713 0-3.102 1.389-3.102 3.103 0 1.713 1.389 3.102 3.102 3.102s3.102-1.389 3.102-3.102-1.389-3.103-3.102-3.103z"/><path d="m340.702 55.64c1.713 0 3.102-1.389 3.102-3.102s-1.389-3.102-3.102-3.102c-.969 0-1.824.454-2.393 1.15l-.331.497c-.233.436-.378.927-.378 1.456-.001 1.713 1.388 3.101 3.102 3.101z"/><path d="m351.078 59.059c-1.713 0-3.102 1.389-3.102 3.103 0 1.713 1.389 3.102 3.102 3.102s3.102-1.389 3.102-3.102-1.389-3.103-3.102-3.103z"/><path d="m340.702 69.436c-1.713 0-3.102 1.389-3.102 3.103s1.389 3.102 3.102 3.102 3.102-1.389 3.102-3.102-1.389-3.103-3.102-3.103z"/><path d="m351.078 79.059c-1.713 0-3.102 1.389-3.102 3.103 0 1.713 1.389 3.102 3.102 3.102s3.102-1.389 3.102-3.102-1.389-3.103-3.102-3.103z"/><path d="m340.702 89.436c-1.713 0-3.102 1.389-3.102 3.103s1.389 3.102 3.102 3.102 3.102-1.389 3.102-3.102-1.389-3.103-3.102-3.103z"/><path d="m351.078 99.059c-1.713 0-3.102 1.389-3.102 3.103 0 1.713 1.389 3.102 3.102 3.102.221 0 .435-.025.643-.068l2.402-3.601c-.267-1.442-1.526-2.536-3.045-2.536z"/><path d="m340.702 109.436c-1.713 0-3.102 1.389-3.102 3.103s1.389 3.102 3.102 3.102 3.102-1.389 3.102-3.102-1.389-3.103-3.102-3.103z"/><path d="m334.18 62.162c0-1.221-.712-2.267-1.738-2.773l-3.398 5.099c.546.478 1.251.776 2.034.776 1.713 0 3.102-1.389 3.102-3.102z"/><path d="m323.804 72.538c0-.056-.014-.107-.016-.162l-2.048 3.073c1.2-.428 2.064-1.563 2.064-2.911z"/><path d="m331.078 79.059c-1.713 0-3.102 1.389-3.102 3.103 0 1.713 1.389 3.102 3.102 3.102s3.102-1.389 3.102-3.102-1.389-3.103-3.102-3.103z"/><path d="m320.702 89.436c-1.713 0-3.102 1.389-3.102 3.103s1.389 3.102 3.102 3.102 3.102-1.389 3.102-3.102-1.389-3.103-3.102-3.103z"/><path d="m331.078 99.059c-1.713 0-3.102 1.389-3.102 3.103 0 1.713 1.389 3.102 3.102 3.102s3.102-1.389 3.102-3.102-1.389-3.103-3.102-3.103z"/><path d="m320.702 109.436c-1.713 0-3.102 1.389-3.102 3.103s1.389 3.102 3.102 3.102 3.102-1.389 3.102-3.102-1.389-3.103-3.102-3.103z"/><path d="m331.078 119.059c-1.713 0-3.102 1.389-3.102 3.103 0 1.713 1.389 3.102 3.102 3.102s3.102-1.389 3.102-3.102-1.389-3.103-3.102-3.103z"/><path d="m320.702 129.436c-1.713 0-3.102 1.389-3.102 3.103 0 1.713 1.389 3.102 3.102 3.102s3.102-1.389 3.102-3.102c0-1.714-1.389-3.103-3.102-3.103z"/><path d="m317.599 152.538c0 .907.396 1.715 1.016 2.282l3.393-5.086c-.398-.187-.838-.298-1.307-.298-1.713 0-3.102 1.389-3.102 3.102z"/><path d="m311.078 99.059c-1.713 0-3.102 1.389-3.102 3.103 0 1.713 1.389 3.102 3.102 3.102s3.102-1.389 3.102-3.102-1.389-3.103-3.102-3.103z"/><path d="m300.702 115.641c1.713 0 3.102-1.389 3.102-3.102s-1.389-3.103-3.102-3.103c-.925 0-1.746.413-2.314 1.055l-.476.714c-.194.405-.312.854-.312 1.333-.001 1.714 1.388 3.103 3.102 3.103z"/><path d="m311.078 119.059c-1.713 0-3.102 1.389-3.102 3.103 0 1.713 1.389 3.102 3.102 3.102s3.102-1.389 3.102-3.102-1.389-3.103-3.102-3.103z"/><path d="m300.702 129.436c-1.713 0-3.102 1.389-3.102 3.103 0 1.713 1.389 3.102 3.102 3.102s3.102-1.389 3.102-3.102c0-1.714-1.389-3.103-3.102-3.103z"/><path d="m311.078 139.059c-1.713 0-3.102 1.389-3.102 3.103 0 1.713 1.389 3.102 3.102 3.102s3.102-1.389 3.102-3.102-1.389-3.103-3.102-3.103z"/><path d="m300.702 149.436c-1.713 0-3.102 1.389-3.102 3.103 0 1.713 1.389 3.102 3.102 3.102s3.102-1.389 3.102-3.102c0-1.714-1.389-3.103-3.102-3.103z"/><path d="m311.078 159.059c-1.713 0-3.102 1.389-3.102 3.103 0 1.713 1.389 3.102 3.102 3.102.21 0 .414-.022.612-.062l2.43-3.642c-.281-1.425-1.535-2.501-3.042-2.501z"/><path d="m300.702 169.436c-1.713 0-3.102 1.389-3.102 3.103 0 1.713 1.389 3.102 3.102 3.102s3.102-1.389 3.102-3.102c0-1.714-1.389-3.103-3.102-3.103z"/><path d="m294.18 122.162c0-1.217-.707-2.259-1.727-2.768l-3.399 5.101c.544.473 1.246.769 2.024.769 1.713 0 3.102-1.389 3.102-3.102z"/><path d="m283.804 132.538c0-.049-.012-.094-.014-.143l-2.031 3.048c1.19-.433 2.045-1.564 2.045-2.905z"/><path d="m291.078 139.059c-1.713 0-3.102 1.389-3.102 3.103 0 1.713 1.389 3.102 3.102 3.102s3.102-1.389 3.102-3.102-1.389-3.103-3.102-3.103z"/><path d="m280.702 149.436c-1.713 0-3.102 1.389-3.102 3.103 0 1.713 1.389 3.102 3.102 3.102s3.102-1.389 3.102-3.102c0-1.714-1.389-3.103-3.102-3.103z"/><path d="m291.078 159.059c-1.713 0-3.102 1.389-3.102 3.103 0 1.713 1.389 3.102 3.102 3.102s3.102-1.389 3.102-3.102-1.389-3.103-3.102-3.103z"/><path d="m280.702 169.436c-1.713 0-3.102 1.389-3.102 3.103 0 1.713 1.389 3.102 3.102 3.102s3.102-1.389 3.102-3.102c0-1.714-1.389-3.103-3.102-3.103z"/><path d="m291.078 179.059c-1.713 0-3.102 1.389-3.102 3.103 0 1.713 1.389 3.102 3.102 3.102s3.102-1.389 3.102-3.102-1.389-3.103-3.102-3.103z"/><path d="m280.702 189.436c-1.713 0-3.102 1.389-3.102 3.103 0 1.713 1.389 3.102 3.102 3.102s3.102-1.389 3.102-3.102c0-1.714-1.389-3.103-3.102-3.103z"/><path d="m281.99 209.723c-.393-.18-.827-.288-1.288-.288-1.428 0-2.619.971-2.979 2.285.489.734.978 1.467 1.467 2.202z"/><path d="m271.078 159.059c-1.713 0-3.102 1.389-3.102 3.103 0 1.713 1.389 3.102 3.102 3.102s3.102-1.389 3.102-3.102-1.389-3.103-3.102-3.103z"/><path d="m260.702 175.641c1.713 0 3.102-1.389 3.102-3.102s-1.389-3.103-3.102-3.103c-.881 0-1.671.371-2.236.96l-.621.932c-.158.372-.246.781-.246 1.211 0 1.713 1.389 3.102 3.103 3.102z"/><path d="m271.078 179.059c-1.713 0-3.102 1.389-3.102 3.103 0 1.713 1.389 3.102 3.102 3.102s3.102-1.389 3.102-3.102-1.389-3.103-3.102-3.103z"/><path d="m274.18 202.162c0-1.713-1.389-3.103-3.102-3.103-.552 0-1.062.156-1.511.409 1.134 1.712 2.27 3.423 3.409 5.132.728-.568 1.204-1.443 1.204-2.438z"/><path d="m237.599 232.538c0 1.713 1.389 3.102 3.102 3.102 1.583 0 2.874-1.189 3.064-2.721-.775-1.138-1.562-2.27-2.362-3.396-.226-.053-.459-.087-.701-.087-1.714 0-3.103 1.389-3.103 3.102z"/><path d="m248.773 240.104c-.49.548-.797 1.265-.797 2.058 0 1.713 1.389 3.102 3.102 3.102.451 0 .876-.101 1.262-.273-1.201-1.63-2.391-3.259-3.567-4.887z"/><path d="m240.702 249.436c-1.713 0-3.102 1.389-3.102 3.103 0 1.713 1.389 3.102 3.102 3.102s3.102-1.389 3.102-3.102c0-1.714-1.389-3.103-3.102-3.103z"/><path d="m237.599 272.538c0 .891.381 1.689.983 2.254l3.389-5.08c-.388-.175-.816-.277-1.269-.277-1.714.001-3.103 1.39-3.103 3.103z"/><path d="m231.078 219.059c-1.713 0-3.102 1.389-3.102 3.103 0 1.713 1.389 3.102 3.102 3.102s3.102-1.389 3.102-3.102-1.389-3.103-3.102-3.103z"/><path d="m220.702 235.641c1.713 0 3.102-1.389 3.102-3.102s-1.389-3.103-3.102-3.103c-.849 0-1.618.343-2.178.896l-.693 1.04c-.147.361-.231.753-.231 1.167-.001 1.713 1.388 3.102 3.102 3.102z"/><path d="m231.078 239.059c-1.713 0-3.102 1.389-3.102 3.103 0 1.713 1.389 3.102 3.102 3.102s3.102-1.389 3.102-3.102-1.389-3.103-3.102-3.103z"/><path d="m220.702 249.436c-1.713 0-3.102 1.389-3.102 3.103 0 1.713 1.389 3.102 3.102 3.102s3.102-1.389 3.102-3.102c0-1.714-1.389-3.103-3.102-3.103z"/><path d="m231.078 259.059c-1.713 0-3.102 1.389-3.102 3.103 0 1.713 1.389 3.102 3.102 3.102s3.102-1.389 3.102-3.102-1.389-3.103-3.102-3.103z"/><path d="m220.702 269.436c-1.713 0-3.102 1.389-3.102 3.102s1.389 3.102 3.102 3.102 3.102-1.389 3.102-3.102-1.389-3.102-3.102-3.102z"/><path d="m231.078 279.059c-1.713 0-3.102 1.389-3.102 3.103 0 1.713 1.389 3.102 3.102 3.102.19 0 .375-.023.556-.056l2.472-3.706c-.303-1.396-1.542-2.443-3.028-2.443z"/><path d="m220.702 289.436c-1.713 0-3.102 1.389-3.102 3.102s1.389 3.102 3.102 3.102 3.102-1.389 3.102-3.102-1.389-3.102-3.102-3.102z"/><path d="m214.18 242.162c0-1.208-.697-2.243-1.704-2.755l-3.402 5.105c.542.463 1.236.752 2.004.752 1.713 0 3.102-1.389 3.102-3.102z"/><path d="m203.804 252.538c0-.036-.009-.068-.01-.103l-1.997 2.997c1.17-.444 2.007-1.567 2.007-2.894z"/><path d="m211.078 259.059c-1.713 0-3.102 1.389-3.102 3.103 0 1.713 1.389 3.102 3.102 3.102s3.102-1.389 3.102-3.102-1.389-3.103-3.102-3.103z"/><path d="m200.702 269.436c-1.713 0-3.102 1.389-3.102 3.102s1.389 3.102 3.102 3.102 3.102-1.389 3.102-3.102-1.389-3.102-3.102-3.102z"/><path d="m211.078 279.059c-1.713 0-3.102 1.389-3.102 3.103 0 1.713 1.389 3.102 3.102 3.102s3.102-1.389 3.102-3.102-1.389-3.103-3.102-3.103z"/><path d="m200.702 289.436c-1.713 0-3.102 1.389-3.102 3.102s1.389 3.102 3.102 3.102 3.102-1.389 3.102-3.102-1.389-3.102-3.102-3.102z"/><path d="m211.078 299.059c-1.713 0-3.102 1.389-3.102 3.103 0 1.713 1.389 3.102 3.102 3.102s3.102-1.389 3.102-3.102-1.389-3.103-3.102-3.103z"/><path d="m200.702 309.436c-1.713 0-3.102 1.389-3.102 3.102s1.389 3.102 3.102 3.102 3.102-1.389 3.102-3.102-1.389-3.102-3.102-3.102z"/><path d="m197.599 332.538c0 .883.373 1.676.966 2.241l3.386-5.076c-.383-.169-.804-.267-1.25-.267-1.713 0-3.102 1.389-3.102 3.102z"/><path d="m191.078 279.059c-1.713 0-3.102 1.389-3.102 3.103 0 1.713 1.389 3.102 3.102 3.102s3.102-1.389 3.102-3.102-1.389-3.103-3.102-3.103z"/><path d="m180.702 295.641c1.713 0 3.102-1.389 3.102-3.102s-1.389-3.102-3.102-3.102c-.834 0-1.587.333-2.145.868l-.74 1.11c-.136.35-.218.727-.218 1.124 0 1.713 1.389 3.102 3.103 3.102z"/><path d="m191.078 299.059c-1.713 0-3.102 1.389-3.102 3.103 0 1.713 1.389 3.102 3.102 3.102s3.102-1.389 3.102-3.102-1.389-3.103-3.102-3.103z"/><path d="m180.702 309.436c-1.713 0-3.102 1.389-3.102 3.102s1.389 3.102 3.102 3.102 3.102-1.389 3.102-3.102-1.389-3.102-3.102-3.102z"/><path d="m191.078 319.059c-1.713 0-3.102 1.389-3.102 3.103 0 1.713 1.389 3.102 3.102 3.102s3.102-1.389 3.102-3.102-1.389-3.103-3.102-3.103z"/><path d="m180.702 329.436c-1.713 0-3.102 1.389-3.102 3.102s1.389 3.102 3.102 3.102 3.102-1.389 3.102-3.102-1.389-3.102-3.102-3.102z"/><path d="m191.078 339.059c-1.713 0-3.102 1.389-3.102 3.103 0 1.713 1.389 3.102 3.102 3.102.181 0 .355-.023.528-.053l2.492-3.736c-.313-1.382-1.544-2.416-3.02-2.416z"/><path d="m180.702 349.436c-1.713 0-3.102 1.389-3.102 3.102s1.389 3.102 3.102 3.102 3.102-1.389 3.102-3.102-1.389-3.102-3.102-3.102z"/><path d="m171.078 305.264c1.713 0 3.102-1.389 3.102-3.102 0-1.203-.692-2.235-1.693-2.749l-3.403 5.107c.54.457 1.23.744 1.994.744z"/><path d="m160.702 309.436c-1.713 0-3.102 1.389-3.102 3.102s1.389 3.102 3.102 3.102 3.102-1.389 3.102-3.102-1.389-3.102-3.102-3.102z"/><path d="m171.078 319.059c-1.713 0-3.102 1.389-3.102 3.103 0 1.713 1.389 3.102 3.102 3.102s3.102-1.389 3.102-3.102-1.389-3.103-3.102-3.103z"/><path d="m160.702 329.436c-1.713 0-3.102 1.389-3.102 3.102s1.389 3.102 3.102 3.102 3.102-1.389 3.102-3.102-1.389-3.102-3.102-3.102z"/><path d="m171.078 339.059c-1.713 0-3.102 1.389-3.102 3.103 0 1.713 1.389 3.102 3.102 3.102s3.102-1.389 3.102-3.102-1.389-3.103-3.102-3.103z"/><path d="m160.702 349.436c-1.713 0-3.102 1.389-3.102 3.102s1.389 3.102 3.102 3.102 3.102-1.389 3.102-3.102-1.389-3.102-3.102-3.102z"/><path d="m171.078 359.059c-1.713 0-3.102 1.389-3.102 3.103 0 1.713 1.389 3.102 3.102 3.102s3.102-1.389 3.102-3.102-1.389-3.103-3.102-3.103z"/><path d="m160.702 369.436c-1.713 0-3.102 1.389-3.102 3.102s1.389 3.102 3.102 3.102 3.102-1.389 3.102-3.102-1.389-3.102-3.102-3.102z"/><path d="m157.599 392.538c0 .81.317 1.54.825 2.092.464-.486.892-1.018 1.275-1.592l2.232-3.346c-.378-.164-.793-.256-1.23-.256-1.713 0-3.102 1.389-3.102 3.102z"/><path d="m140.702 295.641c.743 0 1.416-.272 1.95-.708l-5.003-1.913c.232 1.483 1.504 2.621 3.053 2.621z"/><path d="m151.078 299.059c-1.713 0-3.102 1.389-3.102 3.103 0 1.713 1.389 3.102 3.102 3.102s3.102-1.389 3.102-3.102-1.389-3.103-3.102-3.103z"/><path d="m140.702 309.436c-1.713 0-3.102 1.389-3.102 3.102s1.389 3.102 3.102 3.102 3.102-1.389 3.102-3.102-1.389-3.102-3.102-3.102z"/><path d="m151.078 319.059c-1.713 0-3.102 1.389-3.102 3.103 0 1.713 1.389 3.102 3.102 3.102s3.102-1.389 3.102-3.102-1.389-3.103-3.102-3.103z"/><path d="m140.702 329.436c-1.713 0-3.102 1.389-3.102 3.102s1.389 3.102 3.102 3.102 3.102-1.389 3.102-3.102-1.389-3.102-3.102-3.102z"/><path d="m151.078 339.059c-1.713 0-3.102 1.389-3.102 3.103 0 1.713 1.389 3.102 3.102 3.102s3.102-1.389 3.102-3.102-1.389-3.103-3.102-3.103z"/><path d="m140.702 349.436c-1.713 0-3.102 1.389-3.102 3.102s1.389 3.102 3.102 3.102 3.102-1.389 3.102-3.102-1.389-3.102-3.102-3.102z"/><path d="m151.078 359.059c-1.713 0-3.102 1.389-3.102 3.103 0 1.713 1.389 3.102 3.102 3.102s3.102-1.389 3.102-3.102-1.389-3.103-3.102-3.103z"/><path d="m140.702 369.436c-1.713 0-3.102 1.389-3.102 3.102s1.389 3.102 3.102 3.102 3.102-1.389 3.102-3.102-1.389-3.102-3.102-3.102z"/><path d="m151.078 385.264c1.713 0 3.102-1.389 3.102-3.102s-1.389-3.103-3.102-3.103-3.102 1.389-3.102 3.103c0 1.713 1.389 3.102 3.102 3.102z"/><path d="m143.804 392.538c0-1.713-1.389-3.102-3.102-3.102s-3.102 1.389-3.102 3.102c0 .905.394 1.712 1.013 2.279l2.175.815c1.672-.046 3.016-1.409 3.016-3.094z"/><path d="m120.702 289.436c-1.713 0-3.102 1.389-3.102 3.102s1.389 3.102 3.102 3.102 3.102-1.389 3.102-3.102-1.389-3.102-3.102-3.102z"/><path d="m131.078 299.059c-1.713 0-3.102 1.389-3.102 3.103 0 1.713 1.389 3.102 3.102 3.102s3.102-1.389 3.102-3.102-1.389-3.103-3.102-3.103z"/><path d="m120.702 309.436c-1.713 0-3.102 1.389-3.102 3.102s1.389 3.102 3.102 3.102 3.102-1.389 3.102-3.102-1.389-3.102-3.102-3.102z"/><path d="m131.078 319.059c-1.713 0-3.102 1.389-3.102 3.103 0 1.713 1.389 3.102 3.102 3.102s3.102-1.389 3.102-3.102-1.389-3.103-3.102-3.103z"/><path d="m120.702 329.436c-1.713 0-3.102 1.389-3.102 3.102s1.389 3.102 3.102 3.102 3.102-1.389 3.102-3.102-1.389-3.102-3.102-3.102z"/><path d="m131.078 339.059c-1.713 0-3.102 1.389-3.102 3.103 0 1.713 1.389 3.102 3.102 3.102s3.102-1.389 3.102-3.102-1.389-3.103-3.102-3.103z"/><path d="m120.702 349.436c-1.713 0-3.102 1.389-3.102 3.102s1.389 3.102 3.102 3.102 3.102-1.389 3.102-3.102-1.389-3.102-3.102-3.102z"/><path d="m131.078 359.059c-1.713 0-3.102 1.389-3.102 3.103 0 1.713 1.389 3.102 3.102 3.102s3.102-1.389 3.102-3.102-1.389-3.103-3.102-3.103z"/><path d="m120.702 369.436c-1.713 0-3.102 1.389-3.102 3.102s1.389 3.102 3.102 3.102 3.102-1.389 3.102-3.102-1.389-3.102-3.102-3.102z"/><path d="m131.078 379.059c-1.713 0-3.102 1.389-3.102 3.103 0 1.713 1.389 3.102 3.102 3.102s3.102-1.389 3.102-3.102-1.389-3.103-3.102-3.103z"/><path d="m111.078 285.264c1.087 0 2.041-.561 2.594-1.408l-5.65-2.16c-.023.153-.047.306-.047.466.001 1.713 1.39 3.102 3.103 3.102z"/><path d="m100.702 289.436c-1.713 0-3.102 1.389-3.102 3.102s1.389 3.102 3.102 3.102 3.102-1.389 3.102-3.102-1.389-3.102-3.102-3.102z"/><path d="m111.078 299.059c-1.713 0-3.102 1.389-3.102 3.103 0 1.713 1.389 3.102 3.102 3.102s3.102-1.389 3.102-3.102-1.389-3.103-3.102-3.103z"/><path d="m100.702 309.436c-1.713 0-3.102 1.389-3.102 3.102s1.389 3.102 3.102 3.102 3.102-1.389 3.102-3.102-1.389-3.102-3.102-3.102z"/><path d="m111.078 319.059c-1.713 0-3.102 1.389-3.102 3.103 0 1.713 1.389 3.102 3.102 3.102s3.102-1.389 3.102-3.102-1.389-3.103-3.102-3.103z"/><path d="m100.702 329.436c-1.713 0-3.102 1.389-3.102 3.102s1.389 3.102 3.102 3.102 3.102-1.389 3.102-3.102-1.389-3.102-3.102-3.102z"/><path d="m111.078 339.059c-1.713 0-3.102 1.389-3.102 3.103 0 1.713 1.389 3.102 3.102 3.102s3.102-1.389 3.102-3.102-1.389-3.103-3.102-3.103z"/><path d="m100.702 349.436c-1.713 0-3.102 1.389-3.102 3.102s1.389 3.102 3.102 3.102 3.102-1.389 3.102-3.102-1.389-3.102-3.102-3.102z"/><path d="m111.078 359.059c-1.713 0-3.102 1.389-3.102 3.103 0 1.713 1.389 3.102 3.102 3.102s3.102-1.389 3.102-3.102-1.389-3.103-3.102-3.103z"/><path d="m100.702 369.436c-1.713 0-3.102 1.389-3.102 3.102s1.389 3.102 3.102 3.102 3.102-1.389 3.102-3.102-1.389-3.102-3.102-3.102z"/><path d="m114.18 382.162c0-1.713-1.389-3.103-3.102-3.103s-3.102 1.389-3.102 3.103c0 .464.109.9.292 1.295l4.082 1.528c1.077-.486 1.83-1.564 1.83-2.823z"/><path d="m80.702 275.641c1.713 0 3.102-1.389 3.102-3.102 0-.036-.009-.069-.01-.104l-5.329-2.037c-.533.557-.865 1.309-.865 2.141-.001 1.713 1.388 3.102 3.102 3.102z"/><path d="m91.078 279.059c-1.713 0-3.102 1.389-3.102 3.103 0 1.713 1.389 3.102 3.102 3.102s3.102-1.389 3.102-3.102-1.389-3.103-3.102-3.103z"/><path d="m80.702 289.436c-1.713 0-3.102 1.389-3.102 3.102s1.389 3.102 3.102 3.102 3.102-1.389 3.102-3.102-1.389-3.102-3.102-3.102z"/><path d="m91.078 299.059c-1.713 0-3.102 1.389-3.102 3.103 0 1.713 1.389 3.102 3.102 3.102s3.102-1.389 3.102-3.102-1.389-3.103-3.102-3.103z"/><path d="m80.702 309.436c-1.713 0-3.102 1.389-3.102 3.102s1.389 3.102 3.102 3.102 3.102-1.389 3.102-3.102-1.389-3.102-3.102-3.102z"/><path d="m91.078 319.059c-1.713 0-3.102 1.389-3.102 3.103 0 1.713 1.389 3.102 3.102 3.102s3.102-1.389 3.102-3.102-1.389-3.103-3.102-3.103z"/><path d="m80.702 329.436c-1.713 0-3.102 1.389-3.102 3.102s1.389 3.102 3.102 3.102 3.102-1.389 3.102-3.102-1.389-3.102-3.102-3.102z"/><path d="m91.078 339.059c-1.713 0-3.102 1.389-3.102 3.103 0 1.713 1.389 3.102 3.102 3.102s3.102-1.389 3.102-3.102-1.389-3.103-3.102-3.103z"/><path d="m80.702 349.436c-1.713 0-3.102 1.389-3.102 3.102s1.389 3.102 3.102 3.102 3.102-1.389 3.102-3.102-1.389-3.102-3.102-3.102z"/><path d="m91.078 359.059c-1.713 0-3.102 1.389-3.102 3.103 0 1.713 1.389 3.102 3.102 3.102s3.102-1.389 3.102-3.102-1.389-3.103-3.102-3.103z"/><path d="m80.702 369.436c-1.528 0-2.791 1.107-3.048 2.56l5.698 2.133c.281-.467.452-1.007.452-1.591 0-1.713-1.389-3.102-3.102-3.102z"/><path d="m60.702 269.436c-1.713 0-3.102 1.389-3.102 3.102s1.389 3.102 3.102 3.102 3.102-1.389 3.102-3.102-1.389-3.102-3.102-3.102z"/><path d="m71.078 279.059c-1.713 0-3.102 1.389-3.102 3.103 0 1.713 1.389 3.102 3.102 3.102s3.102-1.389 3.102-3.102-1.389-3.103-3.102-3.103z"/><path d="m60.702 289.436c-1.713 0-3.102 1.389-3.102 3.102s1.389 3.102 3.102 3.102 3.102-1.389 3.102-3.102-1.389-3.102-3.102-3.102z"/><path d="m71.078 299.059c-1.713 0-3.102 1.389-3.102 3.103 0 1.713 1.389 3.102 3.102 3.102s3.102-1.389 3.102-3.102-1.389-3.103-3.102-3.103z"/><path d="m60.702 309.436c-1.713 0-3.102 1.389-3.102 3.102s1.389 3.102 3.102 3.102 3.102-1.389 3.102-3.102-1.389-3.102-3.102-3.102z"/><path d="m71.078 319.059c-1.713 0-3.102 1.389-3.102 3.103 0 1.713 1.389 3.102 3.102 3.102s3.102-1.389 3.102-3.102-1.389-3.103-3.102-3.103z"/><path d="m60.702 329.436c-1.713 0-3.102 1.389-3.102 3.102s1.389 3.102 3.102 3.102 3.102-1.389 3.102-3.102-1.389-3.102-3.102-3.102z"/><path d="m71.078 339.059c-1.713 0-3.102 1.389-3.102 3.103 0 1.713 1.389 3.102 3.102 3.102s3.102-1.389 3.102-3.102-1.389-3.103-3.102-3.103z"/><path d="m60.702 349.436c-1.713 0-3.102 1.389-3.102 3.102s1.389 3.102 3.102 3.102 3.102-1.389 3.102-3.102-1.389-3.102-3.102-3.102z"/><path d="m71.078 359.059c-1.713 0-3.102 1.389-3.102 3.103 0 1.713 1.389 3.102 3.102 3.102s3.102-1.389 3.102-3.102-1.389-3.103-3.102-3.103z"/><path d="m47.976 262.162c0 1.713 1.389 3.102 3.102 3.102s3.102-1.389 3.102-3.102c0-.4-.082-.78-.22-1.132l-4.266-1.631c-1.015.51-1.718 1.55-1.718 2.763z"/><path d="m40.702 269.436c-1.713 0-3.102 1.389-3.102 3.102s1.389 3.102 3.102 3.102 3.102-1.389 3.102-3.102-1.389-3.102-3.102-3.102z"/><path d="m51.078 279.059c-1.713 0-3.102 1.389-3.102 3.103 0 1.713 1.389 3.102 3.102 3.102s3.102-1.389 3.102-3.102-1.389-3.103-3.102-3.103z"/><path d="m40.702 289.436c-1.713 0-3.102 1.389-3.102 3.102s1.389 3.102 3.102 3.102 3.102-1.389 3.102-3.102-1.389-3.102-3.102-3.102z"/><path d="m51.078 299.059c-1.713 0-3.102 1.389-3.102 3.103 0 1.713 1.389 3.102 3.102 3.102s3.102-1.389 3.102-3.102-1.389-3.103-3.102-3.103z"/><path d="m40.702 309.436c-1.713 0-3.102 1.389-3.102 3.102s1.389 3.102 3.102 3.102 3.102-1.389 3.102-3.102-1.389-3.102-3.102-3.102z"/><path d="m51.078 319.059c-1.713 0-3.102 1.389-3.102 3.103 0 1.713 1.389 3.102 3.102 3.102s3.102-1.389 3.102-3.102-1.389-3.103-3.102-3.103z"/><path d="m40.702 329.436c-1.713 0-3.102 1.389-3.102 3.102s1.389 3.102 3.102 3.102 3.102-1.389 3.102-3.102-1.389-3.102-3.102-3.102z"/><path d="m51.078 339.059c-1.713 0-3.102 1.389-3.102 3.103 0 1.713 1.389 3.102 3.102 3.102s3.102-1.389 3.102-3.102-1.389-3.103-3.102-3.103z"/><path d="m40.702 349.436c-1.713 0-3.102 1.389-3.102 3.102s1.389 3.102 3.102 3.102 3.102-1.389 3.102-3.102-1.389-3.102-3.102-3.102z"/><path d="m51.078 359.059c-1.292 0-2.398.792-2.865 1.915l5.793 2.169c.104-.31.174-.636.174-.981 0-1.713-1.389-3.103-3.102-3.103z"/><path d="m31.078 259.059c-1.713 0-3.102 1.389-3.102 3.103 0 1.713 1.389 3.102 3.102 3.102s3.102-1.389 3.102-3.102-1.389-3.103-3.102-3.103z"/><path d="m20.702 269.436c-1.713 0-3.102 1.389-3.102 3.102s1.389 3.102 3.102 3.102 3.102-1.389 3.102-3.102-1.389-3.102-3.102-3.102z"/><path d="m31.078 279.059c-1.713 0-3.102 1.389-3.102 3.103 0 1.713 1.389 3.102 3.102 3.102s3.102-1.389 3.102-3.102-1.389-3.103-3.102-3.103z"/><path d="m20.702 295.641c1.713 0 3.102-1.389 3.102-3.102s-1.389-3.102-3.102-3.102-3.102 1.389-3.102 3.102c-.001 1.713 1.388 3.102 3.102 3.102z"/><path d="m31.078 299.059c-1.713 0-3.102 1.389-3.102 3.103 0 1.713 1.389 3.102 3.102 3.102s3.102-1.389 3.102-3.102-1.389-3.103-3.102-3.103z"/><path d="m20.702 315.641c1.713 0 3.102-1.389 3.102-3.102s-1.389-3.102-3.102-3.102-3.102 1.389-3.102 3.102c-.001 1.713 1.388 3.102 3.102 3.102z"/><path d="m31.078 319.059c-1.713 0-3.102 1.389-3.102 3.103 0 1.713 1.389 3.102 3.102 3.102s3.102-1.389 3.102-3.102-1.389-3.103-3.102-3.103z"/><path d="m20.702 335.641c1.713 0 3.102-1.389 3.102-3.102s-1.389-3.102-3.102-3.102-3.102 1.389-3.102 3.102c-.001 1.713 1.388 3.102 3.102 3.102z"/><path d="m31.078 345.264c1.713 0 3.102-1.389 3.102-3.102s-1.389-3.103-3.102-3.103-3.102 1.389-3.102 3.103c0 1.713 1.389 3.102 3.102 3.102z"/><path d="m20.702 349.436c-.345 0-.67.07-.98.173 1.246.812 2.573 1.518 3.964 2.125-.357-1.321-1.551-2.298-2.984-2.298z"/><path d="m13.927 263.387c-.449.464-.878.949-1.295 1.445.572-.333 1.032-.834 1.295-1.445z"/><path d="m11.078 279.059c-1.713 0-3.102 1.389-3.102 3.103 0 1.713 1.389 3.102 3.102 3.102s3.102-1.389 3.102-3.102-1.389-3.103-3.102-3.103z"/><path d="m11.078 305.264c1.713 0 3.102-1.389 3.102-3.102s-1.389-3.103-3.102-3.103-3.102 1.389-3.102 3.103c0 1.713 1.389 3.102 3.102 3.102z"/><path d="m11.078 325.264c1.713 0 3.102-1.389 3.102-3.102s-1.389-3.103-3.102-3.103-3.102 1.389-3.102 3.103c0 1.713 1.389 3.102 3.102 3.102z"/><path d="m11.078 339.059c-.253 0-.495.039-.73.096.882 1.741 1.951 3.378 3.182 4.888.402-.523.651-1.17.651-1.881-.001-1.713-1.39-3.103-3.103-3.103z"/></g><path d="m132.278 63.112-39.971-58.981 50.927-.144 31.906 47.794z"/><path d="m401.199 282.62 67.616-25.847c17.941-6.636 36.919 6.919 36.461 26.043l-1.073 44.764c-.265 11.052-7.222 20.832-17.575 24.709l-87.986 32.94z"/></g><path d="m496.263 256.891c-8.387-5.991-19.164-7.432-28.831-3.858l-123.047 47.036-58.848-88.41 137.112-205.458c.816-1.224.893-2.797.199-4.094-.694-1.297-2.045-2.107-3.516-2.107h-50.208c-1.335 0-2.579.667-3.319 1.777l-109.985 165.237-109.985-165.237c-.739-1.11-1.984-1.777-3.319-1.777h-50.208c-1.471 0-2.822.81-3.516 2.106-.693 1.297-.617 2.871.199 4.094l137.112 205.458-58.848 88.41-123.047-47.035c-9.667-3.574-20.444-2.133-28.831 3.858-8.386 5.99-13.245 15.717-12.999 26.02l1.073 44.764c.306 12.748 8.22 23.874 20.163 28.347l120.811 45.228c1.823.683 3.698 1.011 5.548 1.011 5.128 0 10.051-2.522 13.043-7.009l92.804-139.064 92.804 139.064c2.993 4.487 7.916 7.009 13.043 7.009 1.85 0 3.726-.328 5.548-1.011l120.811-45.228c11.943-4.473 19.857-15.6 20.163-28.347l1.073-44.764c.247-10.303-4.612-20.03-12.999-26.02zm-125.003-248.917h40.618l-33.785 50.626-34.304-9.356zm-32.128 48.267 34.294 9.353-92.677 138.874-20.14-30.257zm-239.37-48.267h40.619l27.471 41.271-34.305 9.355zm-73.352 340.581c-8.877-3.324-14.76-11.595-14.987-21.07l-1.073-44.764c-.187-7.772 3.335-14.822 9.661-19.341 4.022-2.873 8.643-4.341 13.34-4.341 2.691 0 5.408.482 8.049 1.459l15.186 5.805 3.128 94.721zm41.383 15.493-3.126-94.657 41.517 15.87 3.115 94.325zm88.59 26.778c-2.007 3.011-5.773 4.229-9.163 2.957l-29.843-11.172-3.112-94.261 53.12 20.306c1.74.666 3.71.036 4.742-1.515l58.772-88.296 20.128 30.161zm237.879-8.215-29.843 11.172c-3.39 1.271-7.155.054-9.163-2.957l-217.042-325.233 34.294-9.353 167.005 250.9c1.032 1.551 3.003 2.18 4.742 1.515l53.12-20.306zm49.585-18.563-41.506 15.539 3.115-94.325 41.517-15.87zm56.37-36.563c-.227 9.475-6.109 17.746-14.987 21.07l-33.305 12.469 3.128-94.721 15.186-5.805c2.641-.977 5.358-1.459 8.049-1.459 4.697 0 9.318 1.469 13.34 4.341 6.326 4.52 9.848 11.569 9.661 19.341z" fill="#31373d"/></g></svg>