<svg id="Capa_1" enable-background="new 0 0 511.566 511.566" height="512" viewBox="0 0 511.566 511.566" width="512" xmlns="http://www.w3.org/2000/svg"><g><path d="m487.303 507.834c-7.495 0-14.716-4.117-18.332-11.261-14.783-29.197-16.492-68.88-18.302-110.893-2.818-65.426-6.012-139.582-58.425-187.832-5.06-4.658-17.104-6.097-26.782-7.253-12.529-1.497-24.363-2.912-32.86-11.409-8.98-8.98-10.36-21.18-11.695-32.978-1.194-10.555-2.429-21.469-8.538-28.092-49.421-53.57-116.469-54.626-181.309-55.646-44.433-.699-86.401-1.359-117.63-20.757-9.633-5.982-12.591-18.64-6.608-28.272 5.982-9.632 18.64-12.592 28.272-6.607 21.575 13.401 58.023 13.975 96.611 14.582 66.6 1.048 149.486 2.352 210.842 68.86 15.219 16.497 17.59 37.451 19.159 51.317.255 2.254.564 4.984.904 7.222 2.393.373 5.313.722 7.723 1.01 14.727 1.76 34.897 4.17 49.72 17.815 64.895 59.741 68.633 146.534 71.638 216.273 1.614 37.454 3.137 72.832 13.912 94.113 5.122 10.116 1.074 22.468-9.042 27.59-2.973 1.504-6.14 2.218-9.258 2.218z" fill="#e9c278"/><path d="m481.975 20.426-101.989 27.328c-5.599 1.5-7.474 8.498-3.375 12.597l74.661 74.661c4.098 4.098 11.097 2.223 12.597-3.375l27.328-101.988c1.499-5.6-3.624-10.723-9.222-9.223z" fill="#f9fbfc"/><path d="m481.975 20.426-101.989 27.328c-5.599 1.5-7.474 8.498-3.375 12.597l74.661 74.661c4.098 4.098 11.097 2.223 12.597-3.375l27.328-101.988c1.499-5.6-3.624-10.723-9.222-9.223z" fill="#f9fbfc"/><g fill="#eaa895"><path d="m482.473 32.465c0 1.713 1.389 3.103 3.102 3.103s3.102-1.389 3.102-3.103c0-1.713-1.389-3.102-3.102-3.102s-3.102 1.389-3.102 3.102z"/><path d="m482.473 52.465c0 1.267.761 2.352 1.85 2.834l1.582-5.903c-.11-.012-.217-.033-.329-.033-1.714 0-3.103 1.389-3.103 3.102z"/><path d="m475.952 38.986c-1.713 0-3.102 1.389-3.102 3.102s1.389 3.102 3.102 3.102 3.102-1.389 3.102-3.102-1.389-3.102-3.102-3.102z"/><path d="m465.575 49.363c-1.713 0-3.102 1.389-3.102 3.102s1.389 3.103 3.102 3.103 3.102-1.389 3.102-3.103c.001-1.713-1.388-3.102-3.102-3.102z"/><path d="m475.952 58.986c-1.713 0-3.102 1.389-3.102 3.102s1.389 3.102 3.102 3.102 3.102-1.389 3.102-3.102-1.389-3.102-3.102-3.102z"/><path d="m465.575 69.363c-1.713 0-3.102 1.389-3.102 3.102s1.389 3.103 3.102 3.103 3.102-1.389 3.102-3.103c.001-1.713-1.388-3.102-3.102-3.102z"/><path d="m472.85 82.088c0 1.713 1.389 3.102 3.102 3.102.127 0 .248-.023.371-.037l1.484-5.538c-.519-.39-1.156-.629-1.855-.629-1.713 0-3.102 1.389-3.102 3.102z"/><path d="m465.575 89.363c-1.713 0-3.102 1.389-3.102 3.102s1.389 3.103 3.102 3.103 3.102-1.389 3.102-3.103c.001-1.713-1.388-3.102-3.102-3.102z"/><path d="m465.575 109.363c-1.713 0-3.102 1.389-3.102 3.102s1.389 3.103 3.102 3.103 3.102-1.389 3.102-3.103c.001-1.713-1.388-3.102-3.102-3.102z"/><path d="m464.416 129.591c-1.138.459-1.943 1.571-1.943 2.873 0 .517.138.997.362 1.425.446-.665.808-1.412 1.033-2.254z"/><path d="m455.952 58.986c-1.713 0-3.102 1.389-3.102 3.102s1.389 3.102 3.102 3.102 3.102-1.389 3.102-3.102-1.389-3.102-3.102-3.102z"/><path d="m445.575 69.363c-1.713 0-3.102 1.389-3.102 3.102s1.389 3.103 3.102 3.103 3.102-1.389 3.102-3.103c.001-1.713-1.388-3.102-3.102-3.102z"/><path d="m455.952 85.191c1.713 0 3.102-1.389 3.102-3.102s-1.389-3.102-3.102-3.102-3.102 1.389-3.102 3.102 1.389 3.102 3.102 3.102z"/><path d="m445.575 95.567c1.713 0 3.102-1.389 3.102-3.103 0-1.713-1.389-3.102-3.102-3.102s-3.102 1.389-3.102 3.102c0 1.714 1.389 3.103 3.102 3.103z"/><path d="m455.952 105.191c1.713 0 3.102-1.389 3.102-3.102s-1.389-3.102-3.102-3.102-3.102 1.389-3.102 3.102 1.389 3.102 3.102 3.102z"/><path d="m445.575 115.567c1.713 0 3.102-1.389 3.102-3.103 0-1.713-1.389-3.102-3.102-3.102s-3.102 1.389-3.102 3.102c0 1.714 1.389 3.103 3.102 3.103z"/><path d="m459.054 122.088c0-1.713-1.389-3.102-3.102-3.102s-3.102 1.389-3.102 3.102 1.389 3.102 3.102 3.102 3.102-1.388 3.102-3.102z"/><path d="m445.628 129.368 3.044 3.044c-.028-1.67-1.373-3.015-3.044-3.044z"/><path d="m435.952 85.191c1.713 0 3.102-1.389 3.102-3.102s-1.389-3.102-3.102-3.102-3.102 1.389-3.102 3.102 1.389 3.102 3.102 3.102z"/><path d="m428.678 92.465c0-1.713-1.389-3.102-3.102-3.102s-3.102 1.389-3.102 3.102 1.389 3.103 3.102 3.103c1.713-.001 3.102-1.39 3.102-3.103z"/><path d="m435.952 105.191c1.713 0 3.102-1.389 3.102-3.102s-1.389-3.102-3.102-3.102-3.102 1.389-3.102 3.102 1.389 3.102 3.102 3.102z"/><path d="m425.628 109.368 3.044 3.044c-.028-1.67-1.373-3.015-3.044-3.044z"/><path d="m439.054 122.088c0-1.713-1.389-3.102-3.102-3.102-.219 0-.432.024-.638.067l3.673 3.673c.043-.205.067-.418.067-.638z"/><path d="m415.952 98.986c-.219 0-.432.024-.638.067l3.674 3.674c.043-.207.067-.419.067-.639-.001-1.713-1.39-3.102-3.103-3.102z"/></g><path d="m77.327 481.711-2.448-36.984c-.268-4.049-3.493-7.274-7.542-7.542l-36.984-2.448c-6.94-.459-10.107-8.881-5.189-13.799l54.481-54.481c1.373-1.373 3.194-2.207 5.131-2.349l58.771-4.311c4.924-.361 9.021 3.732 8.665 8.657l-4.259 58.829c-.14 1.939-.974 3.764-2.35 5.139l-54.478 54.478c-4.917 4.918-13.339 1.751-13.798-5.189z" fill="#eaa895"/><g fill="#f9fbfc"><path d="m147.057 369.363c-1.713 0-3.102 1.389-3.102 3.103s1.389 3.102 3.102 3.102 3.102-1.389 3.102-3.102-1.388-3.103-3.102-3.103z"/><path d="m147.057 389.363c-1.713 0-3.102 1.389-3.102 3.103s1.389 3.102 3.102 3.102 3.102-1.389 3.102-3.102-1.388-3.103-3.102-3.103z"/><path d="m143.955 412.466c0 1.713 1.389 3.102 3.102 3.102.667 0 1.281-.214 1.786-.572l.346-4.774c-.556-.528-1.304-.858-2.132-.858-1.713-.001-3.102 1.389-3.102 3.102z"/><path d="m147.507 429.409c-.148-.022-.296-.046-.45-.046-1.713 0-3.102 1.389-3.102 3.103 0 .469.112.909.298 1.307l1.352-1.352c.856-.856 1.502-1.888 1.902-3.012z"/><path d="m137.434 378.987c-1.713 0-3.102 1.389-3.102 3.102s1.389 3.102 3.102 3.102 3.102-1.389 3.102-3.102-1.389-3.102-3.102-3.102z"/><path d="m127.057 389.363c-1.713 0-3.102 1.389-3.102 3.103s1.389 3.102 3.102 3.102 3.102-1.389 3.102-3.102-1.388-3.103-3.102-3.103z"/><path d="m137.434 398.987c-1.713 0-3.102 1.389-3.102 3.102s1.389 3.102 3.102 3.102 3.102-1.389 3.102-3.102-1.389-3.102-3.102-3.102z"/><path d="m127.057 409.363c-1.713 0-3.102 1.389-3.102 3.103s1.389 3.102 3.102 3.102 3.102-1.389 3.102-3.102-1.388-3.103-3.102-3.103z"/><path d="m137.434 418.987c-1.713 0-3.102 1.389-3.102 3.102s1.389 3.102 3.102 3.102 3.102-1.389 3.102-3.102-1.389-3.102-3.102-3.102z"/><path d="m127.057 429.363c-1.713 0-3.102 1.389-3.102 3.103s1.389 3.102 3.102 3.102 3.102-1.389 3.102-3.102-1.388-3.103-3.102-3.103z"/><path d="m134.331 442.089c0 .469.112.909.298 1.307l4.111-4.111c-.398-.186-.838-.298-1.307-.298-1.713 0-3.102 1.389-3.102 3.102z"/><path d="m123.955 452.466c0 .469.112.909.298 1.307l4.112-4.112c-.398-.186-.838-.298-1.307-.298-1.714 0-3.103 1.39-3.103 3.103z"/><path d="m117.434 398.987c-1.713 0-3.102 1.389-3.102 3.102s1.389 3.102 3.102 3.102 3.102-1.389 3.102-3.102-1.389-3.102-3.102-3.102z"/><path d="m107.057 409.363c-1.713 0-3.102 1.389-3.102 3.103s1.389 3.102 3.102 3.102 3.102-1.389 3.102-3.102-1.388-3.103-3.102-3.103z"/><path d="m117.434 418.987c-1.713 0-3.102 1.389-3.102 3.102s1.389 3.102 3.102 3.102 3.102-1.389 3.102-3.102-1.389-3.102-3.102-3.102z"/><path d="m107.057 429.363c-1.713 0-3.102 1.389-3.102 3.103s1.389 3.102 3.102 3.102 3.102-1.389 3.102-3.102-1.388-3.103-3.102-3.103z"/><path d="m117.434 438.987c-1.713 0-3.102 1.389-3.102 3.102s1.389 3.102 3.102 3.102 3.102-1.389 3.102-3.102-1.389-3.102-3.102-3.102z"/><path d="m107.057 449.363c-1.713 0-3.102 1.389-3.102 3.103s1.389 3.102 3.102 3.102 3.102-1.389 3.102-3.102-1.388-3.103-3.102-3.103z"/><path d="m114.331 462.089c0 .469.112.909.298 1.307l4.112-4.112c-.398-.186-.838-.297-1.307-.297-1.714 0-3.103 1.389-3.103 3.102z"/><path d="m103.955 472.466c0 .469.112.909.298 1.307l4.112-4.112c-.398-.186-.838-.298-1.307-.298-1.714 0-3.103 1.39-3.103 3.103z"/><path d="m97.434 418.987c-1.713 0-3.102 1.389-3.102 3.102s1.389 3.102 3.102 3.102 3.102-1.389 3.102-3.102-1.389-3.102-3.102-3.102z"/><path d="m87.057 429.363c-1.713 0-3.102 1.389-3.102 3.103s1.389 3.102 3.102 3.102 3.102-1.389 3.102-3.102-1.388-3.103-3.102-3.103z"/><path d="m97.434 438.987c-1.713 0-3.102 1.389-3.102 3.102s1.389 3.102 3.102 3.102 3.102-1.389 3.102-3.102-1.389-3.102-3.102-3.102z"/><path d="m87.057 455.568c1.713 0 3.102-1.389 3.102-3.102s-1.389-3.103-3.102-3.103-3.102 1.389-3.102 3.103 1.389 3.102 3.102 3.102z"/><path d="m97.434 458.987c-1.713 0-3.102 1.389-3.102 3.102s1.389 3.102 3.102 3.102 3.102-1.389 3.102-3.102-1.389-3.102-3.102-3.102z"/><path d="m87.057 475.568c1.713 0 3.102-1.389 3.102-3.102s-1.389-3.103-3.102-3.103-3.102 1.389-3.102 3.103 1.389 3.102 3.102 3.102z"/><path d="m97.434 478.987c-1.713 0-3.102 1.389-3.102 3.102 0 .469.112.909.298 1.307l4.112-4.112c-.4-.185-.84-.297-1.308-.297z"/><path d="m77.434 445.192c1.713 0 3.102-1.389 3.102-3.102s-1.389-3.102-3.102-3.102-3.102 1.389-3.102 3.102c0 .114.022.223.034.333.135.358.252.724.335 1.104.519.986 1.541 1.665 2.733 1.665z"/><path d="m80.536 462.089c0-1.713-1.389-3.102-3.102-3.102-.58 0-1.117.169-1.581.446l.365 5.509c.374.16.785.249 1.216.249 1.713.001 3.102-1.388 3.102-3.102z"/><path d="m77.434 478.987c-.098 0-.19.02-.285.028l.178 2.695c.083 1.248.43 2.368.961 3.347 1.295-.373 2.248-1.553 2.248-2.968 0-1.713-1.389-3.102-3.102-3.102z"/></g><path d="m508.933 476.34c-10.41-20.561-11.917-55.545-13.513-92.588-3.034-70.425-6.809-158.072-72.839-218.858-9.84-9.058-21.701-13.42-32.934-15.863l35.182-35.183 24.419 24.419c2.06 2.061 4.757 3.161 7.559 3.161.939 0 1.891-.124 2.834-.376 3.757-1.006 6.601-3.85 7.608-7.607l27.778-103.671c1.007-3.756-.034-7.642-2.784-10.392-2.75-2.751-6.636-3.795-10.393-2.785l-103.671 27.777c-3.757 1.006-6.601 3.851-7.608 7.607-1.007 3.757.034 7.642 2.785 10.393l24.42 24.42-35.312 35.312c-2.549-11.267-7.272-23.629-17.173-34.361-62.441-67.684-146.214-69.002-213.527-70.061-38.056-.599-74.002-1.165-94.701-14.02-5.505-3.422-12.013-4.495-18.323-3.017-6.311 1.474-11.669 5.32-15.089 10.825-7.059 11.364-3.556 26.353 7.808 33.412 6.137 3.812 12.655 6.915 19.494 9.453l200.225 199.054-103.853 103.853-42.821 3.141c-2.83.208-5.493 1.426-7.497 3.432l-54.48 54.48c-3.325 3.325-4.362 8.124-2.708 12.525 1.655 4.4 5.598 7.328 10.289 7.639l36.984 2.448c2.173.144 3.92 1.891 4.064 4.062l2.448 36.985v-.001c.31 4.691 3.237 8.634 7.638 10.289 1.385.522 2.81.776 4.216.776 3.061 0 6.031-1.205 8.31-3.483l54.478-54.478c2.008-2.008 3.228-4.675 3.433-7.508l3.165-43.717 103.469-103.469 199.664 198.497c2.081 6.837 4.593 13.329 7.664 19.396 4.156 8.208 12.456 13.308 21.663 13.308 3.772 0 7.556-.906 10.943-2.621 5.782-2.927 10.078-7.932 12.097-14.09 2.017-6.158 1.516-12.734-1.411-18.515zm-130.298-419.245c-1.214-1.214-1.001-2.629-.853-3.181.148-.553.671-1.885 2.329-2.33l103.672-27.779c1.656-.442 2.777.449 3.181.854.404.404 1.296 1.523.852 3.181l-27.779 103.671c-.444 1.658-1.777 2.181-2.329 2.329-.553.148-1.969.361-3.181-.852zm-234.405 369.918c-.076 1.045-.525 2.029-1.266 2.77l-54.477 54.477c-1.244 1.245-2.971 1.619-4.62.998-1.647-.619-2.7-2.038-2.816-3.793l-2.448-36.985c-.39-5.892-5.128-10.628-11.02-11.019l-36.983-2.448c-1.756-.117-3.174-1.169-3.794-2.817-.619-1.648-.246-3.375.999-4.62l54.481-54.48c.739-.739 1.72-1.189 2.764-1.265l58.771-4.311c.112-.008.223-.012.334-.012 1.158 0 2.238.447 3.068 1.277.91.909 1.36 2.116 1.267 3.399zm-134.237-411.603c2.368-3.811 6.077-6.473 10.446-7.495 1.28-.299 2.572-.447 3.854-.447 3.095 0 6.136.861 8.831 2.536 22.454 13.947 59.403 14.528 98.523 15.144 65.887 1.036 147.886 2.327 208.157 67.658 10.08 10.926 14.219 24.119 16.317 35.642l-29.75 29.749c-.797-3.976-1.273-8.149-1.755-12.411-1.262-11.151-2.567-22.682-9.504-30.202-50.506-54.747-118.367-55.815-183.997-56.849-43.9-.69-85.365-1.342-115.716-20.194-7.869-4.885-10.294-15.262-5.406-23.131zm36.22 43.571c25.553 6.28 54.605 6.747 84.787 7.222 64.054 1.008 130.288 2.051 178.624 54.444 5.281 5.725 6.446 16.022 7.573 25.98.649 5.735 1.348 11.838 3.01 17.735l-83.75 83.75zm217.377 216.106 83.77-83.77c5.701 1.544 11.726 2.276 17.66 2.984 8.661 1.036 20.522 2.453 24.695 6.293 51.278 47.206 54.437 120.543 57.224 185.25 1.21 28.087 2.38 55.141 7.424 78.901zm239.658 217.444c-1.397 4.263-4.371 7.728-8.374 9.754-2.38 1.205-4.927 1.815-7.571 1.815-6.376 0-12.125-3.53-15.002-9.214-14.418-28.477-16.111-67.767-17.903-109.368-2.849-66.148-6.079-141.122-59.627-190.417-5.947-5.474-18.123-6.929-28.867-8.212-4.346-.52-8.477-1.02-12.345-1.771l29.717-29.717c11.631 2.053 24.341 5.863 34.249 14.985 63.76 58.696 67.461 144.634 70.436 213.69 1.631 37.868 3.172 73.635 14.311 95.635 2.027 4.004 2.374 8.556.976 12.82z" fill="#31373d"/></g></svg>