<svg id="Capa_1" enable-background="new 0 0 511.942 511.942" height="512" viewBox="0 0 511.942 511.942" width="512" xmlns="http://www.w3.org/2000/svg"><g><path d="m471.277 317.558 13.98-12.945c3.129-2.897 1.079-8.128-3.185-8.128h-143.929l75.794-84.002-1.106-.998h2.116v-29.365c0-6.938-5.623-12.561-12.56-12.561h-192.081l111.447-84.701-.227-.299h.517v-28.878c0-7.206-5.842-13.048-13.048-13.048h-259.47v41.926h203.332l-110.206 83.758.944 1.242h-1.166v29.203c0 7.027 5.696 12.723 12.722 12.723h203.217l-75.662 83.855 1.269 1.145h-1.951v29.372c0 6.934 5.62 12.554 12.554 12.554h187.403c4.276 0 6.32-5.255 3.167-8.144z" fill="#eaa895"/><g fill="#f9fbfc"><path d="m317.773 84.937c.062.854.464 1.604 1.077 2.126l2.797-2.126z"/><path d="m303.932 84.937h-6.159c.118 1.606 1.443 2.877 3.08 2.877s2.962-1.27 3.079-2.877z"/><path d="m308.127 94.336c0 .275.047.537.115.791l4.549-3.458c-.46-.27-.989-.436-1.561-.436-1.714 0-3.103 1.389-3.103 3.103z"/><path d="m280.853 87.814c1.636 0 2.962-1.271 3.079-2.877h-6.159c.118 1.607 1.444 2.877 3.08 2.877z"/><path d="m288.127 94.336c0 1.713 1.389 3.103 3.102 3.103s3.102-1.39 3.102-3.103c0-1.714-1.389-3.103-3.102-3.103s-3.102 1.389-3.102 3.103z"/><path d="m280.853 101.61c-1.713 0-3.102 1.389-3.102 3.102 0 1.714 1.389 3.103 3.102 3.103s3.102-1.389 3.102-3.103c0-1.713-1.389-3.102-3.102-3.102z"/><path d="m260.853 87.814c1.636 0 2.962-1.271 3.079-2.877h-6.159c.118 1.607 1.444 2.877 3.08 2.877z"/><path d="m271.229 91.233c-1.713 0-3.102 1.389-3.102 3.103 0 1.713 1.389 3.103 3.102 3.103s3.102-1.39 3.102-3.103c0-1.714-1.388-3.103-3.102-3.103z"/><path d="m260.853 101.61c-1.713 0-3.102 1.389-3.102 3.102 0 1.714 1.389 3.103 3.102 3.103s3.102-1.389 3.102-3.103c0-1.713-1.389-3.102-3.102-3.102z"/><path d="m271.229 111.233c-1.713 0-3.102 1.389-3.102 3.103 0 1.713 1.389 3.103 3.102 3.103s3.102-1.39 3.102-3.103c0-1.714-1.388-3.103-3.102-3.103z"/><path d="m260.853 121.61c-1.713 0-3.102 1.389-3.102 3.102 0 1.714 1.389 3.103 3.102 3.103s3.102-1.389 3.102-3.103c0-1.713-1.389-3.102-3.102-3.102z"/><path d="m251.229 91.233c-1.713 0-3.102 1.389-3.102 3.103 0 1.713 1.389 3.103 3.102 3.103s3.102-1.39 3.102-3.103c0-1.714-1.389-3.103-3.102-3.103z"/><path d="m240.853 101.61c-1.713 0-3.102 1.389-3.102 3.102 0 1.714 1.389 3.103 3.102 3.103s3.102-1.389 3.102-3.103c0-1.713-1.389-3.102-3.102-3.102z"/><path d="m251.229 111.233c-1.713 0-3.102 1.389-3.102 3.103 0 1.713 1.389 3.103 3.102 3.103s3.102-1.39 3.102-3.103c0-1.714-1.389-3.103-3.102-3.103z"/><path d="m240.853 121.61c-1.713 0-3.102 1.389-3.102 3.102 0 1.714 1.389 3.103 3.102 3.103s3.102-1.389 3.102-3.103c0-1.713-1.389-3.102-3.102-3.102z"/><path d="m251.229 131.233c-1.713 0-3.102 1.389-3.102 3.103 0 1.713 1.389 3.103 3.102 3.103s3.102-1.39 3.102-3.103c0-1.714-1.389-3.103-3.102-3.103z"/><path d="m240.853 141.61c-1.713 0-3.102 1.389-3.102 3.101 0 1.189.676 2.209 1.657 2.73l4.471-3.398c-.307-1.391-1.543-2.433-3.026-2.433z"/><path d="m231.229 111.233c-1.713 0-3.102 1.389-3.102 3.103 0 1.713 1.389 3.103 3.102 3.103s3.102-1.39 3.102-3.103c0-1.714-1.389-3.103-3.102-3.103z"/><path d="m220.853 121.61c-1.713 0-3.102 1.389-3.102 3.102 0 1.714 1.389 3.103 3.102 3.103s3.102-1.389 3.102-3.103c0-1.713-1.389-3.102-3.102-3.102z"/><path d="m231.229 131.233c-1.713 0-3.102 1.389-3.102 3.103 0 1.713 1.389 3.103 3.102 3.103s3.102-1.39 3.102-3.103c0-1.714-1.389-3.103-3.102-3.103z"/><path d="m220.853 141.61c-1.713 0-3.102 1.389-3.102 3.101 0 1.714 1.389 3.103 3.102 3.103s3.102-1.389 3.102-3.103c0-1.712-1.389-3.101-3.102-3.101z"/><path d="m231.229 151.233c-1.713 0-3.102 1.389-3.102 3.103 0 .511.135.985.354 1.41l4.846-3.684c-.553-.51-1.286-.829-2.098-.829z"/><path d="m217.909 163.78 2.842-2.16c-1.341.044-2.455.937-2.842 2.16z"/><path d="m214.331 114.336c0-.158-.024-.31-.047-.462l-4.325 3.287c.388.175.816.277 1.269.277 1.714 0 3.103-1.389 3.103-3.102z"/><path d="m200.853 127.814c1.713 0 3.102-1.389 3.102-3.103 0-.887-.377-1.682-.974-2.247l-4.858 3.692c.521.982 1.541 1.658 2.73 1.658z"/><path d="m211.229 131.233c-1.713 0-3.102 1.389-3.102 3.103 0 1.713 1.389 3.103 3.102 3.103s3.102-1.39 3.102-3.103c0-1.714-1.389-3.103-3.102-3.103z"/><path d="m200.853 141.61c-1.713 0-3.102 1.389-3.102 3.101 0 1.714 1.389 3.103 3.102 3.103s3.102-1.389 3.102-3.103c0-1.712-1.389-3.101-3.102-3.101z"/><path d="m214.331 154.336c0-1.714-1.389-3.103-3.102-3.103s-3.102 1.389-3.102 3.103c0 1.713 1.389 3.103 3.102 3.103 1.713-.001 3.102-1.391 3.102-3.103z"/><path d="m200.853 161.61c-1.713 0-3.102 1.389-3.102 3.101 0 1.714 1.389 3.103 3.102 3.103s3.102-1.389 3.102-3.103c0-1.712-1.389-3.101-3.102-3.101z"/><path d="m191.229 137.438c1.713 0 3.102-1.39 3.102-3.103 0-1.648-1.289-2.983-2.913-3.083l-3.227 2.453c-.042.203-.065.414-.065.63.001 1.713 1.39 3.103 3.103 3.103z"/><path d="m180.853 141.61c-1.713 0-3.102 1.389-3.102 3.101 0 1.714 1.389 3.103 3.102 3.103s3.102-1.389 3.102-3.103c0-1.712-1.389-3.101-3.102-3.101z"/><path d="m191.229 151.233c-1.713 0-3.102 1.389-3.102 3.103 0 1.713 1.389 3.103 3.102 3.103s3.102-1.39 3.102-3.103c0-1.714-1.389-3.103-3.102-3.103z"/><path d="m180.853 161.61c-1.713 0-3.102 1.389-3.102 3.101 0 1.714 1.389 3.103 3.102 3.103s3.102-1.389 3.102-3.103c0-1.712-1.389-3.101-3.102-3.101z"/><path d="m168.127 154.336c0 1.713 1.389 3.103 3.102 3.103s3.102-1.39 3.102-3.103c0-1.714-1.389-3.103-3.102-3.103s-3.102 1.389-3.102 3.103z"/><path d="m160.853 167.814c1.713 0 3.102-1.389 3.102-3.103 0-1.713-1.389-3.101-3.102-3.101s-3.102 1.389-3.102 3.101c-.001 1.715 1.388 3.103 3.102 3.103z"/></g><g fill="#f9fbfc"><path d="m408.35 213.194c-.14.354-.223.737-.223 1.142 0 1.193.682 2.218 1.67 2.736l3.499-3.878z"/><path d="m400.853 221.61c-1.713 0-3.102 1.389-3.102 3.101 0 1.48 1.038 2.714 2.425 3.024l3.608-3.999c-.412-1.232-1.561-2.126-2.931-2.126z"/><path d="m388.127 214.336c0 1.713 1.389 3.103 3.102 3.103s3.102-1.39 3.102-3.103c0-.404-.083-.787-.223-1.142h-5.758c-.14.354-.223.737-.223 1.142z"/><path d="m377.75 224.712c0 1.714 1.389 3.103 3.102 3.103s3.102-1.389 3.102-3.103c0-1.713-1.389-3.101-3.102-3.101s-3.102 1.388-3.102 3.101z"/><path d="m391.229 231.233c-1.713 0-3.102 1.389-3.102 3.103 0 1.713 1.389 3.103 3.102 3.103.072 0 .14-.017.21-.021l2.881-3.192c-.06-1.663-1.416-2.993-3.091-2.993z"/><path d="m380.853 241.61c-1.713 0-3.102 1.389-3.102 3.101 0 1.714 1.389 3.103 3.102 3.103.602 0 1.158-.179 1.634-.475l1.14-1.264c.204-.413.329-.872.329-1.364-.001-1.712-1.39-3.101-3.103-3.101z"/><path d="m368.127 214.336c0 1.713 1.389 3.103 3.102 3.103s3.102-1.39 3.102-3.103c0-.404-.083-.787-.223-1.142h-5.758c-.14.354-.223.737-.223 1.142z"/><path d="m360.853 221.61c-1.713 0-3.102 1.389-3.102 3.101 0 1.714 1.389 3.103 3.102 3.103s3.102-1.389 3.102-3.103c0-1.712-1.389-3.101-3.102-3.101z"/><path d="m371.229 231.233c-1.713 0-3.102 1.389-3.102 3.103 0 1.713 1.389 3.103 3.102 3.103s3.102-1.39 3.102-3.103c0-1.714-1.388-3.103-3.102-3.103z"/><path d="m360.853 241.61c-1.713 0-3.102 1.389-3.102 3.101 0 1.714 1.389 3.103 3.102 3.103s3.102-1.389 3.102-3.103c0-1.712-1.389-3.101-3.102-3.101z"/><path d="m371.229 251.233c-1.713 0-3.102 1.389-3.102 3.103 0 1.713 1.389 3.103 3.102 3.103s3.102-1.39 3.102-3.103c0-1.714-1.388-3.103-3.102-3.103z"/><path d="m360.853 267.814c1.713 0 3.102-1.389 3.102-3.103 0-1.713-1.389-3.102-3.102-3.102s-3.102 1.389-3.102 3.102c-.001 1.715 1.388 3.103 3.102 3.103z"/><path d="m351.229 231.233c-1.713 0-3.102 1.389-3.102 3.103 0 1.713 1.389 3.103 3.102 3.103s3.102-1.39 3.102-3.103c0-1.714-1.388-3.103-3.102-3.103z"/><path d="m340.853 241.61c-1.713 0-3.102 1.389-3.102 3.101 0 1.714 1.389 3.103 3.102 3.103s3.102-1.389 3.102-3.103c0-1.712-1.389-3.101-3.102-3.101z"/><path d="m351.229 251.233c-1.713 0-3.102 1.389-3.102 3.103 0 1.713 1.389 3.103 3.102 3.103s3.102-1.39 3.102-3.103c0-1.714-1.388-3.103-3.102-3.103z"/><path d="m340.853 261.61c-1.713 0-3.102 1.389-3.102 3.102 0 1.714 1.389 3.103 3.102 3.103s3.102-1.389 3.102-3.103c0-1.713-1.389-3.102-3.102-3.102z"/><path d="m351.229 271.233c-1.713 0-3.102 1.389-3.102 3.103 0 1.713 1.389 3.103 3.102 3.103s3.102-1.39 3.102-3.103c0-1.714-1.388-3.103-3.102-3.103z"/><path d="m340.853 281.61c-1.713 0-3.102 1.389-3.102 3.102 0 1.714 1.389 3.103 3.102 3.103s3.102-1.389 3.102-3.103c0-1.713-1.389-3.102-3.102-3.102z"/><path d="m331.229 251.233c-1.713 0-3.102 1.389-3.102 3.103 0 1.713 1.389 3.103 3.102 3.103s3.102-1.39 3.102-3.103c0-1.714-1.388-3.103-3.102-3.103z"/><path d="m320.853 261.61c-1.713 0-3.102 1.389-3.102 3.102 0 1.714 1.389 3.103 3.102 3.103s3.102-1.389 3.102-3.103c0-1.713-1.389-3.102-3.102-3.102z"/><path d="m331.229 271.233c-1.713 0-3.102 1.389-3.102 3.103 0 1.713 1.389 3.103 3.102 3.103s3.102-1.39 3.102-3.103c0-1.714-1.388-3.103-3.102-3.103z"/><path d="m320.853 281.61c-1.713 0-3.102 1.389-3.102 3.102 0 1.714 1.389 3.103 3.102 3.103s3.102-1.389 3.102-3.103c0-1.713-1.389-3.102-3.102-3.102z"/><path d="m334.331 294.336c0-1.714-1.389-3.103-3.102-3.103s-3.102 1.389-3.102 3.103c0 .439.094.855.259 1.234h5.687c.165-.379.258-.795.258-1.234z"/><path d="m308.127 274.336c0 1.713 1.389 3.103 3.102 3.103s3.102-1.39 3.102-3.103c0-1.714-1.389-3.103-3.102-3.103s-3.102 1.389-3.102 3.103z"/><path d="m297.75 284.712c0 1.714 1.389 3.103 3.102 3.103s3.102-1.389 3.102-3.103c0-1.713-1.389-3.102-3.102-3.102s-3.102 1.389-3.102 3.102z"/><path d="m314.331 294.336c0-1.714-1.389-3.103-3.102-3.103s-3.102 1.389-3.102 3.103c0 .439.094.855.259 1.234h5.687c.165-.379.258-.795.258-1.234z"/><path d="m294.331 294.336c0-1.714-1.389-3.103-3.102-3.103s-3.102 1.389-3.102 3.103c0 .439.094.855.259 1.234h5.687c.165-.379.258-.795.258-1.234z"/></g><path d="m50.993 507.942c-14.437 0-26.069-11.838-25.814-26.273l8.113-460.277c.169-9.655 8.045-17.392 17.701-17.392 9.656 0 17.531 7.738 17.701 17.392l8.113 460.277c.254 14.435-11.377 26.273-25.814 26.273z" fill="#e9c278"/><path d="m26.969 380.065-1.791 101.604c-.254 14.435 11.377 26.273 25.814 26.273 14.437 0 26.069-11.839 25.814-26.273l-1.791-101.604z" fill="#f9fbfc"/><path d="m477.182 317.542 10.793-9.994c2.642-2.446 3.5-6.192 2.186-9.545-1.313-3.353-4.488-5.518-8.089-5.518h-134.932l69.767-77.321c.099-.109.17-.232.254-.35 1.076-.717 1.786-1.94 1.786-3.329v-29.365c0-9.132-7.429-16.561-16.56-16.561h-180.207l101.993-77.517c.216-.164.403-.354.577-.556.79-.73 1.293-1.767 1.293-2.928v-28.877c0-9.4-7.647-17.048-17.048-17.048h-235.996l-.305-17.311c-.208-11.757-9.942-21.322-21.701-21.322-11.758 0-21.494 9.565-21.701 21.322l-8.113 460.276c-.142 8.062 2.893 15.671 8.544 21.424 5.652 5.752 13.206 8.92 21.27 8.92s15.618-3.168 21.269-8.92c5.652-5.753 8.687-13.361 8.544-21.424l-6.928-393.04h167.106l-100.754 76.573c-.845.642-1.399 1.593-1.543 2.645-.02.149-.01.297-.013.445-.15.42-.246.865-.246 1.337v29.204c0 9.221 7.502 16.722 16.723 16.722h194.22l-69.636 77.176c-.339.375-.58.8-.747 1.245-.594.697-.966 1.591-.966 2.579v29.372c0 9.128 7.426 16.554 16.554 16.554h187.404c3.61 0 6.788-2.174 8.097-5.539 1.309-3.364.435-7.114-2.228-9.554zm-410.627 179.874c-4.135 4.208-9.662 6.526-15.562 6.526s-11.428-2.318-15.563-6.527c-4.136-4.209-6.356-9.776-6.252-15.676l8.113-460.276c.131-7.424 6.277-13.463 13.702-13.463s13.571 6.039 13.702 13.463l8.113 460.276c.103 5.901-2.117 11.467-6.253 15.677zm7.183-416.857-.598-33.926h235.856c4.989 0 9.048 4.059 9.048 9.048v24.878zm180.467 8h56.067l-101.314 77h-56.067zm-99.054 118.925c-4.809 0-8.723-3.912-8.723-8.722v-25.204h255.958c4.721 0 8.56 3.84 8.56 8.561v25.365zm204.996 8h45.696l-69.477 77h-45.696zm122.473 118.488c-.17.438-.512.438-.641.438h-187.403c-4.717 0-8.554-3.837-8.554-8.554v-25.372h196.05c.128 0 .469 0 .641.438.171.436-.079.668-.174.756l-13.979 12.945c-.82.759-1.285 1.827-1.282 2.945.003 1.117.474 2.184 1.298 2.938l13.869 12.709c.094.088.346.318.175.757z" fill="#31373d"/></g></svg>