<?xml version="1.0" encoding="utf-8"?>
<!-- Generator: Adobe Illustrator 24.2.1, SVG Export Plug-In . SVG Version: 6.00 Build 0)  -->
<svg xmlns="http://www.w3.org/2000/svg" xmlns:xlink="http://www.w3.org/1999/xlink" version="1.1" id="Capa_1" x="0px" y="0px" viewBox="0 0 511.584 511.584" style="enable-background:new 0 0 511.584 511.584;" xml:space="preserve" width="512" height="512">
<style type="text/css">
	.st0{fill:#EAA895;}
	.st1{fill:#F9FBFC;}
	.st2{fill:#31373D;}
</style>
<g>
	<path class="st0" d="M182.191,84.337c88.194-32.817,154.594-17.14,191.293-8.084c20.308,5.011,119.777,40.088,132.659,72.103   c12.127,30.139-11.209,86.172-39.83,146.204c-24.314,50.998-77.311,107.333-136.87,132.893   c-63.013,27.043-119.107,23.909-191.212,7.107C87.746,422.796,17.163,389.21,6.697,362.808   c-15.696-39.595,13.174-96.138,35.368-141.727C67.17,169.512,133.747,102.363,182.191,84.337z"/>
	<path class="st1" d="M96.858,411.458c0,1.713,1.389,3.102,3.102,3.102s3.102-1.389,3.102-3.102c0-1.713-1.389-3.102-3.102-3.102   C98.247,408.356,96.858,409.744,96.858,411.458z"/>
	<path class="st1" d="M109.643,418.063c-1.332,0.305-2.329,1.466-2.394,2.874c1.413,0.507,2.837,1.009,4.274,1.507L109.643,418.063z   "/>
	<path class="st1" d="M79.96,394.56c1.257,0,2.334-0.751,2.822-1.826c-2.001-0.407-3.976-0.826-5.922-1.256   C76.871,393.182,78.254,394.56,79.96,394.56z"/>
	<path class="st1" d="M87.234,401.081c0,1.714,1.389,3.102,3.102,3.102s3.102-1.389,3.102-3.102c0-1.713-1.389-3.102-3.102-3.102   S87.234,399.368,87.234,401.081z"/>
	<path class="st1" d="M79.96,408.356c-0.737,0-1.404,0.268-1.937,0.697c1.65,0.755,3.323,1.507,5.024,2.254   C82.967,409.665,81.622,408.356,79.96,408.356z"/>
	<path class="st1" d="M56.858,391.458c0,1.713,1.389,3.102,3.102,3.102s3.102-1.389,3.102-3.102c0-1.713-1.389-3.102-3.102-3.102   C58.247,388.356,56.858,389.744,56.858,391.458z"/>
	<path class="st1" d="M67.234,401.081c0,1.714,1.389,3.102,3.102,3.102s3.102-1.389,3.102-3.102c0-1.713-1.389-3.102-3.102-3.102   S67.234,399.368,67.234,401.081z"/>
	<path class="st1" d="M40.074,388.367c0.867,0.569,1.751,1.14,2.653,1.713C42.234,389.094,41.24,388.41,40.074,388.367z"/>
	<path class="st1" d="M22.579,373.106c-1.923-1.033-3.704-2.073-5.337-3.115c-0.026,0.048-0.055,0.095-0.079,0.145   c1.251,1.309,2.649,2.668,4.202,4.074C21.863,373.954,22.283,373.576,22.579,373.106z"/>
	<path class="st1" d="M30.337,377.979c-1.136,0-2.119,0.617-2.659,1.527c1.545,1.214,3.177,2.449,4.907,3.703   c0.526-0.556,0.854-1.302,0.854-2.128C33.439,379.368,32.05,377.979,30.337,377.979z"/>
	<path class="st1" d="M499.814,148.37c-1.644,0.078-2.956,1.424-2.956,3.088c0,1.713,1.389,3.102,3.102,3.102   c0.788,0,1.5-0.303,2.047-0.787c-0.28-1.171-0.611-2.214-0.995-3.108C500.696,149.929,500.28,149.158,499.814,148.37z"/>
	<path class="st1" d="M499.96,168.356c-1.713,0-3.102,1.389-3.102,3.102s1.389,3.102,3.102,3.102c1.274,0,2.366-0.769,2.844-1.868   c0.052-0.711,0.089-1.397,0.126-2.083C502.559,169.311,501.377,168.356,499.96,168.356z"/>
	<path class="st1" d="M496.858,191.458c0,1.624,1.253,2.942,2.843,3.076c0.413-2.069,0.784-4.081,1.118-6.043   c-0.275-0.08-0.559-0.135-0.859-0.135C498.247,188.356,496.858,189.744,496.858,191.458z"/>
	<path class="st1" d="M476.858,131.458c0,1.713,1.389,3.102,3.102,3.102c1.713,0,3.102-1.389,3.102-3.102   c0-0.086-0.018-0.167-0.025-0.251c-1.18-0.924-2.412-1.855-3.684-2.79C477.931,128.699,476.858,129.952,476.858,131.458z"/>
	<path class="st1" d="M487.234,141.081c0,1.714,1.389,3.102,3.102,3.102c1.713,0,3.102-1.389,3.102-3.102   c0-0.281-0.05-0.549-0.12-0.809c-0.707-0.721-1.454-1.453-2.238-2.193c-0.24-0.059-0.486-0.1-0.744-0.1   C488.623,137.979,487.234,139.368,487.234,141.081z"/>
	<path class="st1" d="M479.96,148.356c-1.713,0-3.102,1.389-3.102,3.102s1.389,3.102,3.102,3.102c1.713,0,3.102-1.389,3.102-3.102   C483.062,149.744,481.673,148.356,479.96,148.356z"/>
	<path class="st1" d="M490.337,157.979c-1.713,0-3.102,1.389-3.102,3.102c0,1.714,1.389,3.102,3.102,3.102   c1.713,0,3.102-1.389,3.102-3.102C493.439,159.368,492.05,157.979,490.337,157.979z"/>
	<path class="st1" d="M479.96,168.356c-1.713,0-3.102,1.389-3.102,3.102s1.389,3.102,3.102,3.102c1.713,0,3.102-1.389,3.102-3.102   C483.062,169.744,481.673,168.356,479.96,168.356z"/>
	<path class="st1" d="M490.337,177.979c-1.713,0-3.102,1.389-3.102,3.102c0,1.714,1.389,3.102,3.102,3.102   c1.713,0,3.102-1.389,3.102-3.102C493.439,179.368,492.05,177.979,490.337,177.979z"/>
	<path class="st1" d="M479.96,188.356c-1.713,0-3.102,1.389-3.102,3.102s1.389,3.102,3.102,3.102c1.713,0,3.102-1.389,3.102-3.102   C483.062,189.744,481.673,188.356,479.96,188.356z"/>
	<path class="st1" d="M490.337,197.979c-1.713,0-3.102,1.389-3.102,3.102c0,1.714,1.389,3.102,3.102,3.102   c1.713,0,3.102-1.389,3.102-3.102C493.439,199.368,492.05,197.979,490.337,197.979z"/>
	<path class="st1" d="M479.96,208.356c-1.713,0-3.102,1.389-3.102,3.102s1.389,3.102,3.102,3.102c1.713,0,3.102-1.389,3.102-3.102   C483.062,209.744,481.673,208.356,479.96,208.356z"/>
	<path class="st1" d="M490.337,217.979c-1.713,0-3.102,1.389-3.102,3.102c0,1.714,1.389,3.102,3.102,3.102   c0.706,0,1.35-0.245,1.872-0.643c0.363-1.163,0.708-2.309,1.052-3.455C492.844,218.863,491.699,217.979,490.337,217.979z"/>
	<path class="st1" d="M479.96,228.356c-1.713,0-3.102,1.389-3.102,3.102s1.389,3.102,3.102,3.102c1.713,0,3.102-1.389,3.102-3.102   C483.062,229.744,481.673,228.356,479.96,228.356z"/>
	<path class="st1" d="M479.96,248.356c-1.713,0-3.102,1.389-3.102,3.102s1.389,3.102,3.102,3.102c0.347,0,0.675-0.07,0.987-0.175   c0.603-1.45,1.191-2.891,1.768-4.325C482.203,249.052,481.168,248.356,479.96,248.356z"/>
	<path class="st1" d="M469.538,121.69c0.318,0.741,0.588,1.574,0.81,2.493c0.741-0.003,1.413-0.275,1.945-0.712   c-0.91-0.607-1.832-1.215-2.775-1.822C469.524,121.662,469.532,121.676,469.538,121.69z"/>
	<path class="st1" d="M470.84,138.03c-0.169,1.933-0.408,3.975-0.728,6.131c0.075,0.005,0.148,0.022,0.225,0.022   c1.713,0,3.102-1.389,3.102-3.102C473.439,139.54,472.312,138.272,470.84,138.03z"/>
	<path class="st1" d="M470.337,157.979c-1.713,0-3.102,1.389-3.102,3.102c0,1.714,1.389,3.102,3.102,3.102   c1.713,0,3.102-1.389,3.102-3.102C473.439,159.368,472.05,157.979,470.337,157.979z"/>
	<path class="st1" d="M470.337,177.979c-1.713,0-3.102,1.389-3.102,3.102c0,1.714,1.389,3.102,3.102,3.102   c1.713,0,3.102-1.389,3.102-3.102C473.439,179.368,472.05,177.979,470.337,177.979z"/>
	<path class="st1" d="M459.96,194.56c1.713,0,3.102-1.389,3.102-3.102s-1.389-3.102-3.102-3.102c-0.975,0-1.834,0.459-2.403,1.163   c-0.227,0.611-0.455,1.221-0.689,1.836c-0.001,0.035-0.01,0.068-0.01,0.104C456.858,193.171,458.247,194.56,459.96,194.56z"/>
	<path class="st1" d="M470.337,197.979c-1.713,0-3.102,1.389-3.102,3.102c0,1.714,1.389,3.102,3.102,3.102   c1.713,0,3.102-1.389,3.102-3.102C473.439,199.368,472.05,197.979,470.337,197.979z"/>
	<path class="st1" d="M459.96,208.356c-1.713,0-3.102,1.389-3.102,3.102s1.389,3.102,3.102,3.102c1.713,0,3.102-1.389,3.102-3.102   C463.062,209.744,461.673,208.356,459.96,208.356z"/>
	<path class="st1" d="M470.337,217.979c-1.713,0-3.102,1.389-3.102,3.102c0,1.714,1.389,3.102,3.102,3.102   c1.713,0,3.102-1.389,3.102-3.102C473.439,219.368,472.05,217.979,470.337,217.979z"/>
	<path class="st1" d="M463.062,231.458c0-1.713-1.389-3.102-3.102-3.102c-0.766,0-1.459,0.288-2,0.749l2.326,5.423   C461.844,234.362,463.062,233.059,463.062,231.458z"/>
	<path class="st1" d="M470.337,237.979c-1.713,0-3.102,1.389-3.102,3.102c0,1.714,1.389,3.102,3.102,3.102   c1.713,0,3.102-1.389,3.102-3.102C473.439,239.368,472.05,237.979,470.337,237.979z"/>
	<path class="st1" d="M473.439,261.081c0-1.71-1.384-3.097-3.094-3.101l2.242,5.227   C473.112,262.651,473.439,261.906,473.439,261.081z"/>
	<path class="st1" d="M453.439,201.081c0-0.266-0.044-0.519-0.107-0.765c-0.465,1.136-0.94,2.278-1.422,3.425   C452.821,203.201,453.439,202.218,453.439,201.081z"/>
	<path class="st1" d="M416.858,291.458c0,1.71,1.384,3.096,3.093,3.101l-2.233-5.236   C417.188,289.879,416.858,290.629,416.858,291.458z"/>
	<path class="st1" d="M419.96,308.356c-1.713,0-3.102,1.389-3.102,3.102c0,1.713,1.389,3.102,3.102,3.102   c1.713,0,3.102-1.389,3.102-3.102C423.062,309.744,421.673,308.356,419.96,308.356z"/>
	<path class="st1" d="M429.954,318.018c-1.531,0.191-2.72,1.481-2.72,3.064c0,1.714,1.389,3.102,3.102,3.102   c0.741,0,1.413-0.271,1.946-0.704L429.954,318.018z"/>
	<path class="st1" d="M419.96,328.356c-1.713,0-3.102,1.389-3.102,3.102c0,1.713,1.389,3.102,3.102,3.102   c1.713,0,3.102-1.389,3.102-3.102C423.062,329.744,421.673,328.356,419.96,328.356z"/>
	<path class="st1" d="M427.234,341.081c0,1.08,0.553,2.03,1.391,2.585c1.292-1.623,2.559-3.245,3.801-4.865   c-0.552-0.506-1.282-0.822-2.09-0.822C428.623,337.979,427.234,339.368,427.234,341.081z"/>
	<path class="st1" d="M419.96,348.356c-1.713,0-3.102,1.389-3.102,3.102c0,1.587,1.196,2.881,2.734,3.065   c1.13-1.3,2.243-2.602,3.34-3.906C422.564,349.315,421.38,348.356,419.96,348.356z"/>
	<path class="st1" d="M407.807,282.867c0.562,0.794,1.483,1.316,2.53,1.316c1.713,0,3.102-1.389,3.102-3.102   c0-1.429-0.972-2.62-2.287-2.98C410.051,279.695,408.936,281.284,407.807,282.867z"/>
	<path class="st1" d="M399.96,294.56c1.713,0,3.102-1.389,3.102-3.102c0-0.559-0.159-1.076-0.418-1.529   c-1.135,1.515-2.282,3.024-3.443,4.526C399.445,294.517,399.697,294.56,399.96,294.56z"/>
	<path class="st1" d="M410.337,297.979c-1.713,0-3.102,1.389-3.102,3.102c0,1.714,1.389,3.102,3.102,3.102   c1.713,0,3.102-1.389,3.102-3.102S412.05,297.979,410.337,297.979z"/>
	<path class="st1" d="M399.96,308.356c-1.713,0-3.102,1.389-3.102,3.102c0,1.713,1.389,3.102,3.102,3.102   c1.713,0,3.102-1.389,3.102-3.102C403.062,309.744,401.673,308.356,399.96,308.356z"/>
	<path class="st1" d="M410.337,317.979c-1.713,0-3.102,1.389-3.102,3.102c0,1.714,1.389,3.102,3.102,3.102   c1.713,0,3.102-1.389,3.102-3.102S412.05,317.979,410.337,317.979z"/>
	<path class="st1" d="M399.96,328.356c-1.713,0-3.102,1.389-3.102,3.102c0,1.713,1.389,3.102,3.102,3.102   c1.713,0,3.102-1.389,3.102-3.102C403.062,329.744,401.673,328.356,399.96,328.356z"/>
	<path class="st1" d="M410.337,337.979c-1.713,0-3.102,1.389-3.102,3.102c0,1.714,1.389,3.102,3.102,3.102   c1.713,0,3.102-1.389,3.102-3.102S412.05,337.979,410.337,337.979z"/>
	<path class="st1" d="M399.96,348.356c-1.713,0-3.102,1.389-3.102,3.102c0,1.713,1.389,3.102,3.102,3.102   c1.713,0,3.102-1.389,3.102-3.102C403.062,349.744,401.673,348.356,399.96,348.356z"/>
	<path class="st1" d="M410.337,357.979c-1.713,0-3.102,1.389-3.102,3.102c0,1.714,1.389,3.102,3.102,3.102   c0.188,0,0.371-0.023,0.55-0.055c0.846-0.895,1.687-1.792,2.517-2.691c0.014-0.118,0.036-0.234,0.036-0.356   C413.439,359.368,412.05,357.979,410.337,357.979z"/>
	<path class="st1" d="M399.96,368.356c-1.713,0-3.102,1.389-3.102,3.102c0,1.713,1.389,3.102,3.102,3.102   c0.221,0,0.436-0.025,0.644-0.069c0.795-0.762,1.578-1.528,2.361-2.295c0.058-0.238,0.098-0.482,0.098-0.738   C403.062,369.744,401.673,368.356,399.96,368.356z"/>
	<path class="st1" d="M393.335,301.838c-0.556,0.681-1.114,1.362-1.675,2.039C392.486,303.485,393.107,302.743,393.335,301.838z"/>
	<path class="st1" d="M390.337,317.979c-1.713,0-3.102,1.389-3.102,3.102c0,1.714,1.389,3.102,3.102,3.102   c1.713,0,3.102-1.389,3.102-3.102S392.05,317.979,390.337,317.979z"/>
	<path class="st1" d="M379.96,328.356c-1.713,0-3.102,1.389-3.102,3.102c0,1.713,1.389,3.102,3.102,3.102   c1.713,0,3.102-1.389,3.102-3.102C383.062,329.744,381.673,328.356,379.96,328.356z"/>
	<path class="st1" d="M390.337,337.979c-1.713,0-3.102,1.389-3.102,3.102c0,1.714,1.389,3.102,3.102,3.102   c1.713,0,3.102-1.389,3.102-3.102S392.05,337.979,390.337,337.979z"/>
	<path class="st1" d="M379.96,348.356c-1.713,0-3.102,1.389-3.102,3.102c0,1.713,1.389,3.102,3.102,3.102   c1.713,0,3.102-1.389,3.102-3.102C383.062,349.744,381.673,348.356,379.96,348.356z"/>
	<path class="st1" d="M390.337,357.979c-1.713,0-3.102,1.389-3.102,3.102c0,1.714,1.389,3.102,3.102,3.102   c1.713,0,3.102-1.389,3.102-3.102S392.05,357.979,390.337,357.979z"/>
	<path class="st1" d="M379.96,368.356c-1.713,0-3.102,1.389-3.102,3.102c0,1.713,1.389,3.102,3.102,3.102   c1.713,0,3.102-1.389,3.102-3.102C383.062,369.744,381.673,368.356,379.96,368.356z"/>
	<path class="st1" d="M390.337,377.979c-1.713,0-3.102,1.389-3.102,3.102c0,1.594,1.206,2.891,2.752,3.067   c1.161-1.003,2.311-2.013,3.449-3.03c0-0.013,0.004-0.025,0.004-0.038C393.439,379.368,392.05,377.979,390.337,377.979z"/>
	<path class="st1" d="M379.96,388.356c-1.713,0-3.102,1.389-3.102,3.102c0,0.984,0.467,1.851,1.183,2.42   c1.597-1.225,3.174-2.463,4.731-3.715C382.279,389.098,381.209,388.356,379.96,388.356z"/>
	<path class="st1" d="M370.337,337.979c-1.713,0-3.102,1.389-3.102,3.102c0,1.714,1.389,3.102,3.102,3.102   c1.713,0,3.102-1.389,3.102-3.102S372.05,337.979,370.337,337.979z"/>
	<path class="st1" d="M359.96,348.356c-1.713,0-3.102,1.389-3.102,3.102c0,1.713,1.389,3.102,3.102,3.102   c1.713,0,3.102-1.389,3.102-3.102C363.062,349.744,361.673,348.356,359.96,348.356z"/>
	<path class="st1" d="M370.337,357.979c-1.713,0-3.102,1.389-3.102,3.102c0,1.714,1.389,3.102,3.102,3.102   c1.713,0,3.102-1.389,3.102-3.102S372.05,357.979,370.337,357.979z"/>
	<path class="st1" d="M359.96,368.356c-1.713,0-3.102,1.389-3.102,3.102c0,1.713,1.389,3.102,3.102,3.102   c1.713,0,3.102-1.389,3.102-3.102C363.062,369.744,361.673,368.356,359.96,368.356z"/>
	<path class="st1" d="M370.337,377.979c-1.713,0-3.102,1.389-3.102,3.102c0,1.714,1.389,3.102,3.102,3.102   c1.713,0,3.102-1.389,3.102-3.102S372.05,377.979,370.337,377.979z"/>
	<path class="st1" d="M359.96,388.356c-1.713,0-3.102,1.389-3.102,3.102c0,1.713,1.389,3.102,3.102,3.102   c1.713,0,3.102-1.389,3.102-3.102C363.062,389.744,361.673,388.356,359.96,388.356z"/>
	<path class="st1" d="M367.234,401.081c0,0.204,0.022,0.402,0.06,0.594c1.559-1.069,3.101-2.152,4.625-3.249   c-0.465-0.278-1.002-0.447-1.583-0.447C368.623,397.979,367.234,399.368,367.234,401.081z"/>
	<path class="st1" d="M343.062,351.458c0-0.191-0.023-0.377-0.056-0.559c-1.484,1.115-2.981,2.212-4.489,3.29   c0.433,0.229,0.919,0.371,1.443,0.371C341.673,354.56,343.062,353.171,343.062,351.458z"/>
	<path class="st1" d="M350.337,357.979c-1.713,0-3.102,1.389-3.102,3.102c0,1.714,1.389,3.102,3.102,3.102   c1.713,0,3.102-1.389,3.102-3.102S352.05,357.979,350.337,357.979z"/>
	<path class="st1" d="M339.96,368.356c-1.713,0-3.102,1.389-3.102,3.102c0,1.713,1.389,3.102,3.102,3.102   c1.713,0,3.102-1.389,3.102-3.102C343.062,369.744,341.673,368.356,339.96,368.356z"/>
	<path class="st1" d="M350.337,377.979c-1.713,0-3.102,1.389-3.102,3.102c0,1.714,1.389,3.102,3.102,3.102   c1.713,0,3.102-1.389,3.102-3.102S352.05,377.979,350.337,377.979z"/>
	<path class="st1" d="M339.96,388.356c-1.713,0-3.102,1.389-3.102,3.102c0,1.713,1.389,3.102,3.102,3.102   c1.713,0,3.102-1.389,3.102-3.102C343.062,389.744,341.673,388.356,339.96,388.356z"/>
	<path class="st1" d="M350.337,397.979c-1.713,0-3.102,1.389-3.102,3.102c0,1.714,1.389,3.102,3.102,3.102   c1.713,0,3.102-1.389,3.102-3.102S352.05,397.979,350.337,397.979z"/>
	<path class="st1" d="M339.96,408.356c-1.713,0-3.102,1.389-3.102,3.102c0,1.713,1.389,3.102,3.102,3.102   c1.713,0,3.102-1.389,3.102-3.102C343.062,409.744,341.673,408.356,339.96,408.356z"/>
	<path class="st1" d="M330.337,364.183c1.713,0,3.102-1.389,3.102-3.102c0-1.03-0.507-1.935-1.279-2.5   c-1.606,1.069-3.227,2.112-4.859,3.137C327.595,363.126,328.842,364.183,330.337,364.183z"/>
	<path class="st1" d="M319.96,368.356c-1.713,0-3.102,1.389-3.102,3.102c0,1.713,1.389,3.102,3.102,3.102   c1.713,0,3.102-1.389,3.102-3.102C323.062,369.744,321.673,368.356,319.96,368.356z"/>
	<path class="st1" d="M330.337,377.979c-1.713,0-3.102,1.389-3.102,3.102c0,1.714,1.389,3.102,3.102,3.102   c1.713,0,3.102-1.389,3.102-3.102S332.05,377.979,330.337,377.979z"/>
	<path class="st1" d="M319.96,388.356c-1.713,0-3.102,1.389-3.102,3.102c0,1.713,1.389,3.102,3.102,3.102   c1.713,0,3.102-1.389,3.102-3.102C323.062,389.744,321.673,388.356,319.96,388.356z"/>
	<path class="st1" d="M330.337,397.979c-1.713,0-3.102,1.389-3.102,3.102c0,1.714,1.389,3.102,3.102,3.102   c1.713,0,3.102-1.389,3.102-3.102S332.05,397.979,330.337,397.979z"/>
	<path class="st1" d="M319.96,408.356c-1.713,0-3.102,1.389-3.102,3.102c0,1.713,1.389,3.102,3.102,3.102   c1.713,0,3.102-1.389,3.102-3.102C323.062,409.744,321.673,408.356,319.96,408.356z"/>
	<path class="st1" d="M330.337,417.979c-1.713,0-3.102,1.389-3.102,3.102c0,0.894,0.384,1.694,0.989,2.26   c1.754-0.758,3.488-1.539,5.208-2.335C333.39,419.328,332.024,417.979,330.337,417.979z"/>
	<path class="st1" d="M310.337,377.979c-1.713,0-3.102,1.389-3.102,3.102c0,1.714,1.389,3.102,3.102,3.102   c1.713,0,3.102-1.389,3.102-3.102S312.05,377.979,310.337,377.979z"/>
	<path class="st1" d="M299.96,388.356c-1.713,0-3.102,1.389-3.102,3.102c0,1.713,1.389,3.102,3.102,3.102   c1.713,0,3.102-1.389,3.102-3.102C303.062,389.744,301.673,388.356,299.96,388.356z"/>
	<path class="st1" d="M310.337,397.979c-1.713,0-3.102,1.389-3.102,3.102c0,1.714,1.389,3.102,3.102,3.102   c1.713,0,3.102-1.389,3.102-3.102S312.05,397.979,310.337,397.979z"/>
	<path class="st1" d="M299.96,408.356c-1.713,0-3.102,1.389-3.102,3.102c0,1.713,1.389,3.102,3.102,3.102   c1.713,0,3.102-1.389,3.102-3.102C303.062,409.744,301.673,408.356,299.96,408.356z"/>
	<path class="st1" d="M310.337,417.979c-1.713,0-3.102,1.389-3.102,3.102c0,1.714,1.389,3.102,3.102,3.102   c1.713,0,3.102-1.389,3.102-3.102S312.05,417.979,310.337,417.979z"/>
	<path class="st1" d="M299.96,428.356c-1.713,0-3.102,1.389-3.102,3.102c0,0.992,0.474,1.865,1.199,2.433   c1.602-0.438,3.204-0.895,4.806-1.37c0.122-0.333,0.199-0.688,0.199-1.063C303.062,429.744,301.673,428.356,299.96,428.356z"/>
	<path class="st1" d="M290.337,384.183c1.713,0,3.102-1.389,3.102-3.102c0-0.739-0.269-1.408-0.7-1.941   c-1.821,0.719-3.651,1.419-5.488,2.098C287.334,382.877,288.677,384.183,290.337,384.183z"/>
	<path class="st1" d="M279.96,388.356c-1.713,0-3.102,1.389-3.102,3.102c0,1.713,1.389,3.102,3.102,3.102   c1.713,0,3.102-1.389,3.102-3.102C283.062,389.744,281.673,388.356,279.96,388.356z"/>
	<path class="st1" d="M290.337,397.979c-1.713,0-3.102,1.389-3.102,3.102c0,1.714,1.389,3.102,3.102,3.102   c1.713,0,3.102-1.389,3.102-3.102S292.05,397.979,290.337,397.979z"/>
	<path class="st1" d="M279.96,408.356c-1.713,0-3.102,1.389-3.102,3.102c0,1.713,1.389,3.102,3.102,3.102   c1.713,0,3.102-1.389,3.102-3.102C283.062,409.744,281.673,408.356,279.96,408.356z"/>
	<path class="st1" d="M290.337,417.979c-1.713,0-3.102,1.389-3.102,3.102c0,1.714,1.389,3.102,3.102,3.102   c1.713,0,3.102-1.389,3.102-3.102S292.05,417.979,290.337,417.979z"/>
	<path class="st1" d="M279.96,428.356c-1.713,0-3.102,1.389-3.102,3.102c0,1.713,1.389,3.102,3.102,3.102   c1.713,0,3.102-1.389,3.102-3.102C283.062,429.744,281.673,428.356,279.96,428.356z"/>
	<path class="st1" d="M259.96,394.56c1.713,0,3.102-1.389,3.102-3.102c0-0.887-0.377-1.682-0.974-2.248   c-1.686,0.452-3.377,0.889-5.071,1.313c-0.094,0.297-0.159,0.607-0.159,0.935C256.858,393.171,258.247,394.56,259.96,394.56z"/>
	<path class="st1" d="M270.337,397.979c-1.713,0-3.102,1.389-3.102,3.102c0,1.714,1.389,3.102,3.102,3.102   c1.713,0,3.102-1.389,3.102-3.102S272.05,397.979,270.337,397.979z"/>
	<path class="st1" d="M259.96,408.356c-1.713,0-3.102,1.389-3.102,3.102c0,1.713,1.389,3.102,3.102,3.102   c1.713,0,3.102-1.389,3.102-3.102C263.062,409.744,261.673,408.356,259.96,408.356z"/>
	<path class="st1" d="M270.337,417.979c-1.713,0-3.102,1.389-3.102,3.102c0,1.714,1.389,3.102,3.102,3.102   c1.713,0,3.102-1.389,3.102-3.102S272.05,417.979,270.337,417.979z"/>
	<path class="st1" d="M259.96,428.356c-1.713,0-3.102,1.389-3.102,3.102c0,1.713,1.389,3.102,3.102,3.102   c1.713,0,3.102-1.389,3.102-3.102C263.062,429.744,261.673,428.356,259.96,428.356z"/>
	<path class="st1" d="M270.337,437.979c-1.407,0-2.582,0.943-2.962,2.227c1.843-0.26,3.69-0.548,5.539-0.85   C272.358,438.526,271.411,437.979,270.337,437.979z"/>
	<path class="st1" d="M241.815,393.931c-0.878,0.175-1.757,0.35-2.636,0.517c0.251,0.065,0.51,0.111,0.781,0.111   C240.659,394.56,241.296,394.321,241.815,393.931z"/>
	<path class="st1" d="M250.337,397.979c-1.713,0-3.102,1.389-3.102,3.102c0,1.714,1.389,3.102,3.102,3.102s3.102-1.389,3.102-3.102   C253.439,399.368,252.05,397.979,250.337,397.979z"/>
	<path class="st1" d="M239.96,408.356c-1.713,0-3.102,1.389-3.102,3.102c0,1.713,1.389,3.102,3.102,3.102s3.102-1.389,3.102-3.102   C243.062,409.744,241.673,408.356,239.96,408.356z"/>
	<path class="st1" d="M250.337,417.979c-1.713,0-3.102,1.389-3.102,3.102c0,1.714,1.389,3.102,3.102,3.102s3.102-1.389,3.102-3.102   C253.439,419.368,252.05,417.979,250.337,417.979z"/>
	<path class="st1" d="M239.96,428.356c-1.713,0-3.102,1.389-3.102,3.102c0,1.713,1.389,3.102,3.102,3.102s3.102-1.389,3.102-3.102   C243.062,429.744,241.673,428.356,239.96,428.356z"/>
	<path class="st1" d="M253.439,441.081c0-1.713-1.389-3.102-3.102-3.102s-3.102,1.389-3.102,3.102c0,0.416,0.085,0.812,0.233,1.174   c1.953-0.13,3.91-0.273,5.876-0.446C253.401,441.575,253.439,441.333,253.439,441.081z"/>
	<path class="st1" d="M230.337,397.979c-1.713,0-3.102,1.389-3.102,3.102c0,1.714,1.389,3.102,3.102,3.102s3.102-1.389,3.102-3.102   C233.439,399.368,232.05,397.979,230.337,397.979z"/>
	<path class="st1" d="M219.96,408.356c-1.713,0-3.102,1.389-3.102,3.102c0,1.713,1.389,3.102,3.102,3.102s3.102-1.389,3.102-3.102   C223.062,409.744,221.673,408.356,219.96,408.356z"/>
	<path class="st1" d="M230.337,417.979c-1.713,0-3.102,1.389-3.102,3.102c0,1.714,1.389,3.102,3.102,3.102s3.102-1.389,3.102-3.102   C233.439,419.368,232.05,417.979,230.337,417.979z"/>
	<path class="st1" d="M223.062,431.458c0-1.713-1.389-3.102-3.102-3.102s-3.102,1.389-3.102,3.102c0,1.713,1.389,3.102,3.102,3.102   C221.673,434.56,223.062,433.171,223.062,431.458z"/>
	<path class="st1" d="M233.439,441.081c0-1.713-1.389-3.102-3.102-3.102s-3.102,1.389-3.102,3.102c0,0.677,0.223,1.299,0.591,1.808   c1.678,0.002,3.363-0.012,5.055-0.039C233.23,442.348,233.439,441.74,233.439,441.081z"/>
	<path class="st1" d="M207.234,401.081c0,1.714,1.389,3.102,3.102,3.102s3.102-1.389,3.102-3.102c0-1.059-0.532-1.991-1.342-2.551   c-1.339,0.151-2.677,0.294-4.014,0.431C207.56,399.516,207.234,400.259,207.234,401.081z"/>
	<path class="st1" d="M199.96,408.356c-1.713,0-3.102,1.389-3.102,3.102c0,1.713,1.389,3.102,3.102,3.102s3.102-1.389,3.102-3.102   C203.062,409.744,201.673,408.356,199.96,408.356z"/>
	<path class="st1" d="M210.337,424.183c1.713,0,3.102-1.389,3.102-3.102c0-1.713-1.389-3.102-3.102-3.102s-3.102,1.389-3.102,3.102   C207.234,422.795,208.623,424.183,210.337,424.183z"/>
	<path class="st1" d="M199.96,428.356c-1.713,0-3.102,1.389-3.102,3.102c0,1.713,1.389,3.102,3.102,3.102s3.102-1.389,3.102-3.102   C203.062,429.744,201.673,428.356,199.96,428.356z"/>
	<path class="st1" d="M213.439,441.081c0-1.713-1.389-3.102-3.102-3.102s-3.102,1.389-3.102,3.102c0,0.395,0.081,0.77,0.216,1.118   c1.861,0.123,3.731,0.234,5.617,0.326C213.297,442.092,213.439,441.605,213.439,441.081z"/>
	<path class="st1" d="M190.337,404.183c1.713,0,3.102-1.389,3.102-3.102c0-0.314-0.06-0.61-0.147-0.896   c-2.004,0.128-4.004,0.238-6.001,0.336c-0.033,0.182-0.057,0.368-0.057,0.56C187.234,402.795,188.623,404.183,190.337,404.183z"/>
	<path class="st1" d="M179.96,408.356c-1.713,0-3.102,1.389-3.102,3.102c0,1.713,1.389,3.102,3.102,3.102s3.102-1.389,3.102-3.102   C183.062,409.744,181.673,408.356,179.96,408.356z"/>
	<path class="st1" d="M190.337,424.183c1.713,0,3.102-1.389,3.102-3.102c0-1.713-1.389-3.102-3.102-3.102s-3.102,1.389-3.102,3.102   C187.234,422.795,188.623,424.183,190.337,424.183z"/>
	<path class="st1" d="M183.062,431.458c0-1.713-1.389-3.102-3.102-3.102c-0.095,0-0.184,0.02-0.277,0.028l2.316,5.396   C182.646,433.211,183.062,432.387,183.062,431.458z"/>
	<path class="st1" d="M190.337,437.979c-1.429,0-2.62,0.972-2.98,2.286c2.004,0.253,4.028,0.492,6.072,0.713   C193.373,439.314,192.015,437.979,190.337,437.979z"/>
	<path class="st1" d="M169.203,403.963c0.352,0.139,0.732,0.221,1.133,0.221c1.713,0,3.102-1.389,3.102-3.102   c0-0.039-0.01-0.076-0.012-0.116c-1.833,0.028-3.664,0.049-5.487,0.053L169.203,403.963z"/>
	<path class="st1" d="M389.844,81.037c-19.446-6.033-40.423-10.879-62.202-13.754l113.74,266.737l0.006,0.004   c12.953-17.862,24.166-37.014,33.218-55.365L389.844,81.037"/>
	<path class="st1" d="M35.697,233.273c9.103-18.212,20.121-36.709,33.118-54.419l113.832,266.698l-0.001,0.008   c-21.858-3.011-43.443-8.171-62.954-14.337L35.697,233.273"/>
	<path class="st0" d="M459.648,254.529l-2.129-4.964c-0.408,0.525-0.661,1.177-0.661,1.894   C456.858,253.064,458.084,254.37,459.648,254.529z"/>
	<path class="st0" d="M456.858,271.458c0,1.713,1.389,3.102,3.102,3.102c1.713,0,3.102-1.389,3.102-3.102   c0-1.713-1.389-3.102-3.102-3.102C458.247,268.356,456.858,269.744,456.858,271.458z"/>
	<path class="st0" d="M469.733,278.04c-1.424,0.281-2.498,1.535-2.498,3.041c0,0.644,0.196,1.241,0.532,1.737   c0.752-1.463,1.481-2.899,2.175-4.292L469.733,278.04z"/>
	<path class="st0" d="M459.96,288.356c-1.713,0-3.102,1.389-3.102,3.102c0,1.713,1.389,3.102,3.102,3.102   c0.698,0,1.336-0.239,1.854-0.628c0.412-0.739,0.822-1.477,1.221-2.204c0.008-0.09,0.027-0.177,0.027-0.27   C463.062,289.744,461.673,288.356,459.96,288.356z"/>
	<path class="st0" d="M439.96,234.56c1.713,0,3.102-1.389,3.102-3.102c0-1.521-1.096-2.78-2.54-3.046   c-0.882,1.757-1.78,3.519-2.699,5.286C438.38,234.229,439.13,234.56,439.96,234.56z"/>
	<path class="st0" d="M450.337,237.979c-1.713,0-3.102,1.389-3.102,3.102c0,1.714,1.389,3.102,3.102,3.102   c1.713,0,3.102-1.389,3.102-3.102C453.439,239.368,452.05,237.979,450.337,237.979z"/>
	<path class="st0" d="M439.96,248.356c-1.713,0-3.102,1.389-3.102,3.102s1.389,3.102,3.102,3.102c1.713,0,3.102-1.389,3.102-3.102   C443.062,249.744,441.673,248.356,439.96,248.356z"/>
	<path class="st0" d="M450.337,257.979c-1.713,0-3.102,1.389-3.102,3.102c0,1.714,1.389,3.102,3.102,3.102   c1.713,0,3.102-1.389,3.102-3.102S452.05,257.979,450.337,257.979z"/>
	<path class="st0" d="M439.96,268.356c-1.713,0-3.102,1.389-3.102,3.102c0,1.713,1.389,3.102,3.102,3.102   c1.713,0,3.102-1.389,3.102-3.102C443.062,269.744,441.673,268.356,439.96,268.356z"/>
	<path class="st0" d="M450.337,277.979c-1.713,0-3.102,1.389-3.102,3.102c0,1.714,1.389,3.102,3.102,3.102   c1.713,0,3.102-1.389,3.102-3.102S452.05,277.979,450.337,277.979z"/>
	<path class="st0" d="M439.96,288.356c-1.713,0-3.102,1.389-3.102,3.102c0,1.713,1.389,3.102,3.102,3.102   c1.713,0,3.102-1.389,3.102-3.102C443.062,289.744,441.673,288.356,439.96,288.356z"/>
	<path class="st0" d="M450.337,304.183c1.713,0,3.102-1.389,3.102-3.102c0-1.713-1.389-3.102-3.102-3.102   c-1.713,0-3.102,1.389-3.102,3.102C447.234,302.795,448.623,304.183,450.337,304.183z"/>
	<path class="st0" d="M439.96,308.356c-1.713,0-3.102,1.389-3.102,3.102c0,1.713,1.389,3.102,3.102,3.102   c1.713,0,3.102-1.389,3.102-3.102C443.062,309.744,441.673,308.356,439.96,308.356z"/>
	<path class="st0" d="M430.337,257.979c-1.713,0-3.102,1.389-3.102,3.102c0,1.714,1.389,3.102,3.102,3.102   c1.713,0,3.102-1.389,3.102-3.102S432.05,257.979,430.337,257.979z"/>
	<path class="st0" d="M423.062,271.458c0-1.713-1.389-3.102-3.102-3.102c-0.647,0-1.247,0.199-1.744,0.538l2.387,5.598   C422.008,274.195,423.062,272.95,423.062,271.458z"/>
	<path class="st0" d="M430.337,277.979c-1.713,0-3.102,1.389-3.102,3.102c0,1.714,1.389,3.102,3.102,3.102   c1.713,0,3.102-1.389,3.102-3.102S432.05,277.979,430.337,277.979z"/>
	<path class="st0" d="M430.632,298.009l2.127,4.989c0.419-0.529,0.68-1.189,0.68-1.917   C433.439,299.469,432.204,298.16,430.632,298.009z"/>
	<path class="st0" d="M156.858,411.458c0,1.713,1.389,3.102,3.102,3.102s3.102-1.389,3.102-3.102c0-0.145-0.023-0.283-0.043-0.423   l-0.645-1.502c-0.568-0.712-1.433-1.177-2.415-1.177C158.247,408.356,156.858,409.744,156.858,411.458z"/>
	<path class="st0" d="M167.253,420.899c-0.004,0.062-0.018,0.12-0.018,0.182c0,0.95,0.436,1.79,1.109,2.359L167.253,420.899z"/>
	<path class="st0" d="M159.96,428.356c-1.713,0-3.102,1.389-3.102,3.102c0,1.713,1.389,3.102,3.102,3.102s3.102-1.389,3.102-3.102   C163.062,429.744,161.673,428.356,159.96,428.356z"/>
	<path class="st0" d="M147.234,401.081c0,1.714,1.389,3.102,3.102,3.102s3.102-1.389,3.102-3.102c0-0.094-0.019-0.181-0.027-0.273   c-2.051-0.064-4.093-0.143-6.126-0.236C147.258,400.739,147.234,400.907,147.234,401.081z"/>
	<path class="st0" d="M136.858,411.458c0,1.713,1.389,3.102,3.102,3.102s3.102-1.389,3.102-3.102c0-1.713-1.389-3.102-3.102-3.102   C138.247,408.356,136.858,409.744,136.858,411.458z"/>
	<path class="st0" d="M150.337,417.979c-1.713,0-3.102,1.389-3.102,3.102c0,1.714,1.389,3.102,3.102,3.102s3.102-1.389,3.102-3.102   C153.439,419.368,152.05,417.979,150.337,417.979z"/>
	<path class="st0" d="M139.96,428.356c-1.308,0-2.422,0.812-2.878,1.958c1.927,0.52,3.909,1.038,5.939,1.55   c0.018-0.134,0.041-0.267,0.041-0.406C143.062,429.744,141.673,428.356,139.96,428.356z"/>
	<path class="st0" d="M127.234,401.081c0,1.714,1.389,3.102,3.102,3.102s3.102-1.389,3.102-3.102c0-0.499-0.128-0.963-0.338-1.38   c-1.764-0.137-3.521-0.283-5.266-0.44C127.462,399.773,127.234,400.399,127.234,401.081z"/>
	<path class="st0" d="M119.96,408.356c-1.713,0-3.102,1.389-3.102,3.102c0,1.713,1.389,3.102,3.102,3.102s3.102-1.389,3.102-3.102   C123.062,409.744,121.673,408.356,119.96,408.356z"/>
	<path class="st0" d="M130.337,424.183c1.713,0,3.102-1.389,3.102-3.102c0-1.713-1.389-3.102-3.102-3.102s-3.102,1.389-3.102,3.102   C127.234,422.795,128.623,424.183,130.337,424.183z"/>
	<path class="st0" d="M113.439,401.081c0-1.713-1.389-3.102-3.102-3.102c-0.031,0-0.059,0.008-0.09,0.009l2.273,5.296   C113.087,402.722,113.439,401.943,113.439,401.081z"/>
	<path class="st2" d="M508.796,147.324c-8.273-19.277-54.778-50.925-118.284-70.519c-15.828-4.883-37.111-10.285-61.647-13.558   c-0.455-0.138-0.929-0.205-1.413-0.184c-43.079-5.573-95.962-4.49-146.946,17.389c-51.71,22.19-89.245,60.825-114.896,96.57   c-0.383,0.365-0.686,0.792-0.907,1.262c-13.835,19.453-24.152,37.982-31.287,52.443C3.95,290.445-5.292,345.622,2.795,364.467   c7.956,18.54,52.971,49.143,114.972,68.97c0.085,0.029,0.17,0.058,0.257,0.082c0.934,0.298,1.859,0.602,2.801,0.895   c25.082,7.805,63.766,16.948,107.324,16.948c32.794,0,68.353-5.185,102.934-20.025c50.597-21.713,87.635-59.189,113.236-94.294   c0.184-0.179,0.369-0.357,0.522-0.574c0.157-0.222,0.282-0.457,0.391-0.697c14.661-20.289,25.514-39.714,32.928-54.745   C507.62,221.3,516.872,166.143,508.796,147.324z M465.011,118.817c16.302,9.973,28.528,20.168,33.915,28.133l-64.357,27.618   l-37.155-86.626C422.119,96.275,445.827,107.081,465.011,118.817z M469.941,278.525c-6.538,13.132-15.675,29.505-27.668,46.783   L334.518,72.612c20.486,3.136,38.376,7.684,52.206,11.895L469.941,278.525z M183.848,88.238   c33.794-14.502,68.524-19.555,100.517-19.555c14.092,0,27.649,0.984,40.364,2.569l54.232,127.18l-66.49,28.533l-13.817-32.054   c-0.924-2.148-3.419-3.139-5.565-2.213c-2.149,0.926-3.139,3.418-2.213,5.566l13.811,32.042l-51.048,21.906l-13.99-32.456   c-0.926-2.148-3.417-3.139-5.566-2.213c-2.148,0.926-3.139,3.418-2.213,5.566l13.984,32.444l-49.475,21.232L182.506,244.6   c-0.925-2.148-3.416-3.139-5.566-2.213c-2.148,0.926-3.139,3.418-2.213,5.566l13.867,32.172l-61.254,26.286L73.392,180.698   C98.305,146.295,134.44,109.44,183.848,88.238z M174.788,438.457c-20.245-3.289-37.884-7.911-51.445-12.132   c-0.365-0.113-0.72-0.232-1.084-0.347L40.517,235.5c0.167-0.342,0.326-0.681,0.495-1.024c6.284-12.735,15.09-28.704,26.653-45.642   L174.788,438.457z M35.683,245.716l36.25,84.472L9.374,357.034C5.837,339.65,12.67,296.28,35.683,245.716z M12.715,364.819   l62.559-26.846l36.25,84.471C59.02,404.287,22.878,379.359,12.715,364.819z M327.744,423.553   c-49.404,21.2-101.015,22.007-143.112,16.363l-53.951-125.72l61.266-26.292l13.836,32.099c0.69,1.602,2.252,2.56,3.892,2.56   c0.56,0,1.128-0.111,1.675-0.347c2.148-0.926,3.139-3.418,2.213-5.566l-13.83-32.086l49.475-21.232l13.718,31.826   c0.69,1.602,2.252,2.56,3.892,2.56c0.56,0,1.128-0.111,1.675-0.347c2.148-0.926,3.139-3.418,2.213-5.566l-13.713-31.814   l51.048-21.907l13.892,32.229c0.69,1.602,2.251,2.56,3.891,2.56c0.559,0,1.128-0.111,1.674-0.347   c2.149-0.926,3.139-3.418,2.213-5.566l-13.887-32.216l66.46-28.52l54.222,127.157C411.659,367.126,376.042,402.827,327.744,423.553   z M474.806,268.38l-36.898-86.027l64.306-27.596C505.794,172.393,498.674,216.817,474.806,268.38z"/>
</g>
</svg>
