<svg id="Capa_1" enable-background="new 0 0 511.371 511.371" height="512" viewBox="0 0 511.371 511.371" width="512" xmlns="http://www.w3.org/2000/svg"><g><path d="m300.957 41.804c-11.128 0-20.149 9.021-20.149 20.149v173.79h-236.546v-173.79c0-11.128-9.021-20.149-20.149-20.149s-20.149 9.021-20.149 20.149v193.939c0 11.128 9.021 20.149 20.149 20.149h114.572v173.378c0 11.128 9.021 20.149 20.149 20.149s20.149-9.021 20.149-20.149v-173.378h121.975c11.128 0 20.149-9.021 20.149-20.149v-193.939c-.001-11.128-9.021-20.149-20.15-20.149z" fill="#f9fbfc"/><ellipse cx="334.532" cy="170.495" fill="#eaa895" rx="53.099" ry="77.105" transform="matrix(.461 -.888 .888 .461 29.077 388.847)"/><path d="m397.168 168.456c-2.179-5.366-4.895-10.854-8.19-16.164l-38.171 73.116v.002c6.265-.371 12.5-1.358 18.169-2.675z" fill="#f9fbfc"/><path d="m299.823 117.997c5.648-1.281 11.703-2.192 17.943-2.527l-38.146 73.13-.002.001c-3.279-5.352-6.036-11.03-8.197-16.434z" fill="#f9fbfc"/><g fill="#31373d"><path d="m296.859 155.552 70.876 37.433 3.669-7.028-70.878-37.435z"/><path d="m360.823 119.851c-11.93-6.193-24.544-8.251-35.753-8.373v-49.525c0-13.296-10.817-24.113-24.113-24.113s-24.113 10.817-24.113 24.113v60.25c-7.159 3.511-12.439 7.426-14.264 10.94-3.451 6.648-.964 24.224 5.785 40.885 1.846 4.557 4.609 10.478 8.479 16.735v41.016h-228.618v-169.826c0-13.296-10.817-24.113-24.113-24.113s-24.113 10.817-24.113 24.113v193.939c0 13.296 10.817 24.113 24.113 24.113h110.607v169.414c0 13.296 10.817 24.113 24.113 24.113s24.113-10.817 24.113-24.113v-169.414h118.011c13.296 0 24.113-10.817 24.113-24.113v-28.59c6.883 1.608 13.675 2.218 19.991 2.218 9.874 0 18.586-1.476 24.66-2.887 17.512-4.07 33.315-12.146 36.762-18.785 6.441-12.409-6.083-67.452-45.66-87.997zm-76.05-57.898c0-8.925 7.26-16.185 16.185-16.185s16.185 7.26 16.185 16.185v49.748c-7.024.469-13.174 1.575-17.795 2.648-5.09 1.183-10.034 2.705-14.574 4.432v-56.828zm32.369 193.938c0 8.925-7.26 16.185-16.185 16.185h-121.975c-2.189 0-3.964 1.774-3.964 3.964v173.378c0 8.925-7.26 16.185-16.185 16.185s-16.185-7.26-16.185-16.185v-173.377c0-2.189-1.775-3.964-3.964-3.964h-114.571c-8.925 0-16.185-7.261-16.185-16.185v-193.939c0-8.925 7.26-16.185 16.185-16.185s16.185 7.26 16.185 16.185v173.791c0 2.189 1.775 3.964 3.964 3.964h236.547c2.189 0 3.964-1.775 3.964-3.964v-33.914c6.067 7.312 13.78 14.281 23.467 19.31 2.936 1.524 5.914 2.792 8.902 3.848zm82.989-54.762-15.641-8.261-3.654 7.036 14.802 7.817c-5.096 3.527-14.824 8.194-27.71 11.189-12.067 2.807-35.391 5.909-56.034-4.806-20.645-10.718-31.528-31.574-36.178-43.054-5.287-13.051-6.962-24.27-6.779-30.247l14.825 7.83 3.682-7.021-14.776-7.804c4.851-3.581 14.919-8.588 28.476-11.737 5.635-1.309 13.727-2.683 22.856-2.683 10.412 0 22.173 1.787 33.173 7.498 33.727 17.511 44.028 61.025 42.958 74.243z"/><path d="m447.724 272.681c-.626 0-1.262-.149-1.854-.464l-47.602-25.254c-1.934-1.026-2.67-3.425-1.643-5.359 1.025-1.933 3.424-2.672 5.36-1.643l47.602 25.254c1.934 1.026 2.67 3.425 1.643 5.36-.712 1.341-2.085 2.106-3.506 2.106z"/><path d="m507.403 263.729c-.626 0-1.262-.149-1.854-.464l-80.737-42.845c-1.934-1.026-2.67-3.426-1.643-5.359 1.026-1.933 3.423-2.671 5.36-1.643l80.737 42.845c1.934 1.026 2.67 3.426 1.643 5.36-.713 1.341-2.086 2.106-3.506 2.106z"/></g></g></svg>