<svg id="Capa_1" enable-background="new 0 0 512.153 512.153" height="512" viewBox="0 0 512.153 512.153" width="512" xmlns="http://www.w3.org/2000/svg"><g><path d="m488.794 317.814c-1.223 50.142-58.871 59.267-187.652 58.625-9.904-.049-47.557-49.365-58.309-49.515-24.444-.343-109.316-51.014-131.18-60.124-16.929-7.054-5.401-184.646 3.644-198.591s60.769-25.858 67.412-23.685c6.643 2.172.881 87.41 16.397 98.385 74.7 52.836 142.348 93.897 195.976 111.848 67.083 22.454 94.335 37.538 93.712 63.057z" fill="#f9fbfc"/><path d="m31.488 91.894c4-3.626 117.396-1.38 122.07 1.822 4.673 3.202 0 120.248 9.11 127.536s61.399 29.468 98.385 45.548c41.905 18.219 76.521 32.795 76.521 45.549s-14.576 60.124-14.576 60.124-58.302 5.466-74.699 1.822-102.029-34.617-120.248-38.261-92.903 7.512-100.191-5.241-12.636-58.748-12.769-76.746c-.134-17.998 4.349-62.674 10.932-87.453s1.465-71.075 5.465-74.7z" fill="#e9c278"/><path d="m484.083 420.484h-46.625v-44.454h-31.273v44.455h-100.641v-29.25h-31.273v29.25h-173.99v-29.25h-31.273v29.25h-40.939c-12.875 0-23.312 10.437-23.312 23.312s10.437 23.312 23.312 23.312h456.014c12.875 0 23.312-10.437 23.312-23.312s-10.437-23.313-23.312-23.313z" fill="#f9fbfc"/><g fill="#eaa895"><g><path d="m496.858 441.268c0 1.713 1.389 3.102 3.102 3.102s3.102-1.389 3.102-3.102-1.389-3.103-3.102-3.103c-1.713.001-3.102 1.39-3.102 3.103z"/><path d="m479.96 424.37c1.713 0 3.102-1.389 3.102-3.102 0-.272-.046-.532-.112-.784h-5.98c-.066.251-.112.511-.112.784 0 1.713 1.389 3.102 3.102 3.102z"/><path d="m490.337 433.994c1.713 0 3.102-1.389 3.102-3.103 0-1.713-1.389-3.102-3.102-3.102s-3.102 1.389-3.102 3.102c-.001 1.714 1.388 3.103 3.102 3.103z"/><path d="m479.96 438.166c-1.713 0-3.102 1.389-3.102 3.103 0 1.713 1.389 3.102 3.102 3.102s3.102-1.389 3.102-3.102c0-1.714-1.389-3.103-3.102-3.103z"/><path d="m459.96 424.37c1.713 0 3.102-1.389 3.102-3.102 0-.272-.046-.532-.112-.784h-5.98c-.066.251-.112.511-.112.784 0 1.713 1.389 3.102 3.102 3.102z"/><path d="m467.234 430.891c0 1.713 1.389 3.103 3.102 3.103s3.102-1.389 3.102-3.103c0-1.713-1.389-3.102-3.102-3.102s-3.102 1.389-3.102 3.102z"/><path d="m459.96 438.166c-1.713 0-3.102 1.389-3.102 3.103 0 1.713 1.389 3.102 3.102 3.102s3.102-1.389 3.102-3.102c0-1.714-1.389-3.103-3.102-3.103z"/><path d="m437.458 383.088v-3.64c-.373.512-.6 1.138-.6 1.82s.227 1.308.6 1.82z"/><path d="m437.458 403.088v-3.64c-.373.512-.6 1.138-.6 1.82s.227 1.308.6 1.82z"/><path d="m437.458 419.448c-.373.512-.6 1.138-.6 1.82 0 1.713 1.389 3.102 3.102 3.102s3.102-1.389 3.102-3.102c0-.272-.046-.532-.112-.784h-5.492z"/><path d="m447.234 430.891c0 1.713 1.389 3.103 3.102 3.103s3.102-1.389 3.102-3.103c0-1.713-1.389-3.102-3.102-3.102s-3.102 1.389-3.102 3.102z"/><path d="m439.96 438.166c-1.713 0-3.102 1.389-3.102 3.103 0 1.713 1.389 3.102 3.102 3.102s3.102-1.389 3.102-3.102c0-1.714-1.389-3.103-3.102-3.103z"/><path d="m419.96 378.166c-1.713 0-3.102 1.389-3.102 3.103 0 1.713 1.389 3.102 3.102 3.102s3.102-1.389 3.102-3.102c0-1.714-1.389-3.103-3.102-3.103z"/><path d="m430.337 387.789c-1.713 0-3.102 1.389-3.102 3.102s1.389 3.103 3.102 3.103 3.102-1.389 3.102-3.103c0-1.713-1.389-3.102-3.102-3.102z"/><path d="m419.96 398.166c-1.713 0-3.102 1.389-3.102 3.103 0 1.713 1.389 3.102 3.102 3.102s3.102-1.389 3.102-3.102c0-1.714-1.389-3.103-3.102-3.103z"/><path d="m430.337 407.789c-1.713 0-3.102 1.389-3.102 3.102s1.389 3.103 3.102 3.103 3.102-1.389 3.102-3.103c0-1.713-1.389-3.102-3.102-3.102z"/><path d="m419.96 418.166c-1.713 0-3.102 1.389-3.102 3.103 0 1.713 1.389 3.102 3.102 3.102s3.102-1.389 3.102-3.102c0-1.714-1.389-3.103-3.102-3.103z"/><path d="m430.337 427.789c-1.713 0-3.102 1.389-3.102 3.102s1.389 3.103 3.102 3.103 3.102-1.389 3.102-3.103c0-1.713-1.389-3.102-3.102-3.102z"/><path d="m419.96 438.166c-1.713 0-3.102 1.389-3.102 3.103 0 1.713 1.389 3.102 3.102 3.102s3.102-1.389 3.102-3.102c0-1.714-1.389-3.103-3.102-3.103z"/><path d="m410.337 387.789c-1.713 0-3.102 1.389-3.102 3.102s1.389 3.103 3.102 3.103 3.102-1.389 3.102-3.103c0-1.713-1.389-3.102-3.102-3.102z"/><path d="m410.337 407.789c-1.713 0-3.102 1.389-3.102 3.102s1.389 3.103 3.102 3.103 3.102-1.389 3.102-3.103c0-1.713-1.389-3.102-3.102-3.102z"/><path d="m399.96 424.37c1.713 0 3.102-1.389 3.102-3.102 0-.272-.046-.532-.112-.784h-5.98c-.066.251-.112.511-.112.784 0 1.713 1.389 3.102 3.102 3.102z"/><path d="m410.337 433.994c1.713 0 3.102-1.389 3.102-3.103 0-1.713-1.389-3.102-3.102-3.102s-3.102 1.389-3.102 3.102c-.001 1.714 1.388 3.103 3.102 3.103z"/><path d="m399.96 438.166c-1.713 0-3.102 1.389-3.102 3.103 0 1.713 1.389 3.102 3.102 3.102s3.102-1.389 3.102-3.102c0-1.714-1.389-3.103-3.102-3.103z"/><path d="m379.96 424.37c1.713 0 3.102-1.389 3.102-3.102 0-.272-.046-.532-.112-.784h-5.98c-.066.251-.112.511-.112.784 0 1.713 1.389 3.102 3.102 3.102z"/><path d="m387.234 430.891c0 1.713 1.389 3.103 3.102 3.103s3.102-1.389 3.102-3.103c0-1.713-1.389-3.102-3.102-3.102s-3.102 1.389-3.102 3.102z"/><path d="m379.96 438.166c-1.713 0-3.102 1.389-3.102 3.103 0 1.713 1.389 3.102 3.102 3.102s3.102-1.389 3.102-3.102c0-1.714-1.389-3.103-3.102-3.103z"/><path d="m359.96 424.37c1.713 0 3.102-1.389 3.102-3.102 0-.272-.046-.532-.112-.784h-5.98c-.066.251-.112.511-.112.784 0 1.713 1.389 3.102 3.102 3.102z"/><path d="m367.234 430.891c0 1.713 1.389 3.103 3.102 3.103s3.102-1.389 3.102-3.103c0-1.713-1.389-3.102-3.102-3.102s-3.102 1.389-3.102 3.102z"/><path d="m359.96 438.166c-1.713 0-3.102 1.389-3.102 3.103 0 1.713 1.389 3.102 3.102 3.102s3.102-1.389 3.102-3.102c0-1.714-1.389-3.103-3.102-3.103z"/><path d="m339.96 424.37c1.713 0 3.102-1.389 3.102-3.102 0-.272-.046-.532-.112-.784h-5.98c-.066.251-.112.511-.112.784 0 1.713 1.389 3.102 3.102 3.102z"/><path d="m347.234 430.891c0 1.713 1.389 3.103 3.102 3.103s3.102-1.389 3.102-3.103c0-1.713-1.389-3.102-3.102-3.102s-3.102 1.389-3.102 3.102z"/><path d="m339.96 438.166c-1.713 0-3.102 1.389-3.102 3.103 0 1.713 1.389 3.102 3.102 3.102s3.102-1.389 3.102-3.102c0-1.714-1.389-3.103-3.102-3.103z"/><path d="m319.96 424.37c1.713 0 3.102-1.389 3.102-3.102 0-.272-.046-.532-.112-.784h-5.98c-.066.251-.112.511-.112.784 0 1.713 1.389 3.102 3.102 3.102z"/><path d="m327.234 430.891c0 1.713 1.389 3.103 3.102 3.103s3.102-1.389 3.102-3.103c0-1.713-1.389-3.102-3.102-3.102s-3.102 1.389-3.102 3.102z"/><path d="m319.96 438.166c-1.713 0-3.102 1.389-3.102 3.103 0 1.713 1.389 3.102 3.102 3.102s3.102-1.389 3.102-3.102c0-1.714-1.389-3.103-3.102-3.103z"/><path d="m299.96 398.166c-1.713 0-3.102 1.389-3.102 3.103 0 1.713 1.389 3.102 3.102 3.102s3.102-1.389 3.102-3.102c0-1.714-1.389-3.103-3.102-3.103z"/><path d="m299.96 418.166c-1.713 0-3.102 1.389-3.102 3.103 0 1.713 1.389 3.102 3.102 3.102s3.102-1.389 3.102-3.102c0-1.714-1.389-3.103-3.102-3.103z"/><path d="m307.234 430.891c0 1.713 1.389 3.103 3.102 3.103s3.102-1.389 3.102-3.103c0-1.713-1.389-3.102-3.102-3.102s-3.102 1.389-3.102 3.102z"/><path d="m299.96 438.166c-1.713 0-3.102 1.389-3.102 3.103 0 1.713 1.389 3.102 3.102 3.102s3.102-1.389 3.102-3.102c0-1.714-1.389-3.103-3.102-3.103z"/><path d="m290.337 393.994c1.596 0 2.895-1.209 3.068-2.759h-6.135c.172 1.55 1.471 2.759 3.067 2.759z"/><path d="m279.96 398.166c-1.713 0-3.102 1.389-3.102 3.103 0 1.713 1.389 3.102 3.102 3.102s3.102-1.389 3.102-3.102c0-1.714-1.389-3.103-3.102-3.103z"/><path d="m290.337 407.789c-1.713 0-3.102 1.389-3.102 3.102s1.389 3.103 3.102 3.103 3.102-1.389 3.102-3.103c0-1.713-1.389-3.102-3.102-3.102z"/><path d="m279.96 418.166c-1.713 0-3.102 1.389-3.102 3.103 0 1.713 1.389 3.102 3.102 3.102s3.102-1.389 3.102-3.102c0-1.714-1.389-3.103-3.102-3.103z"/><path d="m290.337 427.789c-1.713 0-3.102 1.389-3.102 3.102s1.389 3.103 3.102 3.103 3.102-1.389 3.102-3.103c0-1.713-1.389-3.102-3.102-3.102z"/><path d="m279.96 444.37c1.713 0 3.102-1.389 3.102-3.102s-1.389-3.103-3.102-3.103-3.102 1.389-3.102 3.103c0 1.713 1.389 3.102 3.102 3.102z"/><path d="m259.96 424.37c1.713 0 3.102-1.389 3.102-3.102 0-.272-.046-.532-.112-.784h-5.98c-.066.251-.112.511-.112.784 0 1.713 1.389 3.102 3.102 3.102z"/><path d="m267.234 430.891c0 1.713 1.389 3.103 3.102 3.103s3.102-1.389 3.102-3.103c0-1.713-1.389-3.102-3.102-3.102s-3.102 1.389-3.102 3.102z"/><path d="m259.96 438.166c-1.713 0-3.102 1.389-3.102 3.103 0 1.713 1.389 3.102 3.102 3.102s3.102-1.389 3.102-3.102c0-1.714-1.389-3.103-3.102-3.103z"/><path d="m239.96 424.37c1.713 0 3.102-1.389 3.102-3.102 0-.272-.046-.532-.112-.784h-5.98c-.066.251-.112.511-.112.784 0 1.713 1.389 3.102 3.102 3.102z"/><path d="m247.234 430.891c0 1.713 1.389 3.103 3.102 3.103s3.102-1.389 3.102-3.103c0-1.713-1.389-3.102-3.102-3.102s-3.102 1.389-3.102 3.102z"/><path d="m239.96 438.166c-1.713 0-3.102 1.389-3.102 3.103 0 1.713 1.389 3.102 3.102 3.102s3.102-1.389 3.102-3.102c0-1.714-1.389-3.103-3.102-3.103z"/><path d="m219.96 424.37c1.713 0 3.102-1.389 3.102-3.102 0-.272-.046-.532-.112-.784h-5.98c-.066.251-.112.511-.112.784 0 1.713 1.389 3.102 3.102 3.102z"/><path d="m227.234 430.891c0 1.713 1.389 3.103 3.102 3.103s3.102-1.389 3.102-3.103c0-1.713-1.389-3.102-3.102-3.102s-3.102 1.389-3.102 3.102z"/><path d="m219.96 438.166c-1.713 0-3.102 1.389-3.102 3.103 0 1.713 1.389 3.102 3.102 3.102s3.102-1.389 3.102-3.102c0-1.714-1.389-3.103-3.102-3.103z"/><path d="m199.96 424.37c1.713 0 3.102-1.389 3.102-3.102 0-.272-.046-.532-.112-.784h-5.98c-.066.251-.112.511-.112.784 0 1.713 1.389 3.102 3.102 3.102z"/><path d="m207.234 430.891c0 1.713 1.389 3.103 3.102 3.103s3.102-1.389 3.102-3.103c0-1.713-1.389-3.102-3.102-3.102s-3.102 1.389-3.102 3.102z"/><path d="m199.96 438.166c-1.713 0-3.102 1.389-3.102 3.103 0 1.713 1.389 3.102 3.102 3.102s3.102-1.389 3.102-3.102c0-1.714-1.389-3.103-3.102-3.103z"/><path d="m179.96 424.37c1.713 0 3.102-1.389 3.102-3.102 0-.272-.046-.532-.112-.784h-5.98c-.066.251-.112.511-.112.784 0 1.713 1.389 3.102 3.102 3.102z"/><path d="m187.234 430.891c0 1.713 1.389 3.103 3.102 3.103s3.102-1.389 3.102-3.103c0-1.713-1.389-3.102-3.102-3.102s-3.102 1.389-3.102 3.102z"/><path d="m179.96 438.166c-1.713 0-3.102 1.389-3.102 3.103 0 1.713 1.389 3.102 3.102 3.102s3.102-1.389 3.102-3.102c0-1.714-1.389-3.103-3.102-3.103z"/><path d="m159.96 424.37c1.713 0 3.102-1.389 3.102-3.102 0-.272-.046-.532-.112-.784h-5.98c-.066.251-.112.511-.112.784 0 1.713 1.389 3.102 3.102 3.102z"/><path d="m167.234 430.891c0 1.713 1.389 3.103 3.102 3.103s3.102-1.389 3.102-3.103c0-1.713-1.389-3.102-3.102-3.102s-3.102 1.389-3.102 3.102z"/><path d="m159.96 438.166c-1.713 0-3.102 1.389-3.102 3.103 0 1.713 1.389 3.102 3.102 3.102s3.102-1.389 3.102-3.102c0-1.714-1.389-3.103-3.102-3.103z"/><path d="m139.96 424.37c1.713 0 3.102-1.389 3.102-3.102 0-.272-.046-.532-.112-.784h-5.98c-.066.251-.112.511-.112.784 0 1.713 1.389 3.102 3.102 3.102z"/><path d="m147.234 430.891c0 1.713 1.389 3.103 3.102 3.103s3.102-1.389 3.102-3.103c0-1.713-1.389-3.102-3.102-3.102s-3.102 1.389-3.102 3.102z"/><path d="m139.96 438.166c-1.713 0-3.102 1.389-3.102 3.103 0 1.713 1.389 3.102 3.102 3.102s3.102-1.389 3.102-3.102c0-1.714-1.389-3.103-3.102-3.103z"/><path d="m119.96 424.37c1.713 0 3.102-1.389 3.102-3.102 0-.272-.046-.532-.112-.784h-5.98c-.066.251-.112.511-.112.784 0 1.713 1.389 3.102 3.102 3.102z"/><path d="m127.234 430.891c0 1.713 1.389 3.103 3.102 3.103s3.102-1.389 3.102-3.103c0-1.713-1.389-3.102-3.102-3.102s-3.102 1.389-3.102 3.102z"/><path d="m119.96 438.166c-1.713 0-3.102 1.389-3.102 3.103 0 1.713 1.389 3.102 3.102 3.102s3.102-1.389 3.102-3.102c0-1.714-1.388-3.103-3.102-3.103z"/><path d="m96.858 401.268c0 1.713 1.389 3.102 3.102 3.102.11 0 .214-.021.321-.032v-6.14c-.107-.011-.211-.032-.321-.032-1.713 0-3.102 1.389-3.102 3.102z"/><path d="m100.281 418.198c-.107-.011-.211-.032-.321-.032-1.713 0-3.102 1.389-3.102 3.103 0 1.713 1.389 3.102 3.102 3.102s3.102-1.389 3.102-3.102c0-.272-.046-.532-.112-.784h-2.669z"/><path d="m107.234 430.891c0 1.713 1.389 3.103 3.102 3.103s3.102-1.389 3.102-3.103c0-1.713-1.389-3.102-3.102-3.102s-3.102 1.389-3.102 3.102z"/><path d="m99.96 438.166c-1.713 0-3.102 1.389-3.102 3.103 0 1.713 1.389 3.102 3.102 3.102s3.102-1.389 3.102-3.102c0-1.714-1.388-3.103-3.102-3.103z"/><path d="m90.337 393.994c1.596 0 2.895-1.209 3.068-2.759h-6.135c.172 1.55 1.471 2.759 3.067 2.759z"/><path d="m79.96 398.166c-1.713 0-3.102 1.389-3.102 3.103 0 1.713 1.389 3.102 3.102 3.102s3.102-1.389 3.102-3.102c0-1.714-1.388-3.103-3.102-3.103z"/><path d="m90.337 407.789c-1.713 0-3.102 1.389-3.102 3.102s1.389 3.103 3.102 3.103 3.102-1.389 3.102-3.103c0-1.713-1.389-3.102-3.102-3.102z"/><path d="m79.96 418.166c-1.713 0-3.102 1.389-3.102 3.103 0 1.713 1.389 3.102 3.102 3.102s3.102-1.389 3.102-3.102c0-1.714-1.388-3.103-3.102-3.103z"/><path d="m90.337 427.789c-1.713 0-3.102 1.389-3.102 3.102s1.389 3.103 3.102 3.103 3.102-1.389 3.102-3.103c0-1.713-1.389-3.102-3.102-3.102z"/><path d="m79.96 438.166c-1.713 0-3.102 1.389-3.102 3.103 0 1.713 1.389 3.102 3.102 3.102s3.102-1.389 3.102-3.102c0-1.714-1.388-3.103-3.102-3.103z"/><path d="m69.008 393.684c.404.193.851.31 1.328.31 1.596 0 2.895-1.209 3.068-2.759h-4.396z"/><path d="m70.337 407.789c-.477 0-.924.117-1.328.31v5.586c.404.193.851.31 1.328.31 1.713 0 3.102-1.389 3.102-3.103s-1.389-3.103-3.102-3.103z"/><path d="m59.96 424.37c1.713 0 3.102-1.389 3.102-3.102 0-.272-.046-.532-.112-.784h-5.98c-.066.251-.112.511-.112.784 0 1.713 1.389 3.102 3.102 3.102z"/><path d="m70.337 427.789c-1.713 0-3.102 1.389-3.102 3.102s1.389 3.103 3.102 3.103 3.102-1.389 3.102-3.103c0-1.713-1.389-3.102-3.102-3.102z"/><path d="m59.96 438.166c-1.713 0-3.102 1.389-3.102 3.103 0 1.713 1.389 3.102 3.102 3.102s3.102-1.389 3.102-3.102c0-1.714-1.388-3.103-3.102-3.103z"/><path d="m39.96 424.37c1.713 0 3.102-1.389 3.102-3.102 0-.272-.046-.532-.112-.784h-5.98c-.066.251-.112.511-.112.784 0 1.713 1.389 3.102 3.102 3.102z"/><path d="m47.234 430.891c0 1.713 1.389 3.103 3.102 3.103s3.102-1.389 3.102-3.103c0-1.713-1.389-3.102-3.102-3.102s-3.102 1.389-3.102 3.102z"/><path d="m39.96 438.166c-1.713 0-3.102 1.389-3.102 3.103 0 1.713 1.389 3.102 3.102 3.102s3.102-1.389 3.102-3.102c0-1.714-1.388-3.103-3.102-3.103z"/><path d="m19.96 424.37c1.713 0 3.102-1.389 3.102-3.102 0-.08-.018-.155-.023-.233-1.975.435-3.855 1.12-5.608 2.021.562.793 1.483 1.314 2.529 1.314z"/><path d="m27.234 430.891c0 1.713 1.389 3.103 3.102 3.103s3.102-1.389 3.102-3.103c0-1.713-1.389-3.102-3.102-3.102s-3.102 1.389-3.102 3.102z"/><path d="m19.96 438.166c-1.713 0-3.102 1.389-3.102 3.103 0 1.713 1.389 3.102 3.102 3.102s3.102-1.389 3.102-3.102c0-1.714-1.388-3.103-3.102-3.103z"/><path d="m10.337 433.994c1.713 0 3.102-1.389 3.102-3.103 0-1.468-1.023-2.691-2.393-3.013-1.298 1.387-2.429 2.932-3.359 4.604.542.902 1.521 1.512 2.65 1.512z"/></g><ellipse cx="112.056" cy="131.979" rx="18.512" ry="18.512" transform="matrix(.707 -.707 .707 .707 -60.503 117.891)"/><ellipse cx="112.056" cy="195.056" rx="18.512" ry="18.512" transform="matrix(.23 -.973 .973 .23 -103.528 259.299)"/></g><path d="m112.055 155.248c-12.83 0-23.268-10.439-23.268-23.269 0-12.831 10.438-23.269 23.268-23.269s23.269 10.438 23.269 23.269-10.438 23.269-23.269 23.269zm0-37.023c-7.584 0-13.754 6.17-13.754 13.754s6.17 13.754 13.754 13.754 13.754-6.17 13.754-13.754c.001-7.584-6.169-13.754-13.754-13.754z" fill="#31373d"/><path d="m112.055 218.325c-12.83 0-23.268-10.438-23.268-23.269s10.438-23.269 23.268-23.269 23.269 10.438 23.269 23.269-10.438 23.269-23.269 23.269zm0-37.023c-7.584 0-13.754 6.17-13.754 13.754s6.17 13.754 13.754 13.754 13.754-6.17 13.754-13.754c.001-7.584-6.169-13.754-13.754-13.754z" fill="#31373d"/><path d="m484.083 415.727h-41.868v-34.649c15.279-3.468 30.285-7.54 44.982-12.251 6.425-2.06 10.741-8.358 10.741-15.674 0-5.303-2.358-10.288-6.306-13.334-.946-.73-1.963-1.317-3.019-1.782 2.613-5.953 3.998-12.639 4.18-20.126.713-29.24-30.53-44.886-96.441-66.949-36.59-12.249-82.382-36.355-138.965-73.211-.367-.455-.816-.855-1.355-1.16-.35-.198-.716-.331-1.088-.433-16.879-11.044-34.702-23.2-53.529-36.517-7.753-5.484-9.505-41.608-10.553-63.192-1.281-26.398-1.874-34.082-6.911-35.729-5.564-1.821-24.096 2.452-35.193 5.768-13.661 4.082-31.138 10.786-36.817 19.543-1.915 2.953-3.653 10.589-5.18 20.53-4.678-.126-9.513-.232-14.422-.317-15.532-.268-30.035-.284-40.836-.045-20.182.447-21.406 1.556-22.702 2.73-2.927 2.652-3.067 8.577-3.072 26.904-.004 16.179-.009 36.314-3.573 49.732-6.616 24.904-11.202 70.156-11.066 88.51.098 13.157 3.155 44.16 8.188 64.23-4.797 2.718-8.099 8.199-8.099 14.49v.487c0 8.845 6.563 16.162 14.631 16.31l.715.013 4.78 40.626c.282 2.397 2.313 4.201 4.724 4.201h.027l28.195-.159v21.453h-36.182c-15.477.001-28.069 12.593-28.069 28.071s12.592 28.07 28.069 28.07h456.013c15.478 0 28.07-12.592 28.07-28.07.001-15.478-12.592-28.07-28.069-28.07zm-365.43-345.342c7.276-11.218 52.302-22.595 61.784-22.185 1.244 4.085 1.9 17.603 2.435 28.637 1.694 34.903 3.794 62.17 13.924 69.335 5.069 3.585 10.064 7.084 14.992 10.505l-21.888 36.276c-1.357 2.249-.634 5.173 1.615 6.531.769.464 1.616.685 2.453.685 1.612 0 3.185-.82 4.078-2.3l21.585-35.772c9.73 6.683 19.175 13.032 28.352 19.062l-20.494 36.228c-1.294 2.287-.488 5.189 1.798 6.483.74.419 1.545.618 2.338.618 1.659 0 3.27-.869 4.145-2.416l20.196-35.701c9.67 6.264 19.023 12.149 28.076 17.673l-19.586 37.286c-1.222 2.326-.327 5.202 1.999 6.424.706.371 1.462.546 2.209.546 1.711 0 3.363-.926 4.215-2.546l19.324-36.786c39.657 23.703 73.295 40.103 101.611 49.581 69.4 23.232 91.508 37.608 90.982 59.168-.182 7.44-1.802 13.904-4.873 19.519-.112.026-.226.039-.337.068-47.98 12.586-97.788 20.233-148.778 22.889 4.375-15.217 10.767-38.969 10.767-47.843 0-14.267-25.568-26.038-74.565-47.322l-4.361-1.895c-4.511-1.961-9.249-4.013-14.108-6.117-33.569-14.537-75.3-32.609-83.237-38.779-.637-.933-2.542-5.523-3.746-27.414-.819-14.886-1.101-33.482-1.35-49.889-.675-44.455-1.282-48.389-4.388-50.517-1.157-.793-2.596-1.779-22.531-2.84-5.463-.291-11.73-.552-18.482-.774 1.367-8.857 2.713-14.67 3.846-16.418zm-13.615 323.659 31.66-.179c2.617-.015 4.73-2.141 4.73-4.757v-31.856l110.455 35.537c1.037.333 2.107.544 3.181.628 4.834.377 9.649.7 14.449.976v21.334h-164.475zm205.263 1.491c31.218-.061 61.637-2.315 91.127-6.761v26.954h-91.127zm-280.413-227.915c3.832-14.426 3.837-35.14 3.842-51.784.002-7.793.004-17.295.675-20.678 5.443-.902 26.099-1.471 58.289-.906 30.258.533 51.994 1.762 57.868 2.761 1.064 5.738 1.372 25.996 1.646 44.041.874 57.488 2.208 78.718 7.962 83.321 8.417 6.734 49.205 24.397 85.191 39.981 4.856 2.103 9.59 4.153 14.098 6.113l4.363 1.896c19.451 8.45 37.824 16.431 50.709 23.546 16.569 9.151 19.044 14.227 19.044 16.438 0 7.886-6.508 32.047-11.208 48.24-21.584.888-43.371.889-65.316-.012-.417-.017-.836-.097-1.243-.238l-127.65-44.035c-1.492-.514-3.018-.777-4.61-.753l-96.508.923c-4.587-18.346-7.844-48.487-7.948-62.458-.135-17.921 4.34-62.095 10.796-86.396zm454.195 294.732h-456.014c-10.231 0-18.555-8.324-18.555-18.555 0-10.232 8.324-18.555 18.555-18.555h40.939c2.627 0 4.757-2.13 4.757-4.757v-26.265l21.758-.123v26.387c0 2.627 2.13 4.757 4.757 4.757h173.99c2.627 0 4.757-2.13 4.757-4.757v-25.612c7.293.321 14.547.528 21.759.617v24.995c0 2.627 2.13 4.757 4.757 4.757h100.642c2.627 0 4.757-2.13 4.757-4.757v-33.232c7.312-1.228 14.565-2.594 21.757-4.094v37.326c0 2.627 2.13 4.757 4.757 4.757h46.625c10.231 0 18.555 8.324 18.555 18.555.002 10.232-8.322 18.556-18.553 18.556z" fill="#31373d"/></g></svg>