<svg id="Capa_1" enable-background="new 0 0 511.622 511.622" height="512" viewBox="0 0 511.622 511.622" width="512" xmlns="http://www.w3.org/2000/svg"><g><path d="m432.901 155.545s-51.675-5.887-51.675-59.476l-9.57-91.867h-55.93c.009.638.032 1.272.032 1.914 0 48.623-26.453 88.04-59.085 88.04s-59.086-39.417-59.086-88.04c0-.641.023-1.275.033-1.914h-59.46l-7.656 91.867c0 49.762-31.592 59.476-51.675 59.476l-17.639 322.691c-.815 14.911 11.016 27.468 25.949 27.541l337.194 1.645c15.03.073 27.02-12.524 26.204-27.533z" fill="#e9c278"/><g fill="#f9fbfc"><path d="m437.59 261.591c0 .997.479 1.875 1.21 2.442l-.254-4.674c-.587.565-.956 1.354-.956 2.232z"/><path d="m437.59 281.591c0 1.444.991 2.648 2.327 2.993l-.32-5.886c-1.17.444-2.007 1.567-2.007 2.893z"/><path d="m440.693 304.693c.108 0 .211-.02.316-.032l-.336-6.17c-1.704.011-3.083 1.394-3.083 3.1 0 1.714 1.389 3.102 3.103 3.102z"/><path d="m440.693 324.693c.501 0 .968-.13 1.387-.341l-.308-5.659c-.337-.126-.698-.204-1.079-.204-1.713 0-3.102 1.389-3.102 3.102-.001 1.714 1.388 3.102 3.102 3.102z"/><path d="m440.693 338.489c-1.713 0-3.102 1.389-3.102 3.102 0 1.714 1.389 3.103 3.102 3.103.989 0 1.86-.472 2.428-1.192l-.222-4.089c-.563-.57-1.343-.924-2.206-.924z"/><path d="m440.693 358.489c-1.713 0-3.102 1.389-3.102 3.102 0 1.714 1.389 3.103 3.102 3.103s3.102-1.389 3.102-3.103c0-1.713-1.389-3.102-3.102-3.102z"/><path d="m440.693 378.489c-1.713 0-3.102 1.389-3.102 3.102 0 1.714 1.389 3.103 3.102 3.103s3.102-1.389 3.102-3.103c0-1.713-1.389-3.102-3.102-3.102z"/><path d="m440.693 398.489c-1.713 0-3.102 1.389-3.102 3.102 0 1.714 1.389 3.103 3.102 3.103s3.102-1.389 3.102-3.103c0-1.713-1.389-3.102-3.102-3.102z"/><path d="m440.693 418.489c-1.713 0-3.102 1.389-3.102 3.102 0 1.714 1.389 3.103 3.102 3.103s3.102-1.389 3.102-3.103c0-1.713-1.389-3.102-3.102-3.102z"/><path d="m440.693 438.489c-1.713 0-3.102 1.389-3.102 3.102 0 1.714 1.389 3.103 3.102 3.103s3.102-1.389 3.102-3.103c0-1.713-1.389-3.102-3.102-3.102z"/><path d="m449.107 453.599-.248-4.558c-.551.561-.892 1.326-.892 2.174 0 .965.449 1.815 1.14 2.384z"/><path d="m440.693 458.489c-1.713 0-3.102 1.389-3.102 3.102 0 1.714 1.389 3.103 3.102 3.103s3.102-1.389 3.102-3.103c0-1.713-1.389-3.102-3.102-3.102z"/><path d="m447.967 471.215c0 1.419.958 2.603 2.259 2.972l-.318-5.845c-1.137.46-1.941 1.57-1.941 2.873z"/><path d="m440.693 478.489c-1.713 0-3.102 1.389-3.102 3.102 0 1.714 1.389 3.103 3.102 3.103s3.102-1.389 3.102-3.103c0-1.713-1.389-3.102-3.102-3.102z"/><path d="m447.967 491.215c0 .371.076.722.195 1.052.558-1.203 1.026-2.454 1.397-3.746-.946.531-1.592 1.532-1.592 2.694z"/><path d="m440.693 498.489c-1.713 0-3.102 1.389-3.102 3.102 0 .718.253 1.369.662 1.895 1.759-1.096 3.372-2.398 4.817-3.866-.57-.685-1.417-1.131-2.377-1.131z"/><path d="m420.693 158.489c-1.713 0-3.102 1.389-3.102 3.102 0 1.714 1.389 3.103 3.102 3.103s3.102-1.389 3.102-3.103c0-1.713-1.389-3.102-3.102-3.102z"/><path d="m431.069 168.112c-1.713 0-3.102 1.389-3.102 3.103 0 1.713 1.389 3.102 3.102 3.102 1.211 0 2.249-.701 2.76-1.714l-.168-3.087c-.554-.844-1.506-1.404-2.592-1.404z"/><path d="m420.693 184.693c1.713 0 3.102-1.389 3.102-3.103 0-1.713-1.389-3.102-3.102-3.102s-3.102 1.389-3.102 3.102c-.001 1.715 1.388 3.103 3.102 3.103z"/><path d="m431.069 188.112c-1.713 0-3.102 1.389-3.102 3.103 0 1.713 1.389 3.102 3.102 3.102s3.102-1.39 3.102-3.102c0-1.714-1.389-3.103-3.102-3.103z"/><path d="m420.693 204.693c1.713 0 3.102-1.389 3.102-3.103 0-1.713-1.389-3.102-3.102-3.102s-3.102 1.389-3.102 3.102c-.001 1.715 1.388 3.103 3.102 3.103z"/><path d="m431.069 208.112c-1.713 0-3.102 1.389-3.102 3.103 0 1.713 1.389 3.102 3.102 3.102s3.102-1.39 3.102-3.102c0-1.714-1.389-3.103-3.102-3.103z"/><path d="m420.693 224.693c1.713 0 3.102-1.389 3.102-3.103 0-1.713-1.389-3.102-3.102-3.102s-3.102 1.389-3.102 3.102c-.001 1.715 1.388 3.103 3.102 3.103z"/><path d="m431.069 228.112c-1.713 0-3.102 1.389-3.102 3.103 0 1.713 1.389 3.102 3.102 3.102s3.102-1.39 3.102-3.102c0-1.714-1.389-3.103-3.102-3.103z"/><path d="m420.693 244.693c1.713 0 3.102-1.389 3.102-3.103 0-1.713-1.389-3.102-3.102-3.102s-3.102 1.389-3.102 3.102c-.001 1.715 1.388 3.103 3.102 3.103z"/><path d="m431.069 248.112c-1.713 0-3.102 1.389-3.102 3.103 0 1.713 1.389 3.102 3.102 3.102s3.102-1.39 3.102-3.102c0-1.714-1.389-3.103-3.102-3.103z"/><path d="m420.693 264.693c1.713 0 3.102-1.389 3.102-3.103 0-1.713-1.389-3.102-3.102-3.102s-3.102 1.389-3.102 3.102c-.001 1.715 1.388 3.103 3.102 3.103z"/><path d="m431.069 268.112c-1.713 0-3.102 1.389-3.102 3.103 0 1.713 1.389 3.103 3.102 3.103s3.102-1.39 3.102-3.103c0-1.714-1.389-3.103-3.102-3.103z"/><path d="m420.693 284.693c1.713 0 3.102-1.389 3.102-3.103 0-1.713-1.389-3.102-3.102-3.102s-3.102 1.389-3.102 3.102c-.001 1.715 1.388 3.103 3.102 3.103z"/><path d="m431.069 288.112c-1.713 0-3.102 1.389-3.102 3.103 0 1.713 1.389 3.103 3.102 3.103s3.102-1.39 3.102-3.103c0-1.714-1.389-3.103-3.102-3.103z"/><path d="m420.693 304.693c1.713 0 3.102-1.389 3.102-3.103 0-1.713-1.389-3.102-3.102-3.102s-3.102 1.389-3.102 3.102c-.001 1.715 1.388 3.103 3.102 3.103z"/><path d="m431.069 308.112c-1.713 0-3.102 1.389-3.102 3.103 0 1.713 1.389 3.103 3.102 3.103s3.102-1.39 3.102-3.103c0-1.714-1.389-3.103-3.102-3.103z"/><path d="m420.693 324.693c1.713 0 3.102-1.389 3.102-3.103 0-1.713-1.389-3.102-3.102-3.102s-3.102 1.389-3.102 3.102c-.001 1.715 1.388 3.103 3.102 3.103z"/><path d="m431.069 328.112c-1.713 0-3.102 1.389-3.102 3.103 0 1.713 1.389 3.103 3.102 3.103s3.102-1.39 3.102-3.103c0-1.714-1.389-3.103-3.102-3.103z"/><path d="m420.693 344.693c1.713 0 3.102-1.389 3.102-3.103 0-1.713-1.389-3.102-3.102-3.102s-3.102 1.389-3.102 3.102c-.001 1.715 1.388 3.103 3.102 3.103z"/><path d="m431.069 348.112c-1.713 0-3.102 1.389-3.102 3.103 0 1.713 1.389 3.103 3.102 3.103s3.102-1.39 3.102-3.103c0-1.714-1.389-3.103-3.102-3.103z"/><path d="m420.693 364.693c1.713 0 3.102-1.389 3.102-3.103 0-1.713-1.389-3.102-3.102-3.102s-3.102 1.389-3.102 3.102c-.001 1.715 1.388 3.103 3.102 3.103z"/><path d="m431.069 368.112c-1.713 0-3.102 1.389-3.102 3.103 0 1.713 1.389 3.103 3.102 3.103s3.102-1.39 3.102-3.103c0-1.714-1.389-3.103-3.102-3.103z"/><path d="m420.693 384.693c1.713 0 3.102-1.389 3.102-3.103 0-1.713-1.389-3.102-3.102-3.102s-3.102 1.389-3.102 3.102c-.001 1.715 1.388 3.103 3.102 3.103z"/><path d="m431.069 388.112c-1.713 0-3.102 1.389-3.102 3.103 0 1.713 1.389 3.103 3.102 3.103s3.102-1.39 3.102-3.103c0-1.714-1.389-3.103-3.102-3.103z"/><path d="m420.693 404.693c1.713 0 3.102-1.389 3.102-3.103 0-1.713-1.389-3.102-3.102-3.102s-3.102 1.389-3.102 3.102c-.001 1.715 1.388 3.103 3.102 3.103z"/><path d="m431.069 408.112c-1.713 0-3.102 1.389-3.102 3.103 0 1.713 1.389 3.103 3.102 3.103s3.102-1.39 3.102-3.103c0-1.714-1.389-3.103-3.102-3.103z"/><path d="m420.693 424.693c1.713 0 3.102-1.389 3.102-3.103 0-1.713-1.389-3.102-3.102-3.102s-3.102 1.389-3.102 3.102c-.001 1.715 1.388 3.103 3.102 3.103z"/><path d="m431.069 428.112c-1.713 0-3.102 1.389-3.102 3.103 0 1.713 1.389 3.103 3.102 3.103s3.102-1.39 3.102-3.103c0-1.714-1.389-3.103-3.102-3.103z"/><path d="m420.693 444.693c1.713 0 3.102-1.389 3.102-3.103 0-1.713-1.389-3.102-3.102-3.102s-3.102 1.389-3.102 3.102c-.001 1.715 1.388 3.103 3.102 3.103z"/><path d="m431.069 448.112c-1.713 0-3.102 1.389-3.102 3.103 0 1.713 1.389 3.103 3.102 3.103s3.102-1.39 3.102-3.103c0-1.714-1.389-3.103-3.102-3.103z"/><path d="m420.693 464.693c1.713 0 3.102-1.389 3.102-3.103 0-1.713-1.389-3.102-3.102-3.102s-3.102 1.389-3.102 3.102c-.001 1.715 1.388 3.103 3.102 3.103z"/><path d="m431.069 468.112c-1.713 0-3.102 1.389-3.102 3.103 0 1.713 1.389 3.103 3.102 3.103s3.102-1.39 3.102-3.103c0-1.714-1.389-3.103-3.102-3.103z"/><path d="m420.693 484.693c1.713 0 3.102-1.389 3.102-3.103 0-1.713-1.389-3.102-3.102-3.102s-3.102 1.389-3.102 3.102c-.001 1.715 1.388 3.103 3.102 3.103z"/><path d="m431.069 494.317c1.713 0 3.102-1.39 3.102-3.103 0-1.714-1.389-3.103-3.102-3.103s-3.102 1.389-3.102 3.103 1.389 3.103 3.102 3.103z"/><path d="m420.693 504.693c1.713 0 3.102-1.389 3.102-3.103 0-1.713-1.389-3.102-3.102-3.102s-3.102 1.389-3.102 3.102c-.001 1.715 1.388 3.103 3.102 3.103z"/><path d="m397.59 141.591c0 1.714 1.389 3.103 3.102 3.103 1.083 0 2.035-.558 2.59-1.399-1.606-1.196-3.191-2.505-4.732-3.939-.589.564-.96 1.355-.96 2.235z"/><path d="m407.967 151.215c0 1.713 1.389 3.102 3.102 3.102s3.102-1.39 3.102-3.102c0-.613-.184-1.182-.491-1.662-.924-.444-1.858-.912-2.801-1.421-1.623.1-2.912 1.434-2.912 3.083z"/><path d="m400.693 164.693c1.713 0 3.102-1.389 3.102-3.103 0-1.713-1.389-3.102-3.102-3.102s-3.102 1.389-3.102 3.102c-.001 1.715 1.388 3.103 3.102 3.103z"/><path d="m411.069 168.112c-1.713 0-3.102 1.389-3.102 3.103 0 1.713 1.389 3.102 3.102 3.102s3.102-1.39 3.102-3.102c0-1.714-1.389-3.103-3.102-3.103z"/><path d="m400.693 184.693c1.713 0 3.102-1.389 3.102-3.103 0-1.713-1.389-3.102-3.102-3.102s-3.102 1.389-3.102 3.102c-.001 1.715 1.388 3.103 3.102 3.103z"/><path d="m411.069 188.112c-1.713 0-3.102 1.389-3.102 3.103 0 1.713 1.389 3.102 3.102 3.102s3.102-1.39 3.102-3.102c0-1.714-1.389-3.103-3.102-3.103z"/><path d="m400.693 204.693c1.713 0 3.102-1.389 3.102-3.103 0-1.713-1.389-3.102-3.102-3.102s-3.102 1.389-3.102 3.102c-.001 1.715 1.388 3.103 3.102 3.103z"/><path d="m411.069 208.112c-1.713 0-3.102 1.389-3.102 3.103 0 1.713 1.389 3.102 3.102 3.102s3.102-1.39 3.102-3.102c0-1.714-1.389-3.103-3.102-3.103z"/><path d="m400.693 224.693c1.713 0 3.102-1.389 3.102-3.103 0-1.713-1.389-3.102-3.102-3.102s-3.102 1.389-3.102 3.102c-.001 1.715 1.388 3.103 3.102 3.103z"/><path d="m411.069 228.112c-1.713 0-3.102 1.389-3.102 3.103 0 1.713 1.389 3.102 3.102 3.102s3.102-1.39 3.102-3.102c0-1.714-1.389-3.103-3.102-3.103z"/><path d="m400.693 244.693c1.713 0 3.102-1.389 3.102-3.103 0-1.713-1.389-3.102-3.102-3.102s-3.102 1.389-3.102 3.102c-.001 1.715 1.388 3.103 3.102 3.103z"/><path d="m411.069 248.112c-1.713 0-3.102 1.389-3.102 3.103 0 1.713 1.389 3.102 3.102 3.102s3.102-1.39 3.102-3.102c0-1.714-1.389-3.103-3.102-3.103z"/><path d="m400.693 264.693c1.713 0 3.102-1.389 3.102-3.103 0-1.713-1.389-3.102-3.102-3.102-1.028 0-1.931.505-2.496 1.274l.213 3.912c.567.623 1.375 1.019 2.283 1.019z"/><path d="m411.069 268.112c-1.713 0-3.102 1.389-3.102 3.103 0 1.713 1.389 3.103 3.102 3.103s3.102-1.39 3.102-3.103c0-1.714-1.389-3.103-3.102-3.103z"/><path d="m400.693 278.489c-.53 0-1.021.145-1.457.379l.304 5.599c.357.144.745.227 1.153.227 1.713 0 3.102-1.389 3.102-3.103 0-1.713-1.389-3.102-3.102-3.102z"/><path d="m411.069 288.112c-1.713 0-3.102 1.389-3.102 3.103 0 1.713 1.389 3.103 3.102 3.103s3.102-1.39 3.102-3.103c0-1.714-1.389-3.103-3.102-3.103z"/><path d="m400.693 298.489c-.133 0-.26.022-.388.039l.335 6.16c.018 0 .035.005.053.005 1.713 0 3.102-1.389 3.102-3.103 0-1.712-1.389-3.101-3.102-3.101z"/><path d="m411.069 308.112c-1.713 0-3.102 1.389-3.102 3.103 0 1.713 1.389 3.103 3.102 3.103s3.102-1.39 3.102-3.103c0-1.714-1.389-3.103-3.102-3.103z"/><path d="m401.394 318.576.322 5.931c1.207-.425 2.078-1.563 2.078-2.916.001-1.471-1.026-2.696-2.4-3.015z"/><path d="m411.069 328.112c-1.713 0-3.102 1.389-3.102 3.103 0 1.713 1.389 3.103 3.102 3.103s3.102-1.39 3.102-3.103c0-1.714-1.389-3.103-3.102-3.103z"/><path d="m402.509 339.087.26 4.794c.625-.567 1.025-1.379 1.025-2.29.001-1.032-.509-1.941-1.285-2.504z"/><path d="m411.069 348.112c-1.713 0-3.102 1.389-3.102 3.103 0 1.713 1.389 3.103 3.102 3.103s3.102-1.39 3.102-3.103c0-1.714-1.389-3.103-3.102-3.103z"/><path d="m403.692 360.838.062 1.151c.017-.132.04-.262.04-.398.001-.261-.041-.511-.102-.753z"/><path d="m411.069 368.112c-1.713 0-3.102 1.389-3.102 3.103 0 1.713 1.389 3.103 3.102 3.103s3.102-1.39 3.102-3.103c0-1.714-1.389-3.103-3.102-3.103z"/><path d="m411.069 388.112c-1.713 0-3.102 1.389-3.102 3.103 0 1.713 1.389 3.103 3.102 3.103s3.102-1.39 3.102-3.103c0-1.714-1.389-3.103-3.102-3.103z"/><path d="m411.069 408.112c-1.713 0-3.102 1.389-3.102 3.103 0 1.713 1.389 3.103 3.102 3.103s3.102-1.39 3.102-3.103c0-1.714-1.389-3.103-3.102-3.103z"/><path d="m411.069 428.112c-1.713 0-3.102 1.389-3.102 3.103 0 1.713 1.389 3.103 3.102 3.103s3.102-1.39 3.102-3.103c0-1.714-1.389-3.103-3.102-3.103z"/><path d="m411.069 448.112c-1.713 0-3.102 1.389-3.102 3.103 0 1.713 1.389 3.103 3.102 3.103s3.102-1.39 3.102-3.103c0-1.714-1.389-3.103-3.102-3.103z"/><path d="m400.693 458.489c-1.713 0-3.102 1.389-3.102 3.102 0 1.714 1.389 3.103 3.102 3.103s3.102-1.389 3.102-3.103c0-1.713-1.389-3.102-3.102-3.102z"/><path d="m411.069 468.112c-1.713 0-3.102 1.389-3.102 3.103 0 1.713 1.389 3.103 3.102 3.103s3.102-1.39 3.102-3.103c0-1.714-1.389-3.103-3.102-3.103z"/><path d="m400.693 478.489c-1.713 0-3.102 1.389-3.102 3.102 0 1.714 1.389 3.103 3.102 3.103s3.102-1.389 3.102-3.103c0-1.713-1.389-3.102-3.102-3.102z"/><path d="m411.069 488.112c-1.713 0-3.102 1.389-3.102 3.103 0 1.713 1.389 3.103 3.102 3.103s3.102-1.39 3.102-3.103c0-1.714-1.389-3.103-3.102-3.103z"/><path d="m400.693 498.489c-1.713 0-3.102 1.389-3.102 3.102 0 1.714 1.389 3.103 3.102 3.103s3.102-1.389 3.102-3.103c0-1.713-1.389-3.102-3.102-3.102z"/><path d="m391.19 130.896.184 3.39c.679-.067 1.292-.347 1.77-.78-.667-.842-1.324-1.704-1.954-2.61z"/><path d="m392.137 148.312.308 5.669c1.02-.508 1.726-1.55 1.726-2.767 0-1.336-.849-2.465-2.034-2.902z"/><path d="m393.263 169.021.224 4.115c.422-.529.685-1.191.685-1.922-.001-.856-.348-1.631-.909-2.193z"/><path d="m391.069 468.112c-1.713 0-3.102 1.389-3.102 3.103 0 1.713 1.389 3.103 3.102 3.103s3.102-1.39 3.102-3.103c0-1.714-1.389-3.103-3.102-3.103z"/><path d="m380.693 478.489c-1.713 0-3.102 1.389-3.102 3.102 0 1.714 1.389 3.103 3.102 3.103s3.102-1.389 3.102-3.103c0-1.713-1.389-3.102-3.102-3.102z"/><path d="m391.069 488.112c-1.713 0-3.102 1.389-3.102 3.103 0 1.713 1.389 3.103 3.102 3.103s3.102-1.39 3.102-3.103c0-1.714-1.389-3.103-3.102-3.103z"/><path d="m380.693 498.489c-1.713 0-3.102 1.389-3.102 3.102 0 1.714 1.389 3.103 3.102 3.103s3.102-1.389 3.102-3.103c0-1.713-1.389-3.102-3.102-3.102z"/><path d="m361.314 464.631-1.265-.006c.208.044.423.068.644.068.212 0 .42-.021.621-.062z"/><path d="m371.069 468.112c-1.713 0-3.102 1.389-3.102 3.103 0 1.713 1.389 3.103 3.102 3.103s3.102-1.39 3.102-3.103c0-1.714-1.389-3.103-3.102-3.103z"/><path d="m360.693 478.489c-1.713 0-3.102 1.389-3.102 3.102 0 1.714 1.389 3.103 3.102 3.103s3.102-1.389 3.102-3.103c0-1.713-1.389-3.102-3.102-3.102z"/><path d="m371.069 488.112c-1.713 0-3.102 1.389-3.102 3.103 0 1.713 1.389 3.103 3.102 3.103s3.102-1.39 3.102-3.103c0-1.714-1.389-3.103-3.102-3.103z"/><path d="m360.693 498.489c-1.713 0-3.102 1.389-3.102 3.102 0 1.714 1.389 3.103 3.102 3.103s3.102-1.389 3.102-3.103c0-1.713-1.389-3.102-3.102-3.102z"/><path d="m341.626 464.535-1.897-.01c.305.101.625.168.963.168.328 0 .638-.064.934-.158z"/><path d="m351.069 468.112c-1.713 0-3.102 1.389-3.102 3.103 0 1.713 1.389 3.103 3.102 3.103s3.102-1.39 3.102-3.103c0-1.714-1.389-3.103-3.102-3.103z"/><path d="m340.693 478.489c-1.713 0-3.102 1.389-3.102 3.102 0 1.714 1.389 3.103 3.102 3.103s3.102-1.389 3.102-3.103c0-1.713-1.389-3.102-3.102-3.102z"/><path d="m351.069 488.112c-1.713 0-3.102 1.389-3.102 3.103 0 1.713 1.389 3.103 3.102 3.103s3.102-1.39 3.102-3.103c0-1.714-1.389-3.103-3.102-3.103z"/><path d="m340.693 498.489c-1.713 0-3.102 1.389-3.102 3.102 0 1.714 1.389 3.103 3.102 3.103s3.102-1.389 3.102-3.103c0-1.713-1.389-3.102-3.102-3.102z"/><path d="m321.921 464.439-2.478-.012c.383.169.805.267 1.25.267.436-.001.851-.092 1.228-.255z"/><path d="m331.069 468.112c-1.713 0-3.102 1.389-3.102 3.103 0 1.713 1.389 3.103 3.102 3.103s3.102-1.39 3.102-3.103c0-1.714-1.389-3.103-3.102-3.103z"/><path d="m320.693 478.489c-1.713 0-3.102 1.389-3.102 3.102 0 1.714 1.389 3.103 3.102 3.103s3.102-1.389 3.102-3.103c0-1.713-1.389-3.102-3.102-3.102z"/><path d="m331.069 488.112c-1.713 0-3.102 1.389-3.102 3.103 0 1.713 1.389 3.103 3.102 3.103s3.102-1.39 3.102-3.103c0-1.714-1.389-3.103-3.102-3.103z"/><path d="m320.693 498.489c-1.713 0-3.102 1.389-3.102 3.102 0 1.714 1.389 3.103 3.102 3.103s3.102-1.389 3.102-3.103c0-1.713-1.389-3.102-3.102-3.102z"/><path d="m302.099 464.342-2.838-.014c.43.226.912.365 1.432.365.509 0 .982-.133 1.406-.351z"/><path d="m311.069 468.112c-1.713 0-3.102 1.389-3.102 3.103 0 1.713 1.389 3.103 3.102 3.103s3.102-1.39 3.102-3.103c0-1.714-1.389-3.103-3.102-3.103z"/><path d="m300.693 478.489c-1.713 0-3.102 1.389-3.102 3.102 0 1.714 1.389 3.103 3.102 3.103s3.102-1.389 3.102-3.103c0-1.713-1.389-3.102-3.102-3.102z"/><path d="m311.069 488.112c-1.713 0-3.102 1.389-3.102 3.103 0 1.713 1.389 3.103 3.102 3.103s3.102-1.39 3.102-3.103c0-1.714-1.389-3.103-3.102-3.103z"/><path d="m300.693 498.489c-1.713 0-3.102 1.389-3.102 3.102 0 1.714 1.389 3.103 3.102 3.103s3.102-1.389 3.102-3.103c0-1.713-1.389-3.102-3.102-3.102z"/><path d="m282.277 464.245-3.198-.016c.471.289 1.02.464 1.613.464.582 0 1.12-.17 1.585-.448z"/><path d="m291.069 468.112c-1.713 0-3.102 1.389-3.102 3.103 0 1.713 1.389 3.103 3.102 3.103s3.102-1.39 3.102-3.103c0-1.714-1.389-3.103-3.102-3.103z"/><path d="m280.693 478.489c-1.713 0-3.102 1.389-3.102 3.102 0 1.714 1.389 3.103 3.102 3.103s3.102-1.389 3.102-3.103c0-1.713-1.389-3.102-3.102-3.102z"/><path d="m291.069 488.112c-1.713 0-3.102 1.389-3.102 3.103 0 1.713 1.389 3.103 3.102 3.103s3.102-1.39 3.102-3.103c0-1.714-1.389-3.103-3.102-3.103z"/><path d="m280.693 498.489c-1.713 0-3.102 1.389-3.102 3.102 0 1.714 1.389 3.103 3.102 3.103s3.102-1.389 3.102-3.103c0-1.713-1.389-3.102-3.102-3.102z"/><path d="m262.446 464.148-3.528-.018c.503.353 1.113.562 1.774.562.652.001 1.255-.201 1.754-.544z"/><path d="m271.069 468.112c-1.713 0-3.102 1.389-3.102 3.103 0 1.713 1.389 3.103 3.102 3.103s3.102-1.39 3.102-3.103c0-1.714-1.389-3.103-3.102-3.103z"/><path d="m260.693 478.489c-1.713 0-3.102 1.389-3.102 3.102 0 1.714 1.389 3.103 3.102 3.103s3.102-1.389 3.102-3.103c0-1.713-1.389-3.102-3.102-3.102z"/><path d="m271.069 488.112c-1.713 0-3.102 1.389-3.102 3.103 0 1.713 1.389 3.103 3.102 3.103s3.102-1.39 3.102-3.103c0-1.714-1.389-3.103-3.102-3.103z"/><path d="m260.693 498.489c-1.713 0-3.102 1.389-3.102 3.102 0 1.714 1.389 3.103 3.102 3.103s3.102-1.389 3.102-3.103c0-1.713-1.389-3.102-3.102-3.102z"/><path d="m242.564 464.051-3.764-.018c.525.407 1.177.66 1.893.66.706 0 1.349-.245 1.871-.642z"/><path d="m251.069 468.112c-1.713 0-3.102 1.389-3.102 3.103 0 1.713 1.389 3.103 3.102 3.103s3.102-1.39 3.102-3.103c0-1.714-1.389-3.103-3.102-3.103z"/><path d="m240.693 478.489c-1.713 0-3.102 1.389-3.102 3.102 0 1.714 1.389 3.103 3.102 3.103s3.102-1.389 3.102-3.103c0-1.713-1.389-3.102-3.102-3.102z"/><path d="m251.069 488.112c-1.713 0-3.102 1.389-3.102 3.103 0 1.713 1.389 3.103 3.102 3.103s3.102-1.39 3.102-3.103c0-1.714-1.389-3.103-3.102-3.103z"/><path d="m240.693 498.489c-1.713 0-3.102 1.389-3.102 3.102 0 1.714 1.389 3.103 3.102 3.103s3.102-1.389 3.102-3.103c0-1.713-1.389-3.102-3.102-3.102z"/><path d="m222.681 463.954-4.001-.02c.543.467 1.24.759 2.012.759.762 0 1.449-.284 1.989-.739z"/><path d="m231.069 468.112c-1.713 0-3.102 1.389-3.102 3.103 0 1.713 1.389 3.103 3.102 3.103s3.102-1.39 3.102-3.103c0-1.714-1.389-3.103-3.102-3.103z"/><path d="m220.693 478.489c-1.713 0-3.102 1.389-3.102 3.102 0 1.714 1.389 3.103 3.102 3.103s3.102-1.389 3.102-3.103c0-1.713-1.389-3.102-3.102-3.102z"/><path d="m231.069 488.112c-1.713 0-3.102 1.389-3.102 3.103 0 1.713 1.389 3.103 3.102 3.103s3.102-1.39 3.102-3.103c0-1.714-1.389-3.103-3.102-3.103z"/><path d="m220.693 498.489c-1.713 0-3.102 1.389-3.102 3.102 0 1.714 1.389 3.103 3.102 3.103s3.102-1.389 3.102-3.103c0-1.713-1.389-3.102-3.102-3.102z"/><path d="m202.799 463.857-4.238-.021c.556.528 1.304.857 2.131.857.816 0 1.553-.321 2.107-.836z"/><path d="m211.069 468.112c-1.713 0-3.102 1.389-3.102 3.103 0 1.713 1.389 3.103 3.102 3.103s3.102-1.39 3.102-3.103c0-1.714-1.389-3.103-3.102-3.103z"/><path d="m200.693 478.489c-1.713 0-3.102 1.389-3.102 3.102 0 1.714 1.389 3.103 3.102 3.103s3.102-1.389 3.102-3.103c0-1.713-1.389-3.102-3.102-3.102z"/><path d="m211.069 488.112c-1.713 0-3.102 1.389-3.102 3.103 0 1.713 1.389 3.103 3.102 3.103s3.102-1.39 3.102-3.103c0-1.714-1.389-3.103-3.102-3.103z"/><path d="m200.693 498.489c-1.713 0-3.102 1.389-3.102 3.102 0 1.714 1.389 3.103 3.102 3.103s3.102-1.389 3.102-3.103c0-1.713-1.389-3.102-3.102-3.102z"/><path d="m180.693 464.693c.868 0 1.651-.358 2.214-.934l-4.447-.021c.565.587 1.354.955 2.233.955z"/><path d="m191.069 468.112c-1.713 0-3.102 1.389-3.102 3.103 0 1.713 1.389 3.103 3.102 3.103s3.102-1.39 3.102-3.103c0-1.714-1.389-3.103-3.102-3.103z"/><path d="m180.693 478.489c-1.713 0-3.102 1.389-3.102 3.102 0 1.714 1.389 3.103 3.102 3.103s3.102-1.389 3.102-3.103c0-1.713-1.389-3.102-3.102-3.102z"/><path d="m191.069 488.112c-1.713 0-3.102 1.389-3.102 3.103 0 1.713 1.389 3.103 3.102 3.103s3.102-1.39 3.102-3.103c0-1.714-1.389-3.103-3.102-3.103z"/><path d="m180.693 498.489c-1.713 0-3.102 1.389-3.102 3.102 0 1.714 1.389 3.103 3.102 3.103s3.102-1.389 3.102-3.103c0-1.713-1.389-3.102-3.102-3.102z"/><path d="m160.693 464.693c.914 0 1.727-.402 2.294-1.031l-4.607-.022c.568.641 1.388 1.053 2.313 1.053z"/><path d="m171.069 468.112c-1.713 0-3.102 1.389-3.102 3.103 0 1.713 1.389 3.103 3.102 3.103s3.102-1.39 3.102-3.103c0-1.714-1.389-3.103-3.102-3.103z"/><path d="m160.693 478.489c-1.713 0-3.102 1.389-3.102 3.102 0 1.714 1.389 3.103 3.102 3.103s3.102-1.389 3.102-3.103c0-1.713-1.389-3.102-3.102-3.102z"/><path d="m171.069 488.112c-1.713 0-3.102 1.389-3.102 3.103 0 1.713 1.389 3.103 3.102 3.103s3.102-1.39 3.102-3.103c0-1.714-1.389-3.103-3.102-3.103z"/><path d="m160.693 498.489c-1.713 0-3.102 1.389-3.102 3.102 0 1.714 1.389 3.103 3.102 3.103s3.102-1.389 3.102-3.103c0-1.713-1.389-3.102-3.102-3.102z"/><path d="m140.693 464.693c.959 0 1.806-.444 2.375-1.128l-4.769-.023c.568.697 1.424 1.151 2.394 1.151z"/><path d="m151.069 468.112c-1.713 0-3.102 1.389-3.102 3.103 0 1.713 1.389 3.103 3.102 3.103s3.102-1.39 3.102-3.103c0-1.714-1.389-3.103-3.102-3.103z"/><path d="m140.693 478.489c-1.713 0-3.102 1.389-3.102 3.102 0 1.714 1.389 3.103 3.102 3.103s3.102-1.389 3.102-3.103c0-1.713-1.389-3.102-3.102-3.102z"/><path d="m151.069 488.112c-1.713 0-3.102 1.389-3.102 3.103 0 1.713 1.389 3.103 3.102 3.103s3.102-1.39 3.102-3.103c0-1.714-1.389-3.103-3.102-3.103z"/><path d="m140.693 498.489c-1.713 0-3.102 1.389-3.102 3.102 0 1.714 1.389 3.103 3.102 3.103s3.102-1.389 3.102-3.103c0-1.713-1.389-3.102-3.102-3.102z"/><path d="m120.693 464.693c1.004 0 1.888-.485 2.455-1.226l-4.93-.023c.566.754 1.459 1.249 2.475 1.249z"/><path d="m131.069 468.112c-1.713 0-3.102 1.389-3.102 3.103 0 1.713 1.389 3.103 3.102 3.103s3.102-1.39 3.102-3.103c0-1.714-1.389-3.103-3.102-3.103z"/><path d="m120.693 478.489c-1.713 0-3.102 1.389-3.102 3.102 0 1.714 1.389 3.103 3.102 3.103s3.102-1.389 3.102-3.103c0-1.713-1.389-3.102-3.102-3.102z"/><path d="m131.069 488.112c-1.713 0-3.102 1.389-3.102 3.103 0 1.713 1.389 3.103 3.102 3.103s3.102-1.39 3.102-3.103c0-1.714-1.389-3.103-3.102-3.103z"/><path d="m120.693 498.489c-1.713 0-3.102 1.389-3.102 3.102 0 1.714 1.389 3.103 3.102 3.103s3.102-1.389 3.102-3.103c0-1.713-1.389-3.102-3.102-3.102z"/><path d="m100.693 464.693c1.05 0 1.974-.524 2.535-1.322l-5.091-.025c.559.813 1.494 1.347 2.556 1.347z"/><path d="m111.069 468.112c-1.713 0-3.102 1.389-3.102 3.103 0 1.713 1.389 3.103 3.102 3.103s3.102-1.39 3.102-3.103c0-1.714-1.389-3.103-3.102-3.103z"/><path d="m100.693 478.489c-1.713 0-3.102 1.389-3.102 3.102 0 1.714 1.389 3.103 3.102 3.103s3.102-1.389 3.102-3.103c0-1.713-1.389-3.102-3.102-3.102z"/><path d="m111.069 488.112c-1.713 0-3.102 1.389-3.102 3.103 0 1.713 1.389 3.103 3.102 3.103s3.102-1.39 3.102-3.103c0-1.714-1.389-3.103-3.102-3.103z"/><path d="m100.693 498.489c-1.713 0-3.102 1.389-3.102 3.102 0 1.714 1.389 3.103 3.102 3.103s3.102-1.389 3.102-3.103c0-1.713-1.389-3.102-3.102-3.102z"/><path d="m80.693 464.693c1.092 0 2.048-.567 2.601-1.42l-5.215-.025c.549.866 1.511 1.445 2.614 1.445z"/><path d="m87.967 471.215c0 1.713 1.389 3.103 3.102 3.103s3.102-1.39 3.102-3.103c0-1.714-1.389-3.103-3.102-3.103s-3.102 1.389-3.102 3.103z"/><path d="m80.693 478.489c-1.713 0-3.102 1.389-3.102 3.102 0 1.714 1.389 3.103 3.102 3.103s3.102-1.389 3.102-3.103c0-1.713-1.389-3.102-3.102-3.102z"/><path d="m91.069 494.317c1.713 0 3.102-1.39 3.102-3.103 0-1.714-1.389-3.103-3.102-3.103s-3.102 1.389-3.102 3.103 1.389 3.103 3.102 3.103z"/><path d="m83.795 501.591c0-1.713-1.389-3.102-3.102-3.102s-3.102 1.389-3.102 3.102c0 1.714 1.389 3.103 3.102 3.103 1.713-.001 3.102-1.389 3.102-3.103z"/><path d="m63.346 463.176-1.333-.006-.069 1.256c.589-.261 1.074-.701 1.402-1.25z"/><path d="m71.069 468.112c-1.713 0-3.102 1.389-3.102 3.103 0 1.713 1.389 3.103 3.102 3.103s3.102-1.39 3.102-3.103c0-1.714-1.389-3.103-3.102-3.103z"/><path d="m63.795 481.591c0-1.546-1.134-2.817-2.614-3.053-.089 2.056.064 4.064.43 6.001 1.262-.392 2.184-1.557 2.184-2.948z"/><path d="m71.069 488.112c-1.713 0-3.102 1.389-3.102 3.103 0 1.713 1.389 3.103 3.102 3.103s3.102-1.39 3.102-3.103c0-1.714-1.389-3.103-3.102-3.103z"/></g><path d="m343.167 377.412h-172.986c-11.424 0-20.685-9.261-20.685-20.685v-130.88c0-11.424 9.261-20.685 20.685-20.685h172.986c11.424 0 20.685 9.261 20.685 20.685v130.88c0 11.424-9.261 20.685-20.685 20.685z" fill="#f9fbfc"/><g fill="#31373d"><path d="m345.818 381.615h-178.288c-12.261 0-22.236-9.975-22.236-22.236v-136.183c0-12.261 9.975-22.236 22.236-22.236h178.288c12.261 0 22.236 9.975 22.236 22.236v136.183c0 12.26-9.975 22.236-22.236 22.236zm-178.288-172.251c-7.627 0-13.832 6.205-13.832 13.832v136.183c0 7.627 6.205 13.832 13.832 13.832h178.288c7.627 0 13.832-6.205 13.832-13.832v-136.183c0-7.627-6.205-13.832-13.832-13.832z"/><path d="m277.952 291.287c6.947-5.99 11.357-14.844 11.357-24.714 0-17.995-14.64-32.635-32.635-32.635-15.56 0-29.028 11.068-32.023 26.318-.843 4.293 1.953 8.456 6.246 9.3 4.294.84 8.457-1.954 9.3-6.247 1.54-7.838 8.469-13.528 16.477-13.528 9.259 0 16.792 7.533 16.792 16.791 0 9.26-7.533 16.792-16.792 16.792-4.375 0-7.922 3.546-7.922 7.922s3.547 7.922 7.922 7.922c9.259 0 16.792 7.533 16.792 16.792s-7.533 16.791-16.792 16.791c-8.332 0-15.481-6.207-16.63-14.44-.108-.773-.162-1.564-.162-2.352 0-4.375-3.547-7.922-7.922-7.922s-7.922 3.546-7.922 7.922c0 1.518.106 3.047.315 4.542 2.235 16.016 16.13 28.093 32.321 28.093 17.996 0 32.635-14.64 32.635-32.635 0-9.868-4.41-18.722-11.357-24.712z"/><path d="m423.972 511.622c-.051 0-.103 0-.155 0l-336.313-.03c-8.513-.042-16.417-3.477-22.255-9.674-5.838-6.196-8.797-14.289-8.332-22.79l17.717-323.812c.122-2.228 1.964-3.983 4.196-3.973 12.643.061 43.208-3.447 47.473-55.274s7.67-92.216 7.67-92.216c.182-2.178 2.002-3.853 4.188-3.853h59.459c1.125 0 2.203.451 2.993 1.253.79.801 1.226 1.886 1.209 3.01l-.015.751c-.008.366-.017.733-.017 1.102 0 46.228 24.62 83.838 54.883 83.838s54.884-37.609 54.884-83.838c0-.366-.009-.729-.018-1.094l-.015-.759c-.015-1.125.42-2.209 1.21-3.01.79-.802 1.867-1.253 2.993-1.253h55.93c2.152 0 3.957 1.626 4.18 3.767 0 0 7.861 92.122 7.883 92.266 7.449 48.311 47.707 55.108 49.665 55.338 2.03.239 3.602 1.905 3.713 3.947l17.607 323.851c.466 8.555-2.531 16.685-8.438 22.892-5.872 6.169-13.785 9.561-22.295 9.561zm-341.156-352.008-17.506 319.973c-.338 6.179 1.813 12.063 6.057 16.567 4.244 4.505 9.99 7.002 16.179 7.033l336.312.03h.113c6.186 0 11.939-2.465 16.208-6.952 4.294-4.512 6.473-10.422 6.134-16.641l-17.426-320.504c-4.979-1.023-14.613-4.756-24.186-10.809-12.648-7.999-25.432-22.632-29.395-52.02l-7.438-87.886h-47.925c-.389 23.487-6.746 45.537-18 62.306-11.966 17.829-28.042 27.647-45.27 27.647-17.227 0-33.304-9.818-45.269-27.647-11.254-16.769-17.611-38.819-18-62.306h-51.377s-2.691 33.304-6.978 89.029c-4.286 55.724-36.099 61.125-52.233 62.18z"/></g></g></svg>