<svg id="Capa_1" enable-background="new 0 0 512 512" height="512" viewBox="0 0 512 512" width="512" xmlns="http://www.w3.org/2000/svg"><g><path d="m178.206 508c-28.343 0-51.319-22.976-51.319-51.319v-401.362c-.001-28.343 22.976-51.319 51.319-51.319 28.343 0 51.319 22.976 51.319 51.319v401.362c0 28.342-22.977 51.319-51.319 51.319z" fill="#f9fbfc"/><path d="m316.078 508c-28.343 0-51.319-22.976-51.319-51.319v-401.362c0-28.343 22.976-51.319 51.319-51.319 28.343 0 51.319 22.976 51.319 51.319v401.362c0 28.342-22.976 51.319-51.319 51.319z" fill="#f9fbfc"/><g fill="#eaa895"><path d="m214.352 18.896c-.752-.747-1.533-1.462-2.331-2.162.323 1.087 1.209 1.93 2.331 2.162z"/><path d="m214.984 38.961c1.713 0 3.102-1.389 3.102-3.102s-1.389-3.103-3.102-3.103-3.102 1.389-3.102 3.103c-.001 1.713 1.388 3.102 3.102 3.102z"/><path d="m225.36 48.585c1.713 0 3.102-1.389 3.102-3.102s-1.389-3.103-3.102-3.103-3.102 1.389-3.102 3.103c0 1.713 1.389 3.102 3.102 3.102z"/><path d="m214.984 58.961c1.713 0 3.102-1.389 3.102-3.102s-1.389-3.103-3.102-3.103-3.102 1.389-3.102 3.103c-.001 1.713 1.388 3.102 3.102 3.102z"/><path d="m225.36 68.585c1.713 0 3.102-1.389 3.102-3.102s-1.389-3.103-3.102-3.103-3.102 1.389-3.102 3.103c0 1.713 1.389 3.102 3.102 3.102z"/><path d="m214.984 78.961c1.713 0 3.102-1.389 3.102-3.102s-1.389-3.103-3.102-3.103-3.102 1.389-3.102 3.103 1.388 3.102 3.102 3.102z"/><path d="m225.36 88.585c1.713 0 3.102-1.389 3.102-3.102s-1.389-3.103-3.102-3.103-3.102 1.389-3.102 3.103c0 1.713 1.389 3.102 3.102 3.102z"/><path d="m214.984 98.961c1.713 0 3.102-1.389 3.102-3.102s-1.389-3.103-3.102-3.103-3.102 1.389-3.102 3.103 1.388 3.102 3.102 3.102z"/><path d="m225.36 108.585c1.713 0 3.102-1.389 3.102-3.102s-1.389-3.103-3.102-3.103-3.102 1.389-3.102 3.103c0 1.713 1.389 3.102 3.102 3.102z"/><path d="m214.984 118.961c1.713 0 3.102-1.389 3.102-3.102s-1.389-3.103-3.102-3.103-3.102 1.389-3.102 3.103 1.388 3.102 3.102 3.102z"/><path d="m225.36 128.585c1.713 0 3.102-1.389 3.102-3.102s-1.389-3.103-3.102-3.103-3.102 1.389-3.102 3.103c0 1.713 1.389 3.102 3.102 3.102z"/><path d="m225.36 148.585c1.713 0 3.102-1.389 3.102-3.102s-1.389-3.103-3.102-3.103-3.102 1.389-3.102 3.103c0 1.713 1.389 3.102 3.102 3.102z"/><path d="m214.984 218.961c1.713 0 3.102-1.389 3.102-3.102s-1.389-3.102-3.102-3.102-3.102 1.389-3.102 3.102c-.001 1.713 1.388 3.102 3.102 3.102z"/><path d="m225.36 228.585c1.713 0 3.102-1.389 3.102-3.102s-1.389-3.103-3.102-3.103-3.102 1.389-3.102 3.103c0 1.713 1.389 3.102 3.102 3.102z"/><path d="m214.984 238.961c1.713 0 3.102-1.389 3.102-3.102s-1.389-3.102-3.102-3.102-3.102 1.389-3.102 3.102c-.001 1.713 1.388 3.102 3.102 3.102z"/><path d="m225.36 248.585c1.713 0 3.102-1.389 3.102-3.102s-1.389-3.103-3.102-3.103-3.102 1.389-3.102 3.103c0 1.713 1.389 3.102 3.102 3.102z"/><path d="m214.984 258.961c1.713 0 3.102-1.389 3.102-3.102s-1.389-3.102-3.102-3.102-3.102 1.389-3.102 3.102 1.388 3.102 3.102 3.102z"/><path d="m225.36 268.585c1.713 0 3.102-1.389 3.102-3.102s-1.389-3.103-3.102-3.103-3.102 1.389-3.102 3.103c0 1.713 1.389 3.102 3.102 3.102z"/><path d="m214.984 278.961c1.713 0 3.102-1.389 3.102-3.102s-1.389-3.103-3.102-3.103-3.102 1.389-3.102 3.103c-.001 1.713 1.388 3.102 3.102 3.102z"/><path d="m225.36 288.585c1.713 0 3.102-1.389 3.102-3.102s-1.389-3.103-3.102-3.103-3.102 1.389-3.102 3.103c0 1.713 1.389 3.102 3.102 3.102z"/><path d="m214.984 298.961c1.713 0 3.102-1.389 3.102-3.102s-1.389-3.103-3.102-3.103-3.102 1.389-3.102 3.103c-.001 1.713 1.388 3.102 3.102 3.102z"/><path d="m225.36 308.585c1.713 0 3.102-1.389 3.102-3.102s-1.389-3.103-3.102-3.103-3.102 1.389-3.102 3.103c0 1.713 1.389 3.102 3.102 3.102z"/><path d="m214.984 318.961c1.713 0 3.102-1.389 3.102-3.102s-1.389-3.103-3.102-3.103-3.102 1.389-3.102 3.103c-.001 1.713 1.388 3.102 3.102 3.102z"/><path d="m225.36 328.585c1.713 0 3.102-1.389 3.102-3.102s-1.389-3.103-3.102-3.103-3.102 1.389-3.102 3.103c0 1.713 1.389 3.102 3.102 3.102z"/><path d="m214.984 338.961c1.713 0 3.102-1.389 3.102-3.102s-1.389-3.103-3.102-3.103-3.102 1.389-3.102 3.103c-.001 1.713 1.388 3.102 3.102 3.102z"/><path d="m225.36 348.585c1.713 0 3.102-1.389 3.102-3.102s-1.389-3.103-3.102-3.103-3.102 1.389-3.102 3.103c0 1.713 1.389 3.102 3.102 3.102z"/><path d="m214.984 358.961c1.713 0 3.102-1.389 3.102-3.102s-1.389-3.103-3.102-3.103-3.102 1.389-3.102 3.103c-.001 1.713 1.388 3.102 3.102 3.102z"/><path d="m225.36 368.585c1.713 0 3.102-1.389 3.102-3.102s-1.389-3.103-3.102-3.103-3.102 1.389-3.102 3.103c0 1.713 1.389 3.102 3.102 3.102z"/><path d="m214.984 378.961c1.713 0 3.102-1.389 3.102-3.102s-1.389-3.103-3.102-3.103-3.102 1.389-3.102 3.103c-.001 1.713 1.388 3.102 3.102 3.102z"/><path d="m225.36 388.585c1.713 0 3.102-1.389 3.102-3.102s-1.389-3.103-3.102-3.103-3.102 1.389-3.102 3.103c0 1.713 1.389 3.102 3.102 3.102z"/><path d="m228.462 405.483c0-1.713-1.389-3.103-3.102-3.103-1.423 0-2.61.964-2.975 2.271l-6.075-5.998c1.047-.498 1.776-1.557 1.776-2.794 0-1.713-1.389-3.103-3.102-3.103-1.251 0-2.322.744-2.812 1.81l-6.137-6.06c1.388-.308 2.428-1.543 2.428-3.024 0-1.713-1.389-3.103-3.102-3.103-.198 0-.39.023-.577.059v4.832l-78.331-77.346v53.183l78.331 79.809v5.609c.188.035.38.058.577.058 1.361 0 2.505-.882 2.923-2.102l6.206 6.323c-1.477.238-2.608 1.509-2.608 3.053 0 1.713 1.389 3.102 3.102 3.102 1.523 0 2.784-1.1 3.046-2.547l6.104 6.22c-1.103.476-1.876 1.571-1.876 2.849 0 1.713 1.389 3.102 3.102 3.102 1.257 0 2.335-.751 2.822-1.827l1.393 1.418v-56.425l-3.346-3.305c1.287-.375 2.233-1.551 2.233-2.961z"/><path d="m214.984 472.757c-1.713 0-3.102 1.389-3.102 3.103 0 1.713 1.389 3.102 3.102 3.102s3.102-1.389 3.102-3.102c0-1.714-1.389-3.103-3.102-3.103z"/><path d="m211.934 495.342c.939-.82 1.855-1.667 2.732-2.553-1.39.143-2.503 1.191-2.732 2.553z"/><path d="m194.984 18.961c1.713 0 3.102-1.389 3.102-3.102s-1.389-3.102-3.102-3.102-3.102 1.389-3.102 3.102 1.388 3.102 3.102 3.102z"/><path d="m205.36 28.585c1.713 0 3.102-1.389 3.102-3.102s-1.389-3.103-3.102-3.103-3.102 1.389-3.102 3.103c0 1.713 1.389 3.102 3.102 3.102z"/><path d="m205.36 42.38c-.784 0-1.492.301-2.038.781.417 1.712.753 3.455.992 5.23.328.118.677.194 1.046.194 1.713 0 3.102-1.389 3.102-3.102 0-1.714-1.389-3.103-3.102-3.103z"/><path d="m205.36 62.38c-.198 0-.39.023-.577.059v6.088c.188.035.38.058.577.058 1.713 0 3.102-1.389 3.102-3.102 0-1.714-1.389-3.103-3.102-3.103z"/><path d="m205.36 82.38c-.198 0-.39.023-.577.059v6.088c.188.035.38.058.577.058 1.713 0 3.102-1.389 3.102-3.102 0-1.714-1.389-3.103-3.102-3.103z"/><path d="m205.36 102.38c-.198 0-.39.023-.577.059v6.088c.188.035.38.058.577.058 1.713 0 3.102-1.389 3.102-3.102 0-1.714-1.389-3.103-3.102-3.103z"/><path d="m205.36 122.38c-.198 0-.39.023-.577.059v6.088c.188.035.38.058.577.058 1.713 0 3.102-1.389 3.102-3.102 0-1.714-1.389-3.103-3.102-3.103z"/><path d="m208.462 205.483c0-1.713-1.389-3.103-3.102-3.103-.198 0-.39.023-.577.059v6.088c.188.035.38.058.577.058 1.713 0 3.102-1.389 3.102-3.102z"/><path d="m204.783 228.527c.188.035.38.058.577.058 1.713 0 3.102-1.389 3.102-3.102s-1.389-3.103-3.102-3.103c-.198 0-.39.023-.577.059z"/><path d="m204.783 248.527c.188.035.38.058.577.058 1.713 0 3.102-1.389 3.102-3.102s-1.389-3.103-3.102-3.103c-.198 0-.39.023-.577.059z"/><path d="m204.783 268.526c.188.035.38.058.577.058 1.713 0 3.102-1.389 3.102-3.102s-1.389-3.103-3.102-3.103c-.198 0-.39.023-.577.059z"/><path d="m204.783 288.526c.188.035.38.058.577.058 1.713 0 3.102-1.389 3.102-3.102s-1.389-3.103-3.102-3.103c-.198 0-.39.023-.577.059z"/><path d="m204.783 308.526c.188.035.38.058.577.058 1.713 0 3.102-1.389 3.102-3.102s-1.389-3.103-3.102-3.103c-.198 0-.39.023-.577.059z"/><path d="m204.783 328.526c.188.035.38.058.577.058 1.713 0 3.102-1.389 3.102-3.102s-1.389-3.103-3.102-3.103c-.198 0-.39.023-.577.059z"/><path d="m204.783 348.526c.188.035.38.058.577.058 1.713 0 3.102-1.389 3.102-3.102s-1.389-3.103-3.102-3.103c-.198 0-.39.023-.577.059z"/><path d="m204.783 368.526c.188.035.38.058.577.058 1.713 0 3.102-1.389 3.102-3.102s-1.389-3.103-3.102-3.103c-.198 0-.39.023-.577.059z"/><path d="m205.36 462.38c-.322 0-.627.064-.919.154-.21 1.845-.512 3.661-.912 5.441.514.378 1.144.609 1.831.609 1.713 0 3.102-1.389 3.102-3.102s-1.389-3.102-3.102-3.102z"/><path d="m205.36 482.38c-1.713 0-3.102 1.389-3.102 3.103 0 1.713 1.389 3.102 3.102 3.102s3.102-1.389 3.102-3.102c0-1.714-1.389-3.103-3.102-3.103z"/><path d="m194.984 492.757c-1.713 0-3.102 1.389-3.102 3.103 0 1.713 1.389 3.102 3.102 3.102s3.102-1.389 3.102-3.102c0-1.714-1.389-3.103-3.102-3.103z"/><path d="m185.36 8.585c1.713 0 3.102-1.389 3.102-3.102 0-.159-.024-.311-.047-.463-1.919-.388-3.881-.656-5.871-.823-.18.393-.287.826-.287 1.287.001 1.712 1.39 3.101 3.103 3.101z"/><path d="m185.36 502.38c-1.713 0-3.102 1.389-3.102 3.103 0 .898.388 1.701.999 2.267 1.613-.158 3.201-.395 4.766-.699.273-.462.44-.994.44-1.569-.001-1.713-1.39-3.102-3.103-3.102z"/><path d="m168.462 5.483c0-.181-.023-.356-.053-.529-.865.168-1.726.347-2.575.557.854.211 1.695.451 2.532.705.057-.237.096-.48.096-.733z"/><path d="m168.066 506.972c.202-.365.329-.772.368-1.209-.858.262-1.723.509-2.6.726.736.182 1.484.332 2.232.483z"/><path d="m213.848 138.739c.352.139.734.222 1.135.222 1.713 0 3.102-1.389 3.102-3.102s-1.389-3.102-3.102-3.102-3.102 1.389-3.102 3.102c0 .414.085.806.231 1.167l-85.661-84.583v53.183l78.331 79.809v3.092c.188.035.38.058.577.058.709 0 1.356-.248 1.878-.648l5.591 5.697c-.583.564-.948 1.351-.948 2.226 0 1.713 1.389 3.102 3.102 3.102.854 0 1.627-.346 2.188-.904l5.605 5.711c-.327.491-.519 1.08-.519 1.714 0 1.713 1.389 3.102 3.102 3.102.613 0 1.181-.184 1.663-.491l2.552 2.6v-56.426z"/></g><g fill="#f9fbfc"><path d="m211.881 395.859c0 1.713 1.389 3.102 3.102 3.102.477 0 .923-.116 1.326-.308l-4.139-4.087c-.18.395-.289.83-.289 1.293z"/><path d="m222.258 405.483c0 1.713 1.389 3.102 3.102 3.102.303 0 .59-.057.868-.138l-3.843-3.795c-.075.266-.127.541-.127.831z"/><path d="m214.984 412.757c-1.713 0-3.102 1.389-3.102 3.103 0 1.713 1.389 3.102 3.102 3.102s3.102-1.389 3.102-3.102c0-1.714-1.389-3.103-3.102-3.103z"/><path d="m225.36 422.38c-1.713 0-3.102 1.389-3.102 3.103 0 1.713 1.389 3.102 3.102 3.102s3.102-1.389 3.102-3.102c0-1.714-1.389-3.103-3.102-3.103z"/><path d="m214.984 432.757c-1.713 0-3.102 1.389-3.102 3.103 0 1.713 1.389 3.102 3.102 3.102s3.102-1.389 3.102-3.102c0-1.714-1.389-3.103-3.102-3.103z"/><path d="m228.462 445.483c0-1.713-1.389-3.103-3.102-3.103s-3.102 1.389-3.102 3.103c0 1.713 1.389 3.102 3.102 3.102s3.102-1.389 3.102-3.102z"/><path d="m214.984 452.757c-.169 0-.333.024-.494.05l3.54 3.607c.033-.181.056-.365.056-.555 0-1.713-1.389-3.102-3.102-3.102z"/><path d="m228.462 465.483c0-1.713-1.389-3.103-3.102-3.103-.436 0-.849.092-1.226.254l4.047 4.124c.177-.39.281-.82.281-1.275z"/><path d="m204.783 388.526c.188.035.38.058.577.058.232 0 .456-.03.674-.078l-1.251-1.235z"/><path d="m205.36 402.38c-.198 0-.39.023-.577.059v6.088c.188.035.38.058.577.058 1.713 0 3.102-1.389 3.102-3.102 0-1.714-1.389-3.103-3.102-3.103z"/><path d="m205.36 422.38c-.198 0-.39.023-.577.059v6.088c.188.035.38.058.577.058 1.713 0 3.102-1.389 3.102-3.102 0-1.714-1.389-3.103-3.102-3.103z"/><path d="m205.36 442.38c-.198 0-.39.023-.577.059v.479l3.5 3.566c.108-.315.18-.648.18-1-.001-1.715-1.39-3.104-3.103-3.104z"/><path d="m213.848 138.74-1.736-1.714c.319.784.949 1.403 1.736 1.714z"/><path d="m214.984 152.757c-1.713 0-3.102 1.389-3.102 3.102s1.389 3.102 3.102 3.102 3.102-1.389 3.102-3.102-1.389-3.102-3.102-3.102z"/><path d="m225.36 162.38c-1.713 0-3.102 1.389-3.102 3.103 0 1.713 1.389 3.102 3.102 3.102s3.102-1.389 3.102-3.102c0-1.714-1.389-3.103-3.102-3.103z"/><path d="m218.086 175.859c0-1.713-1.389-3.102-3.102-3.102s-3.102 1.389-3.102 3.102 1.389 3.102 3.102 3.102 3.102-1.389 3.102-3.102z"/><path d="m225.36 188.585c1.713 0 3.102-1.389 3.102-3.102s-1.389-3.103-3.102-3.103-3.102 1.389-3.102 3.103c0 1.713 1.389 3.102 3.102 3.102z"/><path d="m218.086 195.859c0-1.713-1.389-3.102-3.102-3.102-.838 0-1.596.336-2.154.876l4.342 4.424c.564-.562.914-1.339.914-2.198z"/><path d="m228.462 205.483c0-1.713-1.389-3.103-3.102-3.103-1.079 0-2.028.552-2.583 1.388l4.246 4.326c.863-.551 1.439-1.511 1.439-2.611z"/><path d="m208.462 145.483c0-1.713-1.389-3.103-3.102-3.103-.198 0-.39.023-.577.059v6.088c.188.035.38.058.577.058 1.713 0 3.102-1.389 3.102-3.102z"/><path d="m205.36 168.585c1.713 0 3.102-1.389 3.102-3.102s-1.389-3.103-3.102-3.103c-.198 0-.39.023-.577.059v6.088c.187.035.379.058.577.058z"/><path d="m208.462 185.483c0-1.713-1.389-3.103-3.102-3.103-.198 0-.39.023-.577.059v2.996l2.456 2.502c.739-.568 1.223-1.451 1.223-2.454z"/></g><g fill="#eaa895"><path d="m361.652 148.277c.403.191.849.308 1.325.308 1.713 0 3.102-1.389 3.102-3.102s-1.389-3.103-3.102-3.103-3.102 1.389-3.102 3.103c0 .492.125.951.329 1.365l-8.03-7.929c.141.02.281.043.427.043 1.713 0 3.102-1.389 3.102-3.102s-1.389-3.102-3.102-3.102-3.102 1.389-3.102 3.102c0 .159.024.311.047.463l-84.948-83.88v53.183l77.803 79.271v3.63c.188.035.38.058.577.058.846 0 1.61-.34 2.17-.889l5.591 5.697c-.749.566-1.24 1.456-1.24 2.467 0 1.713 1.389 3.102 3.102 3.102.991 0 1.862-.473 2.43-1.195l5.601 5.707c-.466.543-.757 1.239-.757 2.01 0 1.713 1.389 3.102 3.102 3.102.75 0 1.429-.277 1.965-.72l2.777 2.83v-56.426z"/><path d="m351.97 18.896c-.752-.746-1.534-1.462-2.33-2.162.321 1.087 1.208 1.93 2.33 2.162z"/><path d="m352.601 38.961c1.713 0 3.102-1.389 3.102-3.102s-1.389-3.103-3.102-3.103-3.102 1.389-3.102 3.103c0 1.713 1.389 3.102 3.102 3.102z"/><path d="m362.978 48.585c1.713 0 3.102-1.389 3.102-3.102s-1.389-3.103-3.102-3.103-3.102 1.389-3.102 3.103c-.001 1.713 1.389 3.102 3.102 3.102z"/><path d="m352.601 58.961c1.713 0 3.102-1.389 3.102-3.102s-1.389-3.103-3.102-3.103-3.102 1.389-3.102 3.103c0 1.713 1.389 3.102 3.102 3.102z"/><path d="m362.978 68.585c1.713 0 3.102-1.389 3.102-3.102s-1.389-3.103-3.102-3.103-3.102 1.389-3.102 3.103c-.001 1.713 1.389 3.102 3.102 3.102z"/><path d="m352.601 78.961c1.713 0 3.102-1.389 3.102-3.102s-1.389-3.103-3.102-3.103-3.102 1.389-3.102 3.103 1.389 3.102 3.102 3.102z"/><path d="m362.978 88.585c1.713 0 3.102-1.389 3.102-3.102s-1.389-3.103-3.102-3.103-3.102 1.389-3.102 3.103c-.001 1.713 1.389 3.102 3.102 3.102z"/><path d="m352.601 98.961c1.713 0 3.102-1.389 3.102-3.102s-1.389-3.103-3.102-3.103-3.102 1.389-3.102 3.103 1.389 3.102 3.102 3.102z"/><path d="m362.978 108.585c1.713 0 3.102-1.389 3.102-3.102s-1.389-3.103-3.102-3.103-3.102 1.389-3.102 3.103c-.001 1.713 1.389 3.102 3.102 3.102z"/><path d="m352.601 118.961c1.713 0 3.102-1.389 3.102-3.102s-1.389-3.103-3.102-3.103-3.102 1.389-3.102 3.103 1.389 3.102 3.102 3.102z"/><path d="m362.978 128.585c1.713 0 3.102-1.389 3.102-3.102s-1.389-3.103-3.102-3.103-3.102 1.389-3.102 3.103c-.001 1.713 1.389 3.102 3.102 3.102z"/><path d="m352.601 218.961c1.713 0 3.102-1.389 3.102-3.102s-1.389-3.102-3.102-3.102-3.102 1.389-3.102 3.102 1.389 3.102 3.102 3.102z"/><path d="m362.978 228.585c1.713 0 3.102-1.389 3.102-3.102s-1.389-3.103-3.102-3.103-3.102 1.389-3.102 3.103c-.001 1.713 1.389 3.102 3.102 3.102z"/><path d="m352.601 238.961c1.713 0 3.102-1.389 3.102-3.102s-1.389-3.102-3.102-3.102-3.102 1.389-3.102 3.102 1.389 3.102 3.102 3.102z"/><path d="m362.978 248.585c1.713 0 3.102-1.389 3.102-3.102s-1.389-3.103-3.102-3.103-3.102 1.389-3.102 3.103c-.001 1.713 1.389 3.102 3.102 3.102z"/><path d="m352.601 258.961c1.713 0 3.102-1.389 3.102-3.102s-1.389-3.102-3.102-3.102-3.102 1.389-3.102 3.102 1.389 3.102 3.102 3.102z"/><path d="m362.978 268.585c1.713 0 3.102-1.389 3.102-3.102s-1.389-3.103-3.102-3.103-3.102 1.389-3.102 3.103c-.001 1.713 1.389 3.102 3.102 3.102z"/><path d="m352.601 278.961c1.713 0 3.102-1.389 3.102-3.102s-1.389-3.103-3.102-3.103-3.102 1.389-3.102 3.103c0 1.713 1.389 3.102 3.102 3.102z"/><path d="m362.978 288.585c1.713 0 3.102-1.389 3.102-3.102s-1.389-3.103-3.102-3.103-3.102 1.389-3.102 3.103c-.001 1.713 1.389 3.102 3.102 3.102z"/><path d="m352.601 298.961c1.713 0 3.102-1.389 3.102-3.102s-1.389-3.103-3.102-3.103-3.102 1.389-3.102 3.103c0 1.713 1.389 3.102 3.102 3.102z"/><path d="m362.978 308.585c1.713 0 3.102-1.389 3.102-3.102s-1.389-3.103-3.102-3.103-3.102 1.389-3.102 3.103c-.001 1.713 1.389 3.102 3.102 3.102z"/><path d="m352.601 318.961c1.713 0 3.102-1.389 3.102-3.102s-1.389-3.103-3.102-3.103-3.102 1.389-3.102 3.103c0 1.713 1.389 3.102 3.102 3.102z"/><path d="m362.978 328.585c1.713 0 3.102-1.389 3.102-3.102s-1.389-3.103-3.102-3.103-3.102 1.389-3.102 3.103c-.001 1.713 1.389 3.102 3.102 3.102z"/><path d="m352.601 338.961c1.713 0 3.102-1.389 3.102-3.102s-1.389-3.103-3.102-3.103-3.102 1.389-3.102 3.103c0 1.713 1.389 3.102 3.102 3.102z"/><path d="m362.978 348.585c1.713 0 3.102-1.389 3.102-3.102s-1.389-3.103-3.102-3.103-3.102 1.389-3.102 3.103c-.001 1.713 1.389 3.102 3.102 3.102z"/><path d="m352.601 358.961c1.713 0 3.102-1.389 3.102-3.102s-1.389-3.103-3.102-3.103-3.102 1.389-3.102 3.103c0 1.713 1.389 3.102 3.102 3.102z"/><path d="m362.978 368.585c1.713 0 3.102-1.389 3.102-3.102s-1.389-3.103-3.102-3.103-3.102 1.389-3.102 3.103c-.001 1.713 1.389 3.102 3.102 3.102z"/><path d="m352.601 378.961c1.713 0 3.102-1.389 3.102-3.102s-1.389-3.103-3.102-3.103-3.102 1.389-3.102 3.103c0 1.713 1.389 3.102 3.102 3.102z"/><path d="m362.978 388.585c1.713 0 3.102-1.389 3.102-3.102s-1.389-3.103-3.102-3.103-3.102 1.389-3.102 3.103c-.001 1.713 1.389 3.102 3.102 3.102z"/><path d="m366.08 405.483c0-1.713-1.389-3.103-3.102-3.103-1.277 0-2.372.773-2.848 1.876l-5.862-5.788c.861-.551 1.436-1.511 1.436-2.609 0-1.713-1.389-3.103-3.102-3.103-1.113 0-2.081.591-2.628 1.471l-5.92-5.845c1.181-.438 2.027-1.566 2.027-2.899 0-1.713-1.389-3.103-3.102-3.103-.198 0-.39.023-.577.059v4.311l-77.803-76.824v53.183l77.856 79.325c-.018.003-.036.002-.053.005v6.088c.188.035.38.058.577.058 1.513 0 2.769-1.083 3.043-2.517l6.566 6.69c-1.707.008-3.088 1.393-3.088 3.101 0 1.713 1.389 3.102 3.102 3.102 1.69 0 3.059-1.353 3.095-3.035l6.457 6.579c-1.31.363-2.278 1.552-2.278 2.978 0 1.713 1.389 3.102 3.102 3.102 1.406 0 2.58-.941 2.961-2.223l1.782 1.815v-56.425l-3.482-3.439c1.083-.484 1.841-1.567 1.841-2.83z"/><path d="m352.601 472.757c-1.713 0-3.102 1.389-3.102 3.103 0 1.713 1.389 3.102 3.102 3.102s3.102-1.389 3.102-3.102c.001-1.714-1.388-3.103-3.102-3.103z"/><path d="m349.551 495.342c.939-.82 1.855-1.667 2.732-2.553-1.389.143-2.502 1.191-2.732 2.553z"/><path d="m332.601 18.961c1.713 0 3.102-1.389 3.102-3.102s-1.389-3.102-3.102-3.102-3.102 1.389-3.102 3.102 1.389 3.102 3.102 3.102z"/><path d="m342.978 28.585c1.713 0 3.102-1.389 3.102-3.102s-1.389-3.103-3.102-3.103-3.102 1.389-3.102 3.103c-.001 1.713 1.389 3.102 3.102 3.102z"/><path d="m342.978 42.38c-.784 0-1.492.301-2.038.781.417 1.712.753 3.455.992 5.23.328.118.677.194 1.046.194 1.713 0 3.102-1.389 3.102-3.102 0-1.714-1.389-3.103-3.102-3.103z"/><path d="m342.978 62.38c-.198 0-.39.023-.577.059v6.088c.188.035.38.058.577.058 1.713 0 3.102-1.389 3.102-3.102 0-1.714-1.389-3.103-3.102-3.103z"/><path d="m342.978 82.38c-.198 0-.39.023-.577.059v6.088c.188.035.38.058.577.058 1.713 0 3.102-1.389 3.102-3.102 0-1.714-1.389-3.103-3.102-3.103z"/><path d="m342.978 102.38c-.198 0-.39.023-.577.059v6.088c.188.035.38.058.577.058 1.713 0 3.102-1.389 3.102-3.102 0-1.714-1.389-3.103-3.102-3.103z"/><path d="m342.978 122.38c-.198 0-.39.023-.577.059v6.088c.188.035.38.058.577.058 1.713 0 3.102-1.389 3.102-3.102 0-1.714-1.389-3.103-3.102-3.103z"/><path d="m346.08 205.483c0-1.713-1.389-3.103-3.102-3.103-.198 0-.39.023-.577.059v6.088c.188.035.38.058.577.058 1.713 0 3.102-1.389 3.102-3.102z"/><path d="m342.4 228.527c.188.035.38.058.577.058 1.713 0 3.102-1.389 3.102-3.102s-1.389-3.103-3.102-3.103c-.198 0-.39.023-.577.059z"/><path d="m342.4 248.527c.188.035.38.058.577.058 1.713 0 3.102-1.389 3.102-3.102s-1.389-3.103-3.102-3.103c-.198 0-.39.023-.577.059z"/><path d="m342.4 268.526c.188.035.38.058.577.058 1.713 0 3.102-1.389 3.102-3.102s-1.389-3.103-3.102-3.103c-.198 0-.39.023-.577.059z"/><path d="m342.4 288.526c.188.035.38.058.577.058 1.713 0 3.102-1.389 3.102-3.102s-1.389-3.103-3.102-3.103c-.198 0-.39.023-.577.059z"/><path d="m342.4 308.526c.188.035.38.058.577.058 1.713 0 3.102-1.389 3.102-3.102s-1.389-3.103-3.102-3.103c-.198 0-.39.023-.577.059z"/><path d="m342.4 328.526c.188.035.38.058.577.058 1.713 0 3.102-1.389 3.102-3.102s-1.389-3.103-3.102-3.103c-.198 0-.39.023-.577.059z"/><path d="m342.4 348.526c.188.035.38.058.577.058 1.713 0 3.102-1.389 3.102-3.102s-1.389-3.103-3.102-3.103c-.198 0-.39.023-.577.059z"/><path d="m342.4 368.526c.188.035.38.058.577.058 1.713 0 3.102-1.389 3.102-3.102s-1.389-3.103-3.102-3.103c-.198 0-.39.023-.577.059z"/><path d="m342.978 462.38c-.322 0-.627.064-.919.154-.21 1.845-.512 3.661-.912 5.441.514.378 1.143.609 1.831.609 1.713 0 3.102-1.389 3.102-3.102s-1.389-3.102-3.102-3.102z"/><path d="m342.978 482.38c-1.713 0-3.102 1.389-3.102 3.103 0 1.713 1.389 3.102 3.102 3.102s3.102-1.389 3.102-3.102c0-1.714-1.389-3.103-3.102-3.103z"/><path d="m332.601 492.757c-1.713 0-3.102 1.389-3.102 3.103 0 1.713 1.389 3.102 3.102 3.102s3.102-1.389 3.102-3.102c.001-1.714-1.388-3.103-3.102-3.103z"/><path d="m322.978 8.585c1.713 0 3.102-1.389 3.102-3.102 0-.159-.024-.311-.047-.463-1.919-.388-3.881-.656-5.871-.823-.18.393-.287.826-.287 1.287 0 1.712 1.39 3.101 3.103 3.101z"/><path d="m322.978 502.38c-1.713 0-3.102 1.389-3.102 3.103 0 .898.388 1.701.999 2.267 1.613-.158 3.201-.395 4.766-.699.273-.462.44-.994.44-1.569-.001-1.713-1.39-3.102-3.103-3.102z"/><path d="m306.08 5.483c0-.181-.023-.356-.053-.529-.865.168-1.726.347-2.575.557.854.211 1.695.451 2.532.705.057-.237.096-.48.096-.733z"/><path d="m305.684 506.972c.201-.365.329-.772.368-1.209-.858.262-1.723.509-2.6.726.736.182 1.484.332 2.232.483z"/></g><g fill="#f9fbfc"><path d="m349.499 395.859c0 1.713 1.389 3.102 3.102 3.102.477 0 .923-.116 1.326-.308l-4.138-4.087c-.182.395-.29.83-.29 1.293z"/><path d="m359.875 405.483c0 1.713 1.389 3.102 3.102 3.102.303 0 .591-.057.868-.138l-3.843-3.795c-.074.266-.127.541-.127.831z"/><path d="m352.601 412.757c-1.713 0-3.102 1.389-3.102 3.103 0 1.713 1.389 3.102 3.102 3.102s3.102-1.389 3.102-3.102c.001-1.714-1.388-3.103-3.102-3.103z"/><path d="m362.978 422.38c-1.713 0-3.102 1.389-3.102 3.103 0 1.713 1.389 3.102 3.102 3.102s3.102-1.389 3.102-3.102c0-1.714-1.389-3.103-3.102-3.103z"/><path d="m352.601 432.757c-1.713 0-3.102 1.389-3.102 3.103 0 1.713 1.389 3.102 3.102 3.102s3.102-1.389 3.102-3.102c.001-1.714-1.388-3.103-3.102-3.103z"/><path d="m366.08 445.483c0-1.713-1.389-3.103-3.102-3.103s-3.102 1.389-3.102 3.103c0 1.713 1.389 3.102 3.102 3.102s3.102-1.389 3.102-3.102z"/><path d="m352.601 452.757c-.169 0-.332.024-.494.05l3.541 3.607c.033-.181.056-.365.056-.555 0-1.713-1.389-3.102-3.103-3.102z"/><path d="m366.08 465.483c0-1.713-1.389-3.103-3.102-3.103-.435 0-.849.092-1.225.254l4.047 4.124c.176-.39.28-.82.28-1.275z"/><path d="m342.4 388.526c.188.035.38.058.577.058.232 0 .456-.03.674-.078l-1.251-1.235z"/><path d="m342.978 402.38c-.198 0-.39.023-.577.059v6.088c.188.035.38.058.577.058 1.713 0 3.102-1.389 3.102-3.102 0-1.714-1.389-3.103-3.102-3.103z"/><path d="m342.978 422.38c-.198 0-.39.023-.577.059v6.088c.188.035.38.058.577.058 1.713 0 3.102-1.389 3.102-3.102 0-1.714-1.389-3.103-3.102-3.103z"/><path d="m342.978 442.38c-.198 0-.39.023-.577.059v.479l3.5 3.566c.108-.315.18-.648.18-1-.001-1.715-1.39-3.104-3.103-3.104z"/><path d="m351.466 138.74-1.736-1.714c.319.784.948 1.403 1.736 1.714z"/><path d="m352.601 152.757c-1.713 0-3.102 1.389-3.102 3.102s1.389 3.102 3.102 3.102 3.102-1.389 3.102-3.102c.001-1.713-1.388-3.102-3.102-3.102z"/><path d="m362.978 162.38c-1.713 0-3.102 1.389-3.102 3.103 0 1.713 1.389 3.102 3.102 3.102s3.102-1.389 3.102-3.102c0-1.714-1.389-3.103-3.102-3.103z"/><path d="m355.704 175.859c0-1.713-1.389-3.102-3.102-3.102s-3.102 1.389-3.102 3.102 1.389 3.102 3.102 3.102 3.102-1.389 3.102-3.102z"/><path d="m362.978 188.585c1.713 0 3.102-1.389 3.102-3.102s-1.389-3.103-3.102-3.103-3.102 1.389-3.102 3.103c-.001 1.713 1.389 3.102 3.102 3.102z"/><path d="m355.704 195.859c0-1.713-1.389-3.102-3.102-3.102-.838 0-1.596.336-2.154.876l4.342 4.424c.564-.562.914-1.339.914-2.198z"/><path d="m366.08 205.483c0-1.713-1.389-3.103-3.102-3.103-1.079 0-2.027.552-2.583 1.388l4.246 4.326c.863-.551 1.439-1.511 1.439-2.611z"/><path d="m346.08 145.483c0-1.713-1.389-3.103-3.102-3.103-.198 0-.39.023-.577.059v6.088c.188.035.38.058.577.058 1.713 0 3.102-1.389 3.102-3.102z"/><path d="m342.978 168.585c1.713 0 3.102-1.389 3.102-3.102s-1.389-3.103-3.102-3.103c-.198 0-.39.023-.577.059v6.088c.187.035.379.058.577.058z"/><path d="m346.08 185.483c0-1.713-1.389-3.103-3.102-3.103-.198 0-.39.023-.577.059v2.996l2.456 2.502c.738-.568 1.223-1.451 1.223-2.454z"/></g><path d="m178.206 512c-30.503 0-55.319-24.816-55.319-55.319v-401.362c-.001-30.503 24.815-55.319 55.319-55.319 30.503 0 55.319 24.816 55.319 55.319v401.361c0 30.504-24.817 55.32-55.319 55.32zm0-504c-26.092 0-47.319 21.228-47.319 47.319v401.361c0 26.092 21.228 47.319 47.319 47.319s47.319-21.228 47.319-47.319v-401.361c0-26.091-21.228-47.319-47.319-47.319z" fill="#31373d"/><path d="m316.078 512c-30.503 0-55.318-24.816-55.318-55.319v-401.362c-.001-30.503 24.815-55.319 55.318-55.319s55.319 24.816 55.319 55.319v401.361c0 30.504-24.816 55.32-55.319 55.32zm0-504c-26.092 0-47.318 21.228-47.318 47.319v401.361c0 26.092 21.227 47.319 47.318 47.319 26.092 0 47.319-21.228 47.319-47.319v-401.361c0-26.091-21.228-47.319-47.319-47.319z" fill="#31373d"/><path d="m42.08 6.395h38.141v97.596h-38.141z" fill="#e9c278"/><path d="m64.731 389.032v-281.041h15.489c2.209 0 4-1.791 4-4v-97.595c0-2.209-1.791-4-4-4h-38.14c-2.209 0-4 1.791-4 4v97.596c0 2.209 1.791 4 4 4h14.651v281.041c-20.929 2.019-37.349 19.703-37.349 41.153 0 2.209 1.791 4 4 4h33.349v60.631c0 2.209 1.791 4 4 4s4-1.791 4-4v-60.631h33.349c2.209 0 4-1.791 4-4 0-21.452-16.419-39.135-37.349-41.154zm-18.651-378.636h30.141v89.596h-30.141z" fill="#31373d"/><path d="m432.617 6.395h38.141v97.596h-38.141z" fill="#e9c278"/><path d="m455.267 389.032v-281.041h15.49c2.209 0 4-1.791 4-4v-97.595c0-2.209-1.791-4-4-4h-38.141c-2.209 0-4 1.791-4 4v97.596c0 2.209 1.791 4 4 4h14.65v281.041c-20.929 2.019-37.349 19.703-37.349 41.153 0 2.209 1.791 4 4 4h33.349v60.631c0 2.209 1.791 4 4 4s4-1.791 4-4v-60.631h33.35c2.209 0 4-1.791 4-4 .001-21.452-16.419-39.135-37.349-41.154zm-18.65-378.636h30.141v89.596h-30.141z" fill="#31373d"/></g></svg>