<svg id="Capa_1" enable-background="new 0 0 512.057 512.057" height="512" viewBox="0 0 512.057 512.057" width="512" xmlns="http://www.w3.org/2000/svg"><g><path d="m267.882 354.439c-21.047-24.993-7.604-91.674.806-99.437 8.55-7.892 183.654-58.561 181.805-64.085-30.374-90.798-116.215-156.161-217.244-156.161-126.534 0-229.11 102.576-229.11 229.111 0 24.605 3.379 48.471 11.058 70.518 9.005 25.854 39.473 82.651 74.777 97.43 21.43 8.971 52.477-16.157 77.177-10.673s47.313 29.993 74.361 40.812c32.649 13.06 75.067-1.403 84.919-41.633 10.998-44.914-40.538-44.494-58.549-65.882z" fill="#e9c278"/><path d="m390.234 96.56s-28.441 16.252-28.441 20.315 28.441 33.859 39.276 59.592l36.567-16.252" fill="#eaa895"/><g fill="#f9fbfc"><path d="m319.96 388.431c-1.713 0-3.102 1.389-3.102 3.103 0 1.713 1.389 3.102 3.102 3.102 1.639 0 2.967-1.275 3.08-2.885-.761-1.141-1.596-2.226-2.499-3.261-.188-.036-.382-.059-.581-.059z"/><path d="m319.96 408.431c-1.713 0-3.102 1.389-3.102 3.103 0 1.713 1.389 3.102 3.102 3.102s3.102-1.389 3.102-3.102c0-1.714-1.389-3.103-3.102-3.103z"/><path d="m319.96 428.431c-1.713 0-3.102 1.389-3.102 3.103 0 1.713 1.389 3.102 3.102 3.102.437 0 .852-.093 1.23-.256.617-1.192 1.199-2.417 1.746-3.675-.364-1.308-1.551-2.274-2.976-2.274z"/><path d="m299.96 374.636c.242 0 .475-.034.702-.087-1.168-.591-2.347-1.173-3.529-1.751.485 1.082 1.566 1.838 2.827 1.838z"/><path d="m307.234 381.157c0 1.713 1.389 3.103 3.102 3.103 1.416 0 2.597-.954 2.969-2.25-1.57-1.137-3.219-2.212-4.928-3.239-.692.568-1.143 1.42-1.143 2.386z"/><path d="m299.96 388.431c-1.713 0-3.102 1.389-3.102 3.103 0 1.713 1.389 3.102 3.102 3.102s3.102-1.389 3.102-3.102c0-1.714-1.389-3.103-3.102-3.103z"/><path d="m310.337 398.055c-1.713 0-3.102 1.389-3.102 3.102s1.389 3.103 3.102 3.103 3.102-1.389 3.102-3.103c0-1.713-1.389-3.102-3.102-3.102z"/><path d="m299.96 408.431c-1.713 0-3.102 1.389-3.102 3.103 0 1.713 1.389 3.102 3.102 3.102s3.102-1.389 3.102-3.102c0-1.714-1.389-3.103-3.102-3.103z"/><path d="m310.337 418.055c-1.713 0-3.102 1.389-3.102 3.102s1.389 3.103 3.102 3.103 3.102-1.389 3.102-3.103c0-1.713-1.389-3.102-3.102-3.102z"/><path d="m299.96 428.431c-1.713 0-3.102 1.389-3.102 3.103 0 1.713 1.389 3.102 3.102 3.102s3.102-1.389 3.102-3.102c0-1.714-1.389-3.103-3.102-3.103z"/><path d="m310.337 438.055c-1.713 0-3.102 1.389-3.102 3.102s1.389 3.103 3.102 3.103 3.102-1.389 3.102-3.103c0-1.713-1.389-3.102-3.102-3.102z"/><path d="m299.96 454.636c1.713 0 3.102-1.389 3.102-3.102s-1.389-3.103-3.102-3.103-3.102 1.389-3.102 3.103c0 1.713 1.389 3.102 3.102 3.102z"/><path d="m293.439 381.157c0-1.148-.631-2.139-1.558-2.675-1.041 1.808-2.16 3.538-3.356 5.184.511.37 1.133.594 1.812.594 1.713-.001 3.102-1.39 3.102-3.103z"/><path d="m283.062 391.534c0-.411-.084-.801-.229-1.16-1.369 1.38-2.797 2.686-4.28 3.91.424.218.898.352 1.407.352 1.713 0 3.102-1.389 3.102-3.102z"/><path d="m290.337 398.055c-1.713 0-3.102 1.389-3.102 3.102s1.389 3.103 3.102 3.103 3.102-1.389 3.102-3.103c0-1.713-1.389-3.102-3.102-3.102z"/><path d="m279.96 408.431c-1.713 0-3.102 1.389-3.102 3.103 0 1.713 1.389 3.102 3.102 3.102s3.102-1.389 3.102-3.102c0-1.714-1.389-3.103-3.102-3.103z"/><path d="m290.337 418.055c-1.713 0-3.102 1.389-3.102 3.102s1.389 3.103 3.102 3.103 3.102-1.389 3.102-3.103c0-1.713-1.389-3.102-3.102-3.102z"/><path d="m279.96 428.431c-1.713 0-3.102 1.389-3.102 3.103 0 1.713 1.389 3.102 3.102 3.102s3.102-1.389 3.102-3.102c0-1.714-1.389-3.103-3.102-3.103z"/><path d="m290.337 438.055c-1.713 0-3.102 1.389-3.102 3.102s1.389 3.103 3.102 3.103 3.102-1.389 3.102-3.103c0-1.713-1.389-3.102-3.102-3.102z"/><path d="m279.96 448.431c-1.713 0-3.102 1.389-3.102 3.103 0 1.713 1.389 3.102 3.102 3.102s3.102-1.389 3.102-3.102c0-1.714-1.389-3.103-3.102-3.103z"/><path d="m290.337 458.055c-1.713 0-3.102 1.389-3.102 3.102 0 .67.218 1.287.579 1.794 1.894-.66 3.757-1.406 5.58-2.243-.219-1.499-1.498-2.653-3.057-2.653z"/><path d="m270.337 404.259c1.713 0 3.102-1.389 3.102-3.103 0-.966-.451-1.817-1.143-2.386-1.63 1.021-3.304 1.961-5.018 2.821.213 1.506 1.494 2.668 3.059 2.668z"/><path d="m259.96 408.431c-1.713 0-3.102 1.389-3.102 3.103 0 1.713 1.389 3.102 3.102 3.102s3.102-1.389 3.102-3.102c0-1.714-1.389-3.103-3.102-3.103z"/><path d="m270.337 418.055c-1.713 0-3.102 1.389-3.102 3.102s1.389 3.103 3.102 3.103 3.102-1.389 3.102-3.103c0-1.713-1.389-3.102-3.102-3.102z"/><path d="m259.96 434.636c1.713 0 3.102-1.389 3.102-3.102s-1.389-3.103-3.102-3.103-3.102 1.389-3.102 3.103c0 1.713 1.389 3.102 3.102 3.102z"/><path d="m270.337 438.055c-1.713 0-3.102 1.389-3.102 3.102s1.389 3.103 3.102 3.103 3.102-1.389 3.102-3.103c0-1.713-1.389-3.102-3.102-3.102z"/><path d="m259.96 454.636c1.713 0 3.102-1.389 3.102-3.102s-1.389-3.103-3.102-3.103-3.102 1.389-3.102 3.103c0 1.713 1.389 3.102 3.102 3.102z"/><path d="m270.337 464.259c1.713 0 3.102-1.389 3.102-3.103 0-1.713-1.389-3.102-3.102-3.102s-3.102 1.389-3.102 3.102c-.001 1.714 1.388 3.103 3.102 3.103z"/><path d="m239.96 408.431c-1.713 0-3.102 1.389-3.102 3.103 0 1.713 1.389 3.102 3.102 3.102s3.102-1.389 3.102-3.102c0-1.714-1.389-3.103-3.102-3.103z"/><path d="m250.337 424.259c1.713 0 3.102-1.389 3.102-3.103 0-1.713-1.389-3.102-3.102-3.102s-3.102 1.389-3.102 3.102c-.001 1.714 1.388 3.103 3.102 3.103z"/><path d="m239.96 428.431c-1.713 0-3.102 1.389-3.102 3.103 0 1.713 1.389 3.102 3.102 3.102s3.102-1.389 3.102-3.102c0-1.714-1.389-3.103-3.102-3.103z"/><path d="m250.337 444.259c1.713 0 3.102-1.389 3.102-3.103 0-1.713-1.389-3.102-3.102-3.102s-3.102 1.389-3.102 3.102c-.001 1.714 1.388 3.103 3.102 3.103z"/><path d="m239.96 448.431c-1.713 0-3.102 1.389-3.102 3.103 0 1.713 1.389 3.102 3.102 3.102s3.102-1.389 3.102-3.102c0-1.714-1.389-3.103-3.102-3.103z"/><path d="m250.337 464.259c1.713 0 3.102-1.389 3.102-3.103 0-1.713-1.389-3.102-3.102-3.102s-3.102 1.389-3.102 3.102c-.001 1.714 1.388 3.103 3.102 3.103z"/><path d="m216.858 411.534c0 1.713 1.389 3.102 3.102 3.102s3.102-1.389 3.102-3.102-1.389-3.103-3.102-3.103-3.102 1.389-3.102 3.103z"/><path d="m230.337 418.055c-1.713 0-3.102 1.389-3.102 3.102s1.389 3.103 3.102 3.103 3.102-1.389 3.102-3.103c0-1.713-1.389-3.102-3.102-3.102z"/><path d="m219.96 434.636c1.713 0 3.102-1.389 3.102-3.102s-1.389-3.103-3.102-3.103-3.102 1.389-3.102 3.103c0 1.713 1.389 3.102 3.102 3.102z"/><path d="m230.337 438.055c-1.713 0-3.102 1.389-3.102 3.102s1.389 3.103 3.102 3.103 3.102-1.389 3.102-3.103c0-1.713-1.389-3.102-3.102-3.102z"/><path d="m219.96 448.431c-.79 0-1.502.304-2.05.79 1.662 1.073 3.335 2.127 5.02 3.158.077-.271.131-.551.131-.846.001-1.713-1.388-3.102-3.101-3.102z"/><path d="m210.337 404.259c.851 0 1.62-.344 2.181-.898-1.774-.734-3.529-1.524-5.267-2.364-.003.054-.016.104-.016.159-.001 1.714 1.388 3.103 3.102 3.103z"/><path d="m199.96 408.431c-1.713 0-3.102 1.389-3.102 3.103 0 1.713 1.389 3.102 3.102 3.102s3.102-1.389 3.102-3.102c0-1.714-1.389-3.103-3.102-3.103z"/><path d="m207.234 421.157c0 1.713 1.389 3.103 3.102 3.103s3.102-1.389 3.102-3.103c0-1.713-1.389-3.102-3.102-3.102s-3.102 1.389-3.102 3.102z"/><path d="m199.96 428.431c-1.713 0-3.102 1.389-3.102 3.103 0 1.713 1.389 3.102 3.102 3.102s3.102-1.389 3.102-3.102c0-1.714-1.389-3.103-3.102-3.103z"/><path d="m213.439 441.157c0-1.713-1.389-3.102-3.102-3.102s-3.102 1.389-3.102 3.102c0 .385.079.75.207 1.09.986.668 1.974 1.337 2.965 2.005 1.68-.038 3.032-1.406 3.032-3.095z"/><path d="m179.96 388.431c-1.713 0-3.102 1.389-3.102 3.103 0 1.713 1.389 3.102 3.102 3.102s3.102-1.389 3.102-3.102c0-1.714-1.389-3.103-3.102-3.103z"/><path d="m190.337 398.055c-1.713 0-3.102 1.389-3.102 3.102s1.389 3.103 3.102 3.103 3.102-1.389 3.102-3.103c0-1.713-1.389-3.102-3.102-3.102z"/><path d="m179.96 408.431c-1.713 0-3.102 1.389-3.102 3.103 0 1.713 1.389 3.102 3.102 3.102s3.102-1.389 3.102-3.102c0-1.714-1.389-3.103-3.102-3.103z"/><path d="m190.337 418.055c-1.713 0-3.102 1.389-3.102 3.102s1.389 3.103 3.102 3.103 3.102-1.389 3.102-3.103c0-1.713-1.389-3.102-3.102-3.102z"/><path d="m159.96 388.431c-1.713 0-3.102 1.389-3.102 3.103 0 1.713 1.389 3.102 3.102 3.102s3.102-1.389 3.102-3.102c0-1.714-1.389-3.103-3.102-3.103z"/><path d="m170.337 398.055c-1.713 0-3.102 1.389-3.102 3.102s1.389 3.103 3.102 3.103 3.102-1.389 3.102-3.103c0-1.713-1.389-3.102-3.102-3.102z"/><path d="m163.062 411.534c0-1.713-1.389-3.103-3.102-3.103s-3.102 1.389-3.102 3.103c0 1.713 1.389 3.102 3.102 3.102s3.102-1.389 3.102-3.102z"/><path d="m170.337 418.055c-1.713 0-3.102 1.389-3.102 3.102 0 .002.001.004.001.006 1.921.43 3.829.985 5.728 1.629.297-.476.476-1.033.476-1.635-.001-1.713-1.39-3.102-3.103-3.102z"/><path d="m150.337 378.055c-1.713 0-3.102 1.389-3.102 3.102s1.389 3.103 3.102 3.103 3.102-1.389 3.102-3.103c0-1.713-1.389-3.102-3.102-3.102z"/><path d="m139.96 388.431c-1.713 0-3.102 1.389-3.102 3.103 0 1.713 1.389 3.102 3.102 3.102s3.102-1.389 3.102-3.102c0-1.714-1.389-3.103-3.102-3.103z"/><path d="m150.337 398.055c-1.713 0-3.102 1.389-3.102 3.102s1.389 3.103 3.102 3.103 3.102-1.389 3.102-3.103c0-1.713-1.389-3.102-3.102-3.102z"/><path d="m139.96 408.431c-1.713 0-3.102 1.389-3.102 3.103 0 1.713 1.389 3.102 3.102 3.102s3.102-1.389 3.102-3.102c0-1.714-1.389-3.103-3.102-3.103z"/><path d="m150.337 418.055c-1.713 0-3.102 1.389-3.102 3.102 0 .236.032.464.082.686 2.044-.449 4.074-.81 6.085-1.067-.192-1.532-1.483-2.721-3.065-2.721z"/><path d="m119.96 368.431c-1.713 0-3.102 1.389-3.102 3.103 0 1.713 1.389 3.102 3.102 3.102s3.102-1.389 3.102-3.102c0-1.714-1.389-3.103-3.102-3.103z"/><path d="m130.337 378.055c-1.713 0-3.102 1.389-3.102 3.102s1.389 3.103 3.102 3.103 3.102-1.389 3.102-3.103c0-1.713-1.389-3.102-3.102-3.102z"/><path d="m119.96 388.431c-1.713 0-3.102 1.389-3.102 3.103 0 1.713 1.389 3.102 3.102 3.102s3.102-1.389 3.102-3.102c0-1.714-1.389-3.103-3.102-3.103z"/><path d="m130.337 398.055c-1.713 0-3.102 1.389-3.102 3.102s1.389 3.103 3.102 3.103 3.102-1.389 3.102-3.103c0-1.713-1.389-3.102-3.102-3.102z"/><path d="m119.96 408.431c-1.713 0-3.102 1.389-3.102 3.103 0 1.713 1.389 3.102 3.102 3.102s3.102-1.389 3.102-3.102c0-1.714-1.389-3.103-3.102-3.103z"/><path d="m130.337 418.055c-1.713 0-3.102 1.389-3.102 3.102s1.389 3.103 3.102 3.103 3.102-1.389 3.102-3.103c0-1.713-1.389-3.102-3.102-3.102z"/><path d="m119.96 428.431c-1.545 0-2.815 1.132-3.053 2.609 1.762-.495 3.54-1.032 5.331-1.598-.567-.617-1.373-1.011-2.278-1.011z"/><path d="m99.96 374.636c1.713 0 3.102-1.389 3.102-3.102 0-1.142-.623-2.128-1.541-2.667-1.478.49-2.952.979-4.42 1.458-.157.371-.244.779-.244 1.208.001 1.714 1.39 3.103 3.103 3.103z"/><path d="m110.337 378.055c-1.713 0-3.102 1.389-3.102 3.102s1.389 3.103 3.102 3.103 3.102-1.389 3.102-3.103c0-1.713-1.389-3.102-3.102-3.102z"/><path d="m99.96 388.431c-1.713 0-3.102 1.389-3.102 3.103 0 1.713 1.389 3.102 3.102 3.102s3.102-1.389 3.102-3.102c0-1.714-1.389-3.103-3.102-3.103z"/><path d="m110.337 398.055c-1.713 0-3.102 1.389-3.102 3.102s1.389 3.103 3.102 3.103 3.102-1.389 3.102-3.103c0-1.713-1.389-3.102-3.102-3.102z"/><path d="m99.96 408.431c-1.713 0-3.102 1.389-3.102 3.103 0 1.713 1.389 3.102 3.102 3.102s3.102-1.389 3.102-3.102c0-1.714-1.389-3.103-3.102-3.103z"/><path d="m110.337 418.055c-1.713 0-3.102 1.389-3.102 3.102s1.389 3.103 3.102 3.103 3.102-1.389 3.102-3.103c0-1.713-1.389-3.102-3.102-3.102z"/><path d="m99.96 428.431c-1.713 0-3.102 1.389-3.102 3.103 0 .813.32 1.547.832 2.101 1.462.126 2.953.15 4.471.083.556-.56.901-1.332.901-2.184 0-1.714-1.389-3.103-3.102-3.103z"/><path d="m90.337 378.055c-1.713 0-3.102 1.389-3.102 3.102s1.389 3.103 3.102 3.103 3.102-1.389 3.102-3.103c0-1.713-1.389-3.102-3.102-3.102z"/><path d="m79.96 388.431c-1.713 0-3.102 1.389-3.102 3.103 0 1.713 1.389 3.102 3.102 3.102s3.102-1.389 3.102-3.102c0-1.714-1.389-3.103-3.102-3.103z"/><path d="m90.337 398.055c-1.713 0-3.102 1.389-3.102 3.102s1.389 3.103 3.102 3.103 3.102-1.389 3.102-3.103c0-1.713-1.389-3.102-3.102-3.102z"/><path d="m79.96 408.431c-1.713 0-3.102 1.389-3.102 3.103 0 1.713 1.389 3.102 3.102 3.102s3.102-1.389 3.102-3.102c0-1.714-1.389-3.103-3.102-3.103z"/><path d="m90.337 418.055c-1.713 0-3.102 1.389-3.102 3.102s1.389 3.103 3.102 3.103 3.102-1.389 3.102-3.103c0-1.713-1.389-3.102-3.102-3.102z"/><path d="m56.891 371.208c-.011.109-.033.214-.033.326 0 1.713 1.389 3.102 3.102 3.102.866 0 1.647-.356 2.21-.928-.072-.029-.146-.05-.218-.08-1.699-.711-3.387-1.523-5.061-2.42z"/><path d="m70.337 378.055c-1.713 0-3.102 1.389-3.102 3.102s1.389 3.103 3.102 3.103 3.102-1.389 3.102-3.103c0-1.713-1.389-3.102-3.102-3.102z"/><path d="m59.96 388.431c-1.713 0-3.102 1.389-3.102 3.103 0 1.713 1.389 3.102 3.102 3.102s3.102-1.389 3.102-3.102c0-1.714-1.389-3.103-3.102-3.103z"/><path d="m70.337 404.259c1.713 0 3.102-1.389 3.102-3.103 0-1.713-1.389-3.102-3.102-3.102s-3.102 1.389-3.102 3.102c-.001 1.714 1.388 3.103 3.102 3.103z"/><path d="m59.96 408.431c-.204 0-.403.022-.597.06 1.184 1.296 2.383 2.564 3.596 3.798.061-.243.104-.494.104-.755-.001-1.714-1.39-3.103-3.103-3.103z"/><path d="m70.337 418.055c-.385 0-.75.079-1.09.207 1.364 1.204 2.744 2.355 4.136 3.459.034-.183.057-.371.057-.564-.001-1.713-1.39-3.102-3.103-3.102z"/><path d="m39.96 374.636c1.713 0 3.102-1.389 3.102-3.102s-1.389-3.103-3.102-3.103-3.102 1.389-3.102 3.103c0 1.713 1.389 3.102 3.102 3.102z"/><path d="m47.234 381.157c0 1.713 1.389 3.103 3.102 3.103s3.102-1.389 3.102-3.103c0-1.713-1.389-3.102-3.102-3.102s-3.102 1.389-3.102 3.102z"/><path d="m50.605 398.082c.919 1.181 1.849 2.347 2.791 3.5.019-.14.043-.279.043-.424 0-1.622-1.249-2.938-2.834-3.076z"/><path d="m18.258 334.124c-.431-.596-.859-1.194-1.285-1.794.199.744.658 1.38 1.285 1.794z"/><path d="m20.983 348.618c.595 1.309 1.22 2.649 1.87 4.012.13-.342.209-.708.209-1.096 0-1.353-.871-2.492-2.079-2.916z"/><path d="m33.439 361.157c0-1.713-1.389-3.102-3.102-3.102s-3.102 1.389-3.102 3.102c0 .094.019.182.028.274.369.703.742 1.409 1.122 2.119.535.437 1.208.71 1.952.71 1.713-.001 3.102-1.39 3.102-3.103z"/></g><path d="m41.931 333.262c-1.711 0-3.311-1.069-3.907-2.775-6.775-19.404-10.21-41.22-10.21-64.843 0-116.003 94.607-210.377 210.896-210.377 2.285 0 4.138 1.853 4.138 4.138s-1.853 4.138-4.138 4.138c-111.725 0-202.619 90.662-202.619 202.101 0 22.691 3.279 43.59 9.748 62.114.754 2.158-.385 4.518-2.543 5.271-.453.159-.913.233-1.365.233z" fill="#31373d"/><ellipse cx="165.751" cy="340.23" fill="#f9fbfc" rx="44.336" ry="44.336" transform="matrix(.999 -.045 .045 .999 -15.031 7.743)"/><path d="m511.961 418.682c.904-27.58-4.898-50.268-5.135-51.284-.492-2.107-2.525-3.48-4.662-3.148-41.04 6.352-85.833 7.802-133.542 4.35-3.358-11.972-6.853-24.995-10.474-39.047-8.938-34.689-17.018-69.351-22.609-94.132 7.895-2.555 15.845-5.11 23.416-7.544 81.743-26.272 93.16-30.788 95.194-34.806.555-1.097.651-2.328.27-3.466-31.814-95.095-120.695-158.987-221.171-158.987-62.303 0-120.877 24.262-164.932 68.317-44.054 44.055-68.316 102.629-68.316 164.932 0 26.19 3.798 50.373 11.288 71.88 8.995 25.827 39.673 84.224 77.087 99.886 12.577 5.266 27.487.32 41.906-4.463 12.407-4.115 25.237-8.371 35.972-5.987 12.824 2.847 25.322 11.314 38.552 20.278 11.107 7.525 22.593 15.307 35.168 20.336 8.285 3.314 17.171 4.957 26.038 4.957 11.018 0 22.008-2.538 31.768-7.558 16.534-8.505 28.136-23.382 32.669-41.89.651-2.658 1.082-5.159 1.351-7.544 13.522 1.779 28.221 3.576 43.518 5.227.449 1.328.894 2.627 1.335 3.902 13.547 39.106 21.131 45.826 26.224 47.312 12.935 3.773 34.946 8.435 54.962 10.347 6.205.593 11.772.89 16.717.89 15.475-.001 24.843-2.913 28.467-8.802 9.137-14.848 8.983-49.616 8.972-51.088-.002-.522-.011-2.772-.033-2.868zm-161.834-87.088c3.343 12.976 6.581 25.079 9.706 36.304-8.263-.697-16.602-1.522-25.03-2.509-.861-.1-1.634-.191-2.332-.266l-18.366-74.398c-.346-1.402-1.398-2.522-2.775-2.955l-45.803-14.42c2.165-8.474 4.539-13.99 5.911-15.258 3.274-2.569 28.473-11.083 56.194-20.106 5.6 24.788 13.625 59.182 22.495 93.608zm-151.395-26.845c3.371-10.33 9.64-29.067 13.568-39.48l43.491 13.692c-1.231 6.263-2.152 12.847-2.675 18.945-1.32 15.396-1.57 43.559 11.601 59.199 6.598 7.835 17.029 12.863 27.116 17.725 15.556 7.498 29.454 14.197 31.674 29.473-34.048-4.642-58.909-8.891-63.684-9.719l-50.634-32.873c3.217-6.479 5.036-13.77 5.036-21.482 0-13.998-5.972-26.622-15.493-35.48zm7.217 35.481c0 7.197-1.91 13.952-5.236 19.801-.509.654-.967 1.398-1.296 2.126-7.182 10.989-19.586 18.272-33.666 18.272-22.165 0-40.198-18.033-40.198-40.198s18.033-40.198 40.198-40.198 40.198 18.031 40.198 40.197zm9.395-82.679c1.23-2.946 2.327-5.31 3.193-6.755 4.173-5.531 54.348-26.709 102.048-44.685 1.036 4.805 2.838 13.085 5.227 23.768-38.362 12.474-56.442 18.863-59.93 22.082-3.174 2.93-6.028 10.146-8.269 18.896zm216.632-99.349-28.823 12.81c-7.429-15.597-20.112-31.966-28.728-43.085-3.104-4.006-6.548-8.451-7.983-10.717 3.116-3.043 13.337-9.742 23.025-15.422 16.876 16.256 31.283 35.233 42.509 56.414zm-109.565 261.134c-3.954 16.145-14.046 29.108-28.416 36.499-15.516 7.98-34.56 8.831-50.948 2.277-11.746-4.698-22.855-12.225-33.6-19.505-13.903-9.419-27.035-18.316-41.401-21.505-2.796-.621-5.637-.893-8.508-.893-10.445 0-21.295 3.599-31.863 7.104-13.57 4.501-26.385 8.753-36.104 4.684-1.169-.49-2.331-1.034-3.489-1.618 9.077-7.117 20.925-17.686 20.925-24.361 0-8.935-26.114-38.512-33.893-41.845-3.108-1.332-8.232-1.322-22.678 8.862-4.455 3.141-8.552 6.37-11.145 8.475-10.644-16.953-18.527-33.975-22.187-44.486-7.185-20.629-10.828-43.897-10.828-69.158 0-124.05 100.922-224.972 224.972-224.972 56.719 0 109.604 21.114 149.868 57.01-25.453 14.99-25.462 18.844-25.462 20.971 0 2.804 2.121 5.657 10.229 16.121 9.063 11.697 22.76 29.372 29.372 45.077.431 1.024 1.257 1.832 2.29 2.241.49.194 1.007.291 1.524.291.573 0 1.146-.119 1.681-.357l32.973-14.655c3.731 7.715 7.052 15.698 9.923 23.932-9.995 5.007-53.637 19.034-89.224 30.472-8.189 2.632-15.733 5.062-22.703 7.318-3.745-16.769-5.99-27.362-6.044-27.621-.249-1.179-1-2.191-2.056-2.771-1.057-.58-2.314-.671-3.442-.25-.258.096-26.068 9.756-52.252 20.467-54.129 22.143-57.041 26.997-58.44 29.33-4.801 8.002-15.47 39.974-19.692 52.906-7.529-4.816-16.461-7.622-26.042-7.622-26.729 0-48.474 21.745-48.474 48.474s21.745 48.474 48.474 48.474c16.059 0 30.311-7.855 39.137-19.918l51.138 33.2c.464.301.985.507 1.53.603.637.113 27.676 4.871 66.038 10.075-.22 2.093-.604 4.308-1.183 6.674zm9.587-13.892c-1.612-21.202-19.992-30.078-36.571-38.069-9.731-4.69-18.922-9.12-24.38-15.601-8.216-9.757-11.746-29.133-9.685-53.161.538-6.272 1.377-12.046 2.361-17.155l42.906 13.508 18.502 74.953c.17.75.547 1.455 1.113 2.021.898.898 2.128 1.31 3.333 1.193.745.065 2.462.266 4.264.476 9.568 1.12 19.024 2.035 28.384 2.785 3.578 12.561 6.999 23.909 10.245 33.965-14.214-1.567-27.866-3.25-40.472-4.915zm39.022-28.397c45.713 3.12 88.801 1.787 128.517-4.033 1.434 7.452 4.328 25.125 3.942 44.561-37 1.104-81.298-1.985-121.99-6.248-3.303-10.049-6.8-21.507-10.469-34.28zm124.955 91.252c-2.129 3.46-13.058 6.331-37.349 4.011-19.476-1.86-40.869-6.39-53.43-10.054-1.142-.333-7.505-3.926-20.719-42.067-.028-.082-.057-.164-.085-.247 39.938 4.088 83.056 6.996 119.284 5.921-.286 11.53-1.967 33.118-7.701 42.436z" fill="#31373d"/></g></svg>