<svg id="Capa_1" enable-background="new 0 0 498.012 498.012" height="512" viewBox="0 0 498.012 498.012" width="512" xmlns="http://www.w3.org/2000/svg"><g><path d="m213.172 32.018v34.992h71.668v-34.992h4.809c6.137 0 11.113-4.975 11.113-11.112v-5.793c0-6.138-4.976-11.113-11.113-11.113h-81.286c-6.137 0-11.113 4.976-11.113 11.113v5.793c0 6.137 4.975 11.112 11.113 11.112z" fill="#e9c278"/><ellipse cx="249.006" cy="279.121" fill="#eaa895" rx="214.891" ry="214.891" transform="matrix(.707 -.707 .707 .707 -124.436 257.826)"/><g fill="#f9fbfc"><path d="m450.202 203.498c-.598-1.59-1.211-3.174-1.845-4.746-.336.496-.532 1.094-.532 1.738-.001 1.462 1.015 2.68 2.377 3.008z"/><path d="m450.927 217.387c-1.713 0-3.102 1.389-3.102 3.102s1.389 3.102 3.102 3.102 3.102-1.389 3.102-3.102-1.389-3.102-3.102-3.102z"/><path d="m458.629 231.661c-.134-.592-.267-1.185-.406-1.776-.006.077-.023.15-.023.228.001.567.164 1.091.429 1.548z"/><path d="m450.927 237.387c-1.713 0-3.102 1.389-3.102 3.102s1.389 3.102 3.102 3.102 3.102-1.389 3.102-3.102-1.389-3.102-3.102-3.102z"/><path d="m461.303 247.011c-1.713 0-3.102 1.389-3.102 3.103 0 1.713 1.389 3.102 3.102 3.102.36 0 .7-.073 1.021-.186-.243-2.008-.518-4.007-.816-5.998-.069-.005-.135-.021-.205-.021z"/><path d="m450.927 257.387c-1.713 0-3.102 1.389-3.102 3.102s1.389 3.102 3.102 3.102 3.102-1.389 3.102-3.102-1.389-3.102-3.102-3.102z"/><path d="m461.303 267.011c-1.713 0-3.102 1.389-3.102 3.103 0 1.713 1.389 3.102 3.102 3.102 1.014 0 1.906-.494 2.472-1.246-.043-1.306-.097-2.609-.163-3.909-.567-.64-1.387-1.05-2.309-1.05z"/><path d="m450.927 277.387c-1.713 0-3.102 1.389-3.102 3.102s1.389 3.102 3.102 3.102 3.102-1.389 3.102-3.102-1.389-3.102-3.102-3.102z"/><path d="m461.303 287.011c-1.713 0-3.102 1.389-3.102 3.103 0 1.713 1.389 3.102 3.102 3.102.849 0 1.618-.343 2.178-.896.084-1.384.155-2.771.213-4.162-.57-.695-1.423-1.147-2.391-1.147z"/><path d="m450.927 297.387c-1.713 0-3.102 1.389-3.102 3.102s1.389 3.102 3.102 3.102 3.102-1.389 3.102-3.102-1.389-3.102-3.102-3.102z"/><path d="m461.303 307.011c-1.713 0-3.102 1.389-3.102 3.103 0 1.676 1.332 3.033 2.995 3.091.322-2.019.621-4.046.886-6.083-.251-.065-.508-.111-.779-.111z"/><path d="m450.927 317.387c-1.713 0-3.102 1.389-3.102 3.102s1.389 3.102 3.102 3.102 3.102-1.389 3.102-3.102-1.389-3.102-3.102-3.102z"/><path d="m450.927 337.387c-1.713 0-3.102 1.389-3.102 3.102s1.389 3.102 3.102 3.102 3.102-1.389 3.102-3.102-1.389-3.102-3.102-3.102z"/><path d="m447.824 360.49c0 .077.017.15.023.226.348-.848.703-1.693 1.041-2.547-.647.568-1.064 1.392-1.064 2.321z"/><path d="m430.149 163.481c-.747-1.167-1.507-2.325-2.276-3.476-.025.159-.049.318-.049.484 0 1.444.99 2.646 2.325 2.992z"/><path d="m430.927 177.387c-1.713 0-3.102 1.389-3.102 3.102s1.389 3.102 3.102 3.102 3.102-1.389 3.102-3.102-1.389-3.102-3.102-3.102z"/><path d="m441.303 187.011c-1.713 0-3.102 1.389-3.102 3.103 0 1.713 1.389 3.102 3.102 3.102s3.102-1.389 3.102-3.102c0-.257-.04-.503-.099-.742-.167-.362-.337-.722-.505-1.083-.565-.772-1.469-1.278-2.498-1.278z"/><path d="m430.927 197.387c-1.713 0-3.102 1.389-3.102 3.102s1.389 3.102 3.102 3.102 3.102-1.389 3.102-3.102-1.389-3.102-3.102-3.102z"/><path d="m441.303 207.011c-1.713 0-3.102 1.389-3.102 3.103 0 1.713 1.389 3.102 3.102 3.102s3.102-1.389 3.102-3.102c0-1.714-1.389-3.103-3.102-3.103z"/><path d="m430.927 217.387c-1.713 0-3.102 1.389-3.102 3.102s1.389 3.102 3.102 3.102 3.102-1.389 3.102-3.102-1.389-3.102-3.102-3.102z"/><path d="m441.303 227.011c-1.713 0-3.102 1.389-3.102 3.103 0 1.713 1.389 3.102 3.102 3.102s3.102-1.389 3.102-3.102c0-1.714-1.389-3.103-3.102-3.103z"/><path d="m430.927 237.387c-1.713 0-3.102 1.389-3.102 3.102s1.389 3.102 3.102 3.102 3.102-1.389 3.102-3.102-1.389-3.102-3.102-3.102z"/><path d="m441.303 247.011c-1.713 0-3.102 1.389-3.102 3.103 0 1.713 1.389 3.102 3.102 3.102s3.102-1.389 3.102-3.102c0-1.714-1.389-3.103-3.102-3.103z"/><path d="m430.927 257.387c-1.713 0-3.102 1.389-3.102 3.102s1.389 3.102 3.102 3.102 3.102-1.389 3.102-3.102-1.389-3.102-3.102-3.102z"/><path d="m441.303 267.011c-1.713 0-3.102 1.389-3.102 3.103 0 1.713 1.389 3.102 3.102 3.102s3.102-1.389 3.102-3.102c0-1.714-1.389-3.103-3.102-3.103z"/><path d="m430.927 277.387c-1.713 0-3.102 1.389-3.102 3.102s1.389 3.102 3.102 3.102 3.102-1.389 3.102-3.102-1.389-3.102-3.102-3.102z"/><path d="m441.303 287.011c-1.713 0-3.102 1.389-3.102 3.103 0 1.713 1.389 3.102 3.102 3.102s3.102-1.389 3.102-3.102c0-1.714-1.389-3.103-3.102-3.103z"/><path d="m430.927 297.387c-1.713 0-3.102 1.389-3.102 3.102s1.389 3.102 3.102 3.102 3.102-1.389 3.102-3.102-1.389-3.102-3.102-3.102z"/><path d="m441.303 307.011c-1.713 0-3.102 1.389-3.102 3.103 0 1.713 1.389 3.102 3.102 3.102s3.102-1.389 3.102-3.102c0-1.714-1.389-3.103-3.102-3.103z"/><path d="m430.927 317.387c-1.713 0-3.102 1.389-3.102 3.102s1.389 3.102 3.102 3.102 3.102-1.389 3.102-3.102-1.389-3.102-3.102-3.102z"/><path d="m441.303 327.011c-1.713 0-3.102 1.389-3.102 3.103 0 1.713 1.389 3.102 3.102 3.102s3.102-1.389 3.102-3.102c0-1.714-1.389-3.103-3.102-3.103z"/><path d="m430.927 337.387c-1.713 0-3.102 1.389-3.102 3.102s1.389 3.102 3.102 3.102 3.102-1.389 3.102-3.102-1.389-3.102-3.102-3.102z"/><path d="m441.303 347.011c-1.713 0-3.102 1.389-3.102 3.103 0 1.713 1.389 3.102 3.102 3.102s3.102-1.389 3.102-3.102c0-1.714-1.389-3.103-3.102-3.103z"/><path d="m430.927 357.387c-1.713 0-3.102 1.389-3.102 3.102s1.389 3.102 3.102 3.102 3.102-1.389 3.102-3.102-1.389-3.102-3.102-3.102z"/><path d="m441.303 367.011c-1.713 0-3.102 1.389-3.102 3.103 0 1.713 1.389 3.102 3.102 3.102.365 0 .71-.075 1.035-.19.639-1.313 1.26-2.635 1.872-3.963-.432-1.194-1.564-2.052-2.907-2.052z"/><path d="m430.927 377.387c-1.713 0-3.102 1.389-3.102 3.102s1.389 3.102 3.102 3.102 3.102-1.389 3.102-3.102-1.389-3.102-3.102-3.102z"/><path d="m407.824 140.49c0 1.713 1.389 3.102 3.102 3.102 1.418 0 2.6-.956 2.97-2.255-1.102-1.317-2.219-2.621-3.351-3.911-1.531.19-2.721 1.481-2.721 3.064z"/><path d="m418.201 150.113c0 1.713 1.389 3.102 3.102 3.102.563 0 1.084-.162 1.539-.423-1.205-1.655-2.434-3.293-3.685-4.911-.587.564-.956 1.353-.956 2.232z"/><path d="m410.927 163.592c1.713 0 3.102-1.389 3.102-3.102s-1.389-3.102-3.102-3.102-3.102 1.389-3.102 3.102 1.388 3.102 3.102 3.102z"/><path d="m421.303 167.011c-1.713 0-3.102 1.389-3.102 3.103 0 1.713 1.389 3.102 3.102 3.102s3.102-1.389 3.102-3.102c0-1.714-1.389-3.103-3.102-3.103z"/><path d="m410.927 183.592c1.713 0 3.102-1.389 3.102-3.102s-1.389-3.102-3.102-3.102c-1.079 0-2.028.553-2.584 1.389.521 1.53 1.023 3.068 1.51 4.613.336.124.695.202 1.074.202z"/><path d="m421.303 187.011c-1.713 0-3.102 1.389-3.102 3.103 0 1.713 1.389 3.102 3.102 3.102s3.102-1.389 3.102-3.102c0-1.714-1.389-3.103-3.102-3.103z"/><path d="m421.303 207.011c-1.713 0-3.102 1.389-3.102 3.103 0 1.713 1.389 3.102 3.102 3.102s3.102-1.389 3.102-3.102c0-1.714-1.389-3.103-3.102-3.103z"/><path d="m421.303 227.011c-1 0-1.879.482-2.447 1.215.127 1.381.242 2.766.342 4.154.554.515 1.29.835 2.105.835 1.713 0 3.102-1.389 3.102-3.102s-1.389-3.102-3.102-3.102z"/><path d="m421.303 247.011c-.56 0-1.078.16-1.532.42.001.216.009.43.009.645 0 1.568-.026 3.131-.06 4.692.465.278 1.002.447 1.583.447 1.713 0 3.102-1.389 3.102-3.102s-1.389-3.102-3.102-3.102z"/><path d="m421.303 267.011c-1.015 0-1.908.495-2.474 1.248-.099 1.063-.204 2.125-.318 3.184.499 1.045 1.557 1.772 2.792 1.772 1.713 0 3.102-1.389 3.102-3.102s-1.389-3.102-3.102-3.102z"/><path d="m421.303 287.011c-1.713 0-3.102 1.389-3.102 3.103 0 1.713 1.389 3.102 3.102 3.102s3.102-1.389 3.102-3.102c0-1.714-1.389-3.103-3.102-3.103z"/><path d="m414.029 300.49c0-.512-.136-.987-.355-1.412-.324 1.33-.656 2.657-1.005 3.978.821-.559 1.36-1.499 1.36-2.566z"/><path d="m421.303 307.011c-1.713 0-3.102 1.389-3.102 3.103 0 1.713 1.389 3.102 3.102 3.102s3.102-1.389 3.102-3.102c0-1.714-1.389-3.103-3.102-3.103z"/><path d="m410.927 317.387c-1.713 0-3.102 1.389-3.102 3.102s1.389 3.102 3.102 3.102 3.102-1.389 3.102-3.102-1.389-3.102-3.102-3.102z"/><path d="m421.303 327.011c-1.713 0-3.102 1.389-3.102 3.103 0 1.713 1.389 3.102 3.102 3.102s3.102-1.389 3.102-3.102c0-1.714-1.389-3.103-3.102-3.103z"/><path d="m410.927 337.387c-1.713 0-3.102 1.389-3.102 3.102s1.389 3.102 3.102 3.102 3.102-1.389 3.102-3.102-1.389-3.102-3.102-3.102z"/><path d="m421.303 347.011c-1.713 0-3.102 1.389-3.102 3.103 0 1.713 1.389 3.102 3.102 3.102s3.102-1.389 3.102-3.102c0-1.714-1.389-3.103-3.102-3.103z"/><path d="m410.927 357.387c-1.713 0-3.102 1.389-3.102 3.102s1.389 3.102 3.102 3.102 3.102-1.389 3.102-3.102-1.389-3.102-3.102-3.102z"/><path d="m421.303 367.011c-1.713 0-3.102 1.389-3.102 3.103 0 1.713 1.389 3.102 3.102 3.102s3.102-1.389 3.102-3.102c0-1.714-1.389-3.103-3.102-3.103z"/><path d="m410.927 377.387c-1.713 0-3.102 1.389-3.102 3.102s1.389 3.102 3.102 3.102 3.102-1.389 3.102-3.102-1.389-3.102-3.102-3.102z"/><path d="m421.303 387.011c-1.713 0-3.102 1.389-3.102 3.103 0 1.713 1.389 3.102 3.102 3.102s3.102-1.389 3.102-3.102c0-1.714-1.389-3.103-3.102-3.103z"/><path d="m410.927 397.387c-1.713 0-3.102 1.389-3.102 3.102s1.389 3.102 3.102 3.102 3.102-1.389 3.102-3.102-1.389-3.102-3.102-3.102z"/><path d="m418.201 410.113c0 .421.086.822.238 1.188 1.096-1.403 2.175-2.822 3.237-4.253-.124-.015-.245-.038-.372-.038-1.714.001-3.103 1.39-3.103 3.103z"/><path d="m407.824 420.49c0 .899.389 1.703 1.001 2.27 1.377-1.531 2.729-3.085 4.062-4.655-.536-.441-1.213-.717-1.961-.717-1.713-.001-3.102 1.388-3.102 3.102z"/><path d="m387.824 120.49c0 1.713 1.389 3.102 3.102 3.102 1.689 0 3.056-1.351 3.095-3.031-1.155-1.057-2.319-2.102-3.497-3.133-1.521.199-2.7 1.486-2.7 3.062z"/><path d="m398.201 130.113c0 1.713 1.389 3.102 3.102 3.102 1.524 0 2.785-1.101 3.047-2.55-1.162-1.215-2.337-2.419-3.527-3.606-1.484.233-2.622 1.505-2.622 3.054z"/><path d="m390.927 137.387c-.575 0-1.107.167-1.568.44 1.058 1.766 2.092 3.547 3.1 5.345.934-.535 1.571-1.529 1.571-2.683-.001-1.713-1.39-3.102-3.103-3.102z"/><path d="m404.405 150.113c0-1.713-1.389-3.103-3.102-3.103s-3.102 1.389-3.102 3.103c0 1.713 1.389 3.102 3.102 3.102s3.102-1.388 3.102-3.102z"/><path d="m404.405 330.113c0-.479-.118-.927-.311-1.333-.578 1.424-1.167 2.841-1.774 4.25 1.211-.422 2.085-1.562 2.085-2.917z"/><path d="m401.303 347.011c-1.713 0-3.102 1.389-3.102 3.103 0 1.713 1.389 3.102 3.102 3.102s3.102-1.389 3.102-3.102c0-1.714-1.389-3.103-3.102-3.103z"/><path d="m390.927 363.592c1.713 0 3.102-1.389 3.102-3.102s-1.389-3.102-3.102-3.102c-.402 0-.784.082-1.137.222-.636 1.071-1.279 2.138-1.934 3.198.161 1.561 1.466 2.784 3.071 2.784z"/><path d="m401.303 367.011c-1.713 0-3.102 1.389-3.102 3.103 0 1.713 1.389 3.102 3.102 3.102s3.102-1.389 3.102-3.102c0-1.714-1.389-3.103-3.102-3.103z"/><path d="m390.927 377.387c-1.713 0-3.102 1.389-3.102 3.102s1.389 3.102 3.102 3.102 3.102-1.389 3.102-3.102-1.389-3.102-3.102-3.102z"/><path d="m401.303 387.011c-1.713 0-3.102 1.389-3.102 3.103 0 1.713 1.389 3.102 3.102 3.102s3.102-1.389 3.102-3.102c0-1.714-1.389-3.103-3.102-3.103z"/><path d="m390.927 397.387c-1.713 0-3.102 1.389-3.102 3.102s1.389 3.102 3.102 3.102 3.102-1.389 3.102-3.102-1.389-3.102-3.102-3.102z"/><path d="m401.303 407.011c-1.713 0-3.102 1.389-3.102 3.103 0 1.713 1.389 3.102 3.102 3.102s3.102-1.389 3.102-3.102c0-1.714-1.389-3.103-3.102-3.103z"/><path d="m390.927 417.387c-1.713 0-3.102 1.389-3.102 3.102s1.389 3.102 3.102 3.102 3.102-1.389 3.102-3.102-1.389-3.102-3.102-3.102z"/><path d="m401.303 427.011c-1.713 0-3.102 1.389-3.102 3.103 0 1.004.485 1.887 1.224 2.454 1.459-1.43 2.9-2.878 4.318-4.349-.568-.731-1.444-1.208-2.44-1.208z"/><path d="m390.927 437.387c-1.713 0-3.102 1.389-3.102 3.102 0 .772.292 1.468.758 2.011 1.566-1.339 3.117-2.694 4.643-4.076-.568-.632-1.383-1.037-2.299-1.037z"/><path d="m367.824 100.49c0 1.713 1.389 3.102 3.102 3.102.54 0 1.039-.15 1.481-.392-1.501-1.055-3.013-2.095-4.543-3.113-.017.133-.04.265-.04.403z"/><path d="m381.303 113.215c1.072 0 2.017-.544 2.574-1.372-1.602-1.293-3.221-2.564-4.861-3.812-.502.551-.816 1.277-.816 2.082.001 1.714 1.39 3.102 3.103 3.102z"/><path d="m382.659 127.335c.581.853 1.157 1.708 1.726 2.57-.077-1.134-.755-2.094-1.726-2.57z"/><path d="m381.303 373.215c1.713 0 3.102-1.389 3.102-3.102 0-.922-.41-1.741-1.049-2.31-1.141 1.698-2.306 3.378-3.494 5.042.433.229.918.37 1.441.37z"/><path d="m374.011 380.662c-.741.943-1.498 1.872-2.254 2.803 1.253-.35 2.179-1.457 2.254-2.803z"/><path d="m381.303 387.011c-1.713 0-3.102 1.389-3.102 3.103 0 1.713 1.389 3.102 3.102 3.102s3.102-1.389 3.102-3.102c0-1.714-1.389-3.103-3.102-3.103z"/><path d="m370.927 397.387c-1.713 0-3.102 1.389-3.102 3.102s1.389 3.102 3.102 3.102 3.102-1.389 3.102-3.102-1.389-3.102-3.102-3.102z"/><path d="m381.303 407.011c-1.713 0-3.102 1.389-3.102 3.103 0 1.713 1.389 3.102 3.102 3.102s3.102-1.389 3.102-3.102c0-1.714-1.389-3.103-3.102-3.103z"/><path d="m370.927 417.387c-1.713 0-3.102 1.389-3.102 3.102s1.389 3.102 3.102 3.102 3.102-1.389 3.102-3.102-1.389-3.102-3.102-3.102z"/><path d="m381.303 427.011c-1.713 0-3.102 1.389-3.102 3.103 0 1.713 1.389 3.102 3.102 3.102s3.102-1.389 3.102-3.102c0-1.714-1.389-3.103-3.102-3.103z"/><path d="m370.927 437.387c-1.713 0-3.102 1.389-3.102 3.102s1.389 3.102 3.102 3.102 3.102-1.389 3.102-3.102-1.389-3.102-3.102-3.102z"/><path d="m378.201 450.113c0 .231.029.454.077.671 1.489-1.123 2.961-2.267 4.42-3.428-.421-.213-.89-.345-1.394-.345-1.714 0-3.103 1.389-3.103 3.102z"/><path d="m361.303 407.011c-1.713 0-3.102 1.389-3.102 3.103 0 1.713 1.389 3.102 3.102 3.102s3.102-1.389 3.102-3.102c0-1.714-1.389-3.103-3.102-3.103z"/><path d="m350.927 417.387c-1.713 0-3.102 1.389-3.102 3.102s1.389 3.102 3.102 3.102 3.102-1.389 3.102-3.102-1.389-3.102-3.102-3.102z"/><path d="m361.303 427.011c-1.713 0-3.102 1.389-3.102 3.103 0 1.713 1.389 3.102 3.102 3.102s3.102-1.389 3.102-3.102c0-1.714-1.389-3.103-3.102-3.103z"/><path d="m350.927 437.387c-1.713 0-3.102 1.389-3.102 3.102s1.389 3.102 3.102 3.102 3.102-1.389 3.102-3.102-1.389-3.102-3.102-3.102z"/><path d="m361.303 447.011c-1.713 0-3.102 1.389-3.102 3.103 0 1.713 1.389 3.102 3.102 3.102s3.102-1.389 3.102-3.102c0-1.714-1.389-3.103-3.102-3.103z"/><path d="m350.927 457.387c-1.713 0-3.102 1.389-3.102 3.102s1.389 3.102 3.102 3.102 3.102-1.389 3.102-3.102-1.389-3.102-3.102-3.102z"/><path d="m343.583 412.202c-.206.174-.412.35-.619.523.23-.146.436-.323.619-.523z"/><path d="m334.029 420.49c0-.206-.022-.407-.061-.602-1.492 1.123-2.997 2.23-4.518 3.314.441.241.939.39 1.477.39 1.713 0 3.102-1.389 3.102-3.102z"/><path d="m341.303 427.011c-1.713 0-3.102 1.389-3.102 3.103 0 1.713 1.389 3.102 3.102 3.102s3.102-1.389 3.102-3.102c0-1.714-1.389-3.103-3.102-3.103z"/><path d="m330.927 437.387c-1.713 0-3.102 1.389-3.102 3.102s1.389 3.102 3.102 3.102 3.102-1.389 3.102-3.102-1.389-3.102-3.102-3.102z"/><path d="m341.303 447.011c-1.713 0-3.102 1.389-3.102 3.103 0 1.713 1.389 3.102 3.102 3.102s3.102-1.389 3.102-3.102c0-1.714-1.389-3.103-3.102-3.103z"/><path d="m330.927 457.387c-1.713 0-3.102 1.389-3.102 3.102s1.389 3.102 3.102 3.102 3.102-1.389 3.102-3.102-1.389-3.102-3.102-3.102z"/><path d="m341.303 467.011c-1.713 0-3.102 1.389-3.102 3.103 0 1.713 1.389 3.102 3.102 3.102.01 0 .018-.003.028-.003.793-.378 1.581-.764 2.368-1.152.434-.534.706-1.206.706-1.947 0-1.714-1.389-3.103-3.102-3.103z"/><path d="m328.267 478.915c1.158-.46 2.309-.933 3.456-1.412-.256-.068-.519-.116-.796-.116-1.137 0-2.12.618-2.66 1.528z"/><path d="m321.303 433.215c1.713 0 3.102-1.389 3.102-3.102 0-1.058-.531-1.989-1.34-2.549-1.589 1.048-3.193 2.076-4.811 3.083.255 1.458 1.519 2.568 3.049 2.568z"/><path d="m310.927 437.387c-1.713 0-3.102 1.389-3.102 3.102s1.389 3.102 3.102 3.102 3.102-1.389 3.102-3.102-1.389-3.102-3.102-3.102z"/><path d="m321.303 447.011c-1.713 0-3.102 1.389-3.102 3.103 0 1.713 1.389 3.102 3.102 3.102s3.102-1.389 3.102-3.102c0-1.714-1.389-3.103-3.102-3.103z"/><path d="m310.927 457.387c-1.713 0-3.102 1.389-3.102 3.102s1.389 3.102 3.102 3.102 3.102-1.389 3.102-3.102-1.389-3.102-3.102-3.102z"/><path d="m321.303 467.011c-1.713 0-3.102 1.389-3.102 3.103 0 1.713 1.389 3.102 3.102 3.102s3.102-1.389 3.102-3.102c0-1.714-1.389-3.103-3.102-3.103z"/><path d="m310.927 477.387c-1.713 0-3.102 1.389-3.102 3.102s1.389 3.102 3.102 3.102 3.102-1.389 3.102-3.102-1.389-3.102-3.102-3.102z"/><path d="m301.303 447.011c-1.713 0-3.102 1.389-3.102 3.103 0 1.713 1.389 3.102 3.102 3.102s3.102-1.389 3.102-3.102c0-1.714-1.389-3.103-3.102-3.103z"/><path d="m290.927 457.387c-1.713 0-3.102 1.389-3.102 3.102s1.389 3.102 3.102 3.102 3.102-1.389 3.102-3.102-1.389-3.102-3.102-3.102z"/><path d="m301.303 467.011c-1.713 0-3.102 1.389-3.102 3.103 0 1.713 1.389 3.102 3.102 3.102s3.102-1.389 3.102-3.102c0-1.714-1.389-3.103-3.102-3.103z"/><path d="m290.927 477.387c-1.713 0-3.102 1.389-3.102 3.102s1.389 3.102 3.102 3.102 3.102-1.389 3.102-3.102-1.389-3.102-3.102-3.102z"/><path d="m301.303 487.011c-.977 0-1.837.46-2.406 1.166 1.224-.291 2.449-.582 3.665-.894-.385-.172-.81-.272-1.259-.272z"/><path d="m281.303 453.215c1.713 0 3.102-1.389 3.102-3.102 0-.781-.298-1.486-.775-2.032-1.797.708-3.608 1.387-5.428 2.048.009 1.706 1.393 3.086 3.101 3.086z"/><path d="m270.927 457.387c-1.713 0-3.102 1.389-3.102 3.102s1.389 3.102 3.102 3.102 3.102-1.389 3.102-3.102-1.389-3.102-3.102-3.102z"/><path d="m281.303 467.011c-1.713 0-3.102 1.389-3.102 3.103 0 1.713 1.389 3.102 3.102 3.102s3.102-1.389 3.102-3.102c0-1.714-1.389-3.103-3.102-3.103z"/><path d="m270.927 477.387c-1.713 0-3.102 1.389-3.102 3.102s1.389 3.102 3.102 3.102 3.102-1.389 3.102-3.102-1.389-3.102-3.102-3.102z"/><path d="m284.405 490.113c0-1.713-1.389-3.103-3.102-3.103s-3.102 1.389-3.102 3.103c0 .688.231 1.317.61 1.831 1.811-.251 3.616-.525 5.412-.821.11-.318.182-.654.182-1.01z"/><path d="m250.926 463.592c1.713 0 3.102-1.389 3.102-3.102 0-1.225-.716-2.274-1.746-2.778-1.243.28-2.488.556-3.739.814-.443.536-.719 1.215-.719 1.964 0 1.713 1.389 3.102 3.102 3.102z"/><path d="m261.303 467.011c-1.713 0-3.102 1.389-3.102 3.103 0 1.713 1.389 3.102 3.102 3.102s3.102-1.389 3.102-3.102c0-1.714-1.389-3.103-3.102-3.103z"/><path d="m250.926 477.387c-1.713 0-3.102 1.389-3.102 3.102s1.389 3.102 3.102 3.102 3.102-1.389 3.102-3.102c.001-1.713-1.388-3.102-3.102-3.102z"/><path d="m261.303 487.011c-1.713 0-3.102 1.389-3.102 3.103 0 1.713 1.389 3.102 3.102 3.102s3.102-1.389 3.102-3.102c0-1.714-1.389-3.103-3.102-3.103z"/><path d="m230.926 463.592c1.539 0 2.806-1.123 3.051-2.592-1.958.265-3.924.506-5.898.718.476 1.102 1.571 1.874 2.847 1.874z"/><path d="m241.303 467.011c-1.713 0-3.102 1.389-3.102 3.103 0 1.713 1.389 3.102 3.102 3.102s3.102-1.389 3.102-3.102c0-1.714-1.389-3.103-3.102-3.103z"/><path d="m230.926 477.387c-1.713 0-3.102 1.389-3.102 3.102s1.389 3.102 3.102 3.102 3.102-1.389 3.102-3.102c.001-1.713-1.388-3.102-3.102-3.102z"/><path d="m241.303 487.011c-1.713 0-3.102 1.389-3.102 3.103 0 1.713 1.389 3.102 3.102 3.102s3.102-1.389 3.102-3.102c0-1.714-1.389-3.103-3.102-3.103z"/><path d="m212.979 462.8c-1.319.049-2.64.09-3.965.115.529.418 1.187.677 1.913.677.79 0 1.504-.305 2.052-.792z"/><path d="m218.201 470.113c0 1.713 1.389 3.102 3.102 3.102s3.102-1.389 3.102-3.102-1.389-3.103-3.102-3.103c-1.713.001-3.102 1.39-3.102 3.103z"/><path d="m210.926 483.592c1.713 0 3.102-1.389 3.102-3.102s-1.389-3.102-3.102-3.102-3.102 1.389-3.102 3.102 1.389 3.102 3.102 3.102z"/><path d="m224.405 490.113c0-1.713-1.389-3.103-3.102-3.103s-3.102 1.389-3.102 3.103c0 .664.213 1.277.569 1.782 1.498.211 3 .412 4.508.592.683-.569 1.127-1.415 1.127-2.374z"/><path d="m190.926 463.592c.881 0 1.672-.371 2.236-.961-1.582-.085-3.158-.192-4.73-.312.565.768 1.468 1.273 2.494 1.273z"/><path d="m198.201 470.113c0 1.713 1.389 3.102 3.102 3.102s3.102-1.389 3.102-3.102-1.389-3.103-3.102-3.103c-1.713.001-3.102 1.39-3.102 3.103z"/><path d="m190.926 477.387c-1.713 0-3.102 1.389-3.102 3.102s1.389 3.102 3.102 3.102 3.102-1.389 3.102-3.102c.001-1.713-1.388-3.102-3.102-3.102z"/><path d="m201.303 487.011c-.959 0-1.806.445-2.375 1.129 1.781.425 3.572.824 5.37 1.205-.344-1.34-1.549-2.334-2.995-2.334z"/><path d="m170.926 463.592c1.629 0 2.95-1.259 3.077-2.855-2.038-.293-4.067-.617-6.087-.968-.056.232-.093.472-.093.721.001 1.713 1.39 3.102 3.103 3.102z"/><path d="m178.201 470.113c0 1.713 1.389 3.102 3.102 3.102s3.102-1.389 3.102-3.102-1.389-3.103-3.102-3.103c-1.713.001-3.102 1.39-3.102 3.103z"/><path d="m170.926 477.387c-.929 0-1.753.417-2.321 1.064 1.794.725 3.598 1.43 5.416 2.107.001-.023.007-.045.007-.068.001-1.714-1.388-3.103-3.102-3.103z"/><path d="m147.824 460.49c0 1.713 1.389 3.102 3.102 3.102s3.102-1.389 3.102-3.102-1.389-3.102-3.102-3.102-3.102 1.388-3.102 3.102z"/><path d="m158.201 470.113c0 1.713 1.389 3.102 3.102 3.102s3.102-1.389 3.102-3.102-1.389-3.103-3.102-3.103c-1.713.001-3.102 1.39-3.102 3.103z"/><path d="m130.926 457.387c-.509 0-.982.134-1.406.352 1.484.995 2.98 1.973 4.49 2.931.003-.061.018-.119.018-.18.001-1.714-1.388-3.103-3.102-3.103z"/><path d="m113.288 442.479c-1.812-.855-3.61-1.734-5.394-2.639-.045.21-.07.426-.07.649 0 .248.036.485.091.716.915.797 1.844 1.58 2.773 2.362.08.006.156.024.238.024.952.001 1.793-.437 2.362-1.112z"/><path d="m124.405 450.113c0-1.713-1.389-3.103-3.102-3.103-1.554 0-2.829 1.146-3.055 2.637 1.441 1.107 2.894 2.199 4.364 3.27 1.056-.495 1.793-1.56 1.793-2.804z"/></g><ellipse cx="249.006" cy="279.121" fill="#f9fbfc" rx="153.584" ry="153.584" transform="matrix(.707 -.707 .707 .707 -124.436 257.826)"/><ellipse cx="249.006" cy="279.121" fill="#e9c278" rx="22.182" ry="22.182" transform="matrix(.942 -.334 .334 .942 -79.01 99.349)"/><g fill="#31373d"><path d="m321.367 207.195c-1.562-1.562-4.095-1.562-5.657 0l-50.995 50.995c-4.379-3.294-9.819-5.251-15.709-5.251-14.437 0-26.182 11.745-26.182 26.182 0 14.436 11.745 26.182 26.182 26.182 14.436 0 26.182-11.745 26.182-26.182 0-5.667-1.815-10.914-4.887-15.204l51.066-51.066c1.562-1.561 1.562-4.094 0-5.656zm-72.361 90.108c-10.026 0-18.182-8.156-18.182-18.182 0-10.025 8.156-18.182 18.182-18.182 10.025 0 18.182 8.156 18.182 18.182s-8.157 18.182-18.182 18.182z"/><path d="m249.006 121.537c-86.892 0-157.584 70.691-157.584 157.584s70.692 157.584 157.584 157.584 157.584-70.691 157.584-157.584-70.692-157.584-157.584-157.584zm3.671 307.121v-34.461c0-2.209-1.791-4-4-4s-4 1.791-4 4v34.441c-79.208-2.263-143.193-66.399-145.206-145.668h35.215c2.209 0 4-1.791 4-4s-1.791-4-4-4h-35.204c2.167-79.13 66.087-143.107 145.195-145.367v35.72c0 2.209 1.791 4 4 4s4-1.791 4-4v-35.74c79.937 1.935 144.523 66.891 145.88 146.967h-35.89c-2.209 0-4 1.791-4 4s1.791 4 4 4h35.813c-2.825 78.758-66.82 142.196-145.803 144.108z"/><path d="m408.215 128.913 12.72-15.112c5.872-6.978 4.973-17.431-2.003-23.303l-35.646-30.004c-3.379-2.845-7.662-4.208-12.065-3.824-4.401.378-8.392 2.448-11.236 5.827l-16.175 19.216c-17.384-8.365-35.843-14.362-54.971-17.863v-27.832h.81c8.333 0 15.112-6.779 15.112-15.112v-5.793c0-8.334-6.779-15.113-15.112-15.113h-81.286c-8.333 0-15.113 6.779-15.113 15.112v5.793c0 8.333 6.78 15.112 15.113 15.112h.809v27.833c-19.103 3.497-37.538 9.482-54.903 17.831l-16.242-19.297c-2.845-3.379-6.835-5.449-11.236-5.827-4.402-.385-8.687.979-12.065 3.824l-35.647 30.004c-6.977 5.872-7.874 16.325-2.002 23.303l12.77 15.171c-38.563 40.789-59.731 93.897-59.731 150.263 0 58.468 22.769 113.436 64.111 154.779 41.343 41.343 96.312 64.111 154.779 64.111 58.468 0 113.436-22.769 154.779-64.111 41.343-41.344 64.112-96.312 64.112-154.779 0-56.342-21.15-109.427-59.682-150.209zm-199.852-100.896c-3.922 0-7.113-3.19-7.113-7.112v-5.793c0-3.922 3.191-7.112 7.113-7.112h81.286c3.922 0 7.112 3.19 7.112 7.112v5.793c0 3.922-3.19 7.112-7.112 7.112zm8.809 8.001h63.667v26.511c-10.451-1.516-21.082-2.298-31.833-2.298-10.752 0-21.382.782-31.834 2.298zm31.834 453.994c-116.286 0-210.891-94.605-210.891-210.891s94.605-210.891 210.891-210.891 210.891 94.606 210.891 210.891-94.605 210.891-210.891 210.891z"/></g></g></svg>