<svg id="Capa_1" enable-background="new 0 0 511.923 511.923" height="512" viewBox="0 0 511.923 511.923" width="512" xmlns="http://www.w3.org/2000/svg"><g><path d="m256.51 258.296h-57.425c-5.176 0-8.537-5.453-6.211-10.077l38.684-74.031c1.181-2.347 3.584-3.828 6.211-3.828h57.425c5.176 0 8.537 5.453 6.211 10.077l-38.684 74.031c-1.18 2.347-3.583 3.828-6.211 3.828z" fill="#eaa895"/><path d="m66.296 411.043h136.445c34.262 0 62.037-27.775 62.037-62.036v-104.602h-198.482c-34.262 0-62.036 27.775-62.036 62.036v42.565c-.001 34.262 27.774 62.037 62.036 62.037z" fill="#e9c278"/><g fill="#f9fbfc"><path d="m255.018 247.042c1.554 0 2.829-1.146 3.055-2.637h-6.111c.226 1.491 1.502 2.637 3.056 2.637z"/><path d="m264.778 256.603v-6.08c-1.418.286-2.486 1.538-2.486 3.04s1.068 2.754 2.486 3.04z"/><path d="m255.018 260.837c-1.713 0-3.102 1.389-3.102 3.102s1.389 3.102 3.102 3.102 3.102-1.389 3.102-3.102-1.389-3.102-3.102-3.102z"/><path d="m264.778 276.603v-6.08c-1.418.286-2.486 1.538-2.486 3.04s1.068 2.754 2.486 3.04z"/><path d="m255.018 280.837c-1.713 0-3.102 1.389-3.102 3.102s1.389 3.102 3.102 3.102 3.102-1.389 3.102-3.102-1.389-3.102-3.102-3.102z"/><path d="m264.778 296.603v-6.08c-1.418.286-2.486 1.538-2.486 3.04s1.068 2.754 2.486 3.04z"/><path d="m255.018 300.837c-1.713 0-3.102 1.389-3.102 3.102s1.389 3.102 3.102 3.102 3.102-1.389 3.102-3.102-1.389-3.102-3.102-3.102z"/><path d="m264.778 316.603v-6.08c-1.418.286-2.486 1.538-2.486 3.04s1.068 2.754 2.486 3.04z"/><path d="m255.018 320.837c-1.713 0-3.102 1.389-3.102 3.102s1.389 3.102 3.102 3.102 3.102-1.389 3.102-3.102-1.389-3.102-3.102-3.102z"/><path d="m264.778 336.603v-6.08c-1.418.286-2.486 1.538-2.486 3.04s1.068 2.754 2.486 3.04z"/><path d="m255.018 340.837c-1.713 0-3.102 1.389-3.102 3.102s1.389 3.102 3.102 3.102 3.102-1.389 3.102-3.102-1.389-3.102-3.102-3.102z"/><path d="m262.292 353.563c0 1.333.845 2.459 2.024 2.898.234-1.95.374-3.927.423-5.928-1.398.301-2.447 1.542-2.447 3.03z"/><path d="m255.018 360.837c-1.713 0-3.102 1.389-3.102 3.102s1.389 3.102 3.102 3.102 3.102-1.389 3.102-3.102-1.389-3.102-3.102-3.102z"/><path d="m251.915 383.94c0 .742.271 1.414.706 1.948 1.17-1.58 2.267-3.216 3.285-4.905-.283-.085-.578-.145-.889-.145-1.713-.001-3.102 1.388-3.102 3.102z"/><path d="m245.394 250.461c-1.713 0-3.102 1.389-3.102 3.103 0 1.713 1.389 3.102 3.102 3.102s3.102-1.389 3.102-3.102c0-1.714-1.389-3.103-3.102-3.103z"/><path d="m245.394 270.461c-1.713 0-3.102 1.389-3.102 3.103 0 1.713 1.389 3.102 3.102 3.102s3.102-1.389 3.102-3.102c0-1.714-1.389-3.103-3.102-3.103z"/><path d="m245.394 290.461c-1.713 0-3.102 1.389-3.102 3.103 0 1.713 1.389 3.102 3.102 3.102s3.102-1.389 3.102-3.102c0-1.714-1.389-3.103-3.102-3.103z"/><path d="m245.394 310.461c-1.713 0-3.102 1.389-3.102 3.103 0 1.713 1.389 3.102 3.102 3.102s3.102-1.389 3.102-3.102c0-1.714-1.389-3.103-3.102-3.103z"/><path d="m245.394 330.461c-1.713 0-3.102 1.389-3.102 3.103 0 1.713 1.389 3.102 3.102 3.102s3.102-1.389 3.102-3.102c0-1.714-1.389-3.103-3.102-3.103z"/><path d="m238.12 343.94c0-1.161-.645-2.161-1.59-2.693-.822 1.898-1.738 3.746-2.739 5.541.376.162.79.254 1.227.254 1.713 0 3.102-1.389 3.102-3.102z"/><path d="m245.394 350.461c-1.713 0-3.102 1.389-3.102 3.103 0 1.713 1.389 3.102 3.102 3.102s3.102-1.389 3.102-3.102c0-1.714-1.389-3.103-3.102-3.103z"/><path d="m235.018 360.837c-1.713 0-3.102 1.389-3.102 3.102s1.389 3.102 3.102 3.102 3.102-1.389 3.102-3.102-1.389-3.102-3.102-3.102z"/><path d="m245.394 370.461c-1.713 0-3.102 1.389-3.102 3.103 0 1.713 1.389 3.102 3.102 3.102s3.102-1.389 3.102-3.102c0-1.714-1.389-3.103-3.102-3.103z"/><path d="m235.018 380.837c-1.713 0-3.102 1.389-3.102 3.102s1.389 3.102 3.102 3.102 3.102-1.389 3.102-3.102-1.389-3.102-3.102-3.102z"/><path d="m245.394 390.461c-1.713 0-3.102 1.389-3.102 3.103 0 .927.415 1.75 1.059 2.318 1.552-1.346 3.036-2.766 4.447-4.257-.569-.705-1.428-1.164-2.404-1.164z"/><path d="m231.935 403.748c1.509-.807 2.975-1.68 4.406-2.605-.403-.191-.848-.307-1.323-.307-1.648.001-2.983 1.29-3.083 2.912z"/><path d="m217.626 365.607c-.564.439-1.135.869-1.714 1.288.714-.216 1.32-.672 1.714-1.288z"/><path d="m225.394 370.461c-1.713 0-3.102 1.389-3.102 3.103 0 1.713 1.389 3.102 3.102 3.102s3.102-1.389 3.102-3.102c0-1.714-1.389-3.103-3.102-3.103z"/><path d="m215.018 380.837c-1.713 0-3.102 1.389-3.102 3.102s1.389 3.102 3.102 3.102 3.102-1.389 3.102-3.102-1.389-3.102-3.102-3.102z"/><path d="m225.394 390.461c-1.713 0-3.102 1.389-3.102 3.103 0 1.713 1.389 3.102 3.102 3.102s3.102-1.389 3.102-3.102c0-1.714-1.389-3.103-3.102-3.103z"/><path d="m215.018 400.837c-1.713 0-3.102 1.389-3.102 3.102s1.389 3.102 3.102 3.102 3.102-1.389 3.102-3.102-1.389-3.102-3.102-3.102z"/><path d="m205.394 376.665c1.713 0 3.102-1.389 3.102-3.102 0-.659-.208-1.267-.559-1.77-1.799.927-3.649 1.767-5.545 2.517.337 1.351 1.548 2.355 3.002 2.355z"/><path d="m195.018 380.837c-1.713 0-3.102 1.389-3.102 3.102s1.389 3.102 3.102 3.102 3.102-1.389 3.102-3.102-1.389-3.102-3.102-3.102z"/><path d="m205.394 390.461c-1.713 0-3.102 1.389-3.102 3.103 0 1.713 1.389 3.102 3.102 3.102s3.102-1.389 3.102-3.102c0-1.714-1.389-3.103-3.102-3.103z"/><path d="m195.018 400.837c-1.713 0-3.102 1.389-3.102 3.102s1.389 3.102 3.102 3.102 3.102-1.389 3.102-3.102-1.389-3.102-3.102-3.102z"/><path d="m205.394 410.461c-.659 0-1.268.209-1.771.56 1.112-.016 2.215-.061 3.312-.134-.455-.264-.977-.426-1.541-.426z"/><path d="m175.018 380.837c-1.713 0-3.102 1.389-3.102 3.102s1.389 3.102 3.102 3.102 3.102-1.389 3.102-3.102-1.389-3.102-3.102-3.102z"/><path d="m185.394 396.665c1.713 0 3.102-1.389 3.102-3.102s-1.389-3.103-3.102-3.103-3.102 1.389-3.102 3.103 1.389 3.102 3.102 3.102z"/><path d="m175.018 400.837c-1.713 0-3.102 1.389-3.102 3.102s1.389 3.102 3.102 3.102 3.102-1.389 3.102-3.102-1.389-3.102-3.102-3.102z"/><path d="m185.394 410.461c-.672 0-1.29.219-1.798.582h3.595c-.507-.363-1.125-.582-1.797-.582z"/><path d="m155.018 380.837c-1.713 0-3.102 1.389-3.102 3.102s1.389 3.102 3.102 3.102 3.102-1.389 3.102-3.102-1.389-3.102-3.102-3.102z"/><path d="m162.292 393.563c0 1.713 1.389 3.102 3.102 3.102s3.102-1.389 3.102-3.102-1.389-3.103-3.102-3.103-3.102 1.39-3.102 3.103z"/><path d="m155.018 400.837c-1.713 0-3.102 1.389-3.102 3.102s1.389 3.102 3.102 3.102 3.102-1.389 3.102-3.102-1.389-3.102-3.102-3.102z"/><path d="m165.394 410.461c-.672 0-1.29.219-1.798.582h3.595c-.507-.363-1.125-.582-1.797-.582z"/><path d="m135.018 380.837c-1.713 0-3.102 1.389-3.102 3.102s1.389 3.102 3.102 3.102 3.102-1.389 3.102-3.102-1.389-3.102-3.102-3.102z"/><path d="m142.292 393.563c0 1.713 1.389 3.102 3.102 3.102s3.102-1.389 3.102-3.102-1.389-3.103-3.102-3.103-3.102 1.39-3.102 3.103z"/><path d="m135.018 400.837c-1.713 0-3.102 1.389-3.102 3.102s1.389 3.102 3.102 3.102 3.102-1.389 3.102-3.102-1.389-3.102-3.102-3.102z"/><path d="m145.394 410.461c-.672 0-1.29.219-1.798.582h3.595c-.507-.363-1.125-.582-1.797-.582z"/><path d="m115.018 380.837c-1.713 0-3.102 1.389-3.102 3.102s1.389 3.102 3.102 3.102 3.102-1.389 3.102-3.102-1.389-3.102-3.102-3.102z"/><path d="m122.292 393.563c0 1.713 1.389 3.102 3.102 3.102s3.102-1.389 3.102-3.102-1.389-3.103-3.102-3.103c-1.713.001-3.102 1.39-3.102 3.103z"/><path d="m115.018 400.837c-1.713 0-3.102 1.389-3.102 3.102s1.389 3.102 3.102 3.102 3.102-1.389 3.102-3.102-1.389-3.102-3.102-3.102z"/><path d="m125.394 410.461c-.672 0-1.29.219-1.798.582h3.595c-.507-.363-1.125-.582-1.797-.582z"/><path d="m95.018 380.837c-1.713 0-3.102 1.389-3.102 3.102s1.389 3.102 3.102 3.102 3.102-1.389 3.102-3.102-1.389-3.102-3.102-3.102z"/><path d="m102.292 393.563c0 1.713 1.389 3.102 3.102 3.102s3.102-1.389 3.102-3.102-1.389-3.103-3.102-3.103c-1.713.001-3.102 1.39-3.102 3.103z"/><path d="m95.018 400.837c-1.713 0-3.102 1.389-3.102 3.102s1.389 3.102 3.102 3.102 3.102-1.389 3.102-3.102-1.389-3.102-3.102-3.102z"/><path d="m105.394 410.461c-.672 0-1.29.219-1.798.582h3.595c-.507-.363-1.125-.582-1.797-.582z"/><path d="m75.018 380.837c-1.713 0-3.102 1.389-3.102 3.102s1.389 3.102 3.102 3.102 3.102-1.389 3.102-3.102-1.389-3.102-3.102-3.102z"/><path d="m82.292 393.563c0 1.713 1.389 3.102 3.102 3.102s3.102-1.389 3.102-3.102-1.389-3.103-3.102-3.103c-1.713.001-3.102 1.39-3.102 3.103z"/><path d="m75.018 400.837c-1.713 0-3.102 1.389-3.102 3.102s1.389 3.102 3.102 3.102 3.102-1.389 3.102-3.102-1.389-3.102-3.102-3.102z"/><path d="m85.394 410.461c-.672 0-1.29.219-1.798.582h3.595c-.507-.363-1.125-.582-1.797-.582z"/><path d="m55.018 380.837c-1.713 0-3.102 1.389-3.102 3.102s1.389 3.102 3.102 3.102 3.102-1.389 3.102-3.102-1.389-3.102-3.102-3.102z"/><path d="m62.292 393.563c0 1.713 1.389 3.102 3.102 3.102s3.102-1.389 3.102-3.102-1.389-3.103-3.102-3.103c-1.713.001-3.102 1.39-3.102 3.103z"/><path d="m55.018 400.837c-1.713 0-3.102 1.389-3.102 3.102s1.389 3.102 3.102 3.102 3.102-1.389 3.102-3.102-1.389-3.102-3.102-3.102z"/><path d="m67.192 411.043c-.508-.363-1.126-.582-1.798-.582-.64 0-1.233.194-1.727.526.872.037 1.748.056 2.629.056z"/><path d="m31.915 383.94c0 1.713 1.389 3.102 3.102 3.102s3.102-1.389 3.102-3.102-1.389-3.102-3.102-3.102-3.102 1.388-3.102 3.102z"/><path d="m42.292 393.563c0 1.713 1.389 3.102 3.102 3.102s3.102-1.389 3.102-3.102-1.389-3.103-3.102-3.103c-1.713.001-3.102 1.39-3.102 3.103z"/><path d="m35.018 400.837c-.693 0-1.326.235-1.842.619 1.591 1.007 3.228 1.945 4.912 2.807.011-.108.033-.212.033-.323-.001-1.714-1.39-3.103-3.103-3.103z"/><path d="m25.394 376.665c.749 0 1.426-.276 1.962-.718-1.703-.571-3.376-1.22-5.019-1.935.22 1.5 1.498 2.653 3.057 2.653z"/><path d="m18.12 383.94c0-1.713-1.389-3.102-3.102-3.102-.617 0-1.188.185-1.671.496 1.079 1.764 2.247 3.467 3.492 5.109.773-.566 1.281-1.472 1.281-2.503z"/><path d="m28.496 393.563c0-1.713-1.389-3.103-3.102-3.103-1.46 0-2.675 1.012-3.006 2.37 1.276 1.278 2.611 2.496 3.994 3.659 1.226-.413 2.114-1.56 2.114-2.926z"/></g><path d="m304.216 170.79 84.406-170.79h-65.609l-82.117 166.158h-3.127c-4.24 0-8.059 2.354-9.935 6.084l-35.511 67.961h-122.897c-38.25 0-69.369 31.119-69.369 69.369v36.305c0 38.25 31.119 69.368 69.369 69.368h130.185c38.25 0 69.368-31.118 69.368-69.368v-94.312l36.18-69.24c1.753-3.484 1.577-7.546-.469-10.865-.145-.235-.314-.448-.474-.67zm-43.64 175.086c0 33.616-27.348 60.964-60.964 60.964h-130.186c-33.616 0-60.965-27.348-60.965-60.964v-36.305c0-33.616 27.349-60.965 60.965-60.965h191.15zm37.105-167.386-32.246 61.713h-63.63l33.508-64.127c.47-.934 1.412-1.515 2.457-1.515h57.425c1.386 0 2.099.914 2.341 1.308.242.393.739 1.441.145 2.621z" fill="#31373d"/><path d="m208.765 360.548h-148.493c-2.32 0-4.202-1.881-4.202-4.202 0-2.32 1.881-4.202 4.202-4.202h148.493c2.32 0 4.202 1.881 4.202 4.202s-1.882 4.202-4.202 4.202z" fill="#31373d"/><path d="m208.766 309.694c-.015 0-.03 0-.045 0-15.079-.158-30.108-.237-44.703-.227-.001 0-.002 0-.002 0-2.32 0-4.201-1.88-4.202-4.2s1.879-4.203 4.2-4.204c14.607-.004 29.685.069 44.796.227 2.32.025 4.182 1.925 4.158 4.246-.026 2.306-1.902 4.158-4.202 4.158z" fill="#31373d"/><path d="m107.68 309.694c-.027 0-.054 0-.081-.001-15.932-.301-30.946-.301-47.249 0-2.28.048-4.236-1.804-4.279-4.124s1.803-4.236 4.124-4.279c16.41-.303 31.523-.303 47.563 0 2.32.044 4.165 1.96 4.122 4.281-.044 2.294-1.917 4.123-4.2 4.123z" fill="#31373d"/><ellipse cx="424.014" cy="299.923" fill="#f9fbfc" rx="80.582" ry="80.582" transform="matrix(.707 -.707 .707 .707 -87.887 387.669)"/><g fill="#eaa895"><path d="m491.915 263.94c0 1.713 1.389 3.102 3.102 3.102.842 0 1.603-.338 2.162-.882-.83-1.793-1.722-3.551-2.676-5.27-1.467.246-2.588 1.513-2.588 3.05z"/><path d="m495.018 280.837c-1.713 0-3.102 1.389-3.102 3.102s1.389 3.102 3.102 3.102 3.102-1.389 3.102-3.102-1.389-3.102-3.102-3.102z"/><path d="m502.292 293.563c0 1.408.944 2.583 2.229 2.962-.081-1.939-.226-3.861-.441-5.762-1.054.496-1.788 1.559-1.788 2.8z"/><path d="m495.018 300.837c-1.713 0-3.102 1.389-3.102 3.102s1.389 3.102 3.102 3.102 3.102-1.389 3.102-3.102-1.389-3.102-3.102-3.102z"/><path d="m502.292 313.563c0 .778.297 1.481.77 2.025.305-1.547.556-3.114.771-4.692-.918.539-1.541 1.526-1.541 2.667z"/><path d="m495.018 320.837c-1.713 0-3.102 1.389-3.102 3.102s1.389 3.102 3.102 3.102 3.102-1.389 3.102-3.102-1.389-3.102-3.102-3.102z"/><path d="m492.052 343.078c.311-.488.632-.969.933-1.464-.441.384-.766.888-.933 1.464z"/><path d="m488.496 293.563c0-1.069-.541-2.012-1.364-2.57-.676 1.909-1.426 3.782-2.239 5.622.164.027.329.05.501.05 1.713 0 3.102-1.388 3.102-3.102z"/><path d="m485.394 310.461c-1.713 0-3.102 1.389-3.102 3.103 0 1.713 1.389 3.102 3.102 3.102s3.102-1.389 3.102-3.102c0-1.714-1.389-3.103-3.102-3.103z"/><path d="m475.018 320.837c-1.713 0-3.102 1.389-3.102 3.102s1.389 3.102 3.102 3.102 3.102-1.389 3.102-3.102-1.389-3.102-3.102-3.102z"/><path d="m485.394 330.461c-1.713 0-3.102 1.389-3.102 3.103 0 1.713 1.389 3.102 3.102 3.102s3.102-1.389 3.102-3.102c0-1.714-1.389-3.103-3.102-3.103z"/><path d="m475.018 347.042c1.713 0 3.102-1.389 3.102-3.102s-1.389-3.102-3.102-3.102-3.102 1.389-3.102 3.102c-.001 1.713 1.388 3.102 3.102 3.102z"/><path d="m482.292 353.563c0 .562.161 1.082.422 1.536 1.337-1.422 2.629-2.886 3.862-4.403-.365-.15-.763-.236-1.182-.236-1.713.001-3.102 1.39-3.102 3.103z"/><path d="m471.915 363.94c0 .247.036.484.091.714 1.497-1.112 2.944-2.286 4.359-3.497-.409-.198-.862-.32-1.347-.32-1.714 0-3.103 1.389-3.103 3.103z"/><path d="m465.394 330.461c-1.713 0-3.102 1.389-3.102 3.103 0 1.713 1.389 3.102 3.102 3.102s3.102-1.389 3.102-3.102c0-1.714-1.389-3.103-3.102-3.103z"/><path d="m455.018 340.837c-1.713 0-3.102 1.389-3.102 3.102s1.389 3.102 3.102 3.102 3.102-1.389 3.102-3.102-1.389-3.102-3.102-3.102z"/><path d="m465.394 350.461c-1.713 0-3.102 1.389-3.102 3.103 0 1.713 1.389 3.102 3.102 3.102s3.102-1.389 3.102-3.102c0-1.714-1.389-3.103-3.102-3.103z"/><path d="m455.018 360.837c-1.713 0-3.102 1.389-3.102 3.102s1.389 3.102 3.102 3.102 3.102-1.389 3.102-3.102-1.389-3.102-3.102-3.102z"/><path d="m431.915 343.94c0 1.713 1.389 3.102 3.102 3.102s3.102-1.389 3.102-3.102c0-1.519-1.094-2.778-2.535-3.045-.886.281-1.783.535-2.681.786-.604.566-.988 1.365-.988 2.259z"/><path d="m445.394 350.461c-1.713 0-3.102 1.389-3.102 3.103 0 1.713 1.389 3.102 3.102 3.102s3.102-1.389 3.102-3.102c0-1.714-1.389-3.103-3.102-3.103z"/><path d="m435.018 360.837c-1.713 0-3.102 1.389-3.102 3.102s1.389 3.102 3.102 3.102 3.102-1.389 3.102-3.102-1.389-3.102-3.102-3.102z"/><path d="m445.394 370.461c-1.713 0-3.102 1.389-3.102 3.103 0 1.713 1.389 3.102 3.102 3.102s3.102-1.389 3.102-3.102c0-1.714-1.389-3.103-3.102-3.103z"/><path d="m415.018 347.042c1.571 0 2.855-1.171 3.06-2.686-2.005.17-4.029.273-6.073.294.322 1.369 1.545 2.392 3.013 2.392z"/><path d="m422.292 353.563c0 1.713 1.389 3.102 3.102 3.102s3.102-1.389 3.102-3.102-1.389-3.103-3.102-3.103c-1.713.001-3.102 1.39-3.102 3.103z"/><path d="m415.018 367.042c1.713 0 3.102-1.389 3.102-3.102s-1.389-3.102-3.102-3.102-3.102 1.389-3.102 3.102c-.001 1.713 1.388 3.102 3.102 3.102z"/><path d="m428.496 373.563c0-1.713-1.389-3.103-3.102-3.103s-3.102 1.389-3.102 3.103c0 1.713 1.389 3.102 3.102 3.102s3.102-1.388 3.102-3.102z"/><path d="m395.018 347.042c1.713 0 3.102-1.389 3.102-3.102 0-.113-.021-.219-.033-.329-1.949-.318-3.871-.713-5.77-1.169-.248.446-.401.951-.401 1.497-.001 1.714 1.388 3.103 3.102 3.103z"/><path d="m405.394 350.461c-1.713 0-3.102 1.389-3.102 3.103 0 1.713 1.389 3.102 3.102 3.102s3.102-1.389 3.102-3.102c0-1.714-1.389-3.103-3.102-3.103z"/><path d="m395.018 360.837c-1.713 0-3.102 1.389-3.102 3.102s1.389 3.102 3.102 3.102 3.102-1.389 3.102-3.102-1.389-3.102-3.102-3.102z"/><path d="m405.394 370.461c-1.713 0-3.102 1.389-3.102 3.103 0 1.713 1.389 3.102 3.102 3.102s3.102-1.389 3.102-3.102c0-1.714-1.389-3.103-3.102-3.103z"/><path d="m371.915 343.94c0 1.713 1.389 3.102 3.102 3.102s3.102-1.389 3.102-3.102-1.389-3.102-3.102-3.102c-1.713-.001-3.102 1.388-3.102 3.102z"/><path d="m382.292 353.563c0 1.713 1.389 3.102 3.102 3.102s3.102-1.389 3.102-3.102-1.389-3.103-3.102-3.103c-1.713.001-3.102 1.39-3.102 3.103z"/><path d="m375.018 360.837c-.97 0-1.826.455-2.395 1.152 1.585 1.314 3.231 2.556 4.915 3.747.363-.508.581-1.125.581-1.797.001-1.713-1.388-3.102-3.101-3.102z"/><path d="m385.394 370.461c-.1 0-.195.021-.292.03.987.545 1.984 1.075 2.996 1.579-.529-.955-1.535-1.609-2.704-1.609z"/><path d="m351.915 323.94c0 1.713 1.389 3.102 3.102 3.102 1.469 0 2.693-1.024 3.014-2.395-1.341-1.178-2.64-2.402-3.899-3.665-1.279.382-2.217 1.554-2.217 2.958z"/><path d="m362.292 333.563c0 1.713 1.389 3.102 3.102 3.102s3.102-1.389 3.102-3.102c0-.467-.111-.905-.295-1.302-.913-.577-1.809-1.177-2.696-1.789-.038-.001-.073-.011-.111-.011-1.713 0-3.102 1.389-3.102 3.102z"/><path d="m355.018 340.837c-.134 0-.262.023-.392.039.951 1.608 1.951 3.183 3.009 4.717.304-.479.486-1.044.486-1.654-.001-1.713-1.39-3.102-3.103-3.102z"/><path d="m368.496 353.563c0-1.713-1.389-3.103-3.102-3.103-1.197 0-2.225.686-2.742 1.68 1.258 1.478 2.575 2.903 3.935 4.285 1.121-.467 1.909-1.572 1.909-2.862z"/><path d="m348.332 314.513c-1.056-1.314-2.073-2.661-3.047-4.042-.392.014-.768.092-1.11.239.268 2.002.602 3.982 1.014 5.934.069.004.134.021.204.021 1.381 0 2.536-.906 2.939-2.152z"/></g><path d="m496.485 375.204c-48.307 4.882-96.621 4.88-144.942 0-6.174 0-11.179-5.005-11.179-11.179 0-6.174 5.005-11.179 11.179-11.179 46.49 7.628 94.849 7.441 144.942 0 6.174 0 11.179 5.005 11.179 11.179 0 6.174-5.005 11.179-11.179 11.179z" fill="#e9c278"/><g fill="#31373d"><path d="m496.485 348.645-.617.045c-.956.142-1.906.263-2.861.399 9.923-13.878 15.791-30.843 15.791-49.167 0-46.75-38.034-84.784-84.784-84.784s-84.784 38.034-84.784 84.784c0 18.343 5.88 35.324 15.823 49.211-.942-.148-1.89-.279-2.829-.434l-.337-.055h-.343c-8.481 0-15.38 6.899-15.38 15.38 0 8.2 6.454 14.903 14.546 15.34l48.922 52.224.084 69.333c-.014 2.934 1.118 5.695 3.187 7.776 2.07 2.08 4.826 3.226 7.761 3.226h23.222c5.974 0 10.782-4.678 10.944-10.637l-.004-69.771 51.788-52.101c.034-.003.067-.006.101-.01 8.376-.123 15.153-6.974 15.153-15.379-.002-8.481-6.902-15.38-15.383-15.38zm-148.851-48.722c0-42.116 34.264-76.381 76.381-76.381s76.381 34.265 76.381 76.381c0 19.459-7.319 37.236-19.343 50.737-39.35 4.721-77.539 4.787-113.904.189-12.126-13.524-19.515-31.376-19.515-50.926zm148.851 71.079-.423.021c-47.796 4.831-96.277 4.831-144.098 0l-.422-.021c-3.847 0-6.977-3.13-6.977-6.978 0-3.746 2.967-6.811 6.675-6.97 45.917 7.489 94.874 7.489 145.518-.001 3.72.145 6.703 3.216 6.703 6.971.001 3.848-3.129 6.978-6.976 6.978z"/><path d="m424.014 271.733c-8.766 0-15.897-7.131-15.897-15.897 0-2.32 1.881-4.202 4.202-4.202 2.32 0 4.202 1.881 4.202 4.202 0 4.132 3.362 7.493 7.494 7.493s7.494-3.362 7.494-7.493c0-2.32 1.881-4.202 4.202-4.202 2.32 0 4.202 1.881 4.202 4.202-.001 8.766-7.133 15.897-15.899 15.897z"/><path d="m466.796 305.656c-8.766 0-15.897-7.131-15.897-15.897 0-2.32 1.881-4.202 4.202-4.202 2.32 0 4.202 1.881 4.202 4.202 0 4.132 3.362 7.493 7.493 7.493 4.132 0 7.494-3.362 7.494-7.493 0-2.32 1.881-4.202 4.202-4.202 2.32 0 4.202 1.881 4.202 4.202 0 8.766-7.132 15.897-15.898 15.897z"/><path d="m424.014 337.815c-8.766 0-15.897-7.131-15.897-15.897 0-2.32 1.881-4.202 4.202-4.202 2.32 0 4.202 1.881 4.202 4.202 0 4.132 3.362 7.493 7.494 7.493s7.494-3.362 7.494-7.493c0-2.32 1.881-4.202 4.202-4.202 2.32 0 4.202 1.881 4.202 4.202-.001 8.766-7.133 15.897-15.899 15.897z"/><path d="m383.579 305.656c-8.766 0-15.897-7.131-15.897-15.897 0-2.32 1.881-4.202 4.202-4.202 2.32 0 4.202 1.881 4.202 4.202 0 4.132 3.362 7.493 7.494 7.493s7.493-3.362 7.493-7.493c0-2.32 1.881-4.202 4.202-4.202 2.32 0 4.202 1.881 4.202 4.202-.001 8.766-7.132 15.897-15.898 15.897z"/></g></g></svg>