<svg id="Capa_1" enable-background="new 0 0 511.958 511.958" height="512" viewBox="0 0 511.958 511.958" width="512" xmlns="http://www.w3.org/2000/svg"><g><path d="m250.302 420.013c-1.746-10.823-8.819-19.856-18.445-24.333-12.432-45.898-15.698-107.368-14.624-176.209h11.481c5.364 0 9.712-4.348 9.712-9.712v-2.329c0-4.521-3.093-8.309-7.275-9.391h8.939c3.835 0 6.944-3.109 6.944-6.944v-21.967c0-3.835-3.109-6.944-6.944-6.944h-21.135c.008-.185.015-.369.023-.554h9.737c5.364 0 9.712-4.348 9.712-9.712v-2.329c0-5.364-4.348-9.712-9.712-9.712h-.104c8.159-11.875 13.196-26.778 13.196-39.35 0-25.469-20.647-46.116-46.116-46.116-3.072 0-6.068.318-8.972.891 3.828-5.323 6.09-11.848 6.09-18.905 0-17.908-14.517-32.425-32.425-32.425s-32.425 14.517-32.425 32.425c0 7.057 2.262 13.582 6.089 18.905-2.903-.573-5.899-.891-8.971-.891-25.469 0-46.116 20.647-46.116 46.116 0 12.572 5.037 27.475 13.196 39.35h-.104c-5.364 0-9.712 4.348-9.712 9.712v2.329c0 5.364 4.348 9.712 9.712 9.712h9.877c.011.185.021.369.031.554h-21.284c-3.835 0-6.944 3.109-6.944 6.944v21.967c0 3.835 3.109 6.944 6.944 6.944h8.939c-4.182 1.082-7.276 4.87-7.276 9.391v2.329c0 5.364 4.348 9.712 9.712 9.712h12.302c1.657 68.633-1.895 129.617-15.294 176.141-9.702 4.453-16.84 13.523-18.595 24.402-16.526 1.836-29.38 15.844-29.38 32.86v55.112h238.597v-55.112c-.001-17.016-12.854-31.024-29.38-32.861zm-88.021-351.25c-.652.686-1.289 1.385-1.898 2.11-.609-.725-1.246-1.424-1.898-2.11.628.036 1.26.06 1.898.06s1.27-.024 1.898-.06z" fill="#e9c278"/><g fill="#f9fbfc"><path d="m223.679 369.896c0 1.713 1.389 3.102 3.102 3.102.124 0 .242-.022.363-.037-.396-1.997-.781-4.012-1.151-6.054-1.329.35-2.314 1.549-2.314 2.989z"/><path d="m226.781 386.793c-1.713 0-3.102 1.389-3.102 3.103 0 1.316.823 2.434 1.98 2.885h2.245c1.157-.451 1.98-1.568 1.98-2.885 0-1.714-1.389-3.103-3.103-3.103z"/><path d="m217.156 222.621c.008-.648.014-1.292.022-1.941h-2.893c.46 1.137 1.57 1.94 2.871 1.941z"/><path d="m206.781 226.793c-1.713 0-3.102 1.389-3.102 3.102s1.389 3.102 3.102 3.102 3.102-1.389 3.102-3.102c.001-1.713-1.388-3.102-3.102-3.102z"/><path d="m214.056 239.519c0 1.675 1.33 3.03 2.99 3.091-.003-2.053-.001-4.114.005-6.182-1.663.057-2.995 1.414-2.995 3.091z"/><path d="m206.781 246.793c-1.713 0-3.102 1.389-3.102 3.102s1.389 3.102 3.102 3.102 3.102-1.389 3.102-3.102c.001-1.713-1.388-3.102-3.102-3.102z"/><path d="m217.158 262.621c.024 0 .047-.006.07-.007-.036-2.056-.066-4.121-.092-6.195-1.703.012-3.081 1.394-3.081 3.1.001 1.713 1.39 3.102 3.103 3.102z"/><path d="m206.781 266.793c-1.713 0-3.102 1.389-3.102 3.103 0 1.713 1.389 3.102 3.102 3.102s3.102-1.389 3.102-3.102c.001-1.714-1.388-3.103-3.102-3.103z"/><path d="m217.158 282.621c.208 0 .411-.022.607-.061-.075-2.024-.143-4.058-.206-6.103-.133-.017-.264-.04-.402-.04-1.713 0-3.102 1.389-3.102 3.103.001 1.712 1.39 3.101 3.103 3.101z"/><path d="m206.781 286.793c-1.713 0-3.102 1.389-3.102 3.103 0 1.713 1.389 3.102 3.102 3.102s3.102-1.389 3.102-3.102c.001-1.714-1.388-3.103-3.102-3.103z"/><path d="m217.158 302.621c.567 0 1.09-.163 1.548-.428-.109-1.829-.212-3.668-.31-5.516-.38-.166-.797-.26-1.238-.26-1.713 0-3.102 1.389-3.102 3.103 0 1.712 1.389 3.101 3.102 3.101z"/><path d="m206.781 306.793c-1.713 0-3.102 1.389-3.102 3.103 0 1.713 1.389 3.102 3.102 3.102s3.102-1.389 3.102-3.102c.001-1.714-1.388-3.103-3.102-3.103z"/><path d="m217.158 316.417c-1.713 0-3.102 1.389-3.102 3.103 0 1.713 1.389 3.102 3.102 3.102 1.308 0 2.421-.811 2.878-1.956-.077-.905-.15-1.819-.223-2.73-.543-.907-1.523-1.519-2.655-1.519z"/><path d="m206.781 326.793c-1.713 0-3.102 1.389-3.102 3.103 0 1.713 1.389 3.102 3.102 3.102s3.102-1.389 3.102-3.102c.001-1.714-1.388-3.103-3.102-3.103z"/><path d="m217.158 336.417c-1.713 0-3.102 1.389-3.102 3.103 0 1.713 1.389 3.102 3.102 3.102s3.102-1.389 3.102-3.102c0-1.714-1.389-3.103-3.102-3.103z"/><path d="m206.781 346.793c-1.713 0-3.102 1.389-3.102 3.103 0 1.713 1.389 3.102 3.102 3.102s3.102-1.389 3.102-3.102c.001-1.714-1.388-3.103-3.102-3.103z"/><path d="m217.158 356.417c-1.713 0-3.102 1.389-3.102 3.103 0 1.713 1.389 3.102 3.102 3.102s3.102-1.389 3.102-3.102c0-1.714-1.389-3.103-3.102-3.103z"/><path d="m206.781 366.793c-1.713 0-3.102 1.389-3.102 3.103 0 1.713 1.389 3.102 3.102 3.102s3.102-1.389 3.102-3.102c.001-1.714-1.388-3.103-3.102-3.103z"/><path d="m217.158 376.417c-1.713 0-3.102 1.389-3.102 3.103 0 1.713 1.389 3.102 3.102 3.102s3.102-1.389 3.102-3.102c0-1.714-1.389-3.103-3.102-3.103z"/><path d="m209.884 389.896c0-1.713-1.389-3.103-3.102-3.103s-3.102 1.389-3.102 3.103c0 1.316.823 2.434 1.98 2.885h2.245c1.156-.451 1.979-1.569 1.979-2.885z"/><path d="m197.158 222.621c1.302 0 2.413-.804 2.873-1.941h-5.746c.46 1.137 1.571 1.941 2.873 1.941z"/><path d="m186.781 226.793c-1.713 0-3.102 1.389-3.102 3.102s1.389 3.102 3.102 3.102 3.102-1.389 3.102-3.102c.001-1.713-1.388-3.102-3.102-3.102z"/><path d="m197.158 236.417c-1.713 0-3.102 1.389-3.102 3.103 0 1.713 1.389 3.102 3.102 3.102s3.102-1.389 3.102-3.102c0-1.714-1.389-3.103-3.102-3.103z"/><path d="m186.781 246.793c-.169 0-.333.024-.495.05-.09 2.019-.181 4.038-.267 6.049.245.062.497.105.762.105 1.713 0 3.102-1.389 3.102-3.102.001-1.713-1.388-3.102-3.102-3.102z"/><path d="m197.158 256.417c-1.713 0-3.102 1.389-3.102 3.103 0 1.713 1.389 3.102 3.102 3.102s3.102-1.389 3.102-3.102c0-1.714-1.389-3.103-3.102-3.103z"/><path d="m186.781 266.793c-.477 0-.923.117-1.327.309-.068 1.829-.137 3.658-.2 5.479.453.258.969.417 1.527.417 1.713 0 3.102-1.389 3.102-3.102.001-1.714-1.388-3.103-3.102-3.103z"/><path d="m197.158 276.417c-1.713 0-3.102 1.389-3.102 3.103 0 1.713 1.389 3.102 3.102 3.102s3.102-1.389 3.102-3.102c0-1.714-1.389-3.103-3.102-3.103z"/><path d="m186.781 286.793c-.764 0-1.455.287-1.996.746-.043 1.537-.089 3.077-.128 4.608.556.524 1.3.851 2.124.851 1.713 0 3.102-1.389 3.102-3.102.001-1.714-1.388-3.103-3.102-3.103z"/><path d="m197.158 296.417c-1.713 0-3.102 1.389-3.102 3.103 0 1.713 1.389 3.102 3.102 3.102s3.102-1.389 3.102-3.102c0-1.714-1.389-3.103-3.102-3.103z"/><path d="m186.781 306.793c-1.008 0-1.896.489-2.462 1.235-.021 1.218-.046 2.444-.064 3.657.562.792 1.482 1.312 2.527 1.312 1.713 0 3.102-1.389 3.102-3.102s-1.389-3.102-3.103-3.102z"/><path d="m197.158 316.417c-1.713 0-3.102 1.389-3.102 3.103 0 1.713 1.389 3.102 3.102 3.102s3.102-1.389 3.102-3.102c0-1.714-1.389-3.103-3.102-3.103z"/><path d="m186.781 326.793c-1.156 0-2.152.64-2.686 1.577-.004 1.009-.011 2.022-.014 3.026.53.951 1.534 1.602 2.7 1.602 1.713 0 3.102-1.389 3.102-3.102.001-1.714-1.388-3.103-3.102-3.103z"/><path d="m197.158 336.417c-1.713 0-3.102 1.389-3.102 3.103 0 1.713 1.389 3.102 3.102 3.102s3.102-1.389 3.102-3.102c0-1.714-1.389-3.103-3.102-3.103z"/><path d="m186.781 346.793c-1.114 0-2.083.593-2.63 1.475.012 1.117.03 2.225.044 3.337.555.838 1.505 1.393 2.586 1.393 1.713 0 3.102-1.389 3.102-3.102.001-1.714-1.388-3.103-3.102-3.103z"/><path d="m197.158 356.417c-1.713 0-3.102 1.389-3.102 3.103 0 1.713 1.389 3.102 3.102 3.102s3.102-1.389 3.102-3.102c0-1.714-1.389-3.103-3.102-3.103z"/><path d="m189.884 369.896c0-1.713-1.389-3.103-3.102-3.103-.893 0-1.691.382-2.257.986.041 1.465.091 2.917.138 4.372.555.522 1.297.847 2.119.847 1.713 0 3.102-1.389 3.102-3.102z"/><path d="m197.158 376.417c-1.713 0-3.102 1.389-3.102 3.103 0 1.713 1.389 3.102 3.102 3.102s3.102-1.389 3.102-3.102c0-1.714-1.389-3.103-3.102-3.103z"/><path d="m187.904 392.78c1.157-.451 1.98-1.568 1.98-2.885 0-1.713-1.389-3.103-3.102-3.103-.551 0-1.062.156-1.511.409.09 1.851.178 3.707.279 5.539.035.016.073.025.109.04z"/><path d="m177.158 222.621c1.302 0 2.413-.804 2.873-1.941h-5.746c.46 1.137 1.571 1.941 2.873 1.941z"/><path d="m163.679 229.895c0 1.713 1.389 3.102 3.102 3.102s3.102-1.389 3.102-3.102-1.389-3.102-3.102-3.102-3.102 1.389-3.102 3.102z"/><path d="m177.158 236.417c-1.713 0-3.102 1.389-3.102 3.103 0 1.713 1.389 3.102 3.102 3.102s3.102-1.389 3.102-3.102c0-1.714-1.389-3.103-3.102-3.103z"/><path d="m157.158 222.621c1.302 0 2.413-.804 2.873-1.941h-5.746c.46 1.137 1.571 1.941 2.873 1.941z"/><path d="m143.679 229.895c0 1.713 1.389 3.102 3.102 3.102s3.102-1.389 3.102-3.102-1.389-3.102-3.102-3.102-3.102 1.389-3.102 3.102z"/><path d="m157.158 236.417c-1.713 0-3.102 1.389-3.102 3.103 0 1.713 1.389 3.102 3.102 3.102s3.102-1.389 3.102-3.102c0-1.714-1.389-3.103-3.102-3.103z"/><path d="m137.158 222.621c1.302 0 2.413-.804 2.873-1.941h-5.746c.46 1.137 1.571 1.941 2.873 1.941z"/><path d="m123.679 229.895c0 1.713 1.389 3.102 3.102 3.102s3.102-1.389 3.102-3.102-1.389-3.102-3.102-3.102-3.102 1.389-3.102 3.102z"/><path d="m137.158 236.417c-1.713 0-3.102 1.389-3.102 3.103 0 1.713 1.389 3.102 3.102 3.102s3.102-1.389 3.102-3.102c0-1.714-1.389-3.103-3.102-3.103z"/><path d="m117.158 222.621c1.302 0 2.413-.804 2.873-1.941h-5.746c.46 1.137 1.571 1.941 2.873 1.941z"/><path d="m104.632 232.126c.558.538 1.313.872 2.15.872 1.713 0 3.102-1.389 3.102-3.102s-1.389-3.102-3.102-3.102c-.874 0-1.661.365-2.225.947.023 1.459.056 2.932.075 4.385z"/><path d="m117.158 236.417c-1.713 0-3.102 1.389-3.102 3.103 0 1.713 1.389 3.102 3.102 3.102s3.102-1.389 3.102-3.102c0-1.714-1.389-3.103-3.102-3.103z"/></g><g fill="#f9fbfc"><path d="m266.781 426.793c-1.713 0-3.102 1.389-3.102 3.103 0 1.713 1.389 3.102 3.102 3.102s3.102-1.389 3.102-3.102c0-.194-.023-.383-.057-.567-.907-.895-1.868-1.733-2.872-2.518-.058-.004-.113-.018-.173-.018z"/><path d="m274.056 439.519c0 1.713 1.389 3.102 3.102 3.102.297 0 .578-.055.85-.133-.647-1.958-1.469-3.836-2.453-5.613-.895.544-1.499 1.52-1.499 2.644z"/><path d="m266.781 446.793c-1.713 0-3.102 1.389-3.102 3.103 0 1.713 1.389 3.102 3.102 3.102s3.102-1.389 3.102-3.102c.001-1.714-1.388-3.103-3.102-3.103z"/><path d="m277.158 456.417c-1.713 0-3.102 1.389-3.102 3.103 0 1.713 1.389 3.102 3.102 3.102 1.043 0 1.961-.519 2.523-1.308v-3.588c-.562-.79-1.48-1.309-2.523-1.309z"/><path d="m266.781 466.793c-1.713 0-3.102 1.389-3.102 3.103 0 1.713 1.389 3.102 3.102 3.102s3.102-1.389 3.102-3.102c.001-1.714-1.388-3.103-3.102-3.103z"/><path d="m277.158 476.417c-1.713 0-3.102 1.389-3.102 3.103 0 1.713 1.389 3.102 3.102 3.102 1.043 0 1.961-.519 2.523-1.308v-3.588c-.562-.79-1.48-1.309-2.523-1.309z"/><path d="m266.781 486.793c-1.713 0-3.102 1.389-3.102 3.103 0 1.713 1.389 3.102 3.102 3.102s3.102-1.389 3.102-3.102c.001-1.714-1.388-3.103-3.102-3.103z"/><path d="m279.681 497.725c-.562-.789-1.48-1.309-2.523-1.309-1.713 0-3.102 1.389-3.102 3.103 0 1.713 1.389 3.102 3.102 3.102 1.043 0 1.961-.519 2.523-1.308z"/><path d="m266.781 506.793c-.989 0-1.86.472-2.427 1.192h4.855c-.568-.72-1.439-1.192-2.428-1.192z"/><path d="m257.158 422.621c.609 0 1.173-.182 1.652-.485-1.457-.579-2.965-1.057-4.515-1.426.467 1.122 1.572 1.911 2.863 1.911z"/><path d="m243.679 429.896c0 1.713 1.389 3.102 3.102 3.102s3.102-1.389 3.102-3.102-1.389-3.103-3.102-3.103-3.102 1.389-3.102 3.103z"/><path d="m257.158 436.417c-1.713 0-3.102 1.389-3.102 3.103 0 1.713 1.389 3.102 3.102 3.102s3.102-1.389 3.102-3.102c0-1.714-1.389-3.103-3.102-3.103z"/><path d="m246.781 446.793c-1.713 0-3.102 1.389-3.102 3.103 0 1.713 1.389 3.102 3.102 3.102s3.102-1.389 3.102-3.102c.001-1.714-1.388-3.103-3.102-3.103z"/><path d="m257.158 456.417c-1.713 0-3.102 1.389-3.102 3.103 0 1.713 1.389 3.102 3.102 3.102s3.102-1.389 3.102-3.102c0-1.714-1.389-3.103-3.102-3.103z"/><path d="m246.781 466.793c-1.713 0-3.102 1.389-3.102 3.103 0 1.713 1.389 3.102 3.102 3.102s3.102-1.389 3.102-3.102c.001-1.714-1.388-3.103-3.102-3.103z"/><path d="m257.158 476.417c-1.713 0-3.102 1.389-3.102 3.103 0 1.713 1.389 3.102 3.102 3.102s3.102-1.389 3.102-3.102c0-1.714-1.389-3.103-3.102-3.103z"/><path d="m246.781 486.793c-1.713 0-3.102 1.389-3.102 3.103 0 1.713 1.389 3.102 3.102 3.102s3.102-1.389 3.102-3.102c.001-1.714-1.388-3.103-3.102-3.103z"/><path d="m257.158 496.417c-1.713 0-3.102 1.389-3.102 3.103 0 1.713 1.389 3.102 3.102 3.102s3.102-1.389 3.102-3.102c0-1.714-1.389-3.103-3.102-3.103z"/><path d="m246.781 506.793c-.989 0-1.86.472-2.428 1.192h4.855c-.567-.72-1.438-1.192-2.427-1.192z"/><path d="m237.158 422.621c1.616 0 2.928-1.24 3.074-2.818h-6.147c.145 1.578 1.457 2.818 3.073 2.818z"/><path d="m226.781 426.793c-1.713 0-3.102 1.389-3.102 3.103 0 1.713 1.389 3.102 3.102 3.102s3.102-1.389 3.102-3.102c.001-1.714-1.388-3.103-3.102-3.103z"/><path d="m237.158 436.417c-1.713 0-3.102 1.389-3.102 3.103 0 1.713 1.389 3.102 3.102 3.102s3.102-1.389 3.102-3.102c0-1.714-1.389-3.103-3.102-3.103z"/><path d="m226.781 446.793c-1.713 0-3.102 1.389-3.102 3.103 0 1.713 1.389 3.102 3.102 3.102s3.102-1.389 3.102-3.102c.001-1.714-1.388-3.103-3.102-3.103z"/><path d="m237.158 456.417c-1.713 0-3.102 1.389-3.102 3.103 0 1.713 1.389 3.102 3.102 3.102s3.102-1.389 3.102-3.102c0-1.714-1.389-3.103-3.102-3.103z"/><path d="m226.781 466.793c-1.713 0-3.102 1.389-3.102 3.103 0 1.713 1.389 3.102 3.102 3.102s3.102-1.389 3.102-3.102c.001-1.714-1.388-3.103-3.102-3.103z"/><path d="m237.158 476.417c-1.713 0-3.102 1.389-3.102 3.103 0 1.713 1.389 3.102 3.102 3.102s3.102-1.389 3.102-3.102c0-1.714-1.389-3.103-3.102-3.103z"/><path d="m226.781 486.793c-1.713 0-3.102 1.389-3.102 3.103 0 1.713 1.389 3.102 3.102 3.102s3.102-1.389 3.102-3.102c.001-1.714-1.388-3.103-3.102-3.103z"/><path d="m237.158 496.417c-1.713 0-3.102 1.389-3.102 3.103 0 1.713 1.389 3.102 3.102 3.102s3.102-1.389 3.102-3.102c0-1.714-1.389-3.103-3.102-3.103z"/><path d="m226.781 506.793c-.989 0-1.86.472-2.428 1.192h4.855c-.567-.72-1.438-1.192-2.427-1.192z"/><path d="m217.158 422.621c1.616 0 2.928-1.24 3.074-2.818h-6.147c.145 1.578 1.457 2.818 3.073 2.818z"/><path d="m209.884 429.896c0-1.713-1.389-3.103-3.102-3.103-1.555 0-2.831 1.148-3.056 2.641 1.116 1.11 2.151 2.3 3.1 3.559 1.692-.024 3.058-1.399 3.058-3.097z"/><path d="m217.158 436.417c-1.713 0-3.102 1.389-3.102 3.103 0 1.713 1.389 3.102 3.102 3.102s3.102-1.389 3.102-3.102c0-1.714-1.389-3.103-3.102-3.103z"/><path d="m217.158 456.417c-1.713 0-3.102 1.389-3.102 3.103 0 1.713 1.389 3.102 3.102 3.102s3.102-1.389 3.102-3.102c0-1.714-1.389-3.103-3.102-3.103z"/><path d="m217.158 476.417c-1.713 0-3.102 1.389-3.102 3.103 0 1.713 1.389 3.102 3.102 3.102s3.102-1.389 3.102-3.102c0-1.714-1.389-3.103-3.102-3.103z"/><path d="m217.158 496.417c-1.713 0-3.102 1.389-3.102 3.103 0 1.713 1.389 3.102 3.102 3.102s3.102-1.389 3.102-3.102c0-1.714-1.389-3.103-3.102-3.103z"/><path d="m200.232 419.803h-6.147c.146 1.578 1.458 2.818 3.074 2.818 1.615 0 2.927-1.24 3.073-2.818z"/></g><path d="m458.286 465.634v-2.297c0-16.911-13.433-30.738-30.188-31.386l-20.729-126.115h1.917c12.203 0 22.132-9.928 22.132-22.132v-1.09c0-10.041-6.724-18.536-15.904-21.234 5.759-9.071 9.11-19.814 9.11-31.332 0-32.332-26.304-58.636-58.636-58.636s-58.637 26.304-58.637 58.636c0 11.518 3.351 22.26 9.11 31.332-9.18 2.697-15.904 11.192-15.904 21.234v1.09c0 12.134 9.817 22.015 21.926 22.126l-17.474 126.092c-9.047.027-17.192 3.91-22.912 10.074-3.915-13.007-14.859-22.997-28.404-25.531-2.47-10.288-9.34-18.878-18.497-23.673-12.221-46.628-14.851-109.073-14.062-169.349h7.673c7.494 0 13.59-6.097 13.59-13.591v-2.516c0-1.913-.401-3.731-1.117-5.384 5.456-.564 9.725-5.188 9.725-10.791v-22.1c0-5.742-4.486-10.443-10.135-10.813.971-1.87 1.528-3.988 1.528-6.236v-2.516c0-5.31-3.067-9.905-7.517-12.14 6.898-11.849 10.897-25.523 10.897-36.829 0-27.618-22.469-50.088-50.088-50.088-.594 0-1.184.023-1.775.044 1.831-4.337 2.865-9.089 2.865-14.085.001-20.07-16.327-36.398-36.397-36.398s-36.398 16.328-36.398 36.397c0 4.992 1.014 9.75 2.841 14.084-.582-.02-1.165-.043-1.75-.043-27.619 0-50.088 22.47-50.088 50.088 0 11.306 4 24.979 10.897 36.828-4.45 2.235-7.518 6.831-7.518 12.141v2.516c0 2.248.558 4.366 1.528 6.236-5.65.37-10.136 5.072-10.136 10.813v22.1c0 5.603 4.269 10.226 9.725 10.791-.716 1.653-1.118 3.471-1.118 5.384v2.516c0 7.494 6.097 13.591 13.59 13.591h8.464c1.514 73.677-3.281 128.613-14.656 169.245-9.256 4.774-16.206 13.416-18.693 23.777-17.029 3.185-29.96 18.151-29.96 36.09v55.43c0 2.194 1.779 3.972 3.972 3.972h238.227.371 191.192c2.194 0 3.972-1.778 3.972-3.972v-19.457c0-10.657-6.953-19.716-16.559-22.893zm-297.903-457.689c15.689 0 28.453 12.763 28.453 28.452 0 5.658-1.673 10.927-4.533 15.362-9.003 2.098-17.287 6.65-23.92 13.25-6.636-6.604-14.925-11.157-23.933-13.254-2.857-4.433-4.52-9.703-4.52-15.358 0-15.689 12.764-28.452 28.453-28.452zm-77.45 92.581c0-23.237 18.905-42.143 42.143-42.143 12.467 0 24.227 5.484 32.266 15.045.755.897 1.868 1.416 3.041 1.416s2.286-.519 3.04-1.416c8.04-9.562 19.8-15.045 32.267-15.045 23.238 0 42.143 18.905 42.143 42.143 0 11.115-4.306 24.449-11.342 35.379h-132.216c-7.036-10.93-11.342-24.263-11.342-35.379zm151.52 48.97v2.516c0 3.113-2.532 5.646-5.645 5.646h-136.85c-3.113 0-5.645-2.533-5.645-5.646v-2.516c0-3.113 2.532-5.646 5.645-5.646h136.849c3.114 0 5.646 2.533 5.646 5.646zm-153.843 44.57c-1.601 0-2.905-1.303-2.905-2.904v-22.1c0-1.602 1.303-2.905 2.905-2.905h159.546c1.601 0 2.904 1.303 2.904 2.905v22.1c0 1.602-1.303 2.904-2.904 2.904zm11.348 21.432c-3.113 0-5.645-2.533-5.645-5.646v-2.516c0-2.462 1.586-4.555 3.788-5.325h140.564c2.202.771 3.788 2.863 3.788 5.325v2.516c0 3.113-2.532 5.646-5.645 5.646zm16.462 7.946h104.768c-.758 58.572 1.711 119.281 12.998 166.066-2.496-.545-5.086-.833-7.743-.833h-116.12c-2.55 0-5.038.27-7.44.774 10.704-41.06 15.088-94.265 13.537-166.007zm-6.097 173.177h116.12c12.426 0 23.001 8.052 26.798 19.21h-169.717c3.798-11.159 14.372-19.21 26.799-19.21zm173.386 107.392h-230.652v-51.457c0-15.869 12.91-28.78 28.78-28.78h173.092c15.869 0 28.78 12.911 28.78 28.78z" fill="#31373d"/></g></svg>