<svg id="Capa_1" enable-background="new 0 0 511.897 511.897" height="512" viewBox="0 0 511.897 511.897" width="512" xmlns="http://www.w3.org/2000/svg"><g><ellipse cx="254.111" cy="257.974" fill="#eaa895" rx="249.937" ry="249.937" transform="matrix(.707 -.707 .707 .707 -107.988 255.242)"/><path d="m254.111 75.795c-100.615 0-182.18 81.564-182.18 182.18 0 100.615 81.565 182.179 182.18 182.179s182.179-81.565 182.179-182.179c0-100.616-81.564-182.18-182.179-182.18zm0 292.424c-60.887 0-110.245-49.358-110.245-110.245s49.359-110.245 110.245-110.245 110.245 49.358 110.245 110.245-49.359 110.245-110.245 110.245z" fill="#f9fbfc"/><ellipse cx="254.111" cy="257.974" fill="#f9fbfc" rx="45.504" ry="45.504" transform="matrix(.924 -.383 .383 .924 -79.379 116.881)"/><path d="m437.043 114.958-129.048 129.047-35.087-3.921-4.896-36.062 129.047-129.048z" fill="#e9c278"/><g fill="#f9fbfc"><path d="m423.791 123.772c-1.713 0-3.102 1.389-3.102 3.103 0 1.202.691 2.232 1.69 2.747l4.16-4.16c-.516-.999-1.546-1.69-2.748-1.69z"/><path d="m403.791 123.772c-1.713 0-3.102 1.389-3.102 3.103 0 1.713 1.389 3.102 3.102 3.102s3.102-1.389 3.102-3.102c0-1.714-1.389-3.103-3.102-3.103z"/><path d="m414.167 133.396c-1.713 0-3.102 1.389-3.102 3.103 0 1.202.691 2.232 1.69 2.747l4.16-4.16c-.516-1-1.546-1.69-2.748-1.69z"/><path d="m403.791 143.772c-1.713 0-3.102 1.389-3.102 3.103 0 1.202.691 2.232 1.69 2.747l4.16-4.16c-.516-.999-1.546-1.69-2.748-1.69z"/><path d="m382.468 129.67c.403.191.848.306 1.323.306 1.713 0 3.102-1.389 3.102-3.102 0-.475-.116-.92-.306-1.323z"/><path d="m394.167 133.396c-1.713 0-3.102 1.389-3.102 3.103 0 1.713 1.389 3.102 3.102 3.102s3.102-1.389 3.102-3.102c.001-1.714-1.388-3.103-3.102-3.103z"/><path d="m383.791 143.772c-1.713 0-3.102 1.389-3.102 3.103 0 1.713 1.389 3.102 3.102 3.102s3.102-1.389 3.102-3.102c0-1.714-1.389-3.103-3.102-3.103z"/><path d="m394.167 153.396c-1.713 0-3.102 1.389-3.102 3.103 0 1.202.691 2.232 1.69 2.747l4.16-4.16c-.516-1-1.546-1.69-2.748-1.69z"/><path d="m383.791 163.772c-1.713 0-3.102 1.389-3.102 3.103 0 1.202.691 2.232 1.69 2.747l4.16-4.16c-.516-.999-1.546-1.69-2.748-1.69z"/><path d="m372.844 139.294c.403.191.848.306 1.323.306 1.713 0 3.102-1.389 3.102-3.102 0-.476-.116-.921-.306-1.323z"/><path d="m362.468 149.67c.403.191.848.306 1.323.306 1.713 0 3.102-1.389 3.102-3.102 0-.475-.116-.92-.307-1.323z"/><path d="m374.167 153.396c-1.713 0-3.102 1.389-3.102 3.103 0 1.713 1.389 3.102 3.102 3.102s3.102-1.389 3.102-3.102c.001-1.714-1.388-3.103-3.102-3.103z"/><path d="m363.791 163.772c-1.713 0-3.102 1.389-3.102 3.103 0 1.713 1.389 3.102 3.102 3.102s3.102-1.389 3.102-3.102c0-1.714-1.389-3.103-3.102-3.103z"/><path d="m374.167 173.396c-1.713 0-3.102 1.389-3.102 3.103 0 1.202.691 2.232 1.69 2.747l4.16-4.16c-.516-1-1.546-1.69-2.748-1.69z"/><path d="m363.791 183.772c-1.713 0-3.102 1.389-3.102 3.103 0 1.202.69 2.232 1.69 2.747l4.16-4.16c-.516-.999-1.546-1.69-2.748-1.69z"/><path d="m352.844 159.294c.403.191.848.306 1.323.306 1.713 0 3.102-1.389 3.102-3.102 0-.476-.116-.921-.306-1.323z"/><path d="m342.468 169.67c.403.191.848.306 1.323.306 1.713 0 3.102-1.389 3.102-3.102 0-.475-.116-.92-.307-1.323z"/><path d="m354.167 173.396c-1.713 0-3.102 1.389-3.102 3.103 0 1.713 1.389 3.102 3.102 3.102s3.102-1.389 3.102-3.102c.001-1.714-1.388-3.103-3.102-3.103z"/><path d="m343.791 183.772c-1.713 0-3.102 1.389-3.102 3.103 0 1.713 1.389 3.102 3.102 3.102s3.102-1.389 3.102-3.102c0-1.714-1.389-3.103-3.102-3.103z"/><path d="m354.167 193.396c-1.713 0-3.102 1.389-3.102 3.103 0 1.202.69 2.232 1.69 2.747l4.16-4.16c-.516-1-1.546-1.69-2.748-1.69z"/><path d="m343.791 203.772c-1.713 0-3.102 1.389-3.102 3.103 0 1.202.69 2.232 1.69 2.747l4.16-4.16c-.516-.999-1.546-1.69-2.748-1.69z"/><path d="m332.844 179.294c.403.191.848.306 1.323.306 1.713 0 3.102-1.389 3.102-3.102 0-.476-.116-.921-.306-1.323z"/><path d="m322.468 189.67c.403.191.848.306 1.323.306 1.713 0 3.102-1.389 3.102-3.102 0-.475-.116-.92-.307-1.323z"/><path d="m334.167 193.396c-1.713 0-3.102 1.389-3.102 3.103 0 1.713 1.389 3.102 3.102 3.102s3.102-1.389 3.102-3.102c.001-1.714-1.388-3.103-3.102-3.103z"/><path d="m323.791 203.772c-1.713 0-3.102 1.389-3.102 3.103 0 1.713 1.389 3.102 3.102 3.102s3.102-1.389 3.102-3.102c0-1.714-1.389-3.103-3.102-3.103z"/><path d="m334.167 213.396c-1.713 0-3.102 1.389-3.102 3.103 0 1.202.69 2.232 1.69 2.747l4.16-4.16c-.516-1-1.546-1.69-2.748-1.69z"/><path d="m323.791 223.772c-1.713 0-3.102 1.389-3.102 3.103 0 1.202.69 2.232 1.69 2.747l4.16-4.16c-.516-.999-1.546-1.69-2.748-1.69z"/><path d="m312.844 199.294c.403.191.848.306 1.323.306 1.713 0 3.102-1.389 3.102-3.102 0-.476-.116-.921-.306-1.323z"/><path d="m302.468 209.67c.403.191.848.306 1.323.306 1.713 0 3.102-1.389 3.102-3.102 0-.475-.116-.92-.307-1.323z"/><path d="m314.167 213.396c-1.713 0-3.102 1.389-3.102 3.103 0 1.713 1.389 3.102 3.102 3.102s3.102-1.389 3.102-3.102c.001-1.714-1.388-3.103-3.102-3.103z"/><path d="m303.791 223.772c-1.713 0-3.102 1.389-3.102 3.103 0 1.713 1.389 3.102 3.102 3.102s3.102-1.389 3.102-3.102c0-1.714-1.389-3.103-3.102-3.103z"/><path d="m314.167 233.396c-1.713 0-3.102 1.389-3.102 3.103 0 1.202.69 2.232 1.69 2.747l4.16-4.16c-.516-1-1.546-1.69-2.748-1.69z"/><path d="m292.844 219.294c.403.191.848.306 1.323.306 1.713 0 3.102-1.389 3.102-3.102 0-.476-.116-.921-.306-1.323z"/><path d="m282.468 229.67c.403.191.848.307 1.323.307 1.713 0 3.102-1.389 3.102-3.102 0-.475-.116-.92-.307-1.323z"/><path d="m294.167 233.396c-1.713 0-3.102 1.389-3.102 3.103 0 1.713 1.389 3.102 3.102 3.102s3.102-1.389 3.102-3.102c.001-1.714-1.388-3.103-3.102-3.103z"/><path d="m272.844 239.294c.403.191.848.306 1.323.306 1.713 0 3.102-1.389 3.102-3.102 0-.476-.116-.921-.306-1.323z"/><path d="m501.954 70.07-53.375-6.939-6.939-53.375c-.707-5.443-7.355-7.706-11.237-3.824l-39.856 39.856-.162 75.537-1.35 1.351 76.887-1.512 39.857-39.857c3.881-3.882 1.618-10.529-3.825-11.237z"/></g><g fill="#31373d"><path d="m511.136 73.213c-1.311-3.852-4.633-6.571-8.668-7.096l-50.333-6.543-6.543-50.332c-.524-4.035-3.243-7.357-7.096-8.668-3.852-1.311-8.034-.339-10.912 2.54l-39.237 39.237c-39.886-24.938-86.03-38.299-134.236-38.299-67.826 0-131.591 26.412-179.551 74.372-47.96 47.959-74.372 111.725-74.372 179.551s26.412 131.59 74.372 179.55c47.961 47.96 111.726 74.372 179.551 74.372 67.826 0 131.591-26.413 179.55-74.372 47.959-47.96 74.372-111.725 74.372-179.551 0-48.391-13.466-94.705-38.589-134.697l39.154-39.153c2.876-2.877 3.849-7.059 2.538-10.911zm-116.636-25.741 38.722-38.722c1.047-1.045 2.242-.788 2.706-.63.466.159 1.57.685 1.759 2.15l6.685 51.43-51.178 51.178zm-118.061 188.996-4.212-31.026 113.41-113.41-.594 29.745c-.235.852-.196 1.774.166 2.623.628 1.47 2.072 2.421 3.665 2.421.029 0 .058-.001.088-.001l31.259-.678-113.69 113.689zm-22.328 267.457c-135.619 0-245.952-110.333-245.952-245.951s110.333-245.951 245.952-245.951c48.691 0 94.114 14.233 132.35 38.743l-.594 29.763-120.673 120.674c-.881.88-1.299 2.122-1.132 3.355l4.513 33.247-14.535 14.535c-1.557 1.556-1.557 4.081 0 5.637.778.778 1.798 1.167 2.818 1.167s2.04-.39 2.818-1.167l13.818-13.817 34.058 3.806c.148.017.296.025.443.025 1.051 0 2.067-.416 2.818-1.167l120.932-120.931 29.333-.636c24.657 38.311 38.983 83.87 38.983 132.719 0 135.617-110.332 245.949-245.95 245.949zm248.849-425.436-38.725 38.725-65.522 1.421 51.296-51.298 51.431 6.686c1.464.19 1.99 1.294 2.149 1.759.159.466.415 1.662-.629 2.707z"/><path d="m341.282 249.593c-1.02 0-2.041-.389-2.818-1.167-1.557-1.557-1.557-4.08 0-5.637l68.814-68.814c1.555-1.556 4.081-1.556 5.637 0 1.557 1.557 1.557 4.08 0 5.637l-68.815 68.814c-.778.778-1.799 1.167-2.818 1.167z"/><path d="m354.28 262.59c-1.02 0-2.04-.389-2.818-1.167-1.557-1.557-1.557-4.081 0-5.637l31.047-31.046c1.555-1.556 4.079-1.556 5.636 0 1.557 1.557 1.557 4.081 0 5.637l-31.047 31.046c-.778.778-1.799 1.167-2.818 1.167z"/><path d="m266.109 174.419c-1.02 0-2.04-.389-2.818-1.167-1.557-1.557-1.557-4.08 0-5.637l68.813-68.815c1.555-1.556 4.079-1.556 5.636 0 1.557 1.557 1.557 4.08 0 5.637l-68.814 68.814c-.777.779-1.798 1.168-2.817 1.168z"/><path d="m253.111 161.421c-1.02 0-2.04-.389-2.818-1.167-1.557-1.557-1.557-4.08 0-5.637l31.046-31.046c1.555-1.556 4.079-1.556 5.636 0s1.557 4.08 0 5.637l-31.046 31.046c-.778.778-1.799 1.167-2.818 1.167z"/></g></g></svg>