<svg id="Capa_1" enable-background="new 0 0 511.849 511.849" height="512" viewBox="0 0 511.849 511.849" width="512" xmlns="http://www.w3.org/2000/svg"><g><circle cx="141.314" cy="144.466" fill="#e9c278" r="137.26"/><g fill="#f9fbfc"><path d="m270.762 111.668c0 1.736 1.408 3.144 3.144 3.144.498 0 .962-.126 1.38-.332-.446-2.001-.949-3.979-1.481-5.945-1.689.054-3.043 1.431-3.043 3.133z"/><path d="m273.906 128.791c-1.736 0-3.144 1.407-3.144 3.144 0 1.736 1.408 3.144 3.144 3.144s3.144-1.407 3.144-3.144c-.001-1.737-1.408-3.144-3.144-3.144z"/><path d="m273.906 155.345c1.736 0 3.144-1.408 3.144-3.144s-1.407-3.144-3.144-3.144-3.144 1.408-3.144 3.144 1.407 3.144 3.144 3.144z"/><path d="m273.906 169.325c-1.736 0-3.144 1.407-3.144 3.144 0 1.736 1.408 3.143 3.144 3.143.415 0 .809-.085 1.172-.231.39-1.693.739-3.402 1.066-5.118-.571-.579-1.362-.938-2.238-.938z"/><path d="m253.639 67.991c-1.736 0-3.144 1.407-3.144 3.144s1.408 3.144 3.144 3.144 3.144-1.407 3.144-3.144c0-.537-.147-1.034-.384-1.476-.092-.141-.179-.285-.271-.425-.575-.752-1.471-1.243-2.489-1.243z"/><path d="m264.154 84.03c.136 0 .266-.023.398-.04-.866-1.762-1.77-3.502-2.709-5.22-.512.559-.833 1.298-.833 2.116 0 1.736 1.407 3.144 3.144 3.144z"/><path d="m253.639 88.257c-1.736 0-3.144 1.407-3.144 3.144 0 1.736 1.408 3.144 3.144 3.144s3.144-1.407 3.144-3.144c-.001-1.737-1.408-3.144-3.144-3.144z"/><path d="m264.154 98.009c-1.736 0-3.144 1.407-3.144 3.144 0 1.736 1.408 3.144 3.144 3.144s3.144-1.407 3.144-3.144c-.001-1.737-1.408-3.144-3.144-3.144z"/><path d="m253.639 108.524c-1.736 0-3.144 1.408-3.144 3.144s1.408 3.144 3.144 3.144 3.144-1.408 3.144-3.144c-.001-1.737-1.408-3.144-3.144-3.144z"/><path d="m264.154 118.276c-1.736 0-3.144 1.408-3.144 3.144s1.408 3.144 3.144 3.144 3.144-1.408 3.144-3.144c-.001-1.737-1.408-3.144-3.144-3.144z"/><path d="m253.639 128.791c-1.736 0-3.144 1.407-3.144 3.144 0 1.736 1.408 3.144 3.144 3.144s3.144-1.407 3.144-3.144c-.001-1.737-1.408-3.144-3.144-3.144z"/><path d="m264.154 138.543c-1.736 0-3.144 1.407-3.144 3.143s1.408 3.144 3.144 3.144 3.144-1.407 3.144-3.144c-.001-1.736-1.408-3.143-3.144-3.143z"/><path d="m253.639 149.057c-1.736 0-3.144 1.408-3.144 3.144s1.408 3.144 3.144 3.144 3.144-1.408 3.144-3.144c-.001-1.736-1.408-3.144-3.144-3.144z"/><path d="m264.154 158.809c-1.736 0-3.144 1.408-3.144 3.144s1.408 3.144 3.144 3.144 3.144-1.408 3.144-3.144c-.001-1.736-1.408-3.144-3.144-3.144z"/><path d="m253.639 169.325c-1.736 0-3.144 1.407-3.144 3.144 0 1.736 1.408 3.143 3.144 3.143s3.144-1.407 3.144-3.143c-.001-1.737-1.408-3.144-3.144-3.144z"/><path d="m264.154 179.077c-1.736 0-3.144 1.407-3.144 3.144 0 1.736 1.408 3.144 3.144 3.144s3.144-1.407 3.144-3.144c-.001-1.737-1.408-3.144-3.144-3.144z"/><path d="m253.639 189.591c-1.736 0-3.144 1.407-3.144 3.144 0 1.736 1.408 3.143 3.144 3.143s3.144-1.407 3.144-3.143c-.001-1.737-1.408-3.144-3.144-3.144z"/><path d="m264.154 199.343c-1.736 0-3.144 1.407-3.144 3.143s1.408 3.144 3.144 3.144c.022 0 .043-.006.065-.006.832-1.67 1.637-3.356 2.402-5.064-.576-.735-1.461-1.217-2.467-1.217z"/><path d="m253.639 209.858c-1.736 0-3.144 1.408-3.144 3.144s1.408 3.143 3.144 3.143 3.144-1.408 3.144-3.143c-.001-1.737-1.408-3.144-3.144-3.144z"/><path d="m233.372 47.723c-1.736 0-3.144 1.408-3.144 3.144s1.407 3.144 3.144 3.144c1.736 0 3.144-1.408 3.144-3.144s-1.408-3.144-3.144-3.144z"/><path d="m243.887 57.475c-1.736 0-3.144 1.408-3.144 3.143 0 1.736 1.408 3.144 3.144 3.144s3.144-1.407 3.144-3.144c0-1.735-1.408-3.143-3.144-3.143z"/><path d="m233.372 67.991c-1.736 0-3.144 1.407-3.144 3.144s1.407 3.144 3.144 3.144c1.736 0 3.144-1.407 3.144-3.144s-1.408-3.144-3.144-3.144z"/><path d="m243.887 77.743c-1.736 0-3.144 1.407-3.144 3.144 0 1.736 1.408 3.144 3.144 3.144s3.144-1.408 3.144-3.144c0-1.737-1.408-3.144-3.144-3.144z"/><path d="m233.372 88.257c-1.736 0-3.144 1.407-3.144 3.144 0 1.736 1.407 3.144 3.144 3.144 1.736 0 3.144-1.407 3.144-3.144s-1.408-3.144-3.144-3.144z"/><path d="m243.887 98.009c-1.736 0-3.144 1.407-3.144 3.144 0 1.736 1.408 3.144 3.144 3.144s3.144-1.407 3.144-3.144-1.408-3.144-3.144-3.144z"/><path d="m233.372 108.524c-1.736 0-3.144 1.408-3.144 3.144s1.407 3.144 3.144 3.144c1.736 0 3.144-1.408 3.144-3.144 0-1.737-1.408-3.144-3.144-3.144z"/><path d="m243.887 118.276c-1.736 0-3.144 1.408-3.144 3.144s1.408 3.144 3.144 3.144 3.144-1.408 3.144-3.144c0-1.737-1.408-3.144-3.144-3.144z"/><path d="m233.372 128.791c-1.736 0-3.144 1.407-3.144 3.144 0 1.736 1.407 3.144 3.144 3.144 1.736 0 3.144-1.407 3.144-3.144s-1.408-3.144-3.144-3.144z"/><path d="m243.887 138.543c-1.736 0-3.144 1.407-3.144 3.143s1.408 3.144 3.144 3.144 3.144-1.407 3.144-3.144c0-1.736-1.408-3.143-3.144-3.143z"/><path d="m233.372 149.057c-1.736 0-3.144 1.408-3.144 3.144s1.407 3.144 3.144 3.144c1.736 0 3.144-1.408 3.144-3.144s-1.408-3.144-3.144-3.144z"/><path d="m243.887 158.809c-1.736 0-3.144 1.408-3.144 3.144s1.408 3.144 3.144 3.144 3.144-1.408 3.144-3.144-1.408-3.144-3.144-3.144z"/><path d="m233.372 169.325c-1.736 0-3.144 1.407-3.144 3.144 0 1.736 1.407 3.143 3.144 3.143 1.736 0 3.144-1.407 3.144-3.143 0-1.737-1.408-3.144-3.144-3.144z"/><path d="m243.887 179.077c-1.736 0-3.144 1.407-3.144 3.144 0 1.736 1.408 3.144 3.144 3.144s3.144-1.407 3.144-3.144-1.408-3.144-3.144-3.144z"/><path d="m233.372 189.591c-1.736 0-3.144 1.407-3.144 3.144 0 1.736 1.407 3.143 3.144 3.143 1.736 0 3.144-1.407 3.144-3.143 0-1.737-1.408-3.144-3.144-3.144z"/><path d="m243.887 199.343c-1.736 0-3.144 1.407-3.144 3.143s1.408 3.144 3.144 3.144 3.144-1.407 3.144-3.144c0-1.736-1.408-3.143-3.144-3.143z"/><path d="m233.372 209.858c-1.736 0-3.144 1.408-3.144 3.144s1.407 3.143 3.144 3.143c1.736 0 3.144-1.408 3.144-3.143 0-1.737-1.408-3.144-3.144-3.144z"/><path d="m243.887 225.897c1.736 0 3.144-1.408 3.144-3.144s-1.408-3.143-3.144-3.143-3.144 1.408-3.144 3.143c0 1.737 1.408 3.144 3.144 3.144z"/><path d="m233.372 230.125c-1.736 0-3.144 1.407-3.144 3.144 0 1.736 1.407 3.144 3.144 3.144 1.736 0 3.144-1.407 3.144-3.144s-1.408-3.144-3.144-3.144z"/><path d="m221.921 42.991c.491.317 1.072.505 1.7.505 1.736 0 3.144-1.407 3.144-3.144 0-1.736-1.408-3.144-3.144-3.144-1.109 0-2.079.577-2.638 1.444.335 1.438.647 2.884.938 4.339z"/><path d="m224.018 57.515c.183 2.03.327 4.071.42 6.126 1.337-.362 2.325-1.571 2.325-3.023.001-1.599-1.199-2.905-2.745-3.103z"/><path d="m226.764 80.886c0-1.477-1.022-2.706-2.395-3.044-.117 2.065-.272 4.12-.479 6.16 1.608-.139 2.874-1.472 2.874-3.116z"/><path d="m223.62 104.296c1.736 0 3.144-1.407 3.144-3.144 0-1.736-1.408-3.144-3.144-3.144-.794 0-1.511.304-2.064.789-.258 1.206-.532 2.405-.821 3.599.482 1.118 1.591 1.9 2.885 1.9z"/><path d="m223.62 118.276c-1.736 0-3.144 1.408-3.144 3.144s1.408 3.144 3.144 3.144 3.144-1.408 3.144-3.144c0-1.737-1.408-3.144-3.144-3.144z"/><path d="m213.105 135.078c1.736 0 3.144-1.407 3.144-3.144 0-1.736-1.407-3.144-3.144-3.144-.818 0-1.556.32-2.115.832-.326.674-.662 1.341-.998 2.009-.01.101-.031.199-.031.303.001 1.737 1.408 3.144 3.144 3.144z"/><path d="m223.62 138.543c-1.736 0-3.144 1.407-3.144 3.143s1.408 3.144 3.144 3.144 3.144-1.407 3.144-3.144c0-1.736-1.408-3.143-3.144-3.143z"/><path d="m213.105 149.057c-1.736 0-3.144 1.408-3.144 3.144s1.407 3.144 3.144 3.144c1.736 0 3.144-1.408 3.144-3.144s-1.408-3.144-3.144-3.144z"/><path d="m223.62 158.809c-1.736 0-3.144 1.408-3.144 3.144s1.408 3.144 3.144 3.144 3.144-1.408 3.144-3.144-1.408-3.144-3.144-3.144z"/><path d="m213.105 169.325c-1.736 0-3.144 1.407-3.144 3.144 0 1.736 1.407 3.143 3.144 3.143 1.736 0 3.144-1.407 3.144-3.143 0-1.737-1.408-3.144-3.144-3.144z"/><path d="m223.62 179.077c-1.736 0-3.144 1.407-3.144 3.144 0 1.736 1.408 3.144 3.144 3.144s3.144-1.407 3.144-3.144-1.408-3.144-3.144-3.144z"/><path d="m213.105 189.591c-1.736 0-3.144 1.407-3.144 3.144 0 1.736 1.407 3.143 3.144 3.143 1.736 0 3.144-1.407 3.144-3.143 0-1.737-1.408-3.144-3.144-3.144z"/><path d="m223.62 199.343c-1.736 0-3.144 1.407-3.144 3.143s1.408 3.144 3.144 3.144 3.144-1.407 3.144-3.144c0-1.736-1.408-3.143-3.144-3.143z"/><path d="m213.105 209.858c-1.736 0-3.144 1.408-3.144 3.144s1.407 3.143 3.144 3.143c1.736 0 3.144-1.408 3.144-3.143 0-1.737-1.408-3.144-3.144-3.144z"/><path d="m223.62 219.61c-1.736 0-3.144 1.408-3.144 3.143 0 1.736 1.408 3.144 3.144 3.144s3.144-1.408 3.144-3.144-1.408-3.143-3.144-3.143z"/><path d="m213.105 230.125c-1.736 0-3.144 1.407-3.144 3.144 0 1.736 1.407 3.144 3.144 3.144 1.736 0 3.144-1.407 3.144-3.144s-1.408-3.144-3.144-3.144z"/><path d="m223.62 239.877c-1.736 0-3.144 1.407-3.144 3.143s1.408 3.144 3.144 3.144 3.144-1.407 3.144-3.144-1.408-3.143-3.144-3.143z"/><path d="m213.105 250.391c-1.736 0-3.144 1.408-3.144 3.144s1.407 3.144 3.144 3.144c1.736 0 3.144-1.408 3.144-3.144s-1.408-3.144-3.144-3.144z"/><path d="m206.497 141.686c0-.821-.322-1.562-.837-2.122-1.022 1.734-2.08 3.445-3.175 5.129.278.08.565.137.869.137 1.735 0 3.143-1.407 3.143-3.144z"/><path d="m203.353 158.809c-1.736 0-3.144 1.408-3.144 3.144s1.408 3.144 3.144 3.144 3.144-1.408 3.144-3.144-1.408-3.144-3.144-3.144z"/><path d="m192.838 169.325c-1.736 0-3.144 1.407-3.144 3.144 0 1.736 1.407 3.143 3.144 3.143s3.144-1.407 3.144-3.143c0-1.737-1.407-3.144-3.144-3.144z"/><path d="m203.353 179.077c-1.736 0-3.144 1.407-3.144 3.144 0 1.736 1.408 3.144 3.144 3.144s3.144-1.407 3.144-3.144-1.408-3.144-3.144-3.144z"/><path d="m192.838 189.591c-1.736 0-3.144 1.407-3.144 3.144 0 1.736 1.407 3.143 3.144 3.143s3.144-1.407 3.144-3.143c0-1.737-1.407-3.144-3.144-3.144z"/><path d="m203.353 199.343c-1.736 0-3.144 1.407-3.144 3.143s1.408 3.144 3.144 3.144 3.144-1.407 3.144-3.144c0-1.736-1.408-3.143-3.144-3.143z"/><path d="m192.838 209.858c-1.736 0-3.144 1.408-3.144 3.144s1.407 3.143 3.144 3.143 3.144-1.408 3.144-3.143c0-1.737-1.407-3.144-3.144-3.144z"/><path d="m203.353 219.61c-1.736 0-3.144 1.408-3.144 3.143 0 1.736 1.408 3.144 3.144 3.144s3.144-1.408 3.144-3.144-1.408-3.143-3.144-3.143z"/><path d="m192.838 230.125c-1.736 0-3.144 1.407-3.144 3.144 0 1.736 1.407 3.144 3.144 3.144s3.144-1.407 3.144-3.144-1.407-3.144-3.144-3.144z"/><path d="m203.353 239.877c-1.736 0-3.144 1.407-3.144 3.143s1.408 3.144 3.144 3.144 3.144-1.407 3.144-3.144-1.408-3.143-3.144-3.143z"/><path d="m192.838 250.391c-1.736 0-3.144 1.408-3.144 3.144s1.407 3.144 3.144 3.144 3.144-1.408 3.144-3.144-1.407-3.144-3.144-3.144z"/><path d="m203.353 260.143c-1.736 0-3.144 1.408-3.144 3.143 0 1.736 1.408 3.144 3.144 3.144s3.144-1.408 3.144-3.144c0-1.735-1.408-3.143-3.144-3.143z"/><path d="m189.845 272.889c1.527-.578 3.044-1.176 4.544-1.806-.459-.263-.984-.425-1.551-.425-1.416.001-2.6.943-2.993 2.231z"/><path d="m183.087 179.077c-1.736 0-3.144 1.407-3.144 3.144 0 1.736 1.408 3.144 3.144 3.144s3.144-1.407 3.144-3.144c-.001-1.737-1.408-3.144-3.144-3.144z"/><path d="m172.572 189.591c-1.736 0-3.144 1.407-3.144 3.144 0 1.736 1.407 3.143 3.144 3.143 1.736 0 3.144-1.407 3.144-3.143-.001-1.737-1.408-3.144-3.144-3.144z"/><path d="m183.087 199.343c-1.736 0-3.144 1.407-3.144 3.143s1.408 3.144 3.144 3.144 3.144-1.407 3.144-3.144c-.001-1.736-1.408-3.143-3.144-3.143z"/><path d="m172.572 209.858c-1.736 0-3.144 1.408-3.144 3.144s1.407 3.143 3.144 3.143c1.736 0 3.144-1.408 3.144-3.143-.001-1.737-1.408-3.144-3.144-3.144z"/><path d="m183.087 219.61c-1.736 0-3.144 1.408-3.144 3.143 0 1.736 1.408 3.144 3.144 3.144s3.144-1.408 3.144-3.144c-.001-1.736-1.408-3.143-3.144-3.143z"/><path d="m172.572 230.125c-1.736 0-3.144 1.407-3.144 3.144 0 1.736 1.407 3.144 3.144 3.144 1.736 0 3.144-1.407 3.144-3.144-.001-1.737-1.408-3.144-3.144-3.144z"/><path d="m183.087 239.877c-1.736 0-3.144 1.407-3.144 3.143s1.408 3.144 3.144 3.144 3.144-1.407 3.144-3.144-1.408-3.143-3.144-3.143z"/><path d="m172.572 250.391c-1.736 0-3.144 1.408-3.144 3.144s1.407 3.144 3.144 3.144c1.736 0 3.144-1.408 3.144-3.144-.001-1.736-1.408-3.144-3.144-3.144z"/><path d="m183.087 260.143c-1.736 0-3.144 1.408-3.144 3.143 0 1.736 1.408 3.144 3.144 3.144s3.144-1.408 3.144-3.144c-.001-1.735-1.408-3.143-3.144-3.143z"/><path d="m172.572 270.659c-1.736 0-3.144 1.407-3.144 3.144 0 1.736 1.407 3.143 3.144 3.143 1.736 0 3.144-1.407 3.144-3.143-.001-1.737-1.408-3.144-3.144-3.144z"/><path d="m165.935 182.5c-1.325.927-2.666 1.833-4.025 2.714.29.088.591.149.909.149 1.641.001 2.972-1.26 3.116-2.863z"/><path d="m152.305 195.878c1.736 0 3.144-1.407 3.144-3.143 0-1.156-.631-2.156-1.561-2.702-1.551.861-3.118 1.695-4.705 2.498-.005.069-.021.134-.021.204-.001 1.736 1.407 3.143 3.143 3.143z"/><path d="m162.82 199.343c-1.736 0-3.144 1.407-3.144 3.143s1.408 3.144 3.144 3.144 3.144-1.407 3.144-3.144c-.001-1.736-1.408-3.143-3.144-3.143z"/><path d="m152.305 209.858c-1.736 0-3.144 1.408-3.144 3.144s1.408 3.143 3.144 3.143 3.144-1.408 3.144-3.143c-.001-1.737-1.408-3.144-3.144-3.144z"/><path d="m162.82 219.61c-1.736 0-3.144 1.408-3.144 3.143 0 1.736 1.408 3.144 3.144 3.144s3.144-1.408 3.144-3.144c-.001-1.736-1.408-3.143-3.144-3.143z"/><path d="m152.305 230.125c-1.736 0-3.144 1.407-3.144 3.144 0 1.736 1.408 3.144 3.144 3.144s3.144-1.407 3.144-3.144c-.001-1.737-1.408-3.144-3.144-3.144z"/><path d="m162.82 239.877c-1.736 0-3.144 1.407-3.144 3.143s1.408 3.144 3.144 3.144 3.144-1.407 3.144-3.144-1.408-3.143-3.144-3.143z"/><path d="m152.305 250.391c-1.736 0-3.144 1.408-3.144 3.144s1.408 3.144 3.144 3.144 3.144-1.408 3.144-3.144c-.001-1.736-1.408-3.144-3.144-3.144z"/><path d="m162.82 260.143c-1.736 0-3.144 1.408-3.144 3.143 0 1.736 1.408 3.144 3.144 3.144s3.144-1.408 3.144-3.144c-.001-1.735-1.408-3.143-3.144-3.143z"/><path d="m152.305 270.659c-1.736 0-3.144 1.407-3.144 3.144 0 1.736 1.408 3.143 3.144 3.143s3.144-1.407 3.144-3.143c-.001-1.737-1.408-3.144-3.144-3.144z"/><path d="m142.553 199.343c-1.736 0-3.144 1.407-3.144 3.143s1.408 3.144 3.144 3.144 3.144-1.407 3.144-3.144c0-1.736-1.408-3.143-3.144-3.143z"/><path d="m132.038 209.858c-1.736 0-3.144 1.408-3.144 3.144s1.407 3.143 3.144 3.143c1.736 0 3.144-1.408 3.144-3.143 0-1.737-1.408-3.144-3.144-3.144z"/><path d="m142.553 219.61c-1.736 0-3.144 1.408-3.144 3.143 0 1.736 1.408 3.144 3.144 3.144s3.144-1.408 3.144-3.144-1.408-3.143-3.144-3.143z"/><path d="m132.038 230.125c-1.736 0-3.144 1.407-3.144 3.144 0 1.736 1.407 3.144 3.144 3.144 1.736 0 3.144-1.407 3.144-3.144s-1.408-3.144-3.144-3.144z"/><path d="m142.553 239.877c-1.736 0-3.144 1.407-3.144 3.143s1.408 3.144 3.144 3.144 3.144-1.407 3.144-3.144-1.408-3.143-3.144-3.143z"/><path d="m132.038 250.391c-1.736 0-3.144 1.408-3.144 3.144s1.407 3.144 3.144 3.144c1.736 0 3.144-1.408 3.144-3.144s-1.408-3.144-3.144-3.144z"/><path d="m142.553 260.143c-1.736 0-3.144 1.408-3.144 3.143 0 1.736 1.408 3.144 3.144 3.144s3.144-1.408 3.144-3.144c0-1.735-1.408-3.143-3.144-3.143z"/><path d="m132.038 270.659c-1.736 0-3.144 1.407-3.144 3.144 0 1.736 1.407 3.143 3.144 3.143 1.736 0 3.144-1.407 3.144-3.143 0-1.737-1.408-3.144-3.144-3.144z"/><path d="m145.059 281.674c-.574-.763-1.478-1.263-2.506-1.263-1.046 0-1.966.516-2.538 1.302.433.004.865.014 1.299.014 1.252-.001 2.5-.02 3.745-.053z"/><path d="m122.286 205.63c1.736 0 3.144-1.407 3.144-3.144 0-.206-.023-.407-.061-.602-1.999.575-4.018 1.102-6.053 1.588.415 1.251 1.581 2.158 2.97 2.158z"/><path d="m111.771 209.858c-1.736 0-3.144 1.408-3.144 3.144s1.408 3.143 3.144 3.143 3.144-1.408 3.144-3.143c0-1.737-1.408-3.144-3.144-3.144z"/><path d="m122.286 219.61c-1.736 0-3.144 1.408-3.144 3.143 0 1.736 1.408 3.144 3.144 3.144s3.144-1.408 3.144-3.144-1.408-3.143-3.144-3.143z"/><path d="m111.771 230.125c-1.736 0-3.144 1.407-3.144 3.144 0 1.736 1.408 3.144 3.144 3.144s3.144-1.407 3.144-3.144-1.408-3.144-3.144-3.144z"/><path d="m122.286 239.877c-1.736 0-3.144 1.407-3.144 3.143s1.408 3.144 3.144 3.144 3.144-1.407 3.144-3.144-1.408-3.143-3.144-3.143z"/><path d="m111.771 250.391c-1.736 0-3.144 1.408-3.144 3.144s1.408 3.144 3.144 3.144 3.144-1.408 3.144-3.144-1.408-3.144-3.144-3.144z"/><path d="m122.286 260.143c-1.736 0-3.144 1.408-3.144 3.143 0 1.736 1.408 3.144 3.144 3.144s3.144-1.408 3.144-3.144c0-1.735-1.408-3.143-3.144-3.143z"/><path d="m111.771 270.659c-1.736 0-3.144 1.407-3.144 3.144 0 1.736 1.408 3.143 3.144 3.143s3.144-1.407 3.144-3.143c0-1.737-1.408-3.144-3.144-3.144z"/><path d="m122.286 280.411c-.001 0-.002 0-.002 0 .256.036.511.07.768.104-.247-.062-.5-.104-.766-.104z"/><path d="m91.504 209.858c-1.736 0-3.144 1.408-3.144 3.144s1.408 3.143 3.144 3.143 3.144-1.408 3.144-3.143c0-1.737-1.407-3.144-3.144-3.144z"/><path d="m102.019 219.61c-1.736 0-3.144 1.408-3.144 3.143 0 1.736 1.408 3.144 3.144 3.144s3.144-1.408 3.144-3.144-1.408-3.143-3.144-3.143z"/><path d="m91.504 230.125c-1.736 0-3.144 1.407-3.144 3.144 0 1.736 1.408 3.144 3.144 3.144s3.144-1.407 3.144-3.144-1.407-3.144-3.144-3.144z"/><path d="m102.019 239.877c-1.736 0-3.144 1.407-3.144 3.143s1.408 3.144 3.144 3.144 3.144-1.407 3.144-3.144-1.408-3.143-3.144-3.143z"/><path d="m91.504 256.679c1.736 0 3.144-1.408 3.144-3.144s-1.407-3.144-3.144-3.144c-1.736 0-3.144 1.408-3.144 3.144.001 1.736 1.408 3.144 3.144 3.144z"/><path d="m102.019 260.143c-1.736 0-3.144 1.408-3.144 3.143 0 1.736 1.408 3.144 3.144 3.144s3.144-1.408 3.144-3.144c0-1.735-1.408-3.143-3.144-3.143z"/><path d="m91.504 270.659c-.844 0-1.607.337-2.172.878 1.746.715 3.511 1.395 5.293 2.039-.118-1.629-1.462-2.917-3.121-2.917z"/><path d="m71.237 209.858c-1.736 0-3.144 1.408-3.144 3.144s1.408 3.143 3.144 3.143 3.144-1.408 3.144-3.143c0-1.737-1.407-3.144-3.144-3.144z"/><path d="m81.752 219.61c-1.736 0-3.144 1.408-3.144 3.143 0 1.736 1.408 3.144 3.144 3.144s3.144-1.408 3.144-3.144-1.407-3.143-3.144-3.143z"/><path d="m71.237 230.125c-1.736 0-3.144 1.407-3.144 3.144 0 1.736 1.408 3.144 3.144 3.144s3.144-1.407 3.144-3.144-1.407-3.144-3.144-3.144z"/><path d="m81.752 239.877c-1.736 0-3.144 1.407-3.144 3.143s1.408 3.144 3.144 3.144 3.144-1.407 3.144-3.144-1.407-3.143-3.144-3.143z"/><path d="m71.237 250.391c-1.736 0-3.144 1.408-3.144 3.144s1.408 3.144 3.144 3.144 3.144-1.408 3.144-3.144-1.407-3.144-3.144-3.144z"/><path d="m81.752 260.143c-1.736 0-3.144 1.408-3.144 3.143 0 1.736 1.408 3.144 3.144 3.144s3.144-1.408 3.144-3.144c0-1.735-1.407-3.143-3.144-3.143z"/><path d="m61.486 205.63c.652 0 1.257-.199 1.76-.538-1.464-.26-2.919-.541-4.366-.847.565.836 1.521 1.385 2.606 1.385z"/><path d="m50.971 209.858c-1.736 0-3.144 1.408-3.144 3.144s1.407 3.143 3.144 3.143c1.736 0 3.144-1.408 3.144-3.143-.001-1.737-1.408-3.144-3.144-3.144z"/><path d="m61.486 219.61c-1.736 0-3.144 1.408-3.144 3.143 0 1.736 1.408 3.144 3.144 3.144s3.144-1.408 3.144-3.144c-.001-1.736-1.408-3.143-3.144-3.143z"/><path d="m50.971 230.125c-1.736 0-3.144 1.407-3.144 3.144 0 1.736 1.407 3.144 3.144 3.144 1.736 0 3.144-1.407 3.144-3.144-.001-1.737-1.408-3.144-3.144-3.144z"/><path d="m61.486 239.877c-1.736 0-3.144 1.407-3.144 3.143s1.408 3.144 3.144 3.144 3.144-1.407 3.144-3.144-1.408-3.143-3.144-3.143z"/><path d="m30.704 195.878c.461 0 .896-.104 1.29-.283-1.446-.639-2.877-1.305-4.296-1.992.378 1.311 1.573 2.275 3.006 2.275z"/><path d="m38.075 202.487c0 1.736 1.408 3.144 3.144 3.144s3.144-1.407 3.144-3.144c0-1.106-.574-2.074-1.438-2.635-.474-.162-.953-.314-1.425-.48-.094-.008-.185-.028-.281-.028-1.736-.001-3.144 1.406-3.144 3.143z"/><path d="m27.56 213.002c0 1.736 1.407 3.143 3.144 3.143 1.736 0 3.144-1.408 3.144-3.143 0-1.736-1.407-3.144-3.144-3.144-1.736 0-3.144 1.407-3.144 3.144z"/><path d="m41.219 219.61c-1.736 0-3.144 1.408-3.144 3.143 0 1.736 1.408 3.144 3.144 3.144s3.144-1.408 3.144-3.144-1.408-3.143-3.144-3.143z"/><path d="m11.767 189.896c.487 1.39.994 2.771 1.525 4.14.182-.397.289-.835.289-1.301 0-1.259-.745-2.337-1.814-2.839z"/><path d="m17.808 202.487c0 1.736 1.408 3.144 3.144 3.144s3.144-1.407 3.144-3.144c0-1.736-1.407-3.143-3.144-3.143-1.736-.001-3.144 1.406-3.144 3.143z"/></g><ellipse cx="121.177" cy="119.535" fill="#f9fbfc" rx="71.135" ry="71.135" transform="matrix(.707 -.707 .707 .707 -49.032 120.696)"/><path d="m121.177 194.723c-41.459 0-75.188-33.729-75.188-75.188s33.729-75.188 75.188-75.188 75.188 33.729 75.188 75.188-33.729 75.188-75.188 75.188zm0-142.27c-36.989 0-67.081 30.092-67.081 67.081s30.092 67.081 67.081 67.081 67.081-30.092 67.081-67.081c0-36.988-30.092-67.081-67.081-67.081z" fill="#31373d"/><path d="m133.82 68.72-19.6-4.663c-4.031-.96-8.074 1.531-9.032 5.561s1.531 8.074 5.561 9.032l12.303 2.927-20.079 84.403c-.959 4.03 1.531 8.074 5.561 9.032.584.139 1.167.206 1.742.205 3.394 0 6.47-2.32 7.29-5.766l21.814-91.699c.959-4.029-1.53-8.073-5.56-9.032z" fill="#31373d"/><ellipse cx="367.043" cy="212.752" fill="#f9fbfc" rx="140.753" ry="140.753" transform="matrix(.707 -.707 .707 .707 -42.934 321.852)"/><g fill="#eaa895"><path d="m463.678 303.821c0 1.736 1.408 3.144 3.144 3.144s3.144-1.407 3.144-3.144c0-.97-.449-1.827-1.139-2.403h-4.009c-.691.576-1.14 1.432-1.14 2.403z"/><path d="m453.163 314.336c0 1.736 1.408 3.144 3.144 3.144s3.144-1.408 3.144-3.144-1.408-3.144-3.144-3.144-3.144 1.407-3.144 3.144z"/><path d="m443.411 303.821c0 1.736 1.407 3.144 3.144 3.144 1.736 0 3.143-1.407 3.143-3.144 0-.97-.449-1.827-1.139-2.403h-4.009c-.69.576-1.139 1.432-1.139 2.403z"/><path d="m432.896 314.336c0 1.736 1.408 3.144 3.144 3.144s3.144-1.408 3.144-3.144-1.407-3.144-3.144-3.144c-1.736 0-3.144 1.407-3.144 3.144z"/><path d="m446.555 320.944c-1.736 0-3.144 1.408-3.144 3.144s1.407 3.144 3.144 3.144c1.736 0 3.143-1.408 3.143-3.144.001-1.737-1.407-3.144-3.143-3.144z"/><path d="m436.04 331.459c-1.736 0-3.144 1.407-3.144 3.143 0 .817.32 1.555.831 2.114 1.793-.967 3.567-1.963 5.312-3.004-.385-1.299-1.574-2.253-2.999-2.253z"/><path d="m423.144 303.821c0 1.736 1.408 3.144 3.144 3.144s3.144-1.407 3.144-3.144c0-.97-.449-1.827-1.139-2.403h-4.009c-.691.576-1.14 1.432-1.14 2.403z"/><path d="m415.773 311.192c-1.736 0-3.144 1.408-3.144 3.144s1.408 3.144 3.144 3.144 3.144-1.408 3.144-3.144c0-1.737-1.408-3.144-3.144-3.144z"/><path d="m426.288 320.944c-1.736 0-3.144 1.408-3.144 3.144s1.408 3.144 3.144 3.144 3.144-1.408 3.144-3.144c0-1.737-1.408-3.144-3.144-3.144z"/><path d="m415.773 331.459c-1.736 0-3.144 1.407-3.144 3.143s1.408 3.144 3.144 3.144 3.144-1.407 3.144-3.144c0-1.736-1.408-3.143-3.144-3.143z"/><path d="m402.878 303.821c0 1.736 1.408 3.144 3.144 3.144s3.144-1.407 3.144-3.144c0-.97-.449-1.827-1.139-2.403h-4.009c-.692.576-1.14 1.432-1.14 2.403z"/><path d="m395.506 311.192c-1.736 0-3.144 1.408-3.144 3.144s1.408 3.144 3.144 3.144 3.144-1.408 3.144-3.144c0-1.737-1.407-3.144-3.144-3.144z"/><path d="m406.021 320.944c-1.736 0-3.144 1.408-3.144 3.144s1.408 3.144 3.144 3.144 3.144-1.408 3.144-3.144c0-1.737-1.408-3.144-3.144-3.144z"/><path d="m395.506 331.459c-1.736 0-3.144 1.407-3.144 3.143s1.408 3.144 3.144 3.144 3.144-1.407 3.144-3.144c0-1.736-1.407-3.143-3.144-3.143z"/><circle cx="406.021" cy="344.354" r="3.144"/><path d="m385.754 306.964c1.736 0 3.144-1.407 3.144-3.144 0-.97-.449-1.827-1.139-2.403h-1.234c-1.219.431-2.449.838-3.684 1.236-.145.362-.229.754-.229 1.168-.001 1.736 1.406 3.143 3.142 3.143z"/><path d="m375.24 311.192c-1.736 0-3.144 1.408-3.144 3.144s1.408 3.144 3.144 3.144 3.144-1.408 3.144-3.144c-.001-1.737-1.408-3.144-3.144-3.144z"/><path d="m385.754 320.944c-1.736 0-3.143 1.408-3.143 3.144s1.408 3.144 3.143 3.144c1.736 0 3.144-1.408 3.144-3.144 0-1.737-1.407-3.144-3.144-3.144z"/><path d="m375.24 331.459c-1.736 0-3.144 1.407-3.144 3.143s1.408 3.144 3.144 3.144 3.144-1.407 3.144-3.144c-.001-1.736-1.408-3.143-3.144-3.143z"/><path d="m385.754 341.211c-1.736 0-3.143 1.407-3.143 3.144s1.408 3.144 3.143 3.144c1.736 0 3.144-1.407 3.144-3.144s-1.407-3.144-3.144-3.144z"/><path d="m354.973 311.192c-1.736 0-3.144 1.408-3.144 3.144s1.408 3.144 3.144 3.144 3.144-1.408 3.144-3.144c-.001-1.737-1.408-3.144-3.144-3.144z"/><path d="m362.344 324.087c0 1.736 1.408 3.144 3.144 3.144s3.144-1.408 3.144-3.144-1.408-3.144-3.144-3.144c-1.736.001-3.144 1.408-3.144 3.144z"/><path d="m354.973 331.459c-1.736 0-3.144 1.407-3.144 3.143s1.408 3.144 3.144 3.144 3.144-1.407 3.144-3.144c-.001-1.736-1.408-3.143-3.144-3.143z"/><circle cx="365.488" cy="344.354" r="3.144"/><path d="m334.706 311.192c-1.736 0-3.144 1.408-3.144 3.144s1.408 3.144 3.144 3.144 3.144-1.408 3.144-3.144c0-1.737-1.408-3.144-3.144-3.144z"/><path d="m342.077 324.087c0 1.736 1.408 3.144 3.144 3.144s3.144-1.408 3.144-3.144-1.407-3.144-3.144-3.144-3.144 1.408-3.144 3.144z"/><path d="m334.706 331.459c-1.736 0-3.144 1.407-3.144 3.143s1.408 3.144 3.144 3.144 3.144-1.407 3.144-3.144c0-1.736-1.408-3.143-3.144-3.143z"/><path d="m345.221 347.498c1.736 0 3.144-1.407 3.144-3.144s-1.407-3.144-3.144-3.144-3.144 1.407-3.144 3.144 1.408 3.144 3.144 3.144z"/><path d="m314.439 311.192c-1.736 0-3.144 1.408-3.144 3.144s1.407 3.144 3.144 3.144 3.144-1.408 3.144-3.144c0-1.737-1.408-3.144-3.144-3.144z"/><path d="m321.81 324.087c0 1.736 1.408 3.144 3.144 3.144s3.144-1.408 3.144-3.144-1.408-3.144-3.144-3.144c-1.736.001-3.144 1.408-3.144 3.144z"/><path d="m314.439 331.459c-1.736 0-3.144 1.407-3.144 3.143s1.407 3.144 3.144 3.144 3.144-1.407 3.144-3.144c0-1.736-1.408-3.143-3.144-3.143z"/><path d="m328.098 344.354c0-1.736-1.408-3.144-3.144-3.144s-3.144 1.407-3.144 3.144c0 .731.26 1.396.679 1.93 1.111.371 2.229.728 3.352 1.071 1.302-.385 2.257-1.575 2.257-3.001z"/><path d="m304.687 306.964c1.053 0 1.98-.522 2.551-1.318-1.901-.448-3.787-.934-5.658-1.459.184 1.561 1.497 2.777 3.107 2.777z"/><path d="m291.029 314.336c0 1.736 1.408 3.144 3.144 3.144s3.144-1.408 3.144-3.144-1.407-3.144-3.144-3.144-3.144 1.407-3.144 3.144z"/><path d="m304.687 320.944c-1.736 0-3.144 1.408-3.144 3.144s1.408 3.144 3.144 3.144 3.144-1.408 3.144-3.144c0-1.737-1.408-3.144-3.144-3.144z"/><path d="m294.172 331.459c-.68 0-1.306.221-1.82.589 1.619 1.016 3.262 1.997 4.924 2.949.016-.13.04-.259.04-.394 0-1.737-1.407-3.144-3.144-3.144z"/><path d="m273.906 297.212c1.52 0 2.787-1.078 3.08-2.511-1.803-.898-3.587-1.831-5.345-2.804-.541.564-.878 1.327-.878 2.171-.001 1.737 1.406 3.144 3.143 3.144z"/><path d="m281.277 303.821c0 1.736 1.408 3.144 3.144 3.144s3.144-1.407 3.144-3.144-1.408-3.143-3.144-3.143c-1.737-.001-3.144 1.406-3.144 3.143z"/><path d="m277.049 314.336c0-1.736-1.407-3.144-3.144-3.144s-3.144 1.408-3.144 3.144c0 .494.124.956.327 1.371.567.529 1.145 1.046 1.721 1.565.342.127.708.207 1.095.207 1.738 0 3.145-1.407 3.145-3.143z"/><path d="m287.564 324.087c0-1.736-1.408-3.144-3.144-3.144s-3.144 1.408-3.144 3.144c0 .093.019.181.027.271 1.241.955 2.501 1.887 3.774 2.801 1.421-.302 2.487-1.561 2.487-3.072z"/><path d="m256.782 294.069c0-1.736-1.407-3.144-3.144-3.144-1.114 0-2.087.583-2.646 1.458 1.101 1.601 2.237 3.175 3.402 4.727 1.37-.339 2.388-1.567 2.388-3.041z"/><path d="m261.01 303.821c0 1.736 1.408 3.144 3.144 3.144s3.144-1.407 3.144-3.144-1.408-3.143-3.144-3.143c-1.737-.001-3.144 1.406-3.144 3.143z"/><path d="m243.887 280.411c-.086 0-.166.018-.25.025.911 1.658 1.853 3.295 2.828 4.911.355-.509.566-1.125.566-1.792 0-1.737-1.408-3.144-3.144-3.144z"/></g><path d="m476.62 124.419h-219.155c-19.495 24.153-31.175 54.877-31.175 88.333 0 33.563 11.755 64.377 31.363 88.565h218.781c19.608-24.188 31.363-55.002 31.363-88.565-.001-33.456-11.682-64.179-31.177-88.333zm-109.577 164.665c-42.157 0-76.331-34.175-76.331-76.331 0-42.157 34.175-76.332 76.331-76.332 42.157 0 76.331 34.175 76.331 76.332 0 42.156-34.175 76.331-76.331 76.331z" fill="#eaa895"/><g fill="#f9fbfc"><path d="m496.84 169.325c-1.736 0-3.144 1.407-3.144 3.144 0 1.736 1.408 3.143 3.144 3.143s3.143-1.407 3.143-3.143c.001-1.737-1.406-3.144-3.143-3.144z"/><path d="m496.84 189.591c-1.736 0-3.144 1.407-3.144 3.144 0 1.736 1.408 3.143 3.144 3.143s3.143-1.407 3.143-3.143c.001-1.737-1.406-3.144-3.143-3.144z"/><path d="m496.84 209.858c-1.736 0-3.144 1.408-3.144 3.144s1.408 3.143 3.144 3.143 3.143-1.408 3.143-3.143c.001-1.737-1.406-3.144-3.143-3.144z"/><path d="m496.84 230.125c-1.736 0-3.144 1.407-3.144 3.144 0 1.736 1.408 3.144 3.144 3.144s3.143-1.407 3.143-3.144c.001-1.737-1.406-3.144-3.143-3.144z"/><path d="m504.212 243.02c0 .293.053.571.128.84.213-.943.416-1.891.609-2.841-.454.545-.737 1.237-.737 2.001z"/><path d="m496.84 250.391c-1.736 0-3.144 1.408-3.144 3.144s1.408 3.144 3.144 3.144 3.143-1.408 3.143-3.144c.001-1.736-1.406-3.144-3.143-3.144z"/><path d="m476.379 135.058c.066.004.128.02.195.02 1.736 0 3.144-1.407 3.144-3.144 0-1.736-1.408-3.144-3.144-3.144-.64 0-1.234.194-1.731.523.551 1.899 1.062 3.815 1.536 5.745z"/><path d="m483.945 141.686c0 1.736 1.407 3.144 3.143 3.144 1.044 0 1.963-.515 2.534-1.298-.946-1.672-1.93-3.319-2.942-4.948-1.54.202-2.735 1.506-2.735 3.102z"/><path d="m479.569 153.106c.087-.289.148-.588.148-.905 0-.583-.17-1.124-.447-1.592.107.83.207 1.662.299 2.497z"/><path d="m487.088 158.809c-1.736 0-3.143 1.408-3.143 3.144s1.407 3.144 3.143 3.144 3.144-1.408 3.144-3.144-1.407-3.144-3.144-3.144z"/><path d="m487.088 179.077c-1.736 0-3.143 1.407-3.143 3.144 0 1.736 1.407 3.144 3.143 3.144s3.144-1.407 3.144-3.144-1.407-3.144-3.144-3.144z"/><path d="m479.717 192.735c0-.893-.376-1.694-.974-2.266-.268 1.723-.568 3.435-.898 5.137 1.102-.489 1.872-1.589 1.872-2.871z"/><path d="m487.088 199.343c-1.736 0-3.143 1.407-3.143 3.143s1.407 3.144 3.143 3.144 3.144-1.407 3.144-3.144c0-1.736-1.407-3.143-3.144-3.143z"/><path d="m476.574 216.145c1.736 0 3.144-1.408 3.144-3.143 0-1.736-1.408-3.144-3.144-3.144-1.271 0-2.359.758-2.854 1.843-.078.243-.152.487-.232.73-.034.186-.057.376-.057.571-.001 1.736 1.406 3.143 3.143 3.143z"/><path d="m487.088 219.61c-1.736 0-3.143 1.408-3.143 3.143 0 1.736 1.407 3.144 3.143 3.144s3.144-1.408 3.144-3.144-1.407-3.143-3.144-3.143z"/><path d="m476.574 230.125c-1.736 0-3.143 1.407-3.143 3.144 0 1.736 1.407 3.144 3.143 3.144s3.144-1.407 3.144-3.144c-.001-1.737-1.408-3.144-3.144-3.144z"/><path d="m487.088 239.877c-1.736 0-3.143 1.407-3.143 3.143s1.407 3.144 3.143 3.144 3.144-1.407 3.144-3.144-1.407-3.143-3.144-3.143z"/><path d="m476.574 250.391c-1.736 0-3.143 1.408-3.143 3.144s1.407 3.144 3.143 3.144 3.144-1.408 3.144-3.144c-.001-1.736-1.408-3.144-3.144-3.144z"/><path d="m487.088 260.143c-1.736 0-3.143 1.408-3.143 3.143 0 1.736 1.407 3.144 3.143 3.144s3.144-1.408 3.144-3.144c0-1.735-1.407-3.143-3.144-3.143z"/><path d="m476.574 270.659c-1.736 0-3.143 1.407-3.143 3.144 0 1.736 1.407 3.143 3.143 3.143s3.144-1.407 3.144-3.143c-.001-1.737-1.408-3.144-3.144-3.144z"/><path d="m487.088 280.411c-1.736 0-3.143 1.407-3.143 3.143 0 1.648 1.273 2.985 2.887 3.118.989-1.599 1.948-3.217 2.873-4.857-.564-.846-1.524-1.404-2.617-1.404z"/><path d="m476.574 290.925c-1.736 0-3.143 1.408-3.143 3.144s1.407 3.144 3.143 3.144 3.144-1.407 3.144-3.144c-.001-1.736-1.408-3.144-3.144-3.144z"/><path d="m469.965 222.753c0-.208-.023-.412-.061-.609-.448 1.088-.906 2.171-1.38 3.246.866-.56 1.441-1.529 1.441-2.637z"/><path d="m466.822 239.877c-1.736 0-3.144 1.407-3.144 3.143s1.408 3.144 3.144 3.144 3.144-1.407 3.144-3.144-1.408-3.143-3.144-3.143z"/><path d="m456.307 250.391c-1.736 0-3.144 1.408-3.144 3.144s1.408 3.144 3.144 3.144 3.144-1.408 3.144-3.144-1.408-3.144-3.144-3.144z"/><path d="m466.822 260.143c-1.736 0-3.144 1.408-3.144 3.143 0 1.736 1.408 3.144 3.144 3.144s3.144-1.408 3.144-3.144c-.001-1.735-1.408-3.143-3.144-3.143z"/><path d="m456.307 270.659c-1.736 0-3.144 1.407-3.144 3.144 0 1.736 1.408 3.143 3.144 3.143s3.144-1.407 3.144-3.143c0-1.737-1.408-3.144-3.144-3.144z"/><path d="m466.822 280.411c-1.736 0-3.144 1.407-3.144 3.143s1.408 3.144 3.144 3.144 3.144-1.407 3.144-3.144-1.408-3.143-3.144-3.143z"/><path d="m456.307 290.925c-1.736 0-3.144 1.408-3.144 3.144s1.408 3.144 3.144 3.144 3.144-1.407 3.144-3.144c0-1.736-1.408-3.144-3.144-3.144z"/><path d="m466.822 300.677c-.766 0-1.459.285-2.004.74h4.009c-.546-.455-1.239-.74-2.005-.74z"/><path d="m446.555 266.431c1.736 0 3.143-1.408 3.143-3.144 0-1.712-1.37-3.098-3.073-3.136-1.037 1.21-2.093 2.404-3.17 3.579.218 1.524 1.515 2.701 3.1 2.701z"/><path d="m436.04 276.946c1.736 0 3.144-1.407 3.144-3.143 0-1.545-1.117-2.823-2.586-3.087-1.204 1.143-2.43 2.264-3.674 3.365.143 1.603 1.475 2.865 3.116 2.865z"/><path d="m446.555 280.411c-1.736 0-3.144 1.407-3.144 3.143s1.407 3.144 3.144 3.144c1.736 0 3.143-1.407 3.143-3.144s-1.407-3.143-3.143-3.143z"/><path d="m436.04 290.925c-1.736 0-3.144 1.408-3.144 3.144s1.408 3.144 3.144 3.144 3.144-1.407 3.144-3.144c0-1.736-1.408-3.144-3.144-3.144z"/><path d="m446.555 300.677c-.766 0-1.459.285-2.004.74h4.009c-.546-.455-1.239-.74-2.005-.74z"/><path d="m423.144 283.554c0 1.736 1.408 3.144 3.144 3.144s3.144-1.407 3.144-3.144-1.408-3.143-3.144-3.143c-.637 0-1.228.192-1.723.518-.057.044-.114.088-.171.131-.755.574-1.25 1.473-1.25 2.494z"/><path d="m412.629 294.069c0 1.736 1.408 3.144 3.144 3.144s3.144-1.407 3.144-3.144c0-1.736-1.408-3.144-3.144-3.144s-3.144 1.408-3.144 3.144z"/><path d="m426.288 300.677c-.766 0-1.459.285-2.004.74h4.009c-.546-.455-1.239-.74-2.005-.74z"/><path d="m406.021 300.677c-.766 0-1.459.285-2.004.74h4.009c-.546-.455-1.239-.74-2.005-.74z"/><path d="m387.34 301.12c-.272.098-.543.201-.816.297h1.234c-.131-.11-.269-.209-.418-.297z"/></g><g fill="#31373d"><path d="m367.042 293.137c-44.324 0-80.384-36.061-80.384-80.385s36.06-80.384 80.384-80.384 80.385 36.06 80.385 80.384-36.06 80.385-80.385 80.385zm0-152.663c-39.854 0-72.278 32.423-72.278 72.278s32.423 72.278 72.278 72.278 72.278-32.424 72.278-72.278-32.423-72.278-72.278-72.278z"/><path d="m392.618 224.559h-4.503c.141-23.215.233-49.64-.049-53.028-.52-6.24-4.178-11.301-9.32-12.894-2.428-.752-8.712-1.717-14.621 5.533-5.329 6.538-31.977 54.682-37.264 64.266-1.282 2.323-1.241 5.151.108 7.436s3.805 3.687 6.458 3.687h39.587c-.051 7.181-.106 14.099-.159 20.255-.036 4.142 3.293 7.528 7.435 7.564.022.001.044.001.066.001 4.111-.001 7.463-3.315 7.498-7.436.021-2.425.087-10.283.16-20.384h4.603c4.142 0 7.5-3.358 7.5-7.5.001-4.142-3.357-7.5-7.499-7.5zm-19.505 0h-26.95c9.734-17.471 21.583-38.37 27.057-47.133.078 8.66.01 27.591-.107 47.133z"/><path d="m367.042 67.946c-34.638 0-66.47 12.23-91.417 32.592-18.517-56.478-71.722-97.385-134.311-97.385-77.921 0-141.314 63.392-141.314 141.313 0 44.111 20.328 83.553 52.095 109.487-25.377 27.076-40.943 63.454-40.943 103.403 0 83.45 67.891 151.34 151.341 151.34s151.341-67.891 151.341-151.34c0-3.387-.123-6.746-.344-10.079 16.574 6.624 34.642 10.281 53.553 10.281 79.847 0 144.807-64.961 144.807-144.807-.001-79.845-64.961-144.805-144.808-144.805zm-309.232 180.218c-30.289-24.438-49.703-61.84-49.703-103.698 0-73.45 59.756-133.206 133.207-133.206 60.203 0 111.196 40.149 127.635 95.075-28.702 26.478-46.713 64.381-46.713 106.417 0 1.884.053 3.756.128 5.622-18.372-7.945-38.615-12.358-59.871-12.358-40.581 0-77.479 16.057-104.683 42.148zm309.232 101.288c-19.333 0-37.738-4.041-54.424-11.313-6.453-50.701-38.093-93.645-81.939-115.867-.22-3.146-.337-6.319-.337-9.521 0-75.376 61.323-136.699 136.7-136.699s136.7 61.323 136.7 136.699c.001 75.378-61.323 136.701-136.7 136.701z"/></g><ellipse cx="162.492" cy="357.356" fill="#f9fbfc" rx="72.278" ry="72.277" transform="matrix(.994 -.114 .114 .994 -39.497 20.745)"/><path d="m182.453 348.8c4.591-4.897 7.411-11.475 7.411-18.701 0-15.093-12.279-27.372-27.372-27.372s-27.372 12.279-27.372 27.372c0 7.227 2.82 13.804 7.411 18.701-8.94 6.295-14.797 16.688-14.797 28.428 0 19.165 15.592 34.757 34.757 34.757s34.757-15.592 34.757-34.757c.002-11.74-5.856-22.132-14.795-28.428zm-32.333-18.701c0-6.822 5.55-12.372 12.372-12.372s12.372 5.55 12.372 12.372-5.55 12.372-12.372 12.372c-6.821 0-12.372-5.55-12.372-12.372zm12.372 66.886c-10.894 0-19.757-8.863-19.757-19.757s8.863-19.757 19.757-19.757 19.757 8.863 19.757 19.757c.001 10.894-8.863 19.757-19.757 19.757z" fill="#31373d"/></g></svg>