<svg id="Capa_1" enable-background="new 0 0 511.884 511.884" height="512" viewBox="0 0 511.884 511.884" width="512" xmlns="http://www.w3.org/2000/svg"><g><path d="m62.32 431.418h-33.59v-380.542c0-9.276 7.519-16.795 16.795-16.795 9.276 0 16.795 7.519 16.795 16.795z" fill="#e9c278"/><path d="m87.113 477.804h-83.176v-31.869c0-16.852 13.661-30.513 30.513-30.513h22.15c16.852 0 30.513 13.661 30.513 30.513z" fill="#eaa895"/><g fill="#f9fbfc"><path d="m77.863 431.38c-1.713 0-3.102 1.389-3.102 3.102 0 1.714 1.389 3.103 3.102 3.103s3.102-1.389 3.102-3.103c0-1.713-1.389-3.102-3.102-3.102z"/><path d="m85.137 444.106c0 1.314.821 2.432 1.976 2.884v-1.53c0-1.393-.103-2.76-.286-4.101-.999.515-1.69 1.545-1.69 2.747z"/><path d="m77.863 451.38c-1.713 0-3.102 1.389-3.102 3.102 0 1.714 1.389 3.103 3.102 3.103s3.102-1.389 3.102-3.103c0-1.713-1.389-3.102-3.102-3.102z"/><path d="m87.113 461.222c-1.155.452-1.976 1.569-1.976 2.884 0 1.314.821 2.432 1.976 2.884z"/><path d="m77.863 471.38c-1.713 0-3.102 1.389-3.102 3.102 0 1.714 1.389 3.103 3.102 3.103s3.102-1.389 3.102-3.103c0-1.713-1.389-3.102-3.102-3.102z"/><path d="m54.921 415.422c.4 1.251 1.558 2.162 2.942 2.162 1.299 0 2.408-.8 2.87-1.933-1.2-.145-2.418-.229-3.657-.229z"/><path d="m68.24 421.003c-1.713 0-3.102 1.389-3.102 3.103 0 1.713 1.389 3.102 3.102 3.102s3.102-1.39 3.102-3.102c0-1.714-1.389-3.103-3.102-3.103z"/><path d="m57.863 431.38c-1.713 0-3.102 1.389-3.102 3.102 0 1.714 1.389 3.103 3.102 3.103s3.102-1.389 3.102-3.103c0-1.713-1.389-3.102-3.102-3.102z"/><path d="m68.24 441.003c-1.713 0-3.102 1.389-3.102 3.103 0 1.713 1.389 3.102 3.102 3.102s3.102-1.39 3.102-3.102c0-1.714-1.389-3.103-3.102-3.103z"/><path d="m57.863 451.38c-1.713 0-3.102 1.389-3.102 3.102 0 1.714 1.389 3.103 3.102 3.103s3.102-1.389 3.102-3.103c0-1.713-1.389-3.102-3.102-3.102z"/><path d="m68.24 461.003c-1.713 0-3.102 1.389-3.102 3.103 0 1.713 1.389 3.102 3.102 3.102s3.102-1.39 3.102-3.102c0-1.714-1.389-3.103-3.102-3.103z"/><path d="m57.863 471.38c-1.713 0-3.102 1.389-3.102 3.102 0 1.714 1.389 3.103 3.102 3.103s3.102-1.389 3.102-3.103c0-1.713-1.389-3.102-3.102-3.102z"/><path d="m48.239 427.208c1.713 0 3.102-1.39 3.102-3.102 0-1.714-1.389-3.103-3.102-3.103-1.188 0-2.208.676-2.729 1.656v2.893c.522.981 1.541 1.656 2.729 1.656z"/><path d="m48.239 447.208c1.713 0 3.102-1.39 3.102-3.102 0-1.714-1.389-3.103-3.102-3.103-1.188 0-2.208.676-2.729 1.656v2.893c.522.981 1.541 1.656 2.729 1.656z"/><path d="m48.239 467.208c1.713 0 3.102-1.39 3.102-3.102 0-1.714-1.389-3.103-3.102-3.103-1.188 0-2.208.676-2.729 1.656v2.893c.522.981 1.541 1.656 2.729 1.656z"/></g><path d="m483.154 431.418h-33.59v-380.542c0-9.276 7.519-16.795 16.795-16.795 9.276 0 16.795 7.519 16.795 16.795z" fill="#e9c278"/><path d="m507.947 477.804h-83.175v-31.869c0-16.852 13.661-30.513 30.513-30.513h22.15c16.852 0 30.513 13.661 30.513 30.513v31.869z" fill="#eaa895"/><g fill="#f9fbfc"><path d="m497.863 431.38c-1.713 0-3.102 1.389-3.102 3.102 0 1.714 1.389 3.103 3.102 3.103s3.102-1.389 3.102-3.103c0-1.713-1.389-3.102-3.102-3.102z"/><path d="m505.137 444.106c0 1.613 1.236 2.923 2.81 3.072v-1.719c0-1.493-.113-2.959-.323-4.394-1.418.286-2.487 1.538-2.487 3.041z"/><path d="m497.863 451.38c-1.713 0-3.102 1.389-3.102 3.102 0 1.714 1.389 3.103 3.102 3.103s3.102-1.389 3.102-3.103c0-1.713-1.389-3.102-3.102-3.102z"/><path d="m507.947 461.033c-1.574.15-2.81 1.46-2.81 3.073s1.236 2.923 2.81 3.072z"/><path d="m497.863 471.38c-1.713 0-3.102 1.389-3.102 3.102 0 1.714 1.389 3.103 3.102 3.103s3.102-1.389 3.102-3.103c0-1.713-1.389-3.102-3.102-3.102z"/><path d="m474.922 415.422c.4 1.251 1.558 2.162 2.941 2.162 1.332 0 2.459-.844 2.898-2.023-.939-.089-1.889-.139-2.851-.139z"/><path d="m488.24 421.003c-1.713 0-3.102 1.389-3.102 3.103 0 1.713 1.389 3.102 3.102 3.102s3.102-1.39 3.102-3.102c0-1.714-1.389-3.103-3.102-3.103z"/><path d="m477.863 431.38c-1.713 0-3.102 1.389-3.102 3.102 0 1.714 1.389 3.103 3.102 3.103s3.102-1.389 3.102-3.103c0-1.713-1.389-3.102-3.102-3.102z"/><path d="m488.24 441.003c-1.713 0-3.102 1.389-3.102 3.103 0 1.713 1.389 3.102 3.102 3.102s3.102-1.39 3.102-3.102c0-1.714-1.389-3.103-3.102-3.103z"/><path d="m477.863 451.38c-1.713 0-3.102 1.389-3.102 3.102 0 1.714 1.389 3.103 3.102 3.103s3.102-1.389 3.102-3.103c0-1.713-1.389-3.102-3.102-3.102z"/><path d="m488.24 461.003c-1.713 0-3.102 1.389-3.102 3.103 0 1.713 1.389 3.102 3.102 3.102s3.102-1.39 3.102-3.102c0-1.714-1.389-3.103-3.102-3.103z"/><path d="m477.863 471.38c-1.713 0-3.102 1.389-3.102 3.102 0 1.714 1.389 3.103 3.102 3.103s3.102-1.389 3.102-3.103c0-1.713-1.389-3.102-3.102-3.102z"/><path d="m468.24 421.003c-.601 0-1.157.179-1.632.475v5.256c.475.296 1.031.475 1.632.475 1.713 0 3.102-1.39 3.102-3.102 0-1.715-1.389-3.104-3.102-3.104z"/><path d="m468.24 441.003c-.601 0-1.157.179-1.632.475v5.256c.475.296 1.031.475 1.632.475 1.713 0 3.102-1.39 3.102-3.102 0-1.715-1.389-3.104-3.102-3.104z"/><path d="m471.342 464.106c0-1.714-1.389-3.103-3.102-3.103-.601 0-1.157.179-1.632.475v5.256c.475.296 1.031.475 1.632.475 1.713-.001 3.102-1.39 3.102-3.103z"/></g><path d="m487.092 412.756v-361.88c0-11.433-9.3-20.733-20.732-20.733s-20.733 9.301-20.733 20.733v60.703h-379.369v-60.703c0-11.433-9.301-20.733-20.733-20.733s-20.732 9.301-20.732 20.733v361.88c-14.286 4.017-24.793 17.152-24.793 32.703v32.345c0 2.174 1.763 3.938 3.938 3.938h83.175c2.175 0 3.938-1.764 3.938-3.938v-32.345c0-15.552-10.507-28.687-24.792-32.703v-172.543h379.369v172.543c-14.285 4.017-24.792 17.151-24.792 32.703v32.345c0 2.174 1.763 3.938 3.938 3.938h83.175c2.175 0 3.938-1.764 3.938-3.938v-32.345c-.003-15.551-10.51-28.686-24.795-32.703zm-403.917 32.703v28.407h-75.3v-28.407c0-14.392 11.708-26.099 26.099-26.099h23.102c14.391.001 26.099 11.708 26.099 26.099zm-26.099-33.974h-23.102c-.438 0-.872.017-1.306.033v-360.642c0-7.09 5.768-12.858 12.857-12.858 7.09 0 12.858 5.768 12.858 12.858v360.642c-.435-.017-.869-.033-1.307-.033zm396.426-360.609c0-7.09 5.768-12.858 12.858-12.858 7.089 0 12.857 5.768 12.857 12.858v360.642c-.434-.017-.868-.033-1.306-.033h-23.102c-.438 0-.872.017-1.306.033v-360.642zm50.507 422.991h-75.3v-28.407c0-14.392 11.708-26.099 26.099-26.099h23.102c14.391 0 26.099 11.707 26.099 26.099z" fill="#31373d"/><path d="m182.503 119.454h146.879v112.884h-146.879z" fill="#f9fbfc"/></g></svg>