<svg id="Capa_1" enable-background="new 0 0 511.392 511.392" height="512" viewBox="0 0 511.392 511.392" width="512" xmlns="http://www.w3.org/2000/svg"><g><path d="m344.607 344.607c-124.241 124.24-284.228 165.687-313.863 136.052-29.635-29.635 11.811-189.623 136.052-313.863s286.922-162.993 311.169-138.746-9.118 192.316-133.358 316.557z" fill="#e9c278"/><path d="m148.738 471.688-109.247-110.03 21.902-47.714 136.363 137.407z" fill="#eaa895"/><g fill="#f9fbfc"><path d="m474.96 27.234c.569 0 1.095-.164 1.553-.431-1.288-.97-2.841-1.813-4.641-2.533.074 1.648 1.422 2.964 3.088 2.964z"/><path d="m474.96 41.03c-1.713 0-3.102 1.389-3.102 3.102 0 1.714 1.389 3.103 3.102 3.103s3.102-1.389 3.102-3.103c.001-1.713-1.388-3.102-3.102-3.102z"/><path d="m482.235 53.756c0 1.706 1.378 3.089 3.082 3.1-.022-2.155-.102-4.214-.235-6.176-1.593.132-2.847 1.45-2.847 3.076z"/><path d="m474.96 61.03c-1.713 0-3.102 1.389-3.102 3.101 0 1.714 1.389 3.103 3.102 3.103s3.102-1.389 3.102-3.103c.001-1.712-1.388-3.101-3.102-3.101z"/><path d="m482.235 73.756c0 1.315.822 2.433 1.977 2.884.224-2.022.421-4.006.577-5.931-1.451.26-2.554 1.521-2.554 3.047z"/><path d="m474.96 81.03c-1.713 0-3.102 1.389-3.102 3.102 0 1.714 1.389 3.103 3.102 3.103s3.102-1.389 3.102-3.103c.001-1.713-1.388-3.102-3.102-3.102z"/><path d="m474.96 101.03c-1.713 0-3.102 1.389-3.102 3.102 0 1.714 1.389 3.103 3.102 3.103s3.102-1.389 3.102-3.103c.001-1.713-1.388-3.102-3.102-3.102z"/><path d="m471.858 124.132c0 1.318.825 2.437 1.984 2.887.571-1.998 1.119-3.977 1.645-5.936-.172-.029-.346-.053-.527-.053-1.713 0-3.102 1.389-3.102 3.102z"/><path d="m456.822 26.6c.749-.566 1.241-1.456 1.241-2.468 0-1.122-.602-2.097-1.495-2.642.124 1.634.209 3.338.254 5.11z"/><path d="m465.337 30.653c-1.713 0-3.102 1.389-3.102 3.103 0 1.713 1.389 3.102 3.102 3.102s3.102-1.39 3.102-3.102c0-1.714-1.389-3.103-3.102-3.103z"/><path d="m458.063 44.132c0-1.196-.685-2.224-1.678-2.74-.141 1.851-.317 3.751-.522 5.694 1.27-.389 2.2-1.557 2.2-2.954z"/><path d="m465.337 50.653c-1.713 0-3.102 1.389-3.102 3.103 0 1.713 1.389 3.102 3.102 3.102s3.102-1.39 3.102-3.102c0-1.714-1.389-3.103-3.102-3.103z"/><path d="m458.063 64.132c0-1.713-1.389-3.101-3.102-3.101-.365 0-.71.074-1.036.19-.289 1.737-.6 3.501-.932 5.291.537.444 1.217.723 1.968.723 1.713-.001 3.102-1.389 3.102-3.103z"/><path d="m465.337 70.653c-1.713 0-3.102 1.389-3.102 3.103 0 1.713 1.389 3.103 3.102 3.103s3.102-1.39 3.102-3.103c0-1.714-1.389-3.103-3.102-3.103z"/><path d="m454.96 81.03c-1.713 0-3.102 1.389-3.102 3.102 0 1.714 1.389 3.103 3.102 3.103s3.102-1.389 3.102-3.103c.001-1.713-1.388-3.102-3.102-3.102z"/><path d="m465.337 90.653c-1.713 0-3.102 1.389-3.102 3.103 0 1.713 1.389 3.103 3.102 3.103s3.102-1.39 3.102-3.103c0-1.714-1.389-3.103-3.102-3.103z"/><path d="m454.96 101.03c-1.713 0-3.102 1.389-3.102 3.102 0 1.714 1.389 3.103 3.102 3.103s3.102-1.389 3.102-3.103c.001-1.713-1.388-3.102-3.102-3.102z"/><path d="m465.337 110.653c-1.713 0-3.102 1.389-3.102 3.103 0 1.713 1.389 3.103 3.102 3.103s3.102-1.39 3.102-3.103c0-1.714-1.389-3.103-3.102-3.103z"/><path d="m454.96 121.03c-1.713 0-3.102 1.389-3.102 3.102 0 1.714 1.389 3.103 3.102 3.103s3.102-1.389 3.102-3.103c.001-1.713-1.388-3.102-3.102-3.102z"/><path d="m465.337 130.653c-1.713 0-3.102 1.389-3.102 3.103 0 1.713 1.389 3.102 3.102 3.102s3.102-1.39 3.102-3.102c0-1.714-1.389-3.103-3.102-3.103z"/><path d="m454.96 141.03c-1.713 0-3.102 1.389-3.102 3.102 0 1.714 1.389 3.103 3.102 3.103s3.102-1.389 3.102-3.103c.001-1.713-1.388-3.102-3.102-3.102z"/><path d="m462.235 153.756c0 1.309.814 2.424 1.961 2.879.711-1.953 1.403-3.894 2.077-5.822-.297-.094-.607-.159-.935-.159-1.714-.001-3.103 1.388-3.103 3.102z"/><path d="m454.96 161.03c-1.713 0-3.102 1.389-3.102 3.102 0 1.714 1.389 3.103 3.102 3.103s3.102-1.389 3.102-3.103c.001-1.713-1.388-3.102-3.102-3.102z"/><path d="m451.858 184.132c0 .672.219 1.29.582 1.798.712-1.625 1.41-3.243 2.098-4.857-1.512.207-2.68 1.491-2.68 3.059z"/><path d="m448.439 93.756c0-.945-.432-1.781-1.099-2.351-.474 1.784-.961 3.582-1.472 5.399 1.459-.253 2.571-1.517 2.571-3.048z"/><path d="m445.337 110.653c-1.713 0-3.102 1.389-3.102 3.103 0 1.713 1.389 3.103 3.102 3.103s3.102-1.39 3.102-3.103c0-1.714-1.389-3.103-3.102-3.103z"/><path d="m438.063 124.132c0-.524-.143-1.012-.373-1.445-.5 1.43-1.01 2.864-1.53 4.307 1.117-.47 1.903-1.574 1.903-2.862z"/><path d="m445.337 130.653c-1.713 0-3.102 1.389-3.102 3.103 0 1.713 1.389 3.102 3.102 3.102s3.102-1.39 3.102-3.102c0-1.714-1.389-3.103-3.102-3.103z"/><path d="m434.96 141.03c-1.713 0-3.102 1.389-3.102 3.102 0 1.714 1.389 3.103 3.102 3.103s3.102-1.389 3.102-3.103c.001-1.713-1.388-3.102-3.102-3.102z"/><path d="m445.337 150.653c-1.713 0-3.102 1.389-3.102 3.103 0 1.713 1.389 3.102 3.102 3.102s3.102-1.39 3.102-3.102c0-1.714-1.389-3.103-3.102-3.103z"/><path d="m434.96 161.03c-1.713 0-3.102 1.389-3.102 3.102 0 1.714 1.389 3.103 3.102 3.103s3.102-1.389 3.102-3.103c.001-1.713-1.388-3.102-3.102-3.102z"/><path d="m445.337 170.653c-1.713 0-3.102 1.389-3.102 3.103 0 1.713 1.389 3.102 3.102 3.102s3.102-1.39 3.102-3.102c0-1.714-1.389-3.103-3.102-3.103z"/><path d="m434.96 181.03c-1.713 0-3.102 1.389-3.102 3.102 0 1.714 1.389 3.103 3.102 3.103s3.102-1.389 3.102-3.103c.001-1.713-1.388-3.102-3.102-3.102z"/><path d="m445.337 190.653c-1.713 0-3.102 1.389-3.102 3.103 0 1.713 1.389 3.102 3.102 3.102s3.102-1.39 3.102-3.102c0-1.714-1.389-3.103-3.102-3.103z"/><path d="m434.96 201.03c-1.713 0-3.102 1.389-3.102 3.102 0 1.714 1.389 3.103 3.102 3.103s3.102-1.389 3.102-3.103c.001-1.713-1.388-3.102-3.102-3.102z"/><path d="m431.858 224.132c0 .805.314 1.53.815 2.081.933-1.713 1.86-3.426 2.767-5.135-.158-.024-.316-.048-.48-.048-1.713 0-3.102 1.389-3.102 3.102z"/><path d="m428.439 153.756c0-1.199-.688-2.228-1.683-2.744-.793 1.88-1.606 3.769-2.432 5.663.319.11.656.184 1.013.184 1.713-.001 3.102-1.39 3.102-3.103z"/><path d="m425.337 170.653c-1.713 0-3.102 1.389-3.102 3.103 0 1.713 1.389 3.102 3.102 3.102s3.102-1.39 3.102-3.102c0-1.714-1.389-3.103-3.102-3.103z"/><path d="m414.96 181.03c-1.713 0-3.102 1.389-3.102 3.102 0 1.714 1.389 3.103 3.102 3.103s3.102-1.389 3.102-3.103c.001-1.713-1.388-3.102-3.102-3.102z"/><path d="m425.337 190.653c-1.713 0-3.102 1.389-3.102 3.103 0 1.713 1.389 3.102 3.102 3.102s3.102-1.39 3.102-3.102c0-1.714-1.389-3.103-3.102-3.103z"/><path d="m414.96 201.03c-1.713 0-3.102 1.389-3.102 3.102 0 1.714 1.389 3.103 3.102 3.103s3.102-1.389 3.102-3.103c.001-1.713-1.388-3.102-3.102-3.102z"/><path d="m425.337 210.653c-1.713 0-3.102 1.389-3.102 3.103 0 1.713 1.389 3.102 3.102 3.102s3.102-1.39 3.102-3.102c0-1.714-1.389-3.103-3.102-3.103z"/><path d="m414.96 221.03c-1.713 0-3.102 1.389-3.102 3.102 0 1.714 1.389 3.103 3.102 3.103s3.102-1.389 3.102-3.103c.001-1.713-1.388-3.102-3.102-3.102z"/><path d="m425.337 230.653c-1.713 0-3.102 1.389-3.102 3.103 0 1.713 1.389 3.102 3.102 3.102.61 0 1.174-.183 1.654-.486.478-.835.965-1.67 1.437-2.503.001-.039.011-.075.011-.113 0-1.714-1.389-3.103-3.102-3.103z"/><path d="m414.96 241.03c-1.713 0-3.102 1.389-3.102 3.102 0 1.714 1.389 3.103 3.102 3.103s3.102-1.389 3.102-3.103c.001-1.713-1.388-3.102-3.102-3.102z"/><path d="m408.439 193.756c0-.857-.347-1.631-.908-2.192-.919 1.742-1.852 3.486-2.799 5.233.196.039.397.061.604.061 1.714 0 3.103-1.389 3.103-3.102z"/><path d="m405.337 210.653c-1.713 0-3.102 1.389-3.102 3.103 0 1.713 1.389 3.102 3.102 3.102s3.102-1.39 3.102-3.102c0-1.714-1.389-3.103-3.102-3.103z"/><path d="m394.96 221.03c-1.713 0-3.102 1.389-3.102 3.102 0 1.714 1.389 3.103 3.102 3.103s3.102-1.389 3.102-3.103c.001-1.713-1.388-3.102-3.102-3.102z"/><path d="m405.337 230.653c-1.713 0-3.102 1.389-3.102 3.103 0 1.713 1.389 3.102 3.102 3.102s3.102-1.39 3.102-3.102c0-1.714-1.389-3.103-3.102-3.103z"/><path d="m394.96 241.03c-1.713 0-3.102 1.389-3.102 3.102 0 1.714 1.389 3.103 3.102 3.103s3.102-1.389 3.102-3.103c.001-1.713-1.388-3.102-3.102-3.102z"/><path d="m405.337 250.653c-1.713 0-3.102 1.389-3.102 3.103 0 1.713 1.389 3.102 3.102 3.102s3.102-1.39 3.102-3.102c0-1.714-1.389-3.103-3.102-3.103z"/><path d="m394.96 261.03c-1.713 0-3.102 1.389-3.102 3.102 0 1.714 1.389 3.103 3.102 3.103s3.102-1.389 3.102-3.103c.001-1.713-1.388-3.102-3.102-3.102z"/><path d="m402.235 273.756c0 .474.115.918.305 1.319 1.017-1.465 2.033-2.931 3.029-4.398-.078-.006-.152-.023-.232-.023-1.713-.001-3.102 1.388-3.102 3.102z"/><path d="m394.96 281.03c-1.713 0-3.102 1.389-3.102 3.102 0 1.366.888 2.512 2.113 2.927 1.169-1.587 2.329-3.176 3.474-4.768-.565-.761-1.463-1.261-2.485-1.261z"/><path d="m385.337 236.858c1.713 0 3.102-1.39 3.102-3.102 0-1.714-1.389-3.103-3.102-3.103-.225 0-.443.026-.655.072-.787 1.227-1.576 2.454-2.377 3.681.299 1.401 1.542 2.452 3.032 2.452z"/><path d="m378.063 244.132c0-.815-.322-1.553-.837-2.106-1.127 1.662-2.268 3.322-3.421 4.981.358.144.746.228 1.156.228 1.713-.001 3.102-1.389 3.102-3.103z"/><path d="m385.337 250.653c-1.713 0-3.102 1.389-3.102 3.103 0 1.713 1.389 3.102 3.102 3.102s3.102-1.39 3.102-3.102c0-1.714-1.389-3.103-3.102-3.103z"/><path d="m374.96 261.03c-1.713 0-3.102 1.389-3.102 3.102 0 1.714 1.389 3.103 3.102 3.103s3.102-1.389 3.102-3.103c.001-1.713-1.388-3.102-3.102-3.102z"/><path d="m385.337 270.653c-1.713 0-3.102 1.389-3.102 3.103 0 1.713 1.389 3.103 3.102 3.103s3.102-1.39 3.102-3.103c0-1.714-1.389-3.103-3.102-3.103z"/><path d="m374.96 281.03c-1.713 0-3.102 1.389-3.102 3.102 0 1.714 1.389 3.103 3.102 3.103s3.102-1.389 3.102-3.103c.001-1.713-1.388-3.102-3.102-3.102z"/><path d="m385.337 290.653c-1.713 0-3.102 1.389-3.102 3.103 0 1.713 1.389 3.103 3.102 3.103.594 0 1.143-.176 1.614-.465.457-.592.9-1.186 1.353-1.779.079-.274.136-.559.136-.858-.001-1.715-1.39-3.104-3.103-3.104z"/><path d="m374.96 301.03c-1.713 0-3.102 1.389-3.102 3.102 0 1.714 1.389 3.103 3.102 3.103s3.102-1.389 3.102-3.103c.001-1.713-1.388-3.102-3.102-3.102z"/><path d="m368.211 254.911c-.29.402-.589.802-.881 1.203.383-.324.691-.73.881-1.203z"/><path d="m365.337 270.653c-1.713 0-3.102 1.389-3.102 3.103 0 1.713 1.389 3.103 3.102 3.103s3.102-1.39 3.102-3.103c0-1.714-1.389-3.103-3.102-3.103z"/><path d="m354.96 281.03c-1.713 0-3.102 1.389-3.102 3.102 0 1.714 1.389 3.103 3.102 3.103s3.102-1.389 3.102-3.103c.001-1.713-1.388-3.102-3.102-3.102z"/><path d="m365.337 290.653c-1.713 0-3.102 1.389-3.102 3.103 0 1.713 1.389 3.103 3.102 3.103s3.102-1.39 3.102-3.103c0-1.714-1.389-3.103-3.102-3.103z"/><path d="m354.96 301.03c-1.713 0-3.102 1.389-3.102 3.102 0 1.714 1.389 3.103 3.102 3.103s3.102-1.389 3.102-3.103c.001-1.713-1.388-3.102-3.102-3.102z"/><path d="m365.337 310.653c-1.713 0-3.102 1.389-3.102 3.103 0 1.713 1.389 3.103 3.102 3.103s3.102-1.39 3.102-3.103c0-1.714-1.389-3.103-3.102-3.103z"/><path d="m354.96 321.03c-1.713 0-3.102 1.389-3.102 3.102 0 1.714 1.389 3.103 3.102 3.103s3.102-1.389 3.102-3.103c.001-1.713-1.388-3.102-3.102-3.102z"/><path d="m345.337 290.653c-1.713 0-3.102 1.389-3.102 3.103 0 1.713 1.389 3.103 3.102 3.103s3.102-1.39 3.102-3.103c0-1.714-1.389-3.103-3.102-3.103z"/><path d="m334.96 301.03c-1.713 0-3.102 1.389-3.102 3.102 0 1.714 1.389 3.103 3.102 3.103s3.102-1.389 3.102-3.103c.001-1.713-1.388-3.102-3.102-3.102z"/><path d="m345.337 310.653c-1.713 0-3.102 1.389-3.102 3.103 0 1.713 1.389 3.103 3.102 3.103s3.102-1.39 3.102-3.103c0-1.714-1.389-3.103-3.102-3.103z"/><path d="m334.96 321.03c-1.713 0-3.102 1.389-3.102 3.102 0 1.714 1.389 3.103 3.102 3.103s3.102-1.389 3.102-3.103c.001-1.713-1.388-3.102-3.102-3.102z"/><path d="m345.337 330.653c-1.713 0-3.102 1.389-3.102 3.103 0 1.713 1.389 3.103 3.102 3.103s3.102-1.39 3.102-3.103c0-1.714-1.389-3.103-3.102-3.103z"/><path d="m334.96 341.03c-1.713 0-3.102 1.389-3.102 3.102 0 1.714 1.389 3.103 3.102 3.103s3.102-1.389 3.102-3.103c.001-1.713-1.388-3.102-3.102-3.102z"/><path d="m325.337 310.653c-1.713 0-3.102 1.389-3.102 3.103 0 1.713 1.389 3.103 3.102 3.103s3.102-1.39 3.102-3.103c0-1.714-1.389-3.103-3.102-3.103z"/><path d="m314.96 321.03c-1.713 0-3.102 1.389-3.102 3.102 0 1.714 1.389 3.103 3.102 3.103s3.102-1.389 3.102-3.103c.001-1.713-1.388-3.102-3.102-3.102z"/><path d="m325.337 330.653c-1.713 0-3.102 1.389-3.102 3.103 0 1.713 1.389 3.103 3.102 3.103s3.102-1.39 3.102-3.103c0-1.714-1.389-3.103-3.102-3.103z"/><path d="m314.96 341.03c-1.713 0-3.102 1.389-3.102 3.102 0 1.714 1.389 3.103 3.102 3.103s3.102-1.389 3.102-3.103c.001-1.713-1.388-3.102-3.102-3.102z"/><path d="m325.337 350.653c-1.713 0-3.102 1.389-3.102 3.103 0 1.713 1.389 3.103 3.102 3.103s3.102-1.39 3.102-3.103c0-1.714-1.389-3.103-3.102-3.103z"/><path d="m314.96 361.03c-1.713 0-3.102 1.389-3.102 3.102 0 1.714 1.389 3.103 3.102 3.103s3.102-1.389 3.102-3.103c.001-1.713-1.388-3.102-3.102-3.102z"/><path d="m305.337 330.653c-1.713 0-3.102 1.389-3.102 3.103 0 1.713 1.389 3.103 3.102 3.103s3.102-1.39 3.102-3.103c0-1.714-1.389-3.103-3.102-3.103z"/><path d="m294.96 341.03c-1.713 0-3.102 1.389-3.102 3.102 0 1.714 1.389 3.103 3.102 3.103s3.102-1.389 3.102-3.103c.001-1.713-1.388-3.102-3.102-3.102z"/><path d="m305.337 350.653c-1.713 0-3.102 1.389-3.102 3.103 0 1.713 1.389 3.103 3.102 3.103s3.102-1.39 3.102-3.103c0-1.714-1.389-3.103-3.102-3.103z"/><path d="m294.96 361.03c-1.713 0-3.102 1.389-3.102 3.102 0 1.714 1.389 3.103 3.102 3.103s3.102-1.389 3.102-3.103c.001-1.713-1.388-3.102-3.102-3.102z"/><path d="m305.337 370.653c-1.713 0-3.102 1.389-3.102 3.103 0 1.713 1.389 3.103 3.102 3.103s3.102-1.39 3.102-3.103c0-1.714-1.389-3.103-3.102-3.103z"/><path d="m294.96 381.03c-1.713 0-3.102 1.389-3.102 3.102 0 1.714 1.389 3.103 3.102 3.103s3.102-1.389 3.102-3.103c.001-1.713-1.388-3.102-3.102-3.102z"/><path d="m285.337 350.653c-1.713 0-3.102 1.389-3.102 3.103 0 1.713 1.389 3.103 3.102 3.103s3.102-1.39 3.102-3.103c0-1.714-1.389-3.103-3.102-3.103z"/><path d="m274.96 361.03c-1.713 0-3.102 1.389-3.102 3.102 0 1.714 1.389 3.103 3.102 3.103s3.102-1.389 3.102-3.103c.001-1.713-1.388-3.102-3.102-3.102z"/><path d="m285.337 370.653c-1.713 0-3.102 1.389-3.102 3.103 0 1.713 1.389 3.103 3.102 3.103s3.102-1.39 3.102-3.103c0-1.714-1.389-3.103-3.102-3.103z"/><path d="m274.96 381.03c-1.713 0-3.102 1.389-3.102 3.102 0 1.714 1.389 3.103 3.102 3.103s3.102-1.389 3.102-3.103c.001-1.713-1.388-3.102-3.102-3.102z"/><path d="m285.337 390.653c-1.713 0-3.102 1.389-3.102 3.103 0 1.424.965 2.611 2.273 2.976 1.312-.985 2.621-1.991 3.93-2.993-.01-1.706-1.394-3.086-3.101-3.086z"/><path d="m274.96 401.03c-1.713 0-3.102 1.389-3.102 3.102 0 .562.161 1.082.422 1.536 1.663-1.183 3.326-2.383 4.987-3.592-.568-.637-1.386-1.046-2.307-1.046z"/><path d="m265.337 370.653c-1.713 0-3.102 1.389-3.102 3.103 0 1.713 1.389 3.103 3.102 3.103s3.102-1.39 3.102-3.103c0-1.714-1.389-3.103-3.102-3.103z"/><path d="m254.96 381.03c-1.713 0-3.102 1.389-3.102 3.102 0 1.714 1.389 3.103 3.102 3.103s3.102-1.389 3.102-3.103c.001-1.713-1.388-3.102-3.102-3.102z"/><path d="m265.337 390.653c-1.713 0-3.102 1.389-3.102 3.103 0 1.713 1.389 3.103 3.102 3.103s3.102-1.39 3.102-3.103c0-1.714-1.389-3.103-3.102-3.103z"/><path d="m254.96 401.03c-1.713 0-3.102 1.389-3.102 3.102 0 1.714 1.389 3.103 3.102 3.103s3.102-1.389 3.102-3.103c.001-1.713-1.388-3.102-3.102-3.102z"/><path d="m262.544 412.427c.857-.583 1.714-1.161 2.571-1.751-1.138.082-2.103.769-2.571 1.751z"/><path d="m248.426 373.891c-1.313.954-2.628 1.897-3.942 2.834.273.078.555.134.853.134 1.667-.001 3.016-1.319 3.089-2.968z"/><path d="m234.96 387.234c1.713 0 3.102-1.389 3.102-3.103 0-.879-.37-1.669-.958-2.234-1.67 1.152-3.34 2.292-5.01 3.418.466 1.126 1.572 1.919 2.866 1.919z"/><path d="m245.337 390.653c-1.713 0-3.102 1.389-3.102 3.103 0 1.713 1.389 3.103 3.102 3.103s3.102-1.39 3.102-3.103c0-1.714-1.389-3.103-3.102-3.103z"/><path d="m234.96 401.03c-1.713 0-3.102 1.389-3.102 3.102 0 1.714 1.389 3.103 3.102 3.103s3.102-1.389 3.102-3.103c.001-1.713-1.388-3.102-3.102-3.102z"/><path d="m245.337 410.653c-1.713 0-3.102 1.389-3.102 3.103 0 1.713 1.389 3.103 3.102 3.103s3.102-1.39 3.102-3.103c0-1.714-1.389-3.103-3.102-3.103z"/><path d="m234.96 421.03c-1.713 0-3.102 1.389-3.102 3.102 0 1.714 1.389 3.103 3.102 3.103s3.102-1.389 3.102-3.103c.001-1.713-1.388-3.102-3.102-3.102z"/><path d="m225.337 390.653c-1.713 0-3.102 1.389-3.102 3.103 0 1.713 1.389 3.103 3.102 3.103s3.102-1.39 3.102-3.103c0-1.714-1.389-3.103-3.102-3.103z"/><path d="m214.96 401.03c-1.713 0-3.102 1.389-3.102 3.102 0 1.714 1.389 3.103 3.102 3.103s3.102-1.389 3.102-3.103c.001-1.713-1.388-3.102-3.102-3.102z"/><path d="m225.337 410.653c-1.713 0-3.102 1.389-3.102 3.103 0 1.713 1.389 3.103 3.102 3.103s3.102-1.39 3.102-3.103c0-1.714-1.389-3.103-3.102-3.103z"/><path d="m214.96 421.03c-1.713 0-3.102 1.389-3.102 3.102 0 1.714 1.389 3.103 3.102 3.103s3.102-1.389 3.102-3.103c.001-1.713-1.388-3.102-3.102-3.102z"/><path d="m225.337 430.653c-1.713 0-3.102 1.389-3.102 3.103 0 1.199.688 2.229 1.685 2.744 1.499-.852 3-1.709 4.503-2.582.003-.055.016-.107.016-.162 0-1.714-1.389-3.103-3.102-3.103z"/><path d="m212.066 443.042c1.191-.639 2.382-1.28 3.576-1.932-.22-.05-.447-.08-.682-.08-1.328 0-2.452.838-2.894 2.012z"/><path d="m205.337 410.653c-1.713 0-3.102 1.389-3.102 3.103 0 1.713 1.389 3.103 3.102 3.103s3.102-1.39 3.102-3.103c0-1.714-1.389-3.103-3.102-3.103z"/><path d="m194.96 421.03c-1.713 0-3.102 1.389-3.102 3.102 0 1.714 1.389 3.103 3.102 3.103s3.102-1.389 3.102-3.103c.001-1.713-1.388-3.102-3.102-3.102z"/><path d="m205.337 430.653c-1.713 0-3.102 1.389-3.102 3.103 0 1.713 1.389 3.103 3.102 3.103s3.102-1.39 3.102-3.103c0-1.714-1.389-3.103-3.102-3.103z"/><path d="m194.96 441.03c-1.713 0-3.102 1.389-3.102 3.102 0 1.714 1.389 3.103 3.102 3.103s3.102-1.389 3.102-3.103c.001-1.713-1.388-3.102-3.102-3.102z"/><path d="m185.337 416.858c1.713 0 3.102-1.39 3.102-3.103 0-.573-.166-1.104-.437-1.563-1.815.994-3.627 1.974-5.434 2.936.508 1.022 1.551 1.73 2.769 1.73z"/><path d="m174.96 421.03c-1.713 0-3.102 1.389-3.102 3.102 0 1.714 1.389 3.103 3.102 3.103s3.102-1.389 3.102-3.103c.001-1.713-1.388-3.102-3.102-3.102z"/><path d="m185.337 430.653c-1.713 0-3.102 1.389-3.102 3.103 0 1.713 1.389 3.103 3.102 3.103s3.102-1.39 3.102-3.103c0-1.714-1.389-3.103-3.102-3.103z"/><path d="m174.96 441.03c-1.713 0-3.102 1.389-3.102 3.102 0 1.714 1.389 3.103 3.102 3.103s3.102-1.389 3.102-3.103c.001-1.713-1.388-3.102-3.102-3.102z"/><path d="m185.337 450.653c-1.713 0-3.102 1.389-3.102 3.103 0 1.453 1.003 2.663 2.352 3 1.174-.543 2.35-1.091 3.531-1.647.2-.41.322-.865.322-1.353-.001-1.714-1.39-3.103-3.103-3.103z"/><path d="m172.641 462.091c.813-.351 1.622-.692 2.438-1.049-.04-.002-.078-.012-.119-.012-.927 0-1.75.415-2.319 1.061z"/><path d="m165.337 430.653c-1.713 0-3.102 1.389-3.102 3.103 0 1.713 1.389 3.103 3.102 3.103s3.102-1.39 3.102-3.103c0-1.714-1.389-3.103-3.102-3.103z"/><path d="m154.96 441.03c-1.713 0-3.102 1.389-3.102 3.102 0 1.714 1.389 3.103 3.102 3.103s3.102-1.389 3.102-3.103c.001-1.713-1.388-3.102-3.102-3.102z"/><path d="m165.337 450.653c-1.713 0-3.102 1.389-3.102 3.103 0 1.713 1.389 3.103 3.102 3.103s3.102-1.39 3.102-3.103c0-1.714-1.389-3.103-3.102-3.103z"/><path d="m154.96 461.03c-1.713 0-3.102 1.389-3.102 3.102 0 1.714 1.389 3.103 3.102 3.103s3.102-1.389 3.102-3.103c.001-1.713-1.388-3.102-3.102-3.102z"/><path d="m145.337 436.858c1.713 0 3.102-1.39 3.102-3.103 0-.649-.201-1.251-.542-1.749-1.871.824-3.732 1.63-5.586 2.419.307 1.391 1.543 2.433 3.026 2.433z"/><path d="m134.96 441.03c-1.713 0-3.102 1.389-3.102 3.102 0 1.714 1.389 3.103 3.102 3.103s3.102-1.389 3.102-3.103c.001-1.713-1.388-3.102-3.102-3.102z"/><path d="m145.337 450.653c-1.713 0-3.102 1.389-3.102 3.103 0 1.713 1.389 3.103 3.102 3.103s3.102-1.39 3.102-3.103c0-1.714-1.389-3.103-3.102-3.103z"/><path d="m134.96 461.03c-1.713 0-3.102 1.389-3.102 3.102 0 1.714 1.389 3.103 3.102 3.103s3.102-1.389 3.102-3.103c.001-1.713-1.388-3.102-3.102-3.102z"/><path d="m145.337 470.653c-1.713 0-3.102 1.389-3.102 3.103 0 .055.013.105.016.159 1.85-.64 3.712-1.301 5.588-1.98-.565-.773-1.471-1.282-2.502-1.282z"/><path d="m114.96 447.234c1.713 0 3.102-1.389 3.102-3.103 0-.063-.015-.122-.019-.185-1.885.676-3.757 1.333-5.616 1.969.563.797 1.485 1.319 2.533 1.319z"/><path d="m125.337 450.653c-1.713 0-3.102 1.389-3.102 3.103 0 1.713 1.389 3.103 3.102 3.103s3.102-1.39 3.102-3.103c0-1.714-1.389-3.103-3.102-3.103z"/><path d="m114.96 461.03c-1.713 0-3.102 1.389-3.102 3.102 0 1.714 1.389 3.103 3.102 3.103s3.102-1.389 3.102-3.103c.001-1.713-1.388-3.102-3.102-3.102z"/><path d="m125.337 470.653c-1.713 0-3.102 1.389-3.102 3.103 0 1.713 1.389 3.103 3.102 3.103s3.102-1.39 3.102-3.103c0-1.714-1.389-3.103-3.102-3.103z"/><path d="m112.096 482.944c1.579-.395 3.173-.806 4.781-1.234-.529-.419-1.189-.68-1.917-.68-1.292 0-2.398.791-2.864 1.914z"/><path d="m105.337 450.653c-1.713 0-3.102 1.389-3.102 3.103 0 1.713 1.389 3.103 3.102 3.103s3.102-1.39 3.102-3.103c0-1.714-1.389-3.103-3.102-3.103z"/><path d="m91.858 464.132c0 1.714 1.389 3.103 3.102 3.103s3.102-1.389 3.102-3.103c0-1.713-1.389-3.102-3.102-3.102s-3.102 1.389-3.102 3.102z"/><path d="m105.337 470.653c-1.713 0-3.102 1.389-3.102 3.103 0 1.713 1.389 3.103 3.102 3.103s3.102-1.39 3.102-3.103c0-1.714-1.389-3.103-3.102-3.103z"/><path d="m94.96 481.03c-1.713 0-3.102 1.389-3.102 3.102 0 1.226.716 2.274 1.748 2.779 1.194-.211 2.396-.43 3.614-.664.519-.555.843-1.295.843-2.115 0-1.713-1.389-3.102-3.103-3.102z"/><path d="m85.337 456.858c1.713 0 3.102-1.39 3.102-3.103 0-.172-.024-.337-.051-.5-2.014.536-4 1.04-5.968 1.522.425 1.209 1.564 2.081 2.917 2.081z"/><path d="m74.96 461.03c-1.713 0-3.102 1.389-3.102 3.102 0 1.714 1.389 3.103 3.102 3.103s3.102-1.389 3.102-3.103c.001-1.713-1.388-3.102-3.102-3.102z"/><path d="m85.337 470.653c-1.713 0-3.102 1.389-3.102 3.103 0 1.713 1.389 3.103 3.102 3.103s3.102-1.39 3.102-3.103c0-1.714-1.389-3.103-3.102-3.103z"/><path d="m74.96 481.03c-1.713 0-3.102 1.389-3.102 3.102 0 1.714 1.389 3.103 3.102 3.103s3.102-1.389 3.102-3.103c.001-1.713-1.388-3.102-3.102-3.102z"/><path d="m54.96 461.03c-1.713 0-3.102 1.389-3.102 3.102 0 1.714 1.389 3.103 3.102 3.103s3.102-1.389 3.102-3.103c.001-1.713-1.388-3.102-3.102-3.102z"/><path d="m62.235 473.756c0 1.713 1.389 3.103 3.102 3.103s3.102-1.39 3.102-3.103c0-1.714-1.389-3.103-3.102-3.103s-3.102 1.389-3.102 3.103z"/><path d="m54.96 481.03c-1.713 0-3.102 1.389-3.102 3.102 0 1.714 1.389 3.103 3.102 3.103s3.102-1.389 3.102-3.103c.001-1.713-1.388-3.102-3.102-3.102z"/><path d="m34.96 467.234c1.713 0 3.102-1.389 3.102-3.103 0-1.23-.723-2.285-1.762-2.786-.899.006-1.788.004-2.661-.011-1.05.497-1.782 1.559-1.782 2.797.001 1.715 1.39 3.103 3.103 3.103z"/><path d="m42.235 473.756c0 1.713 1.389 3.103 3.102 3.103s3.102-1.39 3.102-3.103c0-1.714-1.389-3.103-3.102-3.103s-3.102 1.389-3.102 3.103z"/><path d="m34.96 481.03c-.989 0-1.859.471-2.427 1.19 1.516 1.19 3.266 2.25 5.262 3.162.169-.383.267-.805.267-1.251.001-1.712-1.388-3.101-3.102-3.101z"/><path d="m25.337 470.653c-.164 0-.321.024-.478.049.707 1.994 1.527 3.806 2.462 5.42.678-.569 1.118-1.412 1.118-2.366 0-1.714-1.389-3.103-3.102-3.103z"/></g><ellipse cx="255.701" cy="255.701" fill="#f9fbfc" rx="123.245" ry="84.677" transform="matrix(.707 -.707 .707 .707 -105.915 255.701)"/><path d="m324.91 186.493c-12.253-12.253-31.045-16.31-52.923-11.427-21.231 4.741-42.982 17.411-61.246 35.675s-30.933 40.015-35.674 61.246c-4.885 21.874-.826 40.67 11.426 52.923 8.868 8.868 21.16 13.442 35.569 13.442 5.5-.001 11.311-.667 17.353-2.017 21.232-4.74 42.983-17.41 61.246-35.674 18.264-18.264 30.933-40.015 35.674-61.247 4.886-21.873.828-40.668-11.425-52.921z" fill="#31373d"/><path d="m377.64 446.419 55.563 55.563c7.299 7.299 19.133 7.299 26.431 0l42.348-42.348c7.299-7.299 7.299-19.133 0-26.431l-55.563-55.563-57.242 8.567z" fill="#eaa895"/><path d="m133.762 64.983-55.563-55.563c-7.299-7.299-19.133-7.299-26.431 0l-42.348 42.348c-7.299 7.299-7.299 19.132 0 26.431l55.563 55.563 57.242-8.567z" fill="#eaa895"/><path d="m504.773 430.413-55.563-55.562c-.885-.885-2.139-1.298-3.374-1.112l-57.243 8.566c-.197.029-.389.075-.575.133l-37.845-37.845c71.638-72.789 106.221-152.895 120.527-194.479 20.332-59.1 24.467-110.442 10.055-124.854-14.367-14.365-63.498-9.228-122.261 12.785-40.405 15.136-118.596 51.155-191.686 123.184l-39.836-39.837 10.666-55.665c.246-1.285-.16-2.608-1.085-3.532l-55.564-55.564c-4.275-4.276-9.959-6.631-16.005-6.631s-11.731 2.355-16.006 6.631l-42.348 42.348c-4.275 4.274-6.63 9.959-6.63 16.005 0 6.045 2.354 11.73 6.63 16.004l55.563 55.564c.746.745 1.752 1.155 2.79 1.155.194 0 .389-.014.584-.043l57.242-8.567c.197-.03.389-.076.575-.133l37.855 37.855c-73.284 74.313-109.028 151.384-123.868 191.001-22.356 59.682-26.053 108.993-9.418 125.628 6.924 6.925 19.506 10.326 36.145 10.326 23.335 0 54.645-6.693 89.483-19.743 39.617-14.84 116.688-50.583 191.001-123.869l39.848 39.848-10.666 55.666c-.246 1.285.16 2.608 1.085 3.533l55.564 55.563c4.412 4.413 10.209 6.619 16.005 6.619 5.797 0 11.593-2.206 16.006-6.619l42.348-42.348c8.826-8.824 8.826-23.186.001-32.011zm-385.896-308.707-52.51 7.859-54.157-54.156c-2.785-2.785-4.318-6.487-4.318-10.425 0-3.939 1.534-7.642 4.319-10.427l42.347-42.347c2.784-2.785 6.487-4.318 10.426-4.318 3.938 0 7.641 1.533 10.425 4.318l54.085 54.085zm242.385-76.27c38.256-14.331 69.591-20.327 90.019-20.327 11.996 0 20.231 2.067 23.894 5.731 10.319 10.318 8.675 56.794-11.937 116.707-14.084 40.94-48.128 119.798-118.644 191.466l-172.193-172.192c72.033-70.969 149.057-106.476 188.861-121.385zm-327.728 432.432c-10.938-10.938-12.67-49.344 8.119-108.676l100.557 100.557c-59.331 20.79-97.738 19.059-108.676 8.119zm117.28-11.227c-.136.052-.268.098-.404.148l-105.797-105.797c.051-.136.097-.268.148-.404 4.107-10.965 9.847-24.852 17.569-40.766l129.25 129.25c-15.914 7.722-29.801 13.461-40.766 17.569zm48.228-21.267-133.014-133.015c20.061-39.73 51.959-90.449 100.784-139.967l172.199 172.198c-49.518 48.825-100.237 80.722-139.969 100.784zm300.15 11.471-42.347 42.348c-5.748 5.749-15.102 5.749-20.851 0l-54.085-54.085 10.617-55.412 52.51-7.857 54.156 54.155c5.749 5.748 5.749 15.102 0 20.851z" fill="#31373d"/></g></svg>