<svg id="Capa_1" enable-background="new 0 0 511.151 511.151" height="512" viewBox="0 0 511.151 511.151" width="512" xmlns="http://www.w3.org/2000/svg"><g><path d="m506.716 281.824c-1.425 58.433-108.44 58.391-301.338 54.22-65.707-1.421-198.111 18.768-198.111-49.007 0-18.344 2.619-44.694 12.512-71.946 6.502-17.909 4.091-43.897 19.811-43.793 17.912.118 14.598 56.305 68.818 42.75 39.451-9.863 31.128-73.907 54.22-70.903 14.484 1.884 34.953 16.629 52.135 20.854 77.091 18.955 131.502 43.764 181.429 60.476 62.451 20.906 111.104 33.591 110.524 57.349z" fill="#f9fbfc"/><path d="m7.669 291.56c0-18.344 2.217-49.216 12.11-76.468 6.502-17.909 4.091-43.897 19.811-43.793 17.912.118 14.598 56.305 68.818 42.75 39.451-9.863 31.128-73.907 54.22-70.903 14.484 1.884 34.953 16.629 52.135 20.854l119.812 37.331s-155.11 1.633-161.641 3.266-45.717 49.798-53.064 53.88-44.084-11.429-51.431-7.347-15.511 40.818-15.511 40.818z" fill="#e9c278"/><g fill="#eaa895"><path d="m499.96 268.568c-1.713 0-3.102 1.389-3.102 3.102s1.389 3.102 3.102 3.102 3.102-1.389 3.102-3.102c0-.452-.102-.878-.275-1.265-.295-.393-.602-.784-.928-1.171-.526-.411-1.18-.666-1.899-.666z"/><path d="m503.063 291.671c0-1.713-1.389-3.102-3.102-3.102s-3.102 1.389-3.102 3.102 1.389 3.102 3.102 3.102 3.102-1.389 3.102-3.102z"/><path d="m479.96 254.773c.26 0 .508-.041.75-.102-1.145-.553-2.324-1.104-3.532-1.653.503 1.035 1.554 1.755 2.782 1.755z"/><path d="m487.234 261.294c0 1.714 1.389 3.102 3.102 3.102 1.525 0 2.787-1.103 3.047-2.553-1.506-1.032-3.13-2.049-4.863-3.055-.775.565-1.286 1.473-1.286 2.506z"/><path d="m479.96 268.568c-1.713 0-3.102 1.389-3.102 3.102s1.389 3.102 3.102 3.102 3.102-1.389 3.102-3.102-1.388-3.102-3.102-3.102z"/><path d="m490.337 278.192c-1.713 0-3.102 1.389-3.102 3.102 0 1.714 1.389 3.102 3.102 3.102s3.102-1.389 3.102-3.102-1.389-3.102-3.102-3.102z"/><path d="m479.96 288.568c-1.713 0-3.102 1.389-3.102 3.102s1.389 3.102 3.102 3.102 3.102-1.389 3.102-3.102-1.388-3.102-3.102-3.102z"/><path d="m493.439 301.294c0-1.713-1.389-3.102-3.102-3.102s-3.102 1.389-3.102 3.102c0 1.714 1.389 3.102 3.102 3.102s3.102-1.388 3.102-3.102z"/><path d="m479.96 308.568c-1.713 0-3.102 1.389-3.102 3.102s1.389 3.102 3.102 3.102 3.102-1.389 3.102-3.102-1.388-3.102-3.102-3.102z"/><path d="m470.337 258.192c-1.713 0-3.102 1.389-3.102 3.102 0 1.714 1.389 3.102 3.102 3.102s3.102-1.389 3.102-3.102-1.389-3.102-3.102-3.102z"/><path d="m459.96 268.568c-1.713 0-3.102 1.389-3.102 3.102s1.389 3.102 3.102 3.102 3.102-1.389 3.102-3.102-1.388-3.102-3.102-3.102z"/><path d="m470.337 278.192c-1.713 0-3.102 1.389-3.102 3.102 0 1.714 1.389 3.102 3.102 3.102s3.102-1.389 3.102-3.102-1.389-3.102-3.102-3.102z"/><path d="m459.96 288.568c-1.713 0-3.102 1.389-3.102 3.102s1.389 3.102 3.102 3.102 3.102-1.389 3.102-3.102-1.388-3.102-3.102-3.102z"/><path d="m470.337 298.192c-1.713 0-3.102 1.389-3.102 3.102 0 1.714 1.389 3.102 3.102 3.102s3.102-1.389 3.102-3.102-1.389-3.102-3.102-3.102z"/><path d="m459.96 308.568c-1.713 0-3.102 1.389-3.102 3.102s1.389 3.102 3.102 3.102 3.102-1.389 3.102-3.102-1.388-3.102-3.102-3.102z"/><path d="m470.337 318.192c-1.713 0-3.102 1.389-3.102 3.102 0 .95.436 1.788 1.107 2.357 1.745-.595 3.419-1.22 5.048-1.863.026-.162.05-.325.05-.494-.001-1.713-1.39-3.102-3.103-3.102z"/><path d="m442.959 272.427c-1.538.607-3.134 1.198-4.79 1.769.507.36 1.122.577 1.792.577 1.45 0 2.659-1.001 2.998-2.346z"/><path d="m450.337 278.192c-1.713 0-3.102 1.389-3.102 3.102 0 1.714 1.389 3.102 3.102 3.102s3.102-1.389 3.102-3.102-1.389-3.102-3.102-3.102z"/><path d="m439.96 288.568c-1.713 0-3.102 1.389-3.102 3.102s1.389 3.102 3.102 3.102 3.102-1.389 3.102-3.102-1.388-3.102-3.102-3.102z"/><path d="m450.337 298.192c-1.713 0-3.102 1.389-3.102 3.102 0 1.714 1.389 3.102 3.102 3.102s3.102-1.389 3.102-3.102-1.389-3.102-3.102-3.102z"/><path d="m439.96 308.568c-1.713 0-3.102 1.389-3.102 3.102s1.389 3.102 3.102 3.102 3.102-1.389 3.102-3.102-1.388-3.102-3.102-3.102z"/><path d="m450.337 318.192c-1.713 0-3.102 1.389-3.102 3.102 0 1.714 1.389 3.102 3.102 3.102s3.102-1.389 3.102-3.102-1.389-3.102-3.102-3.102z"/><path d="m439.96 328.568c-1.512 0-2.767 1.082-3.043 2.513 1.944-.313 3.838-.643 5.703-.984-.54-.911-1.523-1.529-2.66-1.529z"/><path d="m430.337 278.192c-1.713 0-3.102 1.389-3.102 3.102 0 1.714 1.389 3.102 3.102 3.102s3.102-1.389 3.102-3.102-1.389-3.102-3.102-3.102z"/><path d="m419.96 288.568c-1.713 0-3.102 1.389-3.102 3.102s1.389 3.102 3.102 3.102 3.102-1.389 3.102-3.102-1.388-3.102-3.102-3.102z"/><path d="m430.337 298.192c-1.713 0-3.102 1.389-3.102 3.102 0 1.714 1.389 3.102 3.102 3.102s3.102-1.389 3.102-3.102-1.389-3.102-3.102-3.102z"/><path d="m419.96 308.568c-1.713 0-3.102 1.389-3.102 3.102s1.389 3.102 3.102 3.102 3.102-1.389 3.102-3.102-1.388-3.102-3.102-3.102z"/><path d="m430.337 318.192c-1.713 0-3.102 1.389-3.102 3.102 0 1.714 1.389 3.102 3.102 3.102s3.102-1.389 3.102-3.102-1.389-3.102-3.102-3.102z"/><path d="m419.96 328.568c-1.713 0-3.102 1.389-3.102 3.102 0 .749.276 1.426.718 1.962 1.74-.186 3.457-.379 5.148-.58.21-.418.339-.883.339-1.382 0-1.713-1.389-3.102-3.103-3.102z"/><path d="m410.337 284.396c1.713 0 3.102-1.389 3.102-3.102 0-.192-.023-.378-.056-.56-1.991.406-4.019.798-6.086 1.177.286 1.417 1.537 2.485 3.04 2.485z"/><path d="m399.96 288.568c-1.713 0-3.102 1.389-3.102 3.102s1.389 3.102 3.102 3.102 3.102-1.389 3.102-3.102-1.388-3.102-3.102-3.102z"/><path d="m410.337 298.192c-1.713 0-3.102 1.389-3.102 3.102 0 1.714 1.389 3.102 3.102 3.102s3.102-1.389 3.102-3.102-1.389-3.102-3.102-3.102z"/><path d="m399.96 308.568c-1.713 0-3.102 1.389-3.102 3.102s1.389 3.102 3.102 3.102 3.102-1.389 3.102-3.102-1.388-3.102-3.102-3.102z"/><path d="m410.337 318.192c-1.713 0-3.102 1.389-3.102 3.102 0 1.714 1.389 3.102 3.102 3.102s3.102-1.389 3.102-3.102-1.389-3.102-3.102-3.102z"/><path d="m399.96 328.568c-1.713 0-3.102 1.389-3.102 3.102s1.389 3.102 3.102 3.102 3.102-1.389 3.102-3.102-1.388-3.102-3.102-3.102z"/><path d="m379.96 288.568c-1.713 0-3.102 1.389-3.102 3.102s1.389 3.102 3.102 3.102 3.102-1.389 3.102-3.102-1.388-3.102-3.102-3.102z"/><path d="m390.337 298.192c-1.713 0-3.102 1.389-3.102 3.102 0 1.714 1.389 3.102 3.102 3.102s3.102-1.389 3.102-3.102-1.389-3.102-3.102-3.102z"/><path d="m379.96 308.568c-1.713 0-3.102 1.389-3.102 3.102s1.389 3.102 3.102 3.102 3.102-1.389 3.102-3.102-1.388-3.102-3.102-3.102z"/><path d="m390.337 318.192c-1.713 0-3.102 1.389-3.102 3.102 0 1.714 1.389 3.102 3.102 3.102s3.102-1.389 3.102-3.102-1.389-3.102-3.102-3.102z"/><path d="m379.96 328.568c-1.713 0-3.102 1.389-3.102 3.102s1.389 3.102 3.102 3.102 3.102-1.389 3.102-3.102-1.388-3.102-3.102-3.102z"/><path d="m359.96 288.568c-1.713 0-3.102 1.389-3.102 3.102s1.389 3.102 3.102 3.102 3.102-1.389 3.102-3.102-1.388-3.102-3.102-3.102z"/><path d="m370.337 298.192c-1.713 0-3.102 1.389-3.102 3.102 0 1.714 1.389 3.102 3.102 3.102s3.102-1.389 3.102-3.102-1.389-3.102-3.102-3.102z"/><path d="m359.96 308.568c-1.713 0-3.102 1.389-3.102 3.102s1.389 3.102 3.102 3.102 3.102-1.389 3.102-3.102-1.388-3.102-3.102-3.102z"/><path d="m370.337 318.192c-1.713 0-3.102 1.389-3.102 3.102 0 1.714 1.389 3.102 3.102 3.102s3.102-1.389 3.102-3.102-1.389-3.102-3.102-3.102z"/><path d="m359.96 328.568c-1.713 0-3.102 1.389-3.102 3.102s1.389 3.102 3.102 3.102 3.102-1.389 3.102-3.102-1.388-3.102-3.102-3.102z"/><path d="m339.96 294.773c1.713 0 3.102-1.389 3.102-3.102 0-.932-.42-1.758-1.071-2.327-1.444.094-2.891.186-4.341.274-.487.548-.793 1.262-.793 2.053.001 1.713 1.39 3.102 3.103 3.102z"/><path d="m350.337 298.192c-1.713 0-3.102 1.389-3.102 3.102 0 1.714 1.389 3.102 3.102 3.102s3.102-1.389 3.102-3.102-1.389-3.102-3.102-3.102z"/><path d="m339.96 308.568c-1.713 0-3.102 1.389-3.102 3.102s1.389 3.102 3.102 3.102 3.102-1.389 3.102-3.102-1.388-3.102-3.102-3.102z"/><path d="m350.337 318.192c-1.713 0-3.102 1.389-3.102 3.102 0 1.714 1.389 3.102 3.102 3.102s3.102-1.389 3.102-3.102-1.389-3.102-3.102-3.102z"/><path d="m339.96 328.568c-1.713 0-3.102 1.389-3.102 3.102s1.389 3.102 3.102 3.102 3.102-1.389 3.102-3.102-1.388-3.102-3.102-3.102z"/><path d="m319.96 294.773c1.713 0 3.102-1.389 3.102-3.102 0-.45-.1-.875-.273-1.261-1.915.089-3.832.172-5.749.251-.11.318-.182.654-.182 1.009 0 1.714 1.389 3.103 3.102 3.103z"/><path d="m330.337 298.192c-1.713 0-3.102 1.389-3.102 3.102 0 1.714 1.389 3.102 3.102 3.102s3.102-1.389 3.102-3.102-1.389-3.102-3.102-3.102z"/><path d="m319.96 308.568c-1.713 0-3.102 1.389-3.102 3.102s1.389 3.102 3.102 3.102 3.102-1.389 3.102-3.102-1.388-3.102-3.102-3.102z"/><path d="m330.337 318.192c-1.713 0-3.102 1.389-3.102 3.102 0 1.714 1.389 3.102 3.102 3.102s3.102-1.389 3.102-3.102-1.389-3.102-3.102-3.102z"/><path d="m319.96 328.568c-1.713 0-3.102 1.389-3.102 3.102s1.389 3.102 3.102 3.102 3.102-1.389 3.102-3.102-1.388-3.102-3.102-3.102z"/><path d="m299.96 294.773c1.713 0 3.102-1.389 3.102-3.102 0-.174-.024-.343-.051-.509-2.043.062-4.083.119-6.119.171-.013.113-.034.222-.034.338 0 1.713 1.389 3.102 3.102 3.102z"/><path d="m310.337 298.192c-1.713 0-3.102 1.389-3.102 3.102 0 1.714 1.389 3.102 3.102 3.102s3.102-1.389 3.102-3.102-1.389-3.102-3.102-3.102z"/><path d="m299.96 308.568c-1.713 0-3.102 1.389-3.102 3.102s1.389 3.102 3.102 3.102 3.102-1.389 3.102-3.102-1.388-3.102-3.102-3.102z"/><path d="m310.337 318.192c-1.713 0-3.102 1.389-3.102 3.102 0 1.714 1.389 3.102 3.102 3.102s3.102-1.389 3.102-3.102-1.389-3.102-3.102-3.102z"/><path d="m299.96 328.568c-1.713 0-3.102 1.389-3.102 3.102s1.389 3.102 3.102 3.102 3.102-1.389 3.102-3.102-1.388-3.102-3.102-3.102z"/><path d="m279.96 294.773c1.713 0 3.102-1.389 3.102-3.102 0-.017-.005-.032-.005-.049-2.073.034-4.139.063-6.195.088.022 1.695 1.399 3.063 3.098 3.063z"/><path d="m290.337 298.192c-1.713 0-3.102 1.389-3.102 3.102 0 1.714 1.389 3.102 3.102 3.102s3.102-1.389 3.102-3.102-1.389-3.102-3.102-3.102z"/><path d="m279.96 308.568c-1.713 0-3.102 1.389-3.102 3.102s1.389 3.102 3.102 3.102 3.102-1.389 3.102-3.102-1.388-3.102-3.102-3.102z"/><path d="m290.337 318.192c-1.713 0-3.102 1.389-3.102 3.102 0 1.714 1.389 3.102 3.102 3.102s3.102-1.389 3.102-3.102-1.389-3.102-3.102-3.102z"/><path d="m279.96 328.568c-1.713 0-3.102 1.389-3.102 3.102s1.389 3.102 3.102 3.102 3.102-1.389 3.102-3.102-1.388-3.102-3.102-3.102z"/><path d="m259.96 294.773c1.662 0 3.006-1.309 3.087-2.951-2.072.008-4.129.012-6.173.013.088 1.635 1.429 2.938 3.086 2.938z"/><path d="m270.337 298.192c-1.713 0-3.102 1.389-3.102 3.102 0 1.714 1.389 3.102 3.102 3.102s3.102-1.389 3.102-3.102-1.389-3.102-3.102-3.102z"/><path d="m259.96 308.568c-1.713 0-3.102 1.389-3.102 3.102s1.389 3.102 3.102 3.102 3.102-1.389 3.102-3.102-1.388-3.102-3.102-3.102z"/><path d="m270.337 318.192c-1.713 0-3.102 1.389-3.102 3.102 0 1.714 1.389 3.102 3.102 3.102s3.102-1.389 3.102-3.102-1.389-3.102-3.102-3.102z"/><path d="m259.96 334.773c1.713 0 3.102-1.389 3.102-3.102s-1.389-3.102-3.102-3.102-3.102 1.389-3.102 3.102 1.389 3.102 3.102 3.102z"/><path d="m239.96 294.773c1.672 0 3.026-1.326 3.09-2.983-2.085-.014-4.146-.033-6.186-.053.037 1.682 1.406 3.036 3.096 3.036z"/><path d="m250.337 298.192c-1.713 0-3.102 1.389-3.102 3.102 0 1.714 1.389 3.102 3.102 3.102s3.102-1.389 3.102-3.102-1.389-3.102-3.102-3.102z"/><path d="m239.96 308.568c-1.713 0-3.102 1.389-3.102 3.102s1.389 3.102 3.102 3.102 3.102-1.389 3.102-3.102-1.388-3.102-3.102-3.102z"/><path d="m250.337 318.192c-1.713 0-3.102 1.389-3.102 3.102 0 1.714 1.389 3.102 3.102 3.102s3.102-1.389 3.102-3.102-1.389-3.102-3.102-3.102z"/><path d="m239.96 328.568c-1.713 0-3.102 1.389-3.102 3.102s1.389 3.102 3.102 3.102 3.102-1.389 3.102-3.102-1.388-3.102-3.102-3.102z"/><path d="m219.96 294.773c1.713 0 3.102-1.389 3.102-3.102 0-.042-.011-.081-.012-.124-2.091-.036-4.147-.074-6.168-.115-.006.08-.024.157-.024.239 0 1.713 1.389 3.102 3.102 3.102z"/><path d="m230.337 298.192c-1.713 0-3.102 1.389-3.102 3.102 0 1.714 1.389 3.102 3.102 3.102s3.102-1.389 3.102-3.102-1.389-3.102-3.102-3.102z"/><path d="m219.96 308.568c-1.713 0-3.102 1.389-3.102 3.102s1.389 3.102 3.102 3.102 3.102-1.389 3.102-3.102-1.388-3.102-3.102-3.102z"/><path d="m230.337 318.192c-1.713 0-3.102 1.389-3.102 3.102 0 1.714 1.389 3.102 3.102 3.102s3.102-1.389 3.102-3.102-1.389-3.102-3.102-3.102z"/><path d="m219.96 328.568c-1.713 0-3.102 1.389-3.102 3.102s1.389 3.102 3.102 3.102 3.102-1.389 3.102-3.102-1.388-3.102-3.102-3.102z"/><path d="m196.858 291.671c0 1.713 1.389 3.102 3.102 3.102s3.102-1.389 3.102-3.102c0-.194-.023-.382-.057-.566-2.073-.056-4.09-.113-6.049-.172-.058.238-.098.482-.098.738z"/><path d="m207.234 301.294c0 1.714 1.389 3.102 3.102 3.102s3.102-1.389 3.102-3.102-1.389-3.102-3.102-3.102-3.102 1.389-3.102 3.102z"/><path d="m199.96 308.568c-1.713 0-3.102 1.389-3.102 3.102s1.389 3.102 3.102 3.102 3.102-1.389 3.102-3.102-1.388-3.102-3.102-3.102z"/><path d="m210.337 324.396c1.713 0 3.102-1.389 3.102-3.102s-1.389-3.102-3.102-3.102-3.102 1.389-3.102 3.102c-.001 1.714 1.388 3.102 3.102 3.102z"/><path d="m199.96 328.568c-1.713 0-3.102 1.389-3.102 3.102s1.389 3.102 3.102 3.102 3.102-1.389 3.102-3.102-1.388-3.102-3.102-3.102z"/><path d="m179.96 294.773c1.713 0 3.102-1.389 3.102-3.102 0-.429-.087-.838-.245-1.21-1.971-.073-3.837-.145-5.598-.215-.223.428-.362.908-.362 1.425.001 1.713 1.39 3.102 3.103 3.102z"/><path d="m190.337 298.192c-1.713 0-3.102 1.389-3.102 3.102 0 1.714 1.389 3.102 3.102 3.102s3.102-1.389 3.102-3.102-1.389-3.102-3.102-3.102z"/><path d="m179.96 308.568c-1.713 0-3.102 1.389-3.102 3.102s1.389 3.102 3.102 3.102 3.102-1.389 3.102-3.102-1.388-3.102-3.102-3.102z"/><path d="m190.337 318.192c-1.713 0-3.102 1.389-3.102 3.102 0 1.714 1.389 3.102 3.102 3.102s3.102-1.389 3.102-3.102-1.389-3.102-3.102-3.102z"/><path d="m179.96 328.568c-1.713 0-3.102 1.389-3.102 3.102s1.389 3.102 3.102 3.102 3.102-1.389 3.102-3.102-1.388-3.102-3.102-3.102z"/><path d="m156.858 291.671c0 1.713 1.389 3.102 3.102 3.102s3.102-1.389 3.102-3.102c0-.81-.318-1.541-.826-2.094-2.38-.119-3.66-.192-3.66-.192s-.251.005-.716.014c-.612.568-1.002 1.371-1.002 2.272z"/><path d="m170.337 298.192c-1.713 0-3.102 1.389-3.102 3.102 0 1.714 1.389 3.102 3.102 3.102s3.102-1.389 3.102-3.102-1.389-3.102-3.102-3.102z"/><path d="m159.96 308.568c-1.713 0-3.102 1.389-3.102 3.102s1.389 3.102 3.102 3.102 3.102-1.389 3.102-3.102-1.388-3.102-3.102-3.102z"/><path d="m170.337 318.192c-1.713 0-3.102 1.389-3.102 3.102 0 1.714 1.389 3.102 3.102 3.102s3.102-1.389 3.102-3.102-1.389-3.102-3.102-3.102z"/><path d="m159.96 328.568c-1.713 0-3.102 1.389-3.102 3.102s1.389 3.102 3.102 3.102 3.102-1.389 3.102-3.102-1.388-3.102-3.102-3.102z"/><path d="m139.96 294.773c1.713 0 3.102-1.389 3.102-3.102 0-.763-.286-1.453-.743-1.993-1.512.025-3.115.05-4.781.076-.419.529-.68 1.189-.68 1.917 0 1.713 1.389 3.102 3.102 3.102z"/><path d="m150.337 298.192c-1.713 0-3.102 1.389-3.102 3.102 0 1.714 1.389 3.102 3.102 3.102s3.102-1.389 3.102-3.102-1.389-3.102-3.102-3.102z"/><path d="m139.96 308.568c-1.713 0-3.102 1.389-3.102 3.102s1.389 3.102 3.102 3.102 3.102-1.389 3.102-3.102-1.388-3.102-3.102-3.102z"/><path d="m150.337 318.192c-1.713 0-3.102 1.389-3.102 3.102 0 1.714 1.389 3.102 3.102 3.102s3.102-1.389 3.102-3.102-1.389-3.102-3.102-3.102z"/><path d="m139.96 328.568c-1.713 0-3.102 1.389-3.102 3.102s1.389 3.102 3.102 3.102 3.102-1.389 3.102-3.102-1.388-3.102-3.102-3.102z"/><path d="m119.96 294.773c1.713 0 3.102-1.389 3.102-3.102 0-.63-.19-1.214-.513-1.703-1.707.022-3.447.044-5.214.065-.298.476-.478 1.035-.478 1.638.001 1.713 1.39 3.102 3.103 3.102z"/><path d="m130.337 298.192c-1.713 0-3.102 1.389-3.102 3.102 0 1.714 1.389 3.102 3.102 3.102s3.102-1.389 3.102-3.102-1.389-3.102-3.102-3.102z"/><path d="m119.96 308.568c-1.713 0-3.102 1.389-3.102 3.102s1.389 3.102 3.102 3.102 3.102-1.389 3.102-3.102-1.388-3.102-3.102-3.102z"/><path d="m130.337 318.192c-1.713 0-3.102 1.389-3.102 3.102 0 1.714 1.389 3.102 3.102 3.102s3.102-1.389 3.102-3.102-1.389-3.102-3.102-3.102z"/><path d="m119.96 328.568c-1.713 0-3.102 1.389-3.102 3.102s1.389 3.102 3.102 3.102 3.102-1.389 3.102-3.102-1.388-3.102-3.102-3.102z"/><path d="m99.96 294.773c1.713 0 3.102-1.389 3.102-3.102 0-.542-.151-1.044-.396-1.487-1.805.016-3.619.03-5.437.043-.229.433-.372.919-.372 1.444.001 1.713 1.39 3.102 3.103 3.102z"/><path d="m110.337 298.192c-1.713 0-3.102 1.389-3.102 3.102 0 1.714 1.389 3.102 3.102 3.102s3.102-1.389 3.102-3.102-1.389-3.102-3.102-3.102z"/><path d="m99.96 308.568c-1.713 0-3.102 1.389-3.102 3.102s1.389 3.102 3.102 3.102 3.102-1.389 3.102-3.102-1.388-3.102-3.102-3.102z"/><path d="m110.337 318.192c-1.713 0-3.102 1.389-3.102 3.102 0 1.714 1.389 3.102 3.102 3.102s3.102-1.389 3.102-3.102-1.389-3.102-3.102-3.102z"/><path d="m99.96 328.568c-1.713 0-3.102 1.389-3.102 3.102 0 .276.048.539.115.793 1.858.289 3.738.555 5.636.799.281-.467.453-1.008.453-1.592.001-1.713-1.388-3.102-3.102-3.102z"/><path d="m79.96 294.773c1.713 0 3.102-1.389 3.102-3.102 0-.495-.126-.956-.332-1.37-1.864.005-3.713.008-5.545.008-.203.413-.328.871-.328 1.362.001 1.713 1.39 3.102 3.103 3.102z"/><path d="m90.337 298.192c-1.713 0-3.102 1.389-3.102 3.102 0 1.714 1.389 3.102 3.102 3.102s3.102-1.389 3.102-3.102-1.389-3.102-3.102-3.102z"/><path d="m79.96 314.773c1.713 0 3.102-1.389 3.102-3.102s-1.389-3.102-3.102-3.102-3.102 1.389-3.102 3.102 1.389 3.102 3.102 3.102z"/><path d="m90.337 318.192c-1.713 0-3.102 1.389-3.102 3.102 0 1.714 1.389 3.102 3.102 3.102s3.102-1.389 3.102-3.102-1.389-3.102-3.102-3.102z"/><path d="m79.96 328.568c-.31 0-.603.059-.885.144 1.03.283 2.07.555 3.122.817-.565-.59-1.356-.961-2.237-.961z"/><path d="m59.96 294.773c1.713 0 3.102-1.389 3.102-3.102 0-.511-.136-.986-.354-1.411-1.873-.015-3.695-.033-5.466-.055-.237.439-.384.933-.384 1.466 0 1.713 1.389 3.102 3.102 3.102z"/><path d="m70.337 298.192c-1.713 0-3.102 1.389-3.102 3.102 0 1.714 1.389 3.102 3.102 3.102s3.102-1.389 3.102-3.102-1.389-3.102-3.102-3.102z"/><path d="m59.96 308.568c-1.713 0-3.102 1.389-3.102 3.102s1.389 3.102 3.102 3.102 3.102-1.389 3.102-3.102-1.388-3.102-3.102-3.102z"/><path d="m70.337 318.192c-1.713 0-3.102 1.389-3.102 3.102 0 1.714 1.389 3.102 3.102 3.102s3.102-1.389 3.102-3.102-1.389-3.102-3.102-3.102z"/><path d="m36.858 291.671c0 1.713 1.389 3.102 3.102 3.102s3.102-1.389 3.102-3.102c0-.672-.219-1.289-.581-1.797-1.772-.065-3.401-.139-4.859-.222-.47.544-.764 1.244-.764 2.019z"/><path d="m50.337 304.396c1.713 0 3.102-1.389 3.102-3.102s-1.389-3.102-3.102-3.102-3.102 1.389-3.102 3.102c-.001 1.714 1.388 3.102 3.102 3.102z"/></g><path d="m502.371 301.707c-127.144 32.482-242.224 14.849-249.648 17.633-7.425 2.784-26.57 19.025-25.291 23.856.186.702 15.456.994 42.311 1.475l2.79 16.729c.642 3.852 4.597 6.72 9.267 6.72h7.837c4.67 0 8.625-2.868 9.267-6.72l2.691-16.138c11.647.231 24.482.507 38.367.852l2.549 15.287c.643 3.852 4.597 6.72 9.267 6.72h7.837c4.67 0 8.625-2.868 9.267-6.72l2.544-15.253c12.854-.433 24.97-1.406 36.187-2.725l2.998 17.978c.643 3.852 4.597 6.72 9.267 6.72h7.837c4.67 0 8.624-2.868 9.267-6.72l3.52-21.105h-11.185c29.09-4.981 49.523-11.768 57.278-15.387 13.92-6.497 21.534-24.673 15.776-23.202z" fill="#e9c278"/><path d="m507.307 299.179c2.311-5.039 3.678-10.744 3.837-17.247.591-24.206-38.166-36.905-91.807-54.48-7.009-2.297-14.276-4.678-21.741-7.177-15.355-5.14-31.194-11.071-47.962-17.35-37.636-14.094-80.295-30.068-133.814-43.227-7.662-1.884-16.331-6.141-24.713-10.257-10.055-4.937-19.55-9.601-27.909-10.688-13.987-1.82-18.887 12.937-24.059 28.56-5.833 17.623-12.445 37.598-31.806 42.438-31.864 7.967-41.199-9.639-49.436-25.172-4.814-9.077-9.36-17.651-18.279-17.71-.045 0-.088 0-.133 0-14.416 0-17.255 15.584-19.759 29.336-1.085 5.966-2.209 12.135-4.111 17.375-11.117 30.622-12.777 59.167-12.777 73.457 0 1.572.076 3.108.21 4.616-2.229 1.349-3.344 3.533-2.98 5.847 2.98 18.968 37.261 40.596 50.935 44.648.464.138.98.272 1.523.404l3.264 19.577c1.007 6.039 6.741 10.421 13.635 10.421h7.837c6.894 0 12.628-4.382 13.635-10.421l2.582-15.485c3.752.19 7.657.364 11.683.524l2.495 14.961c1.007 6.039 6.741 10.421 13.635 10.421h7.837c6.894 0 12.628-4.382 13.635-10.42l2.311-13.853c24.37.449 49.631.583 71.058.583 4.602 0 9.031-.006 13.23-.017 1.684-.004 2.745-.007 3.074-.005.121 0 .241.001.362-.002 1.692.116 3.627.207 5.851.289 6.775.251 16.003.355 27.419.447l2.094 12.557c1.007 6.039 6.741 10.421 13.635 10.421h7.837c6.893 0 12.628-4.382 13.636-10.421l2.035-12.202c9.586.121 19.894.288 30.889.534l1.946 11.667c1.007 6.039 6.742 10.421 13.636 10.421h7.837c6.894 0 12.628-4.382 13.635-10.421l1.949-11.686c10.091-.419 19.691-1.163 28.738-2.136l2.305 13.821c1.007 6.039 6.741 10.421 13.635 10.421h7.837c6.893 0 12.628-4.382 13.636-10.421l3.378-20.258c22.148-4.682 37.485-10.031 43.738-12.949 12.698-5.926 22.265-21.258 19.871-27.952-.243-.681-.598-1.276-1.029-1.789zm-458.314-9.914c-10.581-.603-26.741-1.17-37.231.121-.041-.771-.066-1.552-.066-2.349 0-5.06.219-11.985 1.028-20.181.238.056.48.106.733.122l25.307 1.633c.097.006.194.009.29.009 2.316 0 4.264-1.8 4.416-4.144.157-2.441-1.694-4.547-4.135-4.705l-25.307-1.633c-.091-.006-.177.01-.267.01.677-4.858 1.564-10.029 2.72-15.423l27.936 2.205c.118.009.236.014.353.014 2.288 0 4.228-1.761 4.41-4.081.193-2.438-1.627-4.571-4.067-4.763l-26.563-2.097c1.472-5.658 3.245-11.488 5.392-17.402 2.157-5.941 3.349-12.483 4.5-18.811 2.729-14.986 4.713-22.065 11.062-22.065h.057c3.63.024 6.819 6.038 10.511 13.002 6.956 13.118 16.892 31.862 42.703 31.86 4.953 0 10.494-.691 16.707-2.244 24.091-6.023 31.84-29.435 38.067-48.248 4.812-14.533 8.094-23.395 14.508-22.56 6.907.898 15.767 5.249 25.146 9.855 8.805 4.324 17.91 8.795 26.502 10.908 33.518 8.241 62.79 17.619 89.243 26.942-43.79 1.235-125.68 3.706-131.089 5.058-4.17 1.043-11.103 8.148-31.222 30.431-8.518 9.434-20.184 22.355-22.853 23.841-2.713 1.079-15.113-2.136-22.52-4.056-14.73-3.819-24.01-6.018-28.977-3.258-7.822 4.348-14.455 29.593-17.294 42.009zm245.542 71.406c-.278 1.666-2.476 3.021-4.899 3.021h-7.837c-2.423 0-4.62-1.354-4.898-3.02l-1.839-11.032c6.571.049 13.67.104 21.282.184zm69.978.001c-.278 1.665-2.475 3.02-4.898 3.02h-7.837c-2.424 0-4.622-1.354-4.899-3.02l-1.667-9.995c.068.002.135.003.204.005 3.848.099 7.644.146 11.385.146 3.169 0 6.284-.045 9.372-.11zm70.759-15.947-2.659 15.946c-.278 1.666-2.476 3.021-4.899 3.021h-7.837c-2.423 0-4.62-1.354-4.898-3.02l-2.236-13.408c8.083-1.039 15.671-2.244 22.689-3.548zm49.449-23.83c-16.237 7.577-71.604 22.665-139.078 20.931-28.402-.728-52.562-.909-71.975-1.055-11.965-.09-23.067-.173-31.359-.396.965-1.219 2.038-2.612 3.234-4.207 4.983-6.642 7.32-10.554 8.44-12.907 3.473.133 7.914.377 12.496.629 40.415 2.226 134.162 7.388 232.036-16.652-2.259 4.293-7.19 10.575-13.794 13.657zm17.568-39.179c-.151 6.174-1.664 11.687-4.6 16.599-97.055 24.091-190.528 18.946-230.722 16.732-11.254-.62-16.707-.895-19.768-.646-5.686-.502-16.798-.76-39.474-.81-22.639-.049-48.506.189-62.404.316-4.896.045-8.299.077-9.535.077-6.819 0-34.387-12.048-41.89-17.676-4.633-3.475-23.523-5.475-35.949-6.439 4.083-17.329 9.704-32.943 12.575-34.835 2.708-1.079 15.112 2.135 22.52 4.056 14.73 3.819 24.009 6.018 28.977 3.258 3.827-2.126 12.066-11.143 25.192-25.681 9.321-10.323 23.339-25.849 26.944-27.796 7.467-1.176 94.224-3.857 151.58-5.395 7.115 2.624 14.036 5.215 20.792 7.745 16.843 6.308 32.753 12.265 48.256 17.455 7.483 2.505 14.768 4.892 21.795 7.194 48.128 15.768 86.141 28.223 85.711 45.846z" fill="#31373d"/><g fill="#eaa895"><path d="m287.424 272.76h-31.838l-57.345-45.305h31.838z"/><path d="m355.999 267.862h-31.838l-57.345-45.305h31.838z"/></g></g></svg>