<svg id="Capa_1" enable-background="new 0 0 511.796 511.796" height="512" viewBox="0 0 511.796 511.796" width="512" xmlns="http://www.w3.org/2000/svg"><g><path d="m39.627 474.034-1.837-1.837c-45.024-45.024-45.024-118.023 0-163.048 0 0 104.155-84.039 146-127.234 41.846-43.195 125.388-144.153 125.388-144.153 45.024-45.024 118.023-45.024 163.048 0l1.837 1.837c45.024 45.024 45.024 118.023 0 163.048 0 0-109.959 86.284-146.855 124.145-36.895 37.86-124.533 147.244-124.533 147.244-45.025 45.023-118.023 45.023-163.048-.002z" fill="#eaa895"/><g fill="#f9fbfc"><path d="m503.972 91.489c-.157.371-.243.778-.243 1.206 0 .958.444 1.805 1.128 2.374-.278-1.197-.57-2.391-.885-3.58z"/><path d="m506.831 115.797c.304 0 .592-.057.871-.139-.095-2.01-.246-4.018-.445-6.022-.141-.02-.28-.043-.425-.043-1.713 0-3.102 1.389-3.102 3.103-.001 1.712 1.388 3.101 3.101 3.101z"/><path d="m503.729 132.695c0 1.713 1.389 3.102 3.102 3.102.021 0 .04-.006.061-.006.26-2.035.469-4.074.62-6.118-.22-.049-.447-.081-.682-.081-1.712 0-3.101 1.389-3.101 3.103z"/><path d="m486.831 55.797c.231 0 .455-.029.672-.078-1.07-1.55-2.183-3.079-3.338-4.586-.27.46-.436.989-.436 1.562 0 1.713 1.389 3.102 3.102 3.102z"/><path d="m486.831 75.797c1.713 0 3.102-1.389 3.102-3.102s-1.389-3.103-3.102-3.103-3.102 1.389-3.102 3.103c0 1.713 1.389 3.102 3.102 3.102z"/><path d="m497.207 85.42c1.713 0 3.102-1.389 3.102-3.102s-1.389-3.103-3.102-3.103-3.102 1.389-3.102 3.103 1.389 3.102 3.102 3.102z"/><path d="m486.831 95.797c1.713 0 3.102-1.389 3.102-3.102s-1.389-3.103-3.102-3.103-3.102 1.389-3.102 3.103c0 1.713 1.389 3.102 3.102 3.102z"/><path d="m497.207 105.42c1.713 0 3.102-1.389 3.102-3.102s-1.389-3.103-3.102-3.103-3.102 1.389-3.102 3.103 1.389 3.102 3.102 3.102z"/><path d="m486.831 115.797c1.713 0 3.102-1.389 3.102-3.102s-1.389-3.103-3.102-3.103-3.102 1.389-3.102 3.103c0 1.713 1.389 3.102 3.102 3.102z"/><path d="m497.207 125.42c1.713 0 3.102-1.389 3.102-3.102s-1.389-3.103-3.102-3.103-3.102 1.389-3.102 3.103 1.389 3.102 3.102 3.102z"/><path d="m486.831 135.797c1.713 0 3.102-1.389 3.102-3.102s-1.389-3.102-3.102-3.102-3.102 1.389-3.102 3.102 1.389 3.102 3.102 3.102z"/><path d="m497.207 145.42c1.713 0 3.102-1.389 3.102-3.102s-1.389-3.103-3.102-3.103-3.102 1.389-3.102 3.103c0 1.713 1.389 3.102 3.102 3.102z"/><path d="m466.831 35.797c.908 0 1.718-.397 2.285-1.02-1.518-1.41-3.064-2.771-4.638-4.084-.461.542-.75 1.234-.75 2.001.001 1.714 1.39 3.103 3.103 3.103z"/><path d="m477.207 45.42c.665 0 1.277-.213 1.782-.569-1.345-1.522-2.737-3.017-4.177-4.483-.436.534-.708 1.207-.708 1.95.001 1.714 1.39 3.102 3.103 3.102z"/><path d="m469.466 54.314c.291-.473.467-1.024.467-1.62 0-1.293-.793-2.4-1.917-2.866.516 1.488.997 2.983 1.45 4.486z"/><path d="m477.207 65.42c1.713 0 3.102-1.389 3.102-3.102s-1.389-3.103-3.102-3.103-3.102 1.389-3.102 3.103 1.389 3.102 3.102 3.102z"/><path d="m477.207 79.216c-1.455 0-2.666 1.005-3.002 2.356.032.605.078 1.21.1 1.816.437 1.184 1.566 2.032 2.901 2.032 1.713 0 3.102-1.389 3.102-3.102.002-1.713-1.387-3.102-3.101-3.102z"/><path d="m477.207 105.42c1.713 0 3.102-1.389 3.102-3.102s-1.389-3.103-3.102-3.103-3.102 1.389-3.102 3.103 1.389 3.102 3.102 3.102z"/><path d="m477.207 125.42c1.713 0 3.102-1.389 3.102-3.102s-1.389-3.103-3.102-3.103-3.102 1.389-3.102 3.103 1.389 3.102 3.102 3.102z"/><path d="m466.831 129.592c-.113 0-.22.021-.329.033-.654 1.679-1.347 3.346-2.083 4.998.568.71 1.432 1.173 2.412 1.173 1.713 0 3.102-1.389 3.102-3.102s-1.389-3.102-3.102-3.102z"/><path d="m457.207 25.42c.135 0 .263-.023.393-.04-.897-.64-1.798-1.271-2.709-1.882.366.544.702 1.102 1.057 1.65.386.172.81.272 1.259.272z"/><path d="m446.831 209.592c-1.713 0-3.102 1.389-3.102 3.102s1.389 3.102 3.102 3.102 3.102-1.389 3.102-3.102-1.389-3.102-3.102-3.102z"/><path d="m437.207 199.216c-1.713 0-3.102 1.389-3.102 3.103 0 1.713 1.389 3.102 3.102 3.102s3.102-1.389 3.102-3.102c.001-1.714-1.388-3.103-3.102-3.103z"/><path d="m426.831 209.592c-1.713 0-3.102 1.389-3.102 3.102s1.389 3.102 3.102 3.102 3.102-1.389 3.102-3.102-1.389-3.102-3.102-3.102z"/><path d="m437.207 219.216c-1.713 0-3.102 1.389-3.102 3.103 0 1.713 1.389 3.102 3.102 3.102s3.102-1.389 3.102-3.102c.001-1.714-1.388-3.103-3.102-3.103z"/><path d="m426.831 229.592c-1.713 0-3.102 1.389-3.102 3.102s1.389 3.102 3.102 3.102 3.102-1.389 3.102-3.102-1.389-3.102-3.102-3.102z"/><path d="m407.319 195.747c1.098-.175 2.002-.919 2.396-1.927-.788.634-1.587 1.277-2.396 1.927z"/><path d="m417.207 199.216c-1.713 0-3.102 1.389-3.102 3.103 0 1.713 1.389 3.102 3.102 3.102s3.102-1.389 3.102-3.102c.001-1.714-1.388-3.103-3.102-3.103z"/><path d="m406.831 209.592c-1.713 0-3.102 1.389-3.102 3.102s1.389 3.102 3.102 3.102 3.102-1.389 3.102-3.102-1.389-3.102-3.102-3.102z"/><path d="m417.207 219.216c-1.713 0-3.102 1.389-3.102 3.103 0 1.713 1.389 3.102 3.102 3.102s3.102-1.389 3.102-3.102c.001-1.714-1.388-3.103-3.102-3.103z"/><path d="m406.831 229.592c-1.713 0-3.102 1.389-3.102 3.102s1.389 3.102 3.102 3.102 3.102-1.389 3.102-3.102-1.389-3.102-3.102-3.102z"/><path d="m417.207 239.216c-1.713 0-3.102 1.389-3.102 3.103 0 1.713 1.389 3.102 3.102 3.102s3.102-1.389 3.102-3.102c.001-1.714-1.388-3.103-3.102-3.103z"/><path d="m406.831 249.592c-1.713 0-3.102 1.389-3.102 3.102s1.389 3.102 3.102 3.102 3.102-1.389 3.102-3.102-1.389-3.102-3.102-3.102z"/><path d="m395.79 205.063c.427.221.904.357 1.418.357 1.713 0 3.102-1.389 3.102-3.102 0-.285-.051-.555-.122-.817-1.446 1.17-2.909 2.354-4.398 3.562z"/><path d="m384.269 214.442c.559.817 1.497 1.355 2.562 1.355 1.713 0 3.102-1.389 3.102-3.102 0-.84-.337-1.599-.878-2.157-1.58 1.287-3.175 2.587-4.786 3.904z"/><path d="m397.207 219.216c-1.713 0-3.102 1.389-3.102 3.103 0 1.713 1.389 3.102 3.102 3.102s3.102-1.389 3.102-3.102c.001-1.714-1.388-3.103-3.102-3.103z"/><path d="m386.831 229.592c-1.713 0-3.102 1.389-3.102 3.102s1.389 3.102 3.102 3.102 3.102-1.389 3.102-3.102-1.389-3.102-3.102-3.102z"/><path d="m397.207 239.216c-1.713 0-3.102 1.389-3.102 3.103 0 1.713 1.389 3.102 3.102 3.102s3.102-1.389 3.102-3.102c.001-1.714-1.388-3.103-3.102-3.103z"/><path d="m386.831 249.592c-1.713 0-3.102 1.389-3.102 3.102s1.389 3.102 3.102 3.102 3.102-1.389 3.102-3.102-1.389-3.102-3.102-3.102z"/><path d="m397.207 259.216c-1.713 0-3.102 1.389-3.102 3.103 0 1.476 1.034 2.706 2.415 3.02 1.261-1.049 2.52-2.094 3.778-3.137-.063-1.659-1.417-2.986-3.091-2.986z"/><path d="m386.831 269.592c-1.713 0-3.102 1.389-3.102 3.103 0 .967.452 1.82 1.146 2.389 1.545-1.301 3.095-2.603 4.648-3.904-.533-.943-1.532-1.588-2.692-1.588z"/><path d="m378.219 219.399c-1.35 1.109-2.708 2.226-4.071 3.349.211 1.508 1.493 2.673 3.059 2.673 1.713 0 3.102-1.389 3.102-3.102.001-1.358-.876-2.499-2.09-2.92z"/><path d="m366.831 229.592c-.486 0-.94.122-1.349.321-.381.316-.762.633-1.143.95-.379.515-.61 1.144-.61 1.831 0 1.713 1.389 3.102 3.102 3.102s3.102-1.389 3.102-3.102-1.389-3.102-3.102-3.102z"/><path d="m377.207 239.216c-1.713 0-3.102 1.389-3.102 3.103 0 1.713 1.389 3.102 3.102 3.102s3.102-1.389 3.102-3.102c.001-1.714-1.388-3.103-3.102-3.103z"/><path d="m366.831 249.592c-1.713 0-3.102 1.389-3.102 3.102s1.389 3.102 3.102 3.102 3.102-1.389 3.102-3.102-1.389-3.102-3.102-3.102z"/><path d="m377.207 259.216c-1.713 0-3.102 1.389-3.102 3.103 0 1.713 1.389 3.102 3.102 3.102s3.102-1.389 3.102-3.102c.001-1.714-1.388-3.103-3.102-3.103z"/><path d="m366.831 269.592c-1.713 0-3.102 1.389-3.102 3.103 0 1.713 1.389 3.102 3.102 3.102s3.102-1.389 3.102-3.102c0-1.714-1.389-3.103-3.102-3.103z"/><path d="m374.105 282.318c0 .561.161 1.081.422 1.535 1.531-1.307 3.075-2.619 4.626-3.934-.533-.433-1.205-.704-1.945-.704-1.714.001-3.103 1.39-3.103 3.103z"/><path d="m363.729 292.695c0 .143.023.28.042.417 1.292-1.122 2.596-2.251 3.913-3.386-.273-.079-.555-.134-.852-.134-1.714 0-3.103 1.389-3.103 3.103z"/><path d="m357.207 239.216c-1.713 0-3.102 1.389-3.102 3.103 0 1.713 1.389 3.102 3.102 3.102s3.102-1.389 3.102-3.102c.001-1.714-1.388-3.103-3.102-3.103z"/><path d="m346.831 249.592c-1.713 0-3.102 1.389-3.102 3.102s1.389 3.102 3.102 3.102 3.102-1.389 3.102-3.102-1.389-3.102-3.102-3.102z"/><path d="m357.207 259.216c-1.713 0-3.102 1.389-3.102 3.103 0 1.713 1.389 3.102 3.102 3.102s3.102-1.389 3.102-3.102c.001-1.714-1.388-3.103-3.102-3.103z"/><path d="m346.831 269.592c-1.713 0-3.102 1.389-3.102 3.103 0 1.713 1.389 3.102 3.102 3.102s3.102-1.389 3.102-3.102c0-1.714-1.389-3.103-3.102-3.103z"/><path d="m357.207 279.216c-1.713 0-3.102 1.389-3.102 3.103 0 1.713 1.389 3.102 3.102 3.102s3.102-1.389 3.102-3.102c.001-1.714-1.388-3.103-3.102-3.103z"/><path d="m346.831 289.592c-1.713 0-3.102 1.389-3.102 3.103 0 1.713 1.389 3.102 3.102 3.102s3.102-1.389 3.102-3.102c0-1.714-1.389-3.103-3.102-3.103z"/><path d="m354.235 301.476c.826-.733 1.662-1.471 2.504-2.213-1.207.184-2.177 1.059-2.504 2.213z"/><path d="m337.207 259.216c-1.713 0-3.102 1.389-3.102 3.103 0 1.713 1.389 3.102 3.102 3.102s3.102-1.389 3.102-3.102c.001-1.714-1.388-3.103-3.102-3.103z"/><path d="m326.831 269.592c-1.713 0-3.102 1.389-3.102 3.103 0 1.713 1.389 3.102 3.102 3.102s3.102-1.389 3.102-3.102c0-1.714-1.389-3.103-3.102-3.103z"/><path d="m337.207 279.216c-1.713 0-3.102 1.389-3.102 3.103 0 1.713 1.389 3.102 3.102 3.102s3.102-1.389 3.102-3.102c.001-1.714-1.388-3.103-3.102-3.103z"/><path d="m326.831 289.592c-1.713 0-3.102 1.389-3.102 3.103 0 1.713 1.389 3.102 3.102 3.102s3.102-1.389 3.102-3.102c0-1.714-1.389-3.103-3.102-3.103z"/><path d="m337.207 299.216c-1.713 0-3.102 1.389-3.102 3.103 0 1.713 1.389 3.102 3.102 3.102s3.102-1.389 3.102-3.102c.001-1.714-1.388-3.103-3.102-3.103z"/><path d="m326.831 309.592c-1.713 0-3.102 1.389-3.102 3.103 0 1.713 1.389 3.102 3.102 3.102s3.102-1.389 3.102-3.102c0-1.714-1.389-3.103-3.102-3.103z"/><path d="m317.207 279.216c-1.713 0-3.102 1.389-3.102 3.103 0 1.713 1.389 3.102 3.102 3.102s3.102-1.389 3.102-3.102c.001-1.714-1.388-3.103-3.102-3.103z"/><path d="m306.831 289.592c-1.713 0-3.102 1.389-3.102 3.103 0 1.713 1.389 3.102 3.102 3.102s3.102-1.389 3.102-3.102c0-1.714-1.389-3.103-3.102-3.103z"/><path d="m317.207 299.216c-1.713 0-3.102 1.389-3.102 3.103 0 1.713 1.389 3.102 3.102 3.102s3.102-1.389 3.102-3.102c.001-1.714-1.388-3.103-3.102-3.103z"/><path d="m306.831 309.592c-1.713 0-3.102 1.389-3.102 3.103 0 1.713 1.389 3.102 3.102 3.102s3.102-1.389 3.102-3.102c0-1.714-1.389-3.103-3.102-3.103z"/><path d="m317.207 319.216c-1.713 0-3.102 1.389-3.102 3.103 0 1.713 1.389 3.102 3.102 3.102s3.102-1.389 3.102-3.102c.001-1.714-1.388-3.103-3.102-3.103z"/><path d="m306.831 329.592c-1.713 0-3.102 1.389-3.102 3.103 0 1.713 1.389 3.102 3.102 3.102s3.102-1.389 3.102-3.102c0-1.714-1.389-3.103-3.102-3.103z"/><path d="m303.753 352.458c.831-.946 1.655-1.881 2.472-2.805-1.347.268-2.365 1.408-2.472 2.805z"/><path d="m297.207 299.216c-1.713 0-3.102 1.389-3.102 3.103 0 1.713 1.389 3.102 3.102 3.102s3.102-1.389 3.102-3.102c.001-1.714-1.388-3.103-3.102-3.103z"/><path d="m286.831 309.592c-1.713 0-3.102 1.389-3.102 3.103 0 1.713 1.389 3.102 3.102 3.102s3.102-1.389 3.102-3.102c0-1.714-1.389-3.103-3.102-3.103z"/><path d="m297.207 319.216c-1.713 0-3.102 1.389-3.102 3.103 0 1.713 1.389 3.102 3.102 3.102s3.102-1.389 3.102-3.102c.001-1.714-1.388-3.103-3.102-3.103z"/><path d="m286.831 329.592c-1.713 0-3.102 1.389-3.102 3.103 0 1.713 1.389 3.102 3.102 3.102s3.102-1.389 3.102-3.102c0-1.714-1.389-3.103-3.102-3.103z"/><path d="m297.207 339.216c-1.713 0-3.102 1.389-3.102 3.103 0 1.713 1.389 3.102 3.102 3.102s3.102-1.389 3.102-3.102c.001-1.714-1.388-3.103-3.102-3.103z"/><path d="m286.831 349.592c-1.713 0-3.102 1.389-3.102 3.103 0 1.713 1.389 3.102 3.102 3.102s3.102-1.389 3.102-3.102c0-1.714-1.389-3.103-3.102-3.103z"/><path d="m294.105 362.318c0 .356.072.693.183 1.012 1.18-1.367 2.35-2.718 3.51-4.055-.192-.037-.389-.06-.591-.06-1.713.001-3.102 1.39-3.102 3.103z"/><path d="m284.048 371.347-24.491-7.024c.463-.542.753-1.236.753-2.005 0-1.713-1.389-3.103-3.102-3.103s-3.102 1.389-3.102 3.103c0 .156.024.305.046.454l-207.219-59.434c-18.868 12.68-31.983 31.735-38.993 57.561l209.151 58.329c-1.658.062-2.986 1.417-2.986 3.091 0 1.713 1.389 3.102 3.102 3.102s3.102-1.389 3.102-3.102c0-1.074-.546-2.02-1.376-2.577l15.773 4.399c.564.773 1.47 1.28 2.5 1.28.429 0 .839-.087 1.21-.246l2.55.711 17.537-20.758c.82-.379 1.438-1.105 1.682-1.991l6.242-7.389c.108.014.214.038.325.041 1.037-1.24 2.076-2.48 3.116-3.72-.021-.1-.056-.195-.087-.291l5.786-6.849c.067.042.131.087.201.124 1.3-1.541 2.598-3.078 3.894-4.608-.048-.062-.11-.111-.163-.17l4.855-5.747c.052.069.097.144.155.208 1.332-1.564 2.657-3.115 3.976-4.656-.48-.305-1.046-.488-1.656-.488-1.226 0-2.278.72-2.781 1.755z"/><path d="m277.207 325.42c1.713 0 3.102-1.389 3.102-3.102s-1.389-3.103-3.102-3.103-3.102 1.389-3.102 3.103c0 1.713 1.389 3.102 3.102 3.102z"/><path d="m266.831 335.797c1.713 0 3.102-1.389 3.102-3.102s-1.389-3.103-3.102-3.103-3.102 1.389-3.102 3.103c0 1.713 1.389 3.102 3.102 3.102z"/><path d="m277.207 345.42c1.713 0 3.102-1.389 3.102-3.102s-1.389-3.103-3.102-3.103-3.102 1.389-3.102 3.103c0 1.713 1.389 3.102 3.102 3.102z"/><path d="m266.831 355.797c1.713 0 3.102-1.389 3.102-3.102s-1.389-3.103-3.102-3.103-3.102 1.389-3.102 3.103c0 1.713 1.389 3.102 3.102 3.102z"/><path d="m277.207 365.42c1.713 0 3.102-1.389 3.102-3.102s-1.389-3.103-3.102-3.103-3.102 1.389-3.102 3.103c0 1.713 1.389 3.102 3.102 3.102z"/><path d="m257.207 345.42c1.713 0 3.102-1.389 3.102-3.102s-1.389-3.103-3.102-3.103-3.102 1.389-3.102 3.103c0 1.713 1.389 3.102 3.102 3.102z"/><path d="m249.933 352.695c0-1.713-1.389-3.103-3.102-3.103s-3.102 1.389-3.102 3.103c0 1.713 1.389 3.102 3.102 3.102s3.102-1.389 3.102-3.102z"/><path d="m226.831 429.592c-1.713 0-3.102 1.389-3.102 3.103 0 1.713 1.389 3.102 3.102 3.102s3.102-1.389 3.102-3.102c0-1.714-1.389-3.103-3.102-3.103z"/><path d="m206.831 429.592c-1.713 0-3.102 1.389-3.102 3.103 0 1.713 1.389 3.102 3.102 3.102s3.102-1.389 3.102-3.102c0-1.714-1.389-3.103-3.102-3.103z"/><path d="m217.207 439.216c-1.713 0-3.102 1.389-3.102 3.103 0 1.713 1.389 3.102 3.102 3.102s3.102-1.389 3.102-3.102c.001-1.714-1.388-3.103-3.102-3.103z"/><path d="m206.831 449.592c-1.713 0-3.102 1.389-3.102 3.103 0 1.713 1.389 3.102 3.102 3.102s3.102-1.389 3.102-3.102c0-1.714-1.389-3.103-3.102-3.103z"/><path d="m203.729 472.695c0 .008.003.016.003.023.588-.732 1.419-1.766 2.46-3.058-1.407.295-2.463 1.541-2.463 3.035z"/><path d="m197.207 419.216c-1.713 0-3.102 1.389-3.102 3.103 0 1.713 1.389 3.102 3.102 3.102s3.102-1.389 3.102-3.102c.001-1.714-1.388-3.103-3.102-3.103z"/><path d="m186.831 429.592c-1.713 0-3.102 1.389-3.102 3.103 0 1.713 1.389 3.102 3.102 3.102s3.102-1.389 3.102-3.102c0-1.714-1.389-3.103-3.102-3.103z"/><path d="m197.207 439.216c-1.713 0-3.102 1.389-3.102 3.103 0 1.713 1.389 3.102 3.102 3.102s3.102-1.389 3.102-3.102c.001-1.714-1.388-3.103-3.102-3.103z"/><path d="m186.831 449.592c-1.713 0-3.102 1.389-3.102 3.103 0 1.713 1.389 3.102 3.102 3.102s3.102-1.389 3.102-3.102c0-1.714-1.389-3.103-3.102-3.103z"/><path d="m197.207 459.216c-1.713 0-3.102 1.389-3.102 3.103 0 1.713 1.389 3.102 3.102 3.102s3.102-1.389 3.102-3.102c.001-1.714-1.388-3.103-3.102-3.103z"/><path d="m186.831 469.592c-1.713 0-3.102 1.389-3.102 3.103 0 1.713 1.389 3.102 3.102 3.102s3.102-1.389 3.102-3.102c0-1.714-1.389-3.103-3.102-3.103z"/><path d="m194.163 481.744c.999-.819 1.984-1.662 2.961-2.52-1.479.04-2.696 1.109-2.961 2.52z"/><path d="m177.207 439.216c-1.713 0-3.102 1.389-3.102 3.103 0 1.713 1.389 3.102 3.102 3.102s3.102-1.389 3.102-3.102c.001-1.714-1.388-3.103-3.102-3.103z"/><path d="m166.831 449.592c-1.713 0-3.102 1.389-3.102 3.103 0 1.713 1.389 3.102 3.102 3.102s3.102-1.389 3.102-3.102c0-1.714-1.389-3.103-3.102-3.103z"/><path d="m177.207 459.216c-1.713 0-3.102 1.389-3.102 3.103 0 1.713 1.389 3.102 3.102 3.102s3.102-1.389 3.102-3.102c.001-1.714-1.388-3.103-3.102-3.103z"/><path d="m166.831 469.592c-1.713 0-3.102 1.389-3.102 3.103 0 1.713 1.389 3.102 3.102 3.102s3.102-1.389 3.102-3.102c0-1.714-1.389-3.103-3.102-3.103z"/><path d="m177.207 479.216c-1.713 0-3.102 1.389-3.102 3.103 0 1.713 1.389 3.102 3.102 3.102s3.102-1.389 3.102-3.102c.001-1.714-1.388-3.103-3.102-3.103z"/><path d="m166.831 489.592c-1.713 0-3.102 1.389-3.102 3.103 0 1.713 1.389 3.102 3.102 3.102s3.102-1.389 3.102-3.102c0-1.714-1.389-3.103-3.102-3.103z"/><path d="m157.207 459.216c-1.713 0-3.102 1.389-3.102 3.103 0 1.713 1.389 3.102 3.102 3.102s3.102-1.389 3.102-3.102c.001-1.714-1.388-3.103-3.102-3.103z"/><path d="m146.831 469.592c-1.713 0-3.102 1.389-3.102 3.103 0 1.713 1.389 3.102 3.102 3.102s3.102-1.389 3.102-3.102c0-1.714-1.389-3.103-3.102-3.103z"/><path d="m157.207 479.216c-1.713 0-3.102 1.389-3.102 3.103 0 1.713 1.389 3.102 3.102 3.102s3.102-1.389 3.102-3.102c.001-1.714-1.388-3.103-3.102-3.103z"/><path d="m146.831 489.592c-1.713 0-3.102 1.389-3.102 3.103 0 1.713 1.389 3.102 3.102 3.102s3.102-1.389 3.102-3.102c0-1.714-1.389-3.103-3.102-3.103z"/><path d="m157.207 499.216c-1.713 0-3.102 1.389-3.102 3.103 0 .231.029.455.078.672 1.967-.586 3.92-1.23 5.859-1.924-.482-1.089-1.567-1.851-2.835-1.851z"/><path d="m134.845 464.306c.569.676 1.41 1.114 2.363 1.114 1.713 0 3.102-1.389 3.102-3.102 0-.201-.023-.397-.059-.587-1.783.913-3.589 1.762-5.406 2.575z"/><path d="m126.831 469.592c-1.713 0-3.102 1.389-3.102 3.103 0 1.713 1.389 3.102 3.102 3.102s3.102-1.389 3.102-3.102c0-1.714-1.389-3.103-3.102-3.103z"/><path d="m137.207 479.216c-1.713 0-3.102 1.389-3.102 3.103 0 1.713 1.389 3.102 3.102 3.102s3.102-1.389 3.102-3.102c.001-1.714-1.388-3.103-3.102-3.103z"/><path d="m126.831 489.592c-1.713 0-3.102 1.389-3.102 3.103 0 1.713 1.389 3.102 3.102 3.102s3.102-1.389 3.102-3.102c0-1.714-1.389-3.103-3.102-3.103z"/><path d="m137.207 499.216c-1.713 0-3.102 1.389-3.102 3.103 0 1.713 1.389 3.102 3.102 3.102s3.102-1.389 3.102-3.102c.001-1.714-1.388-3.103-3.102-3.103z"/><path d="m103.783 473.236c.257 1.454 1.52 2.561 3.048 2.561 1.713 0 3.102-1.389 3.102-3.102 0-.169-.024-.331-.05-.493-2.026.395-4.059.749-6.1 1.034z"/><path d="m117.207 479.216c-1.713 0-3.102 1.389-3.102 3.103 0 1.713 1.389 3.102 3.102 3.102s3.102-1.389 3.102-3.102c.001-1.714-1.388-3.103-3.102-3.103z"/><path d="m106.831 489.592c-1.713 0-3.102 1.389-3.102 3.103 0 1.713 1.389 3.102 3.102 3.102s3.102-1.389 3.102-3.102c0-1.714-1.389-3.103-3.102-3.103z"/><path d="m117.207 499.216c-1.713 0-3.102 1.389-3.102 3.103 0 1.713 1.389 3.102 3.102 3.102s3.102-1.389 3.102-3.102c.001-1.714-1.388-3.103-3.102-3.103z"/><path d="m86.831 475.797c1.108 0 2.074-.585 2.623-1.46-1.755.026-3.51.019-5.264-.035.544.893 1.518 1.495 2.641 1.495z"/><path d="m97.207 479.216c-1.713 0-3.102 1.389-3.102 3.103 0 1.713 1.389 3.102 3.102 3.102s3.102-1.389 3.102-3.102c.001-1.714-1.388-3.103-3.102-3.103z"/><path d="m86.831 489.592c-1.713 0-3.102 1.389-3.102 3.103 0 1.713 1.389 3.102 3.102 3.102s3.102-1.389 3.102-3.102c0-1.714-1.389-3.103-3.102-3.103z"/><path d="m97.207 499.216c-1.713 0-3.102 1.389-3.102 3.103 0 1.102.579 2.063 1.445 2.614.687.155 1.375.304 2.064.447 1.519-.201 2.696-1.487 2.696-3.061 0-1.714-1.389-3.103-3.103-3.103z"/><path d="m66.831 475.797c1.618 0 2.931-1.243 3.074-2.823-2.024-.315-4.042-.682-6.051-1.105-.073.265-.125.538-.125.826 0 1.713 1.389 3.102 3.102 3.102z"/><path d="m77.207 479.216c-1.713 0-3.102 1.389-3.102 3.103 0 1.713 1.389 3.102 3.102 3.102s3.102-1.389 3.102-3.102c.001-1.714-1.388-3.103-3.102-3.103z"/><path d="m66.831 489.592c-1.653 0-2.991 1.296-3.084 2.926 1.622.932 3.261 1.821 4.916 2.668.767-.565 1.271-1.467 1.271-2.492-.001-1.713-1.39-3.102-3.103-3.102z"/><path d="m79.115 499.888c-.457-.359-1.013-.587-1.625-.644.539.221 1.082.432 1.625.644z"/><path d="m46.831 469.592c-1.713 0-3.102 1.389-3.102 3.103 0 1.713 1.389 3.102 3.102 3.102s3.102-1.389 3.102-3.102c0-1.714-1.389-3.103-3.102-3.103z"/><path d="m57.207 479.216c-1.713 0-3.102 1.389-3.102 3.103 0 1.713 1.389 3.102 3.102 3.102s3.102-1.389 3.102-3.102c.001-1.714-1.388-3.103-3.102-3.103z"/><path d="m34.105 462.318c0 1.713 1.389 3.102 3.102 3.102 1.11 0 2.076-.587 2.625-1.463-1.861-.85-3.702-1.757-5.525-2.711-.124.335-.202.694-.202 1.072z"/><path d="m480.296 142.456c.002-.047.014-.091.014-.138 0-1.713-1.389-3.103-3.102-3.103-1.153 0-2.148.637-2.683 1.571l-201.992-58.406-48.277 55.704 199.585 55.398c.35 1.33 1.549 2.315 2.989 2.315.843 0 1.605-.339 2.165-.884l25.152 6.981c-.019.14-.043.279-.043.424 0 1.713 1.389 3.102 3.102 3.102 1.281 0 2.38-.777 2.853-1.885l8.363 2.321c2.06-1.396 3.994-2.89 5.832-4.446-.089.289-.151.59-.151.908 0 .088.019.171.026.258 1.096-1.098 2.159-2.217 3.202-3.348-.043-.001-.083-.013-.126-.013-.184 0-.362.023-.538.054 11.617-10.777 18.529-24.264 22.449-34.528.088-.07.181-.133.261-.212.315-.778.619-1.559.917-2.342-.007-.164-.036-.322-.067-.478 2.579-7.394 3.474-12.485 3.474-12.485z"/></g><g fill="#eaa895"><path d="m486.831 155.797c1.713 0 3.102-1.389 3.102-3.102s-1.389-3.102-3.102-3.102-3.102 1.389-3.102 3.102 1.389 3.102 3.102 3.102z"/><path d="m497.207 159.216c-1.713 0-3.102 1.389-3.102 3.103 0 1.713 1.389 3.102 3.102 3.102.723 0 1.379-.257 1.907-.672.407-1.064.781-2.092 1.125-3.08-.299-1.402-1.541-2.453-3.032-2.453z"/><path d="m486.831 175.797c1.713 0 3.102-1.389 3.102-3.102s-1.389-3.102-3.102-3.102-3.102 1.389-3.102 3.102 1.389 3.102 3.102 3.102z"/><path d="m484.523 190.64c-.107.121-.21.245-.297.381.097-.128.199-.253.297-.381z"/><path d="m474.105 142.318c0 1.713 1.389 3.102 3.102 3.102 1.666 0 3.015-1.316 3.088-2.964l-5.771-1.669c-.259.453-.419.971-.419 1.531z"/><path d="m466.831 149.592c-1.713 0-3.102 1.389-3.102 3.102s1.389 3.102 3.102 3.102 3.102-1.389 3.102-3.102-1.389-3.102-3.102-3.102z"/><path d="m477.207 159.216c-1.713 0-3.102 1.389-3.102 3.103 0 1.713 1.389 3.102 3.102 3.102s3.102-1.389 3.102-3.102c.001-1.714-1.388-3.103-3.102-3.103z"/><path d="m466.831 169.592c-1.713 0-3.102 1.389-3.102 3.102s1.389 3.102 3.102 3.102 3.102-1.389 3.102-3.102-1.389-3.102-3.102-3.102z"/><path d="m477.207 179.216c-1.713 0-3.102 1.389-3.102 3.103 0 1.713 1.389 3.102 3.102 3.102s3.102-1.389 3.102-3.102c.001-1.714-1.388-3.103-3.102-3.103z"/><path d="m466.831 195.797c1.713 0 3.102-1.389 3.102-3.102s-1.389-3.102-3.102-3.102-3.102 1.389-3.102 3.102 1.389 3.102 3.102 3.102z"/><path d="m474.249 201.433c.834-.706 1.637-1.431 2.426-2.164-1.163.202-2.093 1.051-2.426 2.164z"/><path d="m459.412 144.499c.383-.388.657-.879.794-1.424-.261.476-.526.95-.794 1.424z"/><path d="m457.207 159.216c-1.713 0-3.102 1.389-3.102 3.103 0 1.713 1.389 3.102 3.102 3.102s3.102-1.389 3.102-3.102c.001-1.714-1.388-3.103-3.102-3.103z"/><path d="m443.729 172.695c0 1.713 1.389 3.102 3.102 3.102s3.102-1.389 3.102-3.102-1.389-3.102-3.102-3.102c-1.713-.001-3.102 1.388-3.102 3.102z"/><path d="m457.207 179.216c-1.713 0-3.102 1.389-3.102 3.103 0 1.713 1.389 3.102 3.102 3.102s3.102-1.389 3.102-3.102c.001-1.714-1.388-3.103-3.102-3.103z"/><path d="m446.831 195.797c1.713 0 3.102-1.389 3.102-3.102s-1.389-3.102-3.102-3.102-3.102 1.389-3.102 3.102 1.389 3.102 3.102 3.102z"/><path d="m460.31 202.318c0-1.713-1.389-3.103-3.102-3.103-1.568 0-2.851 1.167-3.06 2.678l5.913 1.641c.159-.373.249-.784.249-1.216z"/><path d="m434.105 182.318c0 1.713 1.389 3.102 3.102 3.102s3.102-1.389 3.102-3.102-1.389-3.103-3.102-3.103c-1.713.001-3.102 1.39-3.102 3.103z"/><path d="m429.933 192.695c0-1.713-1.389-3.102-3.102-3.102s-3.102 1.389-3.102 3.102c0 .274.047.534.113.787l5.153 1.431c.578-.564.938-1.348.938-2.218z"/><path d="m284.048 371.347c-.198.409-.32.862-.32 1.347 0 .693.235 1.327.62 1.843l2.111-2.499z"/><path d="m263.729 372.695c0 1.713 1.389 3.102 3.102 3.102s3.102-1.389 3.102-3.102-1.389-3.103-3.102-3.103-3.102 1.389-3.102 3.103z"/><path d="m277.207 379.216c-1.713 0-3.102 1.389-3.102 3.103 0 1.106.584 2.071 1.456 2.62l3.952-4.678c-.568-.637-1.385-1.045-2.306-1.045z"/><path d="m266.831 389.592c-1.713 0-3.102 1.389-3.102 3.103 0 1.573 1.176 2.859 2.694 3.061l3.358-3.975c-.392-1.265-1.557-2.189-2.95-2.189z"/><path d="m257.207 365.42c.945 0 1.78-.431 2.349-1.097l-5.406-1.551c.222 1.496 1.5 2.648 3.057 2.648z"/><path d="m246.831 369.592c-1.713 0-3.102 1.389-3.102 3.103 0 1.713 1.389 3.102 3.102 3.102s3.102-1.389 3.102-3.102c0-1.714-1.389-3.103-3.102-3.103z"/><path d="m257.207 379.216c-1.713 0-3.102 1.389-3.102 3.103 0 1.713 1.389 3.102 3.102 3.102s3.102-1.389 3.102-3.102c.001-1.714-1.388-3.103-3.102-3.103z"/><path d="m246.831 389.592c-1.713 0-3.102 1.389-3.102 3.103 0 1.713 1.389 3.102 3.102 3.102s3.102-1.389 3.102-3.102c0-1.714-1.389-3.103-3.102-3.103z"/><path d="m257.207 399.216c-1.713 0-3.102 1.389-3.102 3.103 0 1.713 1.389 3.102 3.102 3.102.465 0 .902-.109 1.297-.293l1.682-1.991c.072-.262.123-.534.123-.819.001-1.713-1.388-3.102-3.102-3.102z"/><path d="m246.831 415.797c1.713 0 3.102-1.389 3.102-3.102s-1.389-3.103-3.102-3.103-3.102 1.389-3.102 3.103c0 1.713 1.389 3.102 3.102 3.102z"/><path d="m237.207 359.216c-.618 0-1.19.186-1.674.497-.398.474-.795.948-1.192 1.422-.151.365-.236.764-.236 1.183 0 1.713 1.389 3.102 3.102 3.102s3.102-1.389 3.102-3.102c.001-1.713-1.388-3.102-3.102-3.102z"/><path d="m226.831 375.797c1.713 0 3.102-1.389 3.102-3.102 0-1.571-1.172-2.855-2.686-3.061-1.121 1.347-2.237 2.69-3.349 4.028.409 1.237 1.56 2.135 2.933 2.135z"/><path d="m237.207 379.216c-1.713 0-3.102 1.389-3.102 3.103 0 1.713 1.389 3.102 3.102 3.102s3.102-1.389 3.102-3.102c.001-1.714-1.388-3.103-3.102-3.103z"/><path d="m226.831 389.592c-1.713 0-3.102 1.389-3.102 3.103 0 1.713 1.389 3.102 3.102 3.102s3.102-1.389 3.102-3.102c0-1.714-1.389-3.103-3.102-3.103z"/><path d="m237.207 399.216c-1.713 0-3.102 1.389-3.102 3.103 0 1.713 1.389 3.102 3.102 3.102s3.102-1.389 3.102-3.102c.001-1.714-1.388-3.103-3.102-3.103z"/><path d="m226.831 409.592c-1.713 0-3.102 1.389-3.102 3.103 0 1.713 1.389 3.102 3.102 3.102s3.102-1.389 3.102-3.102c0-1.714-1.389-3.103-3.102-3.103z"/><path d="m240.31 422.318c0-1.713-1.389-3.103-3.102-3.103s-3.102 1.389-3.102 3.103c0 .683.228 1.309.602 1.822l3.711 1.035c1.111-.472 1.891-1.573 1.891-2.857z"/><path d="m217.207 385.42c1.713 0 3.102-1.389 3.102-3.102 0-1.095-.571-2.053-1.428-2.605-1.318 1.593-2.622 3.171-3.917 4.74.567.594 1.359.967 2.243.967z"/><path d="m209.933 392.695c0-.583-.17-1.122-.45-1.587-1.248 1.518-2.48 3.017-3.695 4.497.327.117.675.192 1.043.192 1.713 0 3.102-1.389 3.102-3.102z"/><path d="m217.207 399.216c-1.713 0-3.102 1.389-3.102 3.103 0 1.713 1.389 3.102 3.102 3.102s3.102-1.389 3.102-3.102c.001-1.714-1.388-3.103-3.102-3.103z"/><path d="m206.831 409.592c-1.713 0-3.102 1.389-3.102 3.103 0 1.713 1.389 3.102 3.102 3.102s3.102-1.389 3.102-3.102c0-1.714-1.389-3.103-3.102-3.103z"/><path d="m217.207 419.216c-.04 0-.076.01-.115.012l1.842.514c-.494-.332-1.087-.526-1.727-.526z"/><path d="m200.31 402.318c0-.009-.003-.017-.003-.025-.848 1.036-1.683 2.058-2.508 3.067 1.43-.276 2.511-1.531 2.511-3.042z"/></g><path d="m476.886 36.775-1.837-1.837c-22.529-22.53-52.485-34.938-84.347-34.938s-61.817 12.408-84.347 34.939c-.089.089-.173.181-.253.278-.835 1.008-83.922 101.332-125.18 143.921-41.196 42.525-144.6 126.067-145.639 126.905-.11.09-.215.184-.316.285-22.53 22.53-34.939 52.485-34.939 84.347s12.408 61.818 34.939 84.348l1.837 1.837c22.529 22.53 52.486 34.939 84.348 34.939s61.817-12.408 84.347-34.939c.104-.103.202-.212.293-.327.875-1.092 87.938-109.665 124.276-146.953 36.289-37.237 145.363-122.928 146.461-123.79.126-.098.245-.205.358-.318 46.508-46.511 46.508-122.188-.001-168.697zm-164.753 3.68c21.007-20.94 48.901-32.468 78.569-32.468 29.729 0 57.679 11.578 78.701 32.599l1.837 1.837c21.021 21.022 32.599 48.972 32.599 78.7 0 8.189-.883 16.242-2.595 24.054l-222.062-65.411c18.159-21.472 31.515-37.578 32.951-39.311zm-271.667 271.666c.685-.554 3.35-2.711 7.518-6.112l57.529 16.995c.986 11.382 5.817 22.491 14.509 31.182l37.274 37.273c9.498 9.499 22.128 14.73 35.561 14.73 13.434 0 26.063-5.231 35.562-14.73l15.451-15.45c3.026-3.025 5.581-6.345 7.673-9.865l28.013 8.275c-13.456 15.84-27.389 32.609-39.787 47.68l-227.269-62.861c5.157-17.612 14.655-33.758 27.966-47.117zm159.231 159.243c-21.004 20.924-48.89 32.446-78.546 32.446-29.729 0-57.679-11.578-78.701-32.599l-1.837-1.837c-21.021-21.022-32.599-48.972-32.599-78.701 0-8.064.858-15.994 2.519-23.693l223.688 61.872c-18.778 22.901-32.947 40.547-34.524 42.512zm124.651-147.361c-10.212 10.479-24.371 26.509-39.496 44.199l.148-.501-29.907-8.835c7.079-18.058 3.345-39.411-11.224-53.98l-37.273-37.272c-19.609-19.609-51.515-19.609-71.123 0l-15.45 15.45c-8.8 8.799-13.638 20.076-14.539 31.606l-50.021-14.777c30.544-25.059 99.263-82.235 131.196-115.198 10.479-10.817 23.629-25.323 37.442-40.977l-.013.048 34.783 9.453c-7.577 18.249-3.965 40.087 10.853 54.904l37.272 37.273c9.804 9.804 22.683 14.707 35.562 14.707s25.757-4.903 35.562-14.707l15.45-15.45c9.947-9.947 14.839-23.058 14.694-36.123l52.484 14.264c-28.737 22.827-106.613 85.351-136.4 115.916zm147.058-124.348c-.397.312-1.387 1.091-2.88 2.27l-61.077-16.6c-1.765-9.715-6.386-19.008-13.881-26.503l-37.273-37.273c-19.609-19.609-51.515-19.609-71.123 0l-15.449 15.451c-2.764 2.763-5.123 5.778-7.108 8.961l-32.677-8.881c14.911-17.011 30.255-34.921 43.6-50.651l225.712 66.486c-5.177 17.465-14.633 33.475-27.844 46.74z" fill="#31373d"/></g></svg>