<svg id="Capa_1" enable-background="new 0 0 511.846 511.846" height="512" viewBox="0 0 511.846 511.846" width="512" xmlns="http://www.w3.org/2000/svg"><g><path d="m175.348 335.681c-38.095-38.095-98.339-40.543-139.28-7.343-4.563 3.7-4.987 10.504-.833 14.657l51.957 51.957-77.608 77.607c-7.47 7.469-7.47 19.58 0 27.049l1.277 1.277c7.469 7.47 19.58 7.47 27.049 0l77.608-77.607 52.517 52.516c4.154 4.154 10.957 3.73 14.657-.834 33.199-40.941 30.751-101.184-7.344-139.279z" fill="#eaa895"/><g fill="#f9fbfc"><path d="m200.74 389.861c0 1.713 1.389 3.102 3.102 3.102.243 0 .477-.034.704-.087-.325-2.033-.703-4.058-1.148-6.072-1.501.216-2.658 1.496-2.658 3.057z"/><path d="m200.74 409.861c0 1.713 1.389 3.102 3.102 3.102.757 0 1.441-.281 1.979-.732.042-1.575.049-3.149.021-4.724-.542-.46-1.234-.749-2-.749-1.713 0-3.102 1.389-3.102 3.103z"/><path d="m203.842 426.758c-1.713 0-3.102 1.389-3.102 3.102 0 1.492 1.055 2.737 2.458 3.033.464-2.016.868-4.043 1.211-6.079-.184-.033-.373-.056-.567-.056z"/><path d="m180.74 349.861c0 1.713 1.389 3.102 3.102 3.102s3.102-1.389 3.102-3.102c0-.145-.023-.284-.043-.424-.55-.781-1.092-1.565-1.666-2.334-.421-.213-.889-.345-1.393-.345-1.713 0-3.102 1.389-3.102 3.103z"/><path d="m194.219 362.586c.187 0 .368-.023.547-.055-.878-1.745-1.817-3.465-2.8-5.169-.523.556-.849 1.299-.849 2.122-.001 1.714 1.388 3.102 3.102 3.102z"/><path d="m183.842 366.758c-1.713 0-3.102 1.389-3.102 3.102s1.389 3.102 3.102 3.102 3.102-1.389 3.102-3.102-1.388-3.102-3.102-3.102z"/><path d="m194.219 376.382c-1.713 0-3.102 1.389-3.102 3.103 0 1.713 1.389 3.102 3.102 3.102s3.102-1.389 3.102-3.102c0-1.714-1.389-3.103-3.102-3.103z"/><path d="m183.842 386.758c-1.713 0-3.102 1.389-3.102 3.102s1.389 3.102 3.102 3.102 3.102-1.389 3.102-3.102-1.388-3.102-3.102-3.102z"/><path d="m194.219 396.382c-1.713 0-3.102 1.389-3.102 3.103 0 1.713 1.389 3.102 3.102 3.102s3.102-1.389 3.102-3.102c0-1.714-1.389-3.103-3.102-3.103z"/><path d="m183.842 406.758c-1.713 0-3.102 1.389-3.102 3.102s1.389 3.102 3.102 3.102 3.102-1.389 3.102-3.102-1.388-3.102-3.102-3.102z"/><path d="m194.219 416.382c-1.713 0-3.102 1.389-3.102 3.103 0 1.713 1.389 3.102 3.102 3.102s3.102-1.389 3.102-3.102c0-1.714-1.389-3.103-3.102-3.103z"/><path d="m183.842 426.758c-1.713 0-3.102 1.389-3.102 3.102s1.389 3.102 3.102 3.102 3.102-1.389 3.102-3.102-1.388-3.102-3.102-3.102z"/><path d="m194.219 436.382c-1.713 0-3.102 1.389-3.102 3.103 0 1.713 1.389 3.102 3.102 3.102s3.102-1.389 3.102-3.102c0-1.714-1.389-3.103-3.102-3.103z"/><path d="m183.842 446.758c-1.713 0-3.102 1.389-3.102 3.102s1.389 3.102 3.102 3.102 3.102-1.389 3.102-3.102-1.388-3.102-3.102-3.102z"/><path d="m191.116 459.484c0 .789.304 1.502.79 2.05.973-1.682 1.892-3.385 2.763-5.106-.148-.022-.296-.046-.451-.046-1.713 0-3.102 1.389-3.102 3.102z"/><path d="m183.842 466.758c-1.713 0-3.102 1.389-3.102 3.102s1.389 3.102 3.102 3.102c.146 0 .285-.023.426-.043.903-1.172 1.779-2.358 2.626-3.559-.241-1.473-1.51-2.602-3.052-2.602z"/><path d="m165.256 332.607c.999-.516 1.689-1.545 1.689-2.747 0-1.713-1.389-3.102-3.102-3.102-.58 0-1.117.169-1.581.447 1.054 1.777 2.054 3.578 2.994 5.402z"/><path d="m174.219 336.382c-1.713 0-3.102 1.389-3.102 3.103 0 1.713 1.389 3.102 3.102 3.102s3.102-1.389 3.102-3.102c0-1.714-1.389-3.103-3.102-3.103z"/><path d="m174.219 356.382c-.061 0-.118.015-.177.018.468 1.988.862 3.989 1.211 5.997 1.202-.427 2.068-1.564 2.068-2.912 0-1.714-1.389-3.103-3.102-3.103z"/><path d="m177.321 379.484c0-.65-.201-1.252-.543-1.751.029 1.146.048 2.292.039 3.438.316-.486.504-1.064.504-1.687z"/><path d="m177.321 399.484c0-1.239-.732-2.301-1.782-2.797-.311 1.968-.688 3.927-1.111 5.878 1.614-.109 2.893-1.439 2.893-3.081z"/><path d="m174.219 416.382c-1.713 0-3.102 1.389-3.102 3.103 0 1.713 1.389 3.102 3.102 3.102s3.102-1.389 3.102-3.102c0-1.714-1.389-3.103-3.102-3.103z"/><path d="m163.842 432.963c1.713 0 3.102-1.389 3.102-3.102 0-1.037-.514-1.95-1.295-2.513-.92 1.821-1.897 3.621-2.93 5.397.349.136.726.218 1.123.218z"/><path d="m174.219 436.382c-1.713 0-3.102 1.389-3.102 3.103 0 1.713 1.389 3.102 3.102 3.102s3.102-1.389 3.102-3.102c0-1.714-1.389-3.103-3.102-3.103z"/><path d="m163.842 452.963c1.713 0 3.102-1.389 3.102-3.102s-1.389-3.102-3.102-3.102-3.102 1.389-3.102 3.102 1.389 3.102 3.102 3.102z"/><path d="m174.219 462.586c1.713 0 3.102-1.389 3.102-3.102s-1.389-3.103-3.102-3.103-3.102 1.389-3.102 3.103c-.001 1.714 1.388 3.102 3.102 3.102z"/><path d="m166.944 469.861c0-1.713-1.389-3.102-3.102-3.102-1.31 0-2.425.815-2.88 1.964l4.018 4.019c1.149-.456 1.964-1.571 1.964-2.881z"/><path d="m177.119 478.411c-.438-1.182-1.566-2.029-2.9-2.029-1.185 0-2.203.672-2.725 1.649 1.806.682 3.764.796 5.625.38z"/><path d="m146.944 449.861c0-.106-.021-.206-.031-.31-1.97.202-3.986-.188-5.772-1.188-.065.117-.129.233-.179.359l4.018 4.019c1.149-.455 1.964-1.57 1.964-2.88z"/><path d="m157.321 459.484c0-1.713-1.389-3.103-3.102-3.103-1.524 0-2.785 1.102-3.047 2.55l3.599 3.599c1.449-.261 2.55-1.522 2.55-3.046z"/></g><path d="m502.261 472.559-77.608-77.608 52.079-52.079c4.02-4.02 3.77-10.674-.632-14.272-40.947-33.476-101.408-31.116-139.604 7.079-38.196 38.196-40.556 98.657-7.079 139.604 3.598 4.401 10.252 4.652 14.271.632l52.638-52.638 77.608 77.607c7.469 7.47 19.58 7.47 27.049 0l1.277-1.277c7.471-7.468 7.471-19.578.001-27.048z" fill="#e9c278"/><g fill="#f9fbfc"><path d="m363.842 452.963c1.713 0 3.102-1.389 3.102-3.102 0-.087-.019-.17-.026-.255-1.957.081-3.929-.426-5.641-1.488-.339.497-.537 1.097-.537 1.744 0 1.712 1.389 3.101 3.102 3.101z"/><path d="m343.842 332.963c1.713 0 3.102-1.389 3.102-3.102 0-.848-.342-1.614-.892-2.174-1.605 1.272-3.182 2.595-4.727 3.976.563.784 1.478 1.3 2.517 1.3z"/><path d="m343.842 426.758c-1.713 0-3.102 1.389-3.102 3.102s1.389 3.102 3.102 3.102 3.102-1.389 3.102-3.102-1.388-3.102-3.102-3.102z"/><path d="m351.116 439.484c0 1.713 1.389 3.102 3.102 3.102.599 0 1.153-.177 1.627-.471-1.228-1.666-2.39-3.364-3.506-5.084-.738.567-1.223 1.45-1.223 2.453z"/><path d="m343.842 446.758c-1.713 0-3.102 1.389-3.102 3.102s1.389 3.102 3.102 3.102 3.102-1.389 3.102-3.102-1.388-3.102-3.102-3.102z"/><path d="m351.116 459.484c0 1.713 1.389 3.102 3.102 3.102s3.102-1.389 3.102-3.102-1.389-3.103-3.102-3.103c-1.713.001-3.102 1.39-3.102 3.103z"/><path d="m343.842 472.963c1.713 0 3.102-1.389 3.102-3.102s-1.389-3.102-3.102-3.102-3.102 1.389-3.102 3.102 1.389 3.102 3.102 3.102z"/><path d="m334.219 342.586c1.713 0 3.102-1.389 3.102-3.102 0-1.088-.562-2.041-1.408-2.595-1.426 1.472-2.797 2.976-4.119 4.508.568.719 1.437 1.189 2.425 1.189z"/><path d="m323.842 352.963c1.713 0 3.102-1.389 3.102-3.102 0-.632-.191-1.218-.515-1.708-1.132 1.555-2.211 3.135-3.246 4.736.213.046.432.074.659.074z"/><path d="m334.219 362.586c1.713 0 3.102-1.389 3.102-3.102s-1.389-3.103-3.102-3.103-3.102 1.389-3.102 3.103c-.001 1.714 1.388 3.102 3.102 3.102z"/><path d="m323.842 366.758c-1.713 0-3.102 1.389-3.102 3.102s1.389 3.102 3.102 3.102 3.102-1.389 3.102-3.102-1.388-3.102-3.102-3.102z"/><path d="m334.219 376.382c-1.713 0-3.102 1.389-3.102 3.103 0 1.713 1.389 3.102 3.102 3.102.508 0 .981-.134 1.405-.351-.033-1.829-.033-3.658.03-5.486-.431-.228-.915-.368-1.435-.368z"/><path d="m323.842 386.758c-1.713 0-3.102 1.389-3.102 3.102s1.389 3.102 3.102 3.102 3.102-1.389 3.102-3.102-1.388-3.102-3.102-3.102z"/><path d="m334.219 396.382c-1.713 0-3.102 1.389-3.102 3.103 0 1.713 1.389 3.102 3.102 3.102s3.102-1.389 3.102-3.102c0-.195-.023-.385-.057-.57-.006-.03-.011-.06-.016-.09-.304-1.396-1.543-2.443-3.029-2.443z"/><path d="m323.842 406.758c-1.713 0-3.102 1.389-3.102 3.102s1.389 3.102 3.102 3.102 3.102-1.389 3.102-3.102-1.388-3.102-3.102-3.102z"/><path d="m334.219 416.382c-1.713 0-3.102 1.389-3.102 3.103 0 1.713 1.389 3.102 3.102 3.102s3.102-1.389 3.102-3.102c0-1.714-1.389-3.103-3.102-3.103z"/><path d="m323.842 426.758c-1.713 0-3.102 1.389-3.102 3.102s1.389 3.102 3.102 3.102 3.102-1.389 3.102-3.102-1.388-3.102-3.102-3.102z"/><path d="m334.219 436.382c-1.713 0-3.102 1.389-3.102 3.103 0 1.713 1.389 3.102 3.102 3.102s3.102-1.389 3.102-3.102c0-1.714-1.389-3.103-3.102-3.103z"/><path d="m323.842 446.758c-1.713 0-3.102 1.389-3.102 3.102s1.389 3.102 3.102 3.102 3.102-1.389 3.102-3.102-1.388-3.102-3.102-3.102z"/><path d="m334.219 462.586c1.713 0 3.102-1.389 3.102-3.102s-1.389-3.103-3.102-3.103-3.102 1.389-3.102 3.103c-.001 1.714 1.388 3.102 3.102 3.102z"/><path d="m323.842 466.758c-.04 0-.076.01-.115.012.955 1.446 1.943 2.876 2.978 4.284.153-.367.239-.77.239-1.193 0-1.714-1.388-3.103-3.102-3.103z"/><path d="m334.219 476.382c-.776 0-1.477.295-2.021.766 1.523.952 3.251 1.454 4.995 1.5-.367-1.304-1.553-2.266-2.974-2.266z"/><path d="m314.219 376.382c-1.713 0-3.102 1.389-3.102 3.103 0 1.713 1.389 3.102 3.102 3.102s3.102-1.389 3.102-3.102c0-1.714-1.389-3.103-3.102-3.103z"/><path d="m314.219 396.382c-1.713 0-3.102 1.389-3.102 3.103 0 1.713 1.389 3.102 3.102 3.102s3.102-1.389 3.102-3.102c0-1.714-1.389-3.103-3.102-3.103z"/><path d="m306.549 408.373c-.009.975.01 1.95.027 2.925.227-.432.368-.915.368-1.437 0-.543-.151-1.045-.395-1.488z"/><path d="m314.219 416.382c-1.713 0-3.102 1.389-3.102 3.103 0 1.713 1.389 3.102 3.102 3.102s3.102-1.389 3.102-3.102c0-1.714-1.389-3.103-3.102-3.103z"/><path d="m314.219 436.382c-1.713 0-3.102 1.389-3.102 3.103 0 1.713 1.389 3.102 3.102 3.102s3.102-1.389 3.102-3.102c0-1.714-1.389-3.103-3.102-3.103z"/></g><path d="m505.085 469.736-74.784-74.784 49.255-49.255c2.738-2.738 4.197-6.526 4.003-10.394-.191-3.818-1.988-7.387-4.93-9.792-20.661-16.89-46.773-25.496-73.55-24.234-25.778 1.216-50.095 11.535-68.871 29.137l-74.642-74.75 247.126-247.484c1.559-1.56 1.557-4.089-.004-5.647-1.559-1.558-4.088-1.557-5.647.004l-247.118 247.475-247.119-247.475c-1.558-1.56-4.087-1.562-5.647-.004-1.56 1.559-1.562 4.087-.004 5.647l247.127 247.482-74.643 74.75c-18.722-17.551-42.966-27.867-68.665-29.128-26.685-1.307-52.757 7.197-73.419 23.951-3.075 2.494-4.957 6.181-5.161 10.116-.203 3.894 1.262 7.708 4.02 10.466l49.133 49.134-74.784 74.785c-9.014 9.014-9.014 23.682 0 32.697l1.277 1.276c4.366 4.367 10.172 6.772 16.348 6.772 6.175 0 11.982-2.405 16.348-6.771l74.784-74.784 49.693 49.693c2.588 2.589 6.109 4.038 9.751 4.038.238 0 .477-.006.715-.018 3.936-.205 7.623-2.087 10.116-5.162 16.755-20.661 25.262-46.735 23.951-73.418-1.245-25.384-11.322-49.349-28.482-67.975l74.662-74.769 74.662 74.769c-17.21 18.68-27.291 42.717-28.493 68.18-1.263 26.769 7.344 52.889 24.235 73.55 2.405 2.942 5.974 4.74 9.792 4.931.228.012.455.017.683.017 3.628 0 7.135-1.444 9.71-4.02l49.815-49.815 74.785 74.784c4.366 4.367 10.172 6.772 16.348 6.772 6.175 0 11.982-2.405 16.348-6.771l1.277-1.278c9.013-9.016 9.013-23.684-.001-32.698zm-469.998 28.326c-2.859 2.858-6.659 4.432-10.701 4.432s-7.842-1.574-10.701-4.433l-1.277-1.276c-5.899-5.901-5.899-15.501 0-21.402l15.356-15.356 22.679 22.678zm21.003-21.004-22.679-22.678 23.577-23.577 22.679 22.678zm29.225-29.224-22.678-22.678 24.556-24.556 22.678 22.678zm94.274 24.612c-1.086 1.34-2.624 2.127-4.328 2.216-1.664.081-3.227-.515-4.404-1.691l-132.799-132.8c-1.177-1.177-1.777-2.741-1.69-4.403.089-1.705.875-3.242 2.216-4.329 39.942-32.389 97.523-29.352 133.941 7.065 36.417 36.418 39.454 94 7.064 133.942zm161.277.646c-1.145 1.145-2.741 1.749-4.348 1.674-1.59-.08-3.013-.793-4.008-2.009-32.68-39.973-29.752-97.69 6.811-134.253 19.567-19.567 45.189-29.5 70.911-29.5 22.342 0 44.76 7.497 63.342 22.688 1.217.994 1.93 2.418 2.009 4.009.081 1.618-.528 3.203-1.673 4.347zm61.109-49.815 22.679-22.678 24.556 24.556-22.678 22.678zm30.204 30.203 22.678-22.678 23.578 23.578-22.679 22.678zm67.259 43.304-1.277 1.278c-2.859 2.858-6.659 4.432-10.701 4.432s-7.842-1.574-10.701-4.432l-15.356-15.356 22.679-22.679 15.356 15.356c5.9 5.901 5.9 15.501 0 21.401z" fill="#31373d"/></g></svg>