<svg id="Capa_1" enable-background="new 0 0 511.722 511.722" height="512" viewBox="0 0 511.722 511.722" width="512" xmlns="http://www.w3.org/2000/svg"><g><path d="m99.343 4.019h46.036v287.181h-46.036z" fill="#eaa895"/><path d="m366.342 4.019h46.037v287.181h-46.037z" fill="#eaa895"/><g fill="#f9fbfc"><path d="m130.77 271.505c.672-.572 1.107-1.413 1.107-2.365 0-1.722-1.396-3.118-3.117-3.118-1.722 0-3.118 1.396-3.118 3.118 0 .833.331 1.585.863 2.144-1.376-.047-2.756-.08-4.144-.08-4.095 0-8.141.209-12.129.615.921-.542 1.547-1.533 1.547-2.679 0-1.722-1.396-3.118-3.118-3.118s-3.117 1.396-3.117 3.118c0 1.399.928 2.569 2.197 2.963-58.408 7.203-103.629 56.993-103.629 117.35 0 65.308 52.942 118.249 118.249 118.249s118.249-52.942 118.249-118.249c.001-62.48-48.458-113.635-109.84-117.948zm-8.409 197.976c-44.198 0-80.027-35.83-80.027-80.028s35.83-80.027 80.027-80.027 80.027 35.83 80.027 80.027c.001 44.198-35.829 80.028-80.027 80.028z"/><path d="m138.43 242.489c1.722 0 3.117-1.396 3.117-3.118s-1.396-3.117-3.117-3.117c-1.722 0-3.118 1.396-3.118 3.117.001 1.723 1.397 3.118 3.118 3.118z"/><path d="m138.43 262.587c1.722 0 3.117-1.396 3.117-3.118s-1.396-3.117-3.117-3.117c-1.722 0-3.118 1.396-3.118 3.117.001 1.722 1.397 3.118 3.118 3.118z"/><path d="m128.76 232.062c1.722 0 3.117-1.396 3.117-3.118s-1.396-3.117-3.117-3.117c-1.722 0-3.118 1.396-3.118 3.117 0 1.722 1.396 3.118 3.118 3.118z"/><path d="m118.332 242.489c1.722 0 3.117-1.396 3.117-3.118s-1.396-3.117-3.117-3.117-3.117 1.396-3.117 3.117c0 1.723 1.396 3.118 3.117 3.118z"/><path d="m128.76 252.16c1.722 0 3.117-1.396 3.117-3.118s-1.396-3.118-3.117-3.118c-1.722 0-3.118 1.396-3.118 3.118s1.396 3.118 3.118 3.118z"/><path d="m118.332 262.587c1.722 0 3.117-1.396 3.117-3.118s-1.396-3.117-3.117-3.117-3.117 1.396-3.117 3.117c0 1.722 1.396 3.118 3.117 3.118z"/><path d="m108.662 232.062c1.722 0 3.118-1.396 3.118-3.118s-1.396-3.117-3.118-3.117-3.117 1.396-3.117 3.117c-.001 1.722 1.395 3.118 3.117 3.118z"/><path d="m101.352 239.371c0-1.33-.837-2.457-2.009-2.905v5.81c1.172-.447 2.009-1.574 2.009-2.905z"/><path d="m108.662 252.16c1.722 0 3.118-1.396 3.118-3.118s-1.396-3.118-3.118-3.118-3.117 1.396-3.117 3.118c-.001 1.722 1.395 3.118 3.117 3.118z"/><path d="m101.352 259.47c0-1.33-.837-2.457-2.009-2.905v5.81c1.172-.448 2.009-1.575 2.009-2.905z"/><path d="m405.429 242.489c1.722 0 3.117-1.396 3.117-3.118s-1.396-3.117-3.117-3.117c-1.722 0-3.117 1.396-3.117 3.117-.001 1.723 1.395 3.118 3.117 3.118z"/><path d="m405.429 262.587c1.722 0 3.117-1.396 3.117-3.118s-1.396-3.117-3.117-3.117c-1.722 0-3.117 1.396-3.117 3.117-.001 1.722 1.395 3.118 3.117 3.118z"/><path d="m395.758 232.062c1.722 0 3.117-1.396 3.117-3.118s-1.396-3.117-3.117-3.117c-1.722 0-3.118 1.396-3.118 3.117.001 1.722 1.397 3.118 3.118 3.118z"/><path d="m385.331 242.489c1.722 0 3.117-1.396 3.117-3.118s-1.396-3.117-3.117-3.117-3.117 1.396-3.117 3.117c-.001 1.723 1.395 3.118 3.117 3.118z"/><path d="m395.758 252.16c1.722 0 3.117-1.396 3.117-3.118s-1.396-3.118-3.117-3.118c-1.722 0-3.118 1.396-3.118 3.118.001 1.722 1.397 3.118 3.118 3.118z"/><path d="m385.331 262.587c1.722 0 3.117-1.396 3.117-3.118s-1.396-3.117-3.117-3.117-3.117 1.396-3.117 3.117c-.001 1.722 1.395 3.118 3.117 3.118z"/><path d="m375.66 232.062c1.722 0 3.117-1.396 3.117-3.118s-1.396-3.117-3.117-3.117c-1.722 0-3.118 1.396-3.118 3.117.001 1.722 1.397 3.118 3.118 3.118z"/><path d="m368.35 239.371c0-1.33-.836-2.456-2.008-2.905v5.81c1.172-.448 2.008-1.575 2.008-2.905z"/><path d="m375.66 252.16c1.722 0 3.117-1.396 3.117-3.118s-1.396-3.118-3.117-3.118c-1.722 0-3.118 1.396-3.118 3.118.001 1.722 1.397 3.118 3.118 3.118z"/><path d="m368.35 259.47c0-1.33-.836-2.457-2.008-2.905v5.81c1.172-.448 2.008-1.576 2.008-2.905z"/><path d="m397.768 271.505c.672-.571 1.107-1.413 1.107-2.364 0-1.722-1.396-3.118-3.117-3.118-1.722 0-3.118 1.396-3.118 3.118 0 .833.331 1.585.863 2.144-1.376-.047-2.756-.08-4.144-.08-4.095 0-8.142.209-12.13.615.922-.542 1.547-1.533 1.547-2.679 0-1.722-1.396-3.118-3.117-3.118-1.722 0-3.118 1.396-3.118 3.118 0 1.399.928 2.569 2.197 2.963-58.408 7.203-103.629 56.993-103.629 117.349 0 65.308 52.942 118.249 118.249 118.249s118.249-52.942 118.249-118.249c.003-62.48-48.456-113.635-109.839-117.948zm-8.408 197.976c-44.198 0-80.027-35.83-80.027-80.028s35.83-80.027 80.027-80.027c44.198 0 80.027 35.83 80.027 80.027.001 44.198-35.829 80.028-80.027 80.028z"/></g><g fill="#31373d"><path d="m149.399 270.203v-266.183c0-2.22-1.8-4.02-4.02-4.02h-46.036c-2.22 0-4.02 1.8-4.02 4.02v266.183c-54.452 12.339-95.231 61.12-95.231 119.251 0 67.418 54.85 122.268 122.269 122.268s122.269-54.85 122.269-122.268c.001-58.132-40.778-106.912-95.231-119.251zm-46.036-262.164h37.997v260.624c-6.193-.97-12.537-1.478-18.998-1.478s-12.806.508-18.999 1.478zm18.999 495.644c-62.986 0-114.23-51.243-114.23-114.229 0-62.987 51.244-114.23 114.23-114.23 62.987 0 114.23 51.243 114.23 114.23-.001 62.986-51.244 114.229-114.23 114.229z"/><path d="m122.362 473.5c-46.344 0-84.047-37.703-84.047-84.047s37.704-84.048 84.047-84.048c46.344 0 84.047 37.704 84.047 84.048-.001 46.344-37.704 84.047-84.047 84.047zm0-160.055c-41.911 0-76.008 34.097-76.008 76.008s34.097 76.008 76.008 76.008 76.008-34.097 76.008-76.008c-.001-41.911-34.098-76.008-76.008-76.008z"/><path d="m416.398 270.203v-266.183c0-2.22-1.8-4.02-4.02-4.02h-46.037c-2.22 0-4.02 1.8-4.02 4.02v266.183c-54.452 12.339-95.231 61.12-95.231 119.251 0 67.418 54.85 122.268 122.269 122.268s122.269-54.85 122.269-122.268c.001-58.132-40.777-106.912-95.23-119.251zm-46.036-262.164h37.997v260.624c-6.193-.97-12.537-1.478-18.998-1.478s-12.806.508-18.999 1.478zm18.999 495.644c-62.986 0-114.23-51.243-114.23-114.229 0-62.987 51.244-114.23 114.23-114.23s114.23 51.243 114.23 114.23c-.001 62.986-51.244 114.229-114.23 114.229z"/><path d="m389.361 473.5c-46.344 0-84.047-37.703-84.047-84.047s37.703-84.048 84.047-84.048 84.047 37.704 84.047 84.048c-.001 46.344-37.704 84.047-84.047 84.047zm0-160.055c-41.911 0-76.008 34.097-76.008 76.008s34.097 76.008 76.008 76.008c41.91 0 76.008-34.097 76.008-76.008-.001-41.911-34.098-76.008-76.008-76.008z"/></g></g></svg>