<svg id="Capa_1" enable-background="new 0 0 511.631 511.631" height="512" viewBox="0 0 511.631 511.631" width="512" xmlns="http://www.w3.org/2000/svg"><g><circle cx="255.815" cy="255.816" fill="#f9fbfc" r="251.832"/><g fill="#eaa895"><path d="m494.96 183.506c-1.713 0-3.102 1.389-3.102 3.102s1.389 3.102 3.102 3.102c1.667 0 3.017-1.318 3.089-2.967-.182-.639-.366-1.277-.553-1.914-.561-.798-1.486-1.323-2.536-1.323z"/><path d="m494.96 203.506c-1.713 0-3.102 1.389-3.102 3.102s1.389 3.102 3.102 3.102 3.102-1.389 3.102-3.102-1.389-3.102-3.102-3.102z"/><path d="m502.234 216.232c0 1.602 1.219 2.905 2.777 3.069-.287-1.976-.59-3.945-.923-5.906-1.09.481-1.854 1.568-1.854 2.837z"/><path d="m494.96 223.506c-1.713 0-3.102 1.389-3.102 3.102s1.389 3.102 3.102 3.102 3.102-1.389 3.102-3.102-1.389-3.102-3.102-3.102z"/><path d="m505.337 233.129c-1.713 0-3.102 1.389-3.102 3.103 0 1.713 1.389 3.102 3.102 3.102.644 0 1.242-.197 1.738-.533-.12-1.794-.257-3.582-.414-5.365-.403-.191-.849-.307-1.324-.307z"/><path d="m494.96 243.506c-1.713 0-3.102 1.389-3.102 3.102s1.389 3.102 3.102 3.102 3.102-1.389 3.102-3.102-1.389-3.102-3.102-3.102z"/><path d="m505.337 253.129c-1.713 0-3.102 1.389-3.102 3.103 0 1.713 1.389 3.102 3.102 3.102.905 0 1.712-.394 2.279-1.012.008-.836.032-1.668.032-2.506 0-.551-.009-1.101-.013-1.651-.568-.631-1.383-1.036-2.298-1.036z"/><path d="m494.96 263.506c-1.713 0-3.102 1.389-3.102 3.103s1.389 3.102 3.102 3.102 3.102-1.389 3.102-3.102-1.389-3.103-3.102-3.103z"/><path d="m502.234 276.232c0 1.713 1.389 3.102 3.102 3.102.438 0 .854-.093 1.231-.257.166-1.812.317-3.628.444-5.45-.484-.312-1.057-.498-1.676-.498-1.712 0-3.101 1.39-3.101 3.103z"/><path d="m494.96 283.506c-1.713 0-3.102 1.389-3.102 3.103s1.389 3.102 3.102 3.102 3.102-1.389 3.102-3.102-1.389-3.103-3.102-3.103z"/><path d="m502.234 296.232c0 1.211.701 2.248 1.712 2.759.334-1.932.649-3.87.938-5.816-1.497.22-2.65 1.498-2.65 3.057z"/><path d="m494.96 303.506c-1.713 0-3.102 1.389-3.102 3.103s1.389 3.102 3.102 3.102 3.102-1.389 3.102-3.102-1.389-3.103-3.102-3.103z"/><path d="m494.96 323.506c-1.713 0-3.102 1.389-3.102 3.103s1.389 3.102 3.102 3.102c.694 0 1.329-.236 1.845-.621.359-1.181.714-2.362 1.056-3.55-.436-1.185-1.565-2.034-2.901-2.034z"/><path d="m473.666 129.42c-.589-1.013-1.184-2.021-1.786-3.025-.005.072-.022.141-.022.214 0 1.249.743 2.319 1.808 2.811z"/><path d="m474.96 143.506c-1.713 0-3.102 1.389-3.102 3.102s1.389 3.102 3.102 3.102 3.102-1.389 3.102-3.102-1.389-3.102-3.102-3.102z"/><path d="m482.234 156.232c0 1.713 1.389 3.102 3.102 3.102 1.075 0 2.021-.547 2.578-1.377-.676-1.6-1.365-3.193-2.072-4.776-.165-.027-.332-.051-.505-.051-1.714-.001-3.103 1.389-3.103 3.102z"/><path d="m474.96 163.506c-1.713 0-3.102 1.389-3.102 3.102s1.389 3.102 3.102 3.102 3.102-1.389 3.102-3.102-1.389-3.102-3.102-3.102z"/><path d="m485.337 173.129c-1.713 0-3.102 1.389-3.102 3.103 0 1.713 1.389 3.102 3.102 3.102s3.102-1.389 3.102-3.102-1.389-3.103-3.102-3.103z"/><path d="m474.96 183.506c-1.713 0-3.102 1.389-3.102 3.102s1.389 3.102 3.102 3.102 3.102-1.389 3.102-3.102-1.389-3.102-3.102-3.102z"/><path d="m485.337 193.129c-1.713 0-3.102 1.389-3.102 3.103 0 1.713 1.389 3.102 3.102 3.102s3.102-1.389 3.102-3.102-1.389-3.103-3.102-3.103z"/><path d="m474.96 203.506c-1.713 0-3.102 1.389-3.102 3.102s1.389 3.102 3.102 3.102 3.102-1.389 3.102-3.102-1.389-3.102-3.102-3.102z"/><path d="m485.337 213.129c-1.713 0-3.102 1.389-3.102 3.103 0 1.713 1.389 3.102 3.102 3.102s3.102-1.389 3.102-3.102-1.389-3.103-3.102-3.103z"/><path d="m474.96 223.506c-1.713 0-3.102 1.389-3.102 3.102s1.389 3.102 3.102 3.102 3.102-1.389 3.102-3.102-1.389-3.102-3.102-3.102z"/><path d="m485.337 233.129c-1.713 0-3.102 1.389-3.102 3.103 0 1.713 1.389 3.102 3.102 3.102s3.102-1.389 3.102-3.102-1.389-3.103-3.102-3.103z"/><path d="m474.96 243.506c-1.713 0-3.102 1.389-3.102 3.102s1.389 3.102 3.102 3.102 3.102-1.389 3.102-3.102-1.389-3.102-3.102-3.102z"/><path d="m485.337 253.129c-1.713 0-3.102 1.389-3.102 3.103 0 1.713 1.389 3.102 3.102 3.102s3.102-1.389 3.102-3.102-1.389-3.103-3.102-3.103z"/><path d="m474.96 263.506c-1.713 0-3.102 1.389-3.102 3.103s1.389 3.102 3.102 3.102 3.102-1.389 3.102-3.102-1.389-3.103-3.102-3.103z"/><path d="m485.337 273.129c-1.713 0-3.102 1.389-3.102 3.103 0 1.713 1.389 3.102 3.102 3.102s3.102-1.389 3.102-3.102-1.389-3.103-3.102-3.103z"/><path d="m474.96 283.506c-1.713 0-3.102 1.389-3.102 3.103s1.389 3.102 3.102 3.102 3.102-1.389 3.102-3.102-1.389-3.103-3.102-3.103z"/><path d="m485.337 293.129c-1.713 0-3.102 1.389-3.102 3.103 0 1.713 1.389 3.102 3.102 3.102s3.102-1.389 3.102-3.102-1.389-3.103-3.102-3.103z"/><path d="m474.96 303.506c-1.713 0-3.102 1.389-3.102 3.103s1.389 3.102 3.102 3.102 3.102-1.389 3.102-3.102-1.389-3.103-3.102-3.103z"/><path d="m485.337 313.129c-1.713 0-3.102 1.389-3.102 3.103 0 1.713 1.389 3.102 3.102 3.102s3.102-1.389 3.102-3.102-1.389-3.103-3.102-3.103z"/><path d="m474.96 323.506c-1.713 0-3.102 1.389-3.102 3.103s1.389 3.102 3.102 3.102 3.102-1.389 3.102-3.102-1.389-3.103-3.102-3.103z"/><path d="m485.337 333.129c-1.713 0-3.102 1.389-3.102 3.103 0 1.713 1.389 3.102 3.102 3.102s3.102-1.389 3.102-3.102-1.389-3.103-3.102-3.103z"/><path d="m474.96 343.506c-1.713 0-3.102 1.389-3.102 3.103s1.389 3.102 3.102 3.102 3.102-1.389 3.102-3.102-1.389-3.103-3.102-3.103z"/><path d="m485.337 353.129c-1.713 0-3.102 1.389-3.102 3.103 0 1.713 1.389 3.102 3.102 3.102.042 0 .081-.011.123-.012.762-1.688 1.503-3.386 2.228-5.093-.57-.668-1.406-1.1-2.351-1.1z"/><path d="m474.96 363.506c-1.713 0-3.102 1.389-3.102 3.103s1.389 3.102 3.102 3.102 3.102-1.389 3.102-3.102-1.389-3.103-3.102-3.103z"/><path d="m451.858 106.608c0 1.713 1.389 3.102 3.102 3.102s3.102-1.389 3.102-3.102c0-.409-.083-.796-.227-1.154-.316-.424-.637-.845-.956-1.267-.529-.42-1.19-.682-1.919-.682-1.713.001-3.102 1.39-3.102 3.103z"/><path d="m462.234 116.232c0 1.713 1.389 3.102 3.102 3.102.66 0 1.27-.209 1.773-.561-1.126-1.732-2.27-3.45-3.437-5.152-.862.551-1.438 1.511-1.438 2.611z"/><path d="m454.96 123.506c-1.713 0-3.102 1.389-3.102 3.103s1.389 3.102 3.102 3.102 3.102-1.389 3.102-3.102-1.389-3.103-3.102-3.103z"/><path d="m465.337 133.129c-1.713 0-3.102 1.389-3.102 3.103 0 1.713 1.389 3.102 3.102 3.102s3.102-1.389 3.102-3.102-1.389-3.103-3.102-3.103z"/><path d="m454.96 143.506c-1.713 0-3.102 1.389-3.102 3.102s1.389 3.102 3.102 3.102 3.102-1.389 3.102-3.102-1.389-3.102-3.102-3.102z"/><path d="m465.337 153.129c-1.713 0-3.102 1.389-3.102 3.103 0 1.713 1.389 3.102 3.102 3.102s3.102-1.389 3.102-3.102-1.389-3.103-3.102-3.103z"/><path d="m454.96 163.506c-1.713 0-3.102 1.389-3.102 3.102s1.389 3.102 3.102 3.102 3.102-1.389 3.102-3.102-1.389-3.102-3.102-3.102z"/><path d="m465.337 173.129c-1.713 0-3.102 1.389-3.102 3.103 0 1.713 1.389 3.102 3.102 3.102s3.102-1.389 3.102-3.102-1.389-3.103-3.102-3.103z"/><path d="m454.96 183.506c-1.713 0-3.102 1.389-3.102 3.102s1.389 3.102 3.102 3.102 3.102-1.389 3.102-3.102-1.389-3.102-3.102-3.102z"/><path d="m465.337 193.129c-1.713 0-3.102 1.389-3.102 3.103 0 1.713 1.389 3.102 3.102 3.102s3.102-1.389 3.102-3.102-1.389-3.103-3.102-3.103z"/><path d="m454.96 203.506c-1.713 0-3.102 1.389-3.102 3.102s1.389 3.102 3.102 3.102 3.102-1.389 3.102-3.102-1.389-3.102-3.102-3.102z"/><path d="m465.337 213.129c-1.713 0-3.102 1.389-3.102 3.103 0 1.713 1.389 3.102 3.102 3.102s3.102-1.389 3.102-3.102-1.389-3.103-3.102-3.103z"/><path d="m454.96 223.506c-1.713 0-3.102 1.389-3.102 3.102s1.389 3.102 3.102 3.102 3.102-1.389 3.102-3.102-1.389-3.102-3.102-3.102z"/><path d="m465.337 233.129c-1.713 0-3.102 1.389-3.102 3.103 0 1.713 1.389 3.102 3.102 3.102s3.102-1.389 3.102-3.102-1.389-3.103-3.102-3.103z"/><path d="m454.96 243.506c-1.713 0-3.102 1.389-3.102 3.102s1.389 3.102 3.102 3.102 3.102-1.389 3.102-3.102-1.389-3.102-3.102-3.102z"/><path d="m465.337 253.129c-1.713 0-3.102 1.389-3.102 3.103 0 1.713 1.389 3.102 3.102 3.102s3.102-1.389 3.102-3.102-1.389-3.103-3.102-3.103z"/><path d="m454.96 263.506c-1.713 0-3.102 1.389-3.102 3.103s1.389 3.102 3.102 3.102 3.102-1.389 3.102-3.102-1.389-3.103-3.102-3.103z"/><path d="m465.337 273.129c-1.713 0-3.102 1.389-3.102 3.103 0 1.713 1.389 3.102 3.102 3.102s3.102-1.389 3.102-3.102-1.389-3.103-3.102-3.103z"/><path d="m454.96 283.506c-1.713 0-3.102 1.389-3.102 3.103s1.389 3.102 3.102 3.102 3.102-1.389 3.102-3.102-1.389-3.103-3.102-3.103z"/><path d="m465.337 293.129c-1.713 0-3.102 1.389-3.102 3.103 0 1.713 1.389 3.102 3.102 3.102s3.102-1.389 3.102-3.102-1.389-3.103-3.102-3.103z"/><path d="m454.96 303.506c-1.713 0-3.102 1.389-3.102 3.103s1.389 3.102 3.102 3.102 3.102-1.389 3.102-3.102-1.389-3.103-3.102-3.103z"/><path d="m465.337 313.129c-1.713 0-3.102 1.389-3.102 3.103 0 1.713 1.389 3.102 3.102 3.102s3.102-1.389 3.102-3.102-1.389-3.103-3.102-3.103z"/><path d="m454.96 323.506c-1.713 0-3.102 1.389-3.102 3.103s1.389 3.102 3.102 3.102 3.102-1.389 3.102-3.102-1.389-3.103-3.102-3.103z"/><path d="m465.337 333.129c-1.713 0-3.102 1.389-3.102 3.103 0 1.713 1.389 3.102 3.102 3.102s3.102-1.389 3.102-3.102-1.389-3.103-3.102-3.103z"/><path d="m454.96 343.506c-1.713 0-3.102 1.389-3.102 3.103s1.389 3.102 3.102 3.102 3.102-1.389 3.102-3.102-1.389-3.103-3.102-3.103z"/><path d="m465.337 353.129c-1.713 0-3.102 1.389-3.102 3.103 0 1.713 1.389 3.102 3.102 3.102s3.102-1.389 3.102-3.102-1.389-3.103-3.102-3.103z"/><path d="m454.96 363.506c-1.713 0-3.102 1.389-3.102 3.103s1.389 3.102 3.102 3.102 3.102-1.389 3.102-3.102-1.389-3.103-3.102-3.103z"/><path d="m465.337 373.129c-1.713 0-3.102 1.389-3.102 3.103 0 1.713 1.389 3.102 3.102 3.102s3.102-1.389 3.102-3.102-1.389-3.103-3.102-3.103z"/><path d="m454.96 383.506c-1.713 0-3.102 1.389-3.102 3.103s1.389 3.102 3.102 3.102 3.102-1.389 3.102-3.102-1.389-3.103-3.102-3.103z"/><path d="m462.234 396.232c0 .928.416 1.752 1.063 2.32 1.159-1.681 2.298-3.376 3.416-5.087-.416-.208-.88-.336-1.377-.336-1.713 0-3.102 1.39-3.102 3.103z"/><path d="m454.96 403.506c-1.713 0-3.102 1.389-3.102 3.103s1.389 3.102 3.102 3.102c.07 0 .135-.016.204-.021.953-1.233 1.901-2.468 2.831-3.718-.293-1.408-1.54-2.466-3.035-2.466z"/><path d="m434.96 89.71c1.713 0 3.102-1.389 3.102-3.102s-1.389-3.103-3.102-3.103-3.102 1.389-3.102 3.103 1.389 3.102 3.102 3.102z"/><path d="m445.337 93.129c-1.713 0-3.102 1.389-3.102 3.103 0 1.713 1.389 3.102 3.102 3.102s3.102-1.389 3.102-3.102-1.389-3.103-3.102-3.103z"/><path d="m434.96 109.71c1.713 0 3.102-1.389 3.102-3.102s-1.389-3.103-3.102-3.103-3.102 1.389-3.102 3.103 1.389 3.102 3.102 3.102z"/><path d="m445.337 113.129c-1.713 0-3.102 1.389-3.102 3.103 0 1.713 1.389 3.102 3.102 3.102s3.102-1.389 3.102-3.102-1.389-3.103-3.102-3.103z"/><path d="m438.062 126.608c0-1.246-.739-2.313-1.799-2.807.422 1.526.831 3.057 1.225 4.594.359-.505.574-1.12.574-1.787z"/><path d="m445.337 133.129c-1.713 0-3.102 1.389-3.102 3.103 0 1.713 1.389 3.102 3.102 3.102s3.102-1.389 3.102-3.102-1.389-3.103-3.102-3.103z"/><path d="m445.337 153.129c-1.093 0-2.05.569-2.603 1.423.193 1.327.38 2.657.552 3.991.548.486 1.261.79 2.05.79 1.713 0 3.102-1.389 3.102-3.102.001-1.712-1.388-3.102-3.101-3.102z"/><path d="m445.337 173.129c-.203 0-.4.022-.592.06.143 2.033.26 4.074.355 6.121.08.006.156.024.238.024 1.713 0 3.102-1.389 3.102-3.102-.001-1.713-1.39-3.103-3.103-3.103z"/><path d="m445.358 193.132c-.016 2.07-.055 4.134-.121 6.192.034.001.066.01.1.01 1.713 0 3.102-1.389 3.102-3.102 0-1.706-1.378-3.088-3.081-3.1z"/><path d="m445.337 213.129c-.328 0-.638.065-.934.159-.165 1.889-.348 3.772-.554 5.649.444.245.946.396 1.488.396 1.713 0 3.102-1.389 3.102-3.102 0-1.712-1.389-3.102-3.102-3.102z"/><path d="m445.337 233.129c-1.713 0-3.102 1.389-3.102 3.103 0 1.713 1.389 3.102 3.102 3.102s3.102-1.389 3.102-3.102-1.389-3.103-3.102-3.103z"/><path d="m445.337 253.129c-1.713 0-3.102 1.389-3.102 3.103 0 1.713 1.389 3.102 3.102 3.102s3.102-1.389 3.102-3.102-1.389-3.103-3.102-3.103z"/><path d="m434.96 269.71c1.713 0 3.102-1.389 3.102-3.102s-1.389-3.103-3.102-3.103c-.053 0-.102.013-.155.016-.556 1.854-1.132 3.7-1.729 5.536.524.404 1.172.653 1.884.653z"/><path d="m445.337 273.129c-1.713 0-3.102 1.389-3.102 3.103 0 1.713 1.389 3.102 3.102 3.102s3.102-1.389 3.102-3.102-1.389-3.103-3.102-3.103z"/><path d="m434.96 283.506c-1.713 0-3.102 1.389-3.102 3.103s1.389 3.102 3.102 3.102 3.102-1.389 3.102-3.102-1.389-3.103-3.102-3.103z"/><path d="m445.337 293.129c-1.713 0-3.102 1.389-3.102 3.103 0 1.713 1.389 3.102 3.102 3.102s3.102-1.389 3.102-3.102-1.389-3.103-3.102-3.103z"/><path d="m434.96 303.506c-1.713 0-3.102 1.389-3.102 3.103s1.389 3.102 3.102 3.102 3.102-1.389 3.102-3.102-1.389-3.103-3.102-3.103z"/><path d="m445.337 313.129c-1.713 0-3.102 1.389-3.102 3.103 0 1.713 1.389 3.102 3.102 3.102s3.102-1.389 3.102-3.102-1.389-3.103-3.102-3.103z"/><path d="m434.96 323.506c-1.713 0-3.102 1.389-3.102 3.103s1.389 3.102 3.102 3.102 3.102-1.389 3.102-3.102-1.389-3.103-3.102-3.103z"/><path d="m445.337 333.129c-1.713 0-3.102 1.389-3.102 3.103 0 1.713 1.389 3.102 3.102 3.102s3.102-1.389 3.102-3.102-1.389-3.103-3.102-3.103z"/><path d="m434.96 343.506c-1.713 0-3.102 1.389-3.102 3.103s1.389 3.102 3.102 3.102 3.102-1.389 3.102-3.102-1.389-3.103-3.102-3.103z"/><path d="m445.337 353.129c-1.713 0-3.102 1.389-3.102 3.103 0 1.713 1.389 3.102 3.102 3.102s3.102-1.389 3.102-3.102-1.389-3.103-3.102-3.103z"/><path d="m434.96 363.506c-1.713 0-3.102 1.389-3.102 3.103s1.389 3.102 3.102 3.102 3.102-1.389 3.102-3.102-1.389-3.103-3.102-3.103z"/><path d="m445.337 373.129c-1.713 0-3.102 1.389-3.102 3.103 0 1.713 1.389 3.102 3.102 3.102s3.102-1.389 3.102-3.102-1.389-3.103-3.102-3.103z"/><path d="m434.96 383.506c-1.713 0-3.102 1.389-3.102 3.103s1.389 3.102 3.102 3.102 3.102-1.389 3.102-3.102-1.389-3.103-3.102-3.103z"/><path d="m445.337 393.129c-1.713 0-3.102 1.389-3.102 3.103 0 1.713 1.389 3.102 3.102 3.102s3.102-1.389 3.102-3.102-1.389-3.103-3.102-3.103z"/><path d="m434.96 403.506c-1.713 0-3.102 1.389-3.102 3.103s1.389 3.102 3.102 3.102 3.102-1.389 3.102-3.102-1.389-3.103-3.102-3.103z"/><path d="m445.337 413.129c-1.713 0-3.102 1.389-3.102 3.103 0 1.713 1.389 3.102 3.102 3.102s3.102-1.389 3.102-3.102-1.389-3.103-3.102-3.103z"/><path d="m434.96 423.506c-1.713 0-3.102 1.389-3.102 3.103s1.389 3.102 3.102 3.102 3.102-1.389 3.102-3.102-1.389-3.103-3.102-3.103z"/><path d="m414.96 63.506c-1.422 0-2.608.962-2.974 2.267.727 1.264 1.443 2.535 2.148 3.812.264.073.538.125.826.125 1.713 0 3.102-1.389 3.102-3.102s-1.389-3.102-3.102-3.102z"/><path d="m428.439 76.232c0-1.713-1.389-3.103-3.102-3.103s-3.102 1.389-3.102 3.103c0 1.713 1.389 3.102 3.102 3.102s3.102-1.389 3.102-3.102z"/><path d="m428.439 96.232c0-1.627-1.257-2.946-2.85-3.077.714 1.688 1.411 3.385 2.089 5.092.468-.543.761-1.242.761-2.015z"/><path d="m425.337 299.334c1.713 0 3.102-1.389 3.102-3.102s-1.389-3.103-3.102-3.103c-.63 0-1.215.191-1.705.514-.445.997-.9 1.99-1.358 2.98.194 1.527 1.484 2.711 3.063 2.711z"/><path d="m418.062 306.608c0-.335-.067-.652-.165-.955-.672 1.314-1.368 2.615-2.062 3.916 1.284-.379 2.227-1.553 2.227-2.961z"/><path d="m425.337 313.129c-1.713 0-3.102 1.389-3.102 3.103 0 1.713 1.389 3.102 3.102 3.102s3.102-1.389 3.102-3.102-1.389-3.103-3.102-3.103z"/><path d="m414.96 323.506c-1.713 0-3.102 1.389-3.102 3.103s1.389 3.102 3.102 3.102 3.102-1.389 3.102-3.102-1.389-3.103-3.102-3.103z"/><path d="m425.337 333.129c-1.713 0-3.102 1.389-3.102 3.103 0 1.713 1.389 3.102 3.102 3.102s3.102-1.389 3.102-3.102-1.389-3.103-3.102-3.103z"/><path d="m414.96 343.506c-1.713 0-3.102 1.389-3.102 3.103s1.389 3.102 3.102 3.102 3.102-1.389 3.102-3.102-1.389-3.103-3.102-3.103z"/><path d="m425.337 353.129c-1.713 0-3.102 1.389-3.102 3.103 0 1.713 1.389 3.102 3.102 3.102s3.102-1.389 3.102-3.102-1.389-3.103-3.102-3.103z"/><path d="m414.96 363.506c-1.713 0-3.102 1.389-3.102 3.103s1.389 3.102 3.102 3.102 3.102-1.389 3.102-3.102-1.389-3.103-3.102-3.103z"/><path d="m425.337 373.129c-1.713 0-3.102 1.389-3.102 3.103 0 1.713 1.389 3.102 3.102 3.102s3.102-1.389 3.102-3.102-1.389-3.103-3.102-3.103z"/><path d="m414.96 383.506c-1.713 0-3.102 1.389-3.102 3.103s1.389 3.102 3.102 3.102 3.102-1.389 3.102-3.102-1.389-3.103-3.102-3.103z"/><path d="m425.337 393.129c-1.713 0-3.102 1.389-3.102 3.103 0 1.713 1.389 3.102 3.102 3.102s3.102-1.389 3.102-3.102-1.389-3.103-3.102-3.103z"/><path d="m414.96 403.506c-1.713 0-3.102 1.389-3.102 3.103s1.389 3.102 3.102 3.102 3.102-1.389 3.102-3.102-1.389-3.103-3.102-3.103z"/><path d="m425.337 413.129c-1.713 0-3.102 1.389-3.102 3.103 0 1.713 1.389 3.102 3.102 3.102s3.102-1.389 3.102-3.102-1.389-3.103-3.102-3.103z"/><path d="m414.96 423.506c-1.713 0-3.102 1.389-3.102 3.103s1.389 3.102 3.102 3.102 3.102-1.389 3.102-3.102-1.389-3.103-3.102-3.103z"/><path d="m425.337 433.129c-1.713 0-3.102 1.389-3.102 3.103 0 1.713 1.389 3.102 3.102 3.102s3.102-1.389 3.102-3.102-1.389-3.103-3.102-3.103z"/><path d="m414.96 443.506c-1.713 0-3.102 1.389-3.102 3.103s1.389 3.102 3.102 3.102 3.102-1.389 3.102-3.102-1.389-3.103-3.102-3.103z"/><path d="m404.327 53.312c1.099 1.677 2.18 3.366 3.24 5.07.538-.558.873-1.314.873-2.15 0-.283-.05-.552-.121-.812-1.009-.769-2.024-1.53-3.045-2.284-.333.007-.649.072-.947.176z"/><path d="m405.337 333.129c-1.713 0-3.102 1.389-3.102 3.103 0 1.713 1.389 3.102 3.102 3.102s3.102-1.389 3.102-3.102-1.389-3.103-3.102-3.103z"/><path d="m394.96 349.71c1.713 0 3.102-1.389 3.102-3.102s-1.389-3.103-3.102-3.103c-.373 0-.726.077-1.057.197-.67.879-1.336 1.761-2.017 2.631-.008.092-.028.18-.028.274 0 1.715 1.389 3.103 3.102 3.103z"/><path d="m405.337 353.129c-1.713 0-3.102 1.389-3.102 3.103 0 1.713 1.389 3.102 3.102 3.102s3.102-1.389 3.102-3.102-1.389-3.103-3.102-3.103z"/><path d="m394.96 363.506c-1.713 0-3.102 1.389-3.102 3.103s1.389 3.102 3.102 3.102 3.102-1.389 3.102-3.102-1.389-3.103-3.102-3.103z"/><path d="m405.337 373.129c-1.713 0-3.102 1.389-3.102 3.103 0 1.713 1.389 3.102 3.102 3.102s3.102-1.389 3.102-3.102-1.389-3.103-3.102-3.103z"/><path d="m394.96 383.506c-1.713 0-3.102 1.389-3.102 3.103s1.389 3.102 3.102 3.102 3.102-1.389 3.102-3.102-1.389-3.103-3.102-3.103z"/><path d="m405.337 393.129c-1.713 0-3.102 1.389-3.102 3.103 0 1.713 1.389 3.102 3.102 3.102s3.102-1.389 3.102-3.102-1.389-3.103-3.102-3.103z"/><path d="m394.96 403.506c-1.713 0-3.102 1.389-3.102 3.103s1.389 3.102 3.102 3.102 3.102-1.389 3.102-3.102-1.389-3.103-3.102-3.103z"/><path d="m405.337 413.129c-1.713 0-3.102 1.389-3.102 3.103 0 1.713 1.389 3.102 3.102 3.102s3.102-1.389 3.102-3.102-1.389-3.103-3.102-3.103z"/><path d="m394.96 423.506c-1.713 0-3.102 1.389-3.102 3.103s1.389 3.102 3.102 3.102 3.102-1.389 3.102-3.102-1.389-3.103-3.102-3.103z"/><path d="m405.337 433.129c-1.713 0-3.102 1.389-3.102 3.103 0 1.713 1.389 3.102 3.102 3.102s3.102-1.389 3.102-3.102-1.389-3.103-3.102-3.103z"/><path d="m394.96 443.506c-1.713 0-3.102 1.389-3.102 3.103s1.389 3.102 3.102 3.102 3.102-1.389 3.102-3.102-1.389-3.103-3.102-3.103z"/><path d="m405.337 453.129c-1.713 0-3.102 1.389-3.102 3.103 0 1.373.898 2.524 2.135 2.933 1.364-.998 2.717-2.009 4.06-3.033-.055-1.666-1.414-3.003-3.093-3.003z"/><path d="m391.858 466.608c0 .366.075.711.191 1.037 1.683-1.084 3.352-2.188 5.007-3.311-.553-.51-1.285-.829-2.096-.829-1.713.001-3.102 1.39-3.102 3.103z"/><path d="m385.337 359.334c1.713 0 3.102-1.389 3.102-3.102 0-1.401-.935-2.572-2.211-2.957-1.214 1.44-2.442 2.868-3.687 4.28.498 1.049 1.558 1.779 2.796 1.779z"/><path d="m374.96 369.71c1.713 0 3.102-1.389 3.102-3.102 0-1.087-.561-2.04-1.407-2.594-1.393 1.475-2.803 2.932-4.23 4.373.561.799 1.485 1.323 2.535 1.323z"/><path d="m385.337 373.129c-1.713 0-3.102 1.389-3.102 3.103 0 1.713 1.389 3.102 3.102 3.102s3.102-1.389 3.102-3.102-1.389-3.103-3.102-3.103z"/><path d="m374.96 383.506c-1.713 0-3.102 1.389-3.102 3.103s1.389 3.102 3.102 3.102 3.102-1.389 3.102-3.102-1.389-3.103-3.102-3.103z"/><path d="m385.337 393.129c-1.713 0-3.102 1.389-3.102 3.103 0 1.713 1.389 3.102 3.102 3.102s3.102-1.389 3.102-3.102-1.389-3.103-3.102-3.103z"/><path d="m374.96 403.506c-1.713 0-3.102 1.389-3.102 3.103s1.389 3.102 3.102 3.102 3.102-1.389 3.102-3.102-1.389-3.103-3.102-3.103z"/><path d="m385.337 413.129c-1.713 0-3.102 1.389-3.102 3.103 0 1.713 1.389 3.102 3.102 3.102s3.102-1.389 3.102-3.102-1.389-3.103-3.102-3.103z"/><path d="m374.96 423.506c-1.713 0-3.102 1.389-3.102 3.103s1.389 3.102 3.102 3.102 3.102-1.389 3.102-3.102-1.389-3.103-3.102-3.103z"/><path d="m385.337 433.129c-1.713 0-3.102 1.389-3.102 3.103 0 1.713 1.389 3.102 3.102 3.102s3.102-1.389 3.102-3.102-1.389-3.103-3.102-3.103z"/><path d="m374.96 443.506c-1.713 0-3.102 1.389-3.102 3.103s1.389 3.102 3.102 3.102 3.102-1.389 3.102-3.102-1.389-3.103-3.102-3.103z"/><path d="m385.337 453.129c-1.713 0-3.102 1.389-3.102 3.103 0 1.713 1.389 3.102 3.102 3.102s3.102-1.389 3.102-3.102-1.389-3.103-3.102-3.103z"/><path d="m374.96 469.71c1.713 0 3.102-1.389 3.102-3.102s-1.389-3.103-3.102-3.103-3.102 1.389-3.102 3.103 1.389 3.102 3.102 3.102z"/><path d="m365.337 379.334c1.713 0 3.102-1.389 3.102-3.102 0-1.076-.548-2.022-1.379-2.579-1.455 1.383-2.926 2.75-4.413 4.098.533.941 1.531 1.583 2.69 1.583z"/><path d="m354.96 389.71c1.713 0 3.102-1.389 3.102-3.102 0-1.393-.925-2.559-2.189-2.95-1.316 1.11-2.642 2.208-3.981 3.292.173 1.55 1.472 2.76 3.068 2.76z"/><path d="m365.337 393.129c-1.713 0-3.102 1.389-3.102 3.103 0 1.713 1.389 3.102 3.102 3.102s3.102-1.389 3.102-3.102-1.389-3.103-3.102-3.103z"/><path d="m354.96 403.506c-1.713 0-3.102 1.389-3.102 3.103s1.389 3.102 3.102 3.102 3.102-1.389 3.102-3.102-1.389-3.103-3.102-3.103z"/><path d="m365.337 413.129c-1.713 0-3.102 1.389-3.102 3.103 0 1.713 1.389 3.102 3.102 3.102s3.102-1.389 3.102-3.102-1.389-3.103-3.102-3.103z"/><path d="m354.96 423.506c-1.713 0-3.102 1.389-3.102 3.103s1.389 3.102 3.102 3.102 3.102-1.389 3.102-3.102-1.389-3.103-3.102-3.103z"/><path d="m365.337 433.129c-1.713 0-3.102 1.389-3.102 3.103 0 1.713 1.389 3.102 3.102 3.102s3.102-1.389 3.102-3.102-1.389-3.103-3.102-3.103z"/><path d="m354.96 443.506c-1.713 0-3.102 1.389-3.102 3.103s1.389 3.102 3.102 3.102 3.102-1.389 3.102-3.102-1.389-3.103-3.102-3.103z"/><path d="m365.337 453.129c-1.713 0-3.102 1.389-3.102 3.103 0 1.713 1.389 3.102 3.102 3.102s3.102-1.389 3.102-3.102-1.389-3.103-3.102-3.103z"/><path d="m354.96 463.506c-1.713 0-3.102 1.389-3.102 3.103s1.389 3.102 3.102 3.102 3.102-1.389 3.102-3.102-1.389-3.103-3.102-3.103z"/><path d="m365.337 473.129c-1.713 0-3.102 1.389-3.102 3.103 0 1.713 1.389 3.102 3.102 3.102s3.102-1.389 3.102-3.102-1.389-3.103-3.102-3.103z"/><path d="m354.96 483.506c-1.713 0-3.102 1.389-3.102 3.103 0 .68.225 1.304.596 1.815 1.862-.775 3.712-1.57 5.55-2.388-.269-1.44-1.527-2.53-3.044-2.53z"/><path d="m345.337 393.129c-1.713 0-3.102 1.389-3.102 3.103 0 1.713 1.389 3.102 3.102 3.102s3.102-1.389 3.102-3.102-1.389-3.103-3.102-3.103z"/><path d="m334.96 403.506c-1.713 0-3.102 1.389-3.102 3.103s1.389 3.102 3.102 3.102 3.102-1.389 3.102-3.102-1.389-3.103-3.102-3.103z"/><path d="m345.337 413.129c-1.713 0-3.102 1.389-3.102 3.103 0 1.713 1.389 3.102 3.102 3.102s3.102-1.389 3.102-3.102-1.389-3.103-3.102-3.103z"/><path d="m334.96 423.506c-1.713 0-3.102 1.389-3.102 3.103s1.389 3.102 3.102 3.102 3.102-1.389 3.102-3.102-1.389-3.103-3.102-3.103z"/><path d="m345.337 433.129c-1.713 0-3.102 1.389-3.102 3.103 0 1.713 1.389 3.102 3.102 3.102s3.102-1.389 3.102-3.102-1.389-3.103-3.102-3.103z"/><path d="m334.96 443.506c-1.713 0-3.102 1.389-3.102 3.103s1.389 3.102 3.102 3.102 3.102-1.389 3.102-3.102-1.389-3.103-3.102-3.103z"/><path d="m345.337 453.129c-1.713 0-3.102 1.389-3.102 3.103 0 1.713 1.389 3.102 3.102 3.102s3.102-1.389 3.102-3.102-1.389-3.103-3.102-3.103z"/><path d="m334.96 463.506c-1.713 0-3.102 1.389-3.102 3.103s1.389 3.102 3.102 3.102 3.102-1.389 3.102-3.102-1.389-3.103-3.102-3.103z"/><path d="m345.337 473.129c-1.713 0-3.102 1.389-3.102 3.103 0 1.713 1.389 3.102 3.102 3.102s3.102-1.389 3.102-3.102-1.389-3.103-3.102-3.103z"/><path d="m334.96 483.506c-1.713 0-3.102 1.389-3.102 3.103s1.389 3.102 3.102 3.102 3.102-1.389 3.102-3.102-1.389-3.103-3.102-3.103z"/><path d="m325.337 413.129c-1.713 0-3.102 1.389-3.102 3.103 0 1.713 1.389 3.102 3.102 3.102s3.102-1.389 3.102-3.102-1.389-3.103-3.102-3.103z"/><path d="m314.96 423.506c-1.713 0-3.102 1.389-3.102 3.103s1.389 3.102 3.102 3.102 3.102-1.389 3.102-3.102-1.389-3.103-3.102-3.103z"/><path d="m325.337 433.129c-1.713 0-3.102 1.389-3.102 3.103 0 1.713 1.389 3.102 3.102 3.102s3.102-1.389 3.102-3.102-1.389-3.103-3.102-3.103z"/><path d="m314.96 443.506c-1.713 0-3.102 1.389-3.102 3.103s1.389 3.102 3.102 3.102 3.102-1.389 3.102-3.102-1.389-3.103-3.102-3.103z"/><path d="m325.337 453.129c-1.713 0-3.102 1.389-3.102 3.103 0 1.713 1.389 3.102 3.102 3.102s3.102-1.389 3.102-3.102-1.389-3.103-3.102-3.103z"/><path d="m314.96 463.506c-1.713 0-3.102 1.389-3.102 3.103s1.389 3.102 3.102 3.102 3.102-1.389 3.102-3.102-1.389-3.103-3.102-3.103z"/><path d="m325.337 473.129c-1.713 0-3.102 1.389-3.102 3.103 0 1.713 1.389 3.102 3.102 3.102s3.102-1.389 3.102-3.102-1.389-3.103-3.102-3.103z"/><path d="m314.96 483.506c-1.713 0-3.102 1.389-3.102 3.103s1.389 3.102 3.102 3.102 3.102-1.389 3.102-3.102-1.389-3.103-3.102-3.103z"/><path d="m328.439 496.232c0-1.713-1.389-3.103-3.102-3.103s-3.102 1.389-3.102 3.103c0 .901.391 1.706 1.005 2.273 1.702-.472 3.394-.964 5.081-1.471.069-.257.118-.523.118-.802z"/><path d="m305.337 419.334c1.713 0 3.102-1.389 3.102-3.102 0-.304-.057-.591-.138-.868-1.803.925-3.619 1.828-5.448 2.71.565.76 1.463 1.26 2.484 1.26z"/><path d="m294.96 423.506c-1.713 0-3.102 1.389-3.102 3.103s1.389 3.102 3.102 3.102 3.102-1.389 3.102-3.102-1.389-3.103-3.102-3.103z"/><path d="m305.337 433.129c-1.713 0-3.102 1.389-3.102 3.103 0 1.713 1.389 3.102 3.102 3.102s3.102-1.389 3.102-3.102-1.389-3.103-3.102-3.103z"/><path d="m294.96 443.506c-1.713 0-3.102 1.389-3.102 3.103s1.389 3.102 3.102 3.102 3.102-1.389 3.102-3.102-1.389-3.103-3.102-3.103z"/><path d="m305.337 453.129c-1.713 0-3.102 1.389-3.102 3.103 0 1.713 1.389 3.102 3.102 3.102s3.102-1.389 3.102-3.102-1.389-3.103-3.102-3.103z"/><path d="m294.96 463.506c-1.713 0-3.102 1.389-3.102 3.103s1.389 3.102 3.102 3.102 3.102-1.389 3.102-3.102-1.389-3.103-3.102-3.103z"/><path d="m305.337 473.129c-1.713 0-3.102 1.389-3.102 3.103 0 1.713 1.389 3.102 3.102 3.102s3.102-1.389 3.102-3.102-1.389-3.103-3.102-3.103z"/><path d="m294.96 483.506c-1.713 0-3.102 1.389-3.102 3.103s1.389 3.102 3.102 3.102 3.102-1.389 3.102-3.102-1.389-3.103-3.102-3.103z"/><path d="m305.337 493.129c-1.713 0-3.102 1.389-3.102 3.103 0 1.713 1.389 3.102 3.102 3.102s3.102-1.389 3.102-3.102-1.389-3.103-3.102-3.103z"/><path d="m294.96 503.506c-1.124 0-2.099.604-2.644 1.499 1.562-.227 3.119-.471 4.672-.727-.544-.474-1.248-.772-2.028-.772z"/><path d="m277.227 428.713c-.902.318-1.8.646-2.707.953.145.021.289.044.44.044.898 0 1.701-.387 2.267-.997z"/><path d="m285.337 433.129c-1.713 0-3.102 1.389-3.102 3.103 0 1.713 1.389 3.102 3.102 3.102s3.102-1.389 3.102-3.102-1.389-3.103-3.102-3.103z"/><path d="m274.96 443.506c-1.713 0-3.102 1.389-3.102 3.103s1.389 3.102 3.102 3.102 3.102-1.389 3.102-3.102-1.389-3.103-3.102-3.103z"/><path d="m285.337 453.129c-1.713 0-3.102 1.389-3.102 3.103 0 1.713 1.389 3.102 3.102 3.102s3.102-1.389 3.102-3.102-1.389-3.103-3.102-3.103z"/><path d="m274.96 463.506c-1.713 0-3.102 1.389-3.102 3.103s1.389 3.102 3.102 3.102 3.102-1.389 3.102-3.102-1.389-3.103-3.102-3.103z"/><path d="m285.337 473.129c-1.713 0-3.102 1.389-3.102 3.103 0 1.713 1.389 3.102 3.102 3.102s3.102-1.389 3.102-3.102-1.389-3.103-3.102-3.103z"/><path d="m274.96 483.506c-1.713 0-3.102 1.389-3.102 3.103s1.389 3.102 3.102 3.102 3.102-1.389 3.102-3.102-1.389-3.103-3.102-3.103z"/><path d="m285.337 493.129c-1.713 0-3.102 1.389-3.102 3.103 0 1.713 1.389 3.102 3.102 3.102s3.102-1.389 3.102-3.102-1.389-3.103-3.102-3.103z"/><path d="m278.062 506.608c0-1.713-1.389-3.103-3.102-3.103s-3.102 1.389-3.102 3.103c0 .176.024.345.052.513 2.056-.129 4.105-.284 6.148-.462 0-.017.004-.034.004-.051z"/><path d="m265.337 433.129c-1.713 0-3.102 1.389-3.102 3.103 0 1.713 1.389 3.102 3.102 3.102s3.102-1.389 3.102-3.102-1.389-3.103-3.102-3.103z"/><path d="m254.96 443.506c-1.713 0-3.102 1.389-3.102 3.103s1.389 3.102 3.102 3.102 3.102-1.389 3.102-3.102-1.389-3.103-3.102-3.103z"/><path d="m265.337 453.129c-1.713 0-3.102 1.389-3.102 3.103 0 1.713 1.389 3.102 3.102 3.102s3.102-1.389 3.102-3.102-1.389-3.103-3.102-3.103z"/><path d="m254.96 463.506c-1.713 0-3.102 1.389-3.102 3.103s1.389 3.102 3.102 3.102 3.102-1.389 3.102-3.102-1.389-3.103-3.102-3.103z"/><path d="m265.337 473.129c-1.713 0-3.102 1.389-3.102 3.103 0 1.713 1.389 3.102 3.102 3.102s3.102-1.389 3.102-3.102-1.389-3.103-3.102-3.103z"/><path d="m254.96 483.506c-1.713 0-3.102 1.389-3.102 3.103s1.389 3.102 3.102 3.102 3.102-1.389 3.102-3.102-1.389-3.103-3.102-3.103z"/><path d="m265.337 493.129c-1.713 0-3.102 1.389-3.102 3.103 0 1.713 1.389 3.102 3.102 3.102s3.102-1.389 3.102-3.102-1.389-3.103-3.102-3.103z"/><path d="m257.879 507.622c.111-.319.183-.656.183-1.013 0-1.713-1.389-3.103-3.102-3.103s-3.102 1.389-3.102 3.103c0 .355.072.691.182 1.009 1.256.018 2.514.03 3.775.03.69-.001 1.375-.021 2.064-.026z"/><path d="m245.337 439.334c1.456 0 2.67-1.007 3.003-2.361-1.809.401-3.624.787-5.447 1.149.567.732 1.446 1.212 2.444 1.212z"/><path d="m234.96 443.506c-1.713 0-3.102 1.389-3.102 3.103s1.389 3.102 3.102 3.102 3.102-1.389 3.102-3.102-1.389-3.103-3.102-3.103z"/><path d="m245.337 453.129c-1.713 0-3.102 1.389-3.102 3.103 0 1.713 1.389 3.102 3.102 3.102s3.102-1.389 3.102-3.102-1.389-3.103-3.102-3.103z"/><path d="m234.96 463.506c-1.713 0-3.102 1.389-3.102 3.103s1.389 3.102 3.102 3.102 3.102-1.389 3.102-3.102-1.389-3.103-3.102-3.103z"/><path d="m245.337 473.129c-1.713 0-3.102 1.389-3.102 3.103 0 1.713 1.389 3.102 3.102 3.102s3.102-1.389 3.102-3.102-1.389-3.103-3.102-3.103z"/><path d="m234.96 483.506c-1.713 0-3.102 1.389-3.102 3.103s1.389 3.102 3.102 3.102 3.102-1.389 3.102-3.102-1.389-3.103-3.102-3.103z"/><path d="m245.337 493.129c-1.713 0-3.102 1.389-3.102 3.103 0 1.713 1.389 3.102 3.102 3.102s3.102-1.389 3.102-3.102-1.389-3.103-3.102-3.103z"/><path d="m238.062 506.608c0-1.713-1.389-3.103-3.102-3.103-1.683 0-3.046 1.343-3.094 3.015 2.044.193 4.096.357 6.154.5.019-.135.042-.271.042-.412z"/><path d="m214.96 443.506c-1.713 0-3.102 1.389-3.102 3.103s1.389 3.102 3.102 3.102 3.102-1.389 3.102-3.102-1.389-3.103-3.102-3.103z"/><path d="m225.337 453.129c-1.713 0-3.102 1.389-3.102 3.103 0 1.713 1.389 3.102 3.102 3.102s3.102-1.389 3.102-3.102-1.389-3.103-3.102-3.103z"/><path d="m214.96 463.506c-1.713 0-3.102 1.389-3.102 3.103s1.389 3.102 3.102 3.102 3.102-1.389 3.102-3.102-1.389-3.103-3.102-3.103z"/><path d="m225.337 473.129c-1.713 0-3.102 1.389-3.102 3.103 0 1.713 1.389 3.102 3.102 3.102s3.102-1.389 3.102-3.102-1.389-3.103-3.102-3.103z"/><path d="m214.96 483.506c-1.713 0-3.102 1.389-3.102 3.103s1.389 3.102 3.102 3.102 3.102-1.389 3.102-3.102-1.389-3.103-3.102-3.103z"/><path d="m225.337 493.129c-1.713 0-3.102 1.389-3.102 3.103 0 1.713 1.389 3.102 3.102 3.102s3.102-1.389 3.102-3.102-1.389-3.103-3.102-3.103z"/><path d="m214.96 503.506c-.651 0-1.253.202-1.752.544 1.398.238 2.8.464 4.206.68-.567-.739-1.45-1.224-2.454-1.224z"/><path d="m194.96 443.506c-1.713 0-3.102 1.389-3.102 3.103s1.389 3.102 3.102 3.102 3.102-1.389 3.102-3.102-1.389-3.103-3.102-3.103z"/><path d="m205.337 453.129c-1.713 0-3.102 1.389-3.102 3.103 0 1.713 1.389 3.102 3.102 3.102s3.102-1.389 3.102-3.102-1.389-3.103-3.102-3.103z"/><path d="m194.96 463.506c-1.713 0-3.102 1.389-3.102 3.103s1.389 3.102 3.102 3.102 3.102-1.389 3.102-3.102-1.389-3.103-3.102-3.103z"/><path d="m205.337 473.129c-1.713 0-3.102 1.389-3.102 3.103 0 1.713 1.389 3.102 3.102 3.102s3.102-1.389 3.102-3.102-1.389-3.103-3.102-3.103z"/><path d="m194.96 483.506c-1.713 0-3.102 1.389-3.102 3.103s1.389 3.102 3.102 3.102 3.102-1.389 3.102-3.102-1.389-3.103-3.102-3.103z"/><path d="m205.337 493.129c-1.713 0-3.102 1.389-3.102 3.103 0 1.713 1.389 3.102 3.102 3.102s3.102-1.389 3.102-3.102-1.389-3.103-3.102-3.103z"/><path d="m174.96 443.506c-1.713 0-3.102 1.389-3.102 3.103s1.389 3.102 3.102 3.102 3.102-1.389 3.102-3.102-1.389-3.103-3.102-3.103z"/><path d="m185.337 453.129c-1.713 0-3.102 1.389-3.102 3.103 0 1.713 1.389 3.102 3.102 3.102s3.102-1.389 3.102-3.102-1.389-3.103-3.102-3.103z"/><path d="m174.96 463.506c-1.713 0-3.102 1.389-3.102 3.103s1.389 3.102 3.102 3.102 3.102-1.389 3.102-3.102-1.389-3.103-3.102-3.103z"/><path d="m185.337 473.129c-1.713 0-3.102 1.389-3.102 3.103 0 1.713 1.389 3.102 3.102 3.102s3.102-1.389 3.102-3.102-1.389-3.103-3.102-3.103z"/><path d="m174.96 483.506c-1.713 0-3.102 1.389-3.102 3.103s1.389 3.102 3.102 3.102 3.102-1.389 3.102-3.102-1.389-3.103-3.102-3.103z"/><path d="m188.439 496.232c0-1.713-1.389-3.103-3.102-3.103s-3.102 1.389-3.102 3.103c0 .172.024.338.051.503 1.775.541 3.557 1.063 5.348 1.565.495-.55.805-1.27.805-2.068z"/><path d="m154.96 443.506c-1.713 0-3.102 1.389-3.102 3.103s1.389 3.102 3.102 3.102 3.102-1.389 3.102-3.102-1.389-3.103-3.102-3.103z"/><path d="m165.337 453.129c-1.713 0-3.102 1.389-3.102 3.103 0 1.713 1.389 3.102 3.102 3.102s3.102-1.389 3.102-3.102-1.389-3.103-3.102-3.103z"/><path d="m154.96 463.506c-1.713 0-3.102 1.389-3.102 3.103s1.389 3.102 3.102 3.102 3.102-1.389 3.102-3.102-1.389-3.103-3.102-3.103z"/><path d="m165.337 473.129c-1.713 0-3.102 1.389-3.102 3.103 0 1.713 1.389 3.102 3.102 3.102s3.102-1.389 3.102-3.102-1.389-3.103-3.102-3.103z"/><path d="m154.96 483.506c-1.272 0-2.362.768-2.841 1.863 1.881.851 3.777 1.675 5.682 2.48.167-.38.262-.799.262-1.241-.001-1.713-1.39-3.102-3.103-3.102z"/><path d="m145.337 439.334c.701 0 1.341-.242 1.861-.634-1.509-.281-3.014-.573-4.513-.881.542.904 1.521 1.515 2.652 1.515z"/><path d="m134.96 443.506c-1.713 0-3.102 1.389-3.102 3.103s1.389 3.102 3.102 3.102 3.102-1.389 3.102-3.102-1.389-3.103-3.102-3.103z"/><path d="m145.337 453.129c-1.713 0-3.102 1.389-3.102 3.103 0 1.713 1.389 3.102 3.102 3.102s3.102-1.389 3.102-3.102-1.389-3.103-3.102-3.103z"/><path d="m134.96 463.506c-1.713 0-3.102 1.389-3.102 3.103s1.389 3.102 3.102 3.102 3.102-1.389 3.102-3.102-1.389-3.103-3.102-3.103z"/><path d="m145.337 473.129c-1.713 0-3.102 1.389-3.102 3.103 0 1.713 1.389 3.102 3.102 3.102s3.102-1.389 3.102-3.102-1.389-3.103-3.102-3.103z"/><path d="m122.234 436.232c0 1.713 1.389 3.102 3.102 3.102s3.102-1.389 3.102-3.102c0-.753-.279-1.435-.726-1.972-1.139-.308-2.278-.617-3.41-.94-1.201.427-2.068 1.563-2.068 2.912z"/><path d="m111.858 446.608c0 1.713 1.389 3.102 3.102 3.102s3.102-1.389 3.102-3.102-1.389-3.103-3.102-3.103c-1.713.001-3.102 1.39-3.102 3.103z"/><path d="m125.337 453.129c-1.713 0-3.102 1.389-3.102 3.103 0 1.713 1.389 3.102 3.102 3.102s3.102-1.389 3.102-3.102-1.389-3.103-3.102-3.103z"/><path d="m114.96 463.506c-.432 0-.844.089-1.218.25 1.429.978 2.866 1.944 4.316 2.893 0-.014.004-.026.004-.04 0-1.714-1.389-3.103-3.102-3.103z"/><path d="m91.858 426.608c0 1.713 1.389 3.102 3.102 3.102s3.102-1.389 3.102-3.102-1.389-3.103-3.102-3.103c-1.713.001-3.102 1.39-3.102 3.103z"/><path d="m102.234 436.232c0 1.713 1.389 3.102 3.102 3.102s3.102-1.389 3.102-3.102-1.389-3.103-3.102-3.103-3.102 1.39-3.102 3.103z"/><path d="m98.062 446.608c0-1.713-1.389-3.103-3.102-3.103s-3.102 1.389-3.102 3.103c0 .128.023.249.037.373 1.065.914 2.138 1.818 3.218 2.714 1.641-.082 2.949-1.426 2.949-3.087z"/><path d="m108.439 456.232c0-1.713-1.389-3.103-3.102-3.103-1.45 0-2.658.999-2.998 2.343 1.505 1.159 3.024 2.302 4.556 3.427.919-.537 1.544-1.525 1.544-2.667z"/><path d="m85.337 419.334c.402 0 .784-.083 1.137-.222-1.369-.644-2.731-1.299-4.086-1.967.391 1.265 1.556 2.189 2.949 2.189z"/><path d="m74.96 429.71c1.713 0 3.102-1.389 3.102-3.102s-1.389-3.103-3.102-3.103-3.102 1.389-3.102 3.103c0 .65.201 1.252.543 1.75.208.222.42.44.629.661.531.426 1.196.691 1.93.691z"/><path d="m82.234 436.232c0 1.713 1.389 3.102 3.102 3.102s3.102-1.389 3.102-3.102-1.389-3.103-3.102-3.103-3.102 1.39-3.102 3.103z"/><path d="m58.062 406.608c0-1.713-1.389-3.103-3.102-3.103-.938 0-1.768.425-2.337 1.083 1.192 1.626 2.408 3.232 3.638 4.828 1.061-.493 1.801-1.561 1.801-2.808z"/><path d="m68.439 416.232c0-1.713-1.389-3.103-3.102-3.103s-3.102 1.389-3.102 3.103c0 .27.045.527.11.777.573.688 1.152 1.371 1.732 2.053.386.172.81.272 1.26.272 1.713 0 3.102-1.389 3.102-3.102z"/><path d="m46.136 395.316c.588.882 1.185 1.758 1.784 2.632.21-.315.361-.67.445-1.052-.745-.526-1.492-1.047-2.229-1.58z"/></g><path d="m436.704 74.927c-48.317-48.317-112.558-74.927-180.889-74.927s-132.571 26.61-180.889 74.927c-27.225 27.226-47.556 59.507-60.12 94.727-.058.061-.118.121-.176.182l.086.081c-9.673 27.21-14.716 56.166-14.716 85.899 0 68.33 26.61 132.572 74.926 180.889 48.317 48.317 112.558 74.927 180.889 74.927s132.572-26.61 180.889-74.927 74.927-112.558 74.927-180.889-26.609-132.572-74.927-180.889zm32.405 306.983c-19.588-4.32-38.375-9.967-56.419-16.956 22.634-40.996 37.846-83.638 45.192-126.776 6.881-40.401 7.048-82.357.556-124.934 28.476 40.351 45.226 89.54 45.226 142.572 0 46.013-12.619 89.128-34.555 126.094zm-21.076-282.372c17.349 91.732 2.948 180.022-42.793 262.436-22.58-9.32-43.984-20.793-64.293-34.514 44.39-92.213 55.691-197.469 31.333-290.369 29.227 15.626 54.972 36.935 75.753 62.447zm-281.348 184.139c27.183 40.173 63.775 77.44 105.954 107.872 41.42 29.885 86.351 51.72 130.47 63.472-23.383 17.336-49.91 30.656-78.556 38.938-99.42-25.54-181.333-104.093-225.559-170.042 21.072-15.769 43.657-29.192 67.691-40.24zm-31.714 7.095c-36.421 20.554-69.587 47.479-98.659 80.032-14.104-26.814-23.437-56.508-26.864-87.955 61.816-67.468 165.199-116.82 264.761-126.599-2.478 30.137-8.594 60.362-18.368 90.565-.068.01-.134.006-.202.019-43.774 8.671-84.372 23.454-120.668 43.938zm148.596-160.926c.458-40.542-5.783-81.44-18.551-121.69 34.868 1.28 67.922 9.782 97.697 24.075 26.194 92.365 15.815 198.09-28.406 290.635-26.107-18.483-50.393-40.763-73.089-66.955 14.358-42.1 21.88-84.513 22.349-126.065zm-27.752-121.879c.255 0 .507.009.762.01 5.185 15.98 9.31 32.037 12.361 48.156-97.477 9.126-179.791 43.249-239.632 99.124 38.64-86.698 125.627-147.29 226.509-147.29zm-233.852 165.745c59.442-62.289 145.226-100.182 248.379-109.71 4.677 27.92 6.151 56.014 4.441 84.193-47.984 4.554-98.186 18.444-145.425 40.268-47.669 22.022-89.27 50.875-120.836 83.731-.355-5.416-.555-10.874-.555-16.379 0-28.765 4.943-56.394 13.996-82.103zm18.404 204.508c16.174-18.363 33.624-34.858 52.301-49.464 26.039 38.774 59.456 74.808 96.848 104.349 38.005 30.025 79.08 52.225 119.626 64.765-17.183 3.783-35.023 5.795-53.326 5.795-92.176-.001-172.751-50.584-215.449-125.445zm370.729 70.616c-89.478-21.998-181.936-87.736-237.022-168.46 24.18-10.498 49.784-18.645 76.754-24.404.081.121.151.246.247.36 29.016 34.369 61.444 62.879 96.382 84.737 35.573 22.254 75.007 38.382 117.251 48.008-14.539 22.709-32.686 42.891-53.612 59.759z" fill="#31373d"/></g></svg>