<svg id="Capa_1" enable-background="new 0 0 511.894 511.894" height="512" viewBox="0 0 511.894 511.894" width="512" xmlns="http://www.w3.org/2000/svg"><g><path d="m474.56 9.639c-14.783 0-26.766 11.984-26.766 26.766v353.673c0 19.906-16.195 36.101-36.101 36.101h-138.629c-6.581 0-12.603 2.379-17.264 6.318-4.621-3.856-10.561-6.181-17.036-6.181-14.683 0-26.629 11.946-26.629 26.629 0 14.684 11.946 26.629 26.629 26.629 6.475 0 12.416-2.325 17.036-6.181 4.661 3.939 10.683 6.318 17.263 6.318h138.628c49.424 0 89.633-40.209 89.633-89.633v-353.673c.002-14.782-11.982-26.766-26.764-26.766z" fill="#e9c278"/><path d="m411.458 162.325h-353.818c-29.603 0-53.601 23.998-53.601 53.601v59.095c-.027 1.014-.041 2.032-.041 3.052 0 63.426 51.417 114.844 114.843 114.844 37.766 0 71.272-18.231 92.2-46.372 11.253-15.132 33.726-15.188 44.893.007 21.066 28.664 55.019 47.269 93.32 47.269 63.376 0 114.847-50.937 115.727-114.104h.078v-63.79c0-29.604-23.998-53.602-53.601-53.602z" fill="#eaa895"/><path d="m396.908 192.664h-324.806c-18.838 0-34.109 15.031-34.109 33.572v49.064c0 45.056 37.109 81.58 82.885 81.58h13.666c19.584 0 43.257-15.834 57.577-29.393 1.912-1.81 3.687-3.573 5.403-5.277 10.283-10.212 17.714-17.591 36.974-17.591h.007.004c19.261 0 26.691 7.378 36.974 17.59 1.717 1.705 3.492 3.467 5.404 5.278 14.32 13.559 37.993 29.393 57.577 29.393h13.666c45.776 0 82.885-36.524 82.885-81.58v-49.065c.002-18.541-15.269-33.571-34.107-33.571z" fill="#f9fbfc"/><g fill="#31373d"><path d="m400.205 190.97h-331.401c-19.22 0-34.801 15.581-34.801 34.801v50.861c0 46.706 37.862 84.568 84.568 84.568h13.943c19.982 0 44.135-16.414 58.747-30.47 1.951-1.876 3.762-3.704 5.513-5.471 10.492-10.586 18.073-18.235 37.725-18.235h.007.004c19.652 0 27.233 7.648 37.725 18.234 1.751 1.767 3.563 3.594 5.514 5.471 14.611 14.056 38.764 30.47 58.746 30.47h13.944c46.705 0 84.567-37.862 84.567-84.567v-50.862c.001-19.219-15.581-34.8-34.801-34.8zm26.802 85.663c0 42.287-34.281 76.568-76.568 76.568h-13.943c-16.475 0-38.59-14.181-53.2-28.235-1.882-1.81-3.659-3.603-5.378-5.337-10.957-11.055-20.42-20.603-43.407-20.603-.031 0-.06.008-.091.009-.038-.001-.074-.009-.111-.009-22.849.052-32.289 9.578-43.216 20.603-1.719 1.734-3.496 3.526-5.377 5.337-14.61 14.054-36.726 28.235-53.201 28.235h-13.945c-42.287 0-76.568-34.281-76.568-76.568v-50.861c0-14.802 12-26.802 26.802-26.802h331.401c14.802 0 26.802 11.999 26.802 26.801z"/><path d="m496.649.144h-44.695c-8.406 0-15.245 6.838-15.245 15.244v66.164c0 5.403 2.834 10.148 7.085 12.856v73.88c-9.225-6.282-20.359-9.962-32.337-9.962h-353.817c-.001 0 0 0-.001 0-15.384 0-29.849 5.992-40.728 16.87-10.879 10.879-16.87 25.343-16.87 40.729v59.043c-.027 1.032-.041 2.066-.041 3.104 0 65.529 53.312 118.841 118.841 118.841 37.396 0 73.063-17.938 95.408-47.983 4.614-6.204 11.641-9.757 19.29-9.757h.07c7.605.022 14.568 3.574 19.104 9.746 22.502 30.619 58.592 48.899 96.541 48.899 31.689 0 61.559-12.259 84.109-34.517 3.759-3.71 7.235-7.632 10.433-11.73v38.507c0 17.701-14.401 32.102-32.103 32.102h-122.838c-10.362-16.809-28.936-28.04-50.09-28.04-32.425 0-58.804 26.379-58.804 58.805 0 32.425 26.38 58.804 58.804 58.804 21.154 0 39.729-11.231 50.09-28.04h122.838c51.628 0 93.631-42.003 93.631-93.63v-296.006c3.965-2.755 6.57-7.336 6.57-12.52v-66.165c0-8.405-6.839-15.244-15.245-15.244zm-257.885 479.43c-14.683 0-26.629-11.946-26.629-26.629 0-14.684 11.946-26.629 26.629-26.629 14.684 0 26.63 11.946 26.63 26.629 0 14.684-11.946 26.629-26.63 26.629zm110.49-89.752c-35.415 0-69.096-17.061-90.098-45.638-6.053-8.237-15.356-12.978-25.524-13.007h-.094c-10.201 0-19.566 4.728-25.704 12.981-21.155 28.445-53.592 44.76-88.993 44.76-61.12 0-110.846-49.725-110.846-110.846 0-.986.014-1.969.039-2.948.001-.034.001-.069.001-.104v-59.095c0-13.249 5.16-25.706 14.529-35.075s21.825-14.528 35.075-14.528h353.818c27.352 0 49.604 22.252 49.604 49.603v63.001c-.048.238-.074.483-.078.734-.845 60.744-50.967 110.162-111.729 110.162zm148.074.256c0 47.219-38.416 85.635-85.635 85.635h-118.713c2.954-7.006 4.589-14.7 4.589-22.768 0-8.069-1.636-15.762-4.589-22.769h118.713c22.111 0 40.098-17.988 40.098-40.098v-50.098c10.772-17.781 16.738-38.137 17.174-59.406.061-.277.092-.564.092-.858v-63.79c0-16.066-6.619-30.611-17.266-41.068v-78.069c.055 0 .108.008.164.008h44.695c.229 0 .452-.024.679-.034v293.315z"/><path d="m80.465 313.324c-.762 0-1.532-.218-2.214-.672-1.837-1.224-2.334-3.707-1.109-5.544l59.691-89.537c1.224-1.837 3.705-2.334 5.544-1.109 1.837 1.224 2.334 3.707 1.109 5.544l-59.691 89.537c-.77 1.156-2.038 1.781-3.33 1.781z"/><path d="m326.831 313.324c-.762 0-1.532-.218-2.214-.672-1.837-1.224-2.334-3.707-1.109-5.544l59.691-89.537c1.223-1.837 3.705-2.334 5.544-1.109 1.837 1.224 2.334 3.707 1.109 5.544l-59.691 89.537c-.77 1.156-2.038 1.781-3.33 1.781z"/><path d="m121.089 313.324c-.773 0-1.553-.224-2.24-.689-1.827-1.239-2.304-3.725-1.066-5.552l33.162-48.914c1.239-1.828 3.725-2.303 5.552-1.066 1.828 1.239 2.304 3.725 1.066 5.552l-33.162 48.914c-.773 1.14-2.031 1.755-3.312 1.755z"/></g></g></svg>