<svg id="Capa_1" enable-background="new 0 0 511.697 511.697" height="512" viewBox="0 0 511.697 511.697" width="512" xmlns="http://www.w3.org/2000/svg"><g><path d="m475.67 459.298h-439.643c-17.697 0-32.043-14.346-32.043-32.043v-318.711c0-17.697 14.346-32.043 32.043-32.043h439.643c17.697 0 32.043 14.346 32.043 32.043v318.711c0 17.697-14.346 32.043-32.043 32.043z" fill="#eaa895"/><g fill="#f9fbfc"><path d="m507.713 407.493v-5.808c-.07-.025-.142-.046-.214-.066v.657c0 1.833-.163 3.627-.46 5.376.234-.029.46-.081.674-.159z"/><path d="m507.713 421.685c-.332-.122-.687-.198-1.062-.198-1.713 0-3.102 1.389-3.102 3.102 0 1.714 1.389 3.103 3.102 3.103.374 0 .728-.076 1.059-.197 0-.036.003-.071.003-.107z"/><path d="m493.925 434.213c0 1.713 1.389 3.103 3.102 3.103s3.102-1.39 3.102-3.103c0-1.714-1.389-3.103-3.102-3.103s-3.102 1.389-3.102 3.103z"/><path d="m483.549 444.589c0 1.714 1.389 3.103 3.102 3.103s3.102-1.389 3.102-3.103c0-1.713-1.389-3.102-3.102-3.102s-3.102 1.389-3.102 3.102z"/><path d="m497.028 451.11c-1.505 0-2.758 1.072-3.041 2.494 1.099-.764 2.149-1.592 3.142-2.483-.035-.002-.067-.011-.101-.011z"/><path d="m477.028 437.315c1.713 0 3.102-1.39 3.102-3.103 0-.119-.022-.232-.035-.348-1.473.208-2.976.322-4.507.322h-1.66c0 .009-.002.017-.002.025-.001 1.715 1.388 3.104 3.102 3.104z"/><path d="m463.549 444.589c0 1.714 1.389 3.103 3.102 3.103s3.102-1.389 3.102-3.103c0-1.713-1.389-3.102-3.102-3.102s-3.102 1.389-3.102 3.102z"/><path d="m480.13 454.213c0-1.714-1.389-3.103-3.102-3.103s-3.102 1.389-3.102 3.103c0 1.713 1.389 3.103 3.102 3.103 1.713-.001 3.102-1.39 3.102-3.103z"/><path d="m457.028 437.315c1.713 0 3.102-1.39 3.102-3.103 0-.009-.003-.017-.003-.025h-6.2c0 .009-.002.017-.002.025 0 1.714 1.389 3.103 3.103 3.103z"/><path d="m443.549 444.589c0 1.714 1.389 3.103 3.102 3.103s3.102-1.389 3.102-3.103c0-1.713-1.389-3.102-3.102-3.102s-3.102 1.389-3.102 3.102z"/><path d="m457.028 451.11c-1.713 0-3.102 1.389-3.102 3.103 0 1.713 1.389 3.103 3.102 3.103s3.102-1.39 3.102-3.103c0-1.714-1.389-3.103-3.102-3.103z"/><path d="m437.028 437.315c1.713 0 3.102-1.39 3.102-3.103 0-.009-.003-.017-.003-.025h-6.2c0 .009-.002.017-.002.025 0 1.714 1.389 3.103 3.103 3.103z"/><path d="m423.549 444.589c0 1.714 1.389 3.103 3.102 3.103s3.102-1.389 3.102-3.103c0-1.713-1.389-3.102-3.102-3.102s-3.102 1.389-3.102 3.102z"/><path d="m437.028 451.11c-1.713 0-3.102 1.389-3.102 3.103 0 1.713 1.389 3.103 3.102 3.103s3.102-1.39 3.102-3.103c0-1.714-1.389-3.103-3.102-3.103z"/><path d="m417.028 437.315c1.713 0 3.102-1.39 3.102-3.103 0-.009-.003-.017-.003-.025h-6.2c0 .009-.002.017-.002.025 0 1.714 1.389 3.103 3.103 3.103z"/><path d="m403.549 444.589c0 1.714 1.389 3.103 3.102 3.103s3.102-1.389 3.102-3.103c0-1.713-1.389-3.102-3.102-3.102s-3.102 1.389-3.102 3.102z"/><path d="m417.028 451.11c-1.713 0-3.102 1.389-3.102 3.103 0 1.713 1.389 3.103 3.102 3.103s3.102-1.39 3.102-3.103c0-1.714-1.389-3.103-3.102-3.103z"/><path d="m397.028 437.315c1.713 0 3.102-1.39 3.102-3.103 0-.009-.003-.017-.003-.025h-6.2c0 .009-.002.017-.002.025 0 1.714 1.389 3.103 3.103 3.103z"/><path d="m383.549 444.589c0 1.714 1.389 3.103 3.102 3.103s3.102-1.389 3.102-3.103c0-1.713-1.389-3.102-3.102-3.102s-3.102 1.389-3.102 3.102z"/><path d="m397.028 451.11c-1.713 0-3.102 1.389-3.102 3.103 0 1.713 1.389 3.103 3.102 3.103s3.102-1.39 3.102-3.103c0-1.714-1.389-3.103-3.102-3.103z"/><path d="m377.028 437.315c1.713 0 3.102-1.39 3.102-3.103 0-.009-.003-.017-.003-.025h-6.2c0 .009-.002.017-.002.025 0 1.714 1.389 3.103 3.103 3.103z"/><path d="m363.549 444.589c0 1.714 1.389 3.103 3.102 3.103s3.102-1.389 3.102-3.103c0-1.713-1.389-3.102-3.102-3.102s-3.102 1.389-3.102 3.102z"/><path d="m377.028 451.11c-1.713 0-3.102 1.389-3.102 3.103 0 1.713 1.389 3.103 3.102 3.103s3.102-1.39 3.102-3.103c0-1.714-1.389-3.103-3.102-3.103z"/><path d="m357.028 437.315c1.713 0 3.102-1.39 3.102-3.103 0-.009-.003-.017-.003-.025h-6.2c0 .009-.002.017-.002.025 0 1.714 1.389 3.103 3.103 3.103z"/><path d="m343.549 444.589c0 1.714 1.389 3.103 3.102 3.103s3.102-1.389 3.102-3.103c0-1.713-1.389-3.102-3.102-3.102s-3.102 1.389-3.102 3.102z"/><path d="m357.028 451.11c-1.713 0-3.102 1.389-3.102 3.103 0 1.713 1.389 3.103 3.102 3.103s3.102-1.39 3.102-3.103c0-1.714-1.389-3.103-3.102-3.103z"/><path d="m337.028 437.315c1.713 0 3.102-1.39 3.102-3.103 0-.009-.003-.017-.003-.025h-6.2c0 .009-.002.017-.002.025 0 1.714 1.389 3.103 3.103 3.103z"/><path d="m323.549 444.589c0 1.714 1.389 3.103 3.102 3.103s3.102-1.389 3.102-3.103c0-1.713-1.389-3.102-3.102-3.102s-3.102 1.389-3.102 3.102z"/><path d="m337.028 451.11c-1.713 0-3.102 1.389-3.102 3.103 0 1.713 1.389 3.103 3.102 3.103s3.102-1.39 3.102-3.103c0-1.714-1.389-3.103-3.102-3.103z"/><path d="m317.028 437.315c1.713 0 3.102-1.39 3.102-3.103 0-.009-.003-.017-.003-.025h-6.2c0 .009-.002.017-.002.025 0 1.714 1.389 3.103 3.103 3.103z"/><path d="m303.549 444.589c0 1.714 1.389 3.103 3.102 3.103s3.102-1.389 3.102-3.103c0-1.713-1.389-3.102-3.102-3.102s-3.102 1.389-3.102 3.102z"/><path d="m317.028 451.11c-1.713 0-3.102 1.389-3.102 3.103 0 1.713 1.389 3.103 3.102 3.103s3.102-1.39 3.102-3.103c0-1.714-1.389-3.103-3.102-3.103z"/><path d="m297.028 437.315c1.713 0 3.102-1.39 3.102-3.103 0-.009-.003-.017-.003-.025h-6.2c0 .009-.002.017-.002.025 0 1.714 1.389 3.103 3.103 3.103z"/><path d="m283.549 444.589c0 1.714 1.389 3.103 3.102 3.103s3.102-1.389 3.102-3.103c0-1.713-1.389-3.102-3.102-3.102s-3.102 1.389-3.102 3.102z"/><path d="m297.028 451.11c-1.713 0-3.102 1.389-3.102 3.103 0 1.713 1.389 3.103 3.102 3.103s3.102-1.39 3.102-3.103c0-1.714-1.389-3.103-3.102-3.103z"/><path d="m277.028 437.315c1.713 0 3.102-1.39 3.102-3.103 0-.009-.003-.017-.003-.025h-6.2c0 .009-.002.017-.002.025 0 1.714 1.389 3.103 3.103 3.103z"/><path d="m263.549 444.589c0 1.714 1.389 3.103 3.102 3.103s3.102-1.389 3.102-3.103c0-1.713-1.389-3.102-3.102-3.102s-3.102 1.389-3.102 3.102z"/><path d="m277.028 451.11c-1.713 0-3.102 1.389-3.102 3.103 0 1.713 1.389 3.103 3.102 3.103s3.102-1.39 3.102-3.103c0-1.714-1.389-3.103-3.102-3.103z"/><path d="m257.028 437.315c1.713 0 3.102-1.39 3.102-3.103 0-.009-.003-.017-.003-.025h-6.2c0 .009-.002.017-.002.025 0 1.714 1.389 3.103 3.103 3.103z"/><path d="m243.549 444.589c0 1.714 1.389 3.103 3.102 3.103s3.102-1.389 3.102-3.103c0-1.713-1.389-3.102-3.102-3.102s-3.102 1.389-3.102 3.102z"/><path d="m257.028 451.11c-1.713 0-3.102 1.389-3.102 3.103 0 1.713 1.389 3.103 3.102 3.103s3.102-1.39 3.102-3.103c0-1.714-1.389-3.103-3.102-3.103z"/><path d="m237.028 437.315c1.713 0 3.102-1.39 3.102-3.103 0-.009-.003-.017-.003-.025h-6.2c0 .009-.002.017-.002.025 0 1.714 1.389 3.103 3.103 3.103z"/><path d="m223.549 444.589c0 1.714 1.389 3.103 3.102 3.103s3.102-1.389 3.102-3.103c0-1.713-1.389-3.102-3.102-3.102s-3.102 1.389-3.102 3.102z"/><path d="m237.028 451.11c-1.713 0-3.102 1.389-3.102 3.103 0 1.713 1.389 3.103 3.102 3.103s3.102-1.39 3.102-3.103c0-1.714-1.389-3.103-3.102-3.103z"/><path d="m217.028 437.315c1.713 0 3.102-1.39 3.102-3.103 0-.009-.003-.017-.003-.025h-6.2c0 .009-.002.017-.002.025 0 1.714 1.389 3.103 3.103 3.103z"/><path d="m203.549 444.589c0 1.714 1.389 3.103 3.102 3.103s3.102-1.389 3.102-3.103c0-1.713-1.389-3.102-3.102-3.102s-3.102 1.389-3.102 3.102z"/><path d="m217.028 451.11c-1.713 0-3.102 1.389-3.102 3.103 0 1.713 1.389 3.103 3.102 3.103s3.102-1.39 3.102-3.103c0-1.714-1.389-3.103-3.102-3.103z"/><path d="m197.028 437.315c1.713 0 3.102-1.39 3.102-3.103 0-.009-.003-.017-.003-.025h-6.2c0 .009-.002.017-.002.025 0 1.714 1.389 3.103 3.103 3.103z"/><path d="m183.549 444.589c0 1.714 1.389 3.103 3.102 3.103s3.102-1.389 3.102-3.103c0-1.713-1.389-3.102-3.102-3.102s-3.102 1.389-3.102 3.102z"/><path d="m197.028 451.11c-1.713 0-3.102 1.389-3.102 3.103 0 1.713 1.389 3.103 3.102 3.103s3.102-1.39 3.102-3.103c0-1.714-1.389-3.103-3.102-3.103z"/><path d="m177.028 437.315c1.713 0 3.102-1.39 3.102-3.103 0-.009-.003-.017-.003-.025h-6.2c0 .009-.002.017-.002.025 0 1.714 1.389 3.103 3.103 3.103z"/><path d="m163.549 444.589c0 1.714 1.389 3.103 3.102 3.103s3.102-1.389 3.102-3.103c0-1.713-1.389-3.102-3.102-3.102s-3.102 1.389-3.102 3.102z"/><path d="m177.028 451.11c-1.713 0-3.102 1.389-3.102 3.103 0 1.713 1.389 3.103 3.102 3.103s3.102-1.39 3.102-3.103c0-1.714-1.389-3.103-3.102-3.103z"/><path d="m157.028 437.315c1.713 0 3.102-1.39 3.102-3.103 0-.009-.003-.017-.003-.025h-6.2c0 .009-.002.017-.002.025 0 1.714 1.389 3.103 3.103 3.103z"/><path d="m143.549 444.589c0 1.714 1.389 3.103 3.102 3.103s3.102-1.389 3.102-3.103c0-1.713-1.389-3.102-3.102-3.102s-3.102 1.389-3.102 3.102z"/><path d="m157.028 451.11c-1.713 0-3.102 1.389-3.102 3.103 0 1.713 1.389 3.103 3.102 3.103s3.102-1.39 3.102-3.103c0-1.714-1.389-3.103-3.102-3.103z"/><path d="m137.028 437.315c1.713 0 3.102-1.39 3.102-3.103 0-.009-.003-.017-.003-.025h-6.2c0 .009-.002.017-.002.025 0 1.714 1.389 3.103 3.103 3.103z"/><path d="m123.549 444.589c0 1.714 1.389 3.103 3.102 3.103s3.102-1.389 3.102-3.103c0-1.713-1.389-3.102-3.102-3.102s-3.102 1.389-3.102 3.102z"/><path d="m137.028 451.11c-1.713 0-3.102 1.389-3.102 3.103 0 1.713 1.389 3.103 3.102 3.103s3.102-1.39 3.102-3.103c0-1.714-1.389-3.103-3.102-3.103z"/><path d="m117.028 437.315c1.713 0 3.102-1.39 3.102-3.103 0-.009-.002-.017-.002-.025h-6.2c0 .009-.002.017-.002.025-.001 1.714 1.388 3.103 3.102 3.103z"/><path d="m103.549 444.589c0 1.714 1.389 3.103 3.102 3.103s3.102-1.389 3.102-3.103c0-1.713-1.389-3.102-3.102-3.102s-3.102 1.389-3.102 3.102z"/><path d="m117.028 451.11c-1.713 0-3.102 1.389-3.102 3.103 0 1.713 1.389 3.103 3.102 3.103s3.102-1.39 3.102-3.103c0-1.714-1.389-3.103-3.102-3.103z"/><path d="m97.028 437.315c1.713 0 3.102-1.39 3.102-3.103 0-.009-.002-.017-.002-.025h-6.2c0 .009-.002.017-.002.025-.001 1.714 1.388 3.103 3.102 3.103z"/><path d="m83.549 444.589c0 1.714 1.389 3.103 3.102 3.103s3.102-1.389 3.102-3.103c0-1.713-1.389-3.102-3.102-3.102s-3.102 1.389-3.102 3.102z"/><path d="m97.028 451.11c-1.713 0-3.102 1.389-3.102 3.103 0 1.713 1.389 3.103 3.102 3.103s3.102-1.39 3.102-3.103c0-1.714-1.389-3.103-3.102-3.103z"/><path d="m77.028 437.315c1.713 0 3.102-1.39 3.102-3.103 0-.009-.002-.017-.002-.025h-6.2c0 .009-.002.017-.002.025-.001 1.714 1.388 3.103 3.102 3.103z"/><path d="m63.549 444.589c0 1.714 1.389 3.103 3.102 3.103s3.102-1.389 3.102-3.103c0-1.713-1.389-3.102-3.102-3.102s-3.102 1.389-3.102 3.102z"/><path d="m77.028 451.11c-1.713 0-3.102 1.389-3.102 3.103 0 1.713 1.389 3.103 3.102 3.103s3.102-1.39 3.102-3.103c0-1.714-1.389-3.103-3.102-3.103z"/><path d="m57.028 437.315c1.713 0 3.102-1.39 3.102-3.103 0-.009-.003-.017-.003-.025h-6.2c0 .009-.002.017-.002.025 0 1.714 1.389 3.103 3.103 3.103z"/><path d="m43.549 444.589c0 1.714 1.389 3.103 3.102 3.103s3.102-1.389 3.102-3.103c0-1.713-1.389-3.102-3.102-3.102s-3.102 1.389-3.102 3.102z"/><path d="m57.028 451.11c-1.713 0-3.102 1.389-3.102 3.103 0 1.713 1.389 3.103 3.102 3.103s3.102-1.39 3.102-3.103c0-1.714-1.389-3.103-3.102-3.103z"/><path d="m37.028 437.315c1.713 0 3.102-1.39 3.102-3.103 0-.009-.003-.017-.003-.025h-4.445c-.587 0-1.169-.02-1.749-.051-.001.025-.008.05-.008.076 0 1.714 1.389 3.103 3.103 3.103z"/><path d="m23.549 444.589c0 1.714 1.389 3.103 3.102 3.103s3.102-1.389 3.102-3.103c0-1.713-1.389-3.102-3.102-3.102s-3.102 1.389-3.102 3.102z"/><path d="m40.13 454.213c0-1.714-1.389-3.103-3.102-3.103s-3.102 1.389-3.102 3.103c0 1.713 1.389 3.103 3.102 3.103 1.713-.001 3.102-1.39 3.102-3.103z"/><path d="m4.026 406.227c-.013-.103-.03-.202-.042-.305v.228c.015.025.026.051.042.077z"/><path d="m6.651 427.691c1.713 0 3.102-1.389 3.102-3.103 0-1.713-1.389-3.102-3.102-3.102-1.142 0-2.129.623-2.667 1.542v3.12c.538.919 1.525 1.543 2.667 1.543z"/><path d="m17.028 437.315c1.713 0 3.102-1.39 3.102-3.103 0-1.714-1.389-3.103-3.102-3.103s-3.102 1.389-3.102 3.103c-.001 1.714 1.388 3.103 3.102 3.103z"/><path d="m7.303 441.559c.677 1.363 1.448 2.672 2.306 3.917.085-.282.144-.576.144-.887 0-1.489-1.05-2.731-2.45-3.03z"/><path d="m20.13 454.213c0-1.714-1.389-3.103-3.102-3.103-.672 0-1.29.22-1.798.583 1.48 1.259 3.076 2.384 4.771 3.359.075-.268.129-.546.129-.839z"/></g><g><path d="m206.844 409.929h-100.577c-21.237 0-38.453-17.216-38.453-38.453v-157.943c0-21.237 17.216-38.453 38.453-38.453h100.577c21.237 0 38.453 17.216 38.453 38.453v157.942c0 21.238-17.216 38.454-38.453 38.454z" fill="#eaa895"/><path d="m426.305 409.929h-100.577c-21.237 0-38.453-17.216-38.453-38.453v-157.943c0-21.237 17.216-38.453 38.453-38.453h100.577c21.237 0 38.453 17.216 38.453 38.453v157.942c0 21.238-17.216 38.454-38.453 38.454z" fill="#eaa895"/><path d="m206.844 409.929h-100.577c-21.237 0-38.453-17.216-38.453-38.453v-157.943c0-21.237 17.216-38.453 38.453-38.453h100.577c21.237 0 38.453 17.216 38.453 38.453v157.942c0 21.238-17.216 38.454-38.453 38.454z" fill="#f9fbfc"/><path d="m426.305 409.929h-100.577c-21.237 0-38.453-17.216-38.453-38.453v-157.943c0-21.237 17.216-38.453 38.453-38.453h100.577c21.237 0 38.453 17.216 38.453 38.453v157.942c0 21.238-17.216 38.454-38.453 38.454z" fill="#f9fbfc"/><path d="m184.549 387.634h-100.577c-21.237 0-38.453-17.216-38.453-38.453v-157.943c0-21.237 17.216-38.453 38.453-38.453h100.577c21.237 0 38.453 17.216 38.453 38.453v157.942c0 21.238-17.216 38.454-38.453 38.454z" fill="#f9fbfc"/><path d="m404.01 387.634h-100.577c-21.237 0-38.453-17.216-38.453-38.453v-157.943c0-21.237 17.216-38.453 38.453-38.453h100.577c21.237 0 38.453 17.216 38.453 38.453v157.942c0 21.238-17.216 38.454-38.453 38.454z" fill="#f9fbfc"/><g fill="#31373d"><path d="m347.895 347.136c-25.732 0-27.52-.597-28.528-.933-2.628-.876-4.584-2.839-5.367-5.384-1.432-4.653.281-6.897 8.513-17.674 6.948-9.099 19.882-26.034 41.542-56.983 6.906-9.866 11.355-18.811 13.229-26.597l.559-4.375c-.24-14.867-12.409-26.888-27.333-26.888-13.036 0-24.317 9.266-26.825 22.03-.798 4.064-4.737 6.715-8.805 5.914-4.064-.799-6.713-4.74-5.914-8.805 3.886-19.782 21.358-34.14 41.544-34.14 23.345 0 42.337 18.992 42.337 42.337 0 .317-.02.635-.06.95l-.673 5.267c-.032.25-.076.498-.133.743-2.259 9.747-7.521 20.568-15.637 32.164-21.7 31.005-34.728 48.082-41.775 57.309 13.31.117 35.84-.013 56.456-.27.031-.001.064-.001.096-.001 4.099 0 7.446 3.296 7.497 7.406.053 4.142-3.263 7.541-7.405 7.593-19.161.243-33.121.337-43.318.337z"/><path d="m134.26 348.562c-25.845 0-46.871-21.025-46.871-46.87v-62.964c0-25.845 21.026-46.87 46.871-46.87s46.871 21.025 46.871 46.87v62.964c0 25.844-21.026 46.87-46.871 46.87zm0-141.704c-17.574 0-31.871 14.297-31.871 31.87v62.964c0 17.573 14.297 31.87 31.871 31.87s31.871-14.297 31.871-31.87v-62.964c0-17.573-14.296-31.87-31.871-31.87z"/><path d="m223.598 174.507c-6.458-15.099-21.458-25.706-38.891-25.706h-100.894c-23.313 0-42.279 18.966-42.279 42.279v158.258c0 17.436 10.609 32.436 25.71 38.894 6.464 15.083 21.443 25.682 38.865 25.682h100.892c23.313 0 42.279-18.966 42.279-42.279v-158.26c0-17.422-10.598-32.403-25.682-38.868zm-174.096 174.831v-158.258c0-18.919 15.393-34.312 34.312-34.312h100.893c18.919 0 34.312 15.393 34.312 34.312v158.258c0 18.92-15.393 34.312-34.312 34.312h-100.894c-18.918.001-34.311-15.392-34.311-34.312zm191.811 22.296c0 18.919-15.392 34.312-34.312 34.312h-100.892c-11.646 0-21.938-5.845-28.144-14.742 1.913.266 3.863.414 5.848.414h100.893c23.313 0 42.279-18.966 42.279-42.279v-158.259c0-1.99-.149-3.946-.416-5.863 8.903 6.203 14.743 16.509 14.743 28.158v158.259z"/><path d="m443.064 174.518c-6.456-15.104-21.458-25.717-38.896-25.717h-100.894c-23.313 0-42.279 18.966-42.279 42.279v158.258c0 17.434 10.607 32.433 25.705 38.892 6.464 15.084 21.447 25.684 38.87 25.684h100.892c23.313 0 42.279-18.966 42.279-42.279v-158.26c0-17.42-10.596-32.394-25.677-38.857zm-174.101 174.82v-158.258c0-18.919 15.393-34.312 34.312-34.312h100.894c18.919 0 34.311 15.393 34.311 34.312v158.258c0 18.92-15.393 34.312-34.311 34.312h-100.895c-18.919.001-34.311-15.392-34.311-34.312zm191.811 22.296c0 18.919-15.393 34.312-34.312 34.312h-100.892c-11.648 0-21.949-5.842-28.153-14.743 1.916.267 3.869.415 5.857.415h100.894c23.313 0 42.279-18.966 42.279-42.279v-158.259c0-1.982-.148-3.93-.413-5.84 8.896 6.204 14.741 16.491 14.741 28.135v158.259z"/><path d="m475.802 72.518h-39.777v-5.456c0-10.281-8.364-18.646-18.645-18.646h-105.022c-10.281 0-18.646 8.365-18.646 18.646v5.456h-77.148v-5.456c0-10.281-8.364-18.646-18.645-18.646h-105.022c-10.281 0-18.646 8.365-18.646 18.646v5.456h-38.356c-19.792 0-35.895 16.102-35.895 35.894v318.975c0 19.792 16.103 35.895 35.895 35.895h439.907c19.793 0 35.895-16.103 35.895-35.895v-318.975c0-19.792-16.102-35.894-35.895-35.894zm27.928 354.869c0 15.399-12.529 27.928-27.928 27.928h-439.907c-15.399 0-27.928-12.528-27.928-27.928v-318.975c0-15.399 12.528-27.928 27.928-27.928h38.357v20.88c0 10.28 8.365 18.646 18.646 18.646h105.022c10.281 0 18.645-8.365 18.645-18.646v-20.88h77.148v20.88c0 10.28 8.365 18.646 18.646 18.646h105.021c10.281 0 18.645-8.365 18.645-18.646v-20.88h39.777c15.399 0 27.928 12.528 27.928 27.928z"/></g></g></g></svg>