<svg id="Capa_1" enable-background="new 0 0 511.264 511.264" height="512" viewBox="0 0 511.264 511.264" width="512" xmlns="http://www.w3.org/2000/svg"><g><path d="m457.934 352.131c-14.536-16.704-35.936-27.278-59.818-27.278s-45.282 10.574-59.818 27.278c-12.117 13.924-19.471 32.103-19.471 52.011s7.354 38.087 19.471 52.011c14.536 16.704 35.936 27.278 59.818 27.278s45.282-10.574 59.818-27.278c12.117-13.924 19.471-32.103 19.471-52.011s-7.354-38.087-19.471-52.011z" fill="#f9fbfc"/><g fill="#eaa895"><g><path d="m470.962 372.825c-.06-.139-.127-.274-.188-.413.052.144.116.28.188.413z"/><path d="m473.68 388.257c-1.713 0-3.102 1.389-3.102 3.102s1.389 3.102 3.102 3.102c1.295 0 2.402-.794 2.866-1.921-.158-1.075-.332-2.145-.533-3.206-.568-.654-1.397-1.077-2.333-1.077z"/><path d="m473.68 408.257c-1.713 0-3.102 1.389-3.102 3.102s1.389 3.102 3.102 3.102 3.102-1.389 3.102-3.102c.001-1.713-1.388-3.102-3.102-3.102z"/><path d="m470.578 431.359c0 .945.431 1.78 1.098 2.349.72-1.786 1.38-3.601 1.971-5.448-1.698.019-3.069 1.398-3.069 3.099z"/><path d="m464.057 364.085c.773 0 1.471-.293 2.014-.761-1.057-1.753-2.183-3.459-3.368-5.121-1.032.504-1.749 1.553-1.749 2.779 0 1.714 1.39 3.103 3.103 3.103z"/><path d="m464.057 384.085c1.713 0 3.102-1.389 3.102-3.102s-1.389-3.102-3.102-3.102c-.368 0-.716.075-1.044.193.013.594.04 1.184.04 1.781 0 1.348-.04 2.686-.107 4.017.346.132.718.213 1.111.213z"/><path d="m456.783 411.359c0-.168-.024-.33-.049-.49-.447 1.049-.918 2.086-1.408 3.111.872-.548 1.457-1.513 1.457-2.621z"/><path d="m464.057 417.881c-1.713 0-3.102 1.389-3.102 3.102 0 1.714 1.389 3.102 3.102 3.102s3.102-1.389 3.102-3.102-1.389-3.102-3.102-3.102z"/><path d="m453.68 428.257c-1.713 0-3.102 1.389-3.102 3.102s1.389 3.102 3.102 3.102 3.102-1.389 3.102-3.102c.001-1.713-1.388-3.102-3.102-3.102z"/><path d="m464.057 444.085c1.713 0 3.102-1.389 3.102-3.102s-1.389-3.102-3.102-3.102-3.102 1.389-3.102 3.102c-.001 1.713 1.389 3.102 3.102 3.102z"/><path d="m453.68 448.257c-1.713 0-3.102 1.389-3.102 3.102s1.389 3.102 3.102 3.102 3.102-1.389 3.102-3.102c.001-1.713-1.388-3.102-3.102-3.102z"/><path d="m440.954 440.983c0 1.714 1.389 3.102 3.102 3.102s3.102-1.389 3.102-3.102-1.389-3.102-3.102-3.102c-1.712 0-3.102 1.389-3.102 3.102z"/><path d="m433.68 448.257c-1.713 0-3.102 1.389-3.102 3.102s1.389 3.102 3.102 3.102 3.102-1.389 3.102-3.102c.001-1.713-1.388-3.102-3.102-3.102z"/><path d="m444.057 464.085c1.713 0 3.102-1.389 3.102-3.102s-1.389-3.102-3.102-3.102-3.102 1.389-3.102 3.102c-.001 1.713 1.389 3.102 3.102 3.102z"/><path d="m433.68 468.257c-1.713 0-3.102 1.389-3.102 3.102s1.389 3.102 3.102 3.102 3.102-1.389 3.102-3.102c.001-1.713-1.388-3.102-3.102-3.102z"/><path d="m416.721 451.974c-1.55.71-3.127 1.371-4.729 1.982.487.317 1.065.505 1.689.505 1.502 0 2.754-1.068 3.04-2.487z"/><path d="m420.954 460.983c0 1.714 1.389 3.102 3.102 3.102s3.102-1.389 3.102-3.102-1.389-3.102-3.102-3.102c-1.712 0-3.102 1.389-3.102 3.102z"/><path d="m413.68 468.257c-1.713 0-3.102 1.389-3.102 3.102s1.389 3.102 3.102 3.102 3.102-1.389 3.102-3.102c.001-1.713-1.388-3.102-3.102-3.102z"/><path d="m424.057 477.881c-1.379 0-2.534.906-2.938 2.151 1.592-.483 3.164-1.01 4.712-1.589-.504-.352-1.113-.562-1.774-.562z"/><path d="m393.68 468.257c-1.713 0-3.102 1.389-3.102 3.102s1.389 3.102 3.102 3.102 3.102-1.389 3.102-3.102c.001-1.713-1.388-3.102-3.102-3.102z"/><path d="m407.159 480.983c0-1.713-1.389-3.102-3.102-3.102s-3.102 1.389-3.102 3.102c0 .943.43 1.778 1.094 2.347 1.461-.072 2.911-.183 4.35-.332.467-.544.76-1.242.76-2.015z"/><path d="m381.596 459.113c-.397.521-.641 1.164-.641 1.869 0 1.714 1.389 3.102 3.102 3.102s3.102-1.389 3.102-3.102c0-.716-.252-1.366-.659-1.891-.909.031-1.82.052-2.736.052-.725 0-1.448-.01-2.168-.03z"/><path d="m370.578 471.359c0 1.713 1.389 3.102 3.102 3.102s3.102-1.389 3.102-3.102-1.389-3.102-3.102-3.102-3.102 1.389-3.102 3.102z"/><path d="m387.159 480.983c0-1.713-1.389-3.102-3.102-3.102s-3.102 1.389-3.102 3.102c0 .203.023.401.06.593 1.867.411 3.76.755 5.674 1.032.293-.474.47-1.027.47-1.625z"/><path d="m353.68 454.461c.651 0 1.254-.202 1.753-.545-1.626-.623-3.228-1.296-4.801-2.022.255 1.458 1.519 2.567 3.048 2.567z"/><path d="m360.954 460.983c0 1.714 1.389 3.102 3.102 3.102s3.102-1.389 3.102-3.102-1.389-3.102-3.102-3.102c-1.712 0-3.102 1.389-3.102 3.102z"/><path d="m353.68 468.257c-.578 0-1.113.168-1.576.444 1.506 1.077 3.055 2.097 4.637 3.068.018-.135.041-.269.041-.409.001-1.714-1.388-3.103-3.102-3.103z"/><path d="m333.68 448.257c-.439 0-.856.093-1.234.258 1.13 1.669 2.308 3.303 3.559 4.879.478-.546.778-1.252.778-2.035 0-1.713-1.389-3.102-3.103-3.102z"/><path d="m347.159 460.983c0-1.713-1.389-3.102-3.102-3.102-1.163 0-2.164.647-2.695 1.593 1.394 1.43 2.84 2.809 4.337 4.131.874-.549 1.46-1.514 1.46-2.622z"/></g><path d="m477.468 394.625c-9.127-.633-18.181.242-26.834 2.496l-3.793-5.5c-1.257-1.822-3.751-2.279-5.573-1.023-1.821 1.256-2.28 3.751-1.024 5.573l2.392 3.469c-9.868 3.664-19.033 9.199-26.96 16.398l-3.411-3.411c-1.565-1.565-4.101-1.565-5.667 0-1.565 1.565-1.565 4.102 0 5.666l3.412 3.412c-6.909 7.609-12.281 16.359-15.941 25.775l-3.037-2.095c-1.821-1.256-4.316-.798-5.573 1.023-1.256 1.822-.798 4.317 1.024 5.573l4.955 3.417c-2.506 9.034-3.503 18.525-2.839 28.097.146 2.113 1.906 3.73 3.993 3.73.093 0 .187-.003.281-.01 2.208-.153 3.873-2.067 3.719-4.275-.534-7.702.14-15.34 1.887-22.686l2.376 1.639c.099.068.204.12.306.178.442 1.175 1.567 2.015 2.896 2.015 1.713 0 3.102-1.389 3.102-3.102 0-.414-.085-.808-.232-1.17.525-1.638-.034-3.49-1.523-4.517l-4.525-3.121c3.264-9.072 8.25-17.511 14.802-24.801l3.263 3.263c.782.782 1.807 1.173 2.833 1.173s2.051-.391 2.833-1.173c1.565-1.565 1.565-4.101 0-5.666l-3.263-3.263c7.613-6.842 16.482-11.971 26.013-15.219l2.796 4.054c.777 1.127 2.029 1.732 3.302 1.732.785 0 1.577-.23 2.271-.709 1.821-1.256 2.28-3.751 1.024-5.573l-1.231-1.785c2.075-.455 4.174-.814 6.288-1.096.565.596 1.359.972 2.246.972 1.11 0 2.077-.588 2.625-1.464 3.385-.23 6.801-.24 10.232-.002 2.212.151 4.122-1.513 4.274-3.72.154-2.208-1.511-4.121-3.719-4.274z"/><path d="m383.966 395.658c.783.782 1.808 1.174 2.833 1.174s2.051-.391 2.833-1.174c1.565-1.564 1.565-4.101 0-5.666l-3.412-3.412c7.233-7.965 12.784-17.181 16.448-27.103l2.814 1.941c.694.479 1.487.709 2.271.709 1.273 0 2.524-.605 3.302-1.732 1.256-1.822.798-4.317-1.024-5.573l-4.856-3.349c2.226-8.608 3.086-17.61 2.456-26.684-.153-2.207-2.053-3.865-4.274-3.72-2.208.153-3.873 2.067-3.719 4.274.499 7.197-.058 14.338-1.555 21.237l-2.423-1.671c-1.821-1.256-4.316-.799-5.573 1.023-1.256 1.822-.798 4.317 1.024 5.573l4.707 3.246c-3.245 9.587-8.392 18.506-15.268 26.157l-3.263-3.263c-1.565-1.565-4.102-1.565-5.667 0s-1.565 4.102 0 5.666l3.263 3.263c-7.331 6.589-15.826 11.594-24.957 14.857l-3.568-5.174c-1.257-1.822-3.751-2.279-5.573-1.023-1.821 1.256-2.28 3.751-1.024 5.573l2.076 3.009c-7.294 1.717-14.875 2.378-22.519 1.848-2.211-.148-4.121 1.513-4.274 3.72-.154 2.207 1.512 4.121 3.72 4.274 1.937.134 3.869.201 5.796.201 7.538 0 14.972-1.043 22.127-3.012l2.988 4.333c.778 1.127 2.029 1.732 3.302 1.732.785 0 1.577-.23 2.271-.709 1.821-1.256 2.28-3.751 1.024-5.573l-1.655-2.399c9.476-3.662 18.289-9.037 25.94-15.984z"/></g><path d="m398.114 487.415c-1.928 0-3.859-.066-5.796-.201-20.046-1.391-38.904-9.976-53.101-24.174-14.198-14.198-22.783-33.056-24.173-53.101-1.671-24.082 7.14-47.663 24.173-64.696 17.034-17.034 40.615-25.844 64.697-24.174 20.046 1.391 38.904 9.976 53.101 24.174 14.198 14.198 22.783 33.056 24.173 53.101 1.671 24.082-7.14 47.663-24.173 64.696-15.664 15.664-36.866 24.375-58.901 24.375zm.004-158.533c-19.919 0-39.079 7.871-53.235 22.027-15.394 15.394-23.356 36.708-21.846 58.476 1.257 18.116 9.015 35.159 21.846 47.99 12.83 12.83 29.873 20.589 47.989 21.845 21.77 1.513 43.082-6.452 58.475-21.845 15.394-15.393 23.356-36.707 21.846-58.476-1.257-18.116-9.015-35.159-21.846-47.99-12.83-12.83-29.873-20.589-47.989-21.845-1.75-.122-3.499-.182-5.24-.182z" fill="#31373d"/><path d="m72.859 479.84 93.299-93.182c4.958-5.498 10.141-10.791 15.541-15.871l277.881-257.416c15.805-17.529 47.622-62.048 10.055-95.922-36.367-32.791-78.568 2.364-94.373 19.893l-227.387 302.945c-4.496 5.896-9.226 11.597-14.184 17.095l-83.34 102.162c-6.847-2.219-20.462-3.055-23.62.448-5.938 6.585-1.655 23.619 11.709 35.669s30.749 14.554 36.686 7.969c3.158-3.503.647-17.208-2.267-23.79z" fill="#e9c278"/><path d="m76.154 428.299 84.156-104.193 35.399 33.173-94.842 93.729z" fill="#eaa895"/><g fill="#f9fbfc"><path d="m476.54 31.359c0 1.713 1.389 3.102 3.102 3.102 1.009 0 1.897-.489 2.463-1.235-.855-1.653-1.828-3.295-2.927-4.923-1.491.226-2.638 1.502-2.638 3.056z"/><path d="m479.642 48.257c-1.713 0-3.102 1.389-3.102 3.102s1.389 3.102 3.102 3.102 3.102-1.389 3.102-3.102c.001-1.713-1.388-3.102-3.102-3.102z"/><path d="m479.642 68.257c-1.713 0-3.102 1.389-3.102 3.102s1.389 3.102 3.102 3.102 3.102-1.389 3.102-3.102-1.388-3.102-3.102-3.102z"/><path d="m456.54 11.359c0 1.713 1.389 3.102 3.102 3.102 1.057 0 1.987-.53 2.547-1.337-1.74-.816-3.631-1.643-5.567-2.454-.05.222-.082.452-.082.689z"/><path d="m470.108 17.89c-.03-.001-.059-.009-.089-.009-1.713 0-3.102 1.389-3.102 3.102 0 1.714 1.389 3.102 3.102 3.102s3.102-1.389 3.102-3.102c0-.058-.014-.113-.017-.17-.942-.983-1.944-1.957-2.996-2.923z"/><path d="m459.642 28.257c-1.713 0-3.102 1.389-3.102 3.102s1.389 3.102 3.102 3.102 3.102-1.389 3.102-3.102c.001-1.713-1.388-3.102-3.102-3.102z"/><path d="m470.019 37.881c-1.713 0-3.102 1.389-3.102 3.102 0 1.714 1.389 3.102 3.102 3.102s3.102-1.389 3.102-3.102-1.389-3.102-3.102-3.102z"/><path d="m459.642 48.257c-1.713 0-3.102 1.389-3.102 3.102s1.389 3.102 3.102 3.102 3.102-1.389 3.102-3.102c.001-1.713-1.388-3.102-3.102-3.102z"/><path d="m470.019 57.881c-1.713 0-3.102 1.389-3.102 3.102 0 1.714 1.389 3.102 3.102 3.102s3.102-1.389 3.102-3.102-1.389-3.102-3.102-3.102z"/><path d="m459.642 68.257c-1.713 0-3.102 1.389-3.102 3.102s1.389 3.102 3.102 3.102 3.102-1.389 3.102-3.102-1.388-3.102-3.102-3.102z"/><path d="m470.019 77.881c-1.713 0-3.102 1.389-3.102 3.102 0 1.714 1.389 3.102 3.102 3.102s3.102-1.389 3.102-3.102-1.389-3.102-3.102-3.102z"/><path d="m459.642 88.257c-1.713 0-3.102 1.389-3.102 3.102s1.389 3.102 3.102 3.102 3.102-1.389 3.102-3.102-1.388-3.102-3.102-3.102z"/><path d="m466.917 100.983c0 .891.381 1.688.982 2.254 1.181-1.583 2.373-3.25 3.553-4.99-.431-.226-.913-.366-1.433-.366-1.713 0-3.102 1.389-3.102 3.102z"/><path d="m459.642 108.257c-1.713 0-3.102 1.389-3.102 3.102 0 1.349.866 2.485 2.068 2.912l.973-.901c.911-1.01 1.877-2.114 2.878-3.296-.49-1.07-1.563-1.817-2.817-1.817z"/><path d="m450.019 17.881c-1.713 0-3.102 1.389-3.102 3.102 0 1.714 1.389 3.102 3.102 3.102s3.102-1.389 3.102-3.102-1.389-3.102-3.102-3.102z"/><path d="m450.019 37.881c-1.713 0-3.102 1.389-3.102 3.102 0 1.714 1.389 3.102 3.102 3.102s3.102-1.389 3.102-3.102-1.389-3.102-3.102-3.102z"/><path d="m442.745 51.359c0-.955-.44-1.798-1.118-2.367-.629 1.811-1.309 3.631-2.052 5.462.023 0 .044.007.068.007 1.713 0 3.102-1.388 3.102-3.102z"/><path d="m450.019 57.881c-1.713 0-3.102 1.389-3.102 3.102 0 1.714 1.389 3.102 3.102 3.102s3.102-1.389 3.102-3.102-1.389-3.102-3.102-3.102z"/><path d="m439.642 68.257c-1.713 0-3.102 1.389-3.102 3.102s1.389 3.102 3.102 3.102 3.102-1.389 3.102-3.102-1.388-3.102-3.102-3.102z"/><path d="m450.019 77.881c-1.713 0-3.102 1.389-3.102 3.102 0 1.714 1.389 3.102 3.102 3.102s3.102-1.389 3.102-3.102-1.389-3.102-3.102-3.102z"/><path d="m439.642 88.257c-1.713 0-3.102 1.389-3.102 3.102s1.389 3.102 3.102 3.102 3.102-1.389 3.102-3.102-1.388-3.102-3.102-3.102z"/><path d="m450.019 97.881c-1.713 0-3.102 1.389-3.102 3.102 0 1.714 1.389 3.102 3.102 3.102s3.102-1.389 3.102-3.102-1.389-3.102-3.102-3.102z"/><path d="m439.642 108.257c-1.713 0-3.102 1.389-3.102 3.102s1.389 3.102 3.102 3.102 3.102-1.389 3.102-3.102-1.388-3.102-3.102-3.102z"/><path d="m450.019 117.881c-1.713 0-3.102 1.389-3.102 3.102 0 1.148.631 2.139 1.558 2.675l4.332-4.013c-.501-1.041-1.556-1.764-2.788-1.764z"/><path d="m439.642 128.257c-1.713 0-3.102 1.389-3.102 3.102 0 .941.428 1.774 1.09 2.343l4.506-4.174c-.565-.767-1.468-1.271-2.494-1.271z"/><path d="m430.019 77.881c-1.713 0-3.102 1.389-3.102 3.102 0 1.714 1.389 3.102 3.102 3.102s3.102-1.389 3.102-3.102-1.389-3.102-3.102-3.102z"/><path d="m419.642 94.461c1.713 0 3.102-1.389 3.102-3.102 0-1.279-.775-2.376-1.881-2.851-1.129 1.683-2.278 3.354-3.441 5.013.564.579 1.349.94 2.22.94z"/><path d="m430.019 97.881c-1.713 0-3.102 1.389-3.102 3.102 0 1.714 1.389 3.102 3.102 3.102s3.102-1.389 3.102-3.102-1.389-3.102-3.102-3.102z"/><path d="m419.642 108.257c-1.713 0-3.102 1.389-3.102 3.102s1.389 3.102 3.102 3.102 3.102-1.389 3.102-3.102-1.388-3.102-3.102-3.102z"/><path d="m430.019 117.881c-1.713 0-3.102 1.389-3.102 3.102 0 1.714 1.389 3.102 3.102 3.102s3.102-1.389 3.102-3.102-1.389-3.102-3.102-3.102z"/><path d="m419.642 128.257c-1.713 0-3.102 1.389-3.102 3.102s1.389 3.102 3.102 3.102 3.102-1.389 3.102-3.102c.001-1.713-1.388-3.102-3.102-3.102z"/><path d="m426.917 140.983c0 .753.279 1.434.725 1.971l4.531-4.197c-.558-.54-1.316-.876-2.154-.876-1.713 0-3.102 1.389-3.102 3.102z"/><path d="m416.54 151.359c0 .548.154 1.056.404 1.503l4.412-4.087c-.491-.327-1.08-.519-1.714-.519-1.713.001-3.102 1.39-3.102 3.103z"/><path d="m413.121 100.983c0-.41-.084-.8-.229-1.158-1.048 1.422-2.1 2.835-3.16 4.231.096.009.188.029.286.029 1.714 0 3.103-1.389 3.103-3.102z"/><path d="m410.019 117.881c-1.713 0-3.102 1.389-3.102 3.102 0 1.714 1.389 3.102 3.102 3.102s3.102-1.389 3.102-3.102-1.389-3.102-3.102-3.102z"/><path d="m399.642 128.257c-1.713 0-3.102 1.389-3.102 3.102s1.389 3.102 3.102 3.102 3.102-1.389 3.102-3.102c.001-1.713-1.388-3.102-3.102-3.102z"/><path d="m410.019 137.881c-1.713 0-3.102 1.389-3.102 3.102 0 1.714 1.389 3.102 3.102 3.102s3.102-1.389 3.102-3.102-1.389-3.102-3.102-3.102z"/><path d="m399.642 148.257c-1.713 0-3.102 1.389-3.102 3.102s1.389 3.102 3.102 3.102 3.102-1.389 3.102-3.102c.001-1.713-1.388-3.102-3.102-3.102z"/><path d="m406.917 160.983c0 .353.072.686.18 1.002l4.153-3.847c-.378-.164-.793-.257-1.231-.257-1.713 0-3.102 1.389-3.102 3.102z"/><path d="m396.54 171.359c0 .126.022.246.037.368l3.68-3.409c-.199-.04-.404-.062-.615-.062-1.713.001-3.102 1.39-3.102 3.103z"/><path d="m390.019 137.881c-1.713 0-3.102 1.389-3.102 3.102 0 1.714 1.389 3.102 3.102 3.102s3.102-1.389 3.102-3.102-1.389-3.102-3.102-3.102z"/><path d="m379.642 148.257c-1.713 0-3.102 1.389-3.102 3.102s1.389 3.102 3.102 3.102 3.102-1.389 3.102-3.102c.001-1.713-1.388-3.102-3.102-3.102z"/><path d="m390.019 157.881c-1.713 0-3.102 1.389-3.102 3.102 0 1.714 1.389 3.102 3.102 3.102s3.102-1.389 3.102-3.102-1.389-3.102-3.102-3.102z"/><path d="m379.642 168.257c-1.713 0-3.102 1.389-3.102 3.102s1.389 3.102 3.102 3.102 3.102-1.389 3.102-3.102c.001-1.713-1.388-3.102-3.102-3.102z"/><path d="m386.951 180.644 2.973-2.754c-1.553.048-2.806 1.234-2.973 2.754z"/><path d="m376.883 189.969 1.602-1.484c-.7.282-1.264.815-1.602 1.484z"/><path d="m370.019 157.881c-1.713 0-3.102 1.389-3.102 3.102 0 1.714 1.389 3.102 3.102 3.102s3.102-1.389 3.102-3.102-1.389-3.102-3.102-3.102z"/><path d="m359.642 168.257c-1.713 0-3.102 1.389-3.102 3.102s1.389 3.102 3.102 3.102 3.102-1.389 3.102-3.102c.001-1.713-1.388-3.102-3.102-3.102z"/><path d="m370.019 177.881c-1.713 0-3.102 1.389-3.102 3.102 0 1.714 1.389 3.102 3.102 3.102s3.102-1.389 3.102-3.102-1.389-3.102-3.102-3.102z"/><path d="m359.642 188.257c-1.713 0-3.102 1.389-3.102 3.102s1.389 3.102 3.102 3.102 3.102-1.389 3.102-3.102c.001-1.713-1.388-3.102-3.102-3.102z"/><path d="m350.019 177.881c-1.713 0-3.102 1.389-3.102 3.102 0 1.714 1.389 3.102 3.102 3.102s3.102-1.389 3.102-3.102-1.389-3.102-3.102-3.102z"/><path d="m339.642 188.257c-1.713 0-3.102 1.389-3.102 3.102s1.389 3.102 3.102 3.102 3.102-1.389 3.102-3.102c.001-1.713-1.388-3.102-3.102-3.102z"/><path d="m350.019 197.881c-1.713 0-3.102 1.389-3.102 3.102 0 1.714 1.389 3.102 3.102 3.102s3.102-1.389 3.102-3.102-1.389-3.102-3.102-3.102z"/><path d="m339.642 208.257c-1.713 0-3.102 1.389-3.102 3.102s1.389 3.102 3.102 3.102 3.102-1.389 3.102-3.102c.001-1.713-1.388-3.102-3.102-3.102z"/><path d="m330.019 197.881c-1.713 0-3.102 1.389-3.102 3.102 0 1.714 1.389 3.102 3.102 3.102s3.102-1.389 3.102-3.102-1.389-3.102-3.102-3.102z"/><path d="m319.642 208.257c-1.713 0-3.102 1.389-3.102 3.102s1.389 3.102 3.102 3.102 3.102-1.389 3.102-3.102c.001-1.713-1.388-3.102-3.102-3.102z"/><path d="m330.019 217.881c-1.713 0-3.102 1.389-3.102 3.102 0 1.714 1.389 3.102 3.102 3.102s3.102-1.389 3.102-3.102-1.389-3.102-3.102-3.102z"/><path d="m319.642 228.257c-1.713 0-3.102 1.389-3.102 3.102s1.389 3.102 3.102 3.102 3.102-1.389 3.102-3.102c.001-1.713-1.388-3.102-3.102-3.102z"/><path d="m310.019 217.881c-1.713 0-3.102 1.389-3.102 3.102 0 1.714 1.389 3.102 3.102 3.102s3.102-1.389 3.102-3.102-1.389-3.102-3.102-3.102z"/><path d="m299.642 234.461c1.713 0 3.102-1.389 3.102-3.102s-1.389-3.102-3.102-3.102c-.099 0-.192.02-.289.029l-2.805 3.162c.049 1.672 1.412 3.013 3.094 3.013z"/><path d="m310.019 237.881c-1.713 0-3.102 1.389-3.102 3.102 0 1.714 1.389 3.102 3.102 3.102s3.102-1.389 3.102-3.102-1.389-3.102-3.102-3.102z"/><path d="m299.642 248.257c-1.713 0-3.102 1.389-3.102 3.102s1.389 3.102 3.102 3.102 3.102-1.389 3.102-3.102c.001-1.713-1.388-3.102-3.102-3.102z"/><path d="m290.019 244.085c1.713 0 3.102-1.389 3.102-3.102 0-1.457-1.009-2.671-2.364-3.004l-3.633 4.096c.443 1.172 1.567 2.01 2.895 2.01z"/><path d="m279.642 254.461c1.713 0 3.102-1.389 3.102-3.102 0-1.127-.607-2.105-1.506-2.648l-4.033 4.547c.568.728 1.443 1.203 2.437 1.203z"/><path d="m290.019 257.881c-1.713 0-3.102 1.389-3.102 3.102 0 1.714 1.389 3.102 3.102 3.102s3.102-1.389 3.102-3.102-1.389-3.102-3.102-3.102z"/><path d="m279.642 268.257c-1.713 0-3.102 1.389-3.102 3.102s1.389 3.102 3.102 3.102 3.102-1.389 3.102-3.102c.001-1.713-1.388-3.102-3.102-3.102z"/><path d="m273.121 260.983c0-.832-.332-1.585-.866-2.142l-4.092 4.614c.519.39 1.157.63 1.856.63 1.713 0 3.102-1.389 3.102-3.102z"/><path d="m262.745 271.359c0-.507-.133-.979-.349-1.402l-3.818 4.304c.333.123.689.199 1.065.199 1.713.001 3.102-1.387 3.102-3.101z"/><path d="m270.019 277.881c-1.713 0-3.102 1.389-3.102 3.102 0 1.714 1.389 3.102 3.102 3.102s3.102-1.389 3.102-3.102-1.389-3.102-3.102-3.102z"/><path d="m259.642 288.257c-1.713 0-3.102 1.389-3.102 3.102s1.389 3.102 3.102 3.102 3.102-1.389 3.102-3.102c.001-1.713-1.388-3.102-3.102-3.102z"/><path d="m253.121 280.983c0-.175-.024-.344-.051-.51l-3.192 3.599c.048.002.093.014.141.014 1.713-.001 3.102-1.39 3.102-3.103z"/><path d="m242.586 292.293-1.681 1.895c.802-.359 1.412-1.049 1.681-1.895z"/><path d="m250.019 297.881c-1.713 0-3.102 1.389-3.102 3.102 0 1.714 1.389 3.102 3.102 3.102s3.102-1.389 3.102-3.102-1.389-3.102-3.102-3.102z"/><path d="m239.642 308.257c-1.713 0-3.102 1.389-3.102 3.102s1.389 3.102 3.102 3.102 3.102-1.389 3.102-3.102c.001-1.713-1.388-3.102-3.102-3.102z"/><path d="m226.917 320.983c0 1.714 1.389 3.102 3.102 3.102s3.102-1.389 3.102-3.102-1.389-3.102-3.102-3.102-3.102 1.389-3.102 3.102z"/><path d="m216.54 331.359c0 1.713 1.389 3.102 3.102 3.102s3.102-1.389 3.102-3.102-1.389-3.102-3.102-3.102-3.102 1.389-3.102 3.102z"/><path d="m210.019 337.881c-1.713 0-3.102 1.389-3.102 3.102 0 1.714 1.389 3.102 3.102 3.102.183 0 .36-.023.534-.054l2.46-2.279c.064-.247.108-.503.108-.77 0-1.712-1.389-3.101-3.102-3.101z"/><path d="m199.642 348.257c-1.713 0-3.102 1.389-3.102 3.102 0 1.605 1.224 2.91 2.787 3.07l3.409-3.158c-.048-1.671-1.41-3.014-3.094-3.014z"/></g><path d="m472.319 14.473c-16.785-15.135-37.215-18.476-59.079-9.664-19.905 8.023-35.271 23.548-40.954 29.85-.08.089-.157.182-.229.278l-227.368 302.921c-4.411 5.783-9.112 11.449-13.974 16.842-.044.049-.087.099-.129.15l-81.701 100.152c-7.269-1.669-20.521-2.805-25.13 2.307-8.081 8.963-2.473 28.275 12.002 41.328 9.058 8.167 20.193 12.628 29.241 12.627 5.412 0 10.079-1.597 13.104-4.952 4.549-5.045 1.91-18.317-.566-25.48l91.454-91.339c.049-.049.097-.1.144-.152 4.861-5.391 10.013-10.652 15.289-15.615l277.88-257.416c.088-.082.173-.167.253-.256 7.24-8.029 20.233-24.341 25.906-43.37 6.711-22.508 1.128-42.636-16.143-58.211zm-371.359 431.639-19.59-18.254 38.58-47.294 24.128 22.484zm-31.764 35.35c2.911 6.575 4.231 17.435 2.955 19.485-3.949 4.379-18.716 2.84-31.028-8.261-12.311-11.101-15.366-25.632-11.469-29.959.892-.73 3.604-1.116 6.929-1.116 3.992 0 8.867.557 12.533 1.745 1.571.509 3.296.002 4.34-1.279l22.839-27.997 18.992 17.698-25.259 25.227c-1.172 1.171-1.503 2.942-.832 4.457zm109.758-113.593c-5.432 5.109-10.714 10.502-15.701 16.029l-13.501 13.484-24.725-23.04 11.705-14.349c4.985-5.533 9.805-11.344 14.347-17.3l9.7-12.923 29.564 27.55zm301.83-297.474c-5.193 17.418-17.249 32.587-24.059 40.16l-260.488 241.304-30.62-28.535 212.74-283.432c8.558-9.454 51.476-52.938 88.595-19.468 15.025 13.548 19.678 30.36 13.832 49.971z" fill="#31373d"/></g></svg>