<svg id="Capa_1" enable-background="new 0 0 510.951 510.951" height="512" viewBox="0 0 510.951 510.951" width="512" xmlns="http://www.w3.org/2000/svg"><g><path d="m496.605 403.636-38.197 17.186c-8.961 4.032-19.084.431-22.003-7.825l-20.727-56.65 61.315-24.526 28.214 49.918c4.457 7.67.471 17.815-8.602 21.897z" fill="#eaa895"/><g fill="#31373d"><path d="m238.974 116.118c-.752-7.046-1.469-14.415-2.154-21.755-2.587.798-5.237 1.467-7.922 1.812.653 6.94 1.29 13.446 1.926 19.491 2.725.064 5.438.198 8.15.452z"/><path d=""/><path d=""/></g><path d="m392.163 229.767c-53.47-17.898-128.372-34.726-148.499-66.033-10.247-15.94-14.379-148.42-21.731-154.301-5.441-4.353-99.49-9.312-108.731-.49-1.085 1.035-2.213 5.241-3.326 11.824-34.33-1.056-77.791-1.041-80.236 1.176-3.988 3.615 1.113 95.215-5.45 119.921s-11.033 69.251-10.899 87.195c.133 17.945 5.465 94.894 12.732 107.61 7.266 12.716 81.73 1.593 99.895 5.226 18.166 3.633 103.338 8.042 120.024 9.477 15.917 1.369 71.611-.2 74.242-.275 113.205-.564 164.266-11.372 165.414-58.457.621-25.445-26.55-40.484-93.435-62.873z" fill="#e9c278"/><g fill="#f9fbfc"><path d="m481.534 285.787c-1.713 0-3.102 1.389-3.102 3.103s1.389 3.102 3.102 3.102 3.102-1.389 3.102-3.102-1.388-3.103-3.102-3.103z"/><path d="m478.432 308.889c0 1.679 1.336 3.038 3.002 3.092.809-1.748 1.497-3.572 2.069-5.471-.537-.445-1.217-.724-1.969-.724-1.713.001-3.102 1.39-3.102 3.103z"/><path d="m471.911 275.41c-1.713 0-3.102 1.389-3.102 3.103 0 1.713 1.389 3.102 3.102 3.102s3.102-1.389 3.102-3.102-1.389-3.103-3.102-3.103z"/><path d="m461.534 285.787c-1.713 0-3.102 1.389-3.102 3.103s1.389 3.102 3.102 3.102 3.102-1.389 3.102-3.102-1.388-3.103-3.102-3.103z"/><path d="m471.911 295.41c-1.713 0-3.102 1.389-3.102 3.103 0 1.713 1.389 3.102 3.102 3.102s3.102-1.389 3.102-3.102-1.389-3.103-3.102-3.103z"/><path d="m461.534 305.787c-1.713 0-3.102 1.389-3.102 3.103s1.389 3.102 3.102 3.102 3.102-1.389 3.102-3.102-1.388-3.103-3.102-3.103z"/><path d="m471.911 315.41c-1.713 0-3.102 1.389-3.102 3.103 0 1.713 1.389 3.102 3.102 3.102s3.102-1.389 3.102-3.102-1.389-3.103-3.102-3.103z"/><path d="m461.534 325.787c-1.713 0-3.102 1.389-3.102 3.103s1.389 3.102 3.102 3.102c.211 0 .417-.022.616-.062.587-.336 1.162-.679 1.726-1.027.467-.543.76-1.241.76-2.013.001-1.714-1.388-3.103-3.102-3.103z"/><path d="m441.534 291.992c1.713 0 3.102-1.389 3.102-3.102 0-.177-.024-.348-.052-.517-1.759.822-3.608 1.602-5.549 2.34.564.772 1.47 1.279 2.499 1.279z"/><path d="m451.911 295.41c-1.713 0-3.102 1.389-3.102 3.103 0 1.713 1.389 3.102 3.102 3.102s3.102-1.389 3.102-3.102-1.389-3.103-3.102-3.103z"/><path d="m441.534 305.787c-1.713 0-3.102 1.389-3.102 3.103s1.389 3.102 3.102 3.102 3.102-1.389 3.102-3.102-1.388-3.103-3.102-3.103z"/><path d="m451.911 315.41c-1.713 0-3.102 1.389-3.102 3.103 0 1.713 1.389 3.102 3.102 3.102s3.102-1.389 3.102-3.102-1.389-3.103-3.102-3.103z"/><path d="m441.534 325.787c-1.713 0-3.102 1.389-3.102 3.103s1.389 3.102 3.102 3.102 3.102-1.389 3.102-3.102-1.388-3.103-3.102-3.103z"/><path d="m451.911 335.41c-1.524 0-2.785 1.102-3.047 2.551 1.697-.612 3.334-1.25 4.91-1.915-.52-.393-1.161-.636-1.863-.636z"/><path d="m431.911 295.41c-1.713 0-3.102 1.389-3.102 3.103 0 1.713 1.389 3.102 3.102 3.102s3.102-1.389 3.102-3.102-1.389-3.103-3.102-3.103z"/><path d="m421.534 305.787c-1.713 0-3.102 1.389-3.102 3.103s1.389 3.102 3.102 3.102 3.102-1.389 3.102-3.102-1.388-3.103-3.102-3.103z"/><path d="m431.911 315.41c-1.713 0-3.102 1.389-3.102 3.103 0 1.713 1.389 3.102 3.102 3.102s3.102-1.389 3.102-3.102-1.389-3.103-3.102-3.103z"/><path d="m421.534 325.787c-1.713 0-3.102 1.389-3.102 3.103s1.389 3.102 3.102 3.102 3.102-1.389 3.102-3.102-1.388-3.103-3.102-3.103z"/><path d="m431.911 335.41c-1.713 0-3.102 1.389-3.102 3.103 0 1.713 1.389 3.102 3.102 3.102s3.102-1.389 3.102-3.102-1.389-3.103-3.102-3.103z"/><path d="m411.911 301.615c1.713 0 3.102-1.389 3.102-3.102 0-.516-.138-.995-.361-1.423-1.879.331-3.807.647-5.796.945-.024.157-.048.314-.048.478.001 1.713 1.39 3.102 3.103 3.102z"/><path d="m401.534 305.787c-1.713 0-3.102 1.389-3.102 3.103s1.389 3.102 3.102 3.102 3.102-1.389 3.102-3.102-1.388-3.103-3.102-3.103z"/><path d="m411.911 315.41c-1.713 0-3.102 1.389-3.102 3.103 0 1.713 1.389 3.102 3.102 3.102s3.102-1.389 3.102-3.102-1.389-3.103-3.102-3.103z"/><path d="m401.534 325.787c-1.713 0-3.102 1.389-3.102 3.103s1.389 3.102 3.102 3.102 3.102-1.389 3.102-3.102-1.388-3.103-3.102-3.103z"/><path d="m411.911 335.41c-1.713 0-3.102 1.389-3.102 3.103 0 1.713 1.389 3.102 3.102 3.102s3.102-1.389 3.102-3.102-1.389-3.103-3.102-3.103z"/><path d="m401.534 345.787c-1.356 0-2.496.876-2.918 2.087 1.887-.188 3.736-.387 5.559-.594-.545-.892-1.519-1.493-2.641-1.493z"/><path d="m391.911 301.615c1.258 0 2.336-.752 2.823-1.829-1.751.178-3.533.348-5.357.508.562.797 1.485 1.321 2.534 1.321z"/><path d="m381.534 305.787c-1.713 0-3.102 1.389-3.102 3.103s1.389 3.102 3.102 3.102 3.102-1.389 3.102-3.102-1.388-3.103-3.102-3.103z"/><path d="m391.911 315.41c-1.713 0-3.102 1.389-3.102 3.103 0 1.713 1.389 3.102 3.102 3.102s3.102-1.389 3.102-3.102-1.389-3.103-3.102-3.103z"/><path d="m381.534 325.787c-1.713 0-3.102 1.389-3.102 3.103s1.389 3.102 3.102 3.102 3.102-1.389 3.102-3.102-1.388-3.103-3.102-3.103z"/><path d="m391.911 335.41c-1.713 0-3.102 1.389-3.102 3.103 0 1.713 1.389 3.102 3.102 3.102s3.102-1.389 3.102-3.102-1.389-3.103-3.102-3.103z"/><path d="m384.637 348.889c0-1.713-1.389-3.103-3.102-3.103s-3.102 1.389-3.102 3.103c0 .195.023.384.057.569 2.079-.126 4.116-.262 6.131-.405.002-.055.016-.107.016-.164z"/><path d="m372.849 301.455c-.53.029-1.063.058-1.598.086.213.046.433.074.66.074.329 0 .64-.065.938-.16z"/><path d="m361.534 305.787c-1.713 0-3.102 1.389-3.102 3.103s1.389 3.102 3.102 3.102 3.102-1.389 3.102-3.102-1.388-3.103-3.102-3.103z"/><path d="m371.911 315.41c-1.713 0-3.102 1.389-3.102 3.103 0 1.713 1.389 3.102 3.102 3.102s3.102-1.389 3.102-3.102-1.389-3.103-3.102-3.103z"/><path d="m361.534 325.787c-1.713 0-3.102 1.389-3.102 3.103s1.389 3.102 3.102 3.102 3.102-1.389 3.102-3.102-1.388-3.103-3.102-3.103z"/><path d="m371.911 335.41c-1.713 0-3.102 1.389-3.102 3.103 0 1.713 1.389 3.102 3.102 3.102s3.102-1.389 3.102-3.102-1.389-3.103-3.102-3.103z"/><path d="m364.637 348.889c0-1.713-1.389-3.103-3.102-3.103s-3.102 1.389-3.102 3.103c0 .544.152 1.047.398 1.492 1.861-.065 3.704-.135 5.522-.21.178-.391.284-.823.284-1.282z"/><path d="m341.534 305.787c-1.713 0-3.102 1.389-3.102 3.103s1.389 3.102 3.102 3.102 3.102-1.389 3.102-3.102-1.388-3.103-3.102-3.103z"/><path d="m351.911 315.41c-1.713 0-3.102 1.389-3.102 3.103 0 1.713 1.389 3.102 3.102 3.102s3.102-1.389 3.102-3.102-1.389-3.103-3.102-3.103z"/><path d="m341.534 325.787c-1.713 0-3.102 1.389-3.102 3.103s1.389 3.102 3.102 3.102 3.102-1.389 3.102-3.102-1.388-3.103-3.102-3.103z"/><path d="m351.911 335.41c-1.713 0-3.102 1.389-3.102 3.103 0 1.713 1.389 3.102 3.102 3.102s3.102-1.389 3.102-3.102-1.389-3.103-3.102-3.103z"/><path d="m344.637 348.889c0-1.713-1.389-3.103-3.102-3.103s-3.102 1.389-3.102 3.103c0 .765.288 1.457.747 1.997 1.61-.028 3.206-.058 4.787-.092.413-.526.67-1.182.67-1.905z"/><path d="m331.911 315.41c-1.713 0-3.102 1.389-3.102 3.103 0 1.713 1.389 3.102 3.102 3.102s3.102-1.389 3.102-3.102-1.389-3.103-3.102-3.103z"/><path d="m331.911 341.615c1.713 0 3.102-1.389 3.102-3.102s-1.389-3.103-3.102-3.103-3.102 1.389-3.102 3.103c0 1.713 1.389 3.102 3.102 3.102z"/><path d="m323.738 351.071c.555-.561.899-1.331.899-2.182 0-1.713-1.389-3.103-3.102-3.103s-3.102 1.389-3.102 3.103c0 .876.367 1.665.952 2.229.394-.011.67-.018.802-.022.561-.003 1.182-.638 1.841-1.752l-.416 1.743c.714-.005 1.416-.011 2.126-.016z"/><path d="m321.534 311.992c1.713 0 3.102-1.389 3.102-3.102s-1.389-3.103-3.102-3.103-3.102 1.389-3.102 3.103 1.389 3.102 3.102 3.102z"/><path d="m321.534 331.992c1.713 0 3.102-1.389 3.102-3.102s-1.389-3.103-3.102-3.103-3.102 1.389-3.102 3.103 1.389 3.102 3.102 3.102z"/><path d="m301.534 305.787c-1.713 0-3.102 1.389-3.102 3.103s1.389 3.102 3.102 3.102 3.102-1.389 3.102-3.102-1.388-3.103-3.102-3.103z"/><path d="m308.809 318.513c0 1.713 1.389 3.102 3.102 3.102s3.102-1.389 3.102-3.102-1.389-3.103-3.102-3.103-3.102 1.39-3.102 3.103z"/><path d="m301.534 325.787c-1.713 0-3.102 1.389-3.102 3.103s1.389 3.102 3.102 3.102 3.102-1.389 3.102-3.102-1.388-3.103-3.102-3.103z"/><path d="m311.911 341.615c1.713 0 3.102-1.389 3.102-3.102s-1.389-3.103-3.102-3.103-3.102 1.389-3.102 3.103c0 1.713 1.389 3.102 3.102 3.102z"/><path d="m304.637 348.889c0-1.713-1.389-3.103-3.102-3.103s-3.102 1.389-3.102 3.103c0 1.153.636 2.147 1.57 2.682 1.089-.021 2.15-.042 3.183-.064.869-.549 1.451-1.513 1.451-2.618z"/><path d="m281.534 305.787c-1.713 0-3.102 1.389-3.102 3.103s1.389 3.102 3.102 3.102 3.102-1.389 3.102-3.102-1.388-3.103-3.102-3.103z"/><path d="m291.911 315.41c-1.713 0-3.102 1.389-3.102 3.103 0 1.713 1.389 3.102 3.102 3.102s3.102-1.389 3.102-3.102-1.389-3.103-3.102-3.103z"/><path d="m281.534 325.787c-1.713 0-3.102 1.389-3.102 3.103s1.389 3.102 3.102 3.102 3.102-1.389 3.102-3.102-1.388-3.103-3.102-3.103z"/><path d="m291.911 335.41c-1.713 0-3.102 1.389-3.102 3.103 0 1.713 1.389 3.102 3.102 3.102s3.102-1.389 3.102-3.102-1.389-3.103-3.102-3.103z"/><path d="m284.637 348.889c0-1.713-1.389-3.103-3.102-3.103s-3.102 1.389-3.102 3.103c0 1.423.964 2.609 2.27 2.975.575-.005 1.149-.012 1.724-.018 1.274-.385 2.21-1.555 2.21-2.957z"/><path d="m261.534 305.787c-1.713 0-3.102 1.389-3.102 3.103s1.389 3.102 3.102 3.102 3.102-1.389 3.102-3.102-1.388-3.103-3.102-3.103z"/><path d="m268.809 318.513c0 1.713 1.389 3.102 3.102 3.102s3.102-1.389 3.102-3.102-1.389-3.103-3.102-3.103-3.102 1.39-3.102 3.103z"/><path d="m261.534 331.992c1.713 0 3.102-1.389 3.102-3.102s-1.389-3.103-3.102-3.103-3.102 1.389-3.102 3.103 1.389 3.102 3.102 3.102z"/><path d="m271.911 341.615c1.713 0 3.102-1.389 3.102-3.102s-1.389-3.103-3.102-3.103-3.102 1.389-3.102 3.103c0 1.713 1.389 3.102 3.102 3.102z"/><path d="m264.637 348.889c0-1.713-1.389-3.103-3.102-3.103s-3.102 1.389-3.102 3.103c0 1.454 1.004 2.664 2.353 3 .479.005.963.01 1.453.014 1.372-.319 2.398-1.543 2.398-3.014z"/><path d="m241.534 305.787c-1.713 0-3.102 1.389-3.102 3.103s1.389 3.102 3.102 3.102 3.102-1.389 3.102-3.102-1.388-3.103-3.102-3.103z"/><path d="m248.809 318.513c0 1.713 1.389 3.102 3.102 3.102s3.102-1.389 3.102-3.102-1.389-3.103-3.102-3.103-3.102 1.39-3.102 3.103z"/><path d="m241.534 331.992c1.713 0 3.102-1.389 3.102-3.102s-1.389-3.103-3.102-3.103-3.102 1.389-3.102 3.103 1.389 3.102 3.102 3.102z"/><path d="m251.911 341.615c1.713 0 3.102-1.389 3.102-3.102s-1.389-3.103-3.102-3.103-3.102 1.389-3.102 3.103c0 1.713 1.389 3.102 3.102 3.102z"/><path d="m244.637 348.889c0-1.713-1.389-3.103-3.102-3.103s-3.102 1.389-3.102 3.103c0 .755.281 1.438.729 1.976 1.678.116 3.167.222 4.445.319.627-.567 1.03-1.381 1.03-2.295z"/><path d="m221.534 305.787c-1.713 0-3.102 1.389-3.102 3.103s1.389 3.102 3.102 3.102 3.102-1.389 3.102-3.102-1.388-3.103-3.102-3.103z"/><path d="m231.911 315.41c-1.713 0-3.102 1.389-3.102 3.103 0 1.713 1.389 3.102 3.102 3.102s3.102-1.389 3.102-3.102-1.389-3.103-3.102-3.103z"/><path d="m221.534 325.787c-1.713 0-3.102 1.389-3.102 3.103s1.389 3.102 3.102 3.102 3.102-1.389 3.102-3.102-1.388-3.103-3.102-3.103z"/><path d="m231.911 335.41c-1.713 0-3.102 1.389-3.102 3.103 0 1.713 1.389 3.102 3.102 3.102s3.102-1.389 3.102-3.102-1.389-3.103-3.102-3.103z"/><path d="m224.637 348.889c0-1.713-1.389-3.103-3.102-3.103s-3.102 1.389-3.102 3.103c0 .22.024.434.068.641 2.053.129 4.041.255 5.952.376.111-.32.184-.658.184-1.017z"/><path d="m201.534 305.787c-1.713 0-3.102 1.389-3.102 3.103s1.389 3.102 3.102 3.102 3.102-1.389 3.102-3.102-1.388-3.103-3.102-3.103z"/><path d="m211.911 315.41c-1.713 0-3.102 1.389-3.102 3.103 0 1.713 1.389 3.102 3.102 3.102s3.102-1.389 3.102-3.102-1.389-3.103-3.102-3.103z"/><path d="m201.534 325.787c-1.713 0-3.102 1.389-3.102 3.103s1.389 3.102 3.102 3.102 3.102-1.389 3.102-3.102-1.388-3.103-3.102-3.103z"/><path d="m211.911 335.41c-1.713 0-3.102 1.389-3.102 3.103 0 1.713 1.389 3.102 3.102 3.102s3.102-1.389 3.102-3.102-1.389-3.103-3.102-3.103z"/><path d="m201.534 345.787c-1.495 0-2.742 1.058-3.036 2.466 2.061.134 4.1.266 6.114.395-.125-1.599-1.447-2.861-3.078-2.861z"/><path d="m191.911 301.615c.917 0 1.732-.405 2.3-1.038-1.602-.103-3.223-.207-4.859-.312.56.814 1.496 1.35 2.559 1.35z"/><path d="m181.534 305.787c-1.713 0-3.102 1.389-3.102 3.103s1.389 3.102 3.102 3.102 3.102-1.389 3.102-3.102-1.388-3.103-3.102-3.103z"/><path d="m191.911 315.41c-1.713 0-3.102 1.389-3.102 3.103 0 1.713 1.389 3.102 3.102 3.102s3.102-1.389 3.102-3.102-1.389-3.103-3.102-3.103z"/><path d="m181.534 325.787c-1.713 0-3.102 1.389-3.102 3.103s1.389 3.102 3.102 3.102 3.102-1.389 3.102-3.102-1.388-3.103-3.102-3.103z"/><path d="m191.911 335.41c-1.713 0-3.102 1.389-3.102 3.103 0 1.713 1.389 3.102 3.102 3.102s3.102-1.389 3.102-3.102-1.389-3.103-3.102-3.103z"/><path d="m181.534 345.787c-.976 0-1.836.46-2.404 1.165 1.681.117 3.368.234 5.056.349-.542-.903-1.521-1.514-2.652-1.514z"/><path d="m171.911 301.615c1.436 0 2.633-.98 2.986-2.306-2.019-.136-4.038-.275-6.05-.415.19 1.532 1.481 2.721 3.064 2.721z"/><path d="m161.534 305.787c-1.713 0-3.102 1.389-3.102 3.103s1.389 3.102 3.102 3.102 3.102-1.389 3.102-3.102-1.388-3.103-3.102-3.103z"/><path d="m171.911 315.41c-1.713 0-3.102 1.389-3.102 3.103 0 1.713 1.389 3.102 3.102 3.102s3.102-1.389 3.102-3.102-1.389-3.103-3.102-3.103z"/><path d="m161.534 325.787c-1.713 0-3.102 1.389-3.102 3.103s1.389 3.102 3.102 3.102 3.102-1.389 3.102-3.102-1.388-3.103-3.102-3.103z"/><path d="m171.911 335.41c-1.713 0-3.102 1.389-3.102 3.103 0 1.713 1.389 3.102 3.102 3.102s3.102-1.389 3.102-3.102-1.389-3.103-3.102-3.103z"/><path d="m151.911 301.615c1.713 0 3.102-1.389 3.102-3.102 0-.213-.022-.421-.062-.621-2.011-.151-3.995-.304-5.939-.457-.125.337-.203.697-.203 1.078 0 1.713 1.389 3.102 3.102 3.102z"/><path d="m141.534 305.787c-1.713 0-3.102 1.389-3.102 3.103s1.389 3.102 3.102 3.102 3.102-1.389 3.102-3.102-1.388-3.103-3.102-3.103z"/><path d="m151.911 315.41c-1.713 0-3.102 1.389-3.102 3.103 0 1.713 1.389 3.102 3.102 3.102s3.102-1.389 3.102-3.102-1.389-3.103-3.102-3.103z"/><path d="m141.534 325.787c-1.713 0-3.102 1.389-3.102 3.103s1.389 3.102 3.102 3.102 3.102-1.389 3.102-3.102-1.388-3.103-3.102-3.103z"/><path d="m151.911 335.41c-1.713 0-3.102 1.389-3.102 3.103 0 1.713 1.389 3.102 3.102 3.102s3.102-1.389 3.102-3.102-1.389-3.103-3.102-3.103z"/><path d="m128.809 298.513c0 1.713 1.389 3.102 3.102 3.102s3.102-1.389 3.102-3.102c0-.954-.439-1.796-1.116-2.365-1.196-.112-2.359-.224-3.485-.335-.952.529-1.603 1.533-1.603 2.7z"/><path d="m121.534 305.787c-1.713 0-3.102 1.389-3.102 3.103s1.389 3.102 3.102 3.102 3.102-1.389 3.102-3.102-1.388-3.103-3.102-3.103z"/><path d="m131.911 315.41c-1.713 0-3.102 1.389-3.102 3.103 0 1.713 1.389 3.102 3.102 3.102s3.102-1.389 3.102-3.102-1.389-3.103-3.102-3.103z"/><path d="m124.637 328.889c0-1.713-1.389-3.103-3.102-3.103s-3.102 1.389-3.102 3.103 1.389 3.102 3.102 3.102 3.102-1.388 3.102-3.102z"/><path d="m131.911 341.615c1.713 0 3.102-1.389 3.102-3.102s-1.389-3.103-3.102-3.103-3.102 1.389-3.102 3.103c0 1.713 1.389 3.102 3.102 3.102z"/><path d="m111.911 295.41c-1.713 0-3.102 1.389-3.102 3.103 0 1.713 1.389 3.102 3.102 3.102s3.102-1.389 3.102-3.102-1.389-3.103-3.102-3.103z"/><path d="m101.534 305.787c-1.713 0-3.102 1.389-3.102 3.103s1.389 3.102 3.102 3.102 3.102-1.389 3.102-3.102-1.388-3.103-3.102-3.103z"/><path d="m111.911 315.41c-1.713 0-3.102 1.389-3.102 3.103 0 1.713 1.389 3.102 3.102 3.102s3.102-1.389 3.102-3.102-1.389-3.103-3.102-3.103z"/><path d="m101.534 325.787c-1.713 0-3.102 1.389-3.102 3.103s1.389 3.102 3.102 3.102 3.102-1.389 3.102-3.102-1.388-3.103-3.102-3.103z"/><path d="m115.013 338.513c0-1.713-1.389-3.103-3.102-3.103s-3.102 1.389-3.102 3.103c0 1.125.605 2.101 1.501 2.645 1.122-.019 2.21-.03 3.26-.032.866-.55 1.443-1.512 1.443-2.613z"/><path d="m91.911 295.41c-1.713 0-3.102 1.389-3.102 3.103 0 1.713 1.389 3.102 3.102 3.102s3.102-1.389 3.102-3.102-1.389-3.103-3.102-3.103z"/><path d="m81.534 305.787c-1.713 0-3.102 1.389-3.102 3.103s1.389 3.102 3.102 3.102 3.102-1.389 3.102-3.102-1.388-3.103-3.102-3.103z"/><path d="m91.911 315.41c-1.713 0-3.102 1.389-3.102 3.103 0 1.713 1.389 3.102 3.102 3.102s3.102-1.389 3.102-3.102-1.389-3.103-3.102-3.103z"/><path d="m81.534 325.787c-1.713 0-3.102 1.389-3.102 3.103s1.389 3.102 3.102 3.102 3.102-1.389 3.102-3.102-1.388-3.103-3.102-3.103z"/><path d="m91.911 335.41c-1.713 0-3.102 1.389-3.102 3.103 0 1.713 1.389 3.102 3.102 3.102s3.102-1.389 3.102-3.102-1.389-3.103-3.102-3.103z"/><path d="m71.911 295.41c-1.713 0-3.102 1.389-3.102 3.103 0 1.713 1.389 3.102 3.102 3.102s3.102-1.389 3.102-3.102-1.389-3.103-3.102-3.103z"/><path d="m58.432 308.889c0 1.713 1.389 3.102 3.102 3.102s3.102-1.389 3.102-3.102-1.389-3.103-3.102-3.103-3.102 1.39-3.102 3.103z"/><path d="m71.911 315.41c-1.713 0-3.102 1.389-3.102 3.103 0 1.713 1.389 3.102 3.102 3.102s3.102-1.389 3.102-3.102-1.389-3.103-3.102-3.103z"/><path d="m61.534 331.992c1.713 0 3.102-1.389 3.102-3.102s-1.389-3.103-3.102-3.103-3.102 1.389-3.102 3.103 1.389 3.102 3.102 3.102z"/><path d="m71.911 335.41c-1.713 0-3.102 1.389-3.102 3.103 0 1.713 1.389 3.102 3.102 3.102s3.102-1.389 3.102-3.102-1.389-3.103-3.102-3.103z"/><path d="m51.911 295.41c-1.713 0-3.102 1.389-3.102 3.103 0 1.713 1.389 3.102 3.102 3.102s3.102-1.389 3.102-3.102-1.389-3.103-3.102-3.103z"/><path d="m41.534 305.787c-1.713 0-3.102 1.389-3.102 3.103s1.389 3.102 3.102 3.102 3.102-1.389 3.102-3.102-1.388-3.103-3.102-3.103z"/><path d="m51.911 321.615c1.713 0 3.102-1.389 3.102-3.102s-1.389-3.103-3.102-3.103-3.102 1.389-3.102 3.103c0 1.713 1.389 3.102 3.102 3.102z"/><path d="m41.534 325.787c-1.713 0-3.102 1.389-3.102 3.103s1.389 3.102 3.102 3.102 3.102-1.389 3.102-3.102-1.388-3.103-3.102-3.103z"/><path d="m51.911 341.615c1.713 0 3.102-1.389 3.102-3.102s-1.389-3.103-3.102-3.103-3.102 1.389-3.102 3.103c0 1.713 1.389 3.102 3.102 3.102z"/><path d="m31.911 295.41c-1.713 0-3.102 1.389-3.102 3.103 0 1.713 1.389 3.102 3.102 3.102s3.102-1.389 3.102-3.102-1.389-3.103-3.102-3.103z"/><path d="m21.534 305.787c-.803 0-1.528.313-2.078.814.229 1.726.464 3.415.704 5.056.416.207.878.335 1.375.335 1.713 0 3.102-1.389 3.102-3.102s-1.389-3.103-3.103-3.103z"/><path d="m31.911 315.41c-1.713 0-3.102 1.389-3.102 3.103 0 1.713 1.389 3.102 3.102 3.102s3.102-1.389 3.102-3.102-1.389-3.103-3.102-3.103z"/><path d="m22.672 326.009c.39 1.8.789 3.444 1.196 4.904.473-.544.769-1.246.769-2.024 0-1.311-.816-2.426-1.965-2.88z"/><path d="m35.013 338.513c0-1.713-1.389-3.103-3.102-3.103s-3.102 1.389-3.102 3.103c0 .249.037.487.092.719 1.299.704 2.937 1.286 4.852 1.765.761-.566 1.26-1.463 1.26-2.484z"/></g><path d="" fill="#31373d"/><path d="m362.273 409.252c-13.545 0-25.128 8.532-29.673 20.501h-86.571c-4.546-11.969-16.129-20.501-29.673-20.501s-25.127 8.532-29.673 20.501h-86.443c-4.543-11.942-16.104-20.453-29.621-20.453-17.47 0-31.684 14.213-31.684 31.684s14.213 31.684 31.684 31.684c13.517 0 25.078-8.511 29.621-20.453h86.443c4.545 11.969 16.129 20.502 29.673 20.502s25.128-8.533 29.673-20.502h86.571c4.545 11.969 16.129 20.502 29.673 20.502 17.497 0 31.732-14.235 31.732-31.733 0-17.497-14.235-31.732-31.732-31.732z" fill="#f9fbfc"/><path d="m362.273 371.018c-31.886 0-58.834 21.45-67.233 50.672h-11.453c-8.398-29.222-35.346-50.672-67.232-50.672s-58.834 21.45-67.232 50.672h-11.272c-8.398-29.222-35.346-50.672-67.232-50.672-38.58 0-69.967 31.387-69.967 69.967s31.387 69.967 69.967 69.967c31.887 0 58.834-21.45 67.232-50.672h11.272c8.398 29.222 35.346 50.672 67.232 50.672s58.834-21.45 67.232-50.672h11.453c8.398 29.222 35.346 50.672 67.233 50.672 38.58 0 69.966-31.387 69.966-69.967.001-38.58-31.386-69.967-69.966-69.967zm-145.917 38.234c10.242 0 19.356 4.883 25.16 12.438h-50.32c5.805-7.555 14.919-12.438 25.16-12.438zm-145.736 63.417c-17.47 0-31.684-14.213-31.684-31.684s14.213-31.684 31.684-31.684c10.213 0 19.303 4.863 25.099 12.389h-16.758c-10.448 0-18.947 8.5-18.947 18.947v.696c0 10.447 8.499 18.947 18.947 18.947h16.758c-5.796 7.525-14.887 12.389-25.099 12.389zm145.736.048c-10.241 0-19.356-4.884-25.16-12.438h50.32c-5.804 7.555-14.918 12.438-25.16 12.438zm29.673-20.501h-59.346-86.443-21.28c-6.001 0-10.883-4.882-10.883-10.883v-.696c0-6.001 4.882-10.883 10.883-10.883h21.28 86.443 59.346 86.571 20.478c6.001 0 10.883 4.882 10.883 10.883v.696c0 6.001-4.882 10.883-10.883 10.883h-20.478zm116.244 20.501c-10.242 0-19.356-4.884-25.16-12.438h15.965c10.447 0 18.947-8.5 18.947-18.947v-.696c0-10.447-8.5-18.947-18.947-18.947h-15.965c5.804-7.554 14.918-12.438 25.16-12.438 17.497 0 31.732 14.235 31.732 31.732 0 17.499-14.235 31.734-31.732 31.734z" fill="#31373d"/><path d="m240.784 84.325c.969 4.878-2.496 9.523-7.448 9.986l-145.211 13.57c-12.41 1.104-23.366-8.062-24.469-20.472-1.104-12.41 8.062-23.366 20.472-24.47l144.686-14.33c4.281-.401 8.173 2.501 9.01 6.719z" fill="#eaa895"/><path d="m246.628 148.659c.969 4.878-2.496 9.523-7.448 9.986l-140.497 13.939c-12.41 1.104-23.366-8.062-24.469-20.472-1.104-12.41 8.062-23.366 20.472-24.469l139.199-13.649c4.282-.401 8.173 2.501 9.01 6.719z" fill="#eaa895"/><path d="m507.966 379.574-19.642-35.103c.319-.192.643-.383.947-.576 7.433-4.73 9.625-14.59 4.895-22.023-2.307-3.624-5.836-5.991-9.705-6.928 3.259-6.46 4.965-13.832 5.169-22.206.711-29.182-30.449-44.79-96.187-66.794-10.549-3.532-21.699-6.951-33.505-10.571-45.704-14.016-97.507-29.901-112.882-53.818-.278-.433-.553-.988-.825-1.643.787-.64 1.508-1.367 2.125-2.193 2.061-2.764 2.881-6.274 2.261-9.661l-3.124-27.796-.052-.335c-1.245-6.266-6.974-10.541-13.357-9.946l-75.687 7.391c-.062-4.003-.119-8.002-.169-11.991l75.483-7.054c3.495-.326 6.702-2.127 8.801-4.941 2.057-2.758 2.878-6.259 2.266-9.64l-2.941-28.826-.057-.375c-.989-4.983-4.823-8.698-9.559-9.715-2.74-26.972-4.574-35.989-7.768-38.544-5.857-4.686-53.333-6.013-55.351-6.067-33.946-.911-53.688 1.043-58.683 5.809-.92.878-2.236 2.163-3.895 10.607-5.228-.147-10.673-.271-16.211-.367-15.484-.268-29.945-.284-40.717-.047-20.139.446-21.365 1.557-22.663 2.733-2.698 2.446-3.072 7.959-3.077 45.379-.004 28.122-.009 63.122-3.561 76.496-6.597 24.832-11.17 69.957-11.035 88.26.101 13.557 4.577 87.538 12.1 107.037-2.832 2.495-4.807 5.984-5.299 10.025-1.066 8.746 5.161 16.699 13.907 17.765 2.438.297 60.184 7.207 100.254 1.039 4.477-.579 24.632 1.191 42.412 2.752 30.728 2.699 71.958 6.322 110.504 6.321 3.104 0 6.198-.024 9.26-.073 34.888-.562 81.6-3.814 121.645-9.762l18.547 49.612c1.66 4.697 5.193 8.402 9.946 10.435 2.546 1.089 5.3 1.631 8.092 1.631 3.093 0 6.232-.666 9.182-1.993l37.783-16.999c5.686-2.558 9.983-7.252 11.791-12.877 1.6-4.977 1.084-10.122-1.418-14.428zm-273.115-261.567c.139-.013.277-.02.414-.02 2.015 0 3.775 1.383 4.236 3.37l3.119 27.752.052.335c.243 1.225-.034 2.452-.781 3.453s-1.843 1.617-3.11 1.735l-140.456 13.936c-4.922.44-9.734-1.068-13.53-4.244s-6.128-7.64-6.566-12.569 1.069-9.734 4.245-13.53c3.175-3.796 7.639-6.128 12.603-6.569zm1.921-33.272.057.376c.243 1.226-.034 2.452-.781 3.454-.747 1.001-1.843 1.617-3.087 1.733l-145.193 13.567c-10.174.914-19.191-6.637-20.096-16.813-.438-4.929 1.069-9.734 4.245-13.53 3.175-3.796 7.639-6.128 12.609-6.57l144.664-14.328c.139-.013.277-.019.414-.019 2.01 0 3.765 1.375 4.232 3.352zm-120.629-72.994c2.415-1.664 15.902-4.375 51.556-3.493 26.672.661 47.242 2.906 51.546 4.353 1.602 3.471 3.296 16.729 4.901 32.42l-66.657 6.602c-.609-27.825-1.526-29.591-3.858-31.189-1.158-.793-2.599-1.781-22.487-2.839-4.921-.262-10.494-.5-16.488-.707.522-2.521 1.023-4.278 1.487-5.147zm175.741 330.313c-39.44.638-83.951-3.274-116.458-6.129-28.514-2.504-42.55-3.655-50.017-2.509-35.735 5.497-91.032-1.105-91.586-1.171-1.808-.22-3.576-.112-5.263.249-5.961-16.312-11.089-83.605-11.236-103.464-.132-17.867 4.329-61.905 10.764-86.13 3.823-14.391 3.828-48.484 3.832-78.564.003-15.909.005-33.749.861-39.143 13.603-2.204 101.132-.806 115.428 1.843.606 3.782.981 13.423 1.241 25.384l-65.679 6.505c-7.075.629-13.481 3.976-18.039 9.423-4.558 5.448-6.721 12.344-6.092 19.42 1.229 13.807 12.858 24.236 26.48 24.235.787 0 1.582-.035 2.381-.106l61.673-5.764c.051 4.003.109 8.014.172 12.024l-56.016 5.47c-7.075.629-13.481 3.976-18.039 9.423-4.558 5.448-6.722 12.344-6.092 19.419.629 7.075 3.976 13.481 9.423 18.039 4.826 4.038 10.789 6.196 17.034 6.196.805 0 1.614-.036 2.426-.108l52.997-5.258c1.483 22.644 3.606 26.387 5.837 28.171 8.399 6.718 49.078 24.335 84.968 39.876 4.835 2.094 9.549 4.135 14.038 6.087l4.355 1.892c19.392 8.424 37.709 16.381 50.553 23.474 16.5 9.113 18.964 14.156 18.964 16.351 0 8.315-7.219 36.64-11.936 53.987-9.088.435-18.126.735-26.974.878zm35.444-1.321c4.324-16.033 11.528-44.156 11.528-53.544 0-14.252-25.5-25.993-74.368-47.221l-4.353-1.891c-4.491-1.953-9.209-3.996-14.048-6.091-33.307-14.423-74.67-32.335-82.877-38.572-.568-1.069-1.957-5.434-3.099-22.872l78.618-7.8c.495 1.272 1.008 2.34 1.544 3.173 16.971 26.4 67.976 42.042 117.302 57.167 11.753 3.605 22.856 7.009 33.309 10.508 69.172 23.155 91.208 37.479 90.684 58.951-.224 9.184-2.642 16.879-7.293 23.317-.726.321-1.442.681-2.133 1.12-15.504 9.866-80.314 20.085-144.814 23.755zm174.378 50.803c-1.109 3.455-3.815 6.367-7.422 7.99l-37.783 16.999c-3.56 1.602-7.496 1.712-10.795.302-2.656-1.136-4.614-3.163-5.538-5.777l-17.989-48.12c24.137-3.905 45.243-8.84 58.946-14.809l19.835 35.447c1.373 2.362 1.638 5.192.746 7.968z" fill="#31373d"/></g></svg>