<svg id="Capa_1" enable-background="new 0 0 511.952 511.952" height="512" viewBox="0 0 511.952 511.952" width="512" xmlns="http://www.w3.org/2000/svg"><g><path d="m156.078 18.93-10.673 4.932c-81.296 37.564-116.748 133.92-79.184 215.217l28.973 62.704c28.419 61.503 90.485 96.758 154.224 94.017 19.591-.843 37.598 10.665 44.5 29.02l22.907 60.917c.622 1.655 1.333 3.283 2.253 4.793 9.529 15.629 33.773 21.895 50.487 14.172l7.41-3.424c16.712-7.722 26.48-29.702 20.626-47.028-.56-1.657-1.323-3.238-2.152-4.778l-30.996-57.546c-9.217-17.113-6.236-38.081 7.04-52.277 43.73-46.762 57.285-117.13 28.776-178.83l-28.973-62.704c-37.565-81.297-133.921-116.749-215.218-79.185z" fill="#e9c278"/><path d="m400.269 160.818-28.973-62.704c-37.565-81.296-133.921-116.748-215.218-79.184l-10.673 4.932c-81.296 37.564-116.748 133.92-79.184 215.217l28.973 62.704c15.691 33.958 41.65 59.893 72.474 75.87l244.244-116.199c6.761-32.776 3.472-67.924-11.643-100.636z" fill="#f9fbfc"/><g fill="#f9fbfc"><path d="m400.289 278.569c-1.713 0-3.102 1.389-3.102 3.102 0 1.714 1.389 3.102 3.102 3.102.302 0 .587-.057.863-.137.591-1.564 1.157-3.136 1.697-4.715-.559-.816-1.496-1.352-2.56-1.352z"/><path d="m389.913 295.149c1.713 0 3.102-1.389 3.102-3.102s-1.389-3.102-3.102-3.102-3.102 1.389-3.102 3.102 1.388 3.102 3.102 3.102z"/><path d="m386.81 312.047c0 .365.075.71.19 1.035.855-1.355 1.689-2.72 2.5-4.096-1.516.204-2.69 1.489-2.69 3.061z"/><path d="m386.81 452.047c0 1.713 1.389 3.102 3.102 3.102 1.343 0 2.476-.858 2.908-2.052-.259-.545-.543-1.113-.879-1.736l-1.24-2.302c-.253-.067-.515-.114-.789-.114-1.713 0-3.102 1.389-3.102 3.102z"/><path d="m389.913 475.149c1.713 0 3.102-1.389 3.102-3.102s-1.389-3.102-3.102-3.102-3.102 1.389-3.102 3.102 1.388 3.102 3.102 3.102z"/><path d="m380.289 284.773c1.713 0 3.102-1.389 3.102-3.102 0-.726-.26-1.385-.678-1.914l-5.447 2.592c.31 1.386 1.543 2.424 3.023 2.424z"/><path d="m369.913 295.149c1.713 0 3.102-1.389 3.102-3.102s-1.389-3.102-3.102-3.102-3.102 1.389-3.102 3.102 1.388 3.102 3.102 3.102z"/><path d="m380.289 298.569c-1.713 0-3.102 1.389-3.102 3.102 0 1.714 1.389 3.102 3.102 3.102s3.102-1.389 3.102-3.102c.001-1.714-1.388-3.102-3.102-3.102z"/><path d="m369.913 315.149c1.713 0 3.102-1.389 3.102-3.102s-1.389-3.102-3.102-3.102-3.102 1.389-3.102 3.102 1.388 3.102 3.102 3.102z"/><path d="m380.289 318.569c-1.713 0-3.102 1.389-3.102 3.102 0 1.273.768 2.364 1.865 2.842 1.223-1.607 2.407-3.234 3.562-4.878-.569-.649-1.394-1.066-2.325-1.066z"/><path d="m369.913 328.945c-1.713 0-3.102 1.389-3.102 3.102s1.389 3.102 3.102 3.102c.107 0 .207-.021.31-.031.943-1.039 1.873-2.087 2.784-3.147-.041-1.677-1.407-3.026-3.094-3.026z"/><path d="m366.81 412.047c0 1.713 1.389 3.102 3.102 3.102.806 0 1.533-.315 2.084-.818l-2.845-5.281c-1.342.341-2.341 1.548-2.341 2.997z"/><path d="m369.913 428.945c-1.713 0-3.102 1.389-3.102 3.102s1.389 3.102 3.102 3.102 3.102-1.389 3.102-3.102-1.389-3.102-3.102-3.102z"/><path d="m380.289 438.569c-1.713 0-3.102 1.389-3.102 3.102 0 1.714 1.389 3.102 3.102 3.102s3.102-1.389 3.102-3.102c.001-1.714-1.388-3.102-3.102-3.102z"/><path d="m369.913 448.945c-1.713 0-3.102 1.389-3.102 3.102s1.389 3.102 3.102 3.102 3.102-1.389 3.102-3.102-1.389-3.102-3.102-3.102z"/><path d="m380.289 464.773c1.713 0 3.102-1.389 3.102-3.102s-1.389-3.102-3.102-3.102-3.102 1.389-3.102 3.102 1.389 3.102 3.102 3.102z"/><path d="m369.913 468.945c-1.713 0-3.102 1.389-3.102 3.102s1.389 3.102 3.102 3.102 3.102-1.389 3.102-3.102-1.389-3.102-3.102-3.102z"/><path d="m380.289 484.773c1.713 0 3.102-1.389 3.102-3.102s-1.389-3.102-3.102-3.102-3.102 1.389-3.102 3.102 1.389 3.102 3.102 3.102z"/><path d="m369.913 488.945c-1.713 0-3.102 1.389-3.102 3.102s1.389 3.102 3.102 3.102 3.102-1.389 3.102-3.102-1.389-3.102-3.102-3.102z"/><path d="m351.885 294.423-1.407.669c.532-.098 1.008-.337 1.407-.669z"/><path d="m360.289 304.773c1.713 0 3.102-1.389 3.102-3.102s-1.389-3.102-3.102-3.102-3.102 1.389-3.102 3.102 1.389 3.102 3.102 3.102z"/><path d="m349.913 308.945c-1.713 0-3.102 1.389-3.102 3.102s1.389 3.102 3.102 3.102 3.102-1.389 3.102-3.102-1.389-3.102-3.102-3.102z"/><path d="m360.289 324.773c1.713 0 3.102-1.389 3.102-3.102s-1.389-3.102-3.102-3.102-3.102 1.389-3.102 3.102 1.389 3.102 3.102 3.102z"/><path d="m349.913 328.945c-1.713 0-3.102 1.389-3.102 3.102s1.389 3.102 3.102 3.102 3.102-1.389 3.102-3.102-1.389-3.102-3.102-3.102z"/><path d="m360.289 344.773c1.713 0 3.102-1.389 3.102-3.102s-1.389-3.102-3.102-3.102-3.102 1.389-3.102 3.102 1.389 3.102 3.102 3.102z"/><path d="m349.913 348.945c-1.713 0-3.102 1.389-3.102 3.102s1.389 3.102 3.102 3.102 3.102-1.389 3.102-3.102-1.389-3.102-3.102-3.102z"/><path d="m349.913 368.945c-1.713 0-3.102 1.389-3.102 3.102s1.389 3.102 3.102 3.102 3.102-1.389 3.102-3.102-1.389-3.102-3.102-3.102z"/><path d="m349.913 388.945c-1.713 0-3.102 1.389-3.102 3.102s1.389 3.102 3.102 3.102 3.102-1.389 3.102-3.102-1.389-3.102-3.102-3.102z"/><path d="m360.289 398.569c-1.713 0-3.102 1.389-3.102 3.102 0 1.714 1.389 3.102 3.102 3.102s3.102-1.389 3.102-3.102c.001-1.714-1.388-3.102-3.102-3.102z"/><path d="m349.913 408.945c-1.713 0-3.102 1.389-3.102 3.102s1.389 3.102 3.102 3.102 3.102-1.389 3.102-3.102-1.389-3.102-3.102-3.102z"/><path d="m360.289 418.569c-1.713 0-3.102 1.389-3.102 3.102 0 1.714 1.389 3.102 3.102 3.102s3.102-1.389 3.102-3.102c.001-1.714-1.388-3.102-3.102-3.102z"/><path d="m349.913 428.945c-1.713 0-3.102 1.389-3.102 3.102s1.389 3.102 3.102 3.102 3.102-1.389 3.102-3.102-1.389-3.102-3.102-3.102z"/><path d="m360.289 438.569c-1.713 0-3.102 1.389-3.102 3.102 0 1.714 1.389 3.102 3.102 3.102s3.102-1.389 3.102-3.102c.001-1.714-1.388-3.102-3.102-3.102z"/><path d="m349.913 448.945c-1.713 0-3.102 1.389-3.102 3.102s1.389 3.102 3.102 3.102 3.102-1.389 3.102-3.102-1.389-3.102-3.102-3.102z"/><path d="m360.289 458.569c-1.713 0-3.102 1.389-3.102 3.102 0 1.714 1.389 3.102 3.102 3.102s3.102-1.389 3.102-3.102c.001-1.714-1.388-3.102-3.102-3.102z"/><path d="m349.913 468.945c-1.713 0-3.102 1.389-3.102 3.102s1.389 3.102 3.102 3.102 3.102-1.389 3.102-3.102-1.389-3.102-3.102-3.102z"/><path d="m360.289 478.569c-1.713 0-3.102 1.389-3.102 3.102 0 1.714 1.389 3.102 3.102 3.102s3.102-1.389 3.102-3.102c.001-1.714-1.388-3.102-3.102-3.102z"/><path d="m349.913 488.945c-1.713 0-3.102 1.389-3.102 3.102s1.389 3.102 3.102 3.102 3.102-1.389 3.102-3.102-1.389-3.102-3.102-3.102z"/><path d="m363.392 501.671c0-1.713-1.389-3.102-3.102-3.102s-3.102 1.389-3.102 3.102c0 .807.316 1.535.82 2.087 1.76-.196 3.49-.516 5.169-.972.134-.347.215-.721.215-1.115z"/><path d="m340.289 318.569c-1.713 0-3.102 1.389-3.102 3.102 0 1.714 1.389 3.102 3.102 3.102s3.102-1.389 3.102-3.102c.001-1.714-1.388-3.102-3.102-3.102z"/><path d="m329.913 335.149c1.713 0 3.102-1.389 3.102-3.102s-1.389-3.102-3.102-3.102-3.102 1.389-3.102 3.102 1.388 3.102 3.102 3.102z"/><path d="m340.289 338.569c-1.713 0-3.102 1.389-3.102 3.102 0 1.714 1.389 3.102 3.102 3.102s3.102-1.389 3.102-3.102c.001-1.714-1.388-3.102-3.102-3.102z"/><path d="m329.913 355.149c1.713 0 3.102-1.389 3.102-3.102s-1.389-3.102-3.102-3.102-3.102 1.389-3.102 3.102 1.388 3.102 3.102 3.102z"/><path d="m340.289 358.569c-1.713 0-3.102 1.389-3.102 3.102 0 1.714 1.389 3.102 3.102 3.102s3.102-1.389 3.102-3.102c.001-1.714-1.388-3.102-3.102-3.102z"/><path d="m329.913 375.149c1.713 0 3.102-1.389 3.102-3.102s-1.389-3.102-3.102-3.102-3.102 1.389-3.102 3.102 1.388 3.102 3.102 3.102z"/><path d="m340.289 378.569c-1.713 0-3.102 1.389-3.102 3.102 0 1.714 1.389 3.102 3.102 3.102s3.102-1.389 3.102-3.102c.001-1.714-1.388-3.102-3.102-3.102z"/><path d="m329.913 395.149c1.713 0 3.102-1.389 3.102-3.102s-1.389-3.102-3.102-3.102-3.102 1.389-3.102 3.102 1.388 3.102 3.102 3.102z"/><path d="m340.289 398.569c-1.713 0-3.102 1.389-3.102 3.102 0 1.714 1.389 3.102 3.102 3.102s3.102-1.389 3.102-3.102c.001-1.714-1.388-3.102-3.102-3.102z"/><path d="m333.015 412.047c0-1.713-1.389-3.102-3.102-3.102-.678 0-1.3.223-1.811.592l2.524 5.521c1.368-.323 2.389-1.544 2.389-3.011z"/><path d="m340.289 418.569c-1.713 0-3.102 1.389-3.102 3.102 0 1.714 1.389 3.102 3.102 3.102s3.102-1.389 3.102-3.102c.001-1.714-1.388-3.102-3.102-3.102z"/><path d="m341.396 438.781c.336.867.637 1.748.877 2.647.186.699.339 1.405.476 2.113.397-.521.642-1.165.642-1.871.001-1.321-.83-2.442-1.995-2.889z"/><path d="m342.16 459.211c-.479 1.887-1.103 3.745-1.846 5.56 1.702-.014 3.078-1.395 3.078-3.1 0-1.008-.488-1.894-1.232-2.46z"/><path d="m340.289 484.773c1.713 0 3.102-1.389 3.102-3.102s-1.389-3.102-3.102-3.102-3.102 1.389-3.102 3.102 1.389 3.102 3.102 3.102z"/><path d="m329.913 495.149c1.713 0 3.102-1.389 3.102-3.102s-1.389-3.102-3.102-3.102-3.102 1.389-3.102 3.102 1.388 3.102 3.102 3.102z"/><path d="m343.392 501.671c0-1.713-1.389-3.102-3.102-3.102-1.34 0-2.471.854-2.905 2.044 1.882.804 3.841 1.472 5.847 1.997.094-.298.16-.61.16-.939z"/><path d="m320.289 338.569c-1.713 0-3.102 1.389-3.102 3.102 0 1.714 1.389 3.102 3.102 3.102s3.102-1.389 3.102-3.102c.001-1.714-1.388-3.102-3.102-3.102z"/><path d="m309.913 355.149c1.713 0 3.102-1.389 3.102-3.102 0-1.592-1.204-2.889-2.748-3.067-.439 2.014-.743 4.056-.903 6.113.179.033.361.056.549.056z"/><path d="m320.289 358.569c-1.713 0-3.102 1.389-3.102 3.102 0 1.714 1.389 3.102 3.102 3.102s3.102-1.389 3.102-3.102c.001-1.714-1.388-3.102-3.102-3.102z"/><path d="m313.015 372.047c0-1.522-1.097-2.781-2.542-3.046.427 1.767.967 3.52 1.62 5.25.569-.562.922-1.341.922-2.204z"/><path d="m320.289 384.773c1.713 0 3.102-1.389 3.102-3.102s-1.389-3.102-3.102-3.102-3.102 1.389-3.102 3.102 1.389 3.102 3.102 3.102z"/></g><g fill="#eaa895"><path d="m407.35 193.793c-.163-.711-.327-1.421-.5-2.131-.016.128-.039.253-.039.385-.001.648.199 1.249.539 1.746z"/><path d="m409.913 208.945c-1.713 0-3.102 1.389-3.102 3.102s1.389 3.102 3.102 3.102c.28 0 .546-.049.804-.118-.181-2.025-.401-4.049-.66-6.072-.05-.002-.095-.014-.144-.014z"/><path d="m409.913 228.945c-1.713 0-3.102 1.389-3.102 3.102s1.389 3.102 3.102 3.102c.475 0 .92-.115 1.322-.306.068-1.843.101-3.689.104-5.536-.429-.223-.909-.362-1.426-.362z"/><path d="m409.913 248.945c-1.713 0-3.102 1.389-3.102 3.102 0 1.456 1.007 2.669 2.359 3.003.34-2.024.639-4.054.9-6.089-.054-.003-.104-.016-.157-.016z"/><path d="m386.81 152.047c0 1.713 1.389 3.102 3.102 3.102 1.129 0 2.108-.609 2.651-1.511l-2.145-4.642c-.165-.027-.332-.051-.506-.051-1.713 0-3.102 1.389-3.102 3.102z"/><path d="m389.913 168.945c-1.713 0-3.102 1.389-3.102 3.102s1.389 3.102 3.102 3.102 3.102-1.389 3.102-3.102-1.389-3.102-3.102-3.102z"/><path d="m400.289 178.569c-1.713 0-3.102 1.389-3.102 3.102 0 1.714 1.389 3.102 3.102 3.102s3.102-1.389 3.102-3.102c.001-1.714-1.388-3.102-3.102-3.102z"/><path d="m389.913 188.945c-1.713 0-3.102 1.389-3.102 3.102s1.389 3.102 3.102 3.102 3.102-1.389 3.102-3.102-1.389-3.102-3.102-3.102z"/><path d="m400.289 198.569c-1.713 0-3.102 1.389-3.102 3.102 0 1.714 1.389 3.102 3.102 3.102s3.102-1.389 3.102-3.102c.001-1.714-1.388-3.102-3.102-3.102z"/><path d="m389.913 208.945c-1.713 0-3.102 1.389-3.102 3.102s1.389 3.102 3.102 3.102 3.102-1.389 3.102-3.102-1.389-3.102-3.102-3.102z"/><path d="m400.289 218.569c-1.713 0-3.102 1.389-3.102 3.102 0 1.714 1.389 3.102 3.102 3.102s3.102-1.389 3.102-3.102c.001-1.714-1.388-3.102-3.102-3.102z"/><path d="m389.913 228.945c-1.713 0-3.102 1.389-3.102 3.102s1.389 3.102 3.102 3.102 3.102-1.389 3.102-3.102-1.389-3.102-3.102-3.102z"/><path d="m400.289 238.569c-1.713 0-3.102 1.389-3.102 3.102 0 1.714 1.389 3.102 3.102 3.102s3.102-1.389 3.102-3.102c.001-1.714-1.388-3.102-3.102-3.102z"/><path d="m389.913 248.945c-1.713 0-3.102 1.389-3.102 3.102s1.389 3.102 3.102 3.102 3.102-1.389 3.102-3.102-1.389-3.102-3.102-3.102z"/><path d="m400.289 258.569c-1.713 0-3.102 1.389-3.102 3.102 0 .774.293 1.472.761 2.015l5.388-2.564c-.26-1.45-1.521-2.553-3.047-2.553z"/><path d="m369.913 115.149c1.713 0 3.102-1.389 3.102-3.102s-1.389-3.102-3.102-3.102-3.102 1.389-3.102 3.102c-.001 1.714 1.388 3.102 3.102 3.102z"/><path d="m379.118 124.54-1.767-3.823c-.098.302-.165.618-.165.953.001 1.299.8 2.408 1.932 2.87z"/><path d="m369.913 135.149c1.713 0 3.102-1.389 3.102-3.102s-1.389-3.102-3.102-3.102-3.102 1.389-3.102 3.102c-.001 1.714 1.388 3.102 3.102 3.102z"/><path d="m380.289 138.569c-1.713 0-3.102 1.389-3.102 3.102 0 1.714 1.389 3.102 3.102 3.102s3.102-1.389 3.102-3.102c.001-1.714-1.388-3.102-3.102-3.102z"/><path d="m369.913 155.149c1.713 0 3.102-1.389 3.102-3.102s-1.389-3.102-3.102-3.102-3.102 1.389-3.102 3.102c-.001 1.714 1.388 3.102 3.102 3.102z"/><path d="m380.289 158.569c-1.713 0-3.102 1.389-3.102 3.102 0 1.714 1.389 3.102 3.102 3.102s3.102-1.389 3.102-3.102c.001-1.714-1.388-3.102-3.102-3.102z"/><path d="m373.015 172.047c0-1.555-1.147-2.831-2.639-3.056.455 1.874.886 3.75 1.272 5.628.825-.557 1.367-1.501 1.367-2.572z"/><path d="m380.289 178.569c-1.713 0-3.102 1.389-3.102 3.102 0 1.714 1.389 3.102 3.102 3.102s3.102-1.389 3.102-3.102c.001-1.714-1.388-3.102-3.102-3.102z"/><path d="m380.289 198.569c-1.713 0-3.102 1.389-3.102 3.102 0 1.714 1.389 3.102 3.102 3.102s3.102-1.389 3.102-3.102c.001-1.714-1.388-3.102-3.102-3.102z"/><path d="m380.289 218.569c-1.713 0-3.102 1.389-3.102 3.102 0 1.714 1.389 3.102 3.102 3.102s3.102-1.389 3.102-3.102c.001-1.714-1.388-3.102-3.102-3.102z"/><path d="m373.015 232.047c0-.043-.011-.082-.012-.124-.066.42-.14.839-.209 1.259.139-.352.221-.733.221-1.135z"/><path d="m380.289 238.569c-1.713 0-3.102 1.389-3.102 3.102 0 1.714 1.389 3.102 3.102 3.102s3.102-1.389 3.102-3.102c.001-1.714-1.388-3.102-3.102-3.102z"/><path d="m373.015 252.047c0-1.713-1.389-3.102-3.102-3.102-.182 0-.357.024-.53.054-.482 1.791-.998 3.572-1.539 5.344.55.496 1.271.807 2.07.807 1.712-.001 3.101-1.389 3.101-3.103z"/><path d="m380.289 258.569c-1.713 0-3.102 1.389-3.102 3.102 0 1.714 1.389 3.102 3.102 3.102s3.102-1.389 3.102-3.102c.001-1.714-1.388-3.102-3.102-3.102z"/><path d="m369.913 268.945c-1.713 0-3.102 1.389-3.102 3.102s1.389 3.102 3.102 3.102 3.102-1.389 3.102-3.102-1.389-3.102-3.102-3.102z"/><path d="m346.81 72.047c0 1.713 1.389 3.102 3.102 3.102 1.082 0 2.032-.555 2.587-1.394-1.136-1.58-2.301-3.133-3.488-4.662-1.27.389-2.201 1.557-2.201 2.954z"/><path d="m359.688 84.712c-.777-1.295-1.576-2.57-2.385-3.836-.068.255-.115.518-.115.794-.001 1.508 1.075 2.762 2.5 3.042z"/><path d="m349.913 88.945c-1.713 0-3.102 1.389-3.102 3.102s1.389 3.102 3.102 3.102 3.102-1.389 3.102-3.102-1.389-3.102-3.102-3.102z"/><path d="m360.289 104.773c1.713 0 3.102-1.389 3.102-3.102s-1.389-3.102-3.102-3.102-3.102 1.389-3.102 3.102 1.389 3.102 3.102 3.102z"/><path d="m353.015 112.047c0-1.713-1.389-3.102-3.102-3.102-.39 0-.759.08-1.103.211l2.224 5.776c1.157-.45 1.981-1.568 1.981-2.885z"/><path d="m360.289 124.773c1.713 0 3.102-1.389 3.102-3.102s-1.389-3.102-3.102-3.102-3.102 1.389-3.102 3.102 1.389 3.102 3.102 3.102z"/><path d="m363.392 141.671c0-1.713-1.389-3.102-3.102-3.102-.051 0-.098.012-.148.015l2.108 5.474c.691-.57 1.142-1.421 1.142-2.387z"/><path d="m360.289 278.569c-1.713 0-3.102 1.389-3.102 3.102 0 .456.104.885.28 1.274l5.586-2.658c-.51-1.015-1.55-1.718-2.764-1.718z"/><path d="m326.81 52.047c0 1.713 1.389 3.102 3.102 3.102s3.102-1.389 3.102-3.102c0-.232-.03-.456-.078-.673-.859-.812-1.74-1.596-2.615-2.388-.135-.018-.269-.041-.41-.041-1.712 0-3.101 1.389-3.101 3.102z"/><path d="m340.289 64.773c1.522 0 2.782-1.097 3.046-2.543-1.074-1.23-2.159-2.447-3.267-3.639-1.608.115-2.882 1.442-2.882 3.08.001 1.713 1.39 3.102 3.103 3.102z"/><path d="m343.392 81.671c0-1.713-1.389-3.102-3.102-3.102-1.171 0-2.178.656-2.706 1.614.572 1.373 1.13 2.756 1.668 4.153l.108.28c.296.094.604.158.93.158 1.713-.001 3.102-1.39 3.102-3.103z"/><path d="m311.734 34.548c-1.603-1.064-3.224-2.098-4.863-3.101-.038.195-.061.395-.061.601 0 .097.02.188.028.283.845.91 1.678 1.831 2.503 2.762.185.034.375.057.57.057.685-.001 1.311-.228 1.823-.602z"/><path d="m317.187 41.671c0 1.714 1.389 3.102 3.102 3.102 1.289 0 2.393-.787 2.862-1.906-1.559-1.248-3.14-2.464-4.742-3.649-.738.567-1.222 1.449-1.222 2.453z"/></g><path d="m464.661 171.651c0-34.092-27.736-61.827-61.827-61.827-7.062 0-13.843 1.206-20.169 3.396l-7.752-16.777c-38.427-83.16-137.343-119.555-220.505-81.129l-10.673 4.932c-83.161 38.425-119.556 137.343-81.13 220.504l28.973 62.704c14.089 30.492 36.717 55.683 65.439 72.849 2.778 1.66 5.606 3.211 8.458 4.701.202.131.415.243.637.335 25.773 13.321 54.414 19.689 83.477 18.441 18.049-.776 34.361 9.85 40.6 26.442l22.907 60.917c.825 2.193 1.645 3.93 2.581 5.465 7.364 12.079 22.989 19.35 38.16 19.349 6.055 0 12.043-1.159 17.398-3.634l7.41-3.424c18.557-8.574 29.178-32.835 22.729-51.919-.557-1.648-1.325-3.361-2.419-5.392l-30.996-57.546c-8.336-15.477-5.747-34.633 6.442-47.667 21.025-22.482 35.278-50.148 41.447-80.306.001-.009.004-.018.005-.028.375-1.836.729-3.68 1.044-5.534 1.427-8.399 2.199-16.834 2.33-25.247 26.158-7.205 45.434-31.189 45.434-59.605zm-96.078 165.276c-14.528 15.535-17.597 38.396-7.637 56.887l30.996 57.546c.876 1.627 1.475 2.95 1.885 4.164 5.137 15.2-3.692 35.284-18.523 42.136l-7.41 3.424c-15.126 6.989-37.195.851-45.415-12.63-.669-1.098-1.281-2.407-1.926-4.121l-22.907-60.917c-7.2-19.146-25.587-31.645-46.202-31.645-.729 0-1.464.016-2.199.047-2.318.1-4.623.149-6.926.149-23.115-.001-45.41-4.99-65.624-14.199l229.59-109.228c-6.493 25.006-19.166 48.567-37.702 68.387zm39.944-78.274-240.903 114.61c-29.614-15.866-54.019-41.133-68.813-73.151l-28.973-62.704c-36.583-79.173-1.934-173.347 77.238-209.93l10.673-4.932c79.174-36.584 173.347-1.933 209.931 77.239l7.635 16.524c-20.315 10.143-34.308 31.134-34.308 55.342 0 34.092 27.736 61.827 61.827 61.827 2.87 0 5.69-.213 8.457-.593-.214 8.661-1.135 17.279-2.764 25.768z" fill="#31373d"/></g></svg>