<svg id="Capa_1" enable-background="new 0 0 511.332 511.332" height="512" viewBox="0 0 511.332 511.332" width="512" xmlns="http://www.w3.org/2000/svg"><g><path d="m438.07 185.215c-9.853 0-19.197 2.159-27.608 6.003 19.383-11.625 32.36-32.835 32.36-57.082 0-36.739-29.783-66.521-66.521-66.521-24.455 0-47.671 12.084-59.463 31.604 4.245-8.688 6.603-18.237 6.603-28.634 0-36.738-29.782-66.521-66.521-66.521-28.869 0-53.434 18.394-62.637 44.099l-21.537 47.063-89.256 191.552-47.59 50.297c-38.945 38.945-38.945 102.087 0 141.032s102.087 38.945 141.032 0l50.291-46.408 250.334-126.434c16.397-12.115 27.034-31.577 27.034-53.529 0-36.738-29.782-66.521-66.521-66.521z" fill="#f9fbfc"/><g fill="#eaa895"><path d="m183.557 443.206c-1.713 0-3.102 1.389-3.102 3.103 0 1.713 1.389 3.102 3.102 3.102s3.102-1.389 3.102-3.102c.001-1.714-1.388-3.103-3.102-3.103z"/><path d="m193.934 452.83c-1.713 0-3.102 1.389-3.102 3.103 0 1.713 1.389 3.102 3.102 3.102s3.102-1.389 3.102-3.102c0-1.714-1.389-3.103-3.102-3.103z"/><path d="m183.557 463.206c-1.713 0-3.102 1.389-3.102 3.103 0 1.713 1.389 3.102 3.102 3.102s3.102-1.389 3.102-3.102c.001-1.714-1.388-3.103-3.102-3.103z"/><path d="m163.654 429.401c1.635-.051 2.944-1.361 2.996-2.995z"/><path d="m173.934 432.83c-1.713 0-3.102 1.389-3.102 3.103 0 1.713 1.389 3.102 3.102 3.102s3.102-1.389 3.102-3.102c0-1.714-1.389-3.103-3.102-3.103z"/><path d="m163.557 443.206c-1.713 0-3.102 1.389-3.102 3.103 0 1.713 1.389 3.102 3.102 3.102s3.102-1.389 3.102-3.102c.001-1.714-1.388-3.103-3.102-3.103z"/><path d="m173.934 452.83c-1.713 0-3.102 1.389-3.102 3.103 0 1.713 1.389 3.102 3.102 3.102s3.102-1.389 3.102-3.102c0-1.714-1.389-3.103-3.102-3.103z"/><path d="m163.557 463.206c-1.713 0-3.102 1.389-3.102 3.103 0 1.713 1.389 3.102 3.102 3.102s3.102-1.389 3.102-3.102c.001-1.714-1.388-3.103-3.102-3.103z"/><path d="m173.934 472.83c-1.713 0-3.102 1.389-3.102 3.103 0 1.713 1.389 3.102 3.102 3.102s3.102-1.389 3.102-3.102c0-1.714-1.389-3.103-3.102-3.103z"/><path d="m163.557 483.206c-1.713 0-3.102 1.389-3.102 3.103 0 1.683 1.342 3.045 3.014 3.093 1.03-.72 2.046-1.467 3.054-2.23.08-.276.137-.561.137-.863 0-1.714-1.389-3.103-3.103-3.103z"/><path d="m154.031 439.024c1.634-.051 2.944-1.361 2.995-2.996z"/><path d="m143.654 449.401c1.634-.051 2.944-1.361 2.996-2.996z"/><path d="m153.934 452.83c-1.713 0-3.102 1.389-3.102 3.103 0 1.713 1.389 3.102 3.102 3.102s3.102-1.389 3.102-3.102c0-1.714-1.389-3.103-3.102-3.103z"/><path d="m143.557 463.206c-1.713 0-3.102 1.389-3.102 3.103 0 1.713 1.389 3.102 3.102 3.102s3.102-1.389 3.102-3.102c.001-1.714-1.388-3.103-3.102-3.103z"/><path d="m153.934 472.83c-1.713 0-3.102 1.389-3.102 3.103 0 1.713 1.389 3.102 3.102 3.102s3.102-1.389 3.102-3.102c0-1.714-1.389-3.103-3.102-3.103z"/><path d="m143.557 483.206c-1.713 0-3.102 1.389-3.102 3.103 0 1.713 1.389 3.102 3.102 3.102s3.102-1.389 3.102-3.102c.001-1.714-1.388-3.103-3.102-3.103z"/><path d="m150.831 495.932c0 .314.061.612.148.898 1.799-.898 3.576-1.858 5.329-2.872-.569-.684-1.416-1.128-2.375-1.128-1.713 0-3.102 1.389-3.102 3.102z"/><path d="m132.796 458.812c.353.14.735.222 1.138.222 1.713 0 3.102-1.389 3.102-3.102 0-.149-.023-.292-.044-.436-1.374 1.152-2.776 2.251-4.196 3.316z"/><path d="m125.424 463.845c-1.623 1.004-3.262 1.969-4.928 2.871.201 1.519 1.488 2.694 3.061 2.694 1.713 0 3.102-1.389 3.102-3.102.001-1.009-.489-1.896-1.235-2.463z"/><path d="m133.934 472.83c-1.713 0-3.102 1.389-3.102 3.103 0 1.713 1.389 3.102 3.102 3.102s3.102-1.389 3.102-3.102c0-1.714-1.389-3.103-3.102-3.103z"/><path d="m123.557 483.206c-1.713 0-3.102 1.389-3.102 3.103 0 1.713 1.389 3.102 3.102 3.102s3.102-1.389 3.102-3.102c.001-1.714-1.388-3.103-3.102-3.103z"/><path d="m133.934 492.83c-1.713 0-3.102 1.389-3.102 3.103 0 1.713 1.389 3.102 3.102 3.102s3.102-1.389 3.102-3.102c0-1.714-1.389-3.103-3.102-3.103z"/><path d="m123.557 503.206c-1.713 0-3.102 1.389-3.102 3.103 0 .005.002.011.002.016 2.013-.285 4.019-.635 6.015-1.043-.425-1.206-1.563-2.076-2.915-2.076z"/><path d="m113.934 472.83c-1.713 0-3.102 1.389-3.102 3.103 0 1.713 1.389 3.102 3.102 3.102s3.102-1.389 3.102-3.102c0-1.714-1.389-3.103-3.102-3.103z"/><path d="m103.557 483.206c-1.713 0-3.102 1.389-3.102 3.103 0 1.713 1.389 3.102 3.102 3.102s3.102-1.389 3.102-3.102c.001-1.714-1.388-3.103-3.102-3.103z"/><path d="m113.934 492.83c-1.713 0-3.102 1.389-3.102 3.103 0 1.713 1.389 3.102 3.102 3.102s3.102-1.389 3.102-3.102c0-1.714-1.389-3.103-3.102-3.103z"/><path d="m103.557 503.206c-1.713 0-3.102 1.389-3.102 3.103 0 .29.052.564.127.83 1.964.114 3.93.177 5.896.176.109-.317.181-.652.181-1.006.001-1.714-1.388-3.103-3.102-3.103z"/><path d="m91.055 477.073c.455 1.147 1.57 1.961 2.879 1.961 1.713 0 3.102-1.389 3.102-3.102 0-.054-.013-.104-.016-.157-1.978.489-3.966.933-5.965 1.298z"/><path d="m83.557 483.206c-1.713 0-3.102 1.389-3.102 3.103 0 1.713 1.389 3.102 3.102 3.102s3.102-1.389 3.102-3.102c.001-1.714-1.388-3.103-3.102-3.103z"/><path d="m93.934 492.83c-1.713 0-3.102 1.389-3.102 3.103 0 1.713 1.389 3.102 3.102 3.102s3.102-1.389 3.102-3.102c0-1.714-1.389-3.103-3.102-3.103z"/><path d="m83.557 503.206c-.861 0-1.639.352-2.201.918 1.699.439 3.407.833 5.123 1.182-.418-1.218-1.561-2.1-2.922-2.1z"/><path d="m75.357 478.673c-.939.021-1.877.021-2.816.017.42.213.889.344 1.392.344.517 0 .996-.138 1.424-.361z"/><path d="m63.557 483.206c-1.713 0-3.102 1.389-3.102 3.103 0 1.713 1.389 3.102 3.102 3.102s3.102-1.389 3.102-3.102c.001-1.714-1.388-3.103-3.102-3.103z"/><path d="m73.934 492.83c-1.713 0-3.102 1.389-3.102 3.103 0 1.713 1.389 3.102 3.102 3.102s3.102-1.389 3.102-3.102c0-1.714-1.389-3.103-3.102-3.103z"/><path d="m53.934 479.034c1.199 0 2.228-.688 2.744-1.684-1.949-.323-3.889-.713-5.819-1.152.137 1.587 1.453 2.836 3.075 2.836z"/><path d="m43.557 483.206c-.594 0-1.143.176-1.614.465 1.485 1.262 3 2.47 4.54 3.631.106-.313.177-.644.177-.993 0-1.714-1.389-3.103-3.103-3.103z"/><path d="m56.094 493.711c-.332-.323-.74-.562-1.189-.711.396.239.791.478 1.189.711z"/><path d="m26.502 467.237c.003-.009.006-.018.008-.028-.016-.008-.033-.016-.049-.024.014.018.028.035.041.052z"/><path d="m33.934 472.83c-.838 0-1.594.336-2.153.875 1.324 1.497 2.687 2.97 4.119 4.402.038.038.077.074.115.111.623-.567 1.021-1.377 1.021-2.286 0-1.713-1.389-3.102-3.102-3.102z"/><g><path d="m503.557 249.411c.347 0 .674-.07.985-.175-.075-2.019-.246-4.012-.496-5.98-.16-.025-.322-.049-.489-.049-1.713 0-3.102 1.389-3.102 3.102s1.389 3.102 3.102 3.102z"/><path d="m500.455 266.309c0 1.259.754 2.338 1.832 2.824.525-1.94.963-3.916 1.312-5.922-.014 0-.027-.004-.041-.004-1.714-.001-3.103 1.388-3.103 3.102z"/><path d="m483.557 209.411c1.711 0 3.097-1.385 3.101-3.094-1.001-1.07-2.037-2.107-3.106-3.11-1.711.003-3.098 1.39-3.098 3.102.001 1.713 1.39 3.102 3.103 3.102z"/><path d="m493.934 219.034c.652 0 1.255-.203 1.754-.546-1.035-1.79-2.149-3.529-3.341-5.208-.904.542-1.515 1.521-1.515 2.652-.001 1.713 1.388 3.102 3.102 3.102z"/><path d="m483.557 223.206c-1.713 0-3.102 1.389-3.102 3.102s1.389 3.102 3.102 3.102 3.102-1.389 3.102-3.102c.001-1.713-1.388-3.102-3.102-3.102z"/><path d="m493.934 232.83c-1.713 0-3.102 1.389-3.102 3.103 0 1.713 1.389 3.102 3.102 3.102s3.102-1.389 3.102-3.102c0-1.714-1.389-3.103-3.102-3.103z"/><path d="m483.557 243.206c-1.713 0-3.102 1.389-3.102 3.102s1.389 3.102 3.102 3.102 3.102-1.389 3.102-3.102c.001-1.713-1.388-3.102-3.102-3.102z"/><path d="m493.934 252.83c-1.713 0-3.102 1.389-3.102 3.103 0 1.713 1.389 3.102 3.102 3.102s3.102-1.389 3.102-3.102c0-1.714-1.389-3.103-3.102-3.103z"/><path d="m483.557 263.206c-1.713 0-3.102 1.389-3.102 3.103 0 1.713 1.389 3.102 3.102 3.102s3.102-1.389 3.102-3.102c.001-1.714-1.388-3.103-3.102-3.103z"/><path d="m493.934 272.83c-1.713 0-3.102 1.389-3.102 3.103 0 1.713 1.389 3.102 3.102 3.102s3.102-1.389 3.102-3.102c0-1.714-1.389-3.103-3.102-3.103z"/><path d="m483.557 283.206c-1.713 0-3.102 1.389-3.102 3.103 0 1.713 1.389 3.102 3.102 3.102s3.102-1.389 3.102-3.102c.001-1.714-1.388-3.103-3.102-3.103z"/><path d="m473.934 199.034c1.134 0 2.116-.615 2.657-1.523-1.677-1.194-3.411-2.314-5.199-3.35-.338.483-.538 1.066-.553 1.697.23.65.442 1.308.653 1.967.567.731 1.445 1.209 2.442 1.209z"/><path d="m474.445 212.881c.133 1.713.22 3.439.22 5.188 0 .292-.009.582-.013.874 1.366-.325 2.384-1.545 2.384-3.01 0-1.539-1.122-2.807-2.591-3.052z"/><path d="m473.934 232.83c-.337 0-.655.067-.959.167-.387 1.689-.835 3.355-1.348 4.991.568.637 1.386 1.046 2.307 1.046 1.713 0 3.102-1.389 3.102-3.102s-1.389-3.102-3.102-3.102z"/><path d="m473.934 252.83c-1.713 0-3.102 1.389-3.102 3.103 0 1.713 1.389 3.102 3.102 3.102s3.102-1.389 3.102-3.102c0-1.714-1.389-3.103-3.102-3.103z"/><path d="m463.557 263.206c-1.713 0-3.102 1.389-3.102 3.103 0 1.713 1.389 3.102 3.102 3.102s3.102-1.389 3.102-3.102c.001-1.714-1.388-3.103-3.102-3.103z"/><path d="m473.934 272.83c-1.713 0-3.102 1.389-3.102 3.103 0 1.713 1.389 3.102 3.102 3.102s3.102-1.389 3.102-3.102c0-1.714-1.389-3.103-3.102-3.103z"/><path d="m463.557 283.206c-1.713 0-3.102 1.389-3.102 3.103 0 1.713 1.389 3.102 3.102 3.102s3.102-1.389 3.102-3.102c.001-1.714-1.388-3.103-3.102-3.103z"/><path d="m473.934 292.83c-1.713 0-3.102 1.389-3.102 3.103 0 1.713 1.389 3.102 3.102 3.102s3.102-1.389 3.102-3.102c0-1.714-1.389-3.103-3.102-3.103z"/><path d="m463.557 303.206c-1.713 0-3.102 1.389-3.102 3.103 0 1.713 1.389 3.102 3.102 3.102s3.102-1.389 3.102-3.102c.001-1.714-1.388-3.103-3.102-3.103z"/><path d="m453.934 272.83c-1.713 0-3.102 1.389-3.102 3.103 0 1.713 1.389 3.102 3.102 3.102s3.102-1.389 3.102-3.102c0-1.714-1.389-3.103-3.102-3.103z"/><path d="m443.557 283.206c-1.713 0-3.102 1.389-3.102 3.103 0 1.713 1.389 3.102 3.102 3.102s3.102-1.389 3.102-3.102c.001-1.714-1.388-3.103-3.102-3.103z"/><path d="m453.934 292.83c-1.713 0-3.102 1.389-3.102 3.103 0 1.713 1.389 3.102 3.102 3.102s3.102-1.389 3.102-3.102c0-1.714-1.389-3.103-3.102-3.103z"/><path d="m443.557 303.206c-1.713 0-3.102 1.389-3.102 3.103 0 1.713 1.389 3.102 3.102 3.102s3.102-1.389 3.102-3.102c.001-1.714-1.388-3.103-3.102-3.103z"/><path d="m453.934 312.83c-1.713 0-3.102 1.389-3.102 3.103 0 .919.407 1.736 1.043 2.304l5.133-2.592c-.149-1.577-1.46-2.815-3.074-2.815z"/><path d="m436.817 277.059-3.681 1.859c.256.068.52.116.797.116 1.315 0 2.432-.821 2.884-1.975z"/><path d="m424.392 283.335-3.73 1.884c-.128.34-.207.705-.207 1.09 0 1.713 1.389 3.102 3.102 3.102s3.102-1.389 3.102-3.102c.001-1.423-.962-2.608-2.267-2.974z"/><path d="m433.934 292.83c-1.713 0-3.102 1.389-3.102 3.103 0 1.713 1.389 3.102 3.102 3.102s3.102-1.389 3.102-3.102c0-1.714-1.389-3.103-3.102-3.103z"/><path d="m423.557 303.206c-1.713 0-3.102 1.389-3.102 3.103 0 1.713 1.389 3.102 3.102 3.102s3.102-1.389 3.102-3.102c.001-1.714-1.388-3.103-3.102-3.103z"/><path d="m433.934 312.83c-1.713 0-3.102 1.389-3.102 3.103 0 1.713 1.389 3.102 3.102 3.102s3.102-1.389 3.102-3.102c0-1.714-1.389-3.103-3.102-3.103z"/><path d="m423.557 323.206c-1.713 0-3.102 1.389-3.102 3.103 0 1.713 1.389 3.102 3.102 3.102s3.102-1.389 3.102-3.102c.001-1.714-1.388-3.103-3.102-3.103z"/><path d="m413.934 292.83c-1.713 0-3.102 1.389-3.102 3.103 0 1.713 1.389 3.102 3.102 3.102s3.102-1.389 3.102-3.102c0-1.714-1.389-3.103-3.102-3.103z"/><path d="m403.557 303.206c-1.713 0-3.102 1.389-3.102 3.103 0 1.713 1.389 3.102 3.102 3.102s3.102-1.389 3.102-3.102c.001-1.714-1.388-3.103-3.102-3.103z"/><path d="m413.934 312.83c-1.713 0-3.102 1.389-3.102 3.103 0 1.713 1.389 3.102 3.102 3.102s3.102-1.389 3.102-3.102c0-1.714-1.389-3.103-3.102-3.103z"/><path d="m403.557 323.206c-1.713 0-3.102 1.389-3.102 3.103 0 1.713 1.389 3.102 3.102 3.102s3.102-1.389 3.102-3.102c.001-1.714-1.388-3.103-3.102-3.103z"/><path d="m413.934 332.83c-1.713 0-3.102 1.389-3.102 3.103 0 .99.472 1.861 1.195 2.43l5-2.525c-.052-1.67-1.413-3.008-3.093-3.008z"/><path d="m396.692 297.325-3.28 1.657c.171.029.343.053.522.053 1.209-.001 2.246-.7 2.758-1.71z"/><path d="m384.641 303.412-4.053 2.047c-.078.272-.133.553-.133.85 0 1.713 1.389 3.102 3.102 3.102s3.102-1.389 3.102-3.102c.001-1.331-.841-2.457-2.018-2.897z"/><path d="m393.934 312.83c-1.713 0-3.102 1.389-3.102 3.103 0 1.713 1.389 3.102 3.102 3.102s3.102-1.389 3.102-3.102c0-1.714-1.389-3.103-3.102-3.103z"/><path d="m383.557 323.206c-1.713 0-3.102 1.389-3.102 3.103 0 1.713 1.389 3.102 3.102 3.102s3.102-1.389 3.102-3.102c.001-1.714-1.388-3.103-3.102-3.103z"/><path d="m393.934 332.83c-1.713 0-3.102 1.389-3.102 3.103 0 1.713 1.389 3.102 3.102 3.102s3.102-1.389 3.102-3.102c0-1.714-1.389-3.103-3.102-3.103z"/><path d="m383.557 343.206c-1.713 0-3.102 1.389-3.102 3.103 0 1.713 1.389 3.102 3.102 3.102s3.102-1.389 3.102-3.102c.001-1.714-1.388-3.103-3.102-3.103z"/><path d="m373.934 312.83c-1.713 0-3.102 1.389-3.102 3.103 0 1.713 1.389 3.102 3.102 3.102s3.102-1.389 3.102-3.102c0-1.714-1.389-3.103-3.102-3.103z"/><path d="m363.557 323.206c-1.713 0-3.102 1.389-3.102 3.103 0 1.713 1.389 3.102 3.102 3.102s3.102-1.389 3.102-3.102c.001-1.714-1.388-3.103-3.102-3.103z"/><path d="m373.934 332.83c-1.713 0-3.102 1.389-3.102 3.103 0 1.713 1.389 3.102 3.102 3.102s3.102-1.389 3.102-3.102c0-1.714-1.389-3.103-3.102-3.103z"/><path d="m363.557 343.206c-1.713 0-3.102 1.389-3.102 3.103 0 1.713 1.389 3.102 3.102 3.102s3.102-1.389 3.102-3.102c.001-1.714-1.388-3.103-3.102-3.103z"/><path d="m373.934 352.83c-1.713 0-3.102 1.389-3.102 3.103 0 1.061.534 1.996 1.347 2.555l4.847-2.448c.001-.036.011-.07.011-.107-.001-1.714-1.39-3.103-3.103-3.103z"/><path d="m356.54 317.604-2.794 1.411c.063.004.124.019.188.019 1.096 0 2.054-.572 2.606-1.43z"/><path d="m344.861 323.503-4.345 2.194c-.04.198-.062.402-.062.612 0 1.713 1.389 3.102 3.102 3.102s3.102-1.389 3.102-3.102c.002-1.246-.737-2.313-1.797-2.806z"/><path d="m353.934 332.83c-1.713 0-3.102 1.389-3.102 3.103 0 1.713 1.389 3.102 3.102 3.102s3.102-1.389 3.102-3.102c0-1.714-1.389-3.103-3.102-3.103z"/><path d="m343.557 343.206c-1.713 0-3.102 1.389-3.102 3.103 0 1.713 1.389 3.102 3.102 3.102s3.102-1.389 3.102-3.102c.001-1.714-1.388-3.103-3.102-3.103z"/><path d="m353.934 352.83c-1.713 0-3.102 1.389-3.102 3.103 0 1.713 1.389 3.102 3.102 3.102s3.102-1.389 3.102-3.102c0-1.714-1.389-3.103-3.102-3.103z"/><path d="m343.557 363.206c-1.713 0-3.102 1.389-3.102 3.103 0 1.713 1.389 3.102 3.102 3.102s3.102-1.389 3.102-3.102c.001-1.714-1.388-3.103-3.102-3.103z"/><path d="m333.934 332.83c-1.713 0-3.102 1.389-3.102 3.103 0 1.713 1.389 3.102 3.102 3.102s3.102-1.389 3.102-3.102c0-1.714-1.389-3.103-3.102-3.103z"/><path d="m323.557 343.206c-1.713 0-3.102 1.389-3.102 3.103 0 1.713 1.389 3.102 3.102 3.102s3.102-1.389 3.102-3.102c.001-1.714-1.388-3.103-3.102-3.103z"/><path d="m333.934 352.83c-1.713 0-3.102 1.389-3.102 3.103 0 1.713 1.389 3.102 3.102 3.102s3.102-1.389 3.102-3.102c0-1.714-1.389-3.103-3.102-3.103z"/><path d="m323.557 363.206c-1.713 0-3.102 1.389-3.102 3.103 0 1.713 1.389 3.102 3.102 3.102s3.102-1.389 3.102-3.102c.001-1.714-1.388-3.103-3.102-3.103z"/><path d="m333.934 372.83c-1.713 0-3.102 1.389-3.102 3.103 0 1.139.62 2.123 1.535 2.663l4.638-2.343c.011-.107.032-.211.032-.32-.001-1.714-1.39-3.103-3.103-3.103z"/><path d="m323.156 383.247c-.723.095-1.367.428-1.845.932z"/><path d="m314.153 339.012c.855-.061 1.607-.463 2.131-1.077z"/><path d="m305.055 343.607-4.559 2.303c-.017.132-.04.262-.04.398 0 1.713 1.389 3.102 3.102 3.102s3.102-1.389 3.102-3.102c0-1.167-.653-2.171-1.605-2.701z"/><path d="m313.934 352.83c-1.713 0-3.102 1.389-3.102 3.103 0 1.713 1.389 3.102 3.102 3.102s3.102-1.389 3.102-3.102c0-1.714-1.389-3.103-3.102-3.103z"/><path d="m303.557 363.206c-1.713 0-3.102 1.389-3.102 3.103 0 1.713 1.389 3.102 3.102 3.102s3.102-1.389 3.102-3.102c.001-1.714-1.388-3.103-3.102-3.103z"/><path d="m313.934 372.83c-1.713 0-3.102 1.389-3.102 3.103 0 1.713 1.389 3.102 3.102 3.102s3.102-1.389 3.102-3.102c0-1.714-1.389-3.103-3.102-3.103z"/><path d="m303.557 383.206c-1.713 0-3.102 1.389-3.102 3.103 0 1.713 1.389 3.102 3.102 3.102s3.102-1.389 3.102-3.102c.001-1.714-1.388-3.103-3.102-3.103z"/><path d="m293.934 352.83c-1.713 0-3.102 1.389-3.102 3.103 0 1.713 1.389 3.102 3.102 3.102s3.102-1.389 3.102-3.102c0-1.714-1.389-3.103-3.102-3.103z"/><path d="m283.557 363.206c-1.713 0-3.102 1.389-3.102 3.103 0 1.713 1.389 3.102 3.102 3.102s3.102-1.389 3.102-3.102c.001-1.714-1.388-3.103-3.102-3.103z"/><path d="m293.934 372.83c-1.713 0-3.102 1.389-3.102 3.103 0 1.713 1.389 3.102 3.102 3.102s3.102-1.389 3.102-3.102c0-1.714-1.389-3.103-3.102-3.103z"/><path d="m283.557 383.206c-1.713 0-3.102 1.389-3.102 3.103 0 1.713 1.389 3.102 3.102 3.102s3.102-1.389 3.102-3.102c.001-1.714-1.388-3.103-3.102-3.103z"/><path d="m293.934 392.83c-1.713 0-3.102 1.389-3.102 3.103 0 1.217.708 2.26 1.728 2.768l4.423-2.234c.03-.174.054-.351.054-.534-.001-1.714-1.39-3.103-3.103-3.103z"/><path d="m281.025 404.525 2.599-1.312c-.023 0-.044-.007-.066-.007-1.049 0-1.972.523-2.533 1.319z"/><path d="m274.756 358.91c.401-.111.767-.298 1.085-.548z"/><path d="m265.248 363.712-4.774 2.411c-.004.062-.019.121-.019.185 0 1.713 1.389 3.102 3.102 3.102s3.102-1.389 3.102-3.102c.001-1.088-.563-2.042-1.411-2.596z"/><path d="m273.934 372.83c-1.713 0-3.102 1.389-3.102 3.103 0 1.713 1.389 3.102 3.102 3.102s3.102-1.389 3.102-3.102c0-1.714-1.389-3.103-3.102-3.103z"/><path d="m263.557 383.206c-1.713 0-3.102 1.389-3.102 3.103 0 1.713 1.389 3.102 3.102 3.102s3.102-1.389 3.102-3.102c.001-1.714-1.388-3.103-3.102-3.103z"/><path d="m273.934 392.83c-1.713 0-3.102 1.389-3.102 3.103 0 1.713 1.389 3.102 3.102 3.102s3.102-1.389 3.102-3.102c0-1.714-1.389-3.103-3.102-3.103z"/><path d="m263.557 403.206c-1.713 0-3.102 1.389-3.102 3.103 0 1.713 1.389 3.102 3.102 3.102s3.102-1.389 3.102-3.102c.001-1.714-1.388-3.103-3.102-3.103z"/><path d="m253.934 372.83c-1.713 0-3.102 1.389-3.102 3.103 0 1.713 1.389 3.102 3.102 3.102s3.102-1.389 3.102-3.102c0-1.714-1.389-3.103-3.102-3.103z"/><path d="m243.557 383.206c-1.713 0-3.102 1.389-3.102 3.103 0 1.713 1.389 3.102 3.102 3.102s3.102-1.389 3.102-3.102c.001-1.714-1.388-3.103-3.102-3.103z"/><path d="m253.934 392.83c-1.713 0-3.102 1.389-3.102 3.103 0 1.713 1.389 3.102 3.102 3.102s3.102-1.389 3.102-3.102c0-1.714-1.389-3.103-3.102-3.103z"/><path d="m243.557 403.206c-1.713 0-3.102 1.389-3.102 3.103 0 1.713 1.389 3.102 3.102 3.102s3.102-1.389 3.102-3.102c.001-1.714-1.388-3.103-3.102-3.103z"/><path d="m253.934 412.83c-1.713 0-3.102 1.389-3.102 3.103 0 1.297.798 2.406 1.929 2.869l4.17-2.106c.062-.246.106-.498.106-.763-.001-1.714-1.39-3.103-3.103-3.103z"/><path d="m243.557 423.206c-.69 0-1.321.232-1.833.616-.339-1.505-1.085-2.941-2.268-4.124l-2.637-2.646c.135-.348.217-.724.217-1.12 0-1.713-1.389-3.103-3.102-3.103-.392 0-.764.081-1.109.213l-6.215-6.237c.027-.163.05-.327.05-.498 0-1.713-1.389-3.103-3.102-3.103-.167 0-.327.024-.487.049l-6.235-6.257c.123-.334.2-.69.2-1.066 0-1.713-1.389-3.103-3.102-3.103-.373 0-.725.076-1.056.197l-117.014-117.425c-3.699-3.699-9.832-3.2-12.885 1.048l-23.627 29.515c-2.424 3.375-2.047 8.008.891 10.946l135.851 136.055c3.035 3.035 7.859 3.324 11.235.673l31.368-21.471c2.539-1.994 3.604-5.111 3.127-8.042l2.133-1.078c-.132-.016-.263-.039-.4-.039z"/><path d="m223.557 389.411c1.713 0 3.102-1.389 3.102-3.102 0-1.016-.495-1.91-1.25-2.476l-4.952 2.501c.015 1.701 1.396 3.077 3.1 3.077z"/><path d="m233.934 399.034c1.713 0 3.102-1.389 3.102-3.102s-1.389-3.103-3.102-3.103-3.102 1.389-3.102 3.103c-.001 1.714 1.388 3.102 3.102 3.102z"/></g></g><g fill="#f9fbfc"><path d="m241.724 423.818c-.766.565-1.269 1.466-1.269 2.491 0 .89.38 1.687.98 2.253.544-1.521.644-3.169.289-4.744z"/><path d="m220.455 406.309c0 1.713 1.389 3.102 3.102 3.102 1.543 0 2.813-1.129 3.052-2.604l-3.538-3.551c-1.481.234-2.616 1.506-2.616 3.053z"/><path d="m232.824 413.043c-1.164.447-1.993 1.568-1.993 2.889 0 1.713 1.389 3.102 3.102 3.102 1.317 0 2.436-.824 2.886-1.982z"/><path d="m223.557 423.206c-1.713 0-3.102 1.389-3.102 3.103 0 1.713 1.389 3.102 3.102 3.102s3.102-1.389 3.102-3.102c.001-1.714-1.388-3.103-3.102-3.103z"/><path d="m233.934 432.83c-1.713 0-3.102 1.389-3.102 3.103 0 .56.16 1.078.419 1.531l5.081-3.477c-.569-.701-1.426-1.157-2.398-1.157z"/><path d="m221.144 444.381 1.488-1.019c-.595.187-1.107.543-1.488 1.019z"/><path d="m210.831 395.932c0 1.713 1.389 3.102 3.102 3.102 1.337 0 2.466-.85 2.902-2.036l-3.958-3.972c-1.19.434-2.046 1.565-2.046 2.906z"/><path d="m203.557 403.206c-1.713 0-3.102 1.389-3.102 3.103 0 1.713 1.389 3.102 3.102 3.102s3.102-1.389 3.102-3.102c.001-1.714-1.388-3.103-3.102-3.103z"/><path d="m213.934 412.83c-1.713 0-3.102 1.389-3.102 3.103 0 1.713 1.389 3.102 3.102 3.102s3.102-1.389 3.102-3.102c0-1.714-1.389-3.103-3.102-3.103z"/><path d="m203.557 429.411c1.713 0 3.102-1.389 3.102-3.102s-1.389-3.103-3.102-3.103-3.102 1.389-3.102 3.103c0 1.713 1.389 3.102 3.102 3.102z"/><path d="m213.934 439.034c1.713 0 3.102-1.389 3.102-3.102s-1.389-3.103-3.102-3.103-3.102 1.389-3.102 3.103c-.001 1.714 1.388 3.102 3.102 3.102z"/><path d="m203.557 449.411c1.713 0 3.102-1.389 3.102-3.102s-1.389-3.103-3.102-3.103-3.102 1.389-3.102 3.103c0 1.713 1.389 3.102 3.102 3.102z"/><path d="m193.934 419.034c1.713 0 3.102-1.389 3.102-3.102s-1.389-3.103-3.102-3.103-3.102 1.389-3.102 3.103c-.001 1.714 1.388 3.102 3.102 3.102z"/><path d="m186.66 426.309c0-1.713-1.389-3.103-3.102-3.103s-3.102 1.389-3.102 3.103c0 1.713 1.389 3.102 3.102 3.102s3.102-1.389 3.102-3.102z"/><path d="m193.934 439.034c1.713 0 3.102-1.389 3.102-3.102s-1.389-3.103-3.102-3.103-3.102 1.389-3.102 3.103c-.001 1.714 1.388 3.102 3.102 3.102z"/><path d="m176.29 417.929-1.209.88c.475-.189.883-.497 1.209-.88z"/></g><path d="m438.071 181.151c-3.298 0-6.563.225-9.783.672 11.758-12.877 18.599-29.904 18.599-47.686 0-38.921-31.665-70.586-70.585-70.586-18.815 0-36.506 6.574-49.634 17.889.558-3.561.839-7.183.839-10.854-.002-38.922-31.667-70.586-70.587-70.586-29.675 0-56.338 18.73-66.404 46.627l-103.399 222.744c-2.942.66-5.566 2.347-7.371 4.811l-23.567 29.441-.128.169c-2.04 2.839-2.744 6.253-2.183 9.473l-20.842 20.936c-40.467 40.468-40.467 106.313 0 146.78 20.234 20.234 46.812 30.351 73.39 30.351s53.156-10.117 73.39-30.351l21.318-21.318c.323.025.647.047.971.047 2.679 0 5.368-.854 7.627-2.586l31.27-21.403.214-.157c2.727-2.142 4.431-5.322 4.735-8.766 0 0 233.539-117.901 234.029-118.263 17.971-13.257 28.684-34.504 28.684-56.798.002-38.922-31.663-70.586-70.583-70.586zm-61.77-109.471c34.438 0 62.456 28.018 62.456 62.457 0 22.149-7.838 34.739-30.144 53.85-22.306 19.112-213.958 180.994-213.958 180.994l-45.201-45.36s169.637-222.072 170.148-222.837c11.706-17.559 33.567-29.104 56.699-29.104zm-178.191-22.147c8.866-24.765 32.5-41.404 58.81-41.404 34.438 0 62.456 28.018 62.456 62.457 0 8.407-1.971 16.567-5.257 24.197l-170.454 223.028s-46.929-46.783-48.077-47.372c0 0 102.483-220.797 102.522-220.906zm-24.052 425.7c-37.298 37.298-97.987 37.297-135.283 0-37.298-37.298-37.298-97.986 0-135.284l19.236-19.324 135.207 135.41.002.003c.006.006.012.01.018.016zm62.217-46.134-31.242 21.384-.214.157c-1.757 1.378-4.272 1.229-5.85-.35l.001.001-135.853-136.057c-1.516-1.516-1.727-3.869-.515-5.627l23.55-29.419.128-.168c.769-1.069 1.915-1.717 3.229-1.825 1.312-.108 2.55.348 3.476 1.273l143.598 144.105c.906.906 1.362 2.109 1.285 3.388-.074 1.241-.639 2.35-1.593 3.138zm239.138-127.305-231.53 116.936c-.452-.677-43.472-43.973-43.472-43.973s209.138-177.069 213.526-180.246c4.387-3.177 15.68-5.233 24.133-5.233 34.438 0 62.456 28.018 62.456 62.456.001 19.615-9.382 38.303-25.113 50.06z" fill="#31373d"/></g></svg>