<svg id="Capa_1" enable-background="new 0 0 511.845 511.845" height="512" viewBox="0 0 511.845 511.845" width="512" xmlns="http://www.w3.org/2000/svg"><g><path d="m433.6 89.374h-5.655c-15.89 0-29.166 11.158-32.443 26.063l-71.519-.257v-69.815c0-22.824-18.502-41.326-41.326-41.326h-196.311c-22.824 0-41.326 18.502-41.326 41.326v269.739c0 50.501 31.335 93.683 75.623 111.165v43.23c0 21.156 17.151 38.307 38.307 38.307h197.406c21.157 0 38.307-17.15 38.307-38.307v-45.309c38.111-17.028 69.491-54.943 71.805-93.266l.356-208.325c.001-18.349-14.874-33.225-33.224-33.225z" fill="#eaa895"/><g fill="#f9fbfc"><path d="m456.713 98.743c-1.153.452-1.972 1.568-1.972 2.882 0 1.714 1.389 3.103 3.102 3.103 1.156 0 2.153-.64 2.686-1.578-1.142-1.58-2.419-3.053-3.816-4.407z"/><path d="m457.844 118.524c-1.713 0-3.102 1.389-3.102 3.102 0 1.714 1.389 3.103 3.102 3.103s3.102-1.389 3.102-3.103-1.389-3.102-3.102-3.102z"/><path d="m466.825 134.006v-5.514c-1.009.512-1.707 1.548-1.707 2.757s.698 2.245 1.707 2.757z"/><path d="m457.844 138.524c-1.713 0-3.102 1.389-3.102 3.102 0 1.714 1.389 3.103 3.102 3.103s3.102-1.389 3.102-3.103-1.389-3.102-3.102-3.102z"/><path d="m466.825 154.006v-5.514c-1.009.512-1.707 1.548-1.707 2.757s.698 2.245 1.707 2.757z"/><path d="m457.844 158.524c-1.713 0-3.102 1.389-3.102 3.102 0 1.714 1.389 3.103 3.102 3.103s3.102-1.389 3.102-3.103-1.389-3.102-3.102-3.102z"/><path d="m466.825 174.006v-5.514c-1.009.512-1.707 1.548-1.707 2.757s.698 2.245 1.707 2.757z"/><path d="m457.844 178.524c-1.713 0-3.102 1.389-3.102 3.102 0 1.714 1.389 3.103 3.102 3.103s3.102-1.389 3.102-3.103-1.389-3.102-3.102-3.102z"/><path d="m466.825 194.006v-5.514c-1.009.512-1.707 1.548-1.707 2.757s.698 2.245 1.707 2.757z"/><path d="m457.844 198.524c-1.713 0-3.102 1.389-3.102 3.102 0 1.714 1.389 3.103 3.102 3.103s3.102-1.389 3.102-3.103-1.389-3.102-3.102-3.102z"/><path d="m466.825 214.006v-5.514c-1.009.512-1.707 1.548-1.707 2.757s.698 2.245 1.707 2.757z"/><path d="m457.844 218.524c-1.713 0-3.102 1.389-3.102 3.102 0 1.714 1.389 3.103 3.102 3.103s3.102-1.389 3.102-3.103-1.389-3.102-3.102-3.102z"/><path d="m466.825 234.006v-5.514c-1.009.512-1.707 1.548-1.707 2.757s.698 2.245 1.707 2.757z"/><path d="m457.844 238.524c-1.713 0-3.102 1.389-3.102 3.102 0 1.714 1.389 3.103 3.102 3.103s3.102-1.389 3.102-3.103-1.389-3.102-3.102-3.102z"/><path d="m466.825 254.006v-5.514c-1.009.512-1.707 1.548-1.707 2.757s.698 2.245 1.707 2.757z"/><path d="m457.844 258.524c-1.713 0-3.102 1.389-3.102 3.102 0 1.714 1.389 3.103 3.102 3.103s3.102-1.389 3.102-3.103-1.389-3.102-3.102-3.102z"/><path d="m466.825 274.006v-5.514c-1.009.512-1.707 1.548-1.707 2.757s.698 2.245 1.707 2.757z"/><path d="m457.844 278.524c-1.713 0-3.102 1.389-3.102 3.102 0 1.714 1.389 3.103 3.102 3.103s3.102-1.389 3.102-3.103-1.389-3.102-3.102-3.102z"/><path d="m466.825 294.006v-5.514c-1.009.512-1.707 1.548-1.707 2.757s.698 2.245 1.707 2.757z"/><path d="m457.844 298.524c-1.713 0-3.102 1.389-3.102 3.102 0 1.714 1.389 3.103 3.102 3.103s3.102-1.389 3.102-3.103-1.389-3.102-3.102-3.102z"/><path d="m466.825 308.492c-1.009.512-1.707 1.548-1.707 2.757 0 1.206.695 2.239 1.7 2.753.001-.126.007-.25.007-.376z"/><path d="m457.844 318.524c-1.713 0-3.102 1.389-3.102 3.102 0 1.714 1.389 3.103 3.102 3.103s3.102-1.389 3.102-3.103-1.389-3.102-3.102-3.102z"/><path d="m457.844 338.524c-1.713 0-3.102 1.389-3.102 3.102 0 1.714 1.389 3.103 3.102 3.103s3.102-1.389 3.102-3.103-1.389-3.102-3.102-3.102z"/><path d="m454.741 361.625c0 .95.436 1.79 1.109 2.359.815-1.796 1.574-3.607 2.28-5.433-.096-.009-.189-.028-.287-.028-1.713.001-3.102 1.389-3.102 3.102z"/><path d="m448.22 94.352c.689 0 1.319-.232 1.834-.612-1.565-.895-3.206-1.671-4.918-2.305.098 1.625 1.434 2.917 3.084 2.917z"/><path d="m437.844 98.524c-1.713 0-3.102 1.389-3.102 3.102 0 1.714 1.389 3.103 3.102 3.103s3.102-1.389 3.102-3.103-1.389-3.102-3.102-3.102z"/><path d="m448.22 108.147c-1.713 0-3.102 1.389-3.102 3.103 0 1.713 1.389 3.103 3.102 3.103s3.102-1.39 3.102-3.103c0-1.715-1.389-3.103-3.102-3.103z"/><path d="m437.844 118.524c-1.713 0-3.102 1.389-3.102 3.102 0 1.714 1.389 3.103 3.102 3.103s3.102-1.389 3.102-3.103-1.389-3.102-3.102-3.102z"/><path d="m448.22 128.147c-1.713 0-3.102 1.389-3.102 3.103 0 1.713 1.389 3.102 3.102 3.102s3.102-1.39 3.102-3.102c0-1.715-1.389-3.103-3.102-3.103z"/><path d="m437.844 138.524c-1.713 0-3.102 1.389-3.102 3.102 0 1.714 1.389 3.103 3.102 3.103s3.102-1.389 3.102-3.103-1.389-3.102-3.102-3.102z"/><path d="m448.22 148.147c-1.713 0-3.102 1.389-3.102 3.103 0 1.713 1.389 3.102 3.102 3.102s3.102-1.39 3.102-3.102c0-1.715-1.389-3.103-3.102-3.103z"/><path d="m437.844 158.524c-1.713 0-3.102 1.389-3.102 3.102 0 1.714 1.389 3.103 3.102 3.103s3.102-1.389 3.102-3.103-1.389-3.102-3.102-3.102z"/><path d="m448.22 168.147c-1.713 0-3.102 1.389-3.102 3.103 0 1.713 1.389 3.102 3.102 3.102s3.102-1.39 3.102-3.102c0-1.715-1.389-3.103-3.102-3.103z"/><path d="m437.844 178.524c-1.713 0-3.102 1.389-3.102 3.102 0 1.714 1.389 3.103 3.102 3.103s3.102-1.389 3.102-3.103-1.389-3.102-3.102-3.102z"/><path d="m448.22 188.147c-1.713 0-3.102 1.389-3.102 3.103 0 1.713 1.389 3.102 3.102 3.102s3.102-1.39 3.102-3.102c0-1.715-1.389-3.103-3.102-3.103z"/><path d="m437.844 198.524c-1.713 0-3.102 1.389-3.102 3.102 0 1.714 1.389 3.103 3.102 3.103s3.102-1.389 3.102-3.103-1.389-3.102-3.102-3.102z"/><path d="m448.22 208.147c-1.713 0-3.102 1.389-3.102 3.103 0 1.713 1.389 3.102 3.102 3.102s3.102-1.39 3.102-3.102c0-1.715-1.389-3.103-3.102-3.103z"/><path d="m437.844 218.524c-1.713 0-3.102 1.389-3.102 3.102 0 1.714 1.389 3.103 3.102 3.103s3.102-1.389 3.102-3.103-1.389-3.102-3.102-3.102z"/><path d="m448.22 228.147c-1.713 0-3.102 1.389-3.102 3.103 0 1.713 1.389 3.102 3.102 3.102s3.102-1.39 3.102-3.102c0-1.715-1.389-3.103-3.102-3.103z"/><path d="m437.844 238.524c-1.713 0-3.102 1.389-3.102 3.102 0 1.714 1.389 3.103 3.102 3.103s3.102-1.389 3.102-3.103-1.389-3.102-3.102-3.102z"/><path d="m448.22 248.147c-1.713 0-3.102 1.389-3.102 3.103 0 1.713 1.389 3.102 3.102 3.102s3.102-1.39 3.102-3.102c0-1.715-1.389-3.103-3.102-3.103z"/><path d="m437.844 258.524c-1.713 0-3.102 1.389-3.102 3.102 0 1.714 1.389 3.103 3.102 3.103s3.102-1.389 3.102-3.103-1.389-3.102-3.102-3.102z"/><path d="m448.22 268.147c-1.713 0-3.102 1.389-3.102 3.103 0 1.713 1.389 3.103 3.102 3.103s3.102-1.39 3.102-3.103c0-1.715-1.389-3.103-3.102-3.103z"/><path d="m437.844 278.524c-1.713 0-3.102 1.389-3.102 3.102 0 1.714 1.389 3.103 3.102 3.103s3.102-1.389 3.102-3.103-1.389-3.102-3.102-3.102z"/><path d="m448.22 288.147c-1.713 0-3.102 1.389-3.102 3.103 0 1.713 1.389 3.103 3.102 3.103s3.102-1.39 3.102-3.103c0-1.715-1.389-3.103-3.102-3.103z"/><path d="m437.844 298.524c-1.713 0-3.102 1.389-3.102 3.102 0 1.714 1.389 3.103 3.102 3.103s3.102-1.389 3.102-3.103-1.389-3.102-3.102-3.102z"/><path d="m448.22 308.147c-1.713 0-3.102 1.389-3.102 3.103 0 1.713 1.389 3.103 3.102 3.103s3.102-1.39 3.102-3.103c0-1.715-1.389-3.103-3.102-3.103z"/><path d="m437.844 318.524c-1.713 0-3.102 1.389-3.102 3.102 0 1.714 1.389 3.103 3.102 3.103s3.102-1.389 3.102-3.103-1.389-3.102-3.102-3.102z"/><path d="m448.22 328.147c-1.713 0-3.102 1.389-3.102 3.103 0 1.713 1.389 3.103 3.102 3.103s3.102-1.39 3.102-3.103c0-1.715-1.389-3.103-3.102-3.103z"/><path d="m437.844 338.524c-1.713 0-3.102 1.389-3.102 3.102 0 1.714 1.389 3.103 3.102 3.103s3.102-1.389 3.102-3.103-1.389-3.102-3.102-3.102z"/><path d="m448.22 348.147c-1.713 0-3.102 1.389-3.102 3.103 0 1.713 1.389 3.103 3.102 3.103s3.102-1.39 3.102-3.103c0-1.715-1.389-3.103-3.102-3.103z"/><path d="m437.844 358.524c-1.713 0-3.102 1.389-3.102 3.102 0 1.714 1.389 3.103 3.102 3.103s3.102-1.389 3.102-3.103-1.389-3.102-3.102-3.102z"/><path d="m448.22 368.147c-1.713 0-3.102 1.389-3.102 3.103 0 1.713 1.389 3.103 3.102 3.103s3.102-1.39 3.102-3.103c0-1.715-1.389-3.103-3.102-3.103z"/><path d="m437.844 384.728c1.713 0 3.102-1.389 3.102-3.103 0-1.713-1.389-3.102-3.102-3.102s-3.102 1.389-3.102 3.102c-.001 1.714 1.388 3.103 3.102 3.103z"/><path d="m427.429 89.387v4.85c.254.067.516.115.791.115 1.713 0 3.102-1.39 3.102-3.103 0-.708-.246-1.353-.646-1.875h-2.732c-.172 0-.343.011-.515.013z"/><path d="m428.22 108.147c-.275 0-.537.048-.791.114v5.976c.254.067.516.115.791.115 1.713 0 3.102-1.39 3.102-3.103 0-1.714-1.389-3.102-3.102-3.102z"/><path d="m428.22 128.147c-.275 0-.537.048-.791.114v5.976c.254.067.516.115.791.115 1.713 0 3.102-1.39 3.102-3.102 0-1.715-1.389-3.103-3.102-3.103z"/><path d="m428.22 148.147c-.275 0-.537.048-.791.114v5.976c.254.067.516.115.791.115 1.713 0 3.102-1.39 3.102-3.102 0-1.715-1.389-3.103-3.102-3.103z"/><path d="m428.22 168.147c-.275 0-.537.048-.791.114v5.976c.254.067.516.115.791.115 1.713 0 3.102-1.39 3.102-3.102 0-1.715-1.389-3.103-3.102-3.103z"/><path d="m428.22 188.147c-.275 0-.537.048-.791.114v5.976c.254.067.516.115.791.115 1.713 0 3.102-1.39 3.102-3.102 0-1.715-1.389-3.103-3.102-3.103z"/><path d="m428.22 208.147c-.275 0-.537.048-.791.114v5.976c.254.067.516.115.791.115 1.713 0 3.102-1.39 3.102-3.102 0-1.715-1.389-3.103-3.102-3.103z"/><path d="m428.22 228.147c-.275 0-.537.048-.791.114v5.976c.254.067.516.115.791.115 1.713 0 3.102-1.39 3.102-3.102 0-1.715-1.389-3.103-3.102-3.103z"/><path d="m428.22 248.147c-.275 0-.537.048-.791.114v5.976c.254.067.516.115.791.115 1.713 0 3.102-1.39 3.102-3.102 0-1.715-1.389-3.103-3.102-3.103z"/><path d="m431.322 271.249c0-1.714-1.389-3.103-3.102-3.103-.275 0-.537.048-.791.114v5.971.005c.254.067.516.115.791.115 1.713.001 3.102-1.389 3.102-3.102z"/><path d="m428.22 294.352c1.713 0 3.102-1.39 3.102-3.103 0-1.714-1.389-3.103-3.102-3.103-1.339 0-2.47.853-2.904 2.043-.046.173-.095.344-.143.516-.031.177-.055.357-.055.544 0 1.713 1.389 3.103 3.102 3.103z"/><path d="m428.22 308.147c-1.713 0-3.102 1.389-3.102 3.103 0 1.713 1.389 3.103 3.102 3.103s3.102-1.39 3.102-3.103c0-1.715-1.389-3.103-3.102-3.103z"/><path d="m420.946 321.625c0-1.339-.853-2.47-2.042-2.904-.732 1.917-1.525 3.819-2.376 5.704.401.19.844.303 1.316.303 1.713 0 3.102-1.389 3.102-3.103z"/><path d="m428.22 328.147c-1.713 0-3.102 1.389-3.102 3.103 0 1.713 1.389 3.103 3.102 3.103s3.102-1.39 3.102-3.103c0-1.715-1.389-3.103-3.102-3.103z"/><path d="m417.844 338.524c-1.713 0-3.102 1.389-3.102 3.102 0 1.714 1.389 3.103 3.102 3.103s3.102-1.389 3.102-3.103-1.389-3.102-3.102-3.102z"/><path d="m428.22 348.147c-1.713 0-3.102 1.389-3.102 3.103 0 1.713 1.389 3.103 3.102 3.103s3.102-1.39 3.102-3.103c0-1.715-1.389-3.103-3.102-3.103z"/><path d="m417.844 358.524c-1.713 0-3.102 1.389-3.102 3.102 0 1.714 1.389 3.103 3.102 3.103s3.102-1.389 3.102-3.103-1.389-3.102-3.102-3.102z"/><path d="m428.22 368.147c-1.713 0-3.102 1.389-3.102 3.103 0 1.713 1.389 3.103 3.102 3.103s3.102-1.39 3.102-3.103c0-1.715-1.389-3.103-3.102-3.103z"/><path d="m417.844 378.524c-1.713 0-3.102 1.389-3.102 3.102 0 1.714 1.389 3.103 3.102 3.103s3.102-1.389 3.102-3.103-1.389-3.102-3.102-3.102z"/><path d="m428.22 394.352c1.713 0 3.102-1.39 3.102-3.103 0-1.714-1.389-3.103-3.102-3.103s-3.102 1.389-3.102 3.103c0 1.713 1.389 3.103 3.102 3.103z"/><path d="m417.844 398.524c-1.713 0-3.102 1.389-3.102 3.102 0 1.714 1.389 3.103 3.102 3.103s3.102-1.389 3.102-3.103-1.389-3.102-3.102-3.102z"/><path d="m408.22 348.147c-1.713 0-3.102 1.389-3.102 3.103 0 1.713 1.389 3.103 3.102 3.103s3.102-1.39 3.102-3.103c0-1.715-1.389-3.103-3.102-3.103z"/><path d="m397.844 358.524c-1.713 0-3.102 1.389-3.102 3.102 0 1.714 1.389 3.103 3.102 3.103s3.102-1.389 3.102-3.103-1.389-3.102-3.102-3.102z"/><path d="m408.22 368.147c-1.713 0-3.102 1.389-3.102 3.103 0 1.713 1.389 3.103 3.102 3.103s3.102-1.39 3.102-3.103c0-1.715-1.389-3.103-3.102-3.103z"/><path d="m397.844 378.524c-1.713 0-3.102 1.389-3.102 3.102 0 1.714 1.389 3.103 3.102 3.103s3.102-1.389 3.102-3.103-1.389-3.102-3.102-3.102z"/><path d="m408.22 388.147c-1.713 0-3.102 1.389-3.102 3.103 0 1.713 1.389 3.103 3.102 3.103s3.102-1.39 3.102-3.103c0-1.715-1.389-3.103-3.102-3.103z"/><path d="m397.844 398.524c-1.713 0-3.102 1.389-3.102 3.102 0 1.714 1.389 3.103 3.102 3.103s3.102-1.389 3.102-3.103-1.389-3.102-3.102-3.102z"/><path d="m408.22 408.147c-1.713 0-3.102 1.389-3.102 3.103 0 1.713 1.389 3.103 3.102 3.103s3.102-1.39 3.102-3.103c0-1.715-1.389-3.103-3.102-3.103z"/><path d="m397.844 418.524c-1.713 0-3.102 1.389-3.102 3.102 0 .834.333 1.588.868 2.145 1.785-.816 3.548-1.683 5.292-2.588-.218-1.503-1.497-2.659-3.058-2.659z"/><path d="m388.22 368.147c-1.713 0-3.102 1.389-3.102 3.103 0 1.713 1.389 3.103 3.102 3.103s3.102-1.39 3.102-3.103c0-1.715-1.389-3.103-3.102-3.103z"/><path d="m377.844 378.524c-1.713 0-3.102 1.389-3.102 3.102 0 1.714 1.389 3.103 3.102 3.103s3.102-1.389 3.102-3.103-1.389-3.102-3.102-3.102z"/><path d="m388.22 388.147c-1.713 0-3.102 1.389-3.102 3.103 0 1.713 1.389 3.103 3.102 3.103s3.102-1.39 3.102-3.103c0-1.715-1.389-3.103-3.102-3.103z"/><path d="m377.844 398.524c-1.713 0-3.102 1.389-3.102 3.102 0 1.714 1.389 3.103 3.102 3.103s3.102-1.389 3.102-3.103-1.389-3.102-3.102-3.102z"/><path d="m388.22 408.147c-1.713 0-3.102 1.389-3.102 3.103 0 1.713 1.389 3.103 3.102 3.103s3.102-1.39 3.102-3.103c0-1.715-1.389-3.103-3.102-3.103z"/><path d="m377.844 418.524c-1.713 0-3.102 1.389-3.102 3.102 0 1.714 1.389 3.103 3.102 3.103s3.102-1.389 3.102-3.103-1.389-3.102-3.102-3.102z"/><path d="m360.898 382.105c-1.506.771-3.029 1.509-4.566 2.214.449.253.96.409 1.512.409 1.549 0 2.821-1.139 3.054-2.623z"/><path d="m368.22 388.147c-1.713 0-3.102 1.389-3.102 3.103 0 1.713 1.389 3.103 3.102 3.103s3.102-1.39 3.102-3.103c0-1.715-1.389-3.103-3.102-3.103z"/><path d="m357.844 398.524c-1.713 0-3.102 1.389-3.102 3.102 0 1.714 1.389 3.103 3.102 3.103s3.102-1.389 3.102-3.103-1.389-3.102-3.102-3.102z"/><path d="m368.22 408.147c-1.713 0-3.102 1.389-3.102 3.103 0 1.713 1.389 3.103 3.102 3.103s3.102-1.39 3.102-3.103c0-1.715-1.389-3.103-3.102-3.103z"/><path d="m357.844 424.728c1.713 0 3.102-1.389 3.102-3.103 0-1.713-1.389-3.102-3.102-3.102s-3.102 1.389-3.102 3.102c-.001 1.714 1.388 3.103 3.102 3.103z"/><path d="m371.322 431.249c0-1.714-1.389-3.103-3.102-3.103s-3.102 1.389-3.102 3.103c0 .514.137.99.358 1.417 1.945-.271 3.88-.602 5.803-.982.02-.144.043-.286.043-.435z"/><path d="m348.22 388.147c-1.713 0-3.102 1.389-3.102 3.103 0 1.713 1.389 3.103 3.102 3.103s3.102-1.39 3.102-3.103c0-1.715-1.389-3.103-3.102-3.103z"/><path d="m337.844 404.728c1.713 0 3.102-1.389 3.102-3.103 0-1.713-1.389-3.102-3.102-3.102s-3.102 1.389-3.102 3.102c-.001 1.714 1.388 3.103 3.102 3.103z"/><path d="m348.22 414.352c1.713 0 3.102-1.39 3.102-3.103 0-1.714-1.389-3.103-3.102-3.103s-3.102 1.389-3.102 3.103c0 1.713 1.389 3.103 3.102 3.103z"/><path d="m337.844 424.728c1.713 0 3.102-1.389 3.102-3.103 0-1.713-1.389-3.102-3.102-3.102s-3.102 1.389-3.102 3.102c-.001 1.714 1.388 3.103 3.102 3.103z"/><path d="m351.322 431.249c0-1.714-1.389-3.103-3.102-3.103s-3.102 1.389-3.102 3.103c0 .989.472 1.861 1.194 2.429 1.288-.027 2.582-.045 3.882-.054.684-.569 1.128-1.416 1.128-2.375z"/><path d="m328.22 394.352c1.287 0 2.391-.785 2.861-1.901-1.716.326-3.442.607-5.175.846.568.642 1.389 1.055 2.314 1.055z"/><path d="m314.741 401.625c0 1.714 1.389 3.103 3.102 3.103s3.102-1.389 3.102-3.103c0-1.713-1.389-3.102-3.102-3.102s-3.102 1.389-3.102 3.102z"/><path d="m328.22 408.147c-1.713 0-3.102 1.389-3.102 3.103 0 1.713 1.389 3.103 3.102 3.103s3.102-1.39 3.102-3.103c0-1.715-1.389-3.103-3.102-3.103z"/><path d="m317.844 424.728c1.713 0 3.102-1.389 3.102-3.103 0-1.713-1.389-3.102-3.102-3.102s-3.102 1.389-3.102 3.102c-.001 1.714 1.388 3.103 3.102 3.103z"/><path d="m328.22 428.147c-1.713 0-3.102 1.389-3.102 3.103 0 1.713 1.389 3.103 3.102 3.103s3.102-1.39 3.102-3.103c0-1.715-1.389-3.103-3.102-3.103z"/><path d="m308.22 394.352c.271 0 .529-.046.779-.111-.49.007-.976.02-1.465.029.222.049.45.082.686.082z"/><path d="m297.844 398.524c-1.713 0-3.102 1.389-3.102 3.102 0 1.714 1.389 3.103 3.102 3.103s3.102-1.389 3.102-3.103-1.389-3.102-3.102-3.102z"/><path d="m308.22 408.147c-1.713 0-3.102 1.389-3.102 3.103 0 1.713 1.389 3.103 3.102 3.103s3.102-1.39 3.102-3.103c0-1.715-1.389-3.103-3.102-3.103z"/><path d="m297.844 418.524c-1.713 0-3.102 1.389-3.102 3.102 0 1.714 1.389 3.103 3.102 3.103s3.102-1.389 3.102-3.103-1.389-3.102-3.102-3.102z"/><path d="m311.322 431.249c0-1.714-1.389-3.103-3.102-3.103s-3.102 1.389-3.102 3.103c0 1.713 1.389 3.103 3.102 3.103s3.102-1.39 3.102-3.103z"/><path d="m274.741 401.625c0 1.714 1.389 3.103 3.102 3.103s3.102-1.389 3.102-3.103c0-1.713-1.389-3.102-3.102-3.102-1.713.001-3.102 1.389-3.102 3.102z"/><path d="m288.22 408.147c-1.713 0-3.102 1.389-3.102 3.103 0 1.713 1.389 3.103 3.102 3.103s3.102-1.39 3.102-3.103c0-1.715-1.389-3.103-3.102-3.103z"/><path d="m277.844 424.728c1.713 0 3.102-1.389 3.102-3.103 0-1.713-1.389-3.102-3.102-3.102s-3.102 1.389-3.102 3.102c-.001 1.714 1.388 3.103 3.102 3.103z"/><path d="m288.22 428.147c-1.713 0-3.102 1.389-3.102 3.103 0 1.713 1.389 3.103 3.102 3.103s3.102-1.39 3.102-3.103c0-1.715-1.389-3.103-3.102-3.103z"/><path d="m257.843 398.524c-1.713 0-3.102 1.389-3.102 3.102 0 1.714 1.389 3.103 3.102 3.103s3.102-1.389 3.102-3.103c.001-1.714-1.388-3.102-3.102-3.102z"/><path d="m268.22 408.147c-1.713 0-3.102 1.389-3.102 3.103 0 1.713 1.389 3.103 3.102 3.103s3.102-1.39 3.102-3.103c0-1.715-1.389-3.103-3.102-3.103z"/><path d="m257.843 418.524c-1.713 0-3.102 1.389-3.102 3.102 0 1.714 1.389 3.103 3.102 3.103s3.102-1.389 3.102-3.103c.001-1.714-1.388-3.102-3.102-3.102z"/><path d="m268.22 428.147c-1.713 0-3.102 1.389-3.102 3.103 0 1.713 1.389 3.103 3.102 3.103s3.102-1.39 3.102-3.103c0-1.715-1.389-3.103-3.102-3.103z"/><path d="m237.843 398.524c-1.713 0-3.102 1.389-3.102 3.102 0 1.714 1.389 3.103 3.102 3.103s3.102-1.389 3.102-3.103c.001-1.714-1.388-3.102-3.102-3.102z"/><path d="m248.22 408.147c-1.713 0-3.102 1.389-3.102 3.103 0 1.713 1.389 3.103 3.102 3.103s3.102-1.39 3.102-3.103c0-1.715-1.389-3.103-3.102-3.103z"/><path d="m237.843 418.524c-1.713 0-3.102 1.389-3.102 3.102 0 1.714 1.389 3.103 3.102 3.103s3.102-1.389 3.102-3.103c.001-1.714-1.388-3.102-3.102-3.102z"/><path d="m248.22 428.147c-1.713 0-3.102 1.389-3.102 3.103 0 1.713 1.389 3.103 3.102 3.103s3.102-1.39 3.102-3.103c0-1.715-1.389-3.103-3.102-3.103z"/><path d="m217.843 398.524c-1.713 0-3.102 1.389-3.102 3.102 0 1.714 1.389 3.103 3.102 3.103s3.102-1.389 3.102-3.103c.001-1.714-1.388-3.102-3.102-3.102z"/><path d="m228.22 408.147c-1.713 0-3.102 1.389-3.102 3.103 0 1.713 1.389 3.103 3.102 3.103s3.102-1.39 3.102-3.103c0-1.715-1.389-3.103-3.102-3.103z"/><path d="m217.843 418.524c-1.713 0-3.102 1.389-3.102 3.102 0 1.714 1.389 3.103 3.102 3.103s3.102-1.389 3.102-3.103c.001-1.714-1.388-3.102-3.102-3.102z"/><path d="m228.22 428.147c-1.713 0-3.102 1.389-3.102 3.103 0 1.713 1.389 3.103 3.102 3.103s3.102-1.39 3.102-3.103c0-1.715-1.389-3.103-3.102-3.103z"/><path d="m197.843 398.524c-1.713 0-3.102 1.389-3.102 3.102 0 1.714 1.389 3.103 3.102 3.103s3.102-1.389 3.102-3.103c.001-1.714-1.388-3.102-3.102-3.102z"/><path d="m208.22 408.147c-1.713 0-3.102 1.389-3.102 3.103 0 1.713 1.389 3.103 3.102 3.103s3.102-1.39 3.102-3.103c0-1.715-1.389-3.103-3.102-3.103z"/><path d="m197.843 418.524c-1.713 0-3.102 1.389-3.102 3.102 0 1.714 1.389 3.103 3.102 3.103s3.102-1.389 3.102-3.103c.001-1.714-1.388-3.102-3.102-3.102z"/><path d="m208.22 428.147c-1.713 0-3.102 1.389-3.102 3.103 0 1.713 1.389 3.103 3.102 3.103s3.102-1.39 3.102-3.103c0-1.715-1.389-3.103-3.102-3.103z"/><path d="m177.843 398.524c-1.713 0-3.102 1.389-3.102 3.102 0 1.714 1.389 3.103 3.102 3.103s3.102-1.389 3.102-3.103c.001-1.714-1.388-3.102-3.102-3.102z"/><path d="m188.22 408.147c-1.713 0-3.102 1.389-3.102 3.103 0 1.713 1.389 3.103 3.102 3.103s3.102-1.39 3.102-3.103c0-1.715-1.389-3.103-3.102-3.103z"/><path d="m177.843 418.524c-1.713 0-3.102 1.389-3.102 3.102 0 1.714 1.389 3.103 3.102 3.103s3.102-1.389 3.102-3.103c.001-1.714-1.388-3.102-3.102-3.102z"/><path d="m188.22 428.147c-1.713 0-3.102 1.389-3.102 3.103 0 1.713 1.389 3.103 3.102 3.103s3.102-1.39 3.102-3.103c0-1.715-1.389-3.103-3.102-3.103z"/><path d="m157.843 398.524c-1.713 0-3.102 1.389-3.102 3.102 0 1.714 1.389 3.103 3.102 3.103s3.102-1.389 3.102-3.103c.001-1.714-1.388-3.102-3.102-3.102z"/><path d="m165.118 411.249c0 1.713 1.389 3.103 3.102 3.103s3.102-1.39 3.102-3.103c0-1.714-1.389-3.103-3.102-3.103-1.713.001-3.102 1.389-3.102 3.103z"/><path d="m160.946 421.625c0-1.713-1.389-3.102-3.102-3.102s-3.102 1.389-3.102 3.102c0 1.714 1.389 3.103 3.102 3.103s3.102-1.389 3.102-3.103z"/><path d="m168.22 434.352c1.713 0 3.102-1.39 3.102-3.103 0-1.714-1.389-3.103-3.102-3.103s-3.102 1.389-3.102 3.103c0 1.713 1.389 3.103 3.102 3.103z"/><path d="m137.843 404.728c1.713 0 3.102-1.389 3.102-3.103 0-1.713-1.389-3.102-3.102-3.102s-3.102 1.389-3.102 3.102c0 1.714 1.389 3.103 3.102 3.103z"/><path d="m148.22 414.352c1.713 0 3.102-1.39 3.102-3.103 0-1.714-1.389-3.103-3.102-3.103s-3.102 1.389-3.102 3.103c0 1.713 1.389 3.103 3.102 3.103z"/><path d="m137.843 424.728c1.713 0 3.102-1.389 3.102-3.103 0-1.713-1.389-3.102-3.102-3.102s-3.102 1.389-3.102 3.102c0 1.714 1.389 3.103 3.102 3.103z"/><path d="m151.322 431.249c0-1.714-1.389-3.103-3.102-3.103s-3.102 1.389-3.102 3.103c0 .695.237 1.331.624 1.848 1.445.228 2.899.428 4.361.603.736-.568 1.219-1.449 1.219-2.451z"/><path d="m117.843 398.524c-1.713 0-3.102 1.389-3.102 3.102 0 1.714 1.389 3.103 3.102 3.103s3.102-1.389 3.102-3.103c.001-1.714-1.388-3.102-3.102-3.102z"/><path d="m131.322 411.249c0-1.714-1.389-3.103-3.102-3.103s-3.102 1.389-3.102 3.103c0 1.713 1.389 3.103 3.102 3.103s3.102-1.39 3.102-3.103z"/><path d="m117.843 418.524c-1.713 0-3.102 1.389-3.102 3.102 0 1.714 1.389 3.103 3.102 3.103s3.102-1.389 3.102-3.103c.001-1.714-1.388-3.102-3.102-3.102z"/><path d="m128.22 428.147c-.509 0-.982.135-1.406.352 1.363.453 2.739.879 4.123 1.283-.525-.969-1.538-1.635-2.717-1.635z"/><path d="m109.346 394.133c-1.01-.134-2.016-.282-3.018-.44.525.406 1.176.659 1.891.659.399 0 .777-.082 1.127-.219z"/><path d="m94.741 401.625c0 1.714 1.389 3.103 3.102 3.103s3.102-1.389 3.102-3.103c0-1.713-1.389-3.102-3.102-3.102-1.713.001-3.102 1.389-3.102 3.102z"/><path d="m105.118 411.249c0 1.713 1.389 3.103 3.102 3.103s3.102-1.39 3.102-3.103c0-1.714-1.389-3.103-3.102-3.103-1.713.001-3.102 1.389-3.102 3.103z"/><path d="m85.118 391.249c0 1.713 1.389 3.103 3.102 3.103s3.102-1.39 3.102-3.103c0-.345-.069-.67-.173-.98-1.599-.473-3.181-.982-4.751-1.52-.773.564-1.28 1.47-1.28 2.5z"/><path d="m79.432 398.974c.352.357.707.711 1.063 1.062-.262-.436-.626-.799-1.063-1.062z"/></g><path d="m298.495 170.36c-18.293-21.021-45.223-34.328-75.278-34.328s-56.984 13.306-75.278 34.328c-15.249 17.523-24.503 40.4-24.503 65.453s9.254 47.93 24.503 65.453c18.293 21.021 45.223 34.328 75.278 34.328s56.984-13.307 75.278-34.328c15.249-17.523 24.503-40.4 24.503-65.453.001-25.053-9.254-47.93-24.503-65.453z" fill="#f9fbfc"/><g fill="#eaa895"><path d="m315.744 198.506c-.55-1.36-1.129-2.706-1.737-4.036-.144.358-.228.746-.228 1.155 0 1.312.816 2.426 1.965 2.881z"/><path d="m316.882 218.728c1.713 0 3.102-1.389 3.102-3.103 0-1.713-1.389-3.102-3.102-3.102s-3.102 1.389-3.102 3.102c-.001 1.714 1.388 3.103 3.102 3.103z"/><path d="m316.882 252.524c-1.713 0-3.102 1.389-3.102 3.102 0 1.714 1.389 3.103 3.102 3.103s3.102-1.389 3.102-3.103-1.389-3.102-3.102-3.102z"/><path d="m313.779 275.625c0 .484.121.938.318 1.346.641-1.41 1.251-2.837 1.827-4.281-1.241.405-2.145 1.558-2.145 2.935z"/><path d="m307.258 188.352c1.204 0 2.237-.694 2.751-1.697-.868-1.526-1.771-3.029-2.715-4.504-.012 0-.023-.004-.035-.004-1.713 0-3.102 1.389-3.102 3.103-.001 1.712 1.388 3.102 3.101 3.102z"/><path d="m307.258 208.352c1.713 0 3.102-1.39 3.102-3.102 0-1.714-1.389-3.103-3.102-3.103-.954 0-1.796.439-2.365 1.116.013.662.045 1.32.045 1.985 0 .666-.033 1.323-.046 1.985.569.678 1.412 1.119 2.366 1.119z"/><path d="m307.258 242.147c-1.713 0-3.102 1.389-3.102 3.103 0 1.713 1.389 3.102 3.102 3.102s3.102-1.39 3.102-3.102c0-1.715-1.389-3.103-3.102-3.103z"/><path d="m296.882 252.524c-1.713 0-3.102 1.389-3.102 3.102 0 1.714 1.389 3.103 3.102 3.103s3.102-1.389 3.102-3.103-1.389-3.102-3.102-3.102z"/><path d="m307.258 262.147c-1.713 0-3.102 1.389-3.102 3.103 0 1.713 1.389 3.103 3.102 3.103s3.102-1.39 3.102-3.103c0-1.715-1.389-3.103-3.102-3.103z"/><path d="m296.882 272.524c-1.713 0-3.102 1.389-3.102 3.102 0 1.714 1.389 3.103 3.102 3.103s3.102-1.389 3.102-3.103-1.389-3.102-3.102-3.102z"/><path d="m307.258 282.147c-1.713 0-3.102 1.389-3.102 3.103 0 1.713 1.389 3.103 3.102 3.103.29 0 .566-.053.832-.128.752-1.214 1.478-2.444 2.178-3.692-.324-1.368-1.545-2.386-3.01-2.386z"/><path d="m296.882 292.524c-1.713 0-3.102 1.389-3.102 3.102 0 1.714 1.389 3.103 3.102 3.103s3.102-1.389 3.102-3.103-1.389-3.102-3.102-3.102z"/><path d="m287.258 262.147c-.067 0-.13.016-.197.021-.905 1.299-1.84 2.576-2.804 3.83.336 1.35 1.547 2.355 3.001 2.355 1.713 0 3.102-1.39 3.102-3.103 0-1.715-1.389-3.103-3.102-3.103z"/><path d="m278.417 272.944c-1.353 1.464-2.752 2.885-4.189 4.265.542.906 1.522 1.519 2.654 1.519 1.713 0 3.102-1.389 3.102-3.103 0-1.151-.635-2.145-1.567-2.681z"/><path d="m287.258 282.147c-1.713 0-3.102 1.389-3.102 3.103 0 1.713 1.389 3.103 3.102 3.103s3.102-1.39 3.102-3.103c0-1.715-1.389-3.103-3.102-3.103z"/><path d="m276.882 292.524c-1.713 0-3.102 1.389-3.102 3.102 0 1.714 1.389 3.103 3.102 3.103s3.102-1.389 3.102-3.103-1.389-3.102-3.102-3.102z"/><path d="m287.258 302.147c-1.713 0-3.102 1.389-3.102 3.103 0 1.713 1.389 3.103 3.102 3.103s3.102-1.39 3.102-3.103c0-1.715-1.389-3.103-3.102-3.103z"/><path d="m276.882 312.524c-1.713 0-3.102 1.389-3.102 3.102 0 1.714 1.389 3.103 3.102 3.103s3.102-1.389 3.102-3.103-1.389-3.102-3.102-3.102z"/><path d="m268.415 282.375c-1.376 1.131-2.782 2.225-4.218 3.282.202 1.518 1.488 2.694 3.061 2.694 1.713 0 3.102-1.39 3.102-3.103 0-1.303-.806-2.414-1.945-2.873z"/><path d="m256.881 292.524c-1.713 0-3.102 1.389-3.102 3.102 0 1.714 1.389 3.103 3.102 3.103s3.102-1.389 3.102-3.103c.001-1.714-1.388-3.102-3.102-3.102z"/><path d="m267.258 302.147c-1.713 0-3.102 1.389-3.102 3.103 0 1.713 1.389 3.103 3.102 3.103s3.102-1.39 3.102-3.103c0-1.715-1.389-3.103-3.102-3.103z"/><path d="m256.881 312.524c-1.713 0-3.102 1.389-3.102 3.102 0 1.714 1.389 3.103 3.102 3.103s3.102-1.389 3.102-3.103c.001-1.714-1.388-3.102-3.102-3.102z"/><path d="m267.258 322.147c-1.713 0-3.102 1.389-3.102 3.103 0 .509.134.981.351 1.405 1.879-.856 3.73-1.764 5.545-2.731-.498-1.048-1.557-1.777-2.794-1.777z"/><path d="m247.258 302.147c-1.713 0-3.102 1.389-3.102 3.103 0 1.713 1.389 3.103 3.102 3.103s3.102-1.39 3.102-3.103c0-1.715-1.389-3.103-3.102-3.103z"/><path d="m236.881 312.524c-1.713 0-3.102 1.389-3.102 3.102 0 1.714 1.389 3.103 3.102 3.103s3.102-1.389 3.102-3.103c.001-1.714-1.388-3.102-3.102-3.102z"/><path d="m247.258 322.147c-1.713 0-3.102 1.389-3.102 3.103 0 1.713 1.389 3.103 3.102 3.103s3.102-1.39 3.102-3.103c0-1.715-1.389-3.103-3.102-3.103z"/><path d="m236.881 332.524c-1.509 0-2.764 1.077-3.042 2.505 1.952-.207 3.889-.466 5.806-.784-.509-1.017-1.549-1.721-2.764-1.721z"/><path d="m227.258 322.147c-1.713 0-3.102 1.389-3.102 3.103 0 1.713 1.389 3.103 3.102 3.103s3.102-1.39 3.102-3.103c0-1.715-1.389-3.103-3.102-3.103z"/><path d="m205.157 305.029c-.327 0-.652-.011-.978-.014-.006.078-.023.153-.023.233 0 1.713 1.389 3.103 3.102 3.103s3.102-1.39 3.102-3.103c0-.122-.022-.238-.036-.357-1.712.089-3.433.138-5.167.138z"/><path d="m196.881 312.524c-1.713 0-3.102 1.389-3.102 3.102 0 1.714 1.389 3.103 3.102 3.103s3.102-1.389 3.102-3.103c.001-1.714-1.388-3.102-3.102-3.102z"/><path d="m207.258 322.147c-1.713 0-3.102 1.389-3.102 3.103 0 1.713 1.389 3.103 3.102 3.103s3.102-1.39 3.102-3.103c0-1.715-1.389-3.103-3.102-3.103z"/><path d="m185.124 303.006c-.594.565-.968 1.358-.968 2.243 0 1.713 1.389 3.103 3.102 3.103s3.102-1.39 3.102-3.103c0-.495-.126-.956-.332-1.371-1.648-.251-3.284-.541-4.904-.872z"/><path d="m176.881 312.524c-1.713 0-3.102 1.389-3.102 3.102 0 1.714 1.389 3.103 3.102 3.103s3.102-1.389 3.102-3.103c.001-1.714-1.388-3.102-3.102-3.102z"/><path d="m187.258 322.147c-1.713 0-3.102 1.389-3.102 3.103 0 1.713 1.389 3.103 3.102 3.103s3.102-1.39 3.102-3.103c0-1.715-1.389-3.103-3.102-3.103z"/><path d="m156.815 292.53c-1.682.036-3.036 1.404-3.036 3.095 0 1.714 1.389 3.103 3.102 3.103s3.102-1.389 3.102-3.103c0-.612-.183-1.18-.49-1.661-.9-.465-1.793-.942-2.678-1.434z"/><path d="m167.258 302.147c-1.713 0-3.102 1.389-3.102 3.103 0 1.713 1.389 3.103 3.102 3.103s3.102-1.39 3.102-3.103c0-1.715-1.389-3.103-3.102-3.103z"/><path d="m133.779 275.625c0 1.714 1.389 3.103 3.102 3.103.248 0 .486-.037.718-.092-1.283-1.183-2.535-2.397-3.754-3.645-.043.205-.066.417-.066.634z"/><path d="m144.156 285.249c0 1.713 1.389 3.103 3.102 3.103.68 0 1.303-.226 1.814-.596-1.62-1.105-3.203-2.258-4.753-3.454-.097.301-.163.614-.163.947z"/><path d="m320.217 233.784c-.16-3.378-.355-6.756-.619-10.118-3.223-.117-6.434-.068-9.627.106-.526-.964-1.537-1.626-2.713-1.626-1.35 0-2.487.867-2.913 2.071-5.089.555-10.114 1.478-15.035 2.76l-4.774-6.922c-1.582-2.292-4.72-2.868-7.013-1.287-2.292 1.58-2.869 4.721-1.288 7.013l3.011 4.365c-12.418 4.611-23.952 11.575-33.928 20.635l-4.293-4.293c-1.97-1.969-5.162-1.969-7.131 0-1.969 1.97-1.969 5.162 0 7.131l4.293 4.294c-8.695 9.574-15.454 20.586-20.061 32.436l-3.822-2.636c-2.292-1.581-5.432-1.005-7.013 1.288s-1.004 5.432 1.288 7.014l6.236 4.3c-2.967 10.695-4.229 21.9-3.675 33.22 1.048.151 2.098.287 3.148.427-.226.355-.391.753-.459 1.187 2.032.19 4.081.323 6.147.39-.009-.308-.075-.598-.167-.876.495.06.99.123 1.486.182-.656-9.65.171-19.226 2.361-28.431l1.298.896c.329.369.74.657 1.211.835l.501.346c.874.603 1.871.893 2.858.893 1.601 0 3.176-.762 4.155-2.181 1.581-2.292 1.004-5.432-1.288-7.013l-5.708-3.936c4.108-11.415 10.396-22.029 18.64-31.203l4.107 4.107c.985.984 2.275 1.478 3.566 1.478s2.58-.493 3.565-1.478c1.969-1.969 1.969-5.162 0-7.13l-4.107-4.107c9.578-8.608 20.727-15.091 32.719-19.178l3.537 5.128c.979 1.419 2.554 2.18 4.155 2.18.987 0 1.984-.288 2.858-.891 2.292-1.582 2.869-4.722 1.288-7.014l-1.563-2.266c6.21-1.363 12.581-2.093 19.021-2.181-.425.53-.69 1.195-.69 1.928 0 1.714 1.389 3.103 3.102 3.103s3.102-1.389 3.102-3.103c0-.704-.244-1.346-.639-1.866.291.009.582.011.873.023z"/></g><path d="m238.214 173.747-6.111-4.215c2.735-10.576 3.818-21.627 3.13-32.771-3.357-.2-6.776.023-10.094-.277.002.056-.009.109-.005.166.629 9.059-.054 18.053-1.94 26.738l-3.067-2.116c-2.291-1.581-5.431-1.005-7.013 1.288-1.58 2.293-1.004 5.432 1.288 7.013l5.947 4.102c-4.083 12.062-10.585 23.275-19.237 32.902l-4.107-4.106c-1.969-1.969-5.161-1.969-7.131 0-1.969 1.969-1.969 5.162 0 7.13l4.107 4.108c-9.225 8.291-19.908 14.605-31.397 18.711l-4.501-6.527c-1.581-2.292-4.721-2.868-7.014-1.288-2.292 1.581-2.869 4.721-1.288 7.013l2.628 3.81c-9.182 2.162-18.732 2.97-28.355 2.302-.052-.004-.102.007-.153.005.375 3.406.958 6.785 1.6 10.167 1.719.084 3.436.142 5.15.142 9.49 0 18.856-1.286 27.863-3.765l3.743 5.426c.979 1.419 2.554 2.18 4.155 2.18.987 0 1.984-.289 2.858-.892 2.292-1.581 2.869-4.721 1.288-7.013l-2.065-2.994c11.923-4.608 23.002-11.397 32.628-20.138l4.29 4.29c.985.984 2.275 1.476 3.566 1.476s2.581-.492 3.566-1.476c1.969-1.969 1.969-5.162 0-7.13l-4.293-4.294c9.103-10.024 16.089-21.621 20.699-34.107l3.541 2.443c.874.602 1.871.891 2.858.891 1.601 0 3.176-.761 4.155-2.179 1.58-2.294 1.004-5.434-1.289-7.015z" fill="#eaa895"/><path d="m433.6 85.335h-5.656c-16.061 0-29.748 10.162-34.984 24.406h-64.939v-64.376c0-25.054-20.31-45.365-45.364-45.365h-196.311c-25.054 0-45.365 20.311-45.365 45.365v269.738c0 51.232 31.194 95.176 75.623 113.88v40.137c0 23.558 19.166 42.725 42.724 42.725h196.649c23.559 0 42.725-19.167 42.725-42.725v-41.947c38.595-17.358 69.519-54.168 72.143-94.215l.018-210.359c.001-20.58-16.683-37.264-37.263-37.264zm-105.579 32.483h62.975c-.201 1.566-.316 3.159-.316 4.78v30.212h-62.66v-34.992zm0 43.069h62.66v34.992h-62.66zm-.021 73.319c.004-.072.021-.14.021-.213v-30.037h62.66v21.296c-23.565.004-45.378 7.612-63.141 20.483.361-3.814.519-7.662.46-11.529zm-69.17-167.297 10.956 10.955c.781.781 1.804 1.172 2.828 1.172s2.047-.39 2.828-1.172c1.562-1.561 1.562-4.094 0-5.655l-14.486-14.486 14.486-14.486c1.562-1.561 1.562-4.094 0-5.655-1.562-1.562-4.094-1.562-5.656 0l-10.956 10.956v-40.461h23.826c20.593 0 37.288 16.694 37.288 37.287v150.133c-5.22-12.54-12.851-24.051-22.605-33.806-10.963-10.962-24.139-19.251-38.508-24.436v-70.346zm31.378 235.894c-19.372 19.373-46.192 29.396-73.588 27.492-22.799-1.582-44.247-11.345-60.392-27.492-16.147-16.147-25.91-37.594-27.492-60.393-1.901-27.394 8.12-54.216 27.492-73.589 17.815-17.814 41.926-27.719 66.993-27.719 2.191 0 4.393.075 6.595.229 22.799 1.582 44.247 11.345 60.392 27.491 16.147 16.147 25.91 37.595 27.492 60.393 1.9 27.394-8.12 54.217-27.492 73.588zm-101.594-235.934 10.995 10.995c.781.781 1.804 1.172 2.828 1.172s2.047-.39 2.828-1.172c1.562-1.561 1.562-4.094 0-5.655l-14.486-14.486 14.486-14.486c1.562-1.561 1.562-4.094 0-5.655-1.562-1.562-4.094-1.562-5.656 0l-10.995 10.995v-40.5h62.139v39.442l-9.938-9.937c-1.562-1.562-4.094-1.562-5.656 0-1.562 1.561-1.562 4.094 0 5.655l14.486 14.486-14.486 14.486c-1.562 1.561-1.562 4.094 0 5.655.781.781 1.804 1.172 2.828 1.172s2.047-.39 2.828-1.172l9.938-9.937v66.787c-6.578-1.789-13.35-2.965-20.24-3.443-14.38-.997-28.616.98-41.9 5.619v-70.021zm202.012 402.252c0 19.104-15.543 34.647-34.648 34.647h-196.649c-19.105 0-34.647-15.543-34.647-34.647v-37.068c12.49 4.25 25.879 6.558 39.807 6.558h1.016v19.17c0 2.208 1.791 3.999 3.999 3.999 2.209 0 3.999-1.791 3.999-3.999v-19.17h50.175v19.17c0 2.208 1.791 3.999 3.999 3.999s3.999-1.791 3.999-3.999v-19.17h50.176v19.17c0 2.208 1.791 3.999 3.999 3.999s3.999-1.791 3.999-3.999v-19.17s46.727-.571 50.175-.704v19.874c0 2.208 1.791 3.999 3.999 3.999s3.999-1.791 3.999-3.999v-20.088c1.308-.021 2.615-.044 3.935-.044 13.08 0 26.184-2.566 38.667-7.174v38.646zm72.186-137.109c-3.118 51.652-57.294 97.56-110.854 97.56-1.324 0-2.628.023-3.935.044v-10.617c0-2.208-1.791-3.999-3.999-3.999s-3.999 1.791-3.999 3.999v10.824c-3.592.137-50.175.711-50.175.711v-11.535c0-2.208-1.791-3.999-3.999-3.999s-3.999 1.791-3.999 3.999v11.535h-50.176v-11.535c0-2.208-1.791-3.999-3.999-3.999s-3.999 1.791-3.999 3.999v11.535h-50.175v-11.535c0-2.208-1.79-3.999-3.999-3.999-2.208 0-3.999 1.791-3.999 3.999v11.535h-1.016c-63.751 0-115.431-51.68-115.431-115.431v-269.738c0-20.593 16.694-37.287 37.287-37.287h21.827v39.988l-10.482-10.484c-1.562-1.562-4.094-1.562-5.656 0-1.562 1.561-1.562 4.094 0 5.655l14.486 14.486-14.486 14.486c-1.562 1.561-1.562 4.094 0 5.655.781.781 1.804 1.172 2.828 1.172s2.047-.39 2.828-1.172l10.483-10.483v145.028h8.077v-144.955l10.411 10.41c.781.781 1.804 1.172 2.828 1.172s2.047-.39 2.828-1.172c1.562-1.561 1.562-4.094 0-5.655l-14.486-14.486 14.486-14.486c1.562-1.561 1.562-4.094 0-5.655-1.562-1.562-4.094-1.562-5.656 0l-10.411 10.41v-39.915h64.286v39.403l-9.898-9.898c-1.562-1.562-4.094-1.562-5.656 0-1.562 1.561-1.562 4.094 0 5.655l14.486 14.486-14.486 14.486c-1.562 1.561-1.562 4.094 0 5.655.781.781 1.804 1.172 2.828 1.172s2.047-.39 2.828-1.172l9.898-9.898v72.128c-11.59 5.16-22.27 12.428-31.44 21.598-21.436 21.437-32.524 51.111-30.42 81.417 1.75 25.226 12.554 48.959 30.42 66.825 17.867 17.867 41.599 28.671 66.825 30.422 2.438.169 4.868.252 7.294.252 21.64 0 42.642-6.676 60.191-18.977-.406 3.794-.628 7.642-.628 11.541 0 2.231 1.808 4.039 4.039 4.039 2.23 0 4.039-1.808 4.039-4.039 0-6.44.621-12.735 1.793-18.839 1.601-1.416 3.169-2.878 4.69-4.399 14.515-14.514 24.278-32.81 28.421-52.519 17.472-14.999 40.16-24.084 64.94-24.084.132 0 .256-.026.385-.039 4.275-.22 7.674-3.744 7.674-8.072v-102.62c0-16.12 13.068-29.188 29.188-29.188h5.654c16.119 0 29.187 13.067 29.187 29.187-.001 0 .044 209.081.024 209.413z" fill="#31373d"/></g></svg>