<svg id="Capa_1" enable-background="new 0 0 511.377 511.377" height="512" viewBox="0 0 511.377 511.377" width="512" xmlns="http://www.w3.org/2000/svg"><g><ellipse cx="256.249" cy="256.285" fill="#eaa895" rx="251.644" ry="251.644" transform="matrix(.707 -.707 .707 .707 -106.168 256.26)"/><g fill="#f9fbfc"><path d="m507.55 243.401c-.061-1.201-.121-2.401-.199-3.6-.309.482-.494 1.053-.494 1.669.001.734.267 1.399.693 1.931z"/><path d="m506.858 261.47c0 .86.351 1.638.916 2.2.044-1.493.079-2.986.097-4.48-.619.567-1.013 1.374-1.013 2.28z"/><path d="m486.858 161.47c0 1.713 1.389 3.102 3.102 3.102.227 0 .446-.027.659-.074-.74-1.892-1.505-3.777-2.293-5.655-.879.547-1.468 1.515-1.468 2.627z"/><path d="m489.96 178.367c-1.713 0-3.102 1.389-3.102 3.103 0 1.713 1.389 3.102 3.102 3.102s3.102-1.389 3.102-3.102c0-1.714-1.388-3.103-3.102-3.103z"/><path d="m497.234 191.093c0 1.647 1.287 2.98 2.908 3.083-.481-1.895-.985-3.785-1.511-5.671-.84.554-1.397 1.505-1.397 2.588z"/><path d="m489.96 198.367c-1.713 0-3.102 1.389-3.102 3.103 0 1.713 1.389 3.102 3.102 3.102s3.102-1.389 3.102-3.102c0-1.714-1.388-3.103-3.102-3.103z"/><path d="m500.337 207.991c-1.713 0-3.102 1.389-3.102 3.102s1.389 3.103 3.102 3.103 3.102-1.389 3.102-3.103c0-1.713-1.389-3.102-3.102-3.102z"/><path d="m489.96 218.367c-1.713 0-3.102 1.389-3.102 3.103 0 1.713 1.389 3.102 3.102 3.102s3.102-1.389 3.102-3.102c0-1.714-1.388-3.103-3.102-3.103z"/><path d="m500.337 227.991c-1.713 0-3.102 1.389-3.102 3.102s1.389 3.103 3.102 3.103 3.102-1.389 3.102-3.103c0-1.713-1.389-3.102-3.102-3.102z"/><path d="m489.96 238.367c-1.713 0-3.102 1.389-3.102 3.103 0 1.713 1.389 3.102 3.102 3.102s3.102-1.389 3.102-3.102c0-1.714-1.388-3.103-3.102-3.103z"/><path d="m500.337 247.991c-1.713 0-3.102 1.389-3.102 3.102s1.389 3.103 3.102 3.103 3.102-1.389 3.102-3.103c0-1.713-1.389-3.102-3.102-3.102z"/><path d="m489.96 258.367c-1.713 0-3.102 1.389-3.102 3.103 0 1.713 1.389 3.102 3.102 3.102s3.102-1.389 3.102-3.102c0-1.714-1.388-3.103-3.102-3.103z"/><path d="m500.337 267.991c-1.713 0-3.102 1.389-3.102 3.102s1.389 3.103 3.102 3.103 3.102-1.389 3.102-3.103c0-1.713-1.389-3.102-3.102-3.102z"/><path d="m489.96 278.367c-1.713 0-3.102 1.389-3.102 3.103 0 1.713 1.389 3.102 3.102 3.102s3.102-1.389 3.102-3.102c0-1.714-1.388-3.103-3.102-3.103z"/><path d="m500.337 287.991c-1.713 0-3.102 1.389-3.102 3.102s1.389 3.103 3.102 3.103 3.102-1.389 3.102-3.103c0-1.713-1.389-3.102-3.102-3.102z"/><path d="m489.96 298.367c-1.713 0-3.102 1.389-3.102 3.103 0 1.713 1.389 3.102 3.102 3.102s3.102-1.389 3.102-3.102c0-1.714-1.388-3.103-3.102-3.103z"/><path d="m497.234 311.093c0 1.713 1.389 3.103 3.102 3.103.296 0 .576-.055.847-.132.414-1.763.806-3.53 1.182-5.3-.545-.475-1.249-.773-2.029-.773-1.713 0-3.102 1.389-3.102 3.102z"/><path d="m489.96 318.367c-1.713 0-3.102 1.389-3.102 3.103 0 1.713 1.389 3.102 3.102 3.102s3.102-1.389 3.102-3.102c0-1.714-1.388-3.103-3.102-3.103z"/><path d="m489.96 338.367c-1.713 0-3.102 1.389-3.102 3.103 0 1.713 1.389 3.102 3.102 3.102.984 0 1.85-.467 2.419-1.181.222-.604.455-1.205.673-1.811.001-.038.011-.073.011-.11-.001-1.714-1.389-3.103-3.103-3.103z"/><path d="m469.96 124.572c.244 0 .478-.035.706-.088-1.02-1.655-2.057-3.304-3.119-4.941-.425.531-.689 1.195-.689 1.928 0 1.711 1.389 3.101 3.102 3.101z"/><path d="m469.96 138.367c-1.713 0-3.102 1.389-3.102 3.103 0 1.713 1.389 3.102 3.102 3.102s3.102-1.389 3.102-3.102c0-1.714-1.388-3.103-3.102-3.103z"/><path d="m480.337 147.991c-1.713 0-3.102 1.389-3.102 3.102s1.389 3.103 3.102 3.103 3.102-1.389 3.102-3.103c0-1.713-1.389-3.102-3.102-3.102z"/><path d="m469.96 158.367c-1.713 0-3.102 1.389-3.102 3.103 0 1.713 1.389 3.102 3.102 3.102s3.102-1.389 3.102-3.102c0-1.714-1.388-3.103-3.102-3.103z"/><path d="m480.337 167.991c-1.713 0-3.102 1.389-3.102 3.102s1.389 3.103 3.102 3.103 3.102-1.389 3.102-3.103c0-1.713-1.389-3.102-3.102-3.102z"/><path d="m469.96 178.367c-1.713 0-3.102 1.389-3.102 3.103 0 1.713 1.389 3.102 3.102 3.102s3.102-1.389 3.102-3.102c0-1.714-1.388-3.103-3.102-3.103z"/><path d="m480.337 187.991c-1.713 0-3.102 1.389-3.102 3.102s1.389 3.103 3.102 3.103 3.102-1.389 3.102-3.103c0-1.713-1.389-3.102-3.102-3.102z"/><path d="m469.96 198.367c-1.713 0-3.102 1.389-3.102 3.103 0 1.713 1.389 3.102 3.102 3.102s3.102-1.389 3.102-3.102c0-1.714-1.388-3.103-3.102-3.103z"/><path d="m480.337 207.991c-1.713 0-3.102 1.389-3.102 3.102s1.389 3.103 3.102 3.103 3.102-1.389 3.102-3.103c0-1.713-1.389-3.102-3.102-3.102z"/><path d="m469.96 218.367c-1.713 0-3.102 1.389-3.102 3.103 0 1.713 1.389 3.102 3.102 3.102s3.102-1.389 3.102-3.102c0-1.714-1.388-3.103-3.102-3.103z"/><path d="m480.337 227.991c-1.713 0-3.102 1.389-3.102 3.102s1.389 3.103 3.102 3.103 3.102-1.389 3.102-3.103c0-1.713-1.389-3.102-3.102-3.102z"/><path d="m469.96 238.367c-1.713 0-3.102 1.389-3.102 3.103 0 1.713 1.389 3.102 3.102 3.102s3.102-1.389 3.102-3.102c0-1.714-1.388-3.103-3.102-3.103z"/><path d="m480.337 247.991c-1.713 0-3.102 1.389-3.102 3.102s1.389 3.103 3.102 3.103 3.102-1.389 3.102-3.103c0-1.713-1.389-3.102-3.102-3.102z"/><path d="m469.96 258.367c-1.713 0-3.102 1.389-3.102 3.103 0 1.713 1.389 3.102 3.102 3.102s3.102-1.389 3.102-3.102c0-1.714-1.388-3.103-3.102-3.103z"/><path d="m480.337 267.991c-1.713 0-3.102 1.389-3.102 3.102s1.389 3.103 3.102 3.103 3.102-1.389 3.102-3.103c0-1.713-1.389-3.102-3.102-3.102z"/><path d="m469.96 278.367c-1.713 0-3.102 1.389-3.102 3.103 0 1.713 1.389 3.102 3.102 3.102s3.102-1.389 3.102-3.102c0-1.714-1.388-3.103-3.102-3.103z"/><path d="m480.337 287.991c-1.713 0-3.102 1.389-3.102 3.102s1.389 3.103 3.102 3.103 3.102-1.389 3.102-3.103c0-1.713-1.389-3.102-3.102-3.102z"/><path d="m469.96 298.367c-1.713 0-3.102 1.389-3.102 3.103 0 1.713 1.389 3.102 3.102 3.102s3.102-1.389 3.102-3.102c0-1.714-1.388-3.103-3.102-3.103z"/><path d="m480.337 307.991c-1.713 0-3.102 1.389-3.102 3.102s1.389 3.103 3.102 3.103 3.102-1.389 3.102-3.103c0-1.713-1.389-3.102-3.102-3.102z"/><path d="m469.96 318.367c-1.713 0-3.102 1.389-3.102 3.103 0 1.713 1.389 3.102 3.102 3.102s3.102-1.389 3.102-3.102c0-1.714-1.388-3.103-3.102-3.103z"/><path d="m480.337 327.991c-1.713 0-3.102 1.389-3.102 3.102s1.389 3.103 3.102 3.103 3.102-1.389 3.102-3.103c0-1.713-1.389-3.102-3.102-3.102z"/><path d="m469.96 338.367c-1.713 0-3.102 1.389-3.102 3.103 0 1.713 1.389 3.102 3.102 3.102s3.102-1.389 3.102-3.102c0-1.714-1.388-3.103-3.102-3.103z"/><path d="m480.337 347.991c-1.713 0-3.102 1.389-3.102 3.102s1.389 3.103 3.102 3.103 3.102-1.389 3.102-3.103c0-1.713-1.389-3.102-3.102-3.102z"/><path d="m469.96 358.367c-1.713 0-3.102 1.389-3.102 3.103 0 1.713 1.389 3.102 3.102 3.102s3.102-1.389 3.102-3.102c0-1.714-1.388-3.103-3.102-3.103z"/><path d="m477.234 371.093c0 1.165.65 2.168 1.599 2.698.963-1.824 1.902-3.656 2.817-5.499-.4-.188-.842-.301-1.314-.301-1.713 0-3.102 1.389-3.102 3.102z"/><path d="m469.96 378.367c-1.713 0-3.102 1.389-3.102 3.103 0 1.713 1.389 3.102 3.102 3.102s3.102-1.389 3.102-3.102c0-1.714-1.388-3.103-3.102-3.103z"/><path d="m453.062 101.47c0-1.713-1.389-3.103-3.102-3.103s-3.102 1.389-3.102 3.103c0 1.713 1.389 3.102 3.102 3.102 1.714 0 3.102-1.39 3.102-3.102z"/><path d="m457.234 111.093c0 1.713 1.389 3.103 3.102 3.103 1.106 0 2.07-.583 2.619-1.454-1.089-1.563-2.194-3.119-3.322-4.663-1.373.318-2.399 1.543-2.399 3.014z"/><path d="m453.062 121.47c0-.872-.362-1.657-.94-2.22.295.962.581 1.925.864 2.89.047-.217.076-.44.076-.67z"/><path d="m460.337 127.991c-1.713 0-3.102 1.389-3.102 3.102s1.389 3.103 3.102 3.103 3.102-1.389 3.102-3.103c0-1.713-1.389-3.102-3.102-3.102z"/><path d="m460.337 147.991c-.419 0-.818.085-1.183.236.358 1.98.686 3.963.996 5.949.063.004.123.019.187.019 1.713 0 3.102-1.389 3.102-3.103 0-1.712-1.389-3.101-3.102-3.101z"/><path d="m461.965 168.463c.161 1.643.306 3.287.435 4.932.633-.568 1.039-1.384 1.039-2.302 0-1.114-.592-2.083-1.474-2.63z"/><path d="m463.147 189.797c.011.846.027 1.692.029 2.538.167-.381.263-.8.263-1.242 0-.464-.109-.901-.292-1.296z"/><path d="m462.669 209.067c-.092 1.455-.195 2.909-.311 4.363.657-.569 1.082-1.399 1.082-2.337-.001-.779-.298-1.482-.771-2.026z"/><path d="m460.756 228.033c-.284 2.04-.594 4.077-.928 6.111.166.027.334.051.508.051 1.713 0 3.102-1.389 3.102-3.103.001-1.569-1.169-2.852-2.682-3.059z"/><path d="m460.337 247.991c-1.713 0-3.102 1.389-3.102 3.102s1.389 3.103 3.102 3.103 3.102-1.389 3.102-3.103c0-1.713-1.389-3.102-3.102-3.102z"/><path d="m460.337 267.991c-1.713 0-3.102 1.389-3.102 3.102s1.389 3.103 3.102 3.103 3.102-1.389 3.102-3.103c0-1.713-1.389-3.102-3.102-3.102z"/><path d="m449.96 284.572c1.713 0 3.102-1.389 3.102-3.102s-1.389-3.103-3.102-3.103c-.665 0-1.279.214-1.784.571-.396 1.095-.806 2.187-1.218 3.277.336 1.351 1.547 2.357 3.002 2.357z"/><path d="m460.337 287.991c-1.713 0-3.102 1.389-3.102 3.102s1.389 3.103 3.102 3.103 3.102-1.389 3.102-3.103c0-1.713-1.389-3.102-3.102-3.102z"/><path d="m449.96 298.367c-1.713 0-3.102 1.389-3.102 3.103 0 1.713 1.389 3.102 3.102 3.102s3.102-1.389 3.102-3.102c0-1.714-1.388-3.103-3.102-3.103z"/><path d="m460.337 307.991c-1.713 0-3.102 1.389-3.102 3.102s1.389 3.103 3.102 3.103 3.102-1.389 3.102-3.103c0-1.713-1.389-3.102-3.102-3.102z"/><path d="m449.96 318.367c-1.713 0-3.102 1.389-3.102 3.103 0 1.713 1.389 3.102 3.102 3.102s3.102-1.389 3.102-3.102c0-1.714-1.388-3.103-3.102-3.103z"/><path d="m460.337 327.991c-1.713 0-3.102 1.389-3.102 3.102s1.389 3.103 3.102 3.103 3.102-1.389 3.102-3.103c0-1.713-1.389-3.102-3.102-3.102z"/><path d="m449.96 338.367c-1.713 0-3.102 1.389-3.102 3.103 0 1.713 1.389 3.102 3.102 3.102s3.102-1.389 3.102-3.102c0-1.714-1.388-3.103-3.102-3.103z"/><path d="m460.337 347.991c-1.713 0-3.102 1.389-3.102 3.102s1.389 3.103 3.102 3.103 3.102-1.389 3.102-3.103c0-1.713-1.389-3.102-3.102-3.102z"/><path d="m449.96 358.367c-1.713 0-3.102 1.389-3.102 3.103 0 1.713 1.389 3.102 3.102 3.102s3.102-1.389 3.102-3.102c0-1.714-1.388-3.103-3.102-3.103z"/><path d="m460.337 367.991c-1.713 0-3.102 1.389-3.102 3.102s1.389 3.103 3.102 3.103 3.102-1.389 3.102-3.103c0-1.713-1.389-3.102-3.102-3.102z"/><path d="m449.96 378.367c-1.713 0-3.102 1.389-3.102 3.103 0 1.713 1.389 3.102 3.102 3.102s3.102-1.389 3.102-3.102c0-1.714-1.388-3.103-3.102-3.103z"/><path d="m460.337 387.991c-1.713 0-3.102 1.389-3.102 3.102s1.389 3.103 3.102 3.103 3.102-1.389 3.102-3.103c0-1.713-1.389-3.102-3.102-3.102z"/><path d="m449.96 398.367c-1.713 0-3.102 1.389-3.102 3.103 0 1.713 1.389 3.102 3.102 3.102s3.102-1.389 3.102-3.102c0-1.714-1.388-3.103-3.102-3.103z"/><path d="m447.08 420.333c.433-.502.859-1.008 1.287-1.513-.579.35-1.036.876-1.287 1.513z"/><path d="m443.439 91.093c0-1.713-1.389-3.102-3.102-3.102-.047 0-.091.012-.137.014.804 1.747 1.587 3.5 2.349 5.26.549-.56.89-1.326.89-2.172z"/><path d="m443.439 291.093c0-.017-.005-.032-.005-.048-.322.765-.638 1.533-.968 2.295.597-.566.973-1.361.973-2.247z"/><path d="m440.337 307.991c-1.713 0-3.102 1.389-3.102 3.102s1.389 3.103 3.102 3.103 3.102-1.389 3.102-3.103c0-1.713-1.389-3.102-3.102-3.102z"/><path d="m429.96 324.572c1.713 0 3.102-1.389 3.102-3.102s-1.389-3.103-3.102-3.103c-.02 0-.039.006-.059.006-.873 1.521-1.763 3.036-2.67 4.542.521.981 1.541 1.657 2.729 1.657z"/><path d="m440.337 327.991c-1.713 0-3.102 1.389-3.102 3.102s1.389 3.103 3.102 3.103 3.102-1.389 3.102-3.103c0-1.713-1.389-3.102-3.102-3.102z"/><path d="m429.96 338.367c-1.713 0-3.102 1.389-3.102 3.103 0 1.713 1.389 3.102 3.102 3.102s3.102-1.389 3.102-3.102c0-1.714-1.388-3.103-3.102-3.103z"/><path d="m440.337 347.991c-1.713 0-3.102 1.389-3.102 3.102s1.389 3.103 3.102 3.103 3.102-1.389 3.102-3.103c0-1.713-1.389-3.102-3.102-3.102z"/><path d="m429.96 358.367c-1.713 0-3.102 1.389-3.102 3.103 0 1.713 1.389 3.102 3.102 3.102s3.102-1.389 3.102-3.102c0-1.714-1.388-3.103-3.102-3.103z"/><path d="m440.337 367.991c-1.713 0-3.102 1.389-3.102 3.102s1.389 3.103 3.102 3.103 3.102-1.389 3.102-3.103c0-1.713-1.389-3.102-3.102-3.102z"/><path d="m429.96 378.367c-1.713 0-3.102 1.389-3.102 3.103 0 1.713 1.389 3.102 3.102 3.102s3.102-1.389 3.102-3.102c0-1.714-1.388-3.103-3.102-3.103z"/><path d="m440.337 387.991c-1.713 0-3.102 1.389-3.102 3.102s1.389 3.103 3.102 3.103 3.102-1.389 3.102-3.103c0-1.713-1.389-3.102-3.102-3.102z"/><path d="m429.96 398.367c-1.713 0-3.102 1.389-3.102 3.103 0 1.713 1.389 3.102 3.102 3.102s3.102-1.389 3.102-3.102c0-1.714-1.388-3.103-3.102-3.103z"/><path d="m440.337 407.991c-1.713 0-3.102 1.389-3.102 3.102s1.389 3.103 3.102 3.103 3.102-1.389 3.102-3.103c0-1.713-1.389-3.102-3.102-3.102z"/><path d="m429.96 418.367c-1.713 0-3.102 1.389-3.102 3.103 0 1.713 1.389 3.102 3.102 3.102s3.102-1.389 3.102-3.102c0-1.714-1.388-3.103-3.102-3.103z"/><path d="m437.234 431.093c0 .012.003.023.003.035.997-1.031 1.97-2.078 2.947-3.122-1.64.081-2.95 1.425-2.95 3.087z"/><path d="m429.915 438.372c-1.607.023-2.904 1.269-3.031 2.848.412-.38.831-.748 1.241-1.131.605-.567 1.191-1.146 1.79-1.717z"/><path d="m423.439 331.093c0-.534-.147-1.029-.385-1.468-.984 1.523-1.988 3.036-3.008 4.542.097.009.191.029.291.029 1.713-.001 3.102-1.39 3.102-3.103z"/><path d="m420.337 347.991c-1.713 0-3.102 1.389-3.102 3.102s1.389 3.103 3.102 3.103 3.102-1.389 3.102-3.103c0-1.713-1.389-3.102-3.102-3.102z"/><path d="m409.96 358.367c-1.713 0-3.102 1.389-3.102 3.103 0 1.713 1.389 3.102 3.102 3.102s3.102-1.389 3.102-3.102c0-1.714-1.388-3.103-3.102-3.103z"/><path d="m420.337 367.991c-1.713 0-3.102 1.389-3.102 3.102s1.389 3.103 3.102 3.103 3.102-1.389 3.102-3.103c0-1.713-1.389-3.102-3.102-3.102z"/><path d="m409.96 378.367c-1.713 0-3.102 1.389-3.102 3.103 0 1.713 1.389 3.102 3.102 3.102s3.102-1.389 3.102-3.102c0-1.714-1.388-3.103-3.102-3.103z"/><path d="m420.337 387.991c-1.713 0-3.102 1.389-3.102 3.102s1.389 3.103 3.102 3.103 3.102-1.389 3.102-3.103c0-1.713-1.389-3.102-3.102-3.102z"/><path d="m409.96 398.367c-1.713 0-3.102 1.389-3.102 3.103 0 1.713 1.389 3.102 3.102 3.102s3.102-1.389 3.102-3.102c0-1.714-1.388-3.103-3.102-3.103z"/><path d="m420.337 407.991c-1.713 0-3.102 1.389-3.102 3.102s1.389 3.103 3.102 3.103 3.102-1.389 3.102-3.103c0-1.713-1.389-3.102-3.102-3.102z"/><path d="m409.96 418.367c-1.713 0-3.102 1.389-3.102 3.103 0 1.713 1.389 3.102 3.102 3.102s3.102-1.389 3.102-3.102c0-1.714-1.388-3.103-3.102-3.103z"/><path d="m420.337 427.991c-1.713 0-3.102 1.389-3.102 3.102s1.389 3.103 3.102 3.103 3.102-1.389 3.102-3.103c0-1.713-1.389-3.102-3.102-3.102z"/><path d="m409.96 438.367c-1.713 0-3.102 1.389-3.102 3.103 0 1.713 1.389 3.102 3.102 3.102s3.102-1.389 3.102-3.102c0-1.714-1.388-3.103-3.102-3.103z"/><path d="m418.037 449.028c.224-.189.45-.376.674-.566-.252.155-.477.346-.674.566z"/><path d="m400.337 367.991c-1.713 0-3.102 1.389-3.102 3.102s1.389 3.103 3.102 3.103 3.102-1.389 3.102-3.103c0-1.713-1.389-3.102-3.102-3.102z"/><path d="m389.96 378.367c-1.713 0-3.102 1.389-3.102 3.103 0 1.713 1.389 3.102 3.102 3.102s3.102-1.389 3.102-3.102c0-1.714-1.388-3.103-3.102-3.103z"/><path d="m400.337 387.991c-1.713 0-3.102 1.389-3.102 3.102s1.389 3.103 3.102 3.103 3.102-1.389 3.102-3.103c0-1.713-1.389-3.102-3.102-3.102z"/><path d="m389.96 398.367c-1.713 0-3.102 1.389-3.102 3.103 0 1.713 1.389 3.102 3.102 3.102s3.102-1.389 3.102-3.102c0-1.714-1.388-3.103-3.102-3.103z"/><path d="m400.337 407.991c-1.713 0-3.102 1.389-3.102 3.102s1.389 3.103 3.102 3.103 3.102-1.389 3.102-3.103c0-1.713-1.389-3.102-3.102-3.102z"/><path d="m389.96 418.367c-1.713 0-3.102 1.389-3.102 3.103 0 1.713 1.389 3.102 3.102 3.102s3.102-1.389 3.102-3.102c0-1.714-1.388-3.103-3.102-3.103z"/><path d="m400.337 427.991c-1.713 0-3.102 1.389-3.102 3.102s1.389 3.103 3.102 3.103 3.102-1.389 3.102-3.103c0-1.713-1.389-3.102-3.102-3.102z"/><path d="m389.96 438.367c-1.713 0-3.102 1.389-3.102 3.103 0 1.713 1.389 3.102 3.102 3.102s3.102-1.389 3.102-3.102c0-1.714-1.388-3.103-3.102-3.103z"/><path d="m400.337 447.991c-1.713 0-3.102 1.389-3.102 3.102s1.389 3.103 3.102 3.103 3.102-1.389 3.102-3.103c0-1.713-1.389-3.102-3.102-3.102z"/><path d="m389.96 458.367c-1.713 0-3.102 1.389-3.102 3.103 0 1.713 1.389 3.102 3.102 3.102s3.102-1.389 3.102-3.102c0-1.714-1.388-3.103-3.102-3.103z"/><path d="m380.337 387.991c-1.713 0-3.102 1.389-3.102 3.102s1.389 3.103 3.102 3.103 3.102-1.389 3.102-3.103c0-1.713-1.389-3.102-3.102-3.102z"/><path d="m369.96 398.367c-1.713 0-3.102 1.389-3.102 3.103 0 1.713 1.389 3.102 3.102 3.102s3.102-1.389 3.102-3.102c0-1.714-1.388-3.103-3.102-3.103z"/><path d="m380.337 407.991c-1.713 0-3.102 1.389-3.102 3.102s1.389 3.103 3.102 3.103 3.102-1.389 3.102-3.103c0-1.713-1.389-3.102-3.102-3.102z"/><path d="m369.96 418.367c-1.713 0-3.102 1.389-3.102 3.103 0 1.713 1.389 3.102 3.102 3.102s3.102-1.389 3.102-3.102c0-1.714-1.388-3.103-3.102-3.103z"/><path d="m380.337 427.991c-1.713 0-3.102 1.389-3.102 3.102s1.389 3.103 3.102 3.103 3.102-1.389 3.102-3.103c0-1.713-1.389-3.102-3.102-3.102z"/><path d="m369.96 438.367c-1.713 0-3.102 1.389-3.102 3.103 0 1.713 1.389 3.102 3.102 3.102s3.102-1.389 3.102-3.102c0-1.714-1.388-3.103-3.102-3.103z"/><path d="m380.337 447.991c-1.713 0-3.102 1.389-3.102 3.102s1.389 3.103 3.102 3.103 3.102-1.389 3.102-3.103c0-1.713-1.389-3.102-3.102-3.102z"/><path d="m369.96 458.367c-1.713 0-3.102 1.389-3.102 3.103 0 1.713 1.389 3.102 3.102 3.102s3.102-1.389 3.102-3.102c0-1.714-1.388-3.103-3.102-3.103z"/><path d="m380.337 467.991c-1.713 0-3.102 1.389-3.102 3.102s1.389 3.103 3.102 3.103 3.102-1.389 3.102-3.103c0-1.713-1.389-3.102-3.102-3.102z"/><path d="m369.96 478.367c-1.713 0-3.102 1.389-3.102 3.103 0 .294.054.573.131.843 1.813-.889 3.618-1.8 5.414-2.736-.568-.732-1.446-1.21-2.443-1.21z"/><path d="m353.062 401.47c0-.056-.013-.108-.016-.164-1.466.999-2.936 1.99-4.418 2.954.405.194.853.312 1.332.312 1.714 0 3.102-1.39 3.102-3.102z"/><path d="m360.337 407.991c-1.713 0-3.102 1.389-3.102 3.102s1.389 3.103 3.102 3.103 3.102-1.389 3.102-3.103c0-1.713-1.389-3.102-3.102-3.102z"/><path d="m349.96 418.367c-1.713 0-3.102 1.389-3.102 3.103 0 1.713 1.389 3.102 3.102 3.102s3.102-1.389 3.102-3.102c0-1.714-1.388-3.103-3.102-3.103z"/><path d="m360.337 427.991c-1.713 0-3.102 1.389-3.102 3.102s1.389 3.103 3.102 3.103 3.102-1.389 3.102-3.103c0-1.713-1.389-3.102-3.102-3.102z"/><path d="m349.96 438.367c-1.713 0-3.102 1.389-3.102 3.103 0 1.713 1.389 3.102 3.102 3.102s3.102-1.389 3.102-3.102c0-1.714-1.388-3.103-3.102-3.103z"/><path d="m360.337 447.991c-1.713 0-3.102 1.389-3.102 3.102s1.389 3.103 3.102 3.103 3.102-1.389 3.102-3.103c0-1.713-1.389-3.102-3.102-3.102z"/><path d="m349.96 458.367c-1.713 0-3.102 1.389-3.102 3.103 0 1.713 1.389 3.102 3.102 3.102s3.102-1.389 3.102-3.102c0-1.714-1.388-3.103-3.102-3.103z"/><path d="m360.337 467.991c-1.713 0-3.102 1.389-3.102 3.102s1.389 3.103 3.102 3.103 3.102-1.389 3.102-3.103c0-1.713-1.389-3.102-3.102-3.102z"/><path d="m349.96 478.367c-1.713 0-3.102 1.389-3.102 3.103 0 1.713 1.389 3.102 3.102 3.102s3.102-1.389 3.102-3.102c0-1.714-1.388-3.103-3.102-3.103z"/><path d="m340.337 414.195c1.713 0 3.102-1.389 3.102-3.103 0-1.124-.604-2.099-1.499-2.643-1.557.945-3.119 1.877-4.691 2.785.075 1.646 1.423 2.961 3.088 2.961z"/><path d="m329.96 418.367c-1.713 0-3.102 1.389-3.102 3.103 0 1.713 1.389 3.102 3.102 3.102s3.102-1.389 3.102-3.102c0-1.714-1.388-3.103-3.102-3.103z"/><path d="m340.337 427.991c-1.713 0-3.102 1.389-3.102 3.102s1.389 3.103 3.102 3.103 3.102-1.389 3.102-3.103c0-1.713-1.389-3.102-3.102-3.102z"/><path d="m329.96 438.367c-1.713 0-3.102 1.389-3.102 3.103 0 1.713 1.389 3.102 3.102 3.102s3.102-1.389 3.102-3.102c0-1.714-1.388-3.103-3.102-3.103z"/><path d="m340.337 447.991c-1.713 0-3.102 1.389-3.102 3.102s1.389 3.103 3.102 3.103 3.102-1.389 3.102-3.103c0-1.713-1.389-3.102-3.102-3.102z"/><path d="m329.96 458.367c-1.713 0-3.102 1.389-3.102 3.103 0 1.713 1.389 3.102 3.102 3.102s3.102-1.389 3.102-3.102c0-1.714-1.388-3.103-3.102-3.103z"/><path d="m340.337 467.991c-1.713 0-3.102 1.389-3.102 3.102s1.389 3.103 3.102 3.103 3.102-1.389 3.102-3.103c0-1.713-1.389-3.102-3.102-3.102z"/><path d="m329.96 478.367c-1.713 0-3.102 1.389-3.102 3.103 0 1.713 1.389 3.102 3.102 3.102s3.102-1.389 3.102-3.102c0-1.714-1.388-3.103-3.102-3.103z"/><path d="m340.337 487.991c-1.713 0-3.102 1.389-3.102 3.102 0 1.28.775 2.377 1.881 2.851 1.316-.458 2.633-.912 3.944-1.393.234-.436.38-.928.38-1.458-.001-1.713-1.39-3.102-3.103-3.102z"/><path d="m320.337 427.991c-1.713 0-3.102 1.389-3.102 3.102s1.389 3.103 3.102 3.103 3.102-1.389 3.102-3.103c0-1.713-1.389-3.102-3.102-3.102z"/><path d="m309.96 438.367c-1.713 0-3.102 1.389-3.102 3.103 0 1.713 1.389 3.102 3.102 3.102s3.102-1.389 3.102-3.102c0-1.714-1.388-3.103-3.102-3.103z"/><path d="m320.337 447.991c-1.713 0-3.102 1.389-3.102 3.102s1.389 3.103 3.102 3.103 3.102-1.389 3.102-3.103c0-1.713-1.389-3.102-3.102-3.102z"/><path d="m309.96 458.367c-1.713 0-3.102 1.389-3.102 3.103 0 1.713 1.389 3.102 3.102 3.102s3.102-1.389 3.102-3.102c0-1.714-1.388-3.103-3.102-3.103z"/><path d="m320.337 467.991c-1.713 0-3.102 1.389-3.102 3.102s1.389 3.103 3.102 3.103 3.102-1.389 3.102-3.103c0-1.713-1.389-3.102-3.102-3.102z"/><path d="m309.96 478.367c-1.713 0-3.102 1.389-3.102 3.103 0 1.713 1.389 3.102 3.102 3.102s3.102-1.389 3.102-3.102c0-1.714-1.388-3.103-3.102-3.103z"/><path d="m320.337 487.991c-1.713 0-3.102 1.389-3.102 3.102s1.389 3.103 3.102 3.103 3.102-1.389 3.102-3.103c0-1.713-1.389-3.102-3.102-3.102z"/><path d="m309.96 498.367c-1.713 0-3.102 1.389-3.102 3.103 0 .461.107.895.287 1.288 1.976-.406 3.949-.836 5.917-1.291-.001-1.713-1.389-3.1-3.102-3.1z"/><path d="m300.337 434.195c1.713 0 3.102-1.389 3.102-3.103 0-1.286-.783-2.389-1.898-2.859-1.32.505-2.643 1-3.97 1.482-.208.417-.336.88-.336 1.378-.001 1.713 1.388 3.102 3.102 3.102z"/><path d="m289.96 438.367c-1.713 0-3.102 1.389-3.102 3.103 0 1.713 1.389 3.102 3.102 3.102s3.102-1.389 3.102-3.102c.001-1.714-1.388-3.103-3.102-3.103z"/><path d="m300.337 447.991c-1.713 0-3.102 1.389-3.102 3.102s1.389 3.103 3.102 3.103 3.102-1.389 3.102-3.103c0-1.713-1.389-3.102-3.102-3.102z"/><path d="m289.96 458.367c-1.713 0-3.102 1.389-3.102 3.103 0 1.713 1.389 3.102 3.102 3.102s3.102-1.389 3.102-3.102c.001-1.714-1.388-3.103-3.102-3.103z"/><path d="m300.337 467.991c-1.713 0-3.102 1.389-3.102 3.102s1.389 3.103 3.102 3.103 3.102-1.389 3.102-3.103c0-1.713-1.389-3.102-3.102-3.102z"/><path d="m289.96 478.367c-1.713 0-3.102 1.389-3.102 3.103 0 1.713 1.389 3.102 3.102 3.102s3.102-1.389 3.102-3.102c.001-1.714-1.388-3.103-3.102-3.103z"/><path d="m300.337 487.991c-1.713 0-3.102 1.389-3.102 3.102s1.389 3.103 3.102 3.103 3.102-1.389 3.102-3.103c0-1.713-1.389-3.102-3.102-3.102z"/><path d="m289.96 498.367c-1.713 0-3.102 1.389-3.102 3.103 0 1.713 1.389 3.102 3.102 3.102s3.102-1.389 3.102-3.102c.001-1.714-1.388-3.103-3.102-3.103z"/><path d="m269.96 438.367c-1.713 0-3.102 1.389-3.102 3.103 0 1.713 1.389 3.102 3.102 3.102s3.102-1.389 3.102-3.102c.001-1.714-1.388-3.103-3.102-3.103z"/><path d="m280.337 447.991c-1.713 0-3.102 1.389-3.102 3.102s1.389 3.103 3.102 3.103 3.102-1.389 3.102-3.103c0-1.713-1.389-3.102-3.102-3.102z"/><path d="m269.96 458.367c-1.713 0-3.102 1.389-3.102 3.103 0 1.713 1.389 3.102 3.102 3.102s3.102-1.389 3.102-3.102c.001-1.714-1.388-3.103-3.102-3.103z"/><path d="m280.337 467.991c-1.713 0-3.102 1.389-3.102 3.102s1.389 3.103 3.102 3.103 3.102-1.389 3.102-3.103c0-1.713-1.389-3.102-3.102-3.102z"/><path d="m269.96 478.367c-1.713 0-3.102 1.389-3.102 3.103 0 1.713 1.389 3.102 3.102 3.102s3.102-1.389 3.102-3.102c.001-1.714-1.388-3.103-3.102-3.103z"/><path d="m280.337 487.991c-1.713 0-3.102 1.389-3.102 3.102s1.389 3.103 3.102 3.103 3.102-1.389 3.102-3.103c0-1.713-1.389-3.102-3.102-3.102z"/><path d="m269.96 498.367c-1.713 0-3.102 1.389-3.102 3.103 0 1.713 1.389 3.102 3.102 3.102s3.102-1.389 3.102-3.102c.001-1.714-1.388-3.103-3.102-3.103z"/><path d="m249.96 444.572c1.713 0 3.102-1.389 3.102-3.102 0-.024-.007-.047-.007-.071-2.017.335-4.038.647-6.061.933.376 1.29 1.554 2.24 2.966 2.24z"/><path d="m260.337 447.991c-1.713 0-3.102 1.389-3.102 3.102s1.389 3.103 3.102 3.103 3.102-1.389 3.102-3.103c0-1.713-1.389-3.102-3.102-3.102z"/><path d="m249.96 458.367c-1.713 0-3.102 1.389-3.102 3.103 0 1.713 1.389 3.102 3.102 3.102s3.102-1.389 3.102-3.102c.001-1.714-1.388-3.103-3.102-3.103z"/><path d="m260.337 467.991c-1.713 0-3.102 1.389-3.102 3.102s1.389 3.103 3.102 3.103 3.102-1.389 3.102-3.103c0-1.713-1.389-3.102-3.102-3.102z"/><path d="m249.96 478.367c-1.713 0-3.102 1.389-3.102 3.103 0 1.713 1.389 3.102 3.102 3.102s3.102-1.389 3.102-3.102c.001-1.714-1.388-3.103-3.102-3.103z"/><path d="m260.337 494.195c1.713 0 3.102-1.389 3.102-3.103 0-1.713-1.389-3.102-3.102-3.102s-3.102 1.389-3.102 3.102c-.001 1.714 1.388 3.103 3.102 3.103z"/><path d="m249.96 498.367c-1.713 0-3.102 1.389-3.102 3.103 0 1.713 1.389 3.102 3.102 3.102s3.102-1.389 3.102-3.102c.001-1.714-1.388-3.103-3.102-3.103z"/><path d="m231.747 443.998c-1.05.084-2.1.173-3.152.244.413.204.872.329 1.365.329.667.001 1.281-.214 1.787-.573z"/><path d="m240.337 447.991c-1.713 0-3.102 1.389-3.102 3.102s1.389 3.103 3.102 3.103 3.102-1.389 3.102-3.103c0-1.713-1.389-3.102-3.102-3.102z"/><path d="m229.96 458.367c-1.713 0-3.102 1.389-3.102 3.103 0 1.713 1.389 3.102 3.102 3.102s3.102-1.389 3.102-3.102c.001-1.714-1.388-3.103-3.102-3.103z"/><path d="m240.337 467.991c-1.713 0-3.102 1.389-3.102 3.102s1.389 3.103 3.102 3.103 3.102-1.389 3.102-3.103c0-1.713-1.389-3.102-3.102-3.102z"/><path d="m229.96 478.367c-1.713 0-3.102 1.389-3.102 3.103 0 1.713 1.389 3.102 3.102 3.102s3.102-1.389 3.102-3.102c.001-1.714-1.388-3.103-3.102-3.103z"/><path d="m240.337 487.991c-1.713 0-3.102 1.389-3.102 3.102s1.389 3.103 3.102 3.103 3.102-1.389 3.102-3.103c0-1.713-1.389-3.102-3.102-3.102z"/><path d="m229.96 498.367c-1.713 0-3.102 1.389-3.102 3.103 0 1.713 1.389 3.102 3.102 3.102s3.102-1.389 3.102-3.102c.001-1.714-1.388-3.103-3.102-3.103z"/><path d="m220.337 447.991c-1.713 0-3.102 1.389-3.102 3.102s1.389 3.103 3.102 3.103 3.102-1.389 3.102-3.103c0-1.713-1.389-3.102-3.102-3.102z"/><path d="m209.96 458.367c-1.713 0-3.102 1.389-3.102 3.103 0 1.713 1.389 3.102 3.102 3.102s3.102-1.389 3.102-3.102c.001-1.714-1.388-3.103-3.102-3.103z"/><path d="m220.337 467.991c-1.713 0-3.102 1.389-3.102 3.102s1.389 3.103 3.102 3.103 3.102-1.389 3.102-3.103c0-1.713-1.389-3.102-3.102-3.102z"/><path d="m209.96 478.367c-1.713 0-3.102 1.389-3.102 3.103 0 1.713 1.389 3.102 3.102 3.102s3.102-1.389 3.102-3.102c.001-1.714-1.388-3.103-3.102-3.103z"/><path d="m220.337 487.991c-1.713 0-3.102 1.389-3.102 3.102s1.389 3.103 3.102 3.103 3.102-1.389 3.102-3.103c0-1.713-1.389-3.102-3.102-3.102z"/><path d="m213.063 501.47c0-1.713-1.389-3.103-3.102-3.103s-3.102 1.389-3.102 3.103c0 .616.185 1.187.495 1.669 1.47.29 2.94.58 4.415.844.78-.564 1.294-1.476 1.294-2.513z"/><path d="m191.72 444.021c-1.308-.103-2.615-.208-3.922-.332.559.544 1.32.882 2.162.882.655.001 1.26-.205 1.76-.55z"/><path d="m200.337 447.991c-1.713 0-3.102 1.389-3.102 3.102s1.389 3.103 3.102 3.103 3.102-1.389 3.102-3.103c0-1.713-1.389-3.102-3.102-3.102z"/><path d="m189.96 458.367c-1.713 0-3.102 1.389-3.102 3.103 0 1.713 1.389 3.102 3.102 3.102s3.102-1.389 3.102-3.102c.001-1.714-1.388-3.103-3.102-3.103z"/><path d="m200.337 467.991c-1.713 0-3.102 1.389-3.102 3.102s1.389 3.103 3.102 3.103 3.102-1.389 3.102-3.103c0-1.713-1.389-3.102-3.102-3.102z"/><path d="m189.96 478.367c-1.713 0-3.102 1.389-3.102 3.103 0 1.713 1.389 3.102 3.102 3.102s3.102-1.389 3.102-3.102c.001-1.714-1.388-3.103-3.102-3.103z"/><path d="m200.337 487.991c-1.713 0-3.102 1.389-3.102 3.102s1.389 3.103 3.102 3.103 3.102-1.389 3.102-3.103c0-1.713-1.389-3.102-3.102-3.102z"/><path d="m189.96 498.367c-.493 0-.953.126-1.367.33 1.313.365 2.63.711 3.948 1.054-.556-.834-1.503-1.384-2.581-1.384z"/><path d="m169.96 444.572c1.586 0 2.879-1.195 3.065-2.731-2.036-.314-4.068-.653-6.097-1.018-.044.208-.07.424-.07.646 0 1.713 1.389 3.103 3.102 3.103z"/><path d="m180.337 447.991c-1.713 0-3.102 1.389-3.102 3.102s1.389 3.103 3.102 3.103 3.102-1.389 3.102-3.103c0-1.713-1.389-3.102-3.102-3.102z"/><path d="m169.96 458.367c-1.713 0-3.102 1.389-3.102 3.103 0 1.713 1.389 3.102 3.102 3.102s3.102-1.389 3.102-3.102c.001-1.714-1.388-3.103-3.102-3.103z"/><path d="m180.337 467.991c-1.713 0-3.102 1.389-3.102 3.102s1.389 3.103 3.102 3.103 3.102-1.389 3.102-3.103c0-1.713-1.389-3.102-3.102-3.102z"/><path d="m169.96 478.367c-1.713 0-3.102 1.389-3.102 3.103 0 1.713 1.389 3.102 3.102 3.102s3.102-1.389 3.102-3.102c.001-1.714-1.388-3.103-3.102-3.103z"/><path d="m180.337 487.991c-1.713 0-3.102 1.389-3.102 3.102s1.389 3.103 3.102 3.103 3.102-1.389 3.102-3.103c0-1.713-1.389-3.102-3.102-3.102z"/><path d="m149.96 438.367c-1.713 0-3.102 1.389-3.102 3.103 0 1.713 1.389 3.102 3.102 3.102s3.102-1.389 3.102-3.102c.001-1.714-1.388-3.103-3.102-3.103z"/><path d="m160.337 447.991c-1.713 0-3.102 1.389-3.102 3.102s1.389 3.103 3.102 3.103 3.102-1.389 3.102-3.103c0-1.713-1.389-3.102-3.102-3.102z"/><path d="m149.96 458.367c-1.713 0-3.102 1.389-3.102 3.103 0 1.713 1.389 3.102 3.102 3.102s3.102-1.389 3.102-3.102c.001-1.714-1.388-3.103-3.102-3.103z"/><path d="m160.337 467.991c-1.713 0-3.102 1.389-3.102 3.102s1.389 3.103 3.102 3.103 3.102-1.389 3.102-3.103c0-1.713-1.389-3.102-3.102-3.102z"/><path d="m153.063 481.47c0-1.713-1.389-3.103-3.102-3.103s-3.102 1.389-3.102 3.103c0 .662.211 1.272.564 1.776.923.442 1.851.872 2.778 1.302 1.599-.125 2.862-1.448 2.862-3.078z"/><path d="m160.337 487.991c-.538 0-1.036.149-1.477.39 1.469.616 2.947 1.208 4.425 1.794-.393-1.262-1.557-2.184-2.948-2.184z"/><path d="m129.96 438.367c-1.713 0-3.102 1.389-3.102 3.103 0 1.713 1.389 3.102 3.102 3.102s3.102-1.389 3.102-3.102c.001-1.714-1.388-3.103-3.102-3.103z"/><path d="m140.337 447.991c-1.713 0-3.102 1.389-3.102 3.102s1.389 3.103 3.102 3.103 3.102-1.389 3.102-3.103c0-1.713-1.389-3.102-3.102-3.102z"/><path d="m129.96 458.367c-1.713 0-3.102 1.389-3.102 3.103 0 1.713 1.389 3.102 3.102 3.102s3.102-1.389 3.102-3.102c.001-1.714-1.388-3.103-3.102-3.103z"/><path d="m140.337 467.991c-1.713 0-3.102 1.389-3.102 3.102s1.389 3.103 3.102 3.103 3.102-1.389 3.102-3.103c0-1.713-1.389-3.102-3.102-3.102z"/><path d="m109.96 424.572c.572 0 1.101-.165 1.561-.436-1.539-.666-3.072-1.347-4.6-2.044.288 1.415 1.539 2.48 3.039 2.48z"/><path d="m120.337 427.991c-1.713 0-3.102 1.389-3.102 3.102s1.389 3.103 3.102 3.103 3.102-1.389 3.102-3.103c0-1.713-1.389-3.102-3.102-3.102z"/><path d="m106.858 441.47c0 1.713 1.389 3.102 3.102 3.102s3.102-1.389 3.102-3.102-1.389-3.103-3.102-3.103-3.102 1.389-3.102 3.103z"/><path d="m120.337 447.991c-1.713 0-3.102 1.389-3.102 3.102s1.389 3.103 3.102 3.103 3.102-1.389 3.102-3.103c0-1.713-1.389-3.102-3.102-3.102z"/><path d="m109.96 458.367c-.919 0-1.735.407-2.303 1.042 1.654 1.213 3.32 2.404 4.997 3.571.252-.449.408-.959.408-1.51.001-1.714-1.388-3.103-3.102-3.103z"/><path d="m120.337 467.991c-.063 0-.121.015-.183.019 1.015.653 2.036 1.293 3.059 1.931-.459-1.142-1.571-1.95-2.876-1.95z"/><path d="m86.858 421.47c0 1.713 1.389 3.102 3.102 3.102s3.102-1.389 3.102-3.102-1.389-3.103-3.102-3.103-3.102 1.389-3.102 3.103z"/><path d="m97.234 431.093c0 1.713 1.389 3.103 3.102 3.103s3.102-1.389 3.102-3.103c0-1.713-1.389-3.102-3.102-3.102s-3.102 1.389-3.102 3.102z"/><path d="m93.063 441.47c0-1.713-1.389-3.103-3.102-3.103s-3.102 1.389-3.102 3.103c0 .391.08.762.213 1.107.696.633 1.399 1.256 2.101 1.881.253.067.514.114.789.114 1.712 0 3.101-1.39 3.101-3.102z"/><path d="m103.439 451.093c0-1.713-1.389-3.102-3.102-3.102s-3.102 1.389-3.102 3.102c0 .092.019.179.027.269 1.149.938 2.296 1.88 3.458 2.795 1.53-.191 2.719-1.482 2.719-3.064z"/><path d="m66.858 401.47c0 1.713 1.389 3.102 3.102 3.102 1.141 0 2.128-.624 2.667-1.542-1.709-1.134-3.408-2.29-5.095-3.47-.416.528-.674 1.185-.674 1.91z"/><path d="m77.234 411.093c0 1.713 1.389 3.103 3.102 3.103s3.102-1.389 3.102-3.103c0-.56-.16-1.078-.42-1.531-.87-.518-1.741-1.034-2.605-1.563-.026 0-.051-.008-.077-.008-1.713 0-3.102 1.389-3.102 3.102z"/><path d="m69.96 418.367c-1.713 0-3.102 1.389-3.102 3.103 0 .195.023.386.058.571.693.792 1.389 1.581 2.094 2.367.301.098.617.164.951.164 1.713 0 3.102-1.389 3.102-3.102 0-1.714-1.389-3.103-3.103-3.103z"/><path d="m80.337 434.195c1.713 0 3.102-1.389 3.102-3.103 0-1.713-1.389-3.102-3.102-3.102s-3.102 1.389-3.102 3.102c-.001 1.714 1.388 3.103 3.102 3.103z"/><path d="m60.113 394.173c-.904-.683-1.801-1.378-2.697-2.074.395 1.148 1.438 1.982 2.697 2.074z"/><path d="m49.96 398.367c-.445 0-.865.097-1.248.266 1.144 1.664 2.308 3.32 3.497 4.963.526-.556.853-1.301.853-2.126.001-1.714-1.388-3.103-3.102-3.103z"/><path d="m63.439 411.093c0-1.713-1.389-3.102-3.102-3.102-1.48 0-2.712 1.038-3.023 2.424.983 1.266 1.98 2.525 2.991 3.777.011.001.021.004.032.004 1.713-.001 3.102-1.39 3.102-3.103z"/><path d="m42.161 388.594c.403.652.813 1.3 1.223 1.95-.144-.8-.593-1.489-1.223-1.95z"/></g><path d="m442.443 81.051c-46.647-49.884-109.928-78.617-178.185-80.906-.133-.005-.265-.004-.398-.008h-.001c-.001 0-.003 0-.004 0-68.11-2.179-133.015 22.24-182.801 68.795-49.885 46.647-78.617 109.927-80.907 178.184-2.288 68.257 22.14 133.321 68.787 183.204 46.647 49.884 109.928 78.617 178.185 80.906 2.937.099 5.861.147 8.786.147 65.036 0 126.681-24.294 174.419-68.934 49.883-46.647 78.617-109.927 80.906-178.185 2.288-68.256-22.14-133.319-68.787-183.203zm60.797 178.866c-32.241-1.508-63.872 3.021-94.088 13.518-31.383 10.902-59.771 27.769-84.459 50.129l-63.294-67.686 177.865-166.323c42.48 46.9 65.085 107.095 63.976 170.362zm-69.498-176.262-177.862 166.32-63.533-67.942c23.932-23.104 42.645-50.259 55.623-80.793 12.483-29.37 19.138-60.552 19.834-92.744 60.802 2.973 120.576 28.189 165.938 75.159zm-174.016-75.407c-1.363 64.324-27.121 123.646-72.898 167.884l-97.271-104.022c47.207-42.742 106.68-63.913 166.051-63.913 1.373 0 2.746.028 4.118.051zm-176.07 69.383 97.27 104.02c-47.206 42.71-108.121 64.435-172.393 61.487 3.069-60.656 28.26-120.25 75.123-165.507zm-75.4 173.598c3.902.177 7.794.268 11.677.268 28.119 0 55.695-4.645 82.174-13.858 31.335-10.903 59.682-27.755 84.338-50.086l63.533 67.942-177.864 166.321c-43.826-48.407-64.963-109.724-63.858-170.587zm69.376 176.491 177.865-166.322 63.294 67.686c-23.964 23.135-42.694 50.329-55.674 80.91-12.497 29.444-19.138 60.703-19.791 92.971-63.2-3.133-121.746-29.72-165.694-75.245zm178.264 75.574c-1.495 0-2.994-.015-4.494-.042 1.266-64.471 27.03-123.933 72.907-168.267l97.511 104.278c-45.802 41.487-104.28 64.032-165.924 64.031zm171.825-69.551-97.509-104.277c47.303-42.8 108.347-64.524 172.758-61.471-3.12 63.22-29.709 121.787-75.249 165.748z" fill="#31373d"/></g></svg>