<svg id="Capa_1" enable-background="new 0 0 511.863 511.863" height="512" viewBox="0 0 511.863 511.863" width="512" xmlns="http://www.w3.org/2000/svg"><g><g><path d="m172.961 216.965c-13.362-30.269-30.721-42.225-30.721-61.251s10.521-29.768 13.526-34.576 11.822-21.143 11.822-39.717c0-18.542-11.802-77.214-63.717-77.416l-.22-.005c-51.916.202-63.844 58.879-63.844 77.421 0 18.574 8.817 34.909 11.822 39.717s13.526 15.549 13.526 34.576-17.359 30.982-30.721 61.251c-13.362 30.268-24.442 61.587-24.442 107.537s17.327 150.394 43.452 183.276h50.113.283 50.113c26.124-32.881 43.452-137.326 43.452-183.276-.001-45.95-11.082-77.269-24.444-107.537z" fill="#f9fbfc"/><g fill="#eaa895"><g><path d="m194.612 300.919c0 1.322.831 2.444 1.997 2.89-.147-1.869-.312-3.714-.498-5.534-.895.544-1.499 1.52-1.499 2.644z"/><path d="m197.399 323.989c-.004-2.076-.034-4.116-.083-6.132-1.523.197-2.704 1.485-2.704 3.062 0 1.605 1.224 2.91 2.787 3.07z"/><path d="m194.612 340.919c0 1.332.845 2.459 2.024 2.898.143-2.025.265-3.995.369-5.912-1.37.323-2.393 1.546-2.393 3.014z"/><path d="m194.612 360.919c0 .491.124.949.328 1.362.122-1.102.241-2.196.354-3.281-.421.529-.682 1.19-.682 1.919z"/><path d="m184.988 250.542c0 1.307.811 2.42 1.956 2.877-.3-.967-.6-1.935-.909-2.891h-1.045c0 .005-.002.01-.002.014z"/><path d="m177.714 257.816c-1.713 0-3.102 1.389-3.102 3.103 0 1.713 1.389 3.102 3.102 3.102s3.102-1.389 3.102-3.102-1.389-3.103-3.102-3.103z"/><path d="m188.091 267.44c-1.713 0-3.102 1.389-3.102 3.103 0 1.713 1.389 3.102 3.102 3.102s3.102-1.389 3.102-3.102c0-1.714-1.389-3.103-3.102-3.103z"/><path d="m177.714 277.816c-1.713 0-3.102 1.389-3.102 3.103 0 1.713 1.389 3.102 3.102 3.102s3.102-1.389 3.102-3.102-1.389-3.103-3.102-3.103z"/><path d="m188.091 287.44c-1.713 0-3.102 1.389-3.102 3.103 0 1.713 1.389 3.102 3.102 3.102s3.102-1.389 3.102-3.102c0-1.714-1.389-3.103-3.102-3.103z"/><path d="m177.714 297.816c-1.713 0-3.102 1.389-3.102 3.103 0 1.713 1.389 3.102 3.102 3.102s3.102-1.389 3.102-3.102-1.389-3.103-3.102-3.103z"/><path d="m188.091 307.44c-1.713 0-3.102 1.389-3.102 3.103 0 1.713 1.389 3.102 3.102 3.102s3.102-1.389 3.102-3.102c0-1.714-1.389-3.103-3.102-3.103z"/><path d="m177.714 317.816c-1.713 0-3.102 1.389-3.102 3.103 0 1.713 1.389 3.102 3.102 3.102s3.102-1.389 3.102-3.102-1.389-3.103-3.102-3.103z"/><path d="m188.091 327.44c-1.713 0-3.102 1.389-3.102 3.103 0 1.713 1.389 3.102 3.102 3.102s3.102-1.389 3.102-3.102c0-1.714-1.389-3.103-3.102-3.103z"/><path d="m177.714 337.816c-1.713 0-3.102 1.389-3.102 3.103 0 1.713 1.389 3.102 3.102 3.102s3.102-1.389 3.102-3.102-1.389-3.103-3.102-3.103z"/><path d="m188.091 347.44c-1.713 0-3.102 1.389-3.102 3.103 0 1.713 1.389 3.102 3.102 3.102s3.102-1.389 3.102-3.102c0-1.714-1.389-3.103-3.102-3.103z"/><path d="m177.714 357.816c-1.713 0-3.102 1.389-3.102 3.103 0 1.713 1.389 3.102 3.102 3.102s3.102-1.389 3.102-3.102-1.389-3.103-3.102-3.103z"/><path d="m188.091 367.44c-1.713 0-3.102 1.389-3.102 3.103 0 1.713 1.389 3.102 3.102 3.102s3.102-1.389 3.102-3.102c0-1.714-1.389-3.103-3.102-3.103z"/><path d="m177.714 377.816c-1.713 0-3.102 1.389-3.102 3.103 0 1.713 1.389 3.102 3.102 3.102s3.102-1.389 3.102-3.102-1.389-3.103-3.102-3.103z"/><path d="m188.091 387.44c-1.713 0-3.102 1.389-3.102 3.103 0 1.713 1.389 3.102 3.102 3.102 1.244 0 2.31-.737 2.804-1.795.088-.548.177-1.097.264-1.644-.17-1.553-1.47-2.766-3.068-2.766z"/><path d="m177.714 397.816c-1.713 0-3.102 1.389-3.102 3.103 0 1.713 1.389 3.102 3.102 3.102s3.102-1.389 3.102-3.102-1.389-3.103-3.102-3.103z"/><path d="m184.988 410.543c0 1.337.851 2.466 2.037 2.902.395-1.998.781-3.998 1.155-5.996-.03-.001-.059-.009-.089-.009-1.714 0-3.103 1.389-3.103 3.103z"/><path d="m177.714 417.816c-1.713 0-3.102 1.389-3.102 3.103 0 1.713 1.389 3.102 3.102 3.102s3.102-1.389 3.102-3.102-1.389-3.103-3.102-3.103z"/><path d="m177.714 437.816c-1.713 0-3.102 1.389-3.102 3.103 0 1.713 1.389 3.102 3.102 3.102 1.287 0 2.391-.784 2.86-1.901.066-.259.133-.516.199-.776.02-.14.043-.28.043-.425 0-1.713-1.389-3.103-3.102-3.103z"/><path d="m174.612 460.919c0 .465.11.902.293 1.298.407-1.301.808-2.616 1.205-3.942-.895.545-1.498 1.52-1.498 2.644z"/><path d="m164.988 250.542c0 1.713 1.389 3.102 3.102 3.102s3.102-1.389 3.102-3.102c0-.005-.002-.009-.002-.014h-6.202c.002.005 0 .01 0 .014z"/><path d="m157.714 257.816c-1.713 0-3.102 1.389-3.102 3.103 0 1.713 1.389 3.102 3.102 3.102s3.102-1.389 3.102-3.102-1.389-3.103-3.102-3.103z"/><path d="m168.091 267.44c-1.713 0-3.102 1.389-3.102 3.103 0 1.713 1.389 3.102 3.102 3.102s3.102-1.389 3.102-3.102c0-1.714-1.389-3.103-3.102-3.103z"/><path d="m157.714 277.816c-1.713 0-3.102 1.389-3.102 3.103 0 1.713 1.389 3.102 3.102 3.102s3.102-1.389 3.102-3.102-1.389-3.103-3.102-3.103z"/><path d="m168.091 287.44c-1.713 0-3.102 1.389-3.102 3.103 0 1.713 1.389 3.102 3.102 3.102s3.102-1.389 3.102-3.102c0-1.714-1.389-3.103-3.102-3.103z"/><path d="m157.714 297.816c-1.713 0-3.102 1.389-3.102 3.103 0 1.713 1.389 3.102 3.102 3.102s3.102-1.389 3.102-3.102-1.389-3.103-3.102-3.103z"/><path d="m168.091 307.44c-1.713 0-3.102 1.389-3.102 3.103 0 1.713 1.389 3.102 3.102 3.102s3.102-1.389 3.102-3.102c0-1.714-1.389-3.103-3.102-3.103z"/><path d="m157.714 317.816c-1.713 0-3.102 1.389-3.102 3.103 0 1.713 1.389 3.102 3.102 3.102s3.102-1.389 3.102-3.102-1.389-3.103-3.102-3.103z"/><path d="m168.091 327.44c-1.713 0-3.102 1.389-3.102 3.103 0 1.713 1.389 3.102 3.102 3.102s3.102-1.389 3.102-3.102c0-1.714-1.389-3.103-3.102-3.103z"/><path d="m157.714 337.816c-1.713 0-3.102 1.389-3.102 3.103 0 1.713 1.389 3.102 3.102 3.102s3.102-1.389 3.102-3.102-1.389-3.103-3.102-3.103z"/><path d="m168.091 347.44c-1.713 0-3.102 1.389-3.102 3.103 0 1.713 1.389 3.102 3.102 3.102s3.102-1.389 3.102-3.102c0-1.714-1.389-3.103-3.102-3.103z"/><path d="m157.714 357.816c-1.713 0-3.102 1.389-3.102 3.103 0 1.713 1.389 3.102 3.102 3.102s3.102-1.389 3.102-3.102-1.389-3.103-3.102-3.103z"/><path d="m168.091 367.44c-1.713 0-3.102 1.389-3.102 3.103 0 1.713 1.389 3.102 3.102 3.102s3.102-1.389 3.102-3.102c0-1.714-1.389-3.103-3.102-3.103z"/><path d="m157.714 377.816c-1.713 0-3.102 1.389-3.102 3.103 0 1.713 1.389 3.102 3.102 3.102s3.102-1.389 3.102-3.102-1.389-3.103-3.102-3.103z"/><path d="m168.091 387.44c-1.713 0-3.102 1.389-3.102 3.103 0 1.713 1.389 3.102 3.102 3.102s3.102-1.389 3.102-3.102c0-1.714-1.389-3.103-3.102-3.103z"/><path d="m157.714 397.816c-1.713 0-3.102 1.389-3.102 3.103 0 1.713 1.389 3.102 3.102 3.102s3.102-1.389 3.102-3.102-1.389-3.103-3.102-3.103z"/><path d="m168.091 407.44c-1.713 0-3.102 1.389-3.102 3.103 0 1.713 1.389 3.102 3.102 3.102s3.102-1.389 3.102-3.102c0-1.714-1.389-3.103-3.102-3.103z"/><path d="m157.714 417.816c-1.713 0-3.102 1.389-3.102 3.103 0 1.713 1.389 3.102 3.102 3.102s3.102-1.389 3.102-3.102-1.389-3.103-3.102-3.103z"/><path d="m168.091 427.44c-1.713 0-3.102 1.389-3.102 3.103 0 1.713 1.389 3.102 3.102 3.102s3.102-1.389 3.102-3.102c0-1.714-1.389-3.103-3.102-3.103z"/><path d="m157.714 437.816c-1.713 0-3.102 1.389-3.102 3.103 0 1.713 1.389 3.102 3.102 3.102s3.102-1.389 3.102-3.102-1.389-3.103-3.102-3.103z"/><path d="m168.091 447.44c-1.713 0-3.102 1.389-3.102 3.103 0 1.713 1.389 3.102 3.102 3.102s3.102-1.389 3.102-3.102c0-1.714-1.389-3.103-3.102-3.103z"/><path d="m157.714 457.816c-1.713 0-3.102 1.389-3.102 3.103 0 1.713 1.389 3.102 3.102 3.102s3.102-1.389 3.102-3.102-1.389-3.103-3.102-3.103z"/><path d="m168.091 467.44c-1.713 0-3.102 1.389-3.102 3.103 0 1.713 1.389 3.102 3.102 3.102s3.102-1.389 3.102-3.102c0-1.714-1.389-3.103-3.102-3.103z"/><path d="m157.714 477.816c-1.713 0-3.102 1.389-3.102 3.103 0 1.713 1.389 3.102 3.102 3.102s3.102-1.389 3.102-3.102-1.389-3.103-3.102-3.103z"/><path d="m157.714 497.816c-1.713 0-3.102 1.389-3.102 3.103 0 1.389.919 2.551 2.178 2.946 1.066-1.589 2.118-3.285 3.152-5.099-.565-.583-1.352-.95-2.228-.95z"/><path d="m144.988 250.542c0 1.713 1.389 3.102 3.102 3.102s3.102-1.389 3.102-3.102c0-.005-.002-.009-.002-.014h-6.202c.002.005 0 .01 0 .014z"/><path d="m134.612 260.919c0 1.713 1.389 3.102 3.102 3.102s3.102-1.389 3.102-3.102-1.389-3.103-3.102-3.103-3.102 1.39-3.102 3.103z"/><path d="m148.091 267.44c-1.713 0-3.102 1.389-3.102 3.103 0 1.713 1.389 3.102 3.102 3.102s3.102-1.389 3.102-3.102c0-1.714-1.389-3.103-3.102-3.103z"/><path d="m137.714 277.816c-1.713 0-3.102 1.389-3.102 3.103 0 1.713 1.389 3.102 3.102 3.102s3.102-1.389 3.102-3.102-1.389-3.103-3.102-3.103z"/><path d="m148.091 287.44c-1.713 0-3.102 1.389-3.102 3.103 0 1.713 1.389 3.102 3.102 3.102s3.102-1.389 3.102-3.102c0-1.714-1.389-3.103-3.102-3.103z"/><path d="m137.714 297.816c-1.713 0-3.102 1.389-3.102 3.103 0 1.713 1.389 3.102 3.102 3.102s3.102-1.389 3.102-3.102-1.389-3.103-3.102-3.103z"/><path d="m148.091 307.44c-1.713 0-3.102 1.389-3.102 3.103 0 1.713 1.389 3.102 3.102 3.102s3.102-1.389 3.102-3.102c0-1.714-1.389-3.103-3.102-3.103z"/><path d="m137.714 317.816c-1.713 0-3.102 1.389-3.102 3.103 0 1.713 1.389 3.102 3.102 3.102s3.102-1.389 3.102-3.102-1.389-3.103-3.102-3.103z"/><path d="m148.091 327.44c-1.713 0-3.102 1.389-3.102 3.103 0 1.713 1.389 3.102 3.102 3.102s3.102-1.389 3.102-3.102c0-1.714-1.389-3.103-3.102-3.103z"/><path d="m137.714 337.816c-1.713 0-3.102 1.389-3.102 3.103 0 1.713 1.389 3.102 3.102 3.102s3.102-1.389 3.102-3.102-1.389-3.103-3.102-3.103z"/><path d="m148.091 347.44c-1.713 0-3.102 1.389-3.102 3.103 0 1.713 1.389 3.102 3.102 3.102s3.102-1.389 3.102-3.102c0-1.714-1.389-3.103-3.102-3.103z"/><path d="m137.714 357.816c-1.713 0-3.102 1.389-3.102 3.103 0 1.713 1.389 3.102 3.102 3.102s3.102-1.389 3.102-3.102-1.389-3.103-3.102-3.103z"/><path d="m148.091 367.44c-1.713 0-3.102 1.389-3.102 3.103 0 1.713 1.389 3.102 3.102 3.102s3.102-1.389 3.102-3.102c0-1.714-1.389-3.103-3.102-3.103z"/><path d="m137.714 377.816c-1.713 0-3.102 1.389-3.102 3.103 0 1.713 1.389 3.102 3.102 3.102s3.102-1.389 3.102-3.102-1.389-3.103-3.102-3.103z"/><path d="m148.091 387.44c-1.713 0-3.102 1.389-3.102 3.103 0 1.713 1.389 3.102 3.102 3.102s3.102-1.389 3.102-3.102c0-1.714-1.389-3.103-3.102-3.103z"/><path d="m137.714 397.816c-1.713 0-3.102 1.389-3.102 3.103 0 1.713 1.389 3.102 3.102 3.102s3.102-1.389 3.102-3.102-1.389-3.103-3.102-3.103z"/><path d="m148.091 407.44c-1.713 0-3.102 1.389-3.102 3.103 0 1.713 1.389 3.102 3.102 3.102s3.102-1.389 3.102-3.102c0-1.714-1.389-3.103-3.102-3.103z"/><path d="m137.714 417.816c-1.713 0-3.102 1.389-3.102 3.103 0 1.713 1.389 3.102 3.102 3.102s3.102-1.389 3.102-3.102-1.389-3.103-3.102-3.103z"/><path d="m148.091 427.44c-1.713 0-3.102 1.389-3.102 3.103 0 1.713 1.389 3.102 3.102 3.102s3.102-1.389 3.102-3.102c0-1.714-1.389-3.103-3.102-3.103z"/><path d="m137.714 437.816c-1.713 0-3.102 1.389-3.102 3.103 0 1.713 1.389 3.102 3.102 3.102s3.102-1.389 3.102-3.102-1.389-3.103-3.102-3.103z"/><path d="m148.091 447.44c-1.713 0-3.102 1.389-3.102 3.103 0 1.713 1.389 3.102 3.102 3.102s3.102-1.389 3.102-3.102c0-1.714-1.389-3.103-3.102-3.103z"/><path d="m137.714 457.816c-1.713 0-3.102 1.389-3.102 3.103 0 1.713 1.389 3.102 3.102 3.102s3.102-1.389 3.102-3.102-1.389-3.103-3.102-3.103z"/><path d="m148.091 467.44c-1.713 0-3.102 1.389-3.102 3.103 0 1.713 1.389 3.102 3.102 3.102s3.102-1.389 3.102-3.102c0-1.714-1.389-3.103-3.102-3.103z"/><path d="m137.714 477.816c-1.713 0-3.102 1.389-3.102 3.103 0 1.713 1.389 3.102 3.102 3.102s3.102-1.389 3.102-3.102-1.389-3.103-3.102-3.103z"/><path d="m148.091 487.44c-1.713 0-3.102 1.389-3.102 3.103 0 1.713 1.389 3.102 3.102 3.102s3.102-1.389 3.102-3.102c0-1.714-1.389-3.103-3.102-3.103z"/><path d="m137.714 497.816c-1.713 0-3.102 1.389-3.102 3.103 0 1.713 1.389 3.102 3.102 3.102s3.102-1.389 3.102-3.102-1.389-3.103-3.102-3.103z"/><path d="m131.193 270.543c0-.884-.374-1.677-.968-2.242-.613 1.756-1.199 3.525-1.758 5.306 1.533-.188 2.726-1.48 2.726-3.064z"/><path d="m128.091 287.44c-1.713 0-3.102 1.389-3.102 3.103 0 1.713 1.389 3.102 3.102 3.102s3.102-1.389 3.102-3.102c0-1.714-1.389-3.103-3.102-3.103z"/><path d="m128.091 307.44c-1.713 0-3.102 1.389-3.102 3.103 0 1.713 1.389 3.102 3.102 3.102s3.102-1.389 3.102-3.102c0-1.714-1.389-3.103-3.102-3.103z"/><path d="m120.816 320.919c0-.555-.158-1.068-.413-1.519-.049 1.09-.104 2.179-.134 3.274.344-.5.547-1.103.547-1.755z"/><path d="m128.091 327.44c-1.713 0-3.102 1.389-3.102 3.103 0 1.713 1.389 3.102 3.102 3.102s3.102-1.389 3.102-3.102c0-1.714-1.389-3.103-3.102-3.103z"/><path d="m120.733 341.609c.051-.223.083-.452.083-.69 0-.375-.077-.73-.199-1.062.04.583.072 1.169.116 1.752z"/><path d="m128.091 347.44c-1.713 0-3.102 1.389-3.102 3.103 0 1.713 1.389 3.102 3.102 3.102s3.102-1.389 3.102-3.102c0-1.714-1.389-3.103-3.102-3.103z"/><path d="m128.091 367.44c-1.624 0-2.941 1.252-3.076 2.84.085.501.156 1.003.237 1.505.479 1.094 1.569 1.859 2.839 1.859 1.713 0 3.102-1.389 3.102-3.102s-1.389-3.102-3.102-3.102z"/><path d="m128.091 387.44c-.313 0-.61.061-.895.147.165 2.001.3 4.004.405 6.008.161.025.322.049.489.049 1.713 0 3.102-1.389 3.102-3.102.001-1.713-1.388-3.102-3.101-3.102z"/><path d="m128.091 407.44c-.088 0-.17.019-.256.026-.035 2.046-.102 4.09-.201 6.133.15.022.3.046.457.046 1.713 0 3.102-1.389 3.102-3.102 0-1.714-1.389-3.103-3.102-3.103z"/><path d="m128.091 427.44c-.623 0-1.2.188-1.686.503-.191 1.55-.402 3.098-.631 4.644.568.643 1.39 1.058 2.317 1.058 1.713 0 3.102-1.389 3.102-3.102 0-1.714-1.389-3.103-3.102-3.103z"/><path d="m128.091 447.44c-1.713 0-3.102 1.389-3.102 3.103 0 1.713 1.389 3.102 3.102 3.102s3.102-1.389 3.102-3.102c0-1.714-1.389-3.103-3.102-3.103z"/><path d="m120.816 460.919c0-.821-.325-1.562-.845-2.117-.094.314-.175.63-.27.943-.431 1.415-.868 2.811-1.309 4.196 1.386-.31 2.424-1.543 2.424-3.022z"/><path d="m128.091 467.44c-1.713 0-3.102 1.389-3.102 3.103 0 1.713 1.389 3.102 3.102 3.102s3.102-1.389 3.102-3.102c0-1.714-1.389-3.103-3.102-3.103z"/><path d="m117.714 477.816c-1.713 0-3.102 1.389-3.102 3.103 0 1.713 1.389 3.102 3.102 3.102s3.102-1.389 3.102-3.102-1.389-3.103-3.102-3.103z"/><path d="m128.091 487.44c-1.713 0-3.102 1.389-3.102 3.103 0 1.713 1.389 3.102 3.102 3.102s3.102-1.389 3.102-3.102c0-1.714-1.389-3.103-3.102-3.103z"/><path d="m117.714 497.816c-1.713 0-3.102 1.389-3.102 3.103 0 1.713 1.389 3.102 3.102 3.102s3.102-1.389 3.102-3.102-1.389-3.103-3.102-3.103z"/><path d="m111.193 490.543c0-1.212-.702-2.251-1.715-2.761-.865 1.939-1.743 3.809-2.636 5.597.383.169.804.266 1.249.266 1.713 0 3.102-1.389 3.102-3.102z"/></g><path d="m51.981 127.27c4.663 8.22 13.217 16.654 13.118 28.291-.04 4.73-1.383 9.26-3.383 13.618h84.066c-2.29-4.774-3.857-9.699-3.889-14.723-.076-11.774 8.701-19.288 13.564-27.187h-103.476z"/><path d="m34.401 211.911c-6.296 11.016-11.57 23.964-15.593 38.76h169.919c-4.036-14.842-9.33-27.825-15.652-38.864-.592-1.035-1.197-2.046-1.807-3.046h-135c-.631 1.035-1.255 2.08-1.867 3.15z"/></g><g fill="#f9fbfc"><path d="m175.684 223.247c-.352-.825-.702-1.65-1.058-2.473-.003.049-.015.095-.015.144.001.934.421 1.761 1.073 2.329z"/><path d="m177.714 244.021c1.713 0 3.102-1.389 3.102-3.102s-1.389-3.102-3.102-3.102-3.102 1.389-3.102 3.102 1.389 3.102 3.102 3.102z"/><path d="m185.481 248.876c-.308.482-.492 1.051-.492 1.666 0 .04.01.076.012.116h1.074c-.195-.599-.398-1.187-.594-1.782z"/><path d="m164.988 210.542c0 1.713 1.389 3.102 3.102 3.102 1.119 0 2.091-.598 2.637-1.486-.785-1.618-1.578-3.18-2.378-4.692-.087-.007-.17-.026-.259-.026-1.713 0-3.102 1.389-3.102 3.102z"/><path d="m157.714 224.021c1.713 0 3.102-1.389 3.102-3.102s-1.389-3.102-3.102-3.102c-.042 0-.08.011-.122.012-.972 1.263-1.948 2.523-2.887 3.812.327 1.363 1.546 2.38 3.009 2.38z"/><path d="m168.091 227.44c-1.713 0-3.102 1.389-3.102 3.103 0 1.713 1.389 3.102 3.102 3.102s3.102-1.389 3.102-3.102c0-1.714-1.389-3.103-3.102-3.103z"/><path d="m157.714 237.816c-1.713 0-3.102 1.389-3.102 3.102s1.389 3.102 3.102 3.102 3.102-1.389 3.102-3.102-1.389-3.102-3.102-3.102z"/><path d="m171.193 250.542c0-1.713-1.389-3.103-3.102-3.103s-3.102 1.389-3.102 3.103c0 .04.01.076.012.116h6.181c.001-.039.011-.076.011-.116z"/><path d="m151.193 230.542c0-.922-.41-1.741-1.048-2.309-1.125 1.697-2.229 3.41-3.298 5.147.381.167.8.263 1.243.263 1.714.002 3.103-1.387 3.103-3.101z"/><path d="m151.193 250.542c0-1.713-1.389-3.103-3.102-3.103s-3.102 1.389-3.102 3.103c0 .04.01.076.012.116h6.181c.001-.039.011-.076.011-.116z"/></g><path d="m155.883 511.778h-104.37l-1.201-1.512c-16.155-20.334-27.174-64.112-32.305-88.398-7.299-34.554-12.016-72.772-12.016-97.366 0-48.914 12.793-81.99 24.784-109.152 5.804-13.148 12.204-22.717 17.851-31.159 7.273-10.873 12.528-18.729 12.528-28.477 0-14.66-6.759-23.902-10.797-29.425-.838-1.146-1.562-2.135-2.121-3.031-2.076-3.321-12.43-20.944-12.43-41.837 0-9.01 2.729-29.161 12.958-47.534 12.294-22.077 31.266-33.795 54.871-33.887l.325.006c23.53.091 42.483 11.81 54.735 33.889 10.177 18.34 12.893 38.503 12.893 47.526 0 20.893-10.354 38.516-12.43 41.837-.561.896-1.283 1.886-2.121 3.031-4.038 5.522-10.797 14.765-10.797 29.425 0 9.748 5.255 17.604 12.528 28.477 5.648 8.442 12.048 18.011 17.852 31.159 11.991 27.162 24.784 60.238 24.784 109.152 0 24.594-4.717 62.812-12.016 97.366-5.131 24.286-16.149 68.065-32.305 88.398zm-100.465-8h96.559c25.335-34.312 41.427-136.254 41.427-179.276 0-47.358-12.441-79.506-24.103-105.922-5.522-12.51-11.717-21.771-17.183-29.941-7.754-11.592-13.879-20.748-13.879-32.925 0-17.273 8.027-28.25 12.34-34.147.745-1.019 1.389-1.899 1.795-2.549 1.147-1.836 11.213-18.492 11.213-37.597 0-15.458-10.138-73.223-59.732-73.416l-.236-.005c-49.66.229-59.812 57.966-59.812 73.421 0 19.104 10.065 35.76 11.213 37.597.406.65 1.05 1.53 1.795 2.549 4.312 5.897 12.34 16.874 12.34 34.147 0 12.177-6.125 21.333-13.879 32.925-5.466 8.171-11.66 17.432-17.183 29.941-11.661 26.416-24.103 58.564-24.103 105.922.001 43.021 16.093 144.964 41.428 179.276z" fill="#31373d"/></g><g><circle cx="321.688" cy="327.679" fill="#e9c278" r="180.184"/><g fill="#f9fbfc"><path d="m500.73 321.958c0 .944.431 1.78 1.098 2.349-.028-1.532-.077-3.059-.142-4.581-.588.564-.956 1.354-.956 2.232z"/><path d="m500.73 341.958c0 .575.167 1.107.44 1.569.102-1.173.194-2.349.274-3.528-.439.536-.714 1.212-.714 1.959z"/><path d="m483.832 258.856c-1.713 0-3.102 1.389-3.102 3.103 0 1.713 1.389 3.102 3.102 3.102s3.102-1.389 3.102-3.102c.001-1.714-1.389-3.103-3.102-3.103z"/><path d="m491.106 271.582c0 1.617 1.241 2.929 2.82 3.074-.557-1.811-1.142-3.61-1.755-5.397-.647.569-1.065 1.393-1.065 2.323z"/><path d="m483.832 278.856c-1.713 0-3.102 1.389-3.102 3.103 0 1.713 1.389 3.102 3.102 3.102s3.102-1.389 3.102-3.102c.001-1.714-1.389-3.103-3.102-3.103z"/><path d="m494.209 288.479c-1.713 0-3.102 1.389-3.102 3.102s1.389 3.103 3.102 3.103 3.102-1.389 3.102-3.103c0-1.712-1.389-3.102-3.102-3.102z"/><path d="m483.832 298.856c-1.713 0-3.102 1.389-3.102 3.103 0 1.713 1.389 3.102 3.102 3.102s3.102-1.389 3.102-3.102c.001-1.714-1.389-3.103-3.102-3.103z"/><path d="m494.209 308.479c-1.713 0-3.102 1.389-3.102 3.102s1.389 3.103 3.102 3.103 3.102-1.389 3.102-3.103c0-1.712-1.389-3.102-3.102-3.102z"/><path d="m483.832 318.856c-1.713 0-3.102 1.389-3.102 3.103 0 1.713 1.389 3.102 3.102 3.102s3.102-1.389 3.102-3.102c.001-1.714-1.389-3.103-3.102-3.103z"/><path d="m494.209 328.479c-1.713 0-3.102 1.389-3.102 3.102s1.389 3.103 3.102 3.103 3.102-1.389 3.102-3.103c0-1.712-1.389-3.102-3.102-3.102z"/><path d="m483.832 338.856c-1.713 0-3.102 1.389-3.102 3.103 0 1.713 1.389 3.102 3.102 3.102s3.102-1.389 3.102-3.102c.001-1.714-1.389-3.103-3.102-3.103z"/><path d="m494.209 348.479c-1.713 0-3.102 1.389-3.102 3.102s1.389 3.103 3.102 3.103 3.102-1.389 3.102-3.103c0-1.712-1.389-3.102-3.102-3.102z"/><path d="m483.832 358.856c-1.713 0-3.102 1.389-3.102 3.103 0 1.713 1.389 3.102 3.102 3.102s3.102-1.389 3.102-3.102c.001-1.714-1.389-3.103-3.102-3.103z"/><path d="m494.209 368.479c-1.713 0-3.102 1.389-3.102 3.102s1.389 3.103 3.102 3.103c.578 0 1.113-.169 1.577-.444.376-1.408.734-2.823 1.076-4.244-.542-.905-1.522-1.517-2.653-1.517z"/><path d="m483.832 378.856c-1.713 0-3.102 1.389-3.102 3.103 0 1.713 1.389 3.102 3.102 3.102s3.102-1.389 3.102-3.102c.001-1.714-1.389-3.103-3.102-3.103z"/><path d="m483.832 398.856c-1.713 0-3.102 1.389-3.102 3.103 0 1.713 1.389 3.102 3.102 3.102.222 0 .438-.026.648-.07.709-1.491 1.396-2.995 2.065-4.508-.526-.965-1.537-1.627-2.713-1.627z"/><path d="m460.73 221.958c0 1.713 1.389 3.102 3.102 3.102s3.102-1.389 3.102-3.102c0-.45-.1-.875-.273-1.261-.253-.342-.499-.69-.754-1.031-.551-.499-1.274-.811-2.075-.811-1.713.001-3.102 1.39-3.102 3.103z"/><path d="m471.106 231.581c0 1.713 1.389 3.103 3.102 3.103.573 0 1.102-.166 1.562-.437-1.072-1.764-2.181-3.502-3.312-5.226-.815.56-1.352 1.497-1.352 2.56z"/><path d="m463.832 238.856c-.017 0-.034.005-.051.005.565 1.91 1.098 3.834 1.602 5.77.923-.538 1.551-1.527 1.551-2.672.001-1.714-1.389-3.103-3.102-3.103z"/><path d="m474.209 248.48c-1.713 0-3.102 1.389-3.102 3.102s1.389 3.103 3.102 3.103 3.102-1.389 3.102-3.103c0-1.713-1.389-3.102-3.102-3.102z"/><path d="m474.209 268.479c-1.713 0-3.102 1.389-3.102 3.102s1.389 3.103 3.102 3.103 3.102-1.389 3.102-3.103c0-1.712-1.389-3.102-3.102-3.102z"/><path d="m474.209 288.479c-1.493 0-2.739 1.056-3.034 2.461-.002.391-.01.779-.015 1.169.251 1.461 1.517 2.575 3.049 2.575 1.713 0 3.102-1.389 3.102-3.103 0-1.712-1.389-3.102-3.102-3.102z"/><path d="m474.209 308.479c-1.713 0-3.102 1.389-3.102 3.102s1.389 3.103 3.102 3.103 3.102-1.389 3.102-3.103c0-1.712-1.389-3.102-3.102-3.102z"/><path d="m474.209 328.479c-1.713 0-3.102 1.389-3.102 3.102s1.389 3.103 3.102 3.103 3.102-1.389 3.102-3.103c0-1.712-1.389-3.102-3.102-3.102z"/><path d="m463.832 345.06c1.713 0 3.102-1.389 3.102-3.102 0-1.493-1.055-2.737-2.458-3.034-.558 1.986-1.155 3.956-1.779 5.914.352.14.733.222 1.135.222z"/><path d="m474.209 348.479c-1.713 0-3.102 1.389-3.102 3.102s1.389 3.103 3.102 3.103 3.102-1.389 3.102-3.103c0-1.712-1.389-3.102-3.102-3.102z"/><path d="m463.832 358.856c-1.713 0-3.102 1.389-3.102 3.103 0 1.713 1.389 3.102 3.102 3.102s3.102-1.389 3.102-3.102c.001-1.714-1.389-3.103-3.102-3.103z"/><path d="m474.209 368.479c-1.713 0-3.102 1.389-3.102 3.102s1.389 3.103 3.102 3.103 3.102-1.389 3.102-3.103c0-1.712-1.389-3.102-3.102-3.102z"/><path d="m463.832 378.856c-1.713 0-3.102 1.389-3.102 3.103 0 1.713 1.389 3.102 3.102 3.102s3.102-1.389 3.102-3.102c.001-1.714-1.389-3.103-3.102-3.103z"/><path d="m474.209 388.479c-1.713 0-3.102 1.389-3.102 3.102s1.389 3.103 3.102 3.103 3.102-1.389 3.102-3.103c0-1.712-1.389-3.102-3.102-3.102z"/><path d="m463.832 398.856c-1.713 0-3.102 1.389-3.102 3.103 0 1.713 1.389 3.102 3.102 3.102s3.102-1.389 3.102-3.102c.001-1.714-1.389-3.103-3.102-3.103z"/><path d="m474.209 408.479c-1.713 0-3.102 1.389-3.102 3.102s1.389 3.103 3.102 3.103 3.102-1.389 3.102-3.103c0-1.712-1.389-3.102-3.102-3.102z"/><path d="m463.832 418.856c-1.713 0-3.102 1.389-3.102 3.103 0 1.713 1.389 3.102 3.102 3.102s3.102-1.389 3.102-3.102c.001-1.714-1.389-3.103-3.102-3.103z"/><path d="m460.73 441.958c0 .101.02.195.03.293.914-1.109 1.816-2.228 2.704-3.359-1.538.186-2.734 1.479-2.734 3.066z"/><path d="m454.653 214.639c1.501-.217 2.658-1.496 2.658-3.058 0-1.713-1.389-3.102-3.102-3.102-.82 0-1.561.325-2.116.845.881 1.756 1.735 3.527 2.56 5.315z"/><path d="m454.209 374.684c1.713 0 3.102-1.389 3.102-3.103 0-1.713-1.389-3.102-3.102-3.102-.365 0-.709.075-1.034.19-.624 1.285-1.262 2.561-1.915 3.828.392 1.264 1.556 2.187 2.949 2.187z"/><path d="m446.935 381.958c0-.416-.085-.811-.233-1.173-.834 1.428-1.688 2.841-2.56 4.244 1.565-.157 2.793-1.464 2.793-3.071z"/><path d="m454.209 388.479c-1.713 0-3.102 1.389-3.102 3.102s1.389 3.103 3.102 3.103 3.102-1.389 3.102-3.103c0-1.712-1.389-3.102-3.102-3.102z"/><path d="m443.832 398.856c-1.713 0-3.102 1.389-3.102 3.103 0 1.713 1.389 3.102 3.102 3.102s3.102-1.389 3.102-3.102c.001-1.714-1.389-3.103-3.102-3.103z"/><path d="m454.209 408.479c-1.713 0-3.102 1.389-3.102 3.102s1.389 3.103 3.102 3.103 3.102-1.389 3.102-3.103c0-1.712-1.389-3.102-3.102-3.102z"/><path d="m443.832 418.856c-1.713 0-3.102 1.389-3.102 3.103 0 1.713 1.389 3.102 3.102 3.102s3.102-1.389 3.102-3.102c.001-1.714-1.389-3.103-3.102-3.103z"/><path d="m454.209 428.479c-1.713 0-3.102 1.389-3.102 3.102s1.389 3.103 3.102 3.103 3.102-1.389 3.102-3.103c0-1.712-1.389-3.102-3.102-3.102z"/><path d="m443.832 438.856c-1.713 0-3.102 1.389-3.102 3.103 0 1.713 1.389 3.102 3.102 3.102s3.102-1.389 3.102-3.102c.001-1.714-1.389-3.103-3.102-3.103z"/><path d="m451.106 451.582c0 .426.086.832.242 1.201 1.308-1.356 2.601-2.726 3.866-4.122-.317-.109-.652-.181-1.006-.181-1.713-.001-3.102 1.389-3.102 3.102z"/><path d="m440.73 461.958c0 .297.055.578.133.85 1.386-1.224 2.754-2.467 4.102-3.732-.352-.139-.731-.221-1.132-.221-1.714.001-3.103 1.39-3.103 3.103z"/><path d="m434.209 408.479c-1.713 0-3.102 1.389-3.102 3.102s1.389 3.103 3.102 3.103 3.102-1.389 3.102-3.103c0-1.712-1.389-3.102-3.102-3.102z"/><path d="m423.832 418.856c-1.713 0-3.102 1.389-3.102 3.103 0 1.713 1.389 3.102 3.102 3.102s3.102-1.389 3.102-3.102c.001-1.714-1.389-3.103-3.102-3.103z"/><path d="m434.209 428.479c-1.713 0-3.102 1.389-3.102 3.102s1.389 3.103 3.102 3.103 3.102-1.389 3.102-3.103c0-1.712-1.389-3.102-3.102-3.102z"/><path d="m423.832 438.856c-1.713 0-3.102 1.389-3.102 3.103 0 1.713 1.389 3.102 3.102 3.102s3.102-1.389 3.102-3.102c.001-1.714-1.389-3.103-3.102-3.103z"/><path d="m434.209 448.479c-1.713 0-3.102 1.389-3.102 3.102s1.389 3.103 3.102 3.103 3.102-1.389 3.102-3.103c0-1.712-1.389-3.102-3.102-3.102z"/><path d="m423.832 465.06c1.713 0 3.102-1.389 3.102-3.102s-1.389-3.103-3.102-3.103-3.102 1.389-3.102 3.103c0 1.713 1.389 3.102 3.102 3.102z"/><path d="m431.24 470.728c.961-.737 1.915-1.482 2.86-2.238-1.366.049-2.497.977-2.86 2.238z"/><path d="m414.209 428.479c-1.713 0-3.102 1.389-3.102 3.102s1.389 3.103 3.102 3.103 3.102-1.389 3.102-3.103c0-1.712-1.389-3.102-3.102-3.102z"/><path d="m403.832 438.856c-1.713 0-3.102 1.389-3.102 3.103 0 1.713 1.389 3.102 3.102 3.102s3.102-1.389 3.102-3.102c.001-1.714-1.389-3.103-3.102-3.103z"/><path d="m414.209 448.479c-1.713 0-3.102 1.389-3.102 3.102s1.389 3.103 3.102 3.103 3.102-1.389 3.102-3.103c0-1.712-1.389-3.102-3.102-3.102z"/><path d="m403.832 458.856c-1.713 0-3.102 1.389-3.102 3.103 0 1.713 1.389 3.102 3.102 3.102s3.102-1.389 3.102-3.102c.001-1.714-1.389-3.103-3.102-3.103z"/><path d="m414.209 468.479c-1.713 0-3.102 1.389-3.102 3.102s1.389 3.103 3.102 3.103 3.102-1.389 3.102-3.103c0-1.712-1.389-3.102-3.102-3.102z"/><path d="m403.832 478.856c-1.713 0-3.102 1.389-3.102 3.103 0 1.713 1.389 3.102 3.102 3.102s3.102-1.389 3.102-3.102c.001-1.714-1.389-3.103-3.102-3.103z"/><path d="m386.85 442.653c-1.245.784-2.5 1.553-3.766 2.307.241.06.489.101.748.101 1.474-.001 2.701-1.03 3.018-2.408z"/><path d="m394.209 448.479c-1.713 0-3.102 1.389-3.102 3.102s1.389 3.103 3.102 3.103 3.102-1.389 3.102-3.103c0-1.712-1.389-3.102-3.102-3.102z"/><path d="m383.832 458.856c-1.713 0-3.102 1.389-3.102 3.103 0 1.713 1.389 3.102 3.102 3.102s3.102-1.389 3.102-3.102c.001-1.714-1.389-3.103-3.102-3.103z"/><path d="m394.209 468.479c-1.713 0-3.102 1.389-3.102 3.102s1.389 3.103 3.102 3.103 3.102-1.389 3.102-3.103c0-1.712-1.389-3.102-3.102-3.102z"/><path d="m383.832 478.856c-1.713 0-3.102 1.389-3.102 3.103 0 1.713 1.389 3.102 3.102 3.102s3.102-1.389 3.102-3.102c.001-1.714-1.389-3.103-3.102-3.103z"/><path d="m394.209 488.479c-1.713 0-3.102 1.389-3.102 3.102 0 .804.313 1.528.814 2.079 1.804-.764 3.587-1.566 5.36-2.387-.158-1.566-1.465-2.794-3.072-2.794z"/><path d="m374.209 454.684c1.713 0 3.102-1.389 3.102-3.103 0-1.075-.547-2.021-1.378-2.578-1.591.852-3.198 1.678-4.817 2.483-.001.032-.01.062-.01.095 0 1.714 1.389 3.103 3.103 3.103z"/><path d="m363.832 458.856c-1.713 0-3.102 1.389-3.102 3.103 0 1.713 1.389 3.102 3.102 3.102s3.102-1.389 3.102-3.102c.001-1.714-1.389-3.103-3.102-3.103z"/><path d="m374.209 468.479c-1.713 0-3.102 1.389-3.102 3.102s1.389 3.103 3.102 3.103 3.102-1.389 3.102-3.103c0-1.712-1.389-3.102-3.102-3.102z"/><path d="m363.832 478.856c-1.713 0-3.102 1.389-3.102 3.103 0 1.713 1.389 3.102 3.102 3.102s3.102-1.389 3.102-3.102c.001-1.714-1.389-3.103-3.102-3.103z"/><path d="m374.209 488.479c-1.713 0-3.102 1.389-3.102 3.102s1.389 3.103 3.102 3.103 3.102-1.389 3.102-3.103c0-1.712-1.389-3.102-3.102-3.102z"/><path d="m363.832 498.856c-1.713 0-3.102 1.389-3.102 3.103 0 .57.164 1.097.433 1.556 1.929-.431 3.849-.885 5.754-1.377.003-.06.018-.117.018-.178 0-1.715-1.39-3.104-3.103-3.104z"/><path d="m343.832 465.06c1.713 0 3.102-1.389 3.102-3.102 0-.191-.023-.376-.056-.557-1.946.634-3.905 1.242-5.879 1.811.482 1.088 1.567 1.848 2.833 1.848z"/><path d="m354.209 468.479c-1.713 0-3.102 1.389-3.102 3.102s1.389 3.103 3.102 3.103 3.102-1.389 3.102-3.103c0-1.712-1.389-3.102-3.102-3.102z"/><path d="m343.832 478.856c-1.713 0-3.102 1.389-3.102 3.103 0 1.713 1.389 3.102 3.102 3.102s3.102-1.389 3.102-3.102c.001-1.714-1.389-3.103-3.102-3.103z"/><path d="m354.209 488.479c-1.713 0-3.102 1.389-3.102 3.102s1.389 3.103 3.102 3.103 3.102-1.389 3.102-3.103c0-1.712-1.389-3.102-3.102-3.102z"/><path d="m343.832 498.856c-1.713 0-3.102 1.389-3.102 3.103 0 1.713 1.389 3.102 3.102 3.102s3.102-1.389 3.102-3.102c.001-1.714-1.389-3.103-3.102-3.103z"/><path d="m334.209 468.479c-1.713 0-3.102 1.389-3.102 3.102s1.389 3.103 3.102 3.103 3.102-1.389 3.102-3.103c0-1.712-1.389-3.102-3.102-3.102z"/><path d="m323.832 478.856c-1.713 0-3.102 1.389-3.102 3.103 0 1.713 1.389 3.102 3.102 3.102s3.102-1.389 3.102-3.102c.001-1.714-1.389-3.103-3.102-3.103z"/><path d="m334.209 488.479c-1.713 0-3.102 1.389-3.102 3.102s1.389 3.103 3.102 3.103 3.102-1.389 3.102-3.103c0-1.712-1.389-3.102-3.102-3.102z"/><path d="m323.832 498.856c-1.713 0-3.102 1.389-3.102 3.103 0 1.713 1.389 3.102 3.102 3.102s3.102-1.389 3.102-3.102c.001-1.714-1.389-3.103-3.102-3.103z"/><path d="m311.106 471.582c0 1.713 1.389 3.103 3.102 3.103s3.102-1.389 3.102-3.103c0-1.39-.92-2.552-2.18-2.947-.852.114-1.706.221-2.561.323-.876.548-1.463 1.514-1.463 2.624z"/><path d="m303.832 478.856c-1.713 0-3.102 1.389-3.102 3.103 0 1.713 1.389 3.102 3.102 3.102s3.102-1.389 3.102-3.102c.001-1.714-1.389-3.103-3.102-3.103z"/><path d="m314.209 488.479c-1.713 0-3.102 1.389-3.102 3.102s1.389 3.103 3.102 3.103 3.102-1.389 3.102-3.103c0-1.712-1.389-3.102-3.102-3.102z"/><path d="m303.832 498.856c-1.713 0-3.102 1.389-3.102 3.103 0 1.713 1.389 3.102 3.102 3.102s3.102-1.389 3.102-3.102c.001-1.714-1.389-3.103-3.102-3.103z"/><path d="m294.209 474.684c1.713 0 3.102-1.389 3.102-3.103 0-.523-.142-1.009-.371-1.442-1.833.06-3.671.098-5.518.103-.196.407-.315.857-.315 1.339-.001 1.714 1.388 3.103 3.102 3.103z"/><path d="m280.73 481.958c0 1.713 1.389 3.102 3.102 3.102s3.102-1.389 3.102-3.102-1.389-3.103-3.102-3.103c-1.713.001-3.102 1.39-3.102 3.103z"/><path d="m294.209 494.684c1.713 0 3.102-1.389 3.102-3.103 0-1.713-1.389-3.102-3.102-3.102s-3.102 1.389-3.102 3.102c-.001 1.714 1.388 3.103 3.102 3.103z"/><path d="m286.935 501.958c0-1.713-1.389-3.103-3.102-3.103s-3.102 1.389-3.102 3.103c0 .459.106.892.285 1.284 1.605.37 3.215.726 4.836 1.053.657-.568 1.083-1.399 1.083-2.337z"/><path d="m271.106 471.582c0 1.713 1.389 3.103 3.102 3.103s3.102-1.389 3.102-3.103c0-.724-.258-1.381-.674-1.909-1.496-.118-2.986-.255-4.472-.409-.643.568-1.058 1.391-1.058 2.318z"/><path d="m260.73 481.958c0 1.713 1.389 3.102 3.102 3.102s3.102-1.389 3.102-3.102-1.389-3.103-3.102-3.103c-1.713.001-3.102 1.39-3.102 3.103z"/><path d="m274.209 488.479c-1.713 0-3.102 1.389-3.102 3.102s1.389 3.103 3.102 3.103 3.102-1.389 3.102-3.103c0-1.712-1.389-3.102-3.102-3.102z"/><path d="m243.832 465.06c.675 0 1.295-.222 1.805-.588-1.556-.404-3.104-.826-4.643-1.271.479 1.094 1.568 1.859 2.838 1.859z"/><path d="m251.106 471.582c0 1.713 1.389 3.103 3.102 3.103s3.102-1.389 3.102-3.103c0-1.713-1.389-3.102-3.102-3.102-1.713-.001-3.102 1.389-3.102 3.102z"/><path d="m240.73 481.958c0 1.713 1.389 3.102 3.102 3.102s3.102-1.389 3.102-3.102-1.389-3.103-3.102-3.103c-1.713.001-3.102 1.39-3.102 3.103z"/><path d="m257.311 491.582c0-1.713-1.389-3.102-3.102-3.102s-3.102 1.389-3.102 3.102c0 .986.469 1.854 1.186 2.423.527.22 1.058.431 1.588.646.109.012.216.033.328.033 1.713 0 3.102-1.389 3.102-3.102z"/><path d="m220.73 461.958c0 1.713 1.389 3.102 3.102 3.102s3.102-1.389 3.102-3.102-1.389-3.103-3.102-3.103c-1.713.001-3.102 1.39-3.102 3.103z"/><path d="m231.106 471.582c0 1.713 1.389 3.103 3.102 3.103s3.102-1.389 3.102-3.103c0-1.713-1.389-3.102-3.102-3.102-1.713-.001-3.102 1.389-3.102 3.102z"/><path d="m223.832 478.856c-.056 0-.108.014-.163.017 1.008.654 2.019 1.303 3.04 1.938-.457-1.144-1.57-1.955-2.877-1.955z"/><path d="m214.209 454.684c.732 0 1.396-.264 1.926-.688-1.691-.774-3.365-1.581-5.027-2.405.005 1.709 1.391 3.093 3.101 3.093z"/><path d="m206.935 461.958c0-1.713-1.389-3.103-3.102-3.103-1.48 0-2.714 1.039-3.023 2.426 1.341 1.213 2.698 2.41 4.074 3.583 1.193-.431 2.051-1.563 2.051-2.906z"/><path d="m217.311 471.582c0-1.713-1.389-3.102-3.102-3.102-1.208 0-2.244.698-2.756 1.707 1.605 1.243 3.229 2.461 4.876 3.65.601-.566.982-1.364.982-2.255z"/><path d="m186.935 441.958c0-1.713-1.389-3.103-3.102-3.103-1.155 0-2.151.639-2.685 1.576 1.207 1.503 2.439 2.984 3.693 4.447 1.214-.419 2.094-1.561 2.094-2.92z"/><path d="m194.209 454.684c1.713 0 3.102-1.389 3.102-3.103 0-1.713-1.389-3.102-3.102-3.102s-3.102 1.389-3.102 3.102c0 .085.018.165.025.248.905.952 1.823 1.89 2.749 2.822.109.012.215.033.328.033z"/><path d="m177.311 431.582c0-1.713-1.389-3.102-3.102-3.102-.573 0-1.102.166-1.563.436 1.155 1.698 2.338 3.375 3.549 5.03.677-.569 1.116-1.411 1.116-2.364z"/></g><g fill="#31373d"><path d="m321.687 511.863c-101.559 0-184.184-82.625-184.184-184.184s82.624-184.184 184.184-184.184 184.185 82.625 184.185 184.184-82.625 184.184-184.185 184.184zm0-360.369c-97.148 0-176.184 79.036-176.184 176.184s79.035 176.184 176.184 176.184c97.148 0 176.185-79.036 176.185-176.184s-79.036-176.184-176.185-176.184z"/><path d="m230.435 287.688c-15.769 0-28.598 12.829-28.598 28.598s12.829 28.598 28.598 28.598c15.77 0 28.599-12.829 28.599-28.598s-12.829-28.598-28.599-28.598z"/><path d="m300.662 236.815c0-15.769-12.829-28.598-28.599-28.598s-28.599 12.829-28.599 28.598c0 15.77 12.829 28.599 28.599 28.599s28.599-12.83 28.599-28.599z"/><path d="m319.368 283.904c-15.77 0-28.599 12.829-28.599 28.599 0 15.769 12.829 28.598 28.599 28.598 15.768 0 28.598-12.829 28.598-28.598 0-15.77-12.829-28.599-28.598-28.599z"/></g></g></g></svg>