<svg id="Capa_1" enable-background="new 0 0 511.85 511.85" height="512" viewBox="0 0 511.85 511.85" width="512" xmlns="http://www.w3.org/2000/svg"><g><path d="m475.978 176.172h-2.289v-50.888c0-56.475-45.782-102.257-102.257-102.257h-72.569c-56.475 0-102.257 45.782-102.257 102.257v125.161c0 39.932 28.717 74.513 62.09 91.349v54.039c0 17.692 15.073 29.717 26.209 32.035h100.485c12.876-.507 31.421-25.777 32.035-32.035v-43.138c49.332-.304 89.251-51.893 89.251-101.279v-44.546c-.001-16.955-13.744-30.698-30.698-30.698z" fill="#e9c278"/><g fill="#f9fbfc"><path d="m406.803 353.598c-1.713 0-3.102 1.389-3.102 3.103s1.389 3.102 3.102 3.102 3.102-1.389 3.102-3.102-1.389-3.103-3.102-3.103z"/><path d="m414.077 366.324c0 1.713 1.389 3.102 3.102 3.102.316 0 .615-.061.902-.149v-5.907c-.287-.087-.586-.149-.902-.149-1.713.001-3.102 1.39-3.102 3.103z"/><path d="m406.803 373.598c-1.713 0-3.102 1.389-3.102 3.103s1.389 3.102 3.102 3.102 3.102-1.389 3.102-3.102-1.389-3.103-3.102-3.103z"/><path d="m418.081 383.371c-.287-.087-.586-.149-.902-.149-1.713 0-3.102 1.389-3.102 3.103s1.389 3.102 3.102 3.102c.316 0 .615-.061.902-.149z"/><path d="m386.803 353.598c-1.713 0-3.102 1.389-3.102 3.103s1.389 3.102 3.102 3.102 3.102-1.389 3.102-3.102-1.389-3.103-3.102-3.103z"/><path d="m397.179 363.222c-1.713 0-3.102 1.389-3.102 3.103s1.389 3.102 3.102 3.102 3.102-1.389 3.102-3.102-1.389-3.103-3.102-3.103z"/><path d="m386.803 373.598c-1.713 0-3.102 1.389-3.102 3.103s1.389 3.102 3.102 3.102 3.102-1.389 3.102-3.102-1.389-3.103-3.102-3.103z"/><path d="m397.179 383.222c-1.713 0-3.102 1.389-3.102 3.103s1.389 3.102 3.102 3.102 3.102-1.389 3.102-3.102-1.389-3.103-3.102-3.103z"/><path d="m366.803 353.598c-1.713 0-3.102 1.389-3.102 3.103s1.389 3.102 3.102 3.102 3.102-1.389 3.102-3.102-1.389-3.103-3.102-3.103z"/><path d="m377.179 363.222c-1.713 0-3.102 1.389-3.102 3.103s1.389 3.102 3.102 3.102 3.102-1.389 3.102-3.102-1.389-3.103-3.102-3.103z"/><path d="m366.803 373.598c-1.713 0-3.102 1.389-3.102 3.103s1.389 3.102 3.102 3.102 3.102-1.389 3.102-3.102-1.389-3.103-3.102-3.103z"/><path d="m377.179 383.222c-1.713 0-3.102 1.389-3.102 3.103s1.389 3.102 3.102 3.102 3.102-1.389 3.102-3.102-1.389-3.103-3.102-3.103z"/><path d="m346.803 353.598c-1.713 0-3.102 1.389-3.102 3.103s1.389 3.102 3.102 3.102 3.102-1.389 3.102-3.102-1.389-3.103-3.102-3.103z"/><path d="m357.179 363.222c-1.713 0-3.102 1.389-3.102 3.103s1.389 3.102 3.102 3.102 3.102-1.389 3.102-3.102-1.389-3.103-3.102-3.103z"/><path d="m346.803 373.598c-1.713 0-3.102 1.389-3.102 3.103s1.389 3.102 3.102 3.102 3.102-1.389 3.102-3.102-1.389-3.103-3.102-3.103z"/><path d="m357.179 383.222c-1.713 0-3.102 1.389-3.102 3.103s1.389 3.102 3.102 3.102 3.102-1.389 3.102-3.102-1.389-3.103-3.102-3.103z"/><path d="m326.803 353.598c-1.713 0-3.102 1.389-3.102 3.103s1.389 3.102 3.102 3.102 3.102-1.389 3.102-3.102-1.389-3.103-3.102-3.103z"/><path d="m337.179 363.222c-1.713 0-3.102 1.389-3.102 3.103s1.389 3.102 3.102 3.102 3.102-1.389 3.102-3.102-1.389-3.103-3.102-3.103z"/><path d="m326.803 373.598c-1.713 0-3.102 1.389-3.102 3.103s1.389 3.102 3.102 3.102 3.102-1.389 3.102-3.102-1.389-3.103-3.102-3.103z"/><path d="m337.179 383.222c-1.713 0-3.102 1.389-3.102 3.103s1.389 3.102 3.102 3.102 3.102-1.389 3.102-3.102-1.389-3.103-3.102-3.103z"/><path d="m306.803 353.598c-1.713 0-3.102 1.389-3.102 3.103s1.389 3.102 3.102 3.102 3.102-1.389 3.102-3.102-1.389-3.103-3.102-3.103z"/><path d="m317.179 363.222c-1.713 0-3.102 1.389-3.102 3.103s1.389 3.102 3.102 3.102 3.102-1.389 3.102-3.102-1.389-3.103-3.102-3.103z"/><path d="m306.803 373.598c-1.713 0-3.102 1.389-3.102 3.103s1.389 3.102 3.102 3.102 3.102-1.389 3.102-3.102-1.389-3.103-3.102-3.103z"/><path d="m317.179 383.222c-1.713 0-3.102 1.389-3.102 3.103s1.389 3.102 3.102 3.102 3.102-1.389 3.102-3.102-1.389-3.103-3.102-3.103z"/><path d="m286.803 353.598c-1.713 0-3.102 1.389-3.102 3.103s1.389 3.102 3.102 3.102 3.102-1.389 3.102-3.102-1.389-3.103-3.102-3.103z"/><path d="m297.179 363.222c-1.713 0-3.102 1.389-3.102 3.103s1.389 3.102 3.102 3.102 3.102-1.389 3.102-3.102-1.389-3.103-3.102-3.103z"/><path d="m286.803 373.598c-1.713 0-3.102 1.389-3.102 3.103s1.389 3.102 3.102 3.102 3.102-1.389 3.102-3.102-1.389-3.103-3.102-3.103z"/><path d="m297.179 383.222c-1.713 0-3.102 1.389-3.102 3.103s1.389 3.102 3.102 3.102 3.102-1.389 3.102-3.102-1.389-3.103-3.102-3.103z"/><path d="m266.803 353.598c-1.713 0-3.102 1.389-3.102 3.103s1.389 3.102 3.102 3.102 3.102-1.389 3.102-3.102-1.389-3.103-3.102-3.103z"/><path d="m277.179 363.222c-1.713 0-3.102 1.389-3.102 3.103s1.389 3.102 3.102 3.102 3.102-1.389 3.102-3.102-1.389-3.103-3.102-3.103z"/><path d="m266.803 373.598c-1.713 0-3.102 1.389-3.102 3.103s1.389 3.102 3.102 3.102 3.102-1.389 3.102-3.102-1.389-3.103-3.102-3.103z"/><path d="m277.179 383.222c-1.713 0-3.102 1.389-3.102 3.103s1.389 3.102 3.102 3.102 3.102-1.389 3.102-3.102-1.389-3.103-3.102-3.103z"/><path d="m257.11 363.229v6.19c.024 0 .046.007.07.007 1.713 0 3.102-1.389 3.102-3.102s-1.389-3.103-3.102-3.103c-.025.001-.047.008-.07.008z"/><path d="m260.281 386.324c0-1.713-1.389-3.103-3.102-3.103-.024 0-.046.007-.07.007v6.19c.024 0 .046.007.07.007 1.713.001 3.102-1.387 3.102-3.101z"/></g><path d="m282.589 235.796-1.379-54.003c0-55.494-51.319-97.379-96.003-97.379h-76.121c-55.494 0-103.349 44.7-102.764 94.338l-.585 128.487c0 38.669 19.107 79.085 55.703 95.486v48.454c0 20.79 16.854 37.644 37.644 37.644h89.266c20.79 0 37.644-16.854 37.644-37.644v-37.528c49.332-.304 89.251-51.892 89.251-101.279v-44.545c-.001-16.571-16.232-31.43-32.656-32.031z" fill="#eaa895"/><g fill="#f9fbfc"><path d="m223.7 416.701c0 1.364.886 2.509 2.109 2.925v-5.85c-1.223.415-2.109 1.561-2.109 2.925z"/><path d="m223.7 436.701c0 1.364.886 2.509 2.109 2.925v-5.85c-1.223.415-2.109 1.561-2.109 2.925z"/><path d="m206.803 413.598c-1.713 0-3.102 1.389-3.102 3.103s1.389 3.102 3.102 3.102 3.102-1.389 3.102-3.102-1.389-3.103-3.102-3.103z"/><path d="m217.179 423.222c-1.713 0-3.102 1.389-3.102 3.103s1.389 3.102 3.102 3.102 3.102-1.389 3.102-3.102-1.388-3.103-3.102-3.103z"/><path d="m206.803 433.598c-1.713 0-3.102 1.389-3.102 3.103s1.389 3.102 3.102 3.102 3.102-1.389 3.102-3.102-1.389-3.103-3.102-3.103z"/><path d="m217.179 443.222c-1.713 0-3.102 1.389-3.102 3.103s1.389 3.102 3.102 3.102 3.102-1.389 3.102-3.102-1.388-3.103-3.102-3.103z"/><path d="m186.803 413.598c-1.713 0-3.102 1.389-3.102 3.103s1.389 3.102 3.102 3.102 3.102-1.389 3.102-3.102-1.389-3.103-3.102-3.103z"/><path d="m197.179 423.222c-1.713 0-3.102 1.389-3.102 3.103s1.389 3.102 3.102 3.102 3.102-1.389 3.102-3.102-1.388-3.103-3.102-3.103z"/><path d="m186.803 433.598c-1.713 0-3.102 1.389-3.102 3.103s1.389 3.102 3.102 3.102 3.102-1.389 3.102-3.102-1.389-3.103-3.102-3.103z"/><path d="m197.179 443.222c-1.713 0-3.102 1.389-3.102 3.103s1.389 3.102 3.102 3.102 3.102-1.389 3.102-3.102-1.388-3.103-3.102-3.103z"/><path d="m166.803 413.598c-1.713 0-3.102 1.389-3.102 3.103s1.389 3.102 3.102 3.102 3.102-1.389 3.102-3.102-1.389-3.103-3.102-3.103z"/><path d="m177.179 423.222c-1.713 0-3.102 1.389-3.102 3.103s1.389 3.102 3.102 3.102 3.102-1.389 3.102-3.102-1.388-3.103-3.102-3.103z"/><path d="m166.803 433.598c-1.713 0-3.102 1.389-3.102 3.103s1.389 3.102 3.102 3.102 3.102-1.389 3.102-3.102-1.389-3.103-3.102-3.103z"/><path d="m177.179 443.222c-1.713 0-3.102 1.389-3.102 3.103s1.389 3.102 3.102 3.102 3.102-1.389 3.102-3.102-1.388-3.103-3.102-3.103z"/><path d="m146.803 413.598c-1.713 0-3.102 1.389-3.102 3.103s1.389 3.102 3.102 3.102 3.102-1.389 3.102-3.102-1.389-3.103-3.102-3.103z"/><path d="m157.179 423.222c-1.713 0-3.102 1.389-3.102 3.103s1.389 3.102 3.102 3.102 3.102-1.389 3.102-3.102-1.388-3.103-3.102-3.103z"/><path d="m146.803 433.598c-1.713 0-3.102 1.389-3.102 3.103s1.389 3.102 3.102 3.102 3.102-1.389 3.102-3.102-1.389-3.103-3.102-3.103z"/><path d="m157.179 443.222c-1.713 0-3.102 1.389-3.102 3.103s1.389 3.102 3.102 3.102 3.102-1.389 3.102-3.102-1.388-3.103-3.102-3.103z"/><path d="m126.803 413.598c-1.713 0-3.102 1.389-3.102 3.103s1.389 3.102 3.102 3.102 3.102-1.389 3.102-3.102-1.389-3.103-3.102-3.103z"/><path d="m137.179 423.222c-1.713 0-3.102 1.389-3.102 3.103s1.389 3.102 3.102 3.102 3.102-1.389 3.102-3.102-1.388-3.103-3.102-3.103z"/><path d="m126.803 433.598c-1.713 0-3.102 1.389-3.102 3.103s1.389 3.102 3.102 3.102 3.102-1.389 3.102-3.102-1.389-3.103-3.102-3.103z"/><path d="m137.179 443.222c-1.713 0-3.102 1.389-3.102 3.103s1.389 3.102 3.102 3.102 3.102-1.389 3.102-3.102-1.388-3.103-3.102-3.103z"/><path d="m106.803 413.598c-1.713 0-3.102 1.389-3.102 3.103s1.389 3.102 3.102 3.102 3.102-1.389 3.102-3.102-1.389-3.103-3.102-3.103z"/><path d="m117.179 423.222c-1.713 0-3.102 1.389-3.102 3.103s1.389 3.102 3.102 3.102 3.102-1.389 3.102-3.102-1.388-3.103-3.102-3.103z"/><path d="m106.803 433.598c-1.713 0-3.102 1.389-3.102 3.103s1.389 3.102 3.102 3.102 3.102-1.389 3.102-3.102-1.389-3.103-3.102-3.103z"/><path d="m117.179 443.222c-1.713 0-3.102 1.389-3.102 3.103s1.389 3.102 3.102 3.102 3.102-1.389 3.102-3.102-1.388-3.103-3.102-3.103z"/><path d="m86.803 413.598c-1.713 0-3.102 1.389-3.102 3.103s1.389 3.102 3.102 3.102 3.102-1.389 3.102-3.102-1.389-3.103-3.102-3.103z"/><path d="m97.179 423.222c-1.713 0-3.102 1.389-3.102 3.103s1.389 3.102 3.102 3.102 3.102-1.389 3.102-3.102-1.388-3.103-3.102-3.103z"/><path d="m86.803 433.598c-1.713 0-3.102 1.389-3.102 3.103s1.389 3.102 3.102 3.102 3.102-1.389 3.102-3.102-1.389-3.103-3.102-3.103z"/><path d="m97.179 443.222c-1.713 0-3.102 1.389-3.102 3.103s1.389 3.102 3.102 3.102 3.102-1.389 3.102-3.102-1.388-3.103-3.102-3.103z"/><path d="m63.7 416.701c0 1.713 1.389 3.102 3.102 3.102s3.102-1.389 3.102-3.102-1.389-3.103-3.102-3.103-3.102 1.389-3.102 3.103z"/><path d="m77.179 423.222c-1.713 0-3.102 1.389-3.102 3.103s1.389 3.102 3.102 3.102 3.102-1.389 3.102-3.102-1.388-3.103-3.102-3.103z"/><path d="m66.803 439.803c1.713 0 3.102-1.389 3.102-3.102s-1.389-3.103-3.102-3.103-3.102 1.389-3.102 3.103 1.388 3.102 3.102 3.102z"/><path d="m77.179 443.222c-1.713 0-3.102 1.389-3.102 3.103s1.389 3.102 3.102 3.102 3.102-1.389 3.102-3.102-1.388-3.103-3.102-3.103z"/></g><g fill="#31373d"><path d="m478.864 170.819v-45.536c0-59.238-48.193-107.432-107.432-107.432h-72.57c-43.412 0-80.871 25.893-97.799 63.037-6.813-1.36-13.855-2.079-21.062-2.079h-72.569c-59.238 0-107.432 48.194-107.432 107.432v125.161c0 40.726 22.779 76.231 56.264 94.446v41.532c0 25.706 20.914 46.62 46.621 46.62h81.663c25.707 0 46.621-20.914 46.621-46.62v-29.06c8.607-.619 16.829-2.653 24.559-5.829 8.388 12.38 22.54 20.549 38.587 20.549h81.664c25.706 0 46.619-20.914 46.619-46.62v-29.058c51.454-3.701 89.252-57.747 89.252-106.254v-44.545c0-18.807-14.552-34.269-32.986-35.744zm-468.514 15.422c0-53.531 43.55-97.081 97.082-97.081h72.569c53.531 0 97.082 43.551 97.082 97.081v45.396l-19.677-.034h-52.074c-22.224 0-42.302 14.01-49.965 34.862-.37 1.006-.697 2.025-1.004 3.048h-73.607c-38.804 0-70.373-31.569-70.373-70.373h-.033zm210.469 261.139c0 20-16.271 36.27-36.271 36.27h-81.663c-20 0-36.271-16.27-36.271-36.27v-36.608c12.592 5.191 26.374 8.063 40.817 8.063h111.661c.578 0 1.151-.021 1.726-.038v28.583zm4.736-39.201c-.394 0-.775.053-1.144.136v-.093c-1.753.161-3.524.262-5.319.262h-111.66c-53.531 0-97.082-43.551-97.082-97.082v-72.842c13.841 24.623 40.205 41.305 70.406 41.305h71.593c-.151 1.641-.232 3.293-.232 4.956 0 29.344 23.873 53.217 53.216 53.217h19.931c2.858 0 5.175-2.317 5.175-5.175s-2.317-5.175-5.175-5.175h-19.931c-23.636 0-42.866-19.23-42.866-42.867 0-5.085.881-10.06 2.617-14.785 6.172-16.796 22.346-28.082 40.249-28.082h52.065l27.15.046c14.073 0 25.522 11.449 25.522 25.522v44.545c0 45.369-36.143 96.112-84.515 96.112zm186.694-21.758c0 19.999-16.27 36.27-36.269 36.27h-81.664c-11.948 0-22.557-5.814-29.168-14.756 19.528-10.94 35.171-29.312 44.763-50.107l102.338-.449zm89.251-135.312c0 43.708-33.547 92.395-79.253 95.902-.086-.004-.167-.025-.254-.025h-.023l-107.853.473c4.084-11.594 6.303-23.655 6.303-35.392v-44.545c0-18.81-14.556-34.274-32.987-35.746v-45.534c0-48.366-32.128-89.363-76.162-102.786 15.654-32.65 49.029-55.255 87.591-55.255h72.57c53.531 0 97.082 43.551 97.082 97.082v120.628c0 2.858 2.317 5.175 5.175 5.175s5.175-2.317 5.175-5.175v-64.702c12.718 1.439 22.636 12.258 22.636 25.354z"/><path d="m31.044 188.748c-2.209 0-4-1.791-4-4 0-41.926 34.109-76.036 76.036-76.036h12.577c2.209 0 4 1.791 4 4s-1.791 4-4 4h-12.577c-37.516 0-68.036 30.521-68.036 68.036 0 2.209-1.791 4-4 4z"/></g></g></svg>