<svg id="Capa_1" enable-background="new 0 0 512 512" height="512" viewBox="0 0 512 512" width="512" xmlns="http://www.w3.org/2000/svg"><g><path d="m181.603 139.554-104.954-104.954 1.688-1.688c2.306-2.306 2.306-6.044 0-8.35l-18.839-18.838c-2.306-2.306-6.044-2.306-8.35 0l-36.14 36.141c-2.306 2.306-2.306 6.043 0 8.35l18.839 18.839c2.306 2.306 6.044 2.306 8.35 0l1.554-1.554 104.954 104.954z" fill="#e9c278"/><path d="m116.204 175.046 67.992-67.992c12.608-12.608 33.05-12.608 45.658 0l254.122 254.122c19.654 19.654 19.654 51.519 0 71.173l-42.477 42.477c-19.654 19.654-51.519 19.654-71.173 0l-254.122-254.122c-12.608-12.608-12.608-33.05 0-45.658z" fill="#f9fbfc"/><g fill="#eaa895"><path d="m339.863 393.879c-1.721 0-3.115 1.395-3.115 3.115s1.395 3.115 3.115 3.115 3.115-1.395 3.115-3.115-1.395-3.115-3.115-3.115z"/><path d="m350.282 403.542c-1.721 0-3.115 1.395-3.115 3.115 0 1.721 1.395 3.115 3.115 3.115s3.115-1.395 3.115-3.115c.001-1.72-1.394-3.115-3.115-3.115z"/><path d="m339.863 413.962c-1.721 0-3.115 1.395-3.115 3.115 0 1.721 1.395 3.115 3.115 3.115s3.115-1.395 3.115-3.115-1.395-3.115-3.115-3.115z"/><path d="m350.282 423.626c-1.721 0-3.115 1.395-3.115 3.115 0 1.721 1.395 3.115 3.115 3.115s3.115-1.395 3.115-3.115c.001-1.72-1.394-3.115-3.115-3.115z"/><path d="m339.863 434.046c-1.721 0-3.115 1.395-3.115 3.115 0 1.721 1.395 3.115 3.115 3.115s3.115-1.395 3.115-3.115-1.395-3.115-3.115-3.115z"/><path d="m350.282 443.71c-1.721 0-3.115 1.395-3.115 3.115s1.395 3.115 3.115 3.115 3.115-1.395 3.115-3.115c.001-1.721-1.394-3.115-3.115-3.115z"/><path d="m319.779 373.795c-1.72 0-3.115 1.395-3.115 3.115s1.395 3.115 3.115 3.115 3.115-1.395 3.115-3.115-1.395-3.115-3.115-3.115z"/><path d="m330.199 383.459c-1.72 0-3.115 1.395-3.115 3.115s1.395 3.115 3.115 3.115 3.115-1.395 3.115-3.115-1.395-3.115-3.115-3.115z"/><path d="m319.779 393.879c-1.72 0-3.115 1.395-3.115 3.115s1.395 3.115 3.115 3.115 3.115-1.395 3.115-3.115-1.395-3.115-3.115-3.115z"/><path d="m330.199 403.542c-1.72 0-3.115 1.395-3.115 3.115 0 1.721 1.395 3.115 3.115 3.115s3.115-1.395 3.115-3.115-1.395-3.115-3.115-3.115z"/><path d="m319.779 413.962c-1.72 0-3.115 1.395-3.115 3.115 0 1.721 1.395 3.115 3.115 3.115s3.115-1.395 3.115-3.115-1.395-3.115-3.115-3.115z"/><path d="m330.199 423.626c-1.72 0-3.115 1.395-3.115 3.115 0 1.721 1.395 3.115 3.115 3.115s3.115-1.395 3.115-3.115-1.395-3.115-3.115-3.115z"/><path d="m299.695 353.712c-1.72 0-3.115 1.395-3.115 3.115s1.395 3.115 3.115 3.115 3.115-1.395 3.115-3.115c.001-1.721-1.394-3.115-3.115-3.115z"/><path d="m310.115 363.375c-1.72 0-3.115 1.395-3.115 3.115s1.395 3.115 3.115 3.115 3.115-1.395 3.115-3.115c.001-1.72-1.394-3.115-3.115-3.115z"/><path d="m299.695 373.795c-1.72 0-3.115 1.395-3.115 3.115s1.395 3.115 3.115 3.115 3.115-1.395 3.115-3.115c.001-1.72-1.394-3.115-3.115-3.115z"/><path d="m310.115 383.459c-1.72 0-3.115 1.395-3.115 3.115s1.395 3.115 3.115 3.115 3.115-1.395 3.115-3.115-1.394-3.115-3.115-3.115z"/><path d="m299.695 393.879c-1.72 0-3.115 1.395-3.115 3.115s1.395 3.115 3.115 3.115 3.115-1.395 3.115-3.115-1.394-3.115-3.115-3.115z"/><path d="m310.115 403.542c-1.72 0-3.115 1.395-3.115 3.115 0 1.721 1.395 3.115 3.115 3.115s3.115-1.395 3.115-3.115c.001-1.72-1.394-3.115-3.115-3.115z"/><path d="m279.612 333.628c-1.72 0-3.115 1.395-3.115 3.115 0 1.721 1.395 3.115 3.115 3.115 1.721 0 3.115-1.395 3.115-3.115s-1.395-3.115-3.115-3.115z"/><path d="m290.032 343.292c-1.721 0-3.115 1.395-3.115 3.115s1.395 3.115 3.115 3.115 3.115-1.395 3.115-3.115c0-1.721-1.395-3.115-3.115-3.115z"/><path d="m279.612 353.712c-1.72 0-3.115 1.395-3.115 3.115s1.395 3.115 3.115 3.115c1.721 0 3.115-1.395 3.115-3.115 0-1.721-1.395-3.115-3.115-3.115z"/><circle cx="290.032" cy="366.49" r="3.115"/><path d="m279.612 373.795c-1.72 0-3.115 1.395-3.115 3.115s1.395 3.115 3.115 3.115c1.721 0 3.115-1.395 3.115-3.115s-1.395-3.115-3.115-3.115z"/><circle cx="290.032" cy="386.574" r="3.115"/><path d="m259.528 313.544c-1.72 0-3.115 1.395-3.115 3.115 0 1.721 1.395 3.115 3.115 3.115s3.115-1.395 3.115-3.115-1.394-3.115-3.115-3.115z"/><path d="m269.948 323.208c-1.72 0-3.115 1.395-3.115 3.115 0 1.721 1.395 3.115 3.115 3.115s3.115-1.395 3.115-3.115-1.395-3.115-3.115-3.115z"/><path d="m259.528 333.628c-1.72 0-3.115 1.395-3.115 3.115 0 1.721 1.395 3.115 3.115 3.115s3.115-1.395 3.115-3.115-1.394-3.115-3.115-3.115z"/><path d="m269.948 343.292c-1.72 0-3.115 1.395-3.115 3.115s1.395 3.115 3.115 3.115 3.115-1.395 3.115-3.115c0-1.721-1.395-3.115-3.115-3.115z"/><path d="m259.528 353.712c-1.72 0-3.115 1.395-3.115 3.115s1.395 3.115 3.115 3.115 3.115-1.395 3.115-3.115c0-1.721-1.394-3.115-3.115-3.115z"/><path d="m269.948 363.375c-1.72 0-3.115 1.395-3.115 3.115s1.395 3.115 3.115 3.115 3.115-1.395 3.115-3.115-1.395-3.115-3.115-3.115z"/><path d="m239.445 293.461c-1.721 0-3.115 1.395-3.115 3.115s1.395 3.115 3.115 3.115 3.115-1.395 3.115-3.115-1.395-3.115-3.115-3.115z"/><path d="m249.864 303.124c-1.72 0-3.115 1.395-3.115 3.115 0 1.721 1.395 3.115 3.115 3.115 1.721 0 3.115-1.395 3.115-3.115.001-1.72-1.394-3.115-3.115-3.115z"/><path d="m239.445 313.544c-1.721 0-3.115 1.395-3.115 3.115 0 1.721 1.395 3.115 3.115 3.115s3.115-1.395 3.115-3.115-1.395-3.115-3.115-3.115z"/><path d="m249.864 323.208c-1.72 0-3.115 1.395-3.115 3.115 0 1.721 1.395 3.115 3.115 3.115 1.721 0 3.115-1.395 3.115-3.115.001-1.72-1.394-3.115-3.115-3.115z"/><path d="m239.445 333.628c-1.721 0-3.115 1.395-3.115 3.115 0 1.721 1.395 3.115 3.115 3.115s3.115-1.395 3.115-3.115-1.395-3.115-3.115-3.115z"/><path d="m249.864 343.292c-1.72 0-3.115 1.395-3.115 3.115s1.395 3.115 3.115 3.115c1.721 0 3.115-1.395 3.115-3.115.001-1.721-1.394-3.115-3.115-3.115z"/><path d="m219.361 273.377c-1.721 0-3.115 1.395-3.115 3.115s1.395 3.115 3.115 3.115 3.115-1.395 3.115-3.115-1.395-3.115-3.115-3.115z"/><path d="m229.781 283.041c-1.72 0-3.115 1.395-3.115 3.115s1.395 3.115 3.115 3.115c1.721 0 3.115-1.395 3.115-3.115s-1.395-3.115-3.115-3.115z"/><path d="m219.361 293.461c-1.721 0-3.115 1.395-3.115 3.115s1.395 3.115 3.115 3.115 3.115-1.395 3.115-3.115-1.395-3.115-3.115-3.115z"/><path d="m229.781 303.124c-1.72 0-3.115 1.395-3.115 3.115 0 1.721 1.395 3.115 3.115 3.115 1.721 0 3.115-1.395 3.115-3.115s-1.395-3.115-3.115-3.115z"/><path d="m219.361 313.544c-1.721 0-3.115 1.395-3.115 3.115 0 1.721 1.395 3.115 3.115 3.115s3.115-1.395 3.115-3.115-1.395-3.115-3.115-3.115z"/><path d="m229.781 323.208c-1.72 0-3.115 1.395-3.115 3.115 0 1.721 1.395 3.115 3.115 3.115 1.721 0 3.115-1.395 3.115-3.115s-1.395-3.115-3.115-3.115z"/><path d="m199.277 253.294c-1.721 0-3.115 1.395-3.115 3.115s1.395 3.115 3.115 3.115 3.115-1.395 3.115-3.115c.001-1.721-1.394-3.115-3.115-3.115z"/><path d="m209.697 262.957c-1.72 0-3.115 1.395-3.115 3.115s1.395 3.115 3.115 3.115c1.721 0 3.115-1.395 3.115-3.115.001-1.72-1.394-3.115-3.115-3.115z"/><path d="m199.277 273.377c-1.721 0-3.115 1.395-3.115 3.115s1.395 3.115 3.115 3.115 3.115-1.395 3.115-3.115c.001-1.72-1.394-3.115-3.115-3.115z"/><path d="m209.697 283.041c-1.72 0-3.115 1.395-3.115 3.115s1.395 3.115 3.115 3.115c1.721 0 3.115-1.395 3.115-3.115s-1.394-3.115-3.115-3.115z"/><path d="m199.277 293.461c-1.721 0-3.115 1.395-3.115 3.115s1.395 3.115 3.115 3.115 3.115-1.395 3.115-3.115-1.394-3.115-3.115-3.115z"/><path d="m209.697 303.124c-1.72 0-3.115 1.395-3.115 3.115 0 1.721 1.395 3.115 3.115 3.115 1.721 0 3.115-1.395 3.115-3.115.001-1.72-1.394-3.115-3.115-3.115z"/><ellipse cx="179.194" cy="236.325" rx="3.115" ry="3.115" transform="matrix(.987 -.16 .16 .987 -35.401 31.608)"/><path d="m189.614 242.874c-1.721 0-3.115 1.395-3.115 3.115s1.395 3.115 3.115 3.115 3.115-1.395 3.115-3.115c0-1.721-1.395-3.115-3.115-3.115z"/><path d="m179.194 253.294c-1.72 0-3.115 1.395-3.115 3.115s1.395 3.115 3.115 3.115c1.721 0 3.115-1.395 3.115-3.115 0-1.721-1.395-3.115-3.115-3.115z"/><path d="m189.614 262.957c-1.721 0-3.115 1.395-3.115 3.115s1.395 3.115 3.115 3.115 3.115-1.395 3.115-3.115-1.395-3.115-3.115-3.115z"/><path d="m179.194 273.377c-1.72 0-3.115 1.395-3.115 3.115s1.395 3.115 3.115 3.115c1.721 0 3.115-1.395 3.115-3.115s-1.395-3.115-3.115-3.115z"/><path d="m189.614 283.041c-1.721 0-3.115 1.395-3.115 3.115s1.395 3.115 3.115 3.115 3.115-1.395 3.115-3.115-1.395-3.115-3.115-3.115z"/><circle cx="159.11" cy="216.241" r="3.115"/><path d="m169.53 222.79c-1.72 0-3.115 1.395-3.115 3.115 0 1.721 1.395 3.115 3.115 3.115 1.721 0 3.115-1.395 3.115-3.115s-1.394-3.115-3.115-3.115z"/><circle cx="159.11" cy="236.325" r="3.115"/><path d="m169.53 242.874c-1.72 0-3.115 1.395-3.115 3.115s1.395 3.115 3.115 3.115c1.721 0 3.115-1.395 3.115-3.115 0-1.721-1.394-3.115-3.115-3.115z"/><path d="m159.11 253.294c-1.72 0-3.115 1.395-3.115 3.115s1.395 3.115 3.115 3.115c1.721 0 3.115-1.395 3.115-3.115 0-1.721-1.394-3.115-3.115-3.115z"/><path d="m169.53 262.957c-1.72 0-3.115 1.395-3.115 3.115s1.395 3.115 3.115 3.115c1.721 0 3.115-1.395 3.115-3.115s-1.394-3.115-3.115-3.115z"/><path d="m139.027 193.043c-1.721 0-3.115 1.395-3.115 3.115s1.395 3.115 3.115 3.115 3.115-1.395 3.115-3.115c0-1.721-1.395-3.115-3.115-3.115z"/><path d="m149.446 202.706c-1.721 0-3.115 1.395-3.115 3.115 0 1.721 1.395 3.115 3.115 3.115s3.115-1.395 3.115-3.115c.001-1.72-1.394-3.115-3.115-3.115z"/><path d="m139.027 213.126c-1.721 0-3.115 1.395-3.115 3.115 0 1.721 1.395 3.115 3.115 3.115s3.115-1.394 3.115-3.115c0-1.72-1.395-3.115-3.115-3.115z"/><path d="m149.446 222.79c-1.721 0-3.115 1.395-3.115 3.115 0 1.721 1.395 3.115 3.115 3.115s3.115-1.395 3.115-3.115c.001-1.72-1.394-3.115-3.115-3.115z"/><path d="m139.027 233.21c-1.721 0-3.115 1.395-3.115 3.115 0 1.721 1.395 3.115 3.115 3.115s3.115-1.395 3.115-3.115-1.395-3.115-3.115-3.115z"/><path d="m149.446 242.874c-1.721 0-3.115 1.395-3.115 3.115s1.395 3.115 3.115 3.115 3.115-1.395 3.115-3.115c.001-1.721-1.394-3.115-3.115-3.115z"/><path d="m118.943 179.19c1.721 0 3.115-1.395 3.115-3.115 0-1.721-1.395-3.115-3.115-3.115-.262 0-.512.042-.755.103l-1.889 1.889c-.13.13-.25.266-.377.397-.056.234-.094.476-.094.727 0 1.719 1.394 3.114 3.115 3.114z"/><path d="m129.363 182.623c-1.72 0-3.115 1.395-3.115 3.115s1.395 3.115 3.115 3.115 3.115-1.395 3.115-3.115-1.395-3.115-3.115-3.115z"/><path d="m118.943 193.043c-1.72 0-3.115 1.395-3.115 3.115s1.395 3.115 3.115 3.115c1.721 0 3.115-1.395 3.115-3.115 0-1.721-1.395-3.115-3.115-3.115z"/><path d="m129.363 202.706c-1.72 0-3.115 1.395-3.115 3.115 0 1.721 1.395 3.115 3.115 3.115s3.115-1.395 3.115-3.115-1.395-3.115-3.115-3.115z"/><path d="m118.943 213.126c-1.72 0-3.115 1.395-3.115 3.115 0 1.721 1.395 3.115 3.115 3.115 1.721 0 3.115-1.394 3.115-3.115 0-1.72-1.395-3.115-3.115-3.115z"/><path d="m129.363 222.79c-1.72 0-3.115 1.395-3.115 3.115 0 1.721 1.395 3.115 3.115 3.115s3.115-1.395 3.115-3.115-1.395-3.115-3.115-3.115z"/><path d="m112.395 205.821c0-1.72-1.395-3.115-3.115-3.115-.76 0-1.447.283-1.988.735.32 1.843.796 3.664 1.436 5.439.18.032.363.056.552.056 1.72.001 3.115-1.394 3.115-3.115z"/></g><path d="m483.827 361.027-18.872-17.48-110.745 1.134v114.03l15.966 15.966c19.736 19.736 51.734 19.736 71.47 0l42.18-42.18c19.737-19.735 19.737-51.734.001-71.47z" fill="#e9c278"/><g fill="#f9fbfc"><path d="m483.555 376.986-3.031 3.031c1.658-.04 2.991-1.372 3.031-3.031z"/><path d="m490.868 383.459c-1.721 0-3.115 1.395-3.115 3.115s1.395 3.115 3.115 3.115 3.115-1.395 3.115-3.115-1.395-3.115-3.115-3.115z"/><path d="m480.448 393.879c-1.721 0-3.115 1.395-3.115 3.115s1.395 3.115 3.115 3.115 3.115-1.395 3.115-3.115-1.395-3.115-3.115-3.115z"/><path d="m490.868 403.542c-1.721 0-3.115 1.395-3.115 3.115 0 1.721 1.395 3.115 3.115 3.115s3.115-1.395 3.115-3.115-1.395-3.115-3.115-3.115z"/><path d="m480.448 420.193c1.72 0 3.115-1.395 3.115-3.115s-1.395-3.115-3.115-3.115c-1.721 0-3.115 1.395-3.115 3.115s1.394 3.115 3.115 3.115z"/><path d="m473.892 386.65-3.031 3.031c1.658-.04 2.99-1.372 3.031-3.031z"/><path d="m463.472 397.07-3.031 3.031c1.658-.04 2.99-1.373 3.031-3.031z"/><circle cx="470.784" cy="406.657" r="3.115"/><path d="m460.364 413.962c-1.72 0-3.115 1.395-3.115 3.115 0 1.721 1.395 3.115 3.115 3.115s3.115-1.395 3.115-3.115-1.394-3.115-3.115-3.115z"/><circle cx="470.784" cy="426.741" r="3.115"/><path d="m460.364 434.046c-1.72 0-3.115 1.395-3.115 3.115 0 1.721 1.395 3.115 3.115 3.115s3.115-1.395 3.115-3.115-1.394-3.115-3.115-3.115z"/><path d="m453.808 406.734-3.031 3.031c1.658-.041 2.99-1.373 3.031-3.031z"/><path d="m443.388 417.154-1.74 1.74c-.447.447-.907.872-1.366 1.298 1.694 0 3.065-1.354 3.106-3.038z"/><path d="m450.701 423.626c-1.72 0-3.115 1.395-3.115 3.115 0 1.721 1.395 3.115 3.115 3.115s3.115-1.395 3.115-3.115-1.395-3.115-3.115-3.115z"/><path d="m440.281 434.046c-1.721 0-3.115 1.395-3.115 3.115 0 1.721 1.395 3.115 3.115 3.115s3.115-1.395 3.115-3.115-1.395-3.115-3.115-3.115z"/><path d="m450.701 443.71c-1.72 0-3.115 1.395-3.115 3.115s1.395 3.115 3.115 3.115 3.115-1.395 3.115-3.115c0-1.721-1.395-3.115-3.115-3.115z"/><path d="m440.281 454.13c-1.721 0-3.115 1.395-3.115 3.115s1.395 3.115 3.115 3.115 3.115-1.395 3.115-3.115c0-1.721-1.395-3.115-3.115-3.115z"/><path d="m430.617 429.856c1.72 0 3.115-1.395 3.115-3.115 0-.434-.09-.847-.25-1.222-1.742 1.136-3.542 2.146-5.382 3.045.567.78 1.479 1.292 2.517 1.292z"/><path d="m420.197 434.046c-1.721 0-3.115 1.395-3.115 3.115 0 1.721 1.395 3.115 3.115 3.115s3.115-1.395 3.115-3.115-1.395-3.115-3.115-3.115z"/><path d="m430.617 443.71c-1.72 0-3.115 1.395-3.115 3.115s1.395 3.115 3.115 3.115 3.115-1.395 3.115-3.115c0-1.721-1.395-3.115-3.115-3.115z"/><path d="m420.197 454.13c-1.721 0-3.115 1.395-3.115 3.115s1.395 3.115 3.115 3.115 3.115-1.395 3.115-3.115c0-1.721-1.395-3.115-3.115-3.115z"/><path d="m430.617 463.793c-1.72 0-3.115 1.395-3.115 3.115s1.395 3.115 3.115 3.115 3.115-1.395 3.115-3.115-1.395-3.115-3.115-3.115z"/><path d="m420.197 474.213c-1.721 0-3.115 1.395-3.115 3.115s1.395 3.115 3.115 3.115 3.115-1.395 3.115-3.115-1.395-3.115-3.115-3.115z"/><path d="m400.113 434.046c-1.72 0-3.115 1.395-3.115 3.115 0 1.721 1.395 3.115 3.115 3.115s3.115-1.395 3.115-3.115c.001-1.72-1.394-3.115-3.115-3.115z"/><path d="m410.533 443.71c-1.72 0-3.115 1.395-3.115 3.115s1.395 3.115 3.115 3.115 3.115-1.395 3.115-3.115c.001-1.721-1.394-3.115-3.115-3.115z"/><path d="m400.113 460.36c1.72 0 3.115-1.395 3.115-3.115 0-1.721-1.395-3.115-3.115-3.115s-3.115 1.395-3.115 3.115 1.395 3.115 3.115 3.115z"/><path d="m410.533 463.793c-1.72 0-3.115 1.395-3.115 3.115s1.395 3.115 3.115 3.115 3.115-1.395 3.115-3.115c.001-1.72-1.394-3.115-3.115-3.115z"/><path d="m400.113 480.443c1.72 0 3.115-1.395 3.115-3.115 0-1.721-1.395-3.115-3.115-3.115s-3.115 1.395-3.115 3.115 1.395 3.115 3.115 3.115z"/><path d="m413.649 486.992c0-1.721-1.395-3.115-3.115-3.115s-3.115 1.395-3.115 3.115c0 .978.461 1.841 1.166 2.412 1.444-.076 2.885-.214 4.32-.413.457-.543.744-1.234.744-1.999z"/><path d="m380.03 440.276c1.721 0 3.115-1.395 3.115-3.115s-1.395-3.115-3.115-3.115-3.115 1.395-3.115 3.115 1.394 3.115 3.115 3.115z"/><circle cx="390.45" cy="446.825" r="3.115"/><circle cx="380.03" cy="457.245" r="3.115"/><path d="m390.45 470.024c1.72 0 3.115-1.395 3.115-3.115 0-1.721-1.395-3.115-3.115-3.115-1.721 0-3.115 1.395-3.115 3.115-.001 1.72 1.394 3.115 3.115 3.115z"/><circle cx="380.03" cy="477.328" r="3.115"/><path d="m359.946 413.962c-1.72 0-3.115 1.395-3.115 3.115 0 1.721 1.395 3.115 3.115 3.115s3.115-1.395 3.115-3.115-1.394-3.115-3.115-3.115z"/><path d="m370.366 423.626c-1.72 0-3.115 1.395-3.115 3.115 0 1.721 1.395 3.115 3.115 3.115 1.721 0 3.115-1.395 3.115-3.115s-1.394-3.115-3.115-3.115z"/><path d="m359.946 434.046c-1.72 0-3.115 1.395-3.115 3.115 0 1.721 1.395 3.115 3.115 3.115s3.115-1.395 3.115-3.115-1.394-3.115-3.115-3.115z"/><path d="m370.366 443.71c-1.72 0-3.115 1.395-3.115 3.115s1.395 3.115 3.115 3.115c1.721 0 3.115-1.395 3.115-3.115 0-1.721-1.394-3.115-3.115-3.115z"/><circle cx="359.946" cy="457.245" r="3.115"/><path d="m370.366 463.793c-1.72 0-3.115 1.395-3.115 3.115s1.395 3.115 3.115 3.115c1.721 0 3.115-1.395 3.115-3.115s-1.394-3.115-3.115-3.115z"/></g><path d="m486.805 358.348-254.122-254.122c-6.854-6.854-15.966-10.628-25.658-10.628s-18.804 3.775-25.658 10.628l-14.718 14.718-84.445-84.445c2.772-3.867 2.433-9.292-1.039-12.764l-18.838-18.839c-3.862-3.861-10.145-3.861-14.007 0l-36.141 36.14c-3.861 3.861-3.861 10.145 0 14.006l18.839 18.838c1.931 1.931 4.467 2.896 7.003 2.896 1.964 0 3.924-.586 5.607-1.744l84.465 84.466-14.718 14.719c-6.854 6.852-10.628 15.964-10.628 25.656s3.774 18.805 10.628 25.657l254.122 254.123c10.591 10.591 24.503 15.887 38.415 15.887s27.824-5.296 38.415-15.887l42.477-42.478c10.261-10.261 15.912-23.903 15.912-38.415.001-14.508-5.65-28.151-15.911-38.412zm-447.437-292.123c-.742.742-1.95.742-2.692 0l-18.839-18.839c-.743-.743-.743-1.95 0-2.693l36.14-36.141c.371-.371.858-.557 1.346-.557s.975.186 1.346.557l18.839 18.839c.743.744.743 1.95 0 2.694zm10.039 1.274 27.242-27.242 84.344 84.343-27.242 27.242zm61.341 130.375c0-7.555 2.942-14.657 8.284-20l29.279-29.279 152.409 152.408c.781.782 1.805 1.172 2.829 1.172s2.047-.39 2.829-1.172c1.562-1.561 1.562-4.095 0-5.656l-152.41-152.409 33.056-33.056c5.342-5.342 12.445-8.284 20-8.284s14.658 2.942 20.001 8.284l230.546 230.546h-101.61c-2.209 0-4 1.791-4 4v106.376l-232.929-232.929c-5.342-5.343-8.284-12.445-8.284-20.001zm370.4 231.647-42.477 42.478c-18.062 18.062-47.453 18.062-65.516 0l-13.194-13.194v-110.377h105.611l15.576 15.576c8.75 8.75 13.569 20.384 13.569 32.758s-4.819 24.009-13.569 32.759z" fill="#31373d"/><circle cx="106.547" cy="452.777" fill="#eaa895" r="55.223"/><g fill="#f9fbfc"><path d="m157.921 436.111c-1.713 0-3.102 1.389-3.102 3.102s1.389 3.103 3.102 3.103c1.072 0 2.016-.543 2.573-1.37-.332-1.523-.73-3.021-1.185-4.493-.419-.212-.886-.342-1.388-.342z"/><path d="m157.921 456.111c-1.713 0-3.102 1.389-3.102 3.102s1.389 3.103 3.102 3.103 3.102-1.389 3.102-3.103c0-1.713-1.389-3.102-3.102-3.102z"/><path d="m138.714 422.2c1.327-.353 2.309-1.55 2.309-2.987 0-1.713-1.389-3.102-3.102-3.102-.151 0-.295.023-.44.045.523 1.972.929 3.991 1.233 6.044z"/><path d="m148.297 425.735c-1.713 0-3.102 1.389-3.102 3.102s1.389 3.103 3.102 3.103 3.102-1.389 3.102-3.103-1.388-3.102-3.102-3.102z"/><path d="m141.023 439.213c0-1.329-.84-2.454-2.015-2.896-.219 2.032-.554 4.028-.987 5.988 1.666-.054 3.002-1.413 3.002-3.092z"/><path d="m148.297 445.735c-1.713 0-3.102 1.389-3.102 3.102s1.389 3.103 3.102 3.103 3.102-1.389 3.102-3.103-1.388-3.102-3.102-3.102z"/><path d="m137.921 456.111c-1.713 0-3.102 1.389-3.102 3.102s1.389 3.103 3.102 3.103 3.102-1.389 3.102-3.103c0-1.713-1.389-3.102-3.102-3.102z"/><path d="m148.297 465.735c-1.713 0-3.102 1.389-3.102 3.102s1.389 3.103 3.102 3.103 3.102-1.389 3.102-3.103-1.388-3.102-3.102-3.102z"/><path d="m137.921 476.111c-1.713 0-3.102 1.389-3.102 3.102s1.389 3.103 3.102 3.103 3.102-1.389 3.102-3.103c0-1.713-1.389-3.102-3.102-3.102z"/><path d="m125.195 468.837c0 1.713 1.389 3.103 3.102 3.103s3.102-1.389 3.102-3.103-1.389-3.102-3.102-3.102-3.102 1.388-3.102 3.102z"/><path d="m117.921 476.111c-1.713 0-3.102 1.389-3.102 3.102s1.389 3.103 3.102 3.103 3.102-1.389 3.102-3.103c0-1.713-1.389-3.102-3.102-3.102z"/><path d="m128.297 491.939c1.713 0 3.102-1.389 3.102-3.103s-1.389-3.102-3.102-3.102-3.102 1.389-3.102 3.102 1.389 3.103 3.102 3.103z"/><path d="m117.921 496.111c-1.713 0-3.102 1.389-3.102 3.102s1.389 3.103 3.102 3.103 3.102-1.389 3.102-3.103c0-1.713-1.389-3.102-3.102-3.102z"/><path d="m105.195 488.837c0 1.713 1.389 3.103 3.102 3.103s3.102-1.389 3.102-3.103-1.389-3.102-3.102-3.102-3.102 1.388-3.102 3.102z"/><path d="m94.818 499.213c0 1.713 1.389 3.103 3.102 3.103s3.102-1.389 3.102-3.103c0-1.713-1.389-3.102-3.102-3.102s-3.102 1.389-3.102 3.102z"/><path d="m88.297 491.939c1.713 0 3.102-1.389 3.102-3.103s-1.389-3.102-3.102-3.102-3.102 1.389-3.102 3.102 1.389 3.103 3.102 3.103z"/><path d="m68.297 491.939c1.713 0 3.102-1.389 3.102-3.103s-1.389-3.102-3.102-3.102-3.102 1.389-3.102 3.102c0 .207.022.409.061.605.727.817 1.48 1.61 2.254 2.383.253.068.513.115.787.115z"/></g><g fill="#31373d"><path d="m106.547 512c-32.655 0-59.223-26.567-59.223-59.223 0-32.655 26.567-59.223 59.223-59.223s59.223 26.567 59.223 59.223c0 32.655-26.568 59.223-59.223 59.223zm0-110.445c-28.244 0-51.223 22.979-51.223 51.223s22.978 51.223 51.223 51.223c28.244 0 51.223-22.979 51.223-51.223 0-28.245-22.979-51.223-51.223-51.223z"/><path d="m223.128 435.915h-34.361c-2.209 0-4-1.791-4-4s1.791-4 4-4h34.361c2.209 0 4 1.791 4 4s-1.791 4-4 4z"/><path d="m264.852 477.639h-76.085c-2.209 0-4-1.791-4-4s1.791-4 4-4h76.085c2.209 0 4 1.791 4 4s-1.791 4-4 4z"/></g></g></svg>