<svg id="Capa_1" enable-background="new 0 0 510.731 510.731" height="512" viewBox="0 0 510.731 510.731" width="512" xmlns="http://www.w3.org/2000/svg"><g><g><circle cx="255.368" cy="255.363" fill="#f9fbfc" r="251.417"/><g fill="#eaa895"><path d="m506.227 270.827c0 .149.023.292.044.435.026-.418.055-.836.08-1.255-.073.263-.124.534-.124.82z"/><path d="m499.705 243.552c1.387 0 2.548-.917 2.945-2.173h-5.89c.397 1.256 1.558 2.173 2.945 2.173z"/><path d="m489.329 247.724c-1.713 0-3.102 1.389-3.102 3.102s1.389 3.102 3.102 3.102 3.102-1.389 3.102-3.102-1.389-3.102-3.102-3.102z"/><path d="m499.705 257.348c-1.713 0-3.102 1.389-3.102 3.102 0 1.714 1.389 3.102 3.102 3.102s3.102-1.389 3.102-3.102c.001-1.713-1.388-3.102-3.102-3.102z"/><path d="m489.329 267.724c-1.713 0-3.102 1.389-3.102 3.102s1.389 3.102 3.102 3.102 3.102-1.389 3.102-3.102-1.389-3.102-3.102-3.102z"/><path d="m499.705 277.348c-1.713 0-3.102 1.389-3.102 3.102 0 1.714 1.389 3.102 3.102 3.102s3.102-1.389 3.102-3.102c.001-1.713-1.388-3.102-3.102-3.102z"/><path d="m489.329 287.724c-1.713 0-3.102 1.389-3.102 3.102s1.389 3.102 3.102 3.102 3.102-1.389 3.102-3.102-1.389-3.102-3.102-3.102z"/><path d="m499.705 297.348c-1.713 0-3.102 1.389-3.102 3.102 0 1.714 1.389 3.102 3.102 3.102 1.229 0 2.281-.72 2.784-1.757.097-.519.204-1.034.298-1.553-.109-1.614-1.439-2.894-3.082-2.894z"/><path d="m489.329 307.724c-1.713 0-3.102 1.389-3.102 3.102s1.389 3.102 3.102 3.102 3.102-1.389 3.102-3.102-1.389-3.102-3.102-3.102z"/><path d="m496.603 320.45c0 .916.404 1.73 1.035 2.298.491-1.77.969-3.545 1.422-5.331-1.403.297-2.457 1.541-2.457 3.033z"/><path d="m489.329 327.724c-1.713 0-3.102 1.389-3.102 3.102s1.389 3.102 3.102 3.102 3.102-1.389 3.102-3.102-1.389-3.102-3.102-3.102z"/><path d="m486.227 350.827c0 .848.342 1.615.893 2.175.737-1.747 1.455-3.504 2.154-5.271-1.688.029-3.047 1.401-3.047 3.096z"/><path d="m479.705 243.552c1.387 0 2.548-.917 2.945-2.173h-5.89c.397 1.256 1.558 2.173 2.945 2.173z"/><path d="m469.329 247.724c-1.713 0-3.102 1.389-3.102 3.102s1.389 3.102 3.102 3.102 3.102-1.389 3.102-3.102-1.389-3.102-3.102-3.102z"/><path d="m479.705 257.348c-1.713 0-3.102 1.389-3.102 3.102 0 1.714 1.389 3.102 3.102 3.102s3.102-1.389 3.102-3.102c.001-1.713-1.388-3.102-3.102-3.102z"/><path d="m469.329 267.724c-1.713 0-3.102 1.389-3.102 3.102s1.389 3.102 3.102 3.102 3.102-1.389 3.102-3.102-1.389-3.102-3.102-3.102z"/><path d="m479.705 277.348c-1.713 0-3.102 1.389-3.102 3.102 0 1.714 1.389 3.102 3.102 3.102s3.102-1.389 3.102-3.102c.001-1.713-1.388-3.102-3.102-3.102z"/><path d="m469.329 287.724c-1.713 0-3.102 1.389-3.102 3.102s1.389 3.102 3.102 3.102 3.102-1.389 3.102-3.102-1.389-3.102-3.102-3.102z"/><path d="m479.705 297.348c-1.713 0-3.102 1.389-3.102 3.102 0 1.714 1.389 3.102 3.102 3.102s3.102-1.389 3.102-3.102c.001-1.713-1.388-3.102-3.102-3.102z"/><path d="m469.329 307.724c-1.713 0-3.102 1.389-3.102 3.102s1.389 3.102 3.102 3.102 3.102-1.389 3.102-3.102-1.389-3.102-3.102-3.102z"/><path d="m479.705 317.348c-1.713 0-3.102 1.389-3.102 3.102 0 1.714 1.389 3.102 3.102 3.102s3.102-1.389 3.102-3.102c.001-1.713-1.388-3.102-3.102-3.102z"/><path d="m469.329 327.724c-1.713 0-3.102 1.389-3.102 3.102s1.389 3.102 3.102 3.102 3.102-1.389 3.102-3.102-1.389-3.102-3.102-3.102z"/><path d="m479.705 337.348c-1.713 0-3.102 1.389-3.102 3.102 0 1.714 1.389 3.102 3.102 3.102s3.102-1.389 3.102-3.102c.001-1.713-1.388-3.102-3.102-3.102z"/><path d="m469.329 347.724c-1.713 0-3.102 1.389-3.102 3.102s1.389 3.102 3.102 3.102 3.102-1.389 3.102-3.102-1.389-3.102-3.102-3.102z"/><path d="m479.705 357.348c-1.713 0-3.102 1.389-3.102 3.102 0 1.714 1.389 3.102 3.102 3.102s3.102-1.389 3.102-3.102c.001-1.713-1.388-3.102-3.102-3.102z"/><path d="m469.329 367.724c-1.713 0-3.102 1.389-3.102 3.102s1.389 3.102 3.102 3.102 3.102-1.389 3.102-3.102-1.389-3.102-3.102-3.102z"/><path d="m466.227 390.827c0 .407.083.793.226 1.149.908-1.4 1.798-2.812 2.678-4.231-1.619.103-2.904 1.436-2.904 3.082z"/><path d="m462.808 260.45c0-1.45-1-2.659-2.345-2.998-.441 2.02-.904 4.032-1.392 6.035.205.042.417.066.635.066 1.713-.001 3.102-1.389 3.102-3.103z"/><path d="m459.705 277.348c-1.713 0-3.102 1.389-3.102 3.102 0 1.714 1.389 3.102 3.102 3.102s3.102-1.389 3.102-3.102c.001-1.713-1.388-3.102-3.102-3.102z"/><path d="m452.431 290.827c0-.834-.333-1.586-.867-2.144-.617 1.746-1.252 3.484-1.905 5.212 1.556-.166 2.772-1.468 2.772-3.068z"/><path d="m459.705 297.348c-1.713 0-3.102 1.389-3.102 3.102 0 1.714 1.389 3.102 3.102 3.102s3.102-1.389 3.102-3.102c.001-1.713-1.388-3.102-3.102-3.102z"/><path d="m449.329 307.724c-1.713 0-3.102 1.389-3.102 3.102s1.389 3.102 3.102 3.102 3.102-1.389 3.102-3.102-1.389-3.102-3.102-3.102z"/><path d="m459.705 317.348c-1.713 0-3.102 1.389-3.102 3.102 0 1.714 1.389 3.102 3.102 3.102s3.102-1.389 3.102-3.102c.001-1.713-1.388-3.102-3.102-3.102z"/><path d="m449.329 327.724c-1.713 0-3.102 1.389-3.102 3.102s1.389 3.102 3.102 3.102 3.102-1.389 3.102-3.102-1.389-3.102-3.102-3.102z"/><path d="m459.705 337.348c-1.713 0-3.102 1.389-3.102 3.102 0 1.714 1.389 3.102 3.102 3.102s3.102-1.389 3.102-3.102c.001-1.713-1.388-3.102-3.102-3.102z"/><path d="m449.329 347.724c-1.713 0-3.102 1.389-3.102 3.102s1.389 3.102 3.102 3.102 3.102-1.389 3.102-3.102-1.389-3.102-3.102-3.102z"/><path d="m459.705 357.348c-1.713 0-3.102 1.389-3.102 3.102 0 1.714 1.389 3.102 3.102 3.102s3.102-1.389 3.102-3.102c.001-1.713-1.388-3.102-3.102-3.102z"/><path d="m449.329 367.724c-1.713 0-3.102 1.389-3.102 3.102s1.389 3.102 3.102 3.102 3.102-1.389 3.102-3.102-1.389-3.102-3.102-3.102z"/><path d="m459.705 377.348c-1.713 0-3.102 1.389-3.102 3.102 0 1.714 1.389 3.102 3.102 3.102s3.102-1.389 3.102-3.102c.001-1.713-1.388-3.102-3.102-3.102z"/><path d="m449.329 387.724c-1.713 0-3.102 1.389-3.102 3.102s1.389 3.102 3.102 3.102 3.102-1.389 3.102-3.102-1.389-3.102-3.102-3.102z"/><path d="m459.705 397.348c-1.713 0-3.102 1.389-3.102 3.102 0 1.33.841 2.455 2.017 2.896 1.173-1.608 2.327-3.231 3.463-4.868-.57-.685-1.417-1.13-2.378-1.13z"/><path d="m449.329 407.724c-1.713 0-3.102 1.389-3.102 3.102s1.389 3.102 3.102 3.102c.521 0 1.004-.14 1.435-.367.517-.638 1.034-1.275 1.544-1.918.072-.262.123-.533.123-.817 0-1.713-1.389-3.102-3.102-3.102z"/><path d="m439.705 323.552c1.713 0 3.102-1.389 3.102-3.102s-1.389-3.102-3.102-3.102c-.09 0-.175.019-.264.027-.777 1.57-1.571 3.131-2.378 4.683.546.892 1.52 1.494 2.642 1.494z"/><path d="m432.431 330.827c0-.071-.016-.138-.021-.209-.566.996-1.132 1.991-1.711 2.979 1.023-.508 1.732-1.552 1.732-2.77z"/><path d="m439.705 337.348c-1.713 0-3.102 1.389-3.102 3.102 0 1.714 1.389 3.102 3.102 3.102s3.102-1.389 3.102-3.102c.001-1.713-1.388-3.102-3.102-3.102z"/><path d="m429.329 347.724c-1.713 0-3.102 1.389-3.102 3.102s1.389 3.102 3.102 3.102 3.102-1.389 3.102-3.102-1.389-3.102-3.102-3.102z"/><path d="m439.705 357.348c-1.713 0-3.102 1.389-3.102 3.102 0 1.714 1.389 3.102 3.102 3.102s3.102-1.389 3.102-3.102c.001-1.713-1.388-3.102-3.102-3.102z"/><path d="m429.329 367.724c-1.713 0-3.102 1.389-3.102 3.102s1.389 3.102 3.102 3.102 3.102-1.389 3.102-3.102-1.389-3.102-3.102-3.102z"/><path d="m439.705 377.348c-1.713 0-3.102 1.389-3.102 3.102 0 1.714 1.389 3.102 3.102 3.102s3.102-1.389 3.102-3.102c.001-1.713-1.388-3.102-3.102-3.102z"/><path d="m429.329 387.724c-1.713 0-3.102 1.389-3.102 3.102s1.389 3.102 3.102 3.102 3.102-1.389 3.102-3.102-1.389-3.102-3.102-3.102z"/><path d="m439.705 397.348c-1.713 0-3.102 1.389-3.102 3.102 0 1.714 1.389 3.102 3.102 3.102s3.102-1.389 3.102-3.102c.001-1.713-1.388-3.102-3.102-3.102z"/><path d="m429.329 407.724c-1.713 0-3.102 1.389-3.102 3.102s1.389 3.102 3.102 3.102 3.102-1.389 3.102-3.102-1.389-3.102-3.102-3.102z"/><path d="m439.705 423.552c1.713 0 3.102-1.389 3.102-3.102s-1.389-3.102-3.102-3.102-3.102 1.389-3.102 3.102c0 1.714 1.389 3.102 3.102 3.102z"/><path d="m429.329 427.724c-1.713 0-3.102 1.389-3.102 3.102-.059 4.026 6.264 4.024 6.205 0-.001-1.713-1.39-3.102-3.103-3.102z"/><path d="m419.705 357.348c-1.713 0-3.102 1.389-3.102 3.102 0 1.714 1.389 3.102 3.102 3.102s3.102-1.389 3.102-3.102c.001-1.713-1.388-3.102-3.102-3.102z"/><path d="m409.329 367.724c-1.713 0-3.102 1.389-3.102 3.102s1.389 3.102 3.102 3.102 3.102-1.389 3.102-3.102-1.389-3.102-3.102-3.102z"/><path d="m419.705 377.348c-1.713 0-3.102 1.389-3.102 3.102 0 1.714 1.389 3.102 3.102 3.102s3.102-1.389 3.102-3.102c.001-1.713-1.388-3.102-3.102-3.102z"/><path d="m409.329 387.724c-1.713 0-3.102 1.389-3.102 3.102s1.389 3.102 3.102 3.102 3.102-1.389 3.102-3.102-1.389-3.102-3.102-3.102z"/><path d="m419.705 397.348c-1.713 0-3.102 1.389-3.102 3.102 0 1.714 1.389 3.102 3.102 3.102s3.102-1.389 3.102-3.102c.001-1.713-1.388-3.102-3.102-3.102z"/><path d="m409.329 407.724c-1.713 0-3.102 1.389-3.102 3.102s1.389 3.102 3.102 3.102 3.102-1.389 3.102-3.102-1.389-3.102-3.102-3.102z"/><path d="m419.705 417.348c-1.713 0-3.102 1.389-3.102 3.102 0 1.714 1.389 3.102 3.102 3.102s3.102-1.389 3.102-3.102c.001-1.713-1.388-3.102-3.102-3.102z"/><path d="m409.329 427.724c-1.713 0-3.102 1.389-3.102 3.102s1.389 3.102 3.102 3.102 3.102-1.389 3.102-3.102-1.389-3.102-3.102-3.102z"/><path d="m419.705 437.348c-1.713 0-3.102 1.389-3.102 3.102 0 1.714 1.389 3.102 3.102 3.102s3.102-1.389 3.102-3.102c.001-1.713-1.388-3.102-3.102-3.102z"/><path d="m409.329 447.724c-1.713 0-3.102 1.389-3.102 3.102s1.389 3.102 3.102 3.102c.1 0 .194-.02.292-.029.884-.688 1.76-1.385 2.634-2.084.106-.312.176-.641.176-.988 0-1.714-1.389-3.103-3.102-3.103z"/><path d="m399.705 383.552c1.713 0 3.102-1.389 3.102-3.102s-1.389-3.102-3.102-3.102c-.552 0-1.063.156-1.512.409-.446.489-.887.982-1.337 1.468-.162.376-.253.789-.253 1.225 0 1.714 1.389 3.102 3.102 3.102z"/><path d="m389.329 393.929c1.713 0 3.102-1.389 3.102-3.102s-1.389-3.102-3.102-3.102c-.279 0-.545.049-.802.118-.711.702-1.434 1.39-2.152 2.084-.088.287-.148.585-.148.9 0 1.713 1.389 3.102 3.102 3.102z"/><path d="m399.705 397.348c-1.713 0-3.102 1.389-3.102 3.102 0 1.714 1.389 3.102 3.102 3.102s3.102-1.389 3.102-3.102c.001-1.713-1.388-3.102-3.102-3.102z"/><path d="m389.329 407.724c-1.713 0-3.102 1.389-3.102 3.102s1.389 3.102 3.102 3.102 3.102-1.389 3.102-3.102-1.389-3.102-3.102-3.102z"/><path d="m399.705 417.348c-1.713 0-3.102 1.389-3.102 3.102 0 1.714 1.389 3.102 3.102 3.102s3.102-1.389 3.102-3.102c.001-1.713-1.388-3.102-3.102-3.102z"/><path d="m389.329 427.724c-1.713 0-3.102 1.389-3.102 3.102s1.389 3.102 3.102 3.102 3.102-1.389 3.102-3.102-1.389-3.102-3.102-3.102z"/><path d="m399.705 437.348c-1.713 0-3.102 1.389-3.102 3.102 0 1.714 1.389 3.102 3.102 3.102s3.102-1.389 3.102-3.102c.001-1.713-1.388-3.102-3.102-3.102z"/><path d="m389.329 447.724c-1.713 0-3.102 1.389-3.102 3.102s1.389 3.102 3.102 3.102 3.102-1.389 3.102-3.102-1.389-3.102-3.102-3.102z"/><path d="m399.705 457.348c-1.713 0-3.102 1.389-3.102 3.102 0 .89.379 1.686.979 2.252 1.668-1.147 3.322-2.312 4.961-3.498-.48-1.092-1.568-1.856-2.838-1.856z"/><path d="m386.353 469.997c1.19-.728 2.372-1.468 3.549-2.215-.186-.035-.377-.058-.573-.058-1.424 0-2.611.965-2.976 2.273z"/><path d="m379.705 397.348c-1.713 0-3.102 1.389-3.102 3.102 0 1.714 1.389 3.102 3.102 3.102s3.102-1.389 3.102-3.102c.001-1.713-1.388-3.102-3.102-3.102z"/><path d="m369.329 407.724c-1.713 0-3.102 1.389-3.102 3.102s1.389 3.102 3.102 3.102 3.102-1.389 3.102-3.102-1.389-3.102-3.102-3.102z"/><path d="m379.705 417.348c-1.713 0-3.102 1.389-3.102 3.102 0 1.714 1.389 3.102 3.102 3.102s3.102-1.389 3.102-3.102c.001-1.713-1.388-3.102-3.102-3.102z"/><path d="m369.329 427.724c-1.713 0-3.102 1.389-3.102 3.102s1.389 3.102 3.102 3.102 3.102-1.389 3.102-3.102-1.389-3.102-3.102-3.102z"/><path d="m379.705 437.348c-1.713 0-3.102 1.389-3.102 3.102 0 1.714 1.389 3.102 3.102 3.102s3.102-1.389 3.102-3.102c.001-1.713-1.388-3.102-3.102-3.102z"/><path d="m369.329 447.724c-1.713 0-3.102 1.389-3.102 3.102s1.389 3.102 3.102 3.102 3.102-1.389 3.102-3.102-1.389-3.102-3.102-3.102z"/><path d="m379.705 457.348c-1.713 0-3.102 1.389-3.102 3.102 0 1.714 1.389 3.102 3.102 3.102s3.102-1.389 3.102-3.102c.001-1.713-1.388-3.102-3.102-3.102z"/><path d="m369.329 467.724c-1.713 0-3.102 1.389-3.102 3.102s1.389 3.102 3.102 3.102 3.102-1.389 3.102-3.102-1.389-3.102-3.102-3.102z"/><path d="m359.705 417.348c-1.713 0-3.102 1.389-3.102 3.102 0 1.714 1.389 3.102 3.102 3.102s3.102-1.389 3.102-3.102c.001-1.713-1.388-3.102-3.102-3.102z"/><path d="m349.329 427.724c-1.713 0-3.102 1.389-3.102 3.102s1.389 3.102 3.102 3.102 3.102-1.389 3.102-3.102-1.389-3.102-3.102-3.102z"/><path d="m359.705 437.348c-1.713 0-3.102 1.389-3.102 3.102 0 1.714 1.389 3.102 3.102 3.102s3.102-1.389 3.102-3.102c.001-1.713-1.388-3.102-3.102-3.102z"/><path d="m349.329 447.724c-1.713 0-3.102 1.389-3.102 3.102s1.389 3.102 3.102 3.102 3.102-1.389 3.102-3.102-1.389-3.102-3.102-3.102z"/><path d="m359.705 457.348c-1.713 0-3.102 1.389-3.102 3.102 0 1.714 1.389 3.102 3.102 3.102s3.102-1.389 3.102-3.102c.001-1.713-1.388-3.102-3.102-3.102z"/><path d="m349.329 467.724c-1.713 0-3.102 1.389-3.102 3.102s1.389 3.102 3.102 3.102 3.102-1.389 3.102-3.102-1.389-3.102-3.102-3.102z"/><path d="m359.705 477.348c-1.713 0-3.102 1.389-3.102 3.102 0 1.714 1.389 3.102 3.102 3.102s3.102-1.389 3.102-3.102c.001-1.713-1.388-3.102-3.102-3.102z"/><path d="m346.423 489.772c1.433-.557 2.857-1.133 4.277-1.715-.415-.206-.876-.333-1.371-.333-1.341 0-2.473.856-2.906 2.048z"/><path d="m329.329 433.929c1.713 0 3.102-1.389 3.102-3.102 0-.238-.033-.468-.083-.691-1.733.972-3.478 1.924-5.234 2.858.563.575 1.346.935 2.215.935z"/><path d="m339.705 437.348c-1.713 0-3.102 1.389-3.102 3.102 0 1.714 1.389 3.102 3.102 3.102s3.102-1.389 3.102-3.102c.001-1.713-1.388-3.102-3.102-3.102z"/><path d="m329.329 447.724c-1.713 0-3.102 1.389-3.102 3.102s1.389 3.102 3.102 3.102 3.102-1.389 3.102-3.102-1.389-3.102-3.102-3.102z"/><path d="m339.705 457.348c-1.713 0-3.102 1.389-3.102 3.102 0 1.714 1.389 3.102 3.102 3.102s3.102-1.389 3.102-3.102c.001-1.713-1.388-3.102-3.102-3.102z"/><path d="m329.329 467.724c-1.713 0-3.102 1.389-3.102 3.102s1.389 3.102 3.102 3.102 3.102-1.389 3.102-3.102-1.389-3.102-3.102-3.102z"/><path d="m339.705 477.348c-1.713 0-3.102 1.389-3.102 3.102 0 1.714 1.389 3.102 3.102 3.102s3.102-1.389 3.102-3.102c.001-1.713-1.388-3.102-3.102-3.102z"/><path d="m329.329 487.724c-1.713 0-3.102 1.389-3.102 3.102s1.389 3.102 3.102 3.102 3.102-1.389 3.102-3.102-1.389-3.102-3.102-3.102z"/><path d="m319.705 437.348c-1.713 0-3.102 1.389-3.102 3.102 0 1.714 1.389 3.102 3.102 3.102s3.102-1.389 3.102-3.102c.001-1.713-1.388-3.102-3.102-3.102z"/><path d="m309.329 447.724c-1.713 0-3.102 1.389-3.102 3.102s1.389 3.102 3.102 3.102 3.102-1.389 3.102-3.102-1.389-3.102-3.102-3.102z"/><path d="m319.705 457.348c-1.713 0-3.102 1.389-3.102 3.102 0 1.714 1.389 3.102 3.102 3.102s3.102-1.389 3.102-3.102c.001-1.713-1.388-3.102-3.102-3.102z"/><path d="m309.329 467.724c-1.713 0-3.102 1.389-3.102 3.102s1.389 3.102 3.102 3.102 3.102-1.389 3.102-3.102-1.389-3.102-3.102-3.102z"/><path d="m319.705 477.348c-1.713 0-3.102 1.389-3.102 3.102 0 1.714 1.389 3.102 3.102 3.102s3.102-1.389 3.102-3.102c.001-1.713-1.388-3.102-3.102-3.102z"/><path d="m309.329 487.724c-1.713 0-3.102 1.389-3.102 3.102s1.389 3.102 3.102 3.102 3.102-1.389 3.102-3.102-1.389-3.102-3.102-3.102z"/><path d="m319.705 497.348c-1.263 0-2.345.757-2.829 1.84 1.562-.393 3.115-.805 4.665-1.227-.515-.38-1.146-.613-1.836-.613z"/><path d="m289.329 453.929c1.713 0 3.102-1.389 3.102-3.102 0-.853-.345-1.625-.902-2.186-1.746.617-3.5 1.218-5.263 1.798-.016.128-.039.255-.039.388 0 1.713 1.389 3.102 3.102 3.102z"/><path d="m299.705 457.348c-1.713 0-3.102 1.389-3.102 3.102 0 1.714 1.389 3.102 3.102 3.102s3.102-1.389 3.102-3.102c.001-1.713-1.388-3.102-3.102-3.102z"/><path d="m289.329 467.724c-1.713 0-3.102 1.389-3.102 3.102s1.389 3.102 3.102 3.102 3.102-1.389 3.102-3.102-1.389-3.102-3.102-3.102z"/><path d="m299.705 477.348c-1.713 0-3.102 1.389-3.102 3.102 0 1.714 1.389 3.102 3.102 3.102s3.102-1.389 3.102-3.102c.001-1.713-1.388-3.102-3.102-3.102z"/><path d="m289.329 487.724c-1.713 0-3.102 1.389-3.102 3.102s1.389 3.102 3.102 3.102 3.102-1.389 3.102-3.102-1.389-3.102-3.102-3.102z"/><path d="m302.808 500.45c0-1.713-1.389-3.102-3.102-3.102s-3.102 1.389-3.102 3.102c0 1.155.638 2.15 1.574 2.684 1.303-.223 2.601-.459 3.897-.703.45-.538.733-1.223.733-1.981z"/><path d="m279.705 457.348c-1.713 0-3.102 1.389-3.102 3.102 0 1.714 1.389 3.102 3.102 3.102s3.102-1.389 3.102-3.102c.001-1.713-1.388-3.102-3.102-3.102z"/><path d="m269.329 467.724c-1.713 0-3.102 1.389-3.102 3.102s1.389 3.102 3.102 3.102 3.102-1.389 3.102-3.102-1.389-3.102-3.102-3.102z"/><path d="m279.705 477.348c-1.713 0-3.102 1.389-3.102 3.102 0 1.714 1.389 3.102 3.102 3.102s3.102-1.389 3.102-3.102c.001-1.713-1.388-3.102-3.102-3.102z"/><path d="m269.329 487.724c-1.713 0-3.102 1.389-3.102 3.102s1.389 3.102 3.102 3.102 3.102-1.389 3.102-3.102-1.389-3.102-3.102-3.102z"/><path d="m279.705 497.348c-1.713 0-3.102 1.389-3.102 3.102 0 1.714 1.389 3.102 3.102 3.102s3.102-1.389 3.102-3.102c.001-1.713-1.388-3.102-3.102-3.102z"/><path d="m256.603 460.45c0 1.714 1.389 3.102 3.102 3.102s3.102-1.389 3.102-3.102c0-1.438-.983-2.635-2.311-2.987-.916.2-1.83.409-2.75.6-.692.569-1.143 1.421-1.143 2.387z"/><path d="m249.329 467.724c-1.713 0-3.102 1.389-3.102 3.102s1.389 3.102 3.102 3.102 3.102-1.389 3.102-3.102-1.389-3.102-3.102-3.102z"/><path d="m259.705 477.348c-1.713 0-3.102 1.389-3.102 3.102 0 1.714 1.389 3.102 3.102 3.102s3.102-1.389 3.102-3.102c.001-1.713-1.388-3.102-3.102-3.102z"/><path d="m252.431 490.827c0-1.713-1.389-3.102-3.102-3.102s-3.102 1.389-3.102 3.102 1.389 3.102 3.102 3.102 3.102-1.389 3.102-3.102z"/><path d="m259.705 503.552c1.713 0 3.102-1.389 3.102-3.102s-1.389-3.102-3.102-3.102-3.102 1.389-3.102 3.102c0 1.714 1.389 3.102 3.102 3.102z"/><path d="m239.705 463.552c1.627 0 2.946-1.256 3.077-2.85-1.986.293-3.979.564-5.98.812.436 1.187 1.566 2.038 2.903 2.038z"/><path d="m229.329 467.724c-1.713 0-3.102 1.389-3.102 3.102s1.389 3.102 3.102 3.102 3.102-1.389 3.102-3.102-1.389-3.102-3.102-3.102z"/><path d="m239.705 477.348c-1.713 0-3.102 1.389-3.102 3.102 0 1.714 1.389 3.102 3.102 3.102s3.102-1.389 3.102-3.102c.001-1.713-1.388-3.102-3.102-3.102z"/><path d="m229.329 487.724c-1.713 0-3.102 1.389-3.102 3.102s1.389 3.102 3.102 3.102 3.102-1.389 3.102-3.102-1.389-3.102-3.102-3.102z"/><path d="m239.705 497.348c-1.713 0-3.102 1.389-3.102 3.102 0 1.714 1.389 3.102 3.102 3.102s3.102-1.389 3.102-3.102c.001-1.713-1.388-3.102-3.102-3.102z"/><path d="m221.507 462.968c-1.094.071-2.191.131-3.289.189.444.245.946.396 1.488.396.673-.001 1.292-.221 1.801-.585z"/><path d="m206.227 470.827c0 1.713 1.389 3.102 3.102 3.102s3.102-1.389 3.102-3.102-1.389-3.102-3.102-3.102c-1.713-.001-3.102 1.388-3.102 3.102z"/><path d="m219.705 477.348c-1.713 0-3.102 1.389-3.102 3.102 0 1.714 1.389 3.102 3.102 3.102s3.102-1.389 3.102-3.102c.001-1.713-1.388-3.102-3.102-3.102z"/><path d="m209.329 493.929c1.713 0 3.102-1.389 3.102-3.102s-1.389-3.102-3.102-3.102-3.102 1.389-3.102 3.102 1.389 3.102 3.102 3.102z"/><path d="m219.705 497.348c-1.713 0-3.102 1.389-3.102 3.102 0 1.714 1.389 3.102 3.102 3.102s3.102-1.389 3.102-3.102c.001-1.713-1.388-3.102-3.102-3.102z"/><path d="m200.155 463.507c-.36-.005-.72-.012-1.081-.019.204.042.415.065.631.065.155-.001.302-.024.45-.046z"/><path d="m189.329 467.724c-1.713 0-3.102 1.389-3.102 3.102s1.389 3.102 3.102 3.102 3.102-1.389 3.102-3.102-1.389-3.102-3.102-3.102z"/><path d="m196.603 480.45c0 1.714 1.389 3.102 3.102 3.102s3.102-1.389 3.102-3.102-1.389-3.102-3.102-3.102-3.102 1.389-3.102 3.102z"/><path d="m189.329 487.724c-1.713 0-3.102 1.389-3.102 3.102s1.389 3.102 3.102 3.102 3.102-1.389 3.102-3.102-1.389-3.102-3.102-3.102z"/><path d="m202.808 500.45c0-1.713-1.389-3.102-3.102-3.102-1.52 0-2.78 1.095-3.046 2.539 2.001.479 4.012.93 6.031 1.361.069-.256.117-.52.117-.798z"/><path d="m179.705 463.552c.872 0 1.658-.363 2.222-.942-1.607-.135-3.21-.288-4.808-.451.555.839 1.505 1.393 2.586 1.393z"/><path d="m166.227 470.827c0 1.713 1.389 3.102 3.102 3.102s3.102-1.389 3.102-3.102-1.389-3.102-3.102-3.102c-1.713-.001-3.102 1.388-3.102 3.102z"/><path d="m179.705 477.348c-1.713 0-3.102 1.389-3.102 3.102 0 1.714 1.389 3.102 3.102 3.102s3.102-1.389 3.102-3.102c.001-1.713-1.388-3.102-3.102-3.102z"/><path d="m169.329 487.724c-1.611 0-2.92 1.232-3.072 2.804 1.865.707 3.742 1.39 5.628 2.054.344-.5.547-1.103.547-1.755-.001-1.714-1.39-3.103-3.103-3.103z"/><path d="m159.705 463.552c1.713 0 3.102-1.389 3.102-3.102 0-.056-.014-.109-.017-.164-1.992-.316-3.977-.65-5.954-1.011-.149.363-.234.759-.234 1.175.001 1.714 1.39 3.102 3.103 3.102z"/><path d="m146.227 470.827c0 1.713 1.389 3.102 3.102 3.102s3.102-1.389 3.102-3.102-1.389-3.102-3.102-3.102c-1.713-.001-3.102 1.388-3.102 3.102z"/><path d="m159.705 477.348c-1.713 0-3.102 1.389-3.102 3.102 0 1.714 1.389 3.102 3.102 3.102s3.102-1.389 3.102-3.102c.001-1.713-1.388-3.102-3.102-3.102z"/><path d="m129.329 453.929c.72 0 1.374-.255 1.9-.667-1.616-.467-3.224-.951-4.827-1.448.414 1.226 1.561 2.115 2.927 2.115z"/><path d="m136.603 460.45c0 1.714 1.389 3.102 3.102 3.102s3.102-1.389 3.102-3.102-1.389-3.102-3.102-3.102-3.102 1.389-3.102 3.102z"/><path d="m132.431 470.827c0-1.713-1.389-3.102-3.102-3.102s-3.102 1.389-3.102 3.102c0 .105.021.204.031.306 1.432.859 2.879 1.694 4.329 2.525 1.085-.483 1.844-1.567 1.844-2.831z"/><path d="m139.705 477.348c-.587 0-1.131.173-1.599.456 1.55.819 3.108 1.627 4.677 2.414-.119-1.603-1.444-2.87-3.078-2.87z"/><path d="m106.227 450.827c0 1.713 1.389 3.102 3.102 3.102s3.102-1.389 3.102-3.102-1.389-3.102-3.102-3.102c-1.713-.001-3.102 1.388-3.102 3.102z"/><path d="m116.603 460.45c0 1.714 1.389 3.102 3.102 3.102s3.102-1.389 3.102-3.102-1.389-3.102-3.102-3.102-3.102 1.389-3.102 3.102z"/><path d="m99.705 443.552c.782 0 1.487-.299 2.033-.776-1.718-.729-3.427-1.477-5.126-2.241.046 1.673 1.409 3.017 3.093 3.017z"/></g><path d="m437.723 434.11c.261-.266.521-.533.78-.8 46.051-47.358 71.608-109.478 72.204-175.581.13-10.299-.428-20.604-1.549-30.839-6.332-57.441-31.761-110.644-73.217-152.1-35.394-35.394-79.353-59.101-127.199-69.223-35.063-7.422-71.685-7.422-106.748 0-47.845 10.122-91.805 33.829-127.199 69.223-42.696 42.696-68.395 97.853-73.736 157.267-1.04 11.462-1.314 22.983-.806 34.486 2.687 62.774 27.963 121.476 71.931 166.717 4.297 4.451 8.786 8.715 13.391 12.838 46.811 41.779 106.542 64.633 169.794 64.633 63.239 0 122.959-22.846 169.766-64.609 4.315-3.869 8.542-7.851 12.588-12.012zm-290.15-19.218-82.003-.922c-31.226-37.305-51.679-83.912-56.536-135.003l71.998-58.211 66.69 21.669 38.675 119.029zm215.44-172.466 63.41-20.603 74.928 60.581c-5.431 49.743-25.659 95.099-56.184 131.566l-82.004.922-38.824-53.436zm98.019-124.539-36.909 96.374-63.89 20.759-100.914-73.318v-59.768l98.708-71.715c41.904 19.182 77.559 49.725 103.005 87.668zm-308.323-87.669 98.708 71.715v59.768l-100.914 73.319-67.21-21.838-35.428-92.504c25.555-39.236 61.919-70.81 104.844-90.46zm28.771 461.343-23.069-73.816c-.279-.893-.862-1.623-1.606-2.113l35.858-49.355h125.411l35.827 49.312c-.777.489-1.386 1.236-1.673 2.155l-23.082 73.853c-23.311 7.296-48.092 11.232-73.777 11.232-25.726 0-50.545-3.95-73.889-11.268z" fill="#31373d"/></g></g></svg>