<svg id="Capa_1" enable-background="new 0 0 511.743 511.743" height="512" viewBox="0 0 511.743 511.743" width="512" xmlns="http://www.w3.org/2000/svg"><g><path d="m401.214 307.484c-29.622 0-56.409 7.668-75.685 20.035-33.578-11.214-75.353-17.866-120.636-17.866-110.821 0-200.659 39.82-200.659 88.941s89.838 88.941 200.659 88.941c76.339 0 142.717-18.896 176.636-46.711 6.38.757 12.958 1.156 19.685 1.156 58.705 0 106.295-30.108 106.295-67.248s-47.59-67.248-106.295-67.248z" fill="#e9c278"/><g fill="#f9fbfc"><path d="m242.326 398.857c-.814.46-1.395 1.269-1.54 2.23.597-.732 1.111-1.476 1.54-2.23z"/><path d="m220.74 381.548c0 1.714 1.389 3.103 3.102 3.103s3.102-1.389 3.102-3.103c0-1.713-1.389-3.102-3.102-3.102s-3.102 1.389-3.102 3.102z"/><path d="m234.219 388.069c-1.713 0-3.102 1.389-3.102 3.103 0 1.713 1.389 3.103 3.102 3.103s3.102-1.39 3.102-3.103c0-1.714-1.389-3.103-3.102-3.103z"/><path d="m224.045 398.467c.633.256 1.254.517 1.862.781-.502-.45-1.147-.734-1.862-.781z"/><path d="m214.219 374.274c1.323 0 2.444-.832 2.89-1.998-1.897-.604-3.877-1.176-5.931-1.717-.04.198-.062.402-.062.612 0 1.714 1.389 3.103 3.103 3.103z"/><path d="m200.74 381.548c0 1.714 1.389 3.103 3.102 3.103s3.102-1.389 3.102-3.103c0-1.713-1.389-3.102-3.102-3.102s-3.102 1.389-3.102 3.102z"/><path d="m214.219 388.069c-1.713 0-3.102 1.389-3.102 3.103 0 1.713 1.389 3.103 3.102 3.103s3.102-1.39 3.102-3.103c0-1.714-1.389-3.103-3.102-3.103z"/><path d="m191.116 371.172c0 1.713 1.389 3.103 3.102 3.103s3.102-1.39 3.102-3.103c0-1.714-1.389-3.103-3.102-3.103s-3.102 1.389-3.102 3.103z"/><path d="m180.74 381.548c0 1.714 1.389 3.103 3.102 3.103s3.102-1.389 3.102-3.103c0-1.713-1.389-3.102-3.102-3.102s-3.102 1.389-3.102 3.102z"/><path d="m197.321 391.172c0-1.714-1.389-3.103-3.102-3.103-1.435 0-2.631.979-2.985 2.303 2.068.28 4.092.591 6.075.926.001-.043.012-.083.012-.126z"/><path d="m171.116 371.172c0 1.713 1.389 3.103 3.102 3.103s3.102-1.39 3.102-3.103c0-1.714-1.389-3.103-3.102-3.103s-3.102 1.389-3.102 3.103z"/><path d="m160.74 381.548c0 1.714 1.389 3.103 3.102 3.103s3.102-1.389 3.102-3.103c0-1.713-1.389-3.102-3.102-3.102s-3.102 1.389-3.102 3.102z"/><path d="m174.219 388.069c-.682 0-1.308.228-1.82.601 1.31.062 2.613.133 3.902.216-.552-.502-1.278-.817-2.082-.817z"/><path d="m151.116 371.172c0 1.713 1.389 3.103 3.102 3.103s3.102-1.39 3.102-3.103c0-1.714-1.389-3.103-3.102-3.103s-3.102 1.389-3.102 3.103z"/><path d="m140.74 381.548c0 1.714 1.389 3.103 3.102 3.103s3.102-1.389 3.102-3.103c0-1.713-1.389-3.102-3.102-3.102s-3.102 1.389-3.102 3.102z"/><path d="m154.219 388.069c-.598 0-1.151.178-1.624.47 1.025-.035 2.055-.063 3.09-.086-.439-.236-.933-.384-1.466-.384z"/><path d="m131.116 371.172c0 1.713 1.389 3.103 3.102 3.103s3.102-1.39 3.102-3.103c0-1.714-1.389-3.103-3.102-3.103s-3.102 1.389-3.102 3.103z"/><path d="m120.74 381.548c0 1.714 1.389 3.103 3.102 3.103s3.102-1.389 3.102-3.103c0-1.713-1.389-3.102-3.102-3.102s-3.102 1.389-3.102 3.102z"/><path d="m134.219 388.069c-1.4 0-2.57.934-2.956 2.208 1.844-.243 3.719-.465 5.624-.664-.539-.919-1.526-1.544-2.668-1.544z"/><path d="m114.218 374.274c1.713 0 3.102-1.39 3.102-3.103 0-.781-.298-1.486-.775-2.031-1.819.397-3.602.814-5.321 1.258-.064.249-.109.505-.109.773.001 1.714 1.39 3.103 3.103 3.103z"/><path d="m100.74 381.548c0 1.714 1.389 3.103 3.102 3.103s3.102-1.389 3.102-3.103c0-1.713-1.389-3.102-3.102-3.102s-3.102 1.389-3.102 3.102z"/><path d="m117.321 391.172c0-1.714-1.389-3.103-3.102-3.103s-3.102 1.389-3.102 3.103c0 1.091.565 2.046 1.416 2.599 1.412-.351 2.859-.686 4.335-1.005.281-.468.453-1.009.453-1.594z"/><path d="m86.944 381.548c0-.37-.076-.722-.195-1.051-1.736 1.191-3.234 2.431-4.481 3.711.463.274.997.442 1.574.442 1.713 0 3.102-1.388 3.102-3.102z"/><path d="m91.116 391.172c0 1.713 1.389 3.103 3.102 3.103s3.102-1.39 3.102-3.103c0-1.714-1.389-3.103-3.102-3.103s-3.102 1.389-3.102 3.103z"/><path d="m84.562 404.558c1.364-.325 2.382-1.545 2.382-3.01 0-1.713-1.389-3.102-3.102-3.102-1.47 0-2.695 1.024-3.015 2.397 1.004 1.276 2.255 2.516 3.735 3.715z"/></g><path d="m292.719 113.115-154.247-75.1v163.727l154.247-75.101c5.639-2.746 5.639-10.78 0-13.526z" fill="#eaa895"/><g fill="#f9fbfc"><path d="m294.061 114.258c-.604-.6-1.313-1.129-2.153-1.538l-.493-.24c.472 1.011 1.471 1.718 2.646 1.778z"/><path d="m280.74 121.548c0 1.714 1.389 3.103 3.102 3.103s3.102-1.389 3.102-3.103c0-1.713-1.389-3.102-3.102-3.102s-3.102 1.389-3.102 3.102z"/><path d="m260.893 102.466c.393 1.263 1.557 2.185 2.949 2.185 1.713 0 3.102-1.389 3.102-3.103 0-.382-.079-.744-.205-1.082l-.869-.423z"/><path d="m274.219 108.069c-1.713 0-3.102 1.389-3.102 3.103 0 1.713 1.389 3.103 3.102 3.103s3.102-1.39 3.102-3.103c0-1.714-1.389-3.103-3.102-3.103z"/><path d="m263.842 118.446c-1.713 0-3.102 1.389-3.102 3.102 0 1.714 1.389 3.103 3.102 3.103s3.102-1.389 3.102-3.103c0-1.713-1.389-3.102-3.102-3.102z"/><path d="m274.219 128.069c-1.713 0-3.102 1.389-3.102 3.103 0 1.713 1.389 3.102 3.102 3.102s3.102-1.39 3.102-3.102c0-1.714-1.389-3.103-3.102-3.103z"/><path d="m263.842 138.446c-1.713 0-3.102 1.389-3.102 3.102 0 .217.023.428.065.632l5.395-2.627c-.57-.671-1.409-1.107-2.358-1.107z"/><path d="m254.219 108.069c-1.713 0-3.102 1.389-3.102 3.103 0 1.713 1.389 3.103 3.102 3.103s3.102-1.39 3.102-3.103c0-1.714-1.389-3.103-3.102-3.103z"/><path d="m243.842 118.446c-1.713 0-3.102 1.389-3.102 3.102 0 1.714 1.389 3.103 3.102 3.103s3.102-1.389 3.102-3.103c0-1.713-1.389-3.102-3.102-3.102z"/><path d="m254.219 128.069c-1.713 0-3.102 1.389-3.102 3.103 0 1.713 1.389 3.102 3.102 3.102s3.102-1.39 3.102-3.102c0-1.714-1.389-3.103-3.102-3.103z"/><path d="m243.842 138.446c-1.713 0-3.102 1.389-3.102 3.102 0 1.714 1.389 3.103 3.102 3.103s3.102-1.389 3.102-3.103c0-1.713-1.389-3.102-3.102-3.102z"/><path d="m223.842 124.65c1.713 0 3.102-1.389 3.102-3.103 0-.829-.33-1.577-.86-2.134l-5.3 2.58c.219 1.501 1.497 2.657 3.058 2.657z"/><path d="m234.219 128.069c-1.713 0-3.102 1.389-3.102 3.103 0 1.713 1.389 3.102 3.102 3.102s3.102-1.39 3.102-3.102c0-1.714-1.389-3.103-3.102-3.103z"/><path d="m223.842 138.446c-1.713 0-3.102 1.389-3.102 3.102 0 1.714 1.389 3.103 3.102 3.103s3.102-1.389 3.102-3.103c0-1.713-1.389-3.102-3.102-3.102z"/><path d="m234.219 148.069c-1.713 0-3.102 1.389-3.102 3.103 0 1.713 1.389 3.102 3.102 3.102s3.102-1.39 3.102-3.102c0-1.714-1.389-3.103-3.102-3.103z"/><path d="m220.74 161.548c0 .046.012.088.013.132l5.095-2.48c-.542-.463-1.237-.753-2.006-.753-1.713-.001-3.102 1.388-3.102 3.101z"/><path d="m214.219 128.069c-1.713 0-3.102 1.389-3.102 3.103 0 1.713 1.389 3.102 3.102 3.102s3.102-1.39 3.102-3.102c0-1.714-1.389-3.103-3.102-3.103z"/><path d="m203.842 138.446c-1.713 0-3.102 1.389-3.102 3.102 0 1.714 1.389 3.103 3.102 3.103s3.102-1.389 3.102-3.103c0-1.713-1.389-3.102-3.102-3.102z"/><path d="m214.219 148.069c-1.713 0-3.102 1.389-3.102 3.103 0 1.713 1.389 3.102 3.102 3.102s3.102-1.39 3.102-3.102c0-1.714-1.389-3.103-3.102-3.103z"/><path d="m203.842 158.446c-1.713 0-3.102 1.389-3.102 3.102 0 1.714 1.389 3.103 3.102 3.103s3.102-1.389 3.102-3.103c0-1.713-1.389-3.102-3.102-3.102z"/><path d="m183.842 144.65c1.713 0 3.102-1.389 3.102-3.103 0-1.014-.493-1.905-1.245-2.471l-4.953 2.411c-.001.021-.006.039-.006.06 0 1.715 1.389 3.103 3.102 3.103z"/><path d="m191.116 151.172c0 1.713 1.389 3.102 3.102 3.102s3.102-1.39 3.102-3.102c0-1.714-1.389-3.103-3.102-3.103s-3.102 1.389-3.102 3.103z"/><path d="m183.842 158.446c-1.713 0-3.102 1.389-3.102 3.102 0 1.714 1.389 3.103 3.102 3.103s3.102-1.389 3.102-3.103c0-1.713-1.389-3.102-3.102-3.102z"/><path d="m197.321 171.172c0-1.714-1.389-3.103-3.102-3.103s-3.102 1.389-3.102 3.103c0 1.713 1.389 3.102 3.102 3.102.389 0 .758-.08 1.101-.211l.443-.216c.927-.536 1.558-1.527 1.558-2.675z"/><path d="m180.781 181.142 4.632-2.255c-.462-.273-.995-.44-1.571-.44-1.574-.001-2.86 1.176-3.061 2.695z"/><path d="m174.219 148.069c-1.713 0-3.102 1.389-3.102 3.103 0 1.713 1.389 3.102 3.102 3.102s3.102-1.39 3.102-3.102c0-1.714-1.389-3.103-3.102-3.103z"/><path d="m163.842 158.446c-1.713 0-3.102 1.389-3.102 3.102 0 1.714 1.389 3.103 3.102 3.103s3.102-1.389 3.102-3.103c0-1.713-1.389-3.102-3.102-3.102z"/><path d="m174.219 168.069c-1.713 0-3.102 1.389-3.102 3.103 0 1.713 1.389 3.102 3.102 3.102s3.102-1.39 3.102-3.102c0-1.714-1.389-3.103-3.102-3.103z"/><path d="m163.842 178.446c-1.713 0-3.102 1.389-3.102 3.102 0 1.714 1.389 3.103 3.102 3.103s3.102-1.389 3.102-3.103c0-1.713-1.389-3.102-3.102-3.102z"/><path d="m156.452 153.316-1.897.924c.743-.082 1.407-.413 1.897-.924z"/><path d="m143.842 164.65c1.713 0 3.102-1.389 3.102-3.103 0-1.214-.705-2.255-1.721-2.764l-4.422 2.152c-.039.198-.061.402-.061.611 0 1.716 1.389 3.104 3.102 3.104z"/><path d="m154.219 168.069c-1.713 0-3.102 1.389-3.102 3.103 0 1.713 1.389 3.102 3.102 3.102s3.102-1.39 3.102-3.102c0-1.714-1.389-3.103-3.102-3.103z"/><path d="m143.842 184.65c1.713 0 3.102-1.389 3.102-3.103 0-1.713-1.389-3.102-3.102-3.102s-3.102 1.389-3.102 3.102c0 1.715 1.389 3.103 3.102 3.103z"/><path d="m157.321 191.172c0-1.714-1.389-3.103-3.102-3.103s-3.102 1.389-3.102 3.103c0 1.597 1.211 2.896 2.763 3.068l2.974-1.448c.291-.473.467-1.024.467-1.62z"/><path d="m143.842 198.446c-1.362 0-2.506.883-2.924 2.104l3.942-1.919c-.32-.113-.659-.185-1.018-.185z"/></g><path d="m122.292 24.208h-1.791c-8.466 0-15.33 6.863-15.33 15.33v357.034c0 8.466 6.863 15.33 15.33 15.33h1.791c8.466 0 15.33-6.863 15.33-15.33v-357.034c0-8.467-6.863-15.33-15.33-15.33z" fill="#f9fbfc"/><ellipse cx="323.05" cy="331.8" fill="#f9fbfc" rx="50.378" ry="50.378" transform="matrix(.099 -.995 .995 .099 -38.968 620.583)"/><g fill="#eaa895"><path d="m365.117 304.09c.009.089.012.18.021.269.039-.018.074-.041.111-.061-.044-.069-.087-.14-.132-.208z"/><path d="m366.944 321.548c0-1.467-1.022-2.688-2.39-3.012-.375 2.048-.864 4.055-1.479 6.008.246.062.5.106.766.106 1.714 0 3.103-1.388 3.103-3.102z"/><path d="m373.299 328.224c-1.261.394-2.183 1.558-2.183 2.948 0 1.417.955 2.598 2.253 2.97.036-.776.059-1.557.059-2.342 0-1.202-.046-2.395-.129-3.576z"/><path d="m363.842 338.446c-1.713 0-3.102 1.389-3.102 3.102 0 1.714 1.389 3.103 3.102 3.103s3.102-1.389 3.102-3.103c0-1.713-1.389-3.102-3.102-3.102z"/><path d="m360.74 361.548c0 .956.442 1.801 1.122 2.37 1.311-1.582 2.516-3.253 3.628-4.989-.478-.302-1.041-.482-1.648-.482-1.713-.001-3.102 1.388-3.102 3.101z"/><path d="m354.219 348.069c-1.713 0-3.102 1.389-3.102 3.103 0 1.713 1.389 3.103 3.102 3.103s3.102-1.39 3.102-3.103c0-1.714-1.389-3.103-3.102-3.103z"/><path d="m340.74 361.548c0 1.714 1.389 3.103 3.102 3.103s3.102-1.389 3.102-3.103c0-1.713-1.389-3.102-3.102-3.102s-3.102 1.389-3.102 3.102z"/><path d="m354.219 368.069c-1.713 0-3.102 1.389-3.102 3.103 0 .749.276 1.427.719 1.963 1.693-1.181 3.312-2.458 4.845-3.833-.568-.744-1.455-1.233-2.462-1.233z"/><path d="m320.74 361.548c0 1.714 1.389 3.103 3.102 3.103s3.102-1.389 3.102-3.103c0-1.237-.73-2.297-1.778-2.795-1.145.234-2.308.415-3.479.569-.583.565-.947 1.352-.947 2.226z"/><path d="m331.116 371.172c0 1.713 1.389 3.103 3.102 3.103s3.102-1.39 3.102-3.103c0-1.714-1.389-3.103-3.102-3.103s-3.102 1.389-3.102 3.103z"/><path d="m326.897 382.018c.023-.154.047-.309.047-.47 0-1.713-1.389-3.102-3.102-3.102s-3.102 1.389-3.102 3.102c0 .198.023.39.058.577.747.033 1.497.053 2.252.053 1.296 0 2.576-.065 3.847-.16z"/><path d="m300.74 361.548c0 1.714 1.389 3.103 3.102 3.103s3.102-1.389 3.102-3.103c0-1.17-.656-2.177-1.613-2.705-.563-.109-1.114-.25-1.669-.379-1.628.095-2.922 1.433-2.922 3.084z"/><path d="m311.116 371.172c0 1.713 1.389 3.103 3.102 3.103s3.102-1.39 3.102-3.103c0-1.714-1.389-3.103-3.102-3.103s-3.102 1.389-3.102 3.103z"/><path d="m304.069 378.469c.552.225 1.11.438 1.672.643-.469-.367-1.042-.596-1.672-.643z"/><path d="m283.842 358.446c-1.097 0-2.056.573-2.608 1.433 1.082 1.608 2.249 3.154 3.505 4.624 1.273-.387 2.205-1.556 2.205-2.955 0-1.713-1.389-3.102-3.102-3.102z"/><path d="m295.518 373.98c1.062-.493 1.803-1.561 1.803-2.809 0-1.714-1.389-3.103-3.102-3.103-1.582 0-2.873 1.189-3.064 2.72 1.393 1.142 2.852 2.203 4.363 3.192z"/><path d="m275.454 348.328c.48 1.384 1.022 2.737 1.616 4.062.16-.374.25-.786.25-1.219.001-1.273-.768-2.364-1.866-2.843z"/></g><g fill="#31373d"><path d="m478.64 323.603c-20.745-13.125-48.242-20.353-77.426-20.353-10.41 0-20.59.933-30.329 2.711-9.21-16.981-27.198-28.539-47.836-28.539-22.474 0-41.807 13.705-50.082 33.195-21.624-3.418-44.533-5.198-68.075-5.198-21.738 0-42.933 1.55-63.038 4.463v-105.079l151.905-73.96c4.229-2.059 6.857-6.262 6.857-10.964 0-4.704-2.628-8.906-6.857-10.965 0-.001 0-.001 0-.001l-152.781-74.387c-2.542-8.409-10.355-14.552-19.581-14.552-11.281 0-20.458 9.178-20.458 20.459v277.679c-14.259 3.786-27.579 8.371-39.649 13.721-39.524 17.519-61.29 41.227-61.29 66.761s21.766 49.242 61.29 66.761c38.428 17.032 89.428 26.414 143.603 26.414 73.788 0 141.69-17.798 177.918-46.54 6.062.653 12.244.984 18.403.984 29.184 0 56.68-7.228 77.426-20.353 21.347-13.506 33.103-31.664 33.103-51.129s-11.756-37.624-33.103-51.128zm-155.59-38.181c25.573 0 46.378 20.805 46.378 46.378s-20.805 46.379-46.378 46.379-46.378-20.806-46.378-46.379 20.805-46.378 46.378-46.378zm-181.194 84.317c6.062-.513 12.42-.808 19.048-.808 45.065 0 78.738 12.888 78.738 24.411 0 2.422-1.596 4.688-3.464 6.512-15.23-9.735-43.54-15.695-75.275-15.695-6.532 0-12.895.276-19.048.766v-15.186zm.849-324.954 147.349 71.741c1.944.947 2.096 2.805 2.096 3.353 0 .547-.152 2.404-2.096 3.351l-147.349 71.742zm-33.299-4.351c0-6.612 5.379-11.992 11.991-11.992s11.992 5.38 11.992 11.992v355.242c0 6.612-5.38 11.992-11.992 11.992s-11.991-5.38-11.991-11.992zm291.809 397.311c-6.431 0-12.886-.379-19.187-1.127-1.149-.136-2.292.201-3.182.932-34.414 28.221-101.068 45.751-173.952 45.751-53.02 0-102.801-9.122-140.172-25.687-36.276-16.08-56.255-37.04-56.255-59.021 0-21.98 19.978-42.94 56.255-59.02 11.06-4.902 23.22-9.144 36.217-12.698v42.198c-16.235 5.547-27.239 13.703-27.239 24.27 0 4.829 2.35 9.354 6.993 13.484.234-.06.47-.113.705-.171.276.748.76 1.413 1.41 1.906 14.358 10.893 44.283 17.659 78.096 17.659 33.814 0 63.74-6.767 78.097-17.659.004-.003.008-.007.011-.01 6.036-4.582 9.097-9.699 9.097-15.21 0-21.354-44.931-32.879-87.206-32.879-6.347 0-12.744.281-19.048.797v-42.834c20.049-2.966 41.256-4.54 63.038-4.54 22.607 0 44.59 1.678 65.367 4.886-1.031 4.176-1.588 8.537-1.588 13.027 0 29.984 24.394 54.379 54.378 54.379s54.378-24.395 54.378-54.379c0-6.258-1.076-12.267-3.03-17.866 8.629-1.454 17.621-2.217 26.817-2.217 56.277 0 102.061 28.268 102.061 63.015s-45.784 63.014-102.061 63.014zm-300.276-59.608v14.608c-5.951 2.057-11.129 4.439-15.309 7.109-1.868-1.823-3.463-4.09-3.463-6.512 0-5.234 6.966-10.743 18.772-15.205z"/><path d="m322.979 315.96c-6.69 0-12.133-5.442-12.133-12.133 0-2.209 1.791-4 4-4s4 1.791 4 4c0 2.279 1.854 4.133 4.133 4.133s4.133-1.853 4.133-4.133c0-2.209 1.791-4 4-4s4 1.791 4 4c0 6.691-5.442 12.133-12.133 12.133z"/><path d="m349.914 336.932c-6.69 0-12.133-5.442-12.133-12.133 0-2.209 1.791-4 4-4s4 1.791 4 4c0 2.279 1.854 4.133 4.133 4.133s4.133-1.854 4.133-4.133c0-2.209 1.791-4 4-4s4 1.791 4 4c0 6.69-5.443 12.133-12.133 12.133z"/><path d="m323.154 357.045c-6.69 0-12.133-5.442-12.133-12.133 0-2.209 1.791-4 4-4s4 1.791 4 4c0 2.279 1.854 4.133 4.133 4.133s4.133-1.853 4.133-4.133c0-2.209 1.791-4 4-4s4 1.791 4 4c0 6.691-5.442 12.133-12.133 12.133z"/><path d="m297.794 336.844c-6.69 0-12.133-5.442-12.133-12.133 0-2.209 1.791-4 4-4s4 1.791 4 4c0 2.279 1.853 4.133 4.133 4.133 2.279 0 4.133-1.853 4.133-4.133 0-2.209 1.791-4 4-4s4 1.791 4 4c0 6.69-5.443 12.133-12.133 12.133z"/><path d="m347.38 262.41c-1.083 0-2.166-.414-2.993-1.24-1.654-1.653-1.654-4.334 0-5.986l19.817-19.818c1.652-1.654 4.333-1.654 5.986 0 1.654 1.653 1.654 4.334 0 5.987l-19.817 19.818c-.826.826-1.91 1.239-2.993 1.239z"/><path d="m368.996 284.027c-1.083 0-2.167-.413-2.993-1.24-1.654-1.653-1.654-4.334 0-5.987l38.09-38.09c1.652-1.654 4.335-1.654 5.987 0 1.654 1.653 1.654 4.334 0 5.987l-38.09 38.09c-.826.826-1.91 1.24-2.994 1.24z"/></g></g></svg>