<svg id="Capa_1" enable-background="new 0 0 511.656 511.656" height="512" viewBox="0 0 511.656 511.656" width="512" xmlns="http://www.w3.org/2000/svg"><g><path d="m490.183 255.828-290.17-1.368c-7.14-.034-11.516 7.817-7.731 13.872l40.622 64.996c15.024 24.039 41.151 38.887 69.492 39.494l186.389 3.99c-.352 21.866-.724 43.295-1.057 61.798-.572 31.803-26.228 57.432-58.031 57.979-55.294.951-137.298 2.216-182.491 2.216-134.191-.001-242.974-108.784-242.976-242.975-.001-133.864 109.114-242.98 242.979-242.979 134.191.002 242.974 108.786 242.974 242.977z" fill="#eaa895"/><g fill="#f9fbfc"><path d="m486.918 408.327c0 1.064.514 1.999 1.298 2.598.03-1.746.06-3.502.09-5.271-.837.595-1.388 1.568-1.388 2.673z"/><path d="m479.225 416.021c-1.812 0-3.281 1.469-3.281 3.281s1.469 3.281 3.281 3.281 3.281-1.469 3.281-3.281c0-1.813-1.469-3.281-3.281-3.281z"/><path d="m487.934 427.114c-.624.597-1.016 1.434-1.016 2.365 0 .89.357 1.695.933 2.286.028-1.534.055-3.084.083-4.651z"/><path d="m479.225 437.172c-1.812 0-3.281 1.469-3.281 3.281s1.469 3.281 3.281 3.281 3.281-1.469 3.281-3.281-1.469-3.281-3.281-3.281z"/><path d="m479.225 458.324c-1.812 0-3.281 1.469-3.281 3.281s1.469 3.281 3.281 3.281c.888 0 1.691-.356 2.282-.929.337-.673.656-1.357.968-2.045.01-.102.031-.202.031-.307 0-1.812-1.469-3.281-3.281-3.281z"/><path d="m469.047 426.198c-1.812 0-3.281 1.469-3.281 3.281s1.469 3.281 3.281 3.281 3.281-1.469 3.281-3.281-1.469-3.281-3.281-3.281z"/><path d="m458.073 437.172c-1.812 0-3.281 1.469-3.281 3.281s1.469 3.281 3.281 3.281 3.281-1.469 3.281-3.281-1.469-3.281-3.281-3.281z"/><path d="m469.047 447.35c-1.812 0-3.281 1.469-3.281 3.281s1.469 3.281 3.281 3.281 3.281-1.469 3.281-3.281-1.469-3.281-3.281-3.281z"/><path d="m458.073 458.324c-1.812 0-3.281 1.469-3.281 3.281s1.469 3.281 3.281 3.281 3.281-1.469 3.281-3.281-1.469-3.281-3.281-3.281z"/><path d="m469.047 468.502c-1.812 0-3.281 1.469-3.281 3.281s1.469 3.281 3.281 3.281 3.281-1.469 3.281-3.281-1.469-3.281-3.281-3.281z"/><path d="m458.073 479.476c-1.812 0-3.281 1.469-3.281 3.281s1.469 3.281 3.281 3.281 3.281-1.469 3.281-3.281-1.469-3.281-3.281-3.281z"/><path d="m436.921 443.734c1.812 0 3.281-1.469 3.281-3.281 0-.579-.163-1.114-.426-1.586-1.98.376-3.995.654-6.04.828-.058.244-.097.496-.097.758.002 1.812 1.47 3.281 3.282 3.281z"/><path d="m447.896 447.35c-1.812 0-3.281 1.469-3.281 3.281s1.469 3.281 3.281 3.281 3.281-1.469 3.281-3.281-1.47-3.281-3.281-3.281z"/><path d="m436.921 458.324c-1.812 0-3.281 1.469-3.281 3.281s1.469 3.281 3.281 3.281 3.281-1.469 3.281-3.281-1.469-3.281-3.281-3.281z"/><path d="m447.896 468.502c-1.812 0-3.281 1.469-3.281 3.281s1.469 3.281 3.281 3.281 3.281-1.469 3.281-3.281c-.001-1.812-1.47-3.281-3.281-3.281z"/><circle cx="436.921" cy="482.757" r="3.281"/><path d="m447.896 489.654c-1.812 0-3.281 1.469-3.281 3.281 0 .496.118.961.315 1.382 2.102-.6 4.154-1.314 6.152-2.134-.341-1.448-1.634-2.529-3.186-2.529z"/><path d="m415.77 443.734c1.812 0 3.281-1.469 3.281-3.281 0-.124-.023-.24-.036-.36-2.135.036-4.308.072-6.5.109-.007.085-.025.166-.025.251-.001 1.812 1.468 3.281 3.28 3.281z"/><path d="m426.744 447.35c-1.812 0-3.281 1.469-3.281 3.281s1.469 3.281 3.281 3.281 3.281-1.469 3.281-3.281-1.469-3.281-3.281-3.281z"/><path d="m415.77 458.324c-1.812 0-3.281 1.469-3.281 3.281s1.469 3.281 3.281 3.281 3.281-1.469 3.281-3.281-1.469-3.281-3.281-3.281z"/><path d="m426.744 468.502c-1.812 0-3.281 1.469-3.281 3.281s1.469 3.281 3.281 3.281 3.281-1.469 3.281-3.281-1.469-3.281-3.281-3.281z"/><path d="m415.77 479.476c-1.812 0-3.281 1.469-3.281 3.281s1.469 3.281 3.281 3.281 3.281-1.469 3.281-3.281-1.469-3.281-3.281-3.281z"/><path d="m426.744 489.654c-1.812 0-3.281 1.469-3.281 3.281s1.469 3.281 3.281 3.281 3.281-1.469 3.281-3.281-1.469-3.281-3.281-3.281z"/><path d="m394.618 443.734c1.812 0 3.281-1.469 3.281-3.281 0-.004-.001-.008-.001-.012-2.168.035-4.35.07-6.551.104.05 1.769 1.491 3.189 3.271 3.189z"/><path d="m405.592 447.35c-1.812 0-3.281 1.469-3.281 3.281s1.469 3.281 3.281 3.281 3.281-1.469 3.281-3.281-1.469-3.281-3.281-3.281z"/><path d="m394.618 458.324c-1.812 0-3.281 1.469-3.281 3.281s1.469 3.281 3.281 3.281 3.281-1.469 3.281-3.281-1.469-3.281-3.281-3.281z"/><path d="m405.592 468.502c-1.812 0-3.281 1.469-3.281 3.281s1.469 3.281 3.281 3.281 3.281-1.469 3.281-3.281-1.469-3.281-3.281-3.281z"/><path d="m394.618 479.476c-1.812 0-3.281 1.469-3.281 3.281s1.469 3.281 3.281 3.281 3.281-1.469 3.281-3.281-1.469-3.281-3.281-3.281z"/><path d="m405.592 489.654c-1.812 0-3.281 1.469-3.281 3.281s1.469 3.281 3.281 3.281 3.281-1.469 3.281-3.281-1.469-3.281-3.281-3.281z"/><path d="m373.466 443.734c1.702 0 3.085-1.301 3.249-2.959-2.154.033-4.317.065-6.487.098.207 1.611 1.57 2.861 3.238 2.861z"/><path d="m384.44 447.35c-1.812 0-3.281 1.469-3.281 3.281s1.469 3.281 3.281 3.281 3.281-1.469 3.281-3.281-1.469-3.281-3.281-3.281z"/><path d="m373.466 458.324c-1.812 0-3.281 1.469-3.281 3.281s1.469 3.281 3.281 3.281 3.281-1.469 3.281-3.281-1.469-3.281-3.281-3.281z"/><path d="m384.44 468.502c-1.812 0-3.281 1.469-3.281 3.281s1.469 3.281 3.281 3.281 3.281-1.469 3.281-3.281-1.469-3.281-3.281-3.281z"/><path d="m373.466 479.476c-1.812 0-3.281 1.469-3.281 3.281s1.469 3.281 3.281 3.281 3.281-1.469 3.281-3.281-1.469-3.281-3.281-3.281z"/><path d="m384.44 489.654c-1.812 0-3.281 1.469-3.281 3.281s1.469 3.281 3.281 3.281 3.281-1.469 3.281-3.281-1.469-3.281-3.281-3.281z"/><path d="m352.314 443.734c1.594 0 2.921-1.138 3.217-2.645-2.136.03-4.273.06-6.411.09.331 1.462 1.633 2.555 3.194 2.555z"/><path d="m363.288 447.35c-1.812 0-3.281 1.469-3.281 3.281s1.469 3.281 3.281 3.281 3.281-1.469 3.281-3.281-1.469-3.281-3.281-3.281z"/><path d="m352.314 458.324c-1.812 0-3.281 1.469-3.281 3.281s1.469 3.281 3.281 3.281 3.281-1.469 3.281-3.281-1.469-3.281-3.281-3.281z"/><path d="m363.288 468.502c-1.812 0-3.281 1.469-3.281 3.281s1.469 3.281 3.281 3.281 3.281-1.469 3.281-3.281-1.469-3.281-3.281-3.281z"/><path d="m352.314 479.476c-1.812 0-3.281 1.469-3.281 3.281s1.469 3.281 3.281 3.281 3.281-1.469 3.281-3.281-1.469-3.281-3.281-3.281z"/><path d="m363.288 489.654c-1.812 0-3.281 1.469-3.281 3.281s1.469 3.281 3.281 3.281 3.281-1.469 3.281-3.281-1.469-3.281-3.281-3.281z"/><path d="m331.163 443.734c1.488 0 2.729-.996 3.132-2.354-2.085.027-4.165.054-6.238.081.426 1.316 1.647 2.273 3.106 2.273z"/><path d="m342.137 447.35c-1.812 0-3.281 1.469-3.281 3.281s1.469 3.281 3.281 3.281 3.281-1.469 3.281-3.281-1.47-3.281-3.281-3.281z"/><path d="m331.163 458.324c-1.812 0-3.281 1.469-3.281 3.281s1.469 3.281 3.281 3.281 3.281-1.469 3.281-3.281c-.001-1.812-1.47-3.281-3.281-3.281z"/><path d="m342.137 468.502c-1.812 0-3.281 1.469-3.281 3.281s1.469 3.281 3.281 3.281 3.281-1.469 3.281-3.281-1.47-3.281-3.281-3.281z"/><path d="m331.163 479.476c-1.812 0-3.281 1.469-3.281 3.281s1.469 3.281 3.281 3.281 3.281-1.469 3.281-3.281c-.001-1.812-1.47-3.281-3.281-3.281z"/><path d="m342.137 489.654c-1.812 0-3.281 1.469-3.281 3.281s1.469 3.281 3.281 3.281 3.281-1.469 3.281-3.281-1.47-3.281-3.281-3.281z"/><path d="m310.011 443.734c1.391 0 2.572-.869 3.05-2.09-2.039.023-4.065.047-6.079.069.494 1.187 1.663 2.021 3.029 2.021z"/><path d="m320.985 447.35c-1.812 0-3.281 1.469-3.281 3.281s1.469 3.281 3.281 3.281 3.281-1.469 3.281-3.281-1.469-3.281-3.281-3.281z"/><path d="m310.011 458.324c-1.812 0-3.281 1.469-3.281 3.281s1.469 3.281 3.281 3.281 3.281-1.469 3.281-3.281-1.469-3.281-3.281-3.281z"/><path d="m320.985 468.502c-1.812 0-3.281 1.469-3.281 3.281s1.469 3.281 3.281 3.281 3.281-1.469 3.281-3.281-1.469-3.281-3.281-3.281z"/><path d="m310.011 479.476c-1.812 0-3.281 1.469-3.281 3.281s1.469 3.281 3.281 3.281 3.281-1.469 3.281-3.281-1.469-3.281-3.281-3.281z"/><path d="m320.985 489.654c-1.812 0-3.281 1.469-3.281 3.281s1.469 3.281 3.281 3.281 3.281-1.469 3.281-3.281-1.469-3.281-3.281-3.281z"/><path d="m288.859 443.734c1.302 0 2.418-.765 2.948-1.864-1.977.019-3.932.037-5.866.054.54 1.069 1.637 1.81 2.918 1.81z"/><path d="m299.833 447.35c-1.812 0-3.281 1.469-3.281 3.281s1.469 3.281 3.281 3.281 3.281-1.469 3.281-3.281-1.469-3.281-3.281-3.281z"/><path d="m288.859 458.324c-1.812 0-3.281 1.469-3.281 3.281s1.469 3.281 3.281 3.281 3.281-1.469 3.281-3.281-1.469-3.281-3.281-3.281z"/><path d="m299.833 468.502c-1.812 0-3.281 1.469-3.281 3.281s1.469 3.281 3.281 3.281 3.281-1.469 3.281-3.281-1.469-3.281-3.281-3.281z"/><path d="m288.859 479.476c-1.812 0-3.281 1.469-3.281 3.281s1.469 3.281 3.281 3.281 3.281-1.469 3.281-3.281-1.469-3.281-3.281-3.281z"/><path d="m299.833 489.654c-1.812 0-3.281 1.469-3.281 3.281s1.469 3.281 3.281 3.281 3.281-1.469 3.281-3.281-1.469-3.281-3.281-3.281z"/><path d="m267.707 443.734c1.232 0 2.293-.687 2.854-1.692-1.934.012-3.825.023-5.69.033.566.987 1.617 1.659 2.836 1.659z"/><path d="m278.681 447.35c-1.812 0-3.281 1.469-3.281 3.281s1.469 3.281 3.281 3.281 3.281-1.469 3.281-3.281-1.469-3.281-3.281-3.281z"/><path d="m267.707 458.324c-1.812 0-3.281 1.469-3.281 3.281s1.469 3.281 3.281 3.281 3.281-1.469 3.281-3.281-1.469-3.281-3.281-3.281z"/><path d="m278.681 468.502c-1.812 0-3.281 1.469-3.281 3.281s1.469 3.281 3.281 3.281 3.281-1.469 3.281-3.281-1.469-3.281-3.281-3.281z"/><circle cx="267.707" cy="482.757" r="3.281"/><path d="m278.681 489.654c-1.812 0-3.281 1.469-3.281 3.281s1.469 3.281 3.281 3.281 3.281-1.469 3.281-3.281-1.469-3.281-3.281-3.281z"/><path d="m246.555 443.734c1.199 0 2.236-.649 2.809-1.609-.719 0-1.456.002-2.158.002-1.164 0-2.322-.025-3.481-.041.567.981 1.616 1.648 2.83 1.648z"/><path d="m257.529 447.35c-1.812 0-3.281 1.469-3.281 3.281s1.469 3.281 3.281 3.281 3.281-1.469 3.281-3.281-1.469-3.281-3.281-3.281z"/><path d="m246.555 458.324c-1.812 0-3.281 1.469-3.281 3.281s1.469 3.281 3.281 3.281 3.281-1.469 3.281-3.281-1.469-3.281-3.281-3.281z"/><path d="m257.529 468.502c-1.812 0-3.281 1.469-3.281 3.281s1.469 3.281 3.281 3.281 3.281-1.469 3.281-3.281-1.469-3.281-3.281-3.281z"/><circle cx="246.555" cy="482.757" r="3.281"/><path d="m257.529 489.654c-1.812 0-3.281 1.469-3.281 3.281s1.469 3.281 3.281 3.281 3.281-1.469 3.281-3.281-1.469-3.281-3.281-3.281z"/><path d="m225.404 443.734c1.478 0 2.712-.983 3.123-2.327-2.13-.162-4.251-.354-6.366-.571.192 1.63 1.562 2.898 3.243 2.898z"/><path d="m236.378 447.35c-1.812 0-3.281 1.469-3.281 3.281s1.469 3.281 3.281 3.281 3.281-1.469 3.281-3.281-1.47-3.281-3.281-3.281z"/><path d="m225.404 458.324c-1.812 0-3.281 1.469-3.281 3.281s1.469 3.281 3.281 3.281 3.281-1.469 3.281-3.281c-.001-1.812-1.47-3.281-3.281-3.281z"/><path d="m236.378 468.502c-1.812 0-3.281 1.469-3.281 3.281s1.469 3.281 3.281 3.281 3.281-1.469 3.281-3.281c-.001-1.812-1.47-3.281-3.281-3.281z"/><path d="m225.404 479.476c-1.812 0-3.281 1.469-3.281 3.281s1.469 3.281 3.281 3.281 3.281-1.469 3.281-3.281c-.001-1.812-1.47-3.281-3.281-3.281z"/><path d="m236.378 489.654c-1.812 0-3.281 1.469-3.281 3.281s1.469 3.281 3.281 3.281 3.281-1.469 3.281-3.281c-.001-1.812-1.47-3.281-3.281-3.281z"/><path d="m200.971 440.453c0 1.812 1.469 3.281 3.281 3.281s3.281-1.469 3.281-3.281c0-.594-.17-1.144-.447-1.625-1.651-.274-3.295-.569-4.934-.876-.716.602-1.181 1.492-1.181 2.501z"/><path d="m215.226 447.35c-1.812 0-3.281 1.469-3.281 3.281s1.469 3.281 3.281 3.281 3.281-1.469 3.281-3.281-1.469-3.281-3.281-3.281z"/><path d="m204.252 458.324c-1.812 0-3.281 1.469-3.281 3.281s1.469 3.281 3.281 3.281 3.281-1.469 3.281-3.281-1.469-3.281-3.281-3.281z"/><path d="m215.226 468.502c-1.812 0-3.281 1.469-3.281 3.281s1.469 3.281 3.281 3.281 3.281-1.469 3.281-3.281-1.469-3.281-3.281-3.281z"/><path d="m204.252 479.476c-1.812 0-3.281 1.469-3.281 3.281s1.469 3.281 3.281 3.281 3.281-1.469 3.281-3.281-1.469-3.281-3.281-3.281z"/><path d="m215.226 489.654c-1.812 0-3.281 1.469-3.281 3.281s1.469 3.281 3.281 3.281 3.281-1.469 3.281-3.281-1.469-3.281-3.281-3.281z"/><path d="m183.1 437.172c-1.812 0-3.281 1.469-3.281 3.281s1.469 3.281 3.281 3.281 3.281-1.469 3.281-3.281-1.469-3.281-3.281-3.281z"/><path d="m194.074 447.35c-1.812 0-3.281 1.469-3.281 3.281s1.469 3.281 3.281 3.281 3.281-1.469 3.281-3.281-1.469-3.281-3.281-3.281z"/><path d="m183.1 458.324c-1.812 0-3.281 1.469-3.281 3.281s1.469 3.281 3.281 3.281 3.281-1.469 3.281-3.281-1.469-3.281-3.281-3.281z"/><path d="m194.074 468.502c-1.812 0-3.281 1.469-3.281 3.281s1.469 3.281 3.281 3.281 3.281-1.469 3.281-3.281-1.469-3.281-3.281-3.281z"/><path d="m183.1 479.476c-1.812 0-3.281 1.469-3.281 3.281s1.469 3.281 3.281 3.281 3.281-1.469 3.281-3.281-1.469-3.281-3.281-3.281z"/><path d="m197.355 492.935c0-1.812-1.469-3.281-3.281-3.281-1.568 0-2.875 1.102-3.2 2.572 2.122.504 4.252.983 6.395 1.431.053-.233.086-.473.086-.722z"/><path d="m172.922 432.76c1.099 0 2.065-.544 2.661-1.374-1.991-.613-3.973-1.246-5.941-1.909v.001c-.001 1.813 1.468 3.282 3.28 3.282z"/><circle cx="161.948" cy="440.453" r="3.281"/><path d="m172.922 447.35c-1.812 0-3.281 1.469-3.281 3.281s1.469 3.281 3.281 3.281 3.281-1.469 3.281-3.281-1.469-3.281-3.281-3.281z"/><path d="m161.948 458.324c-1.812 0-3.281 1.469-3.281 3.281s1.469 3.281 3.281 3.281 3.281-1.469 3.281-3.281-1.469-3.281-3.281-3.281z"/><path d="m172.922 468.502c-1.812 0-3.281 1.469-3.281 3.281s1.469 3.281 3.281 3.281 3.281-1.469 3.281-3.281-1.469-3.281-3.281-3.281z"/><path d="m161.948 479.476c-1.615 0-2.951 1.169-3.223 2.707 1.995.78 4.004 1.531 6.024 2.26.298-.494.48-1.067.48-1.686 0-1.812-1.469-3.281-3.281-3.281z"/><path d="m137.515 419.301c0 1.812 1.469 3.281 3.281 3.281s3.281-1.469 3.281-3.281c0-.032-.009-.062-.009-.094-1.753-.823-3.496-1.664-5.226-2.527-.801.598-1.327 1.545-1.327 2.621z"/><path d="m151.77 426.198c-1.812 0-3.281 1.469-3.281 3.281s1.469 3.281 3.281 3.281 3.281-1.469 3.281-3.281-1.469-3.281-3.281-3.281z"/><path d="m140.796 437.172c-1.812 0-3.281 1.469-3.281 3.281s1.469 3.281 3.281 3.281 3.281-1.469 3.281-3.281-1.469-3.281-3.281-3.281z"/><path d="m151.77 447.35c-1.812 0-3.281 1.469-3.281 3.281s1.469 3.281 3.281 3.281 3.281-1.469 3.281-3.281-1.469-3.281-3.281-3.281z"/><path d="m140.796 458.324c-1.812 0-3.281 1.469-3.281 3.281s1.469 3.281 3.281 3.281 3.281-1.469 3.281-3.281-1.469-3.281-3.281-3.281z"/><path d="m151.77 468.502c-1.812 0-3.281 1.469-3.281 3.281s1.469 3.281 3.281 3.281 3.281-1.469 3.281-3.281-1.469-3.281-3.281-3.281z"/><path d="m119.644 416.021c-1.812 0-3.281 1.469-3.281 3.281s1.469 3.281 3.281 3.281 3.281-1.469 3.281-3.281c0-1.813-1.469-3.281-3.281-3.281z"/><path d="m130.619 426.198c-1.812 0-3.281 1.469-3.281 3.281s1.469 3.281 3.281 3.281 3.281-1.469 3.281-3.281-1.469-3.281-3.281-3.281z"/><path d="m119.644 437.172c-1.812 0-3.281 1.469-3.281 3.281s1.469 3.281 3.281 3.281 3.281-1.469 3.281-3.281-1.469-3.281-3.281-3.281z"/><path d="m130.619 447.35c-1.812 0-3.281 1.469-3.281 3.281s1.469 3.281 3.281 3.281 3.281-1.469 3.281-3.281-1.469-3.281-3.281-3.281z"/><path d="m122.925 461.605c0-1.812-1.469-3.281-3.281-3.281-1.492 0-2.738 1.002-3.135 2.366 1.768 1.13 3.554 2.235 5.352 3.32.65-.599 1.064-1.451 1.064-2.405z"/><path d="m130.619 468.502c-.273 0-.533.043-.787.105 1.283.709 2.573 1.404 3.869 2.09-.449-1.275-1.653-2.195-3.082-2.195z"/><path d="m98.493 394.869c-1.812 0-3.281 1.469-3.281 3.281s1.469 3.281 3.281 3.281 3.281-1.469 3.281-3.281-1.469-3.281-3.281-3.281z"/><path d="m109.467 405.047c-1.812 0-3.281 1.469-3.281 3.281s1.469 3.281 3.281 3.281 3.281-1.469 3.281-3.281c0-1.813-1.469-3.281-3.281-3.281z"/><path d="m98.493 416.021c-1.812 0-3.281 1.469-3.281 3.281s1.469 3.281 3.281 3.281 3.281-1.469 3.281-3.281c0-1.813-1.469-3.281-3.281-3.281z"/><path d="m109.467 426.198c-1.812 0-3.281 1.469-3.281 3.281s1.469 3.281 3.281 3.281 3.281-1.469 3.281-3.281-1.469-3.281-3.281-3.281z"/><path d="m98.493 437.172c-1.812 0-3.281 1.469-3.281 3.281s1.469 3.281 3.281 3.281 3.281-1.469 3.281-3.281-1.469-3.281-3.281-3.281z"/><path d="m109.467 447.35c-1.812 0-3.281 1.469-3.281 3.281s1.469 3.281 3.281 3.281 3.281-1.469 3.281-3.281-1.469-3.281-3.281-3.281z"/><path d="m77.341 373.717c-1.812 0-3.281 1.469-3.281 3.281s1.469 3.281 3.281 3.281 3.281-1.469 3.281-3.281c0-.431-.088-.839-.238-1.215-.653-.617-1.299-1.24-1.945-1.864-.346-.123-.711-.202-1.098-.202z"/><path d="m85.034 387.175c0 1.812 1.469 3.281 3.281 3.281s3.281-1.469 3.281-3.281c0-.79-.29-1.504-.755-2.07-.309-.26-.622-.518-.93-.78-.474-.266-1.013-.431-1.596-.431-1.812.001-3.281 1.469-3.281 3.281z"/><path d="m77.341 394.869c-1.812 0-3.281 1.469-3.281 3.281s1.469 3.281 3.281 3.281 3.281-1.469 3.281-3.281-1.469-3.281-3.281-3.281z"/><path d="m88.315 405.047c-1.812 0-3.281 1.469-3.281 3.281s1.469 3.281 3.281 3.281 3.281-1.469 3.281-3.281c0-1.813-1.469-3.281-3.281-3.281z"/><path d="m77.341 416.021c-1.812 0-3.281 1.469-3.281 3.281s1.469 3.281 3.281 3.281 3.281-1.469 3.281-3.281c0-1.813-1.469-3.281-3.281-3.281z"/><path d="m88.315 426.198c-1.812 0-3.281 1.469-3.281 3.281s1.469 3.281 3.281 3.281 3.281-1.469 3.281-3.281-1.469-3.281-3.281-3.281z"/><path d="m56.189 352.565c-1.812 0-3.281 1.469-3.281 3.281s1.469 3.281 3.281 3.281 3.281-1.469 3.281-3.281-1.469-3.281-3.281-3.281z"/><path d="m63.882 366.024c0 1.812 1.469 3.281 3.281 3.281s3.281-1.469 3.281-3.281c0-.073-.017-.142-.021-.214-.941-.997-1.869-2.006-2.793-3.02-.154-.022-.307-.047-.466-.047-1.813 0-3.282 1.469-3.282 3.281z"/><path d="m56.189 373.717c-1.812 0-3.281 1.469-3.281 3.281s1.469 3.281 3.281 3.281 3.281-1.469 3.281-3.281-1.469-3.281-3.281-3.281z"/><path d="m67.163 383.895c-1.812 0-3.281 1.469-3.281 3.281s1.469 3.281 3.281 3.281 3.281-1.469 3.281-3.281c0-1.813-1.469-3.281-3.281-3.281z"/><path d="m56.189 394.869c-1.812 0-3.281 1.469-3.281 3.281s1.469 3.281 3.281 3.281 3.281-1.469 3.281-3.281-1.469-3.281-3.281-3.281z"/><path d="m67.163 405.047c-1.812 0-3.281 1.469-3.281 3.281s1.469 3.281 3.281 3.281 3.281-1.469 3.281-3.281c0-1.813-1.469-3.281-3.281-3.281z"/><path d="m34.568 316.776c-.848-1.53-1.679-3.07-2.494-4.619-.198.422-.317.889-.317 1.386-.001 1.65 1.223 3.004 2.811 3.233z"/><path d="m35.037 331.413c-1.812 0-3.281 1.469-3.281 3.281s1.469 3.281 3.281 3.281 3.281-1.469 3.281-3.281-1.469-3.281-3.281-3.281z"/><path d="m46.011 341.591c-1.812 0-3.281 1.469-3.281 3.281s1.469 3.281 3.281 3.281 3.281-1.469 3.281-3.281-1.469-3.281-3.281-3.281z"/><path d="m35.037 352.565c-1.812 0-3.281 1.469-3.281 3.281s1.469 3.281 3.281 3.281 3.281-1.469 3.281-3.281-1.469-3.281-3.281-3.281z"/><path d="m46.011 362.743c-1.812 0-3.281 1.469-3.281 3.281s1.469 3.281 3.281 3.281 3.281-1.469 3.281-3.281-1.469-3.281-3.281-3.281z"/><path d="m35.037 373.717c-.105 0-.203.022-.306.031.965 1.736 1.951 3.458 2.958 5.168.391-.54.629-1.199.629-1.917 0-1.813-1.469-3.282-3.281-3.282z"/><path d="m49.292 387.175c0-1.812-1.469-3.281-3.281-3.281-1.797 0-3.253 1.446-3.277 3.238.664 1.032 1.344 2.052 2.023 3.074.386.16.809.251 1.254.251 1.812 0 3.281-1.47 3.281-3.282z"/><path d="m10.604 271.239c0 1.812 1.469 3.281 3.281 3.281.783 0 1.492-.285 2.056-.743-.619-1.92-1.216-3.851-1.788-5.792-.09-.007-.176-.027-.267-.027-1.813 0-3.282 1.469-3.282 3.281z"/><path d="m10.604 292.391c0 1.812 1.469 3.281 3.281 3.281s3.281-1.469 3.281-3.281-1.469-3.281-3.281-3.281-3.281 1.469-3.281 3.281z"/><path d="m21.579 302.568c0 1.812 1.469 3.281 3.281 3.281 1.374 0 2.547-.846 3.035-2.043-.688-1.439-1.36-2.887-2.021-4.342-.321-.105-.658-.176-1.015-.176-1.811 0-3.28 1.468-3.28 3.28z"/><path d="m13.885 316.823c1.812 0 3.281-1.469 3.281-3.281s-1.469-3.281-3.281-3.281c-1.378 0-2.553.851-3.039 2.055.294 1.235.589 2.469.902 3.696.576.499 1.317.811 2.137.811z"/><path d="m24.86 320.44c-1.812 0-3.281 1.469-3.281 3.281s1.469 3.281 3.281 3.281 3.281-1.469 3.281-3.281c-.001-1.813-1.47-3.281-3.281-3.281z"/><path d="m16.853 333.315c.083.247.165.495.249.742-.051-.261-.139-.507-.249-.742z"/><path d="m24.86 341.591c-1.812 0-3.281 1.469-3.281 3.281s1.469 3.281 3.281 3.281 3.281-1.469 3.281-3.281c-.001-1.812-1.47-3.281-3.281-3.281z"/><path d="m5.056 236.129c-.166 2.034-.316 4.072-.432 6.12 1.363-.398 2.365-1.644 2.365-3.135 0-1.331-.795-2.471-1.933-2.985z"/><path d="m6.989 260.265c0-1.628-1.188-2.969-2.743-3.227.01 2.154.05 4.301.116 6.441 1.498-.303 2.627-1.626 2.627-3.214z"/><path d="m6.989 281.417c0-1.232-.687-2.293-1.691-2.854.165 1.779.351 3.551.554 5.319.691-.602 1.137-1.478 1.137-2.465z"/></g><circle cx="89.345" cy="299.856" fill="#e9c278" r="45.473"/><path d="m495.676 400.37c-10.068 1.063-177.142-10.274-224.697-33.442-47.556-23.168-89.015-101.209-78.04-112.183s302.738-20.198 302.738-20.198c17.225 0 10.068 164.761-.001 165.823z" fill="#f9fbfc"/><g fill="#31373d"><path d="m503.092 235.457c-2.493-4.341-5.456-5.166-7.549-5.138-.075.002-.921.029-2.436.079-5.727-56.42-30.455-108.727-71.098-149.371-46.691-46.69-108.769-72.404-174.8-72.405-.004 0 .002 0-.002 0-65.869 0-127.91 25.76-174.678 72.529-46.772 46.771-72.53 108.807-72.529 174.68.001 66.031 25.715 128.109 72.406 174.8 46.691 46.69 108.77 72.404 174.801 72.404 44.374 0 123.771-1.206 182.564-2.218 34.256-.587 61.572-27.88 62.188-62.132.19-10.588.394-22.14.599-34.178 1.399.056 2.453.088 3.087.093h.047c1.769 0 4.299-.765 6.405-4.37 6.459-11.06 9.165-50.75 9.52-81.378.181-15.762.107-68.358-8.525-83.395zm-19.593 203.076c-.534 29.673-24.198 53.316-53.874 53.826-58.76 1.01-138.105 2.215-182.419 2.215-131.644 0-238.745-107.1-238.746-238.744 0-63.612 24.878-123.524 70.051-168.698 45.173-45.173 105.084-70.051 168.698-70.051 82.215.001 154.843 41.784 197.798 105.224h-70.73c-34.418-32.775-79.471-50.8-127.068-50.8-.003 0 .001 0-.002 0-49.114 0-95.373 19.207-130.245 54.079-34.873 34.874-54.079 81.129-54.078 130.246 0 .621.142 1.207.382 1.738-14.164 8.768-23.624 24.441-23.624 42.288 0 27.407 22.297 49.704 49.703 49.704s49.703-22.297 49.703-49.704c0-27.406-22.297-49.703-49.703-49.703-6.337 0-12.395 1.205-17.973 3.377.59-45.999 18.842-89.234 51.573-121.963 33.275-33.276 77.406-51.601 124.264-51.601 45.96 0 89.435 17.617 122.42 49.606.79.765 1.846 1.194 2.945 1.194h75.29c.817 0 1.572-.242 2.219-.643 18.529 29.801 30.678 63.961 34.528 100.559-23.145.789-79.647 2.815-136.396 5.624-150.255 7.436-155.666 12.848-158.266 15.449-2.821 2.819-3.656 7.385-2.555 13.959 4.084 24.376 39.091 84.242 81.733 105.017 42.904 20.902 174.13 31.053 214.977 33.354-.208 12.135-.413 23.781-.605 34.448zm-394.154-179.92c22.741 0 41.243 18.501 41.243 41.242s-18.501 41.243-41.243 41.243c-22.741 0-41.243-18.502-41.243-41.243.001-22.741 18.502-41.242 41.243-41.242zm412.529 93.68c-1.982 29.337-5.36 41.126-7.152 43.832-22.912-.465-177.316-11.286-221.891-33-38.736-18.872-73.169-75.384-77.094-98.81-.681-4.067-.201-5.945.108-6.464 3.5-1.925 25.979-6.869 155.306-13.22 68.891-3.381 136.735-5.601 144.019-5.835.971 1.105 5 7.469 7.015 38.333 1.466 22.477 1.351 50.576-.311 75.164z"/><path d="m339.771 347.216c-1.082 0-2.165-.413-2.991-1.239-1.652-1.651-1.652-4.331 0-5.982l70.165-70.166c1.65-1.652 4.329-1.652 5.982 0 1.652 1.651 1.652 4.331 0 5.982l-70.165 70.166c-.825.826-1.909 1.239-2.991 1.239z"/><path d="m396.645 347.216c-1.082 0-2.165-.413-2.991-1.239-1.652-1.651-1.652-4.331 0-5.982l70.165-70.166c1.65-1.652 4.329-1.652 5.982 0 1.652 1.651 1.652 4.331 0 5.982l-70.165 70.166c-.825.826-1.908 1.239-2.991 1.239z"/></g></g></svg>