<svg id="Capa_1" enable-background="new 0 0 511.526 511.526" height="512" viewBox="0 0 511.526 511.526" width="512" xmlns="http://www.w3.org/2000/svg"><g><path d="m495.531 3.989h-153.412l-84.234 153.2-84.234-153.2h-154.9l161.684 294.062 154.156-1.353z" fill="#eaa895"/><path d="m233.718 203.173-109.517-199.184h-52.971l135.102 245.716c3.638-6.553 24.668-41.511 27.386-46.532z" fill="#f9fbfc"/><path d="m303.074 262.434 142.1-258.445h-52.971l-142.1 258.445z" fill="#f9fbfc"/><circle cx="258.643" cy="370.964" fill="#e9c278" r="136.573"/><g fill="#f9fbfc"><path d="m395.167 368.304c-.022-1.154-.05-2.306-.1-3.453-.303.479-.485 1.043-.485 1.652-.001.674.22 1.293.585 1.801z"/><path d="m374.581 306.503c0 1.713 1.389 3.102 3.102 3.102.972 0 1.83-.457 2.398-1.157-.874-1.694-1.788-3.363-2.73-5.014-1.554.168-2.77 1.469-2.77 3.069z"/><path d="m377.684 323.401c-1.713 0-3.102 1.389-3.102 3.102s1.389 3.102 3.102 3.102 3.102-1.389 3.102-3.102-1.389-3.102-3.102-3.102z"/><path d="m384.958 336.127c0 1.713 1.389 3.102 3.102 3.102 1.357 0 2.499-.877 2.92-2.091-.287-1.126-.597-2.243-.911-3.357-.542-.465-1.238-.756-2.008-.756-1.714-.001-3.103 1.388-3.103 3.102z"/><path d="m377.684 343.401c-1.713 0-3.102 1.389-3.102 3.102s1.389 3.102 3.102 3.102 3.102-1.389 3.102-3.102-1.389-3.102-3.102-3.102z"/><path d="m388.06 353.024c-1.713 0-3.102 1.389-3.102 3.103 0 1.713 1.389 3.102 3.102 3.102s3.102-1.389 3.102-3.102c.001-1.714-1.388-3.103-3.102-3.103z"/><path d="m377.684 363.401c-1.713 0-3.102 1.389-3.102 3.102s1.389 3.102 3.102 3.102 3.102-1.389 3.102-3.102-1.389-3.102-3.102-3.102z"/><path d="m388.06 373.024c-1.713 0-3.102 1.389-3.102 3.103 0 1.713 1.389 3.102 3.102 3.102s3.102-1.389 3.102-3.102c.001-1.714-1.388-3.103-3.102-3.103z"/><path d="m377.684 383.401c-1.713 0-3.102 1.389-3.102 3.102s1.389 3.102 3.102 3.102 3.102-1.389 3.102-3.102-1.389-3.102-3.102-3.102z"/><path d="m388.06 393.024c-1.713 0-3.102 1.389-3.102 3.103 0 1.713 1.389 3.102 3.102 3.102s3.102-1.389 3.102-3.102c.001-1.714-1.388-3.103-3.102-3.103z"/><path d="m377.684 403.401c-1.713 0-3.102 1.389-3.102 3.102s1.389 3.102 3.102 3.102 3.102-1.389 3.102-3.102-1.389-3.102-3.102-3.102z"/><path d="m384.958 416.127c0 1.174.66 2.184 1.622 2.71.711-1.9 1.38-3.82 2.008-5.76-.172-.03-.347-.053-.528-.053-1.713 0-3.102 1.389-3.102 3.103z"/><path d="m377.684 423.401c-1.713 0-3.102 1.389-3.102 3.102s1.389 3.102 3.102 3.102 3.102-1.389 3.102-3.102-1.389-3.102-3.102-3.102z"/><path d="m357.684 283.401c-1.713 0-3.102 1.389-3.102 3.102s1.389 3.102 3.102 3.102 3.102-1.389 3.102-3.102-1.389-3.102-3.102-3.102z"/><path d="m368.06 293.024c-1.713 0-3.102 1.389-3.102 3.103 0 1.713 1.389 3.102 3.102 3.102s3.102-1.389 3.102-3.102c.001-1.714-1.388-3.103-3.102-3.103z"/><path d="m357.684 303.401c-1.713 0-3.102 1.389-3.102 3.102s1.389 3.102 3.102 3.102 3.102-1.389 3.102-3.102-1.389-3.102-3.102-3.102z"/><path d="m368.06 313.024c-1.713 0-3.102 1.389-3.102 3.103 0 1.713 1.389 3.102 3.102 3.102s3.102-1.389 3.102-3.102c.001-1.714-1.388-3.103-3.102-3.103z"/><path d="m357.684 323.401c-.233 0-.459.031-.677.08.337 2.021.628 4.056.876 6.105 1.619-.104 2.904-1.436 2.904-3.082-.001-1.714-1.39-3.103-3.103-3.103z"/><path d="m368.06 333.024c-1.713 0-3.102 1.389-3.102 3.103 0 1.713 1.389 3.102 3.102 3.102s3.102-1.389 3.102-3.102c.001-1.714-1.388-3.103-3.102-3.103z"/><path d="m358.85 343.631c.015.823.032 1.646.032 2.473 0 1.094-.016 2.184-.042 3.272 1.139-.459 1.946-1.57 1.946-2.874 0-1.299-.802-2.409-1.936-2.871z"/><path d="m368.06 353.024c-1.713 0-3.102 1.389-3.102 3.103 0 1.713 1.389 3.102 3.102 3.102s3.102-1.389 3.102-3.102c.001-1.714-1.388-3.103-3.102-3.103z"/><path d="m357.795 363.412c-.258 2.04-.567 4.064-.914 6.075.258.069.524.118.803.118 1.713 0 3.102-1.389 3.102-3.102 0-1.675-1.331-3.032-2.991-3.091z"/><path d="m368.06 373.024c-1.713 0-3.102 1.389-3.102 3.103 0 1.713 1.389 3.102 3.102 3.102s3.102-1.389 3.102-3.102c.001-1.714-1.388-3.103-3.102-3.103z"/><path d="m357.684 383.401c-1.713 0-3.102 1.389-3.102 3.102s1.389 3.102 3.102 3.102 3.102-1.389 3.102-3.102-1.389-3.102-3.102-3.102z"/><path d="m368.06 393.024c-1.713 0-3.102 1.389-3.102 3.103 0 1.713 1.389 3.102 3.102 3.102s3.102-1.389 3.102-3.102c.001-1.714-1.388-3.103-3.102-3.103z"/><path d="m357.684 403.401c-1.713 0-3.102 1.389-3.102 3.102s1.389 3.102 3.102 3.102 3.102-1.389 3.102-3.102-1.389-3.102-3.102-3.102z"/><path d="m368.06 413.024c-1.713 0-3.102 1.389-3.102 3.103 0 1.713 1.389 3.102 3.102 3.102s3.102-1.389 3.102-3.102c.001-1.714-1.388-3.103-3.102-3.103z"/><path d="m357.684 423.401c-1.713 0-3.102 1.389-3.102 3.102s1.389 3.102 3.102 3.102 3.102-1.389 3.102-3.102-1.389-3.102-3.102-3.102z"/><path d="m368.06 433.024c-1.713 0-3.102 1.389-3.102 3.103 0 1.713 1.389 3.102 3.102 3.102s3.102-1.389 3.102-3.102c.001-1.714-1.388-3.103-3.102-3.103z"/><path d="m357.684 443.401c-1.713 0-3.102 1.389-3.102 3.102s1.389 3.102 3.102 3.102 3.102-1.389 3.102-3.102-1.389-3.102-3.102-3.102z"/><path d="m364.958 456.127c0 .169.024.333.05.495.948-1.176 1.88-2.364 2.79-3.571-1.589.135-2.84 1.452-2.84 3.076z"/><path d="m354.581 466.503c0 .483.12.934.316 1.341 1.373-1.364 2.714-2.76 4.028-4.181-.381-.167-.8-.263-1.242-.263-1.713.001-3.102 1.39-3.102 3.103z"/><path d="m340.786 266.503c0-1.713-1.389-3.102-3.102-3.102s-3.102 1.389-3.102 3.102 1.389 3.102 3.102 3.102 3.102-1.389 3.102-3.102z"/><path d="m351.163 276.127c0-1.713-1.389-3.103-3.102-3.103s-3.102 1.389-3.102 3.103c0 1.713 1.389 3.102 3.102 3.102s3.102-1.389 3.102-3.102z"/><path d="m351.163 296.127c0-1.674-1.328-3.028-2.986-3.091.733 1.736 1.435 3.488 2.097 5.26.548-.56.889-1.324.889-2.169z"/><path d="m351.163 396.127c0-.853-.345-1.625-.902-2.186-.664 1.776-1.357 3.537-2.092 5.277 1.662-.059 2.994-1.415 2.994-3.091z"/><path d="m348.06 413.024c-1.713 0-3.102 1.389-3.102 3.103 0 1.713 1.389 3.102 3.102 3.102s3.102-1.389 3.102-3.102c.001-1.714-1.388-3.103-3.102-3.103z"/><path d="m337.684 423.401c-1.713 0-3.102 1.389-3.102 3.102s1.389 3.102 3.102 3.102 3.102-1.389 3.102-3.102-1.389-3.102-3.102-3.102z"/><path d="m348.06 433.024c-1.713 0-3.102 1.389-3.102 3.103 0 1.713 1.389 3.102 3.102 3.102s3.102-1.389 3.102-3.102c.001-1.714-1.388-3.103-3.102-3.103z"/><path d="m337.684 443.401c-1.713 0-3.102 1.389-3.102 3.102s1.389 3.102 3.102 3.102 3.102-1.389 3.102-3.102-1.389-3.102-3.102-3.102z"/><path d="m348.06 453.024c-1.713 0-3.102 1.389-3.102 3.103 0 1.713 1.389 3.102 3.102 3.102s3.102-1.389 3.102-3.102c.001-1.714-1.388-3.103-3.102-3.103z"/><path d="m337.684 463.401c-1.713 0-3.102 1.389-3.102 3.102s1.389 3.102 3.102 3.102 3.102-1.389 3.102-3.102-1.389-3.102-3.102-3.102z"/><path d="m344.958 476.127c0 .213.022.421.063.623 1.4-1.145 2.775-2.319 4.128-3.518-.34-.128-.704-.207-1.089-.207-1.713-.001-3.102 1.388-3.102 3.102z"/><path d="m318.749 249.406c.368-.135.699-.337.987-.592-1.061-.532-2.121-1.064-3.198-1.568.746.71 1.481 1.432 2.211 2.16z"/><path d="m324.966 256.041c.91 1.036 1.807 2.083 2.685 3.146.135.018.269.041.409.041 1.713 0 3.102-1.389 3.102-3.102 0-.347-.07-.674-.175-.986-1.127-.705-2.264-1.395-3.413-2.067-1.452.23-2.566 1.46-2.608 2.968z"/><path d="m328.06 439.229c1.713 0 3.102-1.389 3.102-3.102s-1.389-3.103-3.102-3.103c-.151 0-.296.024-.442.045-.868 1.05-1.757 2.083-2.655 3.106.026 1.69 1.401 3.054 3.097 3.054z"/><path d="m317.684 449.605c1.713 0 3.102-1.389 3.102-3.102 0-1.572-1.174-2.857-2.69-3.061-1.144 1.126-2.306 2.233-3.489 3.319.134 1.59 1.452 2.844 3.077 2.844z"/><path d="m328.06 453.024c-1.713 0-3.102 1.389-3.102 3.103 0 1.713 1.389 3.102 3.102 3.102s3.102-1.389 3.102-3.102c.001-1.714-1.388-3.103-3.102-3.103z"/><path d="m317.684 463.401c-1.713 0-3.102 1.389-3.102 3.102s1.389 3.102 3.102 3.102 3.102-1.389 3.102-3.102-1.389-3.102-3.102-3.102z"/><path d="m328.06 473.024c-1.713 0-3.102 1.389-3.102 3.103 0 1.713 1.389 3.102 3.102 3.102s3.102-1.389 3.102-3.102c.001-1.714-1.388-3.103-3.102-3.103z"/><path d="m317.684 483.401c-1.713 0-3.102 1.389-3.102 3.102s1.389 3.102 3.102 3.102 3.102-1.389 3.102-3.102-1.389-3.102-3.102-3.102z"/><path d="m308.06 459.229c1.713 0 3.102-1.389 3.102-3.102s-1.389-3.103-3.102-3.103c-.355 0-.69.072-1.008.182-.527.418-1.06.828-1.593 1.237-.315.485-.502 1.062-.502 1.683.001 1.714 1.39 3.103 3.103 3.103z"/><path d="m297.684 463.401c-1.713 0-3.102 1.389-3.102 3.102s1.389 3.102 3.102 3.102 3.102-1.389 3.102-3.102-1.389-3.102-3.102-3.102z"/><path d="m308.06 473.024c-1.713 0-3.102 1.389-3.102 3.103 0 1.713 1.389 3.102 3.102 3.102s3.102-1.389 3.102-3.102c.001-1.714-1.388-3.103-3.102-3.103z"/><path d="m297.684 483.401c-1.713 0-3.102 1.389-3.102 3.102s1.389 3.102 3.102 3.102 3.102-1.389 3.102-3.102-1.389-3.102-3.102-3.102z"/><path d="m311.163 496.127c0-1.713-1.389-3.103-3.102-3.103s-3.102 1.389-3.102 3.103c0 1.192.68 2.215 1.666 2.734 1.463-.549 2.915-1.122 4.354-1.72.111-.319.184-.657.184-1.014z"/><path d="m288.06 473.024c-1.713 0-3.102 1.389-3.102 3.103 0 1.713 1.389 3.102 3.102 3.102s3.102-1.389 3.102-3.102c.001-1.714-1.388-3.103-3.102-3.103z"/><path d="m274.581 486.503c0 1.713 1.389 3.102 3.102 3.102s3.102-1.389 3.102-3.102-1.389-3.102-3.102-3.102-3.102 1.389-3.102 3.102z"/><path d="m288.06 493.024c-1.713 0-3.102 1.389-3.102 3.103 0 1.713 1.389 3.102 3.102 3.102s3.102-1.389 3.102-3.102c.001-1.714-1.388-3.103-3.102-3.103z"/><path d="m277.684 503.401c-1.713 0-3.102 1.389-3.102 3.102 0 .035.009.067.01.102 2.046-.238 4.077-.521 6.094-.848-.336-1.351-1.547-2.356-3.002-2.356z"/><path d="m268.06 479.229c1.713 0 3.102-1.389 3.102-3.102 0-.828-.329-1.575-.857-2.131-1.757.66-3.531 1.284-5.322 1.872-.007.087-.026.17-.026.259.001 1.713 1.39 3.102 3.103 3.102z"/><path d="m254.581 486.503c0 1.713 1.389 3.102 3.102 3.102s3.102-1.389 3.102-3.102-1.389-3.102-3.102-3.102-3.102 1.389-3.102 3.102z"/><path d="m268.06 493.024c-1.713 0-3.102 1.389-3.102 3.103 0 1.713 1.389 3.102 3.102 3.102s3.102-1.389 3.102-3.102c.001-1.714-1.388-3.103-3.102-3.103z"/><path d="m260.604 507.512c.11-.318.182-.654.182-1.009 0-1.713-1.389-3.102-3.102-3.102s-3.102 1.389-3.102 3.102c0 .343.069.667.172.975 1.293.036 2.588.06 3.89.06.654-.001 1.306-.016 1.96-.026z"/><path d="m234.581 486.503c0 1.713 1.389 3.102 3.102 3.102s3.102-1.389 3.102-3.102-1.389-3.102-3.102-3.102-3.102 1.389-3.102 3.102z"/><path d="m244.958 496.127c0 1.713 1.389 3.102 3.102 3.102s3.102-1.389 3.102-3.102-1.389-3.103-3.102-3.103-3.102 1.389-3.102 3.103z"/><path d="m237.684 503.401c-1.343 0-2.476.859-2.908 2.054 1.984.35 3.984.652 5.997.915-.072-1.65-1.422-2.969-3.089-2.969z"/><path d="m214.581 486.503c0 1.713 1.389 3.102 3.102 3.102s3.102-1.389 3.102-3.102-1.389-3.102-3.102-3.102-3.102 1.389-3.102 3.102z"/><path d="m228.06 499.229c1.713 0 3.102-1.389 3.102-3.102s-1.389-3.103-3.102-3.103-3.102 1.389-3.102 3.103c0 1.713 1.389 3.102 3.102 3.102z"/><path d="m194.581 486.503c0 1.713 1.389 3.102 3.102 3.102s3.102-1.389 3.102-3.102-1.389-3.102-3.102-3.102-3.102 1.389-3.102 3.102z"/><path d="m211.163 496.127c0-1.713-1.389-3.103-3.102-3.103s-3.102 1.389-3.102 3.103c0 .159.024.312.047.466 1.625.695 3.264 1.365 4.921 1.999.746-.567 1.236-1.456 1.236-2.465z"/><path d="m188.06 479.229c.608 0 1.17-.181 1.649-.483-1.462-.358-2.917-.734-4.36-1.139.527.961 1.537 1.622 2.711 1.622z"/><path d="m168.06 473.024c-.048 0-.094.012-.142.015 1.057.94 2.126 1.867 3.212 2.774-.158-1.564-1.464-2.789-3.07-2.789z"/></g><g fill="#31373d"><path d="m498.964 1.959c-.718-1.214-2.023-1.959-3.433-1.959h-153.412c-1.455 0-2.794.793-3.495 2.067l-80.738 146.843-80.739-146.843-1.137-2.067h-164.004l148.627 270.315c-26.231 25.549-42.551 61.227-42.551 100.649 0 77.506 63.056 140.562 140.561 140.562 77.506 0 140.562-63.056 140.562-140.562 0-40.4-17.139-76.868-44.52-102.532l144.342-262.521c.679-1.236.655-2.739-.063-3.952zm-473.468 6.019h145.797l82.041 149.211-45.477 82.711c-15.174 5.9-29.081 14.356-41.181 24.847zm365.731 362.986c0 73.107-59.477 132.584-132.584 132.584s-132.584-59.477-132.584-132.584 59.477-132.584 132.584-132.584 132.584 59.477 132.584 132.584zm-42.667-107.951c-24.388-20.348-55.746-32.61-89.918-32.61-13.741 0-27.024 1.991-39.586 5.684l125.422-228.109h144.308z"/><path d="m258.643 480.026c-60.137 0-109.061-48.924-109.061-109.061s48.924-109.062 109.061-109.062 109.061 48.925 109.061 109.062c0 60.136-48.925 109.061-109.061 109.061zm0-210.146c-55.738 0-101.083 45.346-101.083 101.084s45.346 101.083 101.083 101.083c55.738 0 101.084-45.346 101.084-101.083-.001-55.737-45.346-101.084-101.084-101.084z"/><path d="m304.221 450.174c-2.49 0-4.992-.6-7.305-1.816l-34.696-18.241c-2.24-1.177-4.915-1.177-7.155 0l-34.696 18.241c-5.315 2.794-11.637 2.339-16.498-1.192-4.859-3.531-7.247-9.402-6.232-15.322l6.626-38.635c.428-2.494-.399-5.038-2.211-6.805l-28.07-27.361c-4.301-4.193-5.82-10.346-3.964-16.059s6.702-9.798 12.646-10.662l38.791-5.637c2.505-.364 4.669-1.935 5.788-4.205l17.348-35.152c2.659-5.386 8.041-8.732 14.048-8.732s11.389 3.346 14.048 8.732l17.348 35.151c1.12 2.27 3.284 3.842 5.788 4.205l38.792 5.637c5.944.864 10.79 4.949 12.646 10.662 1.856 5.712.337 11.866-3.964 16.059l-28.069 27.361c-1.812 1.767-2.639 4.311-2.211 6.806l6.626 38.634c1.015 5.92-1.373 11.792-6.232 15.322-2.745 1.996-5.957 3.009-9.192 3.009zm-45.578-28.917c2.504 0 5.007.599 7.29 1.8l34.696 18.241c2.648 1.392 5.675 1.173 8.096-.585 2.421-1.759 3.565-4.57 3.059-7.519l-6.626-38.634c-.872-5.083.813-10.267 4.505-13.866l28.07-27.361c2.143-2.089 2.87-5.035 1.945-7.881s-3.245-4.802-6.206-5.232l-38.791-5.637c-5.103-.741-9.513-3.944-11.795-8.57l-17.348-35.151c-1.324-2.684-3.902-4.286-6.894-4.286-2.993 0-5.57 1.602-6.894 4.286l-17.35 35.149c-2.282 4.625-6.692 7.828-11.796 8.569l-38.791 5.637c-2.961.431-5.282 2.386-6.206 5.232-.925 2.846-.198 5.792 1.945 7.881l28.07 27.361c3.693 3.6 5.377 8.784 4.505 13.866l-6.626 38.634c-.506 2.949.637 5.76 3.059 7.519 2.42 1.758 5.448 1.976 8.096.585l34.696-18.241c2.283-1.197 4.787-1.797 7.291-1.797z"/></g></g></svg>