<svg id="Capa_1" enable-background="new 0 0 511.903 511.903" height="512" viewBox="0 0 511.903 511.903" width="512" xmlns="http://www.w3.org/2000/svg"><g><path d="m340.095 306.949v-163.602h-168.048v86.247h-168.047v199.168h168.047 168.048 168.048l-.227-121.813z" fill="#eaa895"/><g fill="#f9fbfc"><g><path d="m506.705 315.606c-1.713 0-3.102 1.389-3.102 3.103s1.389 3.102 3.102 3.102c.781 0 1.486-.298 2.031-.774v-4.655c-.545-.477-1.25-.776-2.031-.776z"/><path d="m506.705 335.606c-1.713 0-3.102 1.389-3.102 3.103s1.389 3.102 3.102 3.102c.781 0 1.486-.298 2.031-.774v-4.655c-.545-.477-1.25-.776-2.031-.776z"/><path d="m506.705 355.606c-1.713 0-3.102 1.389-3.102 3.103s1.389 3.102 3.102 3.102c.781 0 1.486-.298 2.031-.774v-4.655c-.545-.477-1.25-.776-2.031-.776z"/><path d="m506.705 375.606c-1.713 0-3.102 1.389-3.102 3.103s1.389 3.102 3.102 3.102c.781 0 1.486-.298 2.031-.774v-4.655c-.545-.477-1.25-.776-2.031-.776z"/><path d="m506.705 395.606c-1.713 0-3.102 1.389-3.102 3.103s1.389 3.102 3.102 3.102c.781 0 1.486-.298 2.031-.774v-4.655c-.545-.477-1.25-.776-2.031-.776z"/><path d="m503.602 418.709c0 1.713 1.389 3.102 3.102 3.102.781 0 1.486-.298 2.031-.774v-4.655c-.545-.477-1.25-.775-2.031-.775-1.713-.001-3.102 1.388-3.102 3.102z"/><path d="m493.979 308.332c0 1.713 1.389 3.102 3.102 3.102s3.102-1.389 3.102-3.102c0-.5-.129-.965-.339-1.383h-5.526c-.21.418-.339.883-.339 1.383z"/><path d="m486.705 315.606c-1.713 0-3.102 1.389-3.102 3.103s1.389 3.102 3.102 3.102 3.102-1.389 3.102-3.102-1.389-3.103-3.102-3.103z"/><path d="m497.081 325.23c-1.713 0-3.102 1.389-3.102 3.103 0 1.713 1.389 3.102 3.102 3.102s3.102-1.389 3.102-3.102c.001-1.714-1.389-3.103-3.102-3.103z"/><path d="m486.705 335.606c-1.713 0-3.102 1.389-3.102 3.103s1.389 3.102 3.102 3.102 3.102-1.389 3.102-3.102-1.389-3.103-3.102-3.103z"/><path d="m497.081 345.23c-1.713 0-3.102 1.389-3.102 3.103 0 1.713 1.389 3.102 3.102 3.102s3.102-1.389 3.102-3.102c.001-1.714-1.389-3.103-3.102-3.103z"/><path d="m486.705 355.606c-1.713 0-3.102 1.389-3.102 3.103s1.389 3.102 3.102 3.102 3.102-1.389 3.102-3.102-1.389-3.103-3.102-3.103z"/><path d="m497.081 365.23c-1.713 0-3.102 1.389-3.102 3.103 0 1.713 1.389 3.102 3.102 3.102s3.102-1.389 3.102-3.102c.001-1.714-1.389-3.103-3.102-3.103z"/><path d="m486.705 375.606c-1.713 0-3.102 1.389-3.102 3.103s1.389 3.102 3.102 3.102 3.102-1.389 3.102-3.102-1.389-3.103-3.102-3.103z"/><path d="m497.081 385.23c-1.713 0-3.102 1.389-3.102 3.103 0 1.713 1.389 3.102 3.102 3.102s3.102-1.389 3.102-3.102c.001-1.714-1.389-3.103-3.102-3.103z"/><path d="m486.705 395.606c-1.713 0-3.102 1.389-3.102 3.103s1.389 3.102 3.102 3.102 3.102-1.389 3.102-3.102-1.389-3.103-3.102-3.103z"/><path d="m497.081 405.23c-1.713 0-3.102 1.389-3.102 3.103 0 1.713 1.389 3.102 3.102 3.102s3.102-1.389 3.102-3.102c.001-1.714-1.389-3.103-3.102-3.103z"/><path d="m486.705 415.606c-1.713 0-3.102 1.389-3.102 3.103s1.389 3.102 3.102 3.102 3.102-1.389 3.102-3.102-1.389-3.103-3.102-3.103z"/><path d="m500.184 428.332c0-1.713-1.389-3.103-3.102-3.103s-3.102 1.389-3.102 3.103c0 .147.023.288.043.429h6.118c.019-.141.043-.282.043-.429z"/><path d="m473.979 308.332c0 1.713 1.389 3.102 3.102 3.102s3.102-1.389 3.102-3.102c0-.5-.129-.965-.339-1.383h-5.526c-.21.418-.339.883-.339 1.383z"/><path d="m466.705 315.606c-1.713 0-3.102 1.389-3.102 3.103s1.389 3.102 3.102 3.102 3.102-1.389 3.102-3.102-1.389-3.103-3.102-3.103z"/><path d="m477.081 325.23c-1.713 0-3.102 1.389-3.102 3.103 0 1.713 1.389 3.102 3.102 3.102s3.102-1.389 3.102-3.102c.001-1.714-1.389-3.103-3.102-3.103z"/><path d="m466.705 335.606c-1.713 0-3.102 1.389-3.102 3.103s1.389 3.102 3.102 3.102 3.102-1.389 3.102-3.102-1.389-3.103-3.102-3.103z"/><path d="m477.081 345.23c-1.713 0-3.102 1.389-3.102 3.103 0 1.713 1.389 3.102 3.102 3.102s3.102-1.389 3.102-3.102c.001-1.714-1.389-3.103-3.102-3.103z"/><path d="m466.705 355.606c-1.713 0-3.102 1.389-3.102 3.103s1.389 3.102 3.102 3.102 3.102-1.389 3.102-3.102-1.389-3.103-3.102-3.103z"/><path d="m477.081 365.23c-1.713 0-3.102 1.389-3.102 3.103 0 1.713 1.389 3.102 3.102 3.102s3.102-1.389 3.102-3.102c.001-1.714-1.389-3.103-3.102-3.103z"/><path d="m466.705 375.606c-1.713 0-3.102 1.389-3.102 3.103s1.389 3.102 3.102 3.102 3.102-1.389 3.102-3.102-1.389-3.103-3.102-3.103z"/><path d="m477.081 385.23c-1.713 0-3.102 1.389-3.102 3.103 0 1.713 1.389 3.102 3.102 3.102s3.102-1.389 3.102-3.102c.001-1.714-1.389-3.103-3.102-3.103z"/><path d="m466.705 395.606c-1.713 0-3.102 1.389-3.102 3.103s1.389 3.102 3.102 3.102 3.102-1.389 3.102-3.102-1.389-3.103-3.102-3.103z"/><path d="m477.081 405.23c-1.713 0-3.102 1.389-3.102 3.103 0 1.713 1.389 3.102 3.102 3.102s3.102-1.389 3.102-3.102c.001-1.714-1.389-3.103-3.102-3.103z"/><path d="m466.705 415.606c-1.713 0-3.102 1.389-3.102 3.103s1.389 3.102 3.102 3.102 3.102-1.389 3.102-3.102-1.389-3.103-3.102-3.103z"/><path d="m480.184 428.332c0-1.713-1.389-3.103-3.102-3.103s-3.102 1.389-3.102 3.103c0 .147.023.288.043.429h6.118c.019-.141.043-.282.043-.429z"/><path d="m453.979 308.332c0 1.713 1.389 3.102 3.102 3.102s3.102-1.389 3.102-3.102c0-.5-.129-.965-.339-1.383h-5.526c-.21.418-.339.883-.339 1.383z"/><path d="m444.484 320.87c.564.579 1.349.941 2.221.941 1.713 0 3.102-1.389 3.102-3.102s-1.389-3.103-3.102-3.103c-.872 0-1.657.362-2.221.941z"/><path d="m457.081 325.23c-1.713 0-3.102 1.389-3.102 3.103 0 1.713 1.389 3.102 3.102 3.102s3.102-1.389 3.102-3.102c.001-1.714-1.389-3.103-3.102-3.103z"/><path d="m446.705 341.811c1.713 0 3.102-1.389 3.102-3.102s-1.389-3.103-3.102-3.103c-.872 0-1.657.362-2.221.941v4.322c.564.58 1.349.942 2.221.942z"/><path d="m457.081 345.23c-1.713 0-3.102 1.389-3.102 3.103 0 1.713 1.389 3.102 3.102 3.102s3.102-1.389 3.102-3.102c.001-1.714-1.389-3.103-3.102-3.103z"/><path d="m446.705 361.811c1.713 0 3.102-1.389 3.102-3.102s-1.389-3.103-3.102-3.103c-.872 0-1.657.362-2.221.941v4.322c.564.58 1.349.942 2.221.942z"/><path d="m457.081 365.23c-1.713 0-3.102 1.389-3.102 3.103 0 1.713 1.389 3.102 3.102 3.102s3.102-1.389 3.102-3.102c.001-1.714-1.389-3.103-3.102-3.103z"/><path d="m446.705 381.811c1.713 0 3.102-1.389 3.102-3.102s-1.389-3.103-3.102-3.103c-.872 0-1.657.362-2.221.941v4.322c.564.58 1.349.942 2.221.942z"/><path d="m457.081 385.23c-1.713 0-3.102 1.389-3.102 3.103 0 1.713 1.389 3.102 3.102 3.102s3.102-1.389 3.102-3.102c.001-1.714-1.389-3.103-3.102-3.103z"/><path d="m446.705 401.811c1.713 0 3.102-1.389 3.102-3.102s-1.389-3.103-3.102-3.103c-.872 0-1.657.362-2.221.941v4.322c.564.58 1.349.942 2.221.942z"/><path d="m457.081 405.23c-1.713 0-3.102 1.389-3.102 3.103 0 1.713 1.389 3.102 3.102 3.102s3.102-1.389 3.102-3.102c.001-1.714-1.389-3.103-3.102-3.103z"/><path d="m446.705 421.811c1.713 0 3.102-1.389 3.102-3.102s-1.389-3.103-3.102-3.103c-.872 0-1.657.362-2.221.941v4.322c.564.58 1.349.942 2.221.942z"/><path d="m460.184 428.332c0-1.713-1.389-3.103-3.102-3.103s-3.102 1.389-3.102 3.103c0 .147.023.288.043.429h6.118c.019-.141.043-.282.043-.429z"/></g><g><path d="m337.081 145.23c-1.713 0-3.102 1.389-3.102 3.103 0 1.713 1.389 3.102 3.102 3.102.479 0 .927-.118 1.333-.311v-5.581c-.405-.196-.854-.313-1.333-.313z"/><path d="m326.705 155.606c-1.713 0-3.102 1.389-3.102 3.102s1.389 3.102 3.102 3.102 3.102-1.389 3.102-3.102-1.389-3.102-3.102-3.102z"/><path d="m337.081 165.23c-1.713 0-3.102 1.389-3.102 3.103 0 1.713 1.389 3.102 3.102 3.102.479 0 .927-.118 1.333-.311v-5.581c-.405-.196-.854-.313-1.333-.313z"/><path d="m326.705 175.606c-1.713 0-3.102 1.389-3.102 3.102s1.389 3.102 3.102 3.102 3.102-1.389 3.102-3.102-1.389-3.102-3.102-3.102z"/><path d="m337.081 185.23c-1.713 0-3.102 1.389-3.102 3.103 0 1.713 1.389 3.102 3.102 3.102.479 0 .927-.118 1.333-.311v-5.581c-.405-.196-.854-.313-1.333-.313z"/><path d="m326.705 195.606c-1.713 0-3.102 1.389-3.102 3.102s1.389 3.102 3.102 3.102 3.102-1.389 3.102-3.102-1.389-3.102-3.102-3.102z"/><path d="m337.081 205.23c-1.713 0-3.102 1.389-3.102 3.103 0 1.713 1.389 3.102 3.102 3.102.479 0 .927-.118 1.333-.311v-5.581c-.405-.196-.854-.313-1.333-.313z"/><path d="m326.705 215.606c-1.713 0-3.102 1.389-3.102 3.102s1.389 3.102 3.102 3.102 3.102-1.389 3.102-3.102-1.389-3.102-3.102-3.102z"/><path d="m337.081 225.23c-1.713 0-3.102 1.389-3.102 3.103 0 1.713 1.389 3.102 3.102 3.102.479 0 .927-.118 1.333-.311v-5.581c-.405-.196-.854-.313-1.333-.313z"/><path d="m326.705 235.606c-1.713 0-3.102 1.389-3.102 3.102s1.389 3.102 3.102 3.102 3.102-1.389 3.102-3.102-1.389-3.102-3.102-3.102z"/><path d="m337.081 245.23c-1.713 0-3.102 1.389-3.102 3.103 0 1.713 1.389 3.102 3.102 3.102.479 0 .927-.118 1.333-.311v-5.581c-.405-.196-.854-.313-1.333-.313z"/><path d="m326.705 255.606c-1.713 0-3.102 1.389-3.102 3.102s1.389 3.102 3.102 3.102 3.102-1.389 3.102-3.102-1.389-3.102-3.102-3.102z"/><path d="m337.081 265.23c-1.713 0-3.102 1.389-3.102 3.103 0 1.713 1.389 3.102 3.102 3.102.479 0 .927-.118 1.333-.312v-5.581c-.405-.195-.854-.312-1.333-.312z"/><path d="m326.705 275.606c-1.713 0-3.102 1.389-3.102 3.103s1.389 3.102 3.102 3.102 3.102-1.389 3.102-3.102-1.389-3.103-3.102-3.103z"/><path d="m337.081 285.23c-1.713 0-3.102 1.389-3.102 3.103 0 1.713 1.389 3.102 3.102 3.102.479 0 .927-.118 1.333-.312v-5.581c-.405-.195-.854-.312-1.333-.312z"/><path d="m326.705 295.606c-1.713 0-3.102 1.389-3.102 3.103s1.389 3.102 3.102 3.102 3.102-1.389 3.102-3.102-1.389-3.103-3.102-3.103z"/><path d="m337.081 305.23c-1.713 0-3.102 1.389-3.102 3.103 0 1.713 1.389 3.102 3.102 3.102.479 0 .927-.118 1.333-.312v-5.581c-.405-.195-.854-.312-1.333-.312z"/><path d="m326.705 315.606c-1.713 0-3.102 1.389-3.102 3.103s1.389 3.102 3.102 3.102 3.102-1.389 3.102-3.102-1.389-3.103-3.102-3.103z"/><path d="m337.081 325.23c-1.713 0-3.102 1.389-3.102 3.103 0 1.713 1.389 3.102 3.102 3.102.479 0 .927-.118 1.333-.312v-5.581c-.405-.195-.854-.312-1.333-.312z"/><path d="m326.705 335.606c-1.713 0-3.102 1.389-3.102 3.103s1.389 3.102 3.102 3.102 3.102-1.389 3.102-3.102-1.389-3.103-3.102-3.103z"/><path d="m337.081 345.23c-1.713 0-3.102 1.389-3.102 3.103 0 1.713 1.389 3.102 3.102 3.102.479 0 .927-.118 1.333-.312v-5.581c-.405-.195-.854-.312-1.333-.312z"/><path d="m326.705 355.606c-1.713 0-3.102 1.389-3.102 3.103s1.389 3.102 3.102 3.102 3.102-1.389 3.102-3.102-1.389-3.103-3.102-3.103z"/><path d="m337.081 365.23c-1.713 0-3.102 1.389-3.102 3.103 0 1.713 1.389 3.102 3.102 3.102.479 0 .927-.118 1.333-.312v-5.581c-.405-.195-.854-.312-1.333-.312z"/><path d="m326.705 375.606c-1.713 0-3.102 1.389-3.102 3.103s1.389 3.102 3.102 3.102 3.102-1.389 3.102-3.102-1.389-3.103-3.102-3.103z"/><path d="m337.081 385.23c-1.713 0-3.102 1.389-3.102 3.103 0 1.713 1.389 3.102 3.102 3.102.479 0 .927-.118 1.333-.312v-5.581c-.405-.195-.854-.312-1.333-.312z"/><path d="m326.705 395.606c-1.713 0-3.102 1.389-3.102 3.103s1.389 3.102 3.102 3.102 3.102-1.389 3.102-3.102-1.389-3.103-3.102-3.103z"/><path d="m333.979 408.332c0 1.713 1.389 3.102 3.102 3.102.479 0 .927-.118 1.333-.312v-5.581c-.405-.194-.854-.312-1.333-.312-1.713.001-3.102 1.39-3.102 3.103z"/><path d="m326.705 415.606c-1.713 0-3.102 1.389-3.102 3.103s1.389 3.102 3.102 3.102 3.102-1.389 3.102-3.102-1.389-3.103-3.102-3.103z"/><path d="m338.414 425.542c-.405-.194-.854-.312-1.333-.312-1.713 0-3.102 1.389-3.102 3.103 0 .147.023.288.043.429h4.392z"/><path d="m317.081 145.23c-1.713 0-3.102 1.389-3.102 3.103 0 1.713 1.389 3.102 3.102 3.102s3.102-1.389 3.102-3.102c.001-1.714-1.389-3.103-3.102-3.103z"/><path d="m306.705 155.606c-1.713 0-3.102 1.389-3.102 3.102s1.389 3.102 3.102 3.102 3.102-1.389 3.102-3.102-1.389-3.102-3.102-3.102z"/><path d="m317.081 165.23c-1.713 0-3.102 1.389-3.102 3.103 0 1.713 1.389 3.102 3.102 3.102s3.102-1.389 3.102-3.102c.001-1.714-1.389-3.103-3.102-3.103z"/><path d="m306.705 175.606c-1.713 0-3.102 1.389-3.102 3.102s1.389 3.102 3.102 3.102 3.102-1.389 3.102-3.102-1.389-3.102-3.102-3.102z"/><path d="m317.081 185.23c-1.713 0-3.102 1.389-3.102 3.103 0 1.713 1.389 3.102 3.102 3.102s3.102-1.389 3.102-3.102c.001-1.714-1.389-3.103-3.102-3.103z"/><path d="m306.705 195.606c-1.713 0-3.102 1.389-3.102 3.102s1.389 3.102 3.102 3.102 3.102-1.389 3.102-3.102-1.389-3.102-3.102-3.102z"/><path d="m317.081 205.23c-1.713 0-3.102 1.389-3.102 3.103 0 1.713 1.389 3.102 3.102 3.102s3.102-1.389 3.102-3.102c.001-1.714-1.389-3.103-3.102-3.103z"/><path d="m306.705 215.606c-1.713 0-3.102 1.389-3.102 3.102s1.389 3.102 3.102 3.102 3.102-1.389 3.102-3.102-1.389-3.102-3.102-3.102z"/><path d="m317.081 225.23c-1.713 0-3.102 1.389-3.102 3.103 0 1.713 1.389 3.102 3.102 3.102s3.102-1.389 3.102-3.102c.001-1.714-1.389-3.103-3.102-3.103z"/><path d="m306.705 235.606c-1.713 0-3.102 1.389-3.102 3.102s1.389 3.102 3.102 3.102 3.102-1.389 3.102-3.102-1.389-3.102-3.102-3.102z"/><path d="m317.081 245.23c-1.713 0-3.102 1.389-3.102 3.103 0 1.713 1.389 3.102 3.102 3.102s3.102-1.389 3.102-3.102c.001-1.714-1.389-3.103-3.102-3.103z"/><path d="m306.705 255.606c-1.713 0-3.102 1.389-3.102 3.102s1.389 3.102 3.102 3.102 3.102-1.389 3.102-3.102-1.389-3.102-3.102-3.102z"/><path d="m317.081 265.23c-1.713 0-3.102 1.389-3.102 3.103 0 1.713 1.389 3.102 3.102 3.102s3.102-1.389 3.102-3.102c.001-1.714-1.389-3.103-3.102-3.103z"/><path d="m306.705 275.606c-1.713 0-3.102 1.389-3.102 3.103s1.389 3.102 3.102 3.102 3.102-1.389 3.102-3.102-1.389-3.103-3.102-3.103z"/><path d="m317.081 285.23c-1.713 0-3.102 1.389-3.102 3.103 0 1.713 1.389 3.102 3.102 3.102s3.102-1.389 3.102-3.102c.001-1.714-1.389-3.103-3.102-3.103z"/><path d="m306.705 295.606c-1.713 0-3.102 1.389-3.102 3.103s1.389 3.102 3.102 3.102 3.102-1.389 3.102-3.102-1.389-3.103-3.102-3.103z"/><path d="m317.081 305.23c-1.713 0-3.102 1.389-3.102 3.103 0 1.713 1.389 3.102 3.102 3.102s3.102-1.389 3.102-3.102c.001-1.714-1.389-3.103-3.102-3.103z"/><path d="m306.705 315.606c-1.713 0-3.102 1.389-3.102 3.103s1.389 3.102 3.102 3.102 3.102-1.389 3.102-3.102-1.389-3.103-3.102-3.103z"/><path d="m317.081 325.23c-1.713 0-3.102 1.389-3.102 3.103 0 1.713 1.389 3.102 3.102 3.102s3.102-1.389 3.102-3.102c.001-1.714-1.389-3.103-3.102-3.103z"/><path d="m306.705 335.606c-1.713 0-3.102 1.389-3.102 3.103s1.389 3.102 3.102 3.102 3.102-1.389 3.102-3.102-1.389-3.103-3.102-3.103z"/><path d="m317.081 345.23c-1.713 0-3.102 1.389-3.102 3.103 0 1.713 1.389 3.102 3.102 3.102s3.102-1.389 3.102-3.102c.001-1.714-1.389-3.103-3.102-3.103z"/><path d="m306.705 355.606c-1.713 0-3.102 1.389-3.102 3.103s1.389 3.102 3.102 3.102 3.102-1.389 3.102-3.102-1.389-3.103-3.102-3.103z"/><path d="m317.081 365.23c-1.713 0-3.102 1.389-3.102 3.103 0 1.713 1.389 3.102 3.102 3.102s3.102-1.389 3.102-3.102c.001-1.714-1.389-3.103-3.102-3.103z"/><path d="m306.705 375.606c-1.713 0-3.102 1.389-3.102 3.103s1.389 3.102 3.102 3.102 3.102-1.389 3.102-3.102-1.389-3.103-3.102-3.103z"/><path d="m317.081 385.23c-1.713 0-3.102 1.389-3.102 3.103 0 1.713 1.389 3.102 3.102 3.102s3.102-1.389 3.102-3.102c.001-1.714-1.389-3.103-3.102-3.103z"/><path d="m306.705 395.606c-1.713 0-3.102 1.389-3.102 3.103s1.389 3.102 3.102 3.102 3.102-1.389 3.102-3.102-1.389-3.103-3.102-3.103z"/><path d="m317.081 405.23c-1.713 0-3.102 1.389-3.102 3.103 0 1.713 1.389 3.102 3.102 3.102s3.102-1.389 3.102-3.102c.001-1.714-1.389-3.103-3.102-3.103z"/><path d="m306.705 415.606c-1.713 0-3.102 1.389-3.102 3.103s1.389 3.102 3.102 3.102 3.102-1.389 3.102-3.102-1.389-3.103-3.102-3.103z"/><path d="m320.184 428.332c0-1.713-1.389-3.103-3.102-3.103s-3.102 1.389-3.102 3.103c0 .147.023.288.043.429h6.118c.019-.141.043-.282.043-.429z"/><path d="m297.081 145.23c-1.713 0-3.102 1.389-3.102 3.103 0 1.713 1.389 3.102 3.102 3.102s3.102-1.389 3.102-3.102c.001-1.714-1.389-3.103-3.102-3.103z"/><path d="m286.705 155.606c-1.713 0-3.102 1.389-3.102 3.102s1.389 3.102 3.102 3.102 3.102-1.389 3.102-3.102-1.389-3.102-3.102-3.102z"/><path d="m297.081 165.23c-1.713 0-3.102 1.389-3.102 3.103 0 1.713 1.389 3.102 3.102 3.102s3.102-1.389 3.102-3.102c.001-1.714-1.389-3.103-3.102-3.103z"/><path d="m286.705 175.606c-1.713 0-3.102 1.389-3.102 3.102s1.389 3.102 3.102 3.102 3.102-1.389 3.102-3.102-1.389-3.102-3.102-3.102z"/><path d="m297.081 185.23c-1.713 0-3.102 1.389-3.102 3.103 0 1.713 1.389 3.102 3.102 3.102s3.102-1.389 3.102-3.102c.001-1.714-1.389-3.103-3.102-3.103z"/><path d="m286.705 195.606c-1.713 0-3.102 1.389-3.102 3.102s1.389 3.102 3.102 3.102 3.102-1.389 3.102-3.102-1.389-3.102-3.102-3.102z"/><path d="m297.081 205.23c-1.713 0-3.102 1.389-3.102 3.103 0 1.713 1.389 3.102 3.102 3.102s3.102-1.389 3.102-3.102c.001-1.714-1.389-3.103-3.102-3.103z"/><path d="m286.705 215.606c-1.713 0-3.102 1.389-3.102 3.102s1.389 3.102 3.102 3.102 3.102-1.389 3.102-3.102-1.389-3.102-3.102-3.102z"/><path d="m297.081 225.23c-1.713 0-3.102 1.389-3.102 3.103 0 1.713 1.389 3.102 3.102 3.102s3.102-1.389 3.102-3.102c.001-1.714-1.389-3.103-3.102-3.103z"/><path d="m286.705 235.606c-1.713 0-3.102 1.389-3.102 3.102s1.389 3.102 3.102 3.102 3.102-1.389 3.102-3.102-1.389-3.102-3.102-3.102z"/><path d="m297.081 245.23c-1.713 0-3.102 1.389-3.102 3.103 0 1.713 1.389 3.102 3.102 3.102s3.102-1.389 3.102-3.102c.001-1.714-1.389-3.103-3.102-3.103z"/><path d="m286.705 255.606c-1.713 0-3.102 1.389-3.102 3.102s1.389 3.102 3.102 3.102 3.102-1.389 3.102-3.102-1.389-3.102-3.102-3.102z"/><path d="m297.081 265.23c-1.713 0-3.102 1.389-3.102 3.103 0 1.713 1.389 3.102 3.102 3.102s3.102-1.389 3.102-3.102c.001-1.714-1.389-3.103-3.102-3.103z"/><path d="m286.705 275.606c-1.713 0-3.102 1.389-3.102 3.103s1.389 3.102 3.102 3.102 3.102-1.389 3.102-3.102-1.389-3.103-3.102-3.103z"/><path d="m297.081 285.23c-1.713 0-3.102 1.389-3.102 3.103 0 1.713 1.389 3.102 3.102 3.102s3.102-1.389 3.102-3.102c.001-1.714-1.389-3.103-3.102-3.103z"/><path d="m286.705 295.606c-1.713 0-3.102 1.389-3.102 3.103s1.389 3.102 3.102 3.102 3.102-1.389 3.102-3.102-1.389-3.103-3.102-3.103z"/><path d="m297.081 305.23c-1.713 0-3.102 1.389-3.102 3.103 0 1.713 1.389 3.102 3.102 3.102s3.102-1.389 3.102-3.102c.001-1.714-1.389-3.103-3.102-3.103z"/><path d="m286.705 315.606c-1.713 0-3.102 1.389-3.102 3.103s1.389 3.102 3.102 3.102 3.102-1.389 3.102-3.102-1.389-3.103-3.102-3.103z"/><path d="m297.081 325.23c-1.713 0-3.102 1.389-3.102 3.103 0 1.713 1.389 3.102 3.102 3.102s3.102-1.389 3.102-3.102c.001-1.714-1.389-3.103-3.102-3.103z"/><path d="m286.705 335.606c-1.713 0-3.102 1.389-3.102 3.103s1.389 3.102 3.102 3.102 3.102-1.389 3.102-3.102-1.389-3.103-3.102-3.103z"/><path d="m297.081 345.23c-1.713 0-3.102 1.389-3.102 3.103 0 1.713 1.389 3.102 3.102 3.102s3.102-1.389 3.102-3.102c.001-1.714-1.389-3.103-3.102-3.103z"/><path d="m286.705 355.606c-1.713 0-3.102 1.389-3.102 3.103s1.389 3.102 3.102 3.102 3.102-1.389 3.102-3.102-1.389-3.103-3.102-3.103z"/><path d="m297.081 365.23c-1.713 0-3.102 1.389-3.102 3.103 0 1.713 1.389 3.102 3.102 3.102s3.102-1.389 3.102-3.102c.001-1.714-1.389-3.103-3.102-3.103z"/><path d="m286.705 375.606c-1.713 0-3.102 1.389-3.102 3.103s1.389 3.102 3.102 3.102 3.102-1.389 3.102-3.102-1.389-3.103-3.102-3.103z"/><path d="m297.081 385.23c-1.713 0-3.102 1.389-3.102 3.103 0 1.713 1.389 3.102 3.102 3.102s3.102-1.389 3.102-3.102c.001-1.714-1.389-3.103-3.102-3.103z"/><path d="m286.705 395.606c-1.713 0-3.102 1.389-3.102 3.103s1.389 3.102 3.102 3.102 3.102-1.389 3.102-3.102-1.389-3.103-3.102-3.103z"/><path d="m297.081 405.23c-1.713 0-3.102 1.389-3.102 3.103 0 1.713 1.389 3.102 3.102 3.102s3.102-1.389 3.102-3.102c.001-1.714-1.389-3.103-3.102-3.103z"/><path d="m286.705 415.606c-1.713 0-3.102 1.389-3.102 3.103s1.389 3.102 3.102 3.102 3.102-1.389 3.102-3.102-1.389-3.103-3.102-3.103z"/><path d="m300.184 428.332c0-1.713-1.389-3.103-3.102-3.103s-3.102 1.389-3.102 3.103c0 .147.023.288.043.429h6.118c.019-.141.043-.282.043-.429z"/><path d="m277.081 151.434c1.713 0 3.102-1.389 3.102-3.102s-1.389-3.103-3.102-3.103c-1.357 0-2.498.877-2.919 2.09v2.024c.421 1.215 1.562 2.091 2.919 2.091z"/><path d="m277.081 171.434c1.713 0 3.102-1.389 3.102-3.102s-1.389-3.103-3.102-3.103c-1.357 0-2.498.877-2.919 2.09v2.024c.421 1.215 1.562 2.091 2.919 2.091z"/><path d="m277.081 191.434c1.713 0 3.102-1.389 3.102-3.102s-1.389-3.103-3.102-3.103c-1.357 0-2.498.877-2.919 2.09v2.024c.421 1.215 1.562 2.091 2.919 2.091z"/><path d="m277.081 211.434c1.713 0 3.102-1.389 3.102-3.102s-1.389-3.103-3.102-3.103c-1.357 0-2.498.877-2.919 2.09v2.024c.421 1.215 1.562 2.091 2.919 2.091z"/><path d="m277.081 231.434c1.713 0 3.102-1.389 3.102-3.102s-1.389-3.103-3.102-3.103c-1.357 0-2.498.877-2.919 2.09v2.024c.421 1.215 1.562 2.091 2.919 2.091z"/><path d="m277.081 251.434c1.713 0 3.102-1.389 3.102-3.102s-1.389-3.103-3.102-3.103c-1.357 0-2.498.877-2.919 2.09v2.024c.421 1.215 1.562 2.091 2.919 2.091z"/><path d="m277.081 271.434c1.713 0 3.102-1.389 3.102-3.102s-1.389-3.103-3.102-3.103c-1.357 0-2.498.877-2.919 2.09v2.024c.421 1.215 1.562 2.091 2.919 2.091z"/><path d="m277.081 291.434c1.713 0 3.102-1.389 3.102-3.102s-1.389-3.103-3.102-3.103c-1.357 0-2.498.877-2.919 2.09v2.024c.421 1.215 1.562 2.091 2.919 2.091z"/><path d="m277.081 311.434c1.713 0 3.102-1.389 3.102-3.102s-1.389-3.103-3.102-3.103c-1.357 0-2.498.877-2.919 2.09v2.024c.421 1.215 1.562 2.091 2.919 2.091z"/><path d="m277.081 331.434c1.713 0 3.102-1.389 3.102-3.102s-1.389-3.103-3.102-3.103c-1.357 0-2.498.877-2.919 2.09v2.024c.421 1.215 1.562 2.091 2.919 2.091z"/><path d="m277.081 351.434c1.713 0 3.102-1.389 3.102-3.102s-1.389-3.103-3.102-3.103c-1.357 0-2.498.877-2.919 2.09v2.024c.421 1.215 1.562 2.091 2.919 2.091z"/><path d="m277.081 371.434c1.713 0 3.102-1.389 3.102-3.102s-1.389-3.103-3.102-3.103c-1.357 0-2.498.877-2.919 2.09v2.024c.421 1.215 1.562 2.091 2.919 2.091z"/><path d="m277.081 391.434c1.713 0 3.102-1.389 3.102-3.102s-1.389-3.103-3.102-3.103c-1.357 0-2.498.877-2.919 2.09v2.024c.421 1.215 1.562 2.091 2.919 2.091z"/><path d="m277.081 411.434c1.713 0 3.102-1.389 3.102-3.102s-1.389-3.103-3.102-3.103c-1.357 0-2.498.877-2.919 2.09v2.024c.421 1.215 1.562 2.091 2.919 2.091z"/><path d="m280.184 428.332c0-1.713-1.389-3.103-3.102-3.103-1.357 0-2.498.877-2.919 2.09v1.441h5.978c.019-.14.043-.281.043-.428z"/></g><g><path d="m166.705 235.606c-1.713 0-3.102 1.389-3.102 3.102s1.389 3.102 3.102 3.102 3.102-1.389 3.102-3.102-1.389-3.102-3.102-3.102z"/><path d="m166.705 261.811c1.713 0 3.102-1.389 3.102-3.102s-1.389-3.102-3.102-3.102-3.102 1.389-3.102 3.102 1.388 3.102 3.102 3.102z"/><path d="m166.705 281.811c1.713 0 3.102-1.389 3.102-3.102s-1.389-3.103-3.102-3.103-3.102 1.389-3.102 3.103 1.388 3.102 3.102 3.102z"/><path d="m166.705 301.811c1.713 0 3.102-1.389 3.102-3.102s-1.389-3.103-3.102-3.103-3.102 1.389-3.102 3.103 1.388 3.102 3.102 3.102z"/><path d="m166.705 321.811c1.713 0 3.102-1.389 3.102-3.102s-1.389-3.103-3.102-3.103-3.102 1.389-3.102 3.103 1.388 3.102 3.102 3.102z"/><path d="m166.705 341.811c1.713 0 3.102-1.389 3.102-3.102s-1.389-3.103-3.102-3.103-3.102 1.389-3.102 3.103 1.388 3.102 3.102 3.102z"/><path d="m166.705 361.811c1.713 0 3.102-1.389 3.102-3.102s-1.389-3.103-3.102-3.103-3.102 1.389-3.102 3.103 1.388 3.102 3.102 3.102z"/><path d="m166.705 381.811c1.713 0 3.102-1.389 3.102-3.102s-1.389-3.103-3.102-3.103-3.102 1.389-3.102 3.103 1.388 3.102 3.102 3.102z"/><path d="m166.705 401.811c1.713 0 3.102-1.389 3.102-3.102s-1.389-3.103-3.102-3.103-3.102 1.389-3.102 3.103 1.388 3.102 3.102 3.102z"/><path d="m166.705 421.811c1.713 0 3.102-1.389 3.102-3.102s-1.389-3.103-3.102-3.103-3.102 1.389-3.102 3.103 1.388 3.102 3.102 3.102z"/><path d="m157.081 231.434c1.354 0 2.494-.874 2.917-2.083h-5.835c.424 1.21 1.564 2.083 2.918 2.083z"/><path d="m146.705 235.606c-1.713 0-3.102 1.389-3.102 3.102s1.389 3.102 3.102 3.102 3.102-1.389 3.102-3.102-1.389-3.102-3.102-3.102z"/><path d="m157.081 245.23c-1.713 0-3.102 1.389-3.102 3.103 0 1.713 1.389 3.102 3.102 3.102s3.102-1.389 3.102-3.102c.001-1.714-1.389-3.103-3.102-3.103z"/><path d="m146.705 255.606c-1.713 0-3.102 1.389-3.102 3.102s1.389 3.102 3.102 3.102 3.102-1.389 3.102-3.102-1.389-3.102-3.102-3.102z"/><path d="m157.081 265.23c-1.713 0-3.102 1.389-3.102 3.103 0 1.713 1.389 3.102 3.102 3.102s3.102-1.389 3.102-3.102c.001-1.714-1.389-3.103-3.102-3.103z"/><path d="m146.705 275.606c-1.713 0-3.102 1.389-3.102 3.103s1.389 3.102 3.102 3.102 3.102-1.389 3.102-3.102-1.389-3.103-3.102-3.103z"/><path d="m157.081 285.23c-1.713 0-3.102 1.389-3.102 3.103 0 1.713 1.389 3.102 3.102 3.102s3.102-1.389 3.102-3.102c.001-1.714-1.389-3.103-3.102-3.103z"/><path d="m146.705 295.606c-1.713 0-3.102 1.389-3.102 3.103s1.389 3.102 3.102 3.102 3.102-1.389 3.102-3.102-1.389-3.103-3.102-3.103z"/><path d="m157.081 305.23c-1.713 0-3.102 1.389-3.102 3.103 0 1.713 1.389 3.102 3.102 3.102s3.102-1.389 3.102-3.102c.001-1.714-1.389-3.103-3.102-3.103z"/><path d="m146.705 315.606c-1.713 0-3.102 1.389-3.102 3.103s1.389 3.102 3.102 3.102 3.102-1.389 3.102-3.102-1.389-3.103-3.102-3.103z"/><path d="m157.081 325.23c-1.713 0-3.102 1.389-3.102 3.103 0 1.713 1.389 3.102 3.102 3.102s3.102-1.389 3.102-3.102c.001-1.714-1.389-3.103-3.102-3.103z"/><path d="m146.705 335.606c-1.713 0-3.102 1.389-3.102 3.103s1.389 3.102 3.102 3.102 3.102-1.389 3.102-3.102-1.389-3.103-3.102-3.103z"/><path d="m157.081 345.23c-1.713 0-3.102 1.389-3.102 3.103 0 1.713 1.389 3.102 3.102 3.102s3.102-1.389 3.102-3.102c.001-1.714-1.389-3.103-3.102-3.103z"/><path d="m146.705 355.606c-1.713 0-3.102 1.389-3.102 3.103s1.389 3.102 3.102 3.102 3.102-1.389 3.102-3.102-1.389-3.103-3.102-3.103z"/><path d="m157.081 365.23c-1.713 0-3.102 1.389-3.102 3.103 0 1.713 1.389 3.102 3.102 3.102s3.102-1.389 3.102-3.102c.001-1.714-1.389-3.103-3.102-3.103z"/><path d="m146.705 375.606c-1.713 0-3.102 1.389-3.102 3.103s1.389 3.102 3.102 3.102 3.102-1.389 3.102-3.102-1.389-3.103-3.102-3.103z"/><path d="m157.081 385.23c-1.713 0-3.102 1.389-3.102 3.103 0 1.713 1.389 3.102 3.102 3.102s3.102-1.389 3.102-3.102c.001-1.714-1.389-3.103-3.102-3.103z"/><path d="m146.705 395.606c-1.713 0-3.102 1.389-3.102 3.103s1.389 3.102 3.102 3.102 3.102-1.389 3.102-3.102-1.389-3.103-3.102-3.103z"/><path d="m157.081 405.23c-1.713 0-3.102 1.389-3.102 3.103 0 1.713 1.389 3.102 3.102 3.102s3.102-1.389 3.102-3.102c.001-1.714-1.389-3.103-3.102-3.103z"/><path d="m146.705 415.606c-1.713 0-3.102 1.389-3.102 3.103s1.389 3.102 3.102 3.102 3.102-1.389 3.102-3.102-1.389-3.103-3.102-3.103z"/><path d="m160.184 428.332c0-1.713-1.389-3.103-3.102-3.103s-3.102 1.389-3.102 3.103c0 .147.023.288.043.429h6.118c.019-.141.043-.282.043-.429z"/><path d="m137.081 231.434c1.354 0 2.494-.874 2.917-2.083h-5.835c.424 1.21 1.564 2.083 2.918 2.083z"/><path d="m126.705 235.606c-1.713 0-3.102 1.389-3.102 3.102s1.389 3.102 3.102 3.102 3.102-1.389 3.102-3.102-1.389-3.102-3.102-3.102z"/><path d="m137.081 245.23c-1.713 0-3.102 1.389-3.102 3.103 0 1.713 1.389 3.102 3.102 3.102s3.102-1.389 3.102-3.102c.001-1.714-1.389-3.103-3.102-3.103z"/><path d="m126.705 255.606c-1.713 0-3.102 1.389-3.102 3.102s1.389 3.102 3.102 3.102 3.102-1.389 3.102-3.102-1.389-3.102-3.102-3.102z"/><path d="m137.081 265.23c-1.713 0-3.102 1.389-3.102 3.103 0 1.713 1.389 3.102 3.102 3.102s3.102-1.389 3.102-3.102c.001-1.714-1.389-3.103-3.102-3.103z"/><path d="m126.705 275.606c-1.713 0-3.102 1.389-3.102 3.103s1.389 3.102 3.102 3.102 3.102-1.389 3.102-3.102-1.389-3.103-3.102-3.103z"/><path d="m137.081 285.23c-1.713 0-3.102 1.389-3.102 3.103 0 1.713 1.389 3.102 3.102 3.102s3.102-1.389 3.102-3.102c.001-1.714-1.389-3.103-3.102-3.103z"/><path d="m126.705 295.606c-1.713 0-3.102 1.389-3.102 3.103s1.389 3.102 3.102 3.102 3.102-1.389 3.102-3.102-1.389-3.103-3.102-3.103z"/><path d="m137.081 305.23c-1.713 0-3.102 1.389-3.102 3.103 0 1.713 1.389 3.102 3.102 3.102s3.102-1.389 3.102-3.102c.001-1.714-1.389-3.103-3.102-3.103z"/><path d="m126.705 315.606c-1.713 0-3.102 1.389-3.102 3.103s1.389 3.102 3.102 3.102 3.102-1.389 3.102-3.102-1.389-3.103-3.102-3.103z"/><path d="m137.081 325.23c-1.713 0-3.102 1.389-3.102 3.103 0 1.713 1.389 3.102 3.102 3.102s3.102-1.389 3.102-3.102c.001-1.714-1.389-3.103-3.102-3.103z"/><path d="m126.705 335.606c-1.713 0-3.102 1.389-3.102 3.103s1.389 3.102 3.102 3.102 3.102-1.389 3.102-3.102-1.389-3.103-3.102-3.103z"/><path d="m137.081 345.23c-1.713 0-3.102 1.389-3.102 3.103 0 1.713 1.389 3.102 3.102 3.102s3.102-1.389 3.102-3.102c.001-1.714-1.389-3.103-3.102-3.103z"/><path d="m126.705 355.606c-1.713 0-3.102 1.389-3.102 3.103s1.389 3.102 3.102 3.102 3.102-1.389 3.102-3.102-1.389-3.103-3.102-3.103z"/><path d="m137.081 365.23c-1.713 0-3.102 1.389-3.102 3.103 0 1.713 1.389 3.102 3.102 3.102s3.102-1.389 3.102-3.102c.001-1.714-1.389-3.103-3.102-3.103z"/><path d="m126.705 375.606c-1.713 0-3.102 1.389-3.102 3.103s1.389 3.102 3.102 3.102 3.102-1.389 3.102-3.102-1.389-3.103-3.102-3.103z"/><path d="m137.081 385.23c-1.713 0-3.102 1.389-3.102 3.103 0 1.713 1.389 3.102 3.102 3.102s3.102-1.389 3.102-3.102c.001-1.714-1.389-3.103-3.102-3.103z"/><path d="m126.705 395.606c-1.713 0-3.102 1.389-3.102 3.103s1.389 3.102 3.102 3.102 3.102-1.389 3.102-3.102-1.389-3.103-3.102-3.103z"/><path d="m137.081 405.23c-1.713 0-3.102 1.389-3.102 3.103 0 1.713 1.389 3.102 3.102 3.102s3.102-1.389 3.102-3.102c.001-1.714-1.389-3.103-3.102-3.103z"/><path d="m126.705 415.606c-1.713 0-3.102 1.389-3.102 3.103s1.389 3.102 3.102 3.102 3.102-1.389 3.102-3.102-1.389-3.103-3.102-3.103z"/><path d="m140.184 428.332c0-1.713-1.389-3.103-3.102-3.103s-3.102 1.389-3.102 3.103c0 .147.023.288.043.429h6.118c.019-.141.043-.282.043-.429z"/><path d="m117.081 231.434c1.354 0 2.494-.874 2.917-2.083h-5.834c.423 1.21 1.563 2.083 2.917 2.083z"/><path d="m106.686 241.809c.007 0 .013.002.019.002 1.713 0 3.102-1.389 3.102-3.102s-1.389-3.102-3.102-3.102c-.006 0-.012.002-.019.002z"/><path d="m117.081 245.23c-1.713 0-3.102 1.389-3.102 3.103 0 1.713 1.389 3.102 3.102 3.102s3.102-1.389 3.102-3.102c.001-1.714-1.388-3.103-3.102-3.103z"/><path d="m106.705 255.606c-.006 0-.012.002-.019.002v6.201c.007 0 .013.002.019.002 1.713 0 3.102-1.389 3.102-3.102s-1.389-3.103-3.102-3.103z"/><path d="m117.081 265.23c-1.713 0-3.102 1.389-3.102 3.103 0 1.713 1.389 3.102 3.102 3.102s3.102-1.389 3.102-3.102c.001-1.714-1.388-3.103-3.102-3.103z"/><path d="m106.705 275.606c-.006 0-.012.002-.019.002v6.201c.007 0 .013.002.019.002 1.713 0 3.102-1.389 3.102-3.102s-1.389-3.103-3.102-3.103z"/><path d="m117.081 285.23c-1.713 0-3.102 1.389-3.102 3.103 0 1.713 1.389 3.102 3.102 3.102s3.102-1.389 3.102-3.102c.001-1.714-1.388-3.103-3.102-3.103z"/><path d="m106.705 295.606c-.006 0-.012.002-.019.002v6.201c.007 0 .013.002.019.002 1.713 0 3.102-1.389 3.102-3.102s-1.389-3.103-3.102-3.103z"/><path d="m117.081 305.23c-1.713 0-3.102 1.389-3.102 3.103 0 1.713 1.389 3.102 3.102 3.102s3.102-1.389 3.102-3.102c.001-1.714-1.388-3.103-3.102-3.103z"/><path d="m106.705 315.606c-.006 0-.012.002-.019.002v6.201c.007 0 .013.002.019.002 1.713 0 3.102-1.389 3.102-3.102s-1.389-3.103-3.102-3.103z"/><path d="m117.081 325.23c-1.713 0-3.102 1.389-3.102 3.103 0 1.713 1.389 3.102 3.102 3.102s3.102-1.389 3.102-3.102c.001-1.714-1.388-3.103-3.102-3.103z"/><path d="m106.705 335.606c-.006 0-.012.002-.019.002v6.201c.007 0 .013.002.019.002 1.713 0 3.102-1.389 3.102-3.102s-1.389-3.103-3.102-3.103z"/><path d="m117.081 345.23c-1.713 0-3.102 1.389-3.102 3.103 0 1.713 1.389 3.102 3.102 3.102s3.102-1.389 3.102-3.102c.001-1.714-1.388-3.103-3.102-3.103z"/><path d="m106.705 355.606c-.006 0-.012.002-.019.002v6.201c.007 0 .013.002.019.002 1.713 0 3.102-1.389 3.102-3.102s-1.389-3.103-3.102-3.103z"/><path d="m117.081 365.23c-1.713 0-3.102 1.389-3.102 3.103 0 1.713 1.389 3.102 3.102 3.102s3.102-1.389 3.102-3.102c.001-1.714-1.388-3.103-3.102-3.103z"/><path d="m106.705 375.606c-.006 0-.012.002-.019.002v6.201c.007 0 .013.002.019.002 1.713 0 3.102-1.389 3.102-3.102s-1.389-3.103-3.102-3.103z"/><path d="m117.081 385.23c-1.713 0-3.102 1.389-3.102 3.103 0 1.713 1.389 3.102 3.102 3.102s3.102-1.389 3.102-3.102c.001-1.714-1.388-3.103-3.102-3.103z"/><path d="m106.705 395.606c-.006 0-.012.002-.019.002v6.201c.007 0 .013.002.019.002 1.713 0 3.102-1.389 3.102-3.102s-1.389-3.103-3.102-3.103z"/><path d="m117.081 405.23c-1.713 0-3.102 1.389-3.102 3.103 0 1.713 1.389 3.102 3.102 3.102s3.102-1.389 3.102-3.102c.001-1.714-1.388-3.103-3.102-3.103z"/><path d="m106.705 415.606c-.006 0-.012.002-.019.002v6.201c.007 0 .013.002.019.002 1.713 0 3.102-1.389 3.102-3.102s-1.389-3.103-3.102-3.103z"/><path d="m120.184 428.332c0-1.713-1.389-3.103-3.102-3.103s-3.102 1.389-3.102 3.103c0 .147.023.288.043.429h6.118c.019-.141.043-.282.043-.429z"/></g></g><path d="m283.317 108.122c-1.511 0-3.029-.364-4.432-1.102l-21.053-11.068c-1.359-.714-2.982-.714-4.342 0l-21.052 11.068c-3.225 1.696-7.061 1.419-10.01-.724-2.949-2.142-4.397-5.705-3.781-9.297l4.021-23.442c.26-1.513-.242-3.057-1.342-4.129l-17.032-16.602c-2.61-2.544-3.531-6.278-2.405-9.744s4.066-5.945 7.673-6.469l23.537-3.42c1.52-.221 2.833-1.174 3.512-2.551l10.526-21.329c1.613-3.268 4.879-5.299 8.524-5.299s6.911 2.03 8.524 5.299l10.526 21.329c.68 1.377 1.992 2.331 3.512 2.552l23.538 3.42c3.607.524 6.547 3.003 7.673 6.469s.205 7.2-2.405 9.744l-17.032 16.602c-1.1 1.072-1.601 2.616-1.342 4.129l4.021 23.442c.616 3.592-.833 7.155-3.781 9.297-1.666 1.21-3.615 1.825-5.578 1.825z" fill="#e9c278"/><path d="m511.903 306.948c0-2.209-1.778-4-3.987-4h-163.821v-159.601c0-2.209-1.791-4-4-4h-168.047c-2.209 0-4 1.791-4 4v82.247h-164.048c-2.209 0-4 1.791-4 4l.093 278.355c0 2.176 1.764 3.94 3.94 3.94h503.897c2.176 0 3.973-1.842 3.973-4.017zm-7.76 4.001v113.812h-160.048v-113.812zm-328.095-163.602h160.047v159.602 117.812h-160.047v-195.167zm-168.048 86.247h160.048v191.167h-160.048z" fill="#31373d"/><path d="m228.003 112.126c-2.789 0-5.559-.874-7.926-2.594-4.189-3.045-6.248-8.107-5.373-13.209l4.02-23.442c.037-.216-.035-.436-.192-.589l-17.03-16.602c-3.708-3.613-5.018-8.919-3.418-13.845 1.6-4.924 5.777-8.446 10.902-9.191l23.537-3.42c.217-.032.404-.168.501-.364l10.526-21.328c2.292-4.644 6.933-7.528 12.11-7.528 5.179 0 9.819 2.885 12.111 7.528l10.526 21.328c.097.197.283.332.5.364l23.537 3.42c5.126.745 9.304 4.267 10.903 9.192 1.6 4.924.29 10.229-3.418 13.844l-17.032 16.602c-.156.152-.228.372-.19.588l4.021 23.443c.875 5.103-1.184 10.164-5.372 13.208-2.333 1.695-5.075 2.591-7.93 2.591-2.173 0-4.349-.54-6.293-1.562l-21.054-11.067c-.193-.104-.426-.103-.619-.001l-21.05 11.069c-1.993 1.048-4.152 1.565-6.297 1.565zm27.658-20.71c1.385 0 2.77.332 4.032.996l21.053 11.066c1.85.973 4.111.808 5.799-.419 1.707-1.24 2.546-3.304 2.19-5.385l-4.021-23.442c-.482-2.811.448-5.678 2.49-7.669l17.033-16.602c1.512-1.474 2.045-3.637 1.393-5.644-.651-2.008-2.355-3.444-4.444-3.748l-23.537-3.42c-2.824-.41-5.263-2.183-6.525-4.741l-10.525-21.326c-.935-1.894-2.826-3.069-4.938-3.069-2.11 0-4.002 1.176-4.937 3.069l-10.526 21.328c-1.263 2.559-3.702 4.33-6.525 4.74l-23.536 3.419c-2.089.304-3.792 1.74-4.443 3.747-.652 2.009-.119 4.171 1.393 5.645l17.031 16.602c2.043 1.992 2.975 4.859 2.492 7.67l-4.021 23.441c-.356 2.081.482 4.145 2.19 5.386 1.708 1.239 3.931 1.4 5.798.419l21.052-11.068c1.262-.662 2.647-.995 4.032-.995z" fill="#31373d"/></g></svg>