<svg id="Capa_1" enable-background="new 0 0 512 512" height="512" viewBox="0 0 512 512" width="512" xmlns="http://www.w3.org/2000/svg"><g><path d="m502.996 77.137-14.84-14.839c-5.622-5.623-14.738-5.623-20.36 0l-272.669 272.668-75.865-75.865-.053.054c-14.582-13.607-48.923-1.972-77.228 26.333s-39.941 62.646-26.334 77.228l-.023.022 135.218 137.569c4.754 4.754 11.152 7.501 17.873 7.672l86.708-.14c7.184.184 14.128-2.59 19.209-7.672l24.307-24.307c10.24-10.241 10.24-26.843 0-37.083l-68.612-68.612 272.669-272.67c5.622-5.62 5.622-14.735 0-20.358z" fill="#e9c278"/><path d="m264.765 265.329-87.993 87.993c-5.622 5.623-5.622 14.738 0 20.36l14.84 14.84c5.622 5.622 14.738 5.622 20.36 0l87.993-87.994z" fill="#eaa895"/><g fill="#f9fbfc"><path d="m293.036 437.627c-1.722 0-3.119 1.396-3.119 3.118 0 1.723 1.396 3.119 3.119 3.119s3.119-1.396 3.119-3.119c0-1.722-1.397-3.118-3.119-3.118z"/><path d="m300.349 450.421c0 1.722 1.396 3.119 3.119 3.119 1.105 0 2.07-.578 2.624-1.445-.31-1.533-.757-3.044-1.343-4.511-.392-.178-.823-.282-1.281-.282-1.723 0-3.119 1.396-3.119 3.119z"/><path d="m293.036 463.971c1.722 0 3.119-1.396 3.119-3.119 0-1.722-1.396-3.118-3.119-3.118s-3.119 1.396-3.119 3.118c0 1.723 1.396 3.119 3.119 3.119z"/><path d="m300.349 470.528c0 .963.446 1.813 1.132 2.386 1.238-1.67 2.248-3.454 3.038-5.31-.33-.119-.68-.194-1.051-.194-1.723-.001-3.119 1.395-3.119 3.118z"/><path d="m293.036 477.841c-1.722 0-3.119 1.396-3.119 3.118 0 1.067.537 2.008 1.355 2.57l4.334-4.334c-.563-.817-1.503-1.354-2.57-1.354z"/><path d="m274.353 417.879c.516 1.483.889 3.004 1.131 4.542.353-.506.564-1.118.564-1.782 0-1.206-.693-2.241-1.695-2.76z"/><path d="m283.361 433.433c1.722 0 3.119-1.397 3.119-3.119 0-1.723-1.396-3.119-3.119-3.119-1.722 0-3.119 1.396-3.119 3.119 0 1.722 1.396 3.119 3.119 3.119z"/><path d="m272.929 443.865c1.722 0 3.119-1.396 3.119-3.119 0-1.588-1.191-2.883-2.726-3.079-.796 1.693-1.787 3.315-2.965 4.84.562.819 1.503 1.358 2.572 1.358z"/><path d="m283.361 453.54c1.722 0 3.119-1.397 3.119-3.119 0-1.723-1.396-3.119-3.119-3.119-1.722 0-3.119 1.396-3.119 3.119 0 1.722 1.396 3.119 3.119 3.119z"/><path d="m272.929 457.734c-1.722 0-3.119 1.396-3.119 3.118 0 1.723 1.396 3.119 3.119 3.119s3.119-1.396 3.119-3.119c0-1.722-1.397-3.118-3.119-3.118z"/><path d="m283.361 473.647c1.722 0 3.119-1.397 3.119-3.119 0-1.723-1.396-3.119-3.119-3.119-1.722 0-3.119 1.396-3.119 3.119 0 1.722 1.396 3.119 3.119 3.119z"/><path d="m272.929 477.841c-1.722 0-3.119 1.396-3.119 3.118 0 1.723 1.396 3.119 3.119 3.119s3.119-1.396 3.119-3.119c0-1.722-1.397-3.118-3.119-3.118z"/><path d="m283.361 487.515c-1.722 0-3.119 1.396-3.119 3.119 0 1.067.537 2.007 1.355 2.569l4.334-4.334c-.563-.817-1.503-1.354-2.57-1.354z"/><path d="m272.929 497.948c-1.722 0-3.119 1.396-3.119 3.118 0 .894.381 1.696.984 2.264 1.365-.925 2.654-1.977 3.837-3.161l.867-.867c-.562-.817-1.502-1.354-2.569-1.354z"/><path d="m263.254 453.54c1.722 0 3.119-1.397 3.119-3.119 0-.988-.468-1.858-1.185-2.429l-4.363 4.363c.571.717 1.441 1.185 2.429 1.185z"/><path d="m252.822 463.971c1.722 0 3.119-1.396 3.119-3.119 0-.988-.468-1.857-1.185-2.429l-4.363 4.363c.572.717 1.441 1.185 2.429 1.185z"/><path d="m263.254 467.409c-1.722 0-3.119 1.396-3.119 3.119 0 1.722 1.396 3.119 3.119 3.119s3.119-1.397 3.119-3.119c0-1.723-1.396-3.119-3.119-3.119z"/><path d="m252.822 477.841c-1.722 0-3.119 1.396-3.119 3.118 0 1.723 1.396 3.119 3.119 3.119s3.119-1.396 3.119-3.119c0-1.722-1.396-3.118-3.119-3.118z"/><path d="m263.254 487.515c-1.722 0-3.119 1.396-3.119 3.119 0 1.722 1.396 3.119 3.119 3.119s3.119-1.397 3.119-3.119c0-1.723-1.396-3.119-3.119-3.119z"/><path d="m252.822 497.948c-1.722 0-3.119 1.396-3.119 3.118 0 1.723 1.396 3.119 3.119 3.119s3.119-1.396 3.119-3.119c0-1.722-1.396-3.118-3.119-3.118z"/><path d="m243.147 473.647c1.722 0 3.119-1.397 3.119-3.119 0-.988-.468-1.858-1.185-2.429l-1.26 1.26c-1.033 1.033-2.147 1.965-3.32 2.803.55.887 1.525 1.485 2.646 1.485z"/><path d="m232.715 477.841c-1.722 0-3.119 1.396-3.119 3.118 0 1.723 1.396 3.119 3.119 3.119s3.119-1.396 3.119-3.119c0-1.722-1.396-3.118-3.119-3.118z"/><path d="m243.147 487.515c-1.722 0-3.119 1.396-3.119 3.119 0 1.722 1.396 3.119 3.119 3.119 1.722 0 3.119-1.397 3.119-3.119 0-1.723-1.396-3.119-3.119-3.119z"/><path d="m232.715 497.948c-1.722 0-3.119 1.396-3.119 3.118 0 1.723 1.396 3.119 3.119 3.119s3.119-1.396 3.119-3.119c0-1.722-1.396-3.118-3.119-3.118z"/><path d="m212.609 477.841c-1.722 0-3.119 1.396-3.119 3.118 0 1.723 1.396 3.119 3.119 3.119s3.119-1.396 3.119-3.119c-.001-1.722-1.397-3.118-3.119-3.118z"/><path d="m219.922 490.634c0 1.722 1.396 3.119 3.119 3.119s3.119-1.397 3.119-3.119c0-1.723-1.396-3.119-3.119-3.119s-3.119 1.396-3.119 3.119z"/><path d="m212.609 497.948c-1.722 0-3.119 1.396-3.119 3.118 0 1.723 1.396 3.119 3.119 3.119s3.119-1.396 3.119-3.119c-.001-1.722-1.397-3.118-3.119-3.118z"/><path d="m192.502 477.841c-1.722 0-3.119 1.396-3.119 3.118 0 1.723 1.396 3.119 3.119 3.119 1.722 0 3.119-1.396 3.119-3.119 0-1.722-1.397-3.118-3.119-3.118z"/><path d="m199.815 490.634c0 1.722 1.396 3.119 3.119 3.119 1.722 0 3.119-1.397 3.119-3.119 0-1.723-1.396-3.119-3.119-3.119s-3.119 1.396-3.119 3.119z"/><path d="m192.502 497.948c-1.722 0-3.119 1.396-3.119 3.118 0 1.723 1.396 3.119 3.119 3.119 1.722 0 3.119-1.396 3.119-3.119 0-1.722-1.397-3.118-3.119-3.118z"/><path d="m172.396 500.109c-1.722 0-3.119 1.396-3.119 3.118 0 1.723 1.396 3.119 3.119 3.119s3.119-1.396 3.119-3.119c0-1.722-1.396-3.118-3.119-3.118z"/><path d="m169.276 480.959c0 1.723 1.396 3.119 3.119 3.119 1.722 0 3.119-1.396 3.119-3.119 0-1.722-1.396-3.118-3.119-3.118-1.722 0-3.119 1.396-3.119 3.118z"/><path d="m179.708 490.634c0 1.722 1.396 3.119 3.119 3.119 1.722 0 3.119-1.397 3.119-3.119 0-1.723-1.396-3.119-3.119-3.119-1.722 0-3.119 1.396-3.119 3.119z"/><path d="m155.407 480.959c0-1.722-1.396-3.118-3.119-3.118s-3.119 1.396-3.119 3.118c0 1.723 1.396 3.119 3.119 3.119s3.119-1.396 3.119-3.119z"/><path d="m162.72 487.515c-1.722 0-3.119 1.396-3.119 3.119 0 1.722 1.396 3.119 3.119 3.119 1.722 0 3.119-1.397 3.119-3.119 0-1.723-1.396-3.119-3.119-3.119z"/><path d="m152.288 500.298c-.427 0-.833.086-1.204.241 1.312 1.279 2.745 2.406 4.272 3.374.026-.163.05-.327.05-.498.001-1.721-1.395-3.117-3.118-3.117z"/><path d="m132.182 477.841c-.43 0-.84.086-1.212.244l4.087 4.086c.157-.372.244-.782.244-1.213-.001-1.721-1.397-3.117-3.119-3.117z"/><path d="m142.614 487.515c-.63 0-1.213.191-1.703.511l4.312 4.312c.321-.49.511-1.074.511-1.703-.002-1.724-1.398-3.12-3.12-3.12z"/><path d="m120.828 467.906c-.008.005-.016.008-.024.013l4.312 4.312c.178-.272.306-.576.393-.898-1.673-.961-3.245-2.105-4.681-3.427z"/></g><ellipse cx="79.48" cy="78.714" fill="#f9fbfc" rx="74.693" ry="74.693" transform="matrix(.707 -.707 .707 .707 -32.38 79.256)"/><g fill="#eaa895"><path d="m149.17 58.717c0 1.708 1.375 3.093 3.077 3.115-.452-1.953-.977-3.878-1.578-5.768-.896.548-1.499 1.527-1.499 2.653z"/><path d="m149.17 78.824c0 1.723 1.396 3.119 3.119 3.119.681 0 1.305-.224 1.818-.594.03-.876.067-1.75.067-2.634 0-.801-.016-1.598-.041-2.394-.518-.383-1.151-.616-1.844-.616-1.723.001-3.119 1.397-3.119 3.119z"/><path d="m149.17 98.931c0 1.102.573 2.064 1.435 2.619.602-1.877 1.123-3.789 1.577-5.727-1.672.057-3.012 1.422-3.012 3.108z"/><path d="m132.182 35.492c-1.722 0-3.119 1.396-3.119 3.118 0 1.723 1.396 3.119 3.119 3.119s3.119-1.396 3.119-3.119c-.001-1.722-1.397-3.118-3.119-3.118z"/><path d="m142.614 45.167c-1.722 0-3.119 1.396-3.119 3.119 0 1.722 1.396 3.119 3.119 3.119 1.722 0 3.119-1.397 3.119-3.119-.001-1.723-1.397-3.119-3.119-3.119z"/><path d="m132.182 55.599c-1.722 0-3.119 1.396-3.119 3.118 0 1.723 1.396 3.119 3.119 3.119s3.119-1.396 3.119-3.119c-.001-1.722-1.397-3.118-3.119-3.118z"/><path d="m142.614 65.273c-1.722 0-3.119 1.396-3.119 3.119 0 1.722 1.396 3.119 3.119 3.119 1.722 0 3.119-1.397 3.119-3.119-.001-1.723-1.397-3.119-3.119-3.119z"/><path d="m132.182 75.706c-1.722 0-3.119 1.396-3.119 3.118 0 1.723 1.396 3.119 3.119 3.119s3.119-1.396 3.119-3.119c-.001-1.722-1.397-3.118-3.119-3.118z"/><path d="m142.614 85.38c-1.722 0-3.119 1.396-3.119 3.119 0 1.722 1.396 3.119 3.119 3.119 1.722 0 3.119-1.397 3.119-3.119-.001-1.723-1.397-3.119-3.119-3.119z"/><path d="m132.182 95.812c-1.722 0-3.119 1.396-3.119 3.118 0 1.723 1.396 3.119 3.119 3.119s3.119-1.396 3.119-3.119c-.001-1.722-1.397-3.118-3.119-3.118z"/><path d="m142.614 105.487c-1.722 0-3.119 1.396-3.119 3.119 0 1.722 1.396 3.119 3.119 3.119 1.722 0 3.119-1.397 3.119-3.119-.001-1.723-1.397-3.119-3.119-3.119z"/><path d="m132.182 115.919c-1.722 0-3.119 1.396-3.119 3.118 0 1.723 1.396 3.119 3.119 3.119s3.119-1.396 3.119-3.119c-.001-1.722-1.397-3.118-3.119-3.118z"/><path d="m123.946 30.93c.994-.521 1.68-1.551 1.68-2.751 0-1.723-1.396-3.119-3.119-3.119-.163 0-.319.025-.475.048.716 1.905 1.353 3.847 1.914 5.822z"/><path d="m125.626 68.392c0-.587-.172-1.13-.454-1.598-.302 1.432-.653 2.845-1.036 4.246.891-.549 1.49-1.524 1.49-2.648z"/><path d="m122.507 85.38c-1.722 0-3.119 1.396-3.119 3.119 0 1.722 1.396 3.119 3.119 3.119 1.722 0 3.119-1.397 3.119-3.119 0-1.723-1.397-3.119-3.119-3.119z"/><path d="m112.075 102.05c1.722 0 3.119-1.396 3.119-3.119 0-1.717-1.388-3.108-3.103-3.117-.972 1.31-1.995 2.577-3.049 3.818.319 1.383 1.552 2.418 3.033 2.418z"/><path d="m122.507 105.487c-1.722 0-3.119 1.396-3.119 3.119 0 1.722 1.396 3.119 3.119 3.119 1.722 0 3.119-1.397 3.119-3.119 0-1.723-1.397-3.119-3.119-3.119z"/><path d="m112.075 115.919c-1.722 0-3.119 1.396-3.119 3.118 0 1.723 1.396 3.119 3.119 3.119 1.722 0 3.119-1.396 3.119-3.119 0-1.722-1.397-3.118-3.119-3.118z"/><path d="m122.507 125.594c-1.722 0-3.119 1.396-3.119 3.119 0 1.722 1.396 3.119 3.119 3.119 1.722 0 3.119-1.397 3.119-3.119 0-1.723-1.397-3.119-3.119-3.119z"/><path d="m112.075 136.026c-1.722 0-3.119 1.396-3.119 3.118 0 1.723 1.396 3.119 3.119 3.119 1.722 0 3.119-1.396 3.119-3.119 0-1.722-1.397-3.118-3.119-3.118z"/><path d="m102.4 111.725c1.722 0 3.119-1.397 3.119-3.119 0-1.395-.923-2.563-2.187-2.961-1.292 1.219-2.618 2.401-3.994 3.528.267 1.45 1.533 2.552 3.062 2.552z"/><path d="m91.968 115.919c-1.722 0-3.119 1.396-3.119 3.118 0 1.723 1.396 3.119 3.119 3.119 1.722 0 3.119-1.396 3.119-3.119 0-1.722-1.396-3.118-3.119-3.118z"/><path d="m102.4 125.594c-1.722 0-3.119 1.396-3.119 3.119 0 1.722 1.396 3.119 3.119 3.119s3.119-1.397 3.119-3.119c0-1.723-1.397-3.119-3.119-3.119z"/><path d="m91.968 136.026c-1.722 0-3.119 1.396-3.119 3.118 0 1.723 1.396 3.119 3.119 3.119 1.722 0 3.119-1.396 3.119-3.119 0-1.722-1.396-3.118-3.119-3.118z"/><path d="m102.4 145.7c-1.722 0-3.119 1.396-3.119 3.119 0 .653.202 1.259.546 1.759 1.926-.544 3.825-1.15 5.684-1.842-.045-1.682-1.417-3.036-3.111-3.036z"/><path d="m79.174 128.713c0 1.722 1.396 3.119 3.119 3.119s3.119-1.397 3.119-3.119c0-1.723-1.396-3.119-3.119-3.119s-3.119 1.396-3.119 3.119z"/><path d="m68.742 139.144c0 1.723 1.396 3.119 3.119 3.119s3.119-1.396 3.119-3.119c0-1.722-1.396-3.118-3.119-3.118s-3.119 1.396-3.119 3.118z"/><path d="m82.293 151.939c1.722 0 3.119-1.397 3.119-3.119 0-1.723-1.396-3.119-3.119-3.119s-3.119 1.396-3.119 3.119c0 1.721 1.397 3.119 3.119 3.119z"/><path d="m59.068 128.713c0 1.722 1.396 3.119 3.119 3.119 1.722 0 3.119-1.397 3.119-3.119 0-1.723-1.396-3.119-3.119-3.119s-3.119 1.396-3.119 3.119z"/><path d="m48.636 139.144c0 1.723 1.396 3.119 3.119 3.119s3.119-1.396 3.119-3.119c0-1.722-1.396-3.118-3.119-3.118s-3.119 1.396-3.119 3.118z"/><path d="m65.305 148.82c0-1.723-1.396-3.119-3.119-3.119-1.722 0-3.119 1.396-3.119 3.119 0 .744.272 1.418.706 1.955 1.21.33 2.435.625 3.669.895 1.097-.484 1.863-1.576 1.863-2.85z"/><path d="m38.961 128.713c0 1.722 1.396 3.119 3.119 3.119 1.722 0 3.119-1.397 3.119-3.119 0-1.723-1.396-3.119-3.119-3.119s-3.119 1.396-3.119 3.119z"/><path d="m31.648 136.026c-.013 0-.025.003-.038.004 1.002.838 2.031 1.646 3.077 2.433-.312-1.394-1.552-2.437-3.039-2.437z"/><path d="m21.973 125.594c-.194 0-.383.024-.567.057 1.124 1.389 2.294 2.739 3.513 4.044.104-.31.173-.637.173-.982 0-1.723-1.397-3.119-3.119-3.119z"/></g><g fill="#31373d"><path d="m511.234 87.317c0-4.92-1.916-9.545-5.394-13.023l-14.84-14.84c-3.479-3.479-8.105-5.395-13.024-5.395-4.92 0-9.545 1.915-13.024 5.395l-269.854 269.854c-38.899-38.871-73.553-73.491-73.656-73.556-16.625-14.612-52.325-3.089-82.306 26.893-14.27 14.27-24.93 30.532-30.015 45.789-5.202 15.606-4.017 28.559 3.278 36.686.118.159 135.599 138.031 135.599 138.031 5.508 5.508 12.829 8.65 20.614 8.849l86.708-.14c.254.006.507.01.761.01 7.981 0 15.741-3.204 21.395-8.859l24.307-24.307c11.792-11.791 11.792-30.978 0-42.769 0 0-30.145-30.134-65.785-65.753l269.841-269.842c3.479-3.478 5.395-8.103 5.395-13.023zm-494.483 243.661c4.698-14.096 14.668-29.241 28.073-42.646 13.405-13.404 28.55-23.374 42.645-28.073 5.527-1.843 10.642-2.755 15.135-2.755 6.047 0 10.967 1.654 14.238 4.926 12.499 12.499.638 45.48-25.902 72.02-26.539 26.537-59.521 38.397-72.019 25.901-5.701-5.701-6.492-16.408-2.17-29.373zm105.85 35.132c-26.531 26.53-59.497 38.391-72.007 25.913l-18.689-18.689c.384.011.767.022 1.157.022 5.376 0 11.353-1.062 17.776-3.204 15.258-5.086 31.519-15.746 45.79-30.016 21.746-21.746 33.775-46.501 33.174-64.807l18.433 18.434c.089.109.165.225.267.327 12.5 12.499.638 45.481-25.901 72.02zm173.494 75.512c8.656 8.656 8.656 22.74 0 31.396l-24.307 24.307c-4.282 4.282-10.219 6.668-16.263 6.494l-86.709.14c-2.338-.06-4.611-.498-6.764-1.257l96.386-98.736zm-65.786-77.124c-9.698-9.693-19.697-19.686-29.523-29.505l64.603-64.603 29.513 29.514zm269.843-269.844-199.562 199.563-29.513-29.513 199.563-199.563c1.96-1.96 4.565-3.039 7.336-3.039s5.377 1.079 7.336 3.039l14.84 14.839c1.96 1.96 3.039 4.565 3.039 7.337s-1.079 5.377-3.039 7.337z"/><path d="m79.48 157.429c-43.403 0-78.714-35.312-78.714-78.715 0-43.404 35.311-78.714 78.714-78.714s78.714 35.31 78.714 78.714c.001 43.403-35.311 78.715-78.714 78.715zm0-149.386c-38.969 0-70.672 31.702-70.672 70.671s31.703 70.672 70.672 70.672 70.672-31.703 70.672-70.672-31.703-70.671-70.672-70.671z"/></g></g></svg>