<svg id="Capa_1" enable-background="new 0 0 511.746 511.746" height="512" viewBox="0 0 511.746 511.746" width="512" xmlns="http://www.w3.org/2000/svg"><g><path d="m471.272 407.242h-125.535c-5.893 0-11.661-1.696-16.616-4.884l-117.118-75.368-12.341-7.942-64.66-41.61c-22.648-14.574-35.777-28.566-19.813-68.058 15.964-39.493 32.433-54.993 45.027-70.493s33.493-47.883 33.493-47.883c3.863-8.37 12.294-13.66 22.139-7.937 3.811 2.216-26.2 53.451 2.506 85.746 10.441 11.746 34.652 24.991 41.765 13.051 36.544-61.342 84.533-45.229 84.533-45.229 5.696 2.751 9.316 8.52 9.316 14.845l12.893 80.632c0 4.037 2.125 7.775 5.594 9.84l108.676 64.688c16.39 9.756 26.432 27.421 26.432 46.494v17.815c.001 20.044-16.247 36.293-36.291 36.293z" fill="#e9c278"/><path d="m398.099 431.646c-49.053 0-65.989-2.735-74.99-5.369-20.64-6.039-57.567-29.776-76.706-47.9-14.097-13.349-30.487-10.328-58.94-21.577-28.816-11.392-91.588-30.376-107.935-66.042-9.407-20.523-11.587-24.136 0-37.172 7.435-8.364 17.017-22.739 30.053-22.292s207.753 147.109 228.619 155.587c18.378 7.467 98.143 5.375 148.915 1.502 10.949-.827 18.444 6.088 14.973 16.503-6.841 20.523-32.665 25.674-43.612 26.509-1.317.101-.993-.898-36.705-.049-8.621.206-16.493.3-23.672.3z" fill="#f9fbfc"/><g fill="#eaa895"><path d="m180.755 277.825c-.083.276-.142.563-.142.867 0 1.713 1.389 3.102 3.102 3.102.709 0 1.349-.254 1.87-.656 2.245 1.541 4.496 3.087 6.747 4.634-.808.56-1.343 1.486-1.343 2.543 0 1.713 1.389 3.102 3.102 3.102 1.451 0 2.66-1 2.999-2.347-.409-.29-.813-.577-1.221-.867 40.332 27.742 79.444 54.979 79.444 54.979 10.993-13.831 17.317-31.066 21.137-50.127l-11.19-55.557c-2.487-17.407-13.549-75.091-25.14-55.635-7.113 11.94-31.324-1.305-41.765-13.051-28.706-32.294 1.305-83.53-2.506-85.746-9.846-5.724-18.277-.434-22.139 7.937 0 0-20.899 32.382-33.493 47.883s-29.063 31.001-45.027 70.493c-3.18 7.868-5.189 14.71-6.214 20.759 1.205.44 5.484 3.077 11.923 7.268-.181.392-.285.826-.285 1.286 0 1.713 1.389 3.102 3.102 3.102.915 0 1.717-.412 2.283-1.043 2.185 1.442 4.538 3.006 7.035 4.674-1.188.432-2.044 1.552-2.044 2.891 0 1.713 1.389 3.102 3.102 3.102s3.102-1.389 3.102-3.102c0-.039-.01-.075-.011-.113 12.402 8.322 27.711 18.749 43.572 29.622z"/><path d="m502.226 395.987c-.957.528-1.613 1.535-1.613 2.706 0 1.396.928 2.562 2.196 2.952.257-2.089.041-3.988-.583-5.658z"/><path d="m494.091 391.418c1.084 0 2.035-.557 2.59-1.399-1.65-.826-3.564-1.37-5.68-1.587.062 1.659 1.417 2.986 3.09 2.986z"/><path d="m483.715 395.59c-1.713 0-3.102 1.389-3.102 3.103s1.389 3.102 3.102 3.102 3.102-1.389 3.102-3.102-1.389-3.103-3.102-3.103z"/><path d="m491.039 407.825c1.67-.539 3.359-1.167 5.041-1.872-.54-.454-1.227-.739-1.988-.739-1.546 0-2.816 1.132-3.053 2.611z"/><path d="m474.091 391.418c1.441 0 2.642-.987 2.99-2.319-1.926.128-3.883.254-5.863.376.46 1.138 1.571 1.943 2.873 1.943z"/><path d="m463.715 395.59c-1.713 0-3.102 1.389-3.102 3.103s1.389 3.102 3.102 3.102 3.102-1.389 3.102-3.102-1.389-3.103-3.102-3.103z"/><path d="m474.091 405.214c-1.713 0-3.102 1.389-3.102 3.103 0 1.167.652 2.17 1.604 2.7 1.09.087 1.344.154 1.735.124s.804-.066 1.231-.107c.969-.525 1.635-1.538 1.635-2.717 0-1.714-1.389-3.103-3.103-3.103z"/><path d="m456.455 390.303c-1.505.076-3.019.149-4.539.221.56.552 1.327.894 2.176.894.952 0 1.794-.438 2.363-1.115z"/><path d="m443.715 395.59c-1.713 0-3.102 1.389-3.102 3.103s1.389 3.102 3.102 3.102 3.102-1.389 3.102-3.102-1.389-3.103-3.102-3.103z"/><path d="m454.091 405.214c-1.713 0-3.102 1.389-3.102 3.103 0 1.028.506 1.933 1.276 2.497 1.314-.018 2.547-.031 3.702-.041.741-.567 1.227-1.451 1.227-2.456 0-1.714-1.389-3.103-3.103-3.103z"/><path d="m435.199 391.206c-.665.023-1.331.045-1.997.067.284.085.579.145.89.145.391 0 .762-.08 1.107-.212z"/><path d="m423.715 395.59c-1.713 0-3.102 1.389-3.102 3.103s1.389 3.102 3.102 3.102 3.102-1.389 3.102-3.102-1.389-3.103-3.102-3.103z"/><path d="m434.091 405.214c-1.713 0-3.102 1.389-3.102 3.103 0 1.307.811 2.42 1.955 2.877.798-.016 1.601-.032 2.413-.05 1.081-.485 1.837-1.566 1.837-2.827 0-1.714-1.389-3.103-3.103-3.103z"/><path d="m403.715 395.59c-1.713 0-3.102 1.389-3.102 3.103s1.389 3.102 3.102 3.102 3.102-1.389 3.102-3.102-1.389-3.103-3.102-3.103z"/><path d="m414.091 405.214c-1.713 0-3.102 1.389-3.102 3.103 0 1.622 1.25 2.938 2.837 3.075h.124c.135 0 .275 0 .411-.001 1.585-.139 2.832-1.454 2.832-3.075.001-1.713-1.388-3.102-3.102-3.102z"/><path d="m383.715 395.59c-1.713 0-3.102 1.389-3.102 3.103s1.389 3.102 3.102 3.102 3.102-1.389 3.102-3.102-1.389-3.103-3.102-3.103z"/><path d="m394.091 405.214c-1.713 0-3.102 1.389-3.102 3.103 0 1.311.816 2.426 1.965 2.88.702.014 1.428.026 2.148.039 1.214-.421 2.091-1.562 2.091-2.919.001-1.714-1.388-3.103-3.102-3.103z"/><path d="m363.715 395.59c-1.713 0-3.102 1.389-3.102 3.103s1.389 3.102 3.102 3.102 3.102-1.389 3.102-3.102-1.389-3.103-3.102-3.103z"/><path d="m374.091 405.214c-1.713 0-3.102 1.389-3.102 3.103 0 .82.324 1.56.844 2.115 1.374.078 2.797.151 4.28.221.657-.569 1.081-1.399 1.081-2.335 0-1.715-1.389-3.104-3.103-3.104z"/><path d="m354.091 391.418c.94 0 1.772-.427 2.341-1.087-1.78-.174-3.471-.364-5.072-.571.522.982 1.542 1.658 2.731 1.658z"/><path d="m343.715 395.59c-1.713 0-3.102 1.389-3.102 3.103s1.389 3.102 3.102 3.102 3.102-1.389 3.102-3.102-1.389-3.103-3.102-3.103z"/><path d="m354.091 405.214c-1.713 0-3.102 1.389-3.102 3.103 0 .067.016.13.02.197 1.812.261 3.806.513 6.021.751.097-.301.163-.615.163-.948.001-1.714-1.388-3.103-3.102-3.103z"/><path d="m323.715 381.795c1.21 0 2.246-.699 2.758-1.709-1.595-1.023-3.311-2.144-5.143-3.355-.442.536-.717 1.213-.717 1.962 0 1.713 1.389 3.102 3.102 3.102z"/><path d="m334.091 385.214c-1.713 0-3.102 1.389-3.102 3.103 0 1.713 1.389 3.102 3.102 3.102s3.102-1.389 3.102-3.102c.001-1.714-1.388-3.103-3.102-3.103z"/><path d="m323.715 395.59c-1.605 0-2.911 1.224-3.071 2.788 1.778.9 3.525 1.752 5.225 2.54.583-.564.948-1.351.948-2.226 0-1.713-1.389-3.102-3.102-3.102z"/><path d="m313.202 371.273c-.507-.345-1.019-.693-1.538-1.047.389.494.921.861 1.538 1.047z"/><path d="m303.715 375.59c-1.713 0-3.102 1.389-3.102 3.103s1.389 3.102 3.102 3.102 3.102-1.389 3.102-3.102-1.389-3.103-3.102-3.103z"/><path d="m314.091 385.214c-1.713 0-3.102 1.389-3.102 3.103 0 1.713 1.389 3.102 3.102 3.102s3.102-1.389 3.102-3.102c.001-1.714-1.388-3.103-3.102-3.103z"/><path d="m283.715 355.59c-1.713 0-3.102 1.389-3.102 3.103s1.389 3.102 3.102 3.102 3.102-1.389 3.102-3.102-1.389-3.103-3.102-3.103z"/><path d="m294.091 365.214c-1.713 0-3.102 1.389-3.102 3.103 0 1.713 1.389 3.102 3.102 3.102s3.102-1.389 3.102-3.102c.001-1.714-1.388-3.103-3.102-3.103z"/><path d="m283.745 375.593c.952.688 1.911 1.374 2.88 2.057-.426-1.188-1.547-2.044-2.88-2.057z"/><path d="m263.715 341.795c1.678 0 3.037-1.336 3.092-3.001-1.392-.99-2.793-1.986-4.203-2.99-1.163.448-1.991 1.568-1.991 2.888 0 1.714 1.389 3.103 3.102 3.103z"/><path d="m274.091 345.214c-1.713 0-3.102 1.389-3.102 3.103 0 1.713 1.389 3.102 3.102 3.102s3.102-1.389 3.102-3.102c.001-1.714-1.388-3.103-3.102-3.103z"/><path d="m263.715 355.59c-1.113 0-2.082.592-2.629 1.473.391.343.781.693 1.169 1.06 1.052.997 2.167 2.012 3.321 3.039.75-.566 1.242-1.456 1.242-2.468-.001-1.715-1.39-3.104-3.103-3.104z"/><path d="m274.091 365.214c-.97 0-1.825.455-2.394 1.152 1.561 1.273 3.175 2.555 4.837 3.841.407-.524.659-1.175.659-1.891.001-1.713-1.388-3.102-3.102-3.102z"/><path d="m242.706 321.612c-.475-.339-.95-.678-1.426-1.018.365.466.856.821 1.426 1.018z"/><path d="m254.092 331.418c.614 0 1.183-.184 1.665-.492-1.55-1.105-3.109-2.216-4.674-3.333-.056.233-.094.473-.094.724 0 1.712 1.389 3.101 3.103 3.101z"/><path d="m243.715 335.59c-1.713 0-3.102 1.389-3.102 3.103s1.389 3.102 3.102 3.102 3.102-1.389 3.102-3.102-1.389-3.103-3.102-3.103z"/><path d="m254.092 345.214c-1.713 0-3.102 1.389-3.102 3.103 0 1.713 1.389 3.102 3.102 3.102s3.102-1.389 3.102-3.102c0-1.714-1.389-3.103-3.102-3.103z"/><path d="m223.715 315.59c-1.713 0-3.102 1.389-3.102 3.103s1.389 3.102 3.102 3.102 3.102-1.389 3.102-3.102-1.389-3.103-3.102-3.103z"/><path d="m234.092 325.214c-1.713 0-3.102 1.389-3.102 3.103 0 1.713 1.389 3.102 3.102 3.102s3.102-1.389 3.102-3.102c0-1.714-1.389-3.103-3.102-3.103z"/><path d="m223.715 335.59c-1.713 0-3.102 1.389-3.102 3.103s1.389 3.102 3.102 3.102 3.102-1.389 3.102-3.102-1.389-3.103-3.102-3.103z"/><path d="m233.187 345.363c1.034.241 2.051.478 3.044.714-.557-.532-1.308-.864-2.14-.864-.316.001-.616.062-.904.15z"/><path d="m203.715 295.59c-1.713 0-3.102 1.389-3.102 3.103s1.389 3.102 3.102 3.102 3.102-1.389 3.102-3.102-1.389-3.103-3.102-3.103z"/><path d="m214.092 305.214c-1.713 0-3.102 1.389-3.102 3.103 0 1.713 1.389 3.102 3.102 3.102s3.102-1.389 3.102-3.102c0-1.714-1.389-3.103-3.102-3.103z"/><path d="m203.715 315.59c-1.713 0-3.102 1.389-3.102 3.103s1.389 3.102 3.102 3.102 3.102-1.389 3.102-3.102-1.389-3.103-3.102-3.103z"/><path d="m214.092 325.214c-1.713 0-3.102 1.389-3.102 3.103 0 1.713 1.389 3.102 3.102 3.102s3.102-1.389 3.102-3.102c0-1.714-1.389-3.103-3.102-3.103z"/><path d="m203.715 335.59c-.6 0-1.155.178-1.63.473.415.162.827.323 1.229.482 1.143.452 2.26.873 3.365 1.281-.376-1.289-1.554-2.236-2.964-2.236z"/><path d="m183.715 295.59c-1.713 0-3.102 1.389-3.102 3.103s1.389 3.102 3.102 3.102 3.102-1.389 3.102-3.102-1.389-3.103-3.102-3.103z"/><path d="m194.092 305.214c-1.713 0-3.102 1.389-3.102 3.103 0 1.713 1.389 3.102 3.102 3.102s3.102-1.389 3.102-3.102c0-1.714-1.389-3.103-3.102-3.103z"/><path d="m183.715 315.59c-1.713 0-3.102 1.389-3.102 3.103s1.389 3.102 3.102 3.102 3.102-1.389 3.102-3.102-1.389-3.103-3.102-3.103z"/><path d="m194.092 325.214c-1.713 0-3.102 1.389-3.102 3.103 0 1.713 1.389 3.102 3.102 3.102s3.102-1.389 3.102-3.102c0-1.714-1.389-3.103-3.102-3.103z"/><path d="m163.715 275.59c-1.713 0-3.102 1.389-3.102 3.103s1.389 3.102 3.102 3.102 3.102-1.389 3.102-3.102-1.389-3.103-3.102-3.103z"/><path d="m174.092 285.214c-1.713 0-3.102 1.389-3.102 3.103 0 1.713 1.389 3.102 3.102 3.102s3.102-1.389 3.102-3.102c0-1.714-1.389-3.103-3.102-3.103z"/><path d="m163.715 295.59c-1.713 0-3.102 1.389-3.102 3.103s1.389 3.102 3.102 3.102 3.102-1.389 3.102-3.102-1.389-3.103-3.102-3.103z"/><path d="m174.092 305.214c-1.713 0-3.102 1.389-3.102 3.103 0 1.713 1.389 3.102 3.102 3.102s3.102-1.389 3.102-3.102c0-1.714-1.389-3.103-3.102-3.103z"/><path d="m163.715 315.59c-1.713 0-3.102 1.389-3.102 3.103 0 .516.138.996.361 1.424 1.216.519 2.43 1.029 3.638 1.531 1.273-.387 2.205-1.556 2.205-2.955 0-1.714-1.389-3.103-3.102-3.103z"/><path d="m174.092 325.214c-.173 0-.34.024-.505.051.985.386 1.964.768 2.934 1.143-.568-.722-1.44-1.194-2.429-1.194z"/><path d="m143.715 255.59c-1.713 0-3.102 1.389-3.102 3.103s1.389 3.102 3.102 3.102 3.102-1.389 3.102-3.102-1.389-3.103-3.102-3.103z"/><path d="m154.092 265.214c-1.713 0-3.102 1.389-3.102 3.103 0 1.713 1.389 3.102 3.102 3.102s3.102-1.389 3.102-3.102c0-1.714-1.389-3.103-3.102-3.103z"/><path d="m143.715 275.59c-1.713 0-3.102 1.389-3.102 3.103s1.389 3.102 3.102 3.102 3.102-1.389 3.102-3.102-1.389-3.103-3.102-3.103z"/><path d="m154.092 285.214c-1.713 0-3.102 1.389-3.102 3.103 0 1.713 1.389 3.102 3.102 3.102s3.102-1.389 3.102-3.102c0-1.714-1.389-3.103-3.102-3.103z"/><path d="m143.715 295.59c-1.713 0-3.102 1.389-3.102 3.103s1.389 3.102 3.102 3.102 3.102-1.389 3.102-3.102-1.389-3.103-3.102-3.103z"/><path d="m154.092 305.214c-1.713 0-3.102 1.389-3.102 3.103 0 1.713 1.389 3.102 3.102 3.102s3.102-1.389 3.102-3.102c0-1.714-1.389-3.103-3.102-3.103z"/><path d="m123.715 255.59c-1.713 0-3.102 1.389-3.102 3.103s1.389 3.102 3.102 3.102 3.102-1.389 3.102-3.102-1.389-3.103-3.102-3.103z"/><path d="m134.092 265.214c-1.713 0-3.102 1.389-3.102 3.103 0 1.713 1.389 3.102 3.102 3.102s3.102-1.389 3.102-3.102c0-1.714-1.389-3.103-3.102-3.103z"/><path d="m123.715 275.59c-1.713 0-3.102 1.389-3.102 3.103s1.389 3.102 3.102 3.102 3.102-1.389 3.102-3.102-1.389-3.103-3.102-3.103z"/><path d="m134.092 285.214c-1.713 0-3.102 1.389-3.102 3.103 0 1.713 1.389 3.102 3.102 3.102s3.102-1.389 3.102-3.102c0-1.714-1.389-3.103-3.102-3.103z"/><path d="m123.715 295.59c-1.636 0-2.962 1.271-3.08 2.877 1.438 1.027 2.909 2.033 4.41 3.018 1.045-.499 1.772-1.557 1.772-2.792 0-1.714-1.389-3.103-3.102-3.103z"/><path d="m134.092 305.214c-.728 0-1.389.262-1.918.682 1.639.958 3.301 1.897 4.981 2.814.017-.13.04-.258.04-.393-.001-1.714-1.39-3.103-3.103-3.103z"/><path d="m103.715 235.59c-1.713 0-3.102 1.389-3.102 3.103 0 1.713 1.389 3.102 3.102 3.102s3.102-1.389 3.102-3.102c0-1.714-1.389-3.103-3.102-3.103z"/><path d="m114.091 245.214c-1.713 0-3.102 1.389-3.102 3.103 0 1.713 1.389 3.102 3.102 3.102s3.102-1.389 3.102-3.102c.001-1.714-1.388-3.103-3.102-3.103z"/><path d="m103.715 255.59c-1.713 0-3.102 1.389-3.102 3.103s1.389 3.102 3.102 3.102 3.102-1.389 3.102-3.102-1.389-3.103-3.102-3.103z"/><path d="m114.091 265.214c-1.713 0-3.102 1.389-3.102 3.103 0 1.713 1.389 3.102 3.102 3.102s3.102-1.389 3.102-3.102c.001-1.714-1.388-3.103-3.102-3.103z"/><path d="m103.715 275.59c-1.713 0-3.102 1.389-3.102 3.103 0 .309.059.602.143.884.426.583.862 1.163 1.313 1.736.478.301 1.039.482 1.646.482 1.713 0 3.102-1.389 3.102-3.102s-1.389-3.103-3.102-3.103z"/><path d="m114.091 285.214c-1.713 0-3.102 1.389-3.102 3.103 0 1.713 1.389 3.102 3.102 3.102s3.102-1.389 3.102-3.102c.001-1.714-1.388-3.103-3.102-3.103z"/><path d="m94.091 245.214c-1.713 0-3.102 1.389-3.102 3.103 0 1.713 1.389 3.102 3.102 3.102s3.102-1.389 3.102-3.102c.001-1.714-1.388-3.103-3.102-3.103z"/><path d="m94.091 265.214c-.369 0-.718.076-1.046.194.718 1.578 1.497 3.269 2.335 5.096.076.167.161.331.239.496.936-.534 1.574-1.53 1.574-2.684.001-1.713-1.388-3.102-3.102-3.102z"/></g><g fill="#31373d"><path d="m511.746 353.135c0-20.441-10.911-39.632-28.475-50.088l-108.676-64.687c-2.191-1.305-3.551-3.699-3.551-6.247 0-.222-.018-.442-.052-.661l-12.845-80.323c-.134-7.744-4.686-14.884-11.676-18.259-.158-.076-.321-.143-.487-.199-.535-.18-13.296-4.352-30.79-.509-13.998 3.076-33.544 12.027-51.412 36.55-8.486-4.444-17.123-5.593-24.34-6.549-4.672-.617-9.107-1.204-13.487-2.565-2.232-4.547-8.296-23.646-10.268-41.092-.607-5.369.56-11.308 1.687-17.052.685-3.49 1.427-7.286 1.555-10.873 1.889-6.11 2.286-9.232-.978-11.129-2.05-1.192-4.132-2.009-6.208-2.482-.567-.238-1.169-.455-1.82-.642-7.334-2.098-15.822 3.845-25.946 18.16-6.763 9.561-11.823 19.409-12.034 19.823-.021.042-.042.083-.061.124l-2.271 4.826c-4.449 6.311-8.927 12.42-12.639 16.989-1.936 2.383-3.962 4.762-6.105 7.279-11.508 13.513-25.828 30.331-39.553 64.284-2.948 7.294-4.922 13.79-6.071 19.628-10.8 1.927-19.104 11.804-25.335 19.256-1.235 1.478-2.402 2.874-3.502 4.111-13.067 14.7-10.378 20.557-1.47 39.961l.793 1.731c14.95 32.616 64.65 51.133 97.538 63.386 4.61 1.718 8.966 3.341 12.661 4.802 11.787 4.66 21.368 6.887 29.822 8.852 11.73 2.728 20.204 4.698 27.781 11.872 18.708 17.716 56.213 42.384 78.406 48.878 8.814 2.578 25.435 5.537 76.164 5.537 7.402 0 15.401-.101 23.773-.3 19.11-.456 31.011-.458 35.371-.012.458.047.934.099 1.553.049 6.421-.49 38.877-4.207 47.26-29.356 1.643-4.928 1.377-9.624-.702-13.482 4.038-6.292 6.393-13.76 6.393-21.776v-17.815zm-8.362 0v17.815c0 5.698-1.516 11.039-4.132 15.682-3.426-1.912-7.717-2.779-12.454-2.418-31.53 2.405-67.285 3.745-95.998 3.447 3.053-13.893 9.182-29.57 20.321-32.046 8.083-1.796 18.142-2.986 27.868-4.136 20.091-2.377 37.443-4.43 43.572-11.58 5.784-6.749 4.076-17.943 1.663-26.071 11.947 9.381 19.16 23.929 19.16 39.307zm-206.375-84.046c-.394-1.45-.822-2.863-1.275-4.241 4.495 1.109 8.944 1.433 13.337 1.433 2.972 0 5.919-.145 8.836-.289 2.823-.14 5.74-.284 8.586-.284 16.251 0 34.901-10.108 43.865-14.966 1.386-.751 2.954-1.602 3.426-1.797.432-.142.817-.372 1.174-.637l82.083 48.858c1.642 2.761 5.483 11.037 3.015 15.238-1.86 3.163-7.537 3.626-11.959 3.464-32.487-1.221-55.078.032-74.385 10.045-16.074 8.336-29.882 22.495-47.445 49.07-11.127-7.272-27.504-18.681-45.978-31.754 21.933-29.631 21.611-56.132 16.72-74.14zm19.525-128.657c14.142-3.22 24.891-.388 26.562.099 4.074 2.091 6.691 6.357 6.691 10.951 0 .221.017.442.052.66l12.589 78.728c-7.015-2.032-15.762-1.47-24.848-.866-11.838.785-24.081 1.599-32.885-3.19-5.842-3.177-9.363-7.764-11.417-14.874-5.344-18.499-12.514-30.819-22.493-38.678 13.032-17.853 28.38-28.878 45.749-32.83zm-159.302 8.52c2.176-2.556 4.231-4.971 6.229-7.428.598-.735 1.217-1.517 1.846-2.319 6.275 28.462 30.603 51.319 46.651 56.875 8.508 2.945 16.187 3.962 22.365 4.779 6.21.821 10.12 1.403 12.193 2.953 1.805 1.353 5.408 5.613 9.265 18.96 4.802 16.622 14.948 29.662 29.354 37.803 1.487 3.377 2.836 7.067 3.895 11.04 6.013 22.562.782 44.97-15.531 66.802-12.041-8.546-24.775-17.643-37.393-26.658-28.417-20.302-57.802-41.295-80.847-57.16-26.245-18.068-36.731-24.304-41.666-26.424 1.08-5.075 2.859-10.759 5.473-17.227 13.215-32.697 26.47-48.263 38.166-61.996zm340.889 254.612c-6.657 19.973-34.03 23.192-39.831 23.652l-.195-.02c-1.755-.179-7.097-.726-36.423-.029-8.307.198-16.238.298-23.574.298-49.667 0-65.538-2.779-73.816-5.2-18.935-5.542-55.386-28.346-75.005-46.924-9.222-8.734-19.113-11.034-31.637-13.945-8.169-1.9-17.43-4.052-28.64-8.484-3.773-1.491-8.165-3.129-12.816-4.861-31.597-11.773-79.348-29.564-92.855-59.036l-.796-1.735c-8.615-18.764-9.319-20.298.12-30.917 1.185-1.332 2.392-2.775 3.669-4.303 6.192-7.407 13.874-16.596 22.683-16.596.094 0 .188.001.282.003 8.344 1.927 71.321 46.92 121.957 83.096 51.153 36.546 95.331 68.106 105.384 72.192 20.082 8.158 103.159 5.431 150.804 1.797 4.406-.331 8.142.887 9.995 3.262 1.898 2.433 1.425 5.557.694 7.75z"/><path d="m125.855 115.065h-121.951c-2.156 0-3.904-1.793-3.904-4.004s1.748-4.003 3.904-4.003h121.951c2.156 0 3.904 1.792 3.904 4.003s-1.748 4.004-3.904 4.004z"/><path d="m70.004 180.03h-66.1c-2.156 0-3.904-1.793-3.904-4.004s1.748-4.003 3.904-4.003h66.1c2.156 0 3.904 1.793 3.904 4.003 0 2.212-1.748 4.004-3.904 4.004z"/></g></g></svg>