<svg id="Capa_1" enable-background="new 0 0 511.691 511.691" height="512" viewBox="0 0 511.691 511.691" width="512" xmlns="http://www.w3.org/2000/svg"><g><path d="m39.173 474.359-1.84-1.84c-45.102-45.102-45.102-118.227 0-163.329l271.856-271.857c45.102-45.102 118.227-45.102 163.329 0l1.84 1.84c45.102 45.102 45.102 118.227 0 163.329l-271.856 271.857c-45.102 45.102-118.227 45.102-163.329 0z" fill="#e9c278"/><path d="m499.74 163.137-356.543 40.188-104.944 104.944c-12.078 12.077-20.955 26.143-26.637 41.142l355.839-40.006 105.984-105.983c11.846-11.847 20.608-25.607 26.301-40.285z" fill="#eaa895"/><g fill="#f9fbfc"><path d="m500.803 81.387c-.038.195-.061.396-.061.602 0 .938.421 1.771 1.074 2.346-.324-.986-.662-1.969-1.013-2.948z"/><path d="m503.879 105.352c1.058 0 1.988-.527 2.557-1.329-.21-1.451-.455-2.898-.719-4.341-.517-.376-1.149-.604-1.837-.604-1.733 0-3.137 1.405-3.137 3.137-.001 1.732 1.404 3.137 3.136 3.137z"/><path d="m503.879 119.303c-1.733 0-3.137 1.404-3.137 3.137 0 1.732 1.405 3.137 3.137 3.137 1.733 0 3.137-1.405 3.137-3.137.001-1.733-1.404-3.137-3.137-3.137z"/><path d="m500.742 142.665c0 1.733 1.405 3.137 3.137 3.137.398 0 .775-.082 1.125-.217.374-1.731.711-3.468 1.005-5.211-.56-.521-1.305-.847-2.13-.847-1.732.001-3.137 1.405-3.137 3.138z"/><circle cx="483.654" cy="61.764" r="3.137"/><path d="m494.147 74.633c1.425 0 2.614-.956 2.997-2.257-.578-1.268-1.178-2.528-1.804-3.779-.368-.152-.77-.238-1.193-.238-1.733 0-3.137 1.404-3.137 3.137 0 1.732 1.405 3.137 3.137 3.137z"/><circle cx="483.654" cy="81.989" r="3.137"/><circle cx="494.147" cy="91.721" r="3.137"/><circle cx="483.654" cy="102.214" r="3.137"/><circle cx="494.147" cy="111.946" r="3.137"/><path d="m483.654 125.577c1.733 0 3.137-1.405 3.137-3.137 0-1.733-1.404-3.137-3.137-3.137s-3.137 1.404-3.137 3.137c0 1.732 1.404 3.137 3.137 3.137z"/><circle cx="494.147" cy="132.172" r="3.137"/><path d="m483.654 145.802c1.733 0 3.137-1.404 3.137-3.137 0-1.732-1.404-3.137-3.137-3.137s-3.137 1.405-3.137 3.137c0 1.733 1.404 3.137 3.137 3.137z"/><circle cx="494.147" cy="152.397" r="3.137"/><path d="m491.01 172.622c0 1.67 1.309 3.022 2.954 3.119.902-1.693 1.76-3.403 2.573-5.129-.576-.683-1.427-1.126-2.39-1.126-1.732-.001-3.137 1.404-3.137 3.136z"/><path d="m483.654 179.978c-1.733 0-3.137 1.405-3.137 3.137 0 1.733 1.404 3.138 3.137 3.138s3.137-1.405 3.137-3.138c0-1.732-1.404-3.137-3.137-3.137z"/><circle cx="463.429" cy="41.538" r="3.137"/><circle cx="473.922" cy="51.27" r="3.137"/><path d="m464.133 58.712c.337 1.909.639 3.823.881 5.744.925-.545 1.552-1.542 1.552-2.693 0-1.489-1.041-2.73-2.433-3.051z"/><circle cx="473.922" cy="71.495" r="3.137"/><path d="m465.926 80.108c-.011 1.287-.029 2.574-.082 3.86.444-.541.722-1.225.722-1.98 0-.708-.244-1.354-.64-1.88z"/><circle cx="473.922" cy="91.721" r="3.137"/><path d="m464.204 99.185c-.355 2.049-.77 4.089-1.235 6.12.151.022.302.046.46.046 1.732 0 3.137-1.405 3.137-3.137 0-1.464-1.007-2.682-2.362-3.029z"/><circle cx="473.922" cy="111.946" r="3.137"/><path d="m463.429 125.577c1.732 0 3.137-1.405 3.137-3.137 0-1.733-1.405-3.137-3.137-3.137-1.733 0-3.137 1.404-3.137 3.137 0 1.732 1.404 3.137 3.137 3.137z"/><circle cx="473.922" cy="132.172" r="3.137"/><path d="m463.429 145.802c1.732 0 3.137-1.404 3.137-3.137 0-1.732-1.405-3.137-3.137-3.137-1.733 0-3.137 1.405-3.137 3.137 0 1.733 1.404 3.137 3.137 3.137z"/><circle cx="473.922" cy="152.397" r="3.137"/><path d="m463.429 179.978c-1.733 0-3.137 1.405-3.137 3.137 0 1.733 1.405 3.138 3.137 3.138s3.137-1.405 3.137-3.138c0-1.732-1.405-3.137-3.137-3.137z"/><circle cx="473.922" cy="192.848" r="3.137"/><circle cx="463.429" cy="203.341" r="3.137"/><path d="m456.834 31.044c0-1.577-1.168-2.87-2.683-3.091.767 1.574 1.503 3.158 2.196 4.757.304-.483.487-1.051.487-1.666z"/><path d="m456.834 132.172c0-1.382-.9-2.542-2.141-2.96-.882 1.858-1.82 3.696-2.805 5.516.512.363 1.134.582 1.809.582 1.732-.001 3.137-1.406 3.137-3.138z"/><circle cx="453.697" cy="152.397" r="3.137"/><path d="m443.203 179.978c-1.732 0-3.137 1.405-3.137 3.137 0 1.733 1.405 3.138 3.137 3.138 1.733 0 3.137-1.405 3.137-3.138 0-1.732-1.404-3.137-3.137-3.137z"/><circle cx="453.697" cy="192.848" r="3.137"/><circle cx="443.203" cy="203.341" r="3.137"/><path d="m453.697 209.936c-1.733 0-3.137 1.405-3.137 3.137 0 1.733 1.405 3.137 3.137 3.137s3.137-1.404 3.137-3.137c0-1.732-1.405-3.137-3.137-3.137z"/><circle cx="443.203" cy="223.567" r="3.137"/><path d="m422.978 179.978c-1.733 0-3.137 1.405-3.137 3.137 0 1.733 1.405 3.138 3.137 3.138 1.733 0 3.137-1.405 3.137-3.138 0-1.732-1.404-3.137-3.137-3.137z"/><path d="m433.471 189.71c-1.733 0-3.137 1.405-3.137 3.137 0 1.733 1.405 3.137 3.137 3.137 1.733 0 3.137-1.404 3.137-3.137 0-1.732-1.404-3.137-3.137-3.137z"/><path d="m422.978 200.204c-1.733 0-3.137 1.405-3.137 3.137s1.405 3.137 3.137 3.137c1.733 0 3.137-1.405 3.137-3.137s-1.404-3.137-3.137-3.137z"/><path d="m433.471 209.936c-1.733 0-3.137 1.405-3.137 3.137 0 1.733 1.405 3.137 3.137 3.137 1.733 0 3.137-1.404 3.137-3.137 0-1.732-1.404-3.137-3.137-3.137z"/><path d="m422.978 220.43c-1.733 0-3.137 1.404-3.137 3.137 0 1.732 1.405 3.137 3.137 3.137 1.733 0 3.137-1.405 3.137-3.137 0-1.733-1.404-3.137-3.137-3.137z"/><path d="m433.471 230.161c-1.733 0-3.137 1.404-3.137 3.137 0 1.732 1.405 3.137 3.137 3.137 1.733 0 3.137-1.405 3.137-3.137s-1.404-3.137-3.137-3.137z"/><path d="m422.978 240.655c-1.733 0-3.137 1.405-3.137 3.137 0 1.733 1.405 3.137 3.137 3.137 1.733 0 3.137-1.404 3.137-3.137s-1.404-3.137-3.137-3.137z"/><circle cx="413.246" cy="192.848" r="3.137"/><circle cx="402.753" cy="203.341" r="3.137"/><path d="m413.246 209.936c-1.733 0-3.137 1.405-3.137 3.137 0 1.733 1.405 3.137 3.137 3.137s3.137-1.404 3.137-3.137c0-1.732-1.404-3.137-3.137-3.137z"/><circle cx="402.753" cy="223.567" r="3.137"/><circle cx="413.246" cy="233.299" r="3.137"/><circle cx="402.753" cy="243.792" r="3.137"/><circle cx="413.246" cy="253.524" r="3.137"/><circle cx="402.753" cy="264.017" r="3.137"/><circle cx="393.021" cy="233.299" r="3.137"/><circle cx="382.527" cy="243.792" r="3.137"/><circle cx="393.021" cy="253.524" r="3.137"/><circle cx="382.527" cy="264.017" r="3.137"/><circle cx="393.021" cy="273.749" r="3.137"/><path d="m382.527 281.106c-1.733 0-3.137 1.404-3.137 3.137s1.404 3.138 3.137 3.138 3.137-1.405 3.137-3.138-1.404-3.137-3.137-3.137z"/><circle cx="362.302" cy="243.792" r="3.137"/><path d="m372.795 250.387c-1.733 0-3.137 1.405-3.137 3.137 0 1.733 1.405 3.137 3.137 3.137 1.733 0 3.137-1.404 3.137-3.137s-1.404-3.137-3.137-3.137z"/><circle cx="362.302" cy="264.017" r="3.137"/><path d="m372.795 270.612c-1.733 0-3.137 1.405-3.137 3.137s1.405 3.137 3.137 3.137c1.733 0 3.137-1.405 3.137-3.137s-1.404-3.137-3.137-3.137z"/><path d="m362.302 287.38c1.732 0 3.137-1.405 3.137-3.138 0-1.732-1.405-3.137-3.137-3.137-1.733 0-3.137 1.404-3.137 3.137s1.404 3.138 3.137 3.138z"/><path d="m372.795 290.838c-1.733 0-3.137 1.404-3.137 3.137 0 1.732 1.405 3.137 3.137 3.137 1.733 0 3.137-1.405 3.137-3.137 0-1.733-1.404-3.137-3.137-3.137z"/><path d="m352.57 256.661c1.732 0 3.137-1.404 3.137-3.137 0-1.732-1.405-3.137-3.137-3.137-1.733 0-3.137 1.405-3.137 3.137-.001 1.733 1.404 3.137 3.137 3.137z"/><circle cx="342.076" cy="264.017" r="3.137"/><path d="m352.57 276.887c1.732 0 3.137-1.405 3.137-3.137s-1.405-3.137-3.137-3.137c-1.733 0-3.137 1.405-3.137 3.137-.001 1.732 1.404 3.137 3.137 3.137z"/><path d="m342.076 287.38c1.733 0 3.137-1.405 3.137-3.138 0-1.732-1.405-3.137-3.137-3.137-1.733 0-3.137 1.404-3.137 3.137s1.405 3.138 3.137 3.138z"/><path d="m352.57 297.112c1.732 0 3.137-1.405 3.137-3.137 0-1.733-1.405-3.137-3.137-3.137-1.733 0-3.137 1.404-3.137 3.137-.001 1.732 1.404 3.137 3.137 3.137z"/><circle cx="342.076" cy="324.694" r="3.137"/><circle cx="332.344" cy="273.749" r="3.137"/><path d="m321.851 287.38c1.733 0 3.137-1.405 3.137-3.138 0-1.732-1.405-3.137-3.137-3.137s-3.137 1.404-3.137 3.137 1.404 3.138 3.137 3.138z"/><circle cx="332.344" cy="293.975" r="3.137"/><circle cx="321.851" cy="304.468" r="3.137"/><circle cx="321.851" cy="324.694" r="3.137"/><circle cx="332.344" cy="334.426" r="3.137"/><path d="m321.851 341.782c-1.733 0-3.137 1.405-3.137 3.137 0 1.733 1.404 3.137 3.137 3.137s3.137-1.404 3.137-3.137-1.404-3.137-3.137-3.137z"/><circle cx="312.119" cy="293.975" r="3.137"/><path d="m304.763 304.468c0-1.732-1.405-3.137-3.137-3.137-1.733 0-3.137 1.405-3.137 3.137 0 1.733 1.405 3.137 3.137 3.137s3.137-1.404 3.137-3.137z"/><circle cx="312.119" cy="334.426" r="3.137"/><path d="m301.625 341.782c-1.733 0-3.137 1.405-3.137 3.137 0 1.733 1.405 3.137 3.137 3.137 1.733 0 3.137-1.404 3.137-3.137.001-1.733-1.404-3.137-3.137-3.137z"/><path d="m312.119 351.514c-1.733 0-3.137 1.404-3.137 3.137s1.404 3.138 3.137 3.138 3.137-1.405 3.137-3.138-1.404-3.137-3.137-3.137z"/><path d="m301.625 362.007c-1.733 0-3.137 1.405-3.137 3.137 0 1.733 1.405 3.137 3.137 3.137 1.733 0 3.137-1.404 3.137-3.137.001-1.732-1.404-3.137-3.137-3.137z"/><circle cx="291.894" cy="334.426" r="3.137"/><path d="m281.4 341.782c-1.732 0-3.137 1.405-3.137 3.137 0 1.733 1.405 3.137 3.137 3.137 1.733 0 3.137-1.404 3.137-3.137s-1.404-3.137-3.137-3.137z"/><path d="m291.894 351.514c-1.733 0-3.137 1.404-3.137 3.137s1.404 3.138 3.137 3.138c1.732 0 3.137-1.405 3.137-3.138s-1.405-3.137-3.137-3.137z"/><circle cx="281.4" cy="365.144" r="3.137"/><circle cx="291.894" cy="374.876" r="3.137"/><circle cx="281.4" cy="385.37" r="3.137"/><path d="m271.668 331.289c-1.732 0-3.137 1.404-3.137 3.137 0 1.732 1.405 3.137 3.137 3.137 1.733 0 3.138-1.405 3.138-3.137 0-1.733-1.405-3.137-3.138-3.137z"/><path d="m261.175 341.782c-1.733 0-3.137 1.405-3.137 3.137 0 1.733 1.405 3.137 3.137 3.137 1.733 0 3.137-1.404 3.137-3.137s-1.405-3.137-3.137-3.137z"/><path d="m271.668 351.514c-1.732 0-3.137 1.404-3.137 3.137s1.405 3.138 3.137 3.138c1.733 0 3.138-1.405 3.138-3.138s-1.405-3.137-3.138-3.137z"/><circle cx="261.175" cy="365.144" r="3.137"/><path d="m271.668 371.739c-1.732 0-3.137 1.405-3.137 3.137 0 1.733 1.405 3.137 3.137 3.137 1.733 0 3.138-1.404 3.138-3.137 0-1.732-1.405-3.137-3.138-3.137z"/><circle cx="261.175" cy="385.37" r="3.137"/><path d="m271.668 391.965c-1.732 0-3.137 1.404-3.137 3.137 0 1.732 1.405 3.137 3.137 3.137 1.733 0 3.138-1.405 3.138-3.137 0-1.733-1.405-3.137-3.138-3.137z"/><circle cx="261.175" cy="405.595" r="3.137"/><path d="m251.443 351.514c-1.733 0-3.137 1.404-3.137 3.137s1.405 3.138 3.137 3.138 3.137-1.405 3.137-3.138-1.405-3.137-3.137-3.137z"/><circle cx="240.949" cy="365.144" r="3.137"/><path d="m251.443 371.739c-1.733 0-3.137 1.405-3.137 3.137 0 1.733 1.405 3.137 3.137 3.137s3.137-1.404 3.137-3.137c0-1.732-1.405-3.137-3.137-3.137z"/><circle cx="240.949" cy="385.37" r="3.137"/><path d="m251.443 391.965c-1.733 0-3.137 1.404-3.137 3.137 0 1.732 1.405 3.137 3.137 3.137s3.137-1.405 3.137-3.137c0-1.733-1.405-3.137-3.137-3.137z"/><circle cx="240.949" cy="405.595" r="3.137"/><path d="m251.443 412.19c-1.733 0-3.137 1.405-3.137 3.137 0 1.733 1.405 3.137 3.137 3.137s3.137-1.404 3.137-3.137c0-1.732-1.405-3.137-3.137-3.137z"/><circle cx="240.949" cy="425.821" r="3.137"/><path d="m231.217 391.965c-1.733 0-3.137 1.404-3.137 3.137 0 1.732 1.405 3.137 3.137 3.137 1.733 0 3.137-1.405 3.137-3.137.001-1.733-1.404-3.137-3.137-3.137z"/><circle cx="220.724" cy="405.595" r="3.137"/><path d="m231.217 412.19c-1.733 0-3.137 1.405-3.137 3.137 0 1.733 1.405 3.137 3.137 3.137 1.733 0 3.137-1.404 3.137-3.137.001-1.732-1.404-3.137-3.137-3.137z"/><circle cx="220.724" cy="425.821" r="3.137"/><path d="m231.217 432.415c-1.733 0-3.137 1.404-3.137 3.137s1.405 3.137 3.137 3.137c1.733 0 3.137-1.404 3.137-3.137.001-1.732-1.404-3.137-3.137-3.137z"/><path d="m220.724 442.909c-1.733 0-3.137 1.405-3.137 3.138 0 1.732 1.405 3.137 3.137 3.137 1.733 0 3.137-1.404 3.137-3.137 0-1.734-1.404-3.138-3.137-3.138z"/><circle cx="200.499" cy="405.595" r="3.137"/><path d="m210.992 412.19c-1.733 0-3.137 1.405-3.137 3.137 0 1.733 1.405 3.137 3.137 3.137 1.733 0 3.137-1.404 3.137-3.137 0-1.732-1.404-3.137-3.137-3.137z"/><circle cx="200.499" cy="425.821" r="3.137"/><path d="m210.992 432.415c-1.733 0-3.137 1.404-3.137 3.137s1.405 3.137 3.137 3.137c1.733 0 3.137-1.404 3.137-3.137 0-1.732-1.404-3.137-3.137-3.137z"/><path d="m200.499 442.909c-1.733 0-3.137 1.405-3.137 3.138 0 1.732 1.404 3.137 3.137 3.137 1.732 0 3.137-1.404 3.137-3.137 0-1.734-1.405-3.138-3.137-3.138z"/><path d="m210.992 452.641c-1.733 0-3.137 1.404-3.137 3.137s1.405 3.138 3.137 3.138c1.733 0 3.137-1.405 3.137-3.138s-1.404-3.137-3.137-3.137z"/><circle cx="200.499" cy="466.271" r="3.137"/><path d="m190.767 412.19c-1.733 0-3.137 1.405-3.137 3.137 0 1.733 1.405 3.137 3.137 3.137s3.137-1.404 3.137-3.137c0-1.732-1.405-3.137-3.137-3.137z"/><circle cx="180.273" cy="425.821" r="3.137"/><path d="m190.767 432.415c-1.733 0-3.137 1.404-3.137 3.137s1.405 3.137 3.137 3.137 3.137-1.404 3.137-3.137c0-1.732-1.405-3.137-3.137-3.137z"/><path d="m180.273 442.909c-1.732 0-3.137 1.405-3.137 3.138 0 1.732 1.405 3.137 3.137 3.137 1.733 0 3.137-1.404 3.137-3.137 0-1.734-1.404-3.138-3.137-3.138z"/><path d="m190.767 452.641c-1.733 0-3.137 1.404-3.137 3.137s1.405 3.138 3.137 3.138 3.137-1.405 3.137-3.138-1.405-3.137-3.137-3.137z"/><circle cx="180.273" cy="466.271" r="3.137"/><path d="m190.767 472.866c-1.733 0-3.137 1.405-3.137 3.137 0 1.733 1.405 3.137 3.137 3.137s3.137-1.404 3.137-3.137c0-1.732-1.405-3.137-3.137-3.137z"/><circle cx="180.273" cy="486.497" r="3.137"/><path d="m170.541 432.415c-1.732 0-3.137 1.404-3.137 3.137s1.405 3.137 3.137 3.137c1.733 0 3.137-1.404 3.137-3.137 0-1.732-1.404-3.137-3.137-3.137z"/><path d="m160.048 442.909c-1.733 0-3.137 1.405-3.137 3.138 0 1.732 1.404 3.137 3.137 3.137s3.137-1.404 3.137-3.137c0-1.734-1.405-3.138-3.137-3.138z"/><path d="m170.541 452.641c-1.732 0-3.137 1.404-3.137 3.137s1.405 3.138 3.137 3.138c1.733 0 3.137-1.405 3.137-3.138s-1.404-3.137-3.137-3.137z"/><circle cx="160.048" cy="466.271" r="3.137"/><circle cx="170.541" cy="476.003" r="3.137"/><circle cx="160.048" cy="486.497" r="3.137"/><path d="m170.541 493.092c-1.732 0-3.137 1.404-3.137 3.137 0 .575.166 1.107.436 1.57 1.896-.832 3.774-1.721 5.633-2.66-.444-1.193-1.584-2.047-2.932-2.047z"/><path d="m142.76 447.115c-1.079.702-2.171 1.372-3.267 2.035.11.012.217.033.329.033 1.356 0 2.5-.864 2.938-2.068z"/><path d="m150.316 452.641c-1.733 0-3.137 1.404-3.137 3.137s1.405 3.138 3.137 3.138c1.733 0 3.137-1.405 3.137-3.138s-1.405-3.137-3.137-3.137z"/><circle cx="139.822" cy="466.271" r="3.137"/><circle cx="150.316" cy="476.003" r="3.137"/><circle cx="139.822" cy="486.497" r="3.137"/><circle cx="150.316" cy="496.229" r="3.137"/><path d="m139.822 503.585c-1.678 0-3.036 1.321-3.121 2.978 2.019-.275 4.032-.6 6.037-.981-.457-1.168-1.587-1.997-2.916-1.997z"/><path d="m132.001 453.306c-1.666.846-3.346 1.65-5.042 2.411 0 .021-.006.04-.006.061 0 1.733 1.404 3.138 3.137 3.138 1.732 0 3.137-1.405 3.137-3.138.001-1.01-.485-1.898-1.226-2.472z"/><path d="m119.597 463.134c-1.733 0-3.137 1.405-3.137 3.137 0 1.733 1.405 3.137 3.137 3.137s3.137-1.404 3.137-3.137c0-1.732-1.405-3.137-3.137-3.137z"/><circle cx="130.09" cy="476.003" r="3.137"/><path d="m119.597 483.36c-1.733 0-3.137 1.404-3.137 3.137 0 1.732 1.405 3.137 3.137 3.137s3.137-1.405 3.137-3.137c0-1.733-1.405-3.137-3.137-3.137z"/><circle cx="130.09" cy="496.229" r="3.137"/><path d="m119.597 503.585c-1.733 0-3.137 1.405-3.137 3.137 0 .292.053.57.128.839 1.999.072 3.999.094 5.999.064.087-.288.148-.587.148-.903-.001-1.732-1.406-3.137-3.138-3.137z"/><path d="m101.302 463.816c-1.522.293-3.048.556-4.579.788-.306.484-.489 1.053-.489 1.668 0 1.733 1.405 3.137 3.137 3.137 1.733 0 3.137-1.404 3.137-3.137.001-1.001-.476-1.882-1.206-2.456z"/><path d="m109.865 472.866c-1.732 0-3.137 1.405-3.137 3.137 0 1.733 1.405 3.137 3.137 3.137 1.733 0 3.137-1.404 3.137-3.137 0-1.732-1.404-3.137-3.137-3.137z"/><path d="m99.371 483.36c-1.733 0-3.137 1.404-3.137 3.137 0 1.732 1.405 3.137 3.137 3.137 1.733 0 3.137-1.405 3.137-3.137.001-1.733-1.404-3.137-3.137-3.137z"/><path d="m109.865 493.092c-1.732 0-3.137 1.404-3.137 3.137 0 1.732 1.405 3.137 3.137 3.137 1.733 0 3.137-1.405 3.137-3.137 0-1.733-1.404-3.137-3.137-3.137z"/><path d="m99.371 503.585c-1.148 0-2.141.623-2.688 1.543 1.916.403 3.841.757 5.771 1.063-.253-1.479-1.532-2.606-3.083-2.606z"/><path d="m76.048 465.883c-.016.129-.039.255-.039.389 0 1.733 1.404 3.137 3.137 3.137s3.137-1.404 3.137-3.137c0-.133-.023-.26-.039-.389-2.065.054-4.131.054-6.196 0z"/><path d="m89.64 472.866c-1.733 0-3.137 1.405-3.137 3.137 0 1.733 1.405 3.137 3.137 3.137 1.733 0 3.137-1.404 3.137-3.137 0-1.732-1.405-3.137-3.137-3.137z"/><circle cx="79.146" cy="486.497" r="3.137"/><path d="m89.64 493.092c-1.733 0-3.137 1.404-3.137 3.137 0 1.732 1.405 3.137 3.137 3.137 1.733 0 3.137-1.405 3.137-3.137 0-1.733-1.405-3.137-3.137-3.137z"/><path d="m56.989 463.817c-.729.574-1.205 1.455-1.205 2.455 0 1.733 1.404 3.137 3.137 3.137s3.137-1.404 3.137-3.137c0-.614-.183-1.183-.488-1.667-1.532-.233-3.058-.496-4.581-.788z"/><circle cx="69.414" cy="476.003" r="3.137"/><path d="m58.921 483.36c-1.733 0-3.137 1.404-3.137 3.137 0 .637.193 1.227.519 1.722.698.464 1.401.916 2.106 1.363.168.028.337.052.512.052 1.733 0 3.137-1.405 3.137-3.137 0-1.733-1.405-3.137-3.137-3.137z"/><path d="m69.414 493.092c-1.068 0-2.009.536-2.576 1.352 1.833.957 3.688 1.857 5.559 2.71.091-.294.155-.601.155-.925-.001-1.733-1.405-3.137-3.138-3.137z"/><circle cx="38.695" cy="466.271" r="3.137"/><path d="m49.189 472.866c-1.733 0-3.137 1.405-3.137 3.137 0 1.733 1.405 3.137 3.137 3.137s3.137-1.404 3.137-3.137c0-1.732-1.405-3.137-3.137-3.137z"/><path d="m25.826 455.778c0 1.733 1.405 3.138 3.137 3.138 1.637 0 2.966-1.259 3.109-2.859-1.788-.787-3.558-1.628-5.313-2.509-.575.568-.933 1.357-.933 2.23z"/><path d="m366.039 304.882-.649.072c.025-.16.049-.32.049-.486 0-1.732-1.405-3.137-3.137-3.137-1.733 0-3.137 1.405-3.137 3.137 0 .408.083.795.225 1.153l-16.344 1.816c1.255-.41 2.167-1.577 2.167-2.969 0-1.732-1.405-3.137-3.137-3.137-1.733 0-3.137 1.405-3.137 3.137 0 1.635 1.254 2.961 2.851 3.108l-47.097 5.233c-.514-1.031-1.568-1.747-2.799-1.747-1.476 0-2.705 1.022-3.039 2.396l-109.5 12.167-49.947-49.947-25.163 25.163 29.816 29.816-123.109 13.679 1.104 9.939 131.06-14.562 68.264 68.265 25.163-25.163-4.848-4.849c1.504-.231 2.66-1.52 2.66-3.089 0-1.732-1.405-3.137-3.137-3.137-1.569 0-2.858 1.156-3.089 2.66l-39.719-39.719 89.854-9.984c.001 1.731 1.405 3.135 3.137 3.135 1.733 0 3.137-1.405 3.137-3.137 0-.236-.031-.464-.08-.686l15.13-1.681c-.667.575-1.099 1.417-1.099 2.367 0 1.732 1.405 3.137 3.137 3.137 1.733 0 3.137-1.405 3.137-3.137 0-1.199-.68-2.229-1.669-2.757l47.544-5.282c.534.421 1.199.683 1.932.683.982 0 1.848-.46 2.423-1.167l12.15-1.35z"/><path d="m466.194 161.438c-.525-.997-1.56-1.685-2.765-1.685-1.451 0-2.66.99-3.018 2.327l-14.175 1.575c.062-.246.105-.499.105-.765 0-1.733-1.404-3.137-3.137-3.137-1.732 0-3.137 1.404-3.137 3.137 0 .511.133.986.35 1.412l-75.633 8.404-66.299-66.298-25.163 25.163 46.168 46.168-176.081 19.564 1.104 9.938 184.033-20.448 43.476 43.476c-1.356.346-2.363 1.566-2.363 3.029 0 1.732 1.405 3.137 3.137 3.137 1.464 0 2.683-1.007 3.029-2.362l4.633 4.633 25.163-25.163-31.783-31.782 58.041-6.449c.468.278 1.008.448 1.592.448.835 0 1.589-.332 2.151-.864l14.998-1.667c.283 1.442 1.552 2.53 3.076 2.53 1.732 0 3.137-1.405 3.137-3.137 0-.028-.008-.054-.008-.083l14.46-1.606c-.314.488-.5 1.065-.5 1.689 0 1.732 1.405 3.137 3.137 3.137 1.733 0 3.137-1.405 3.137-3.137 0-.872-.356-1.659-.929-2.228l23.47-2.607-1.104-9.939z"/></g><path d="m511.691 120.838c0-32.277-12.57-62.622-35.393-85.445-22.822-22.823-53.167-35.393-85.444-35.393-32.276 0-62.621 12.569-85.445 35.393l-14.166 14.166c-2.15-.944-4.486-1.453-6.905-1.453-4.591 0-8.909 1.789-12.156 5.035l-52.127 52.127c-3.247 3.247-5.036 7.564-5.036 12.156 0 2.418.508 4.755 1.452 6.905l-94.412 94.412c-6.295-2.75-13.909-1.569-19.052 3.574l-52.126 52.127c-3.247 3.248-5.036 7.564-5.036 12.157 0 2.418.509 4.754 1.452 6.904l-11.906 11.906c-22.821 22.823-35.391 53.168-35.391 85.445s12.57 62.622 35.393 85.445 53.167 35.392 85.444 35.392c32.276 0 62.622-12.569 85.445-35.392l11.725-11.725c2.335 1.152 4.913 1.778 7.593 1.778 4.592 0 8.91-1.789 12.156-5.035l52.128-52.127c5.334-5.333 6.407-13.324 3.253-19.745l94.045-94.045c2.335 1.152 4.914 1.778 7.594 1.778 4.592 0 8.909-1.788 12.156-5.035l52.126-52.127c3.247-3.247 5.036-7.564 5.036-12.156 0-2.68-.626-5.259-1.779-7.594l13.984-13.984c22.823-22.822 35.392-53.167 35.392-85.444zm-262.444 37.934c3.246 3.247 7.564 5.035 12.156 5.035s8.909-1.788 12.156-5.035l10.622-10.622 79.868 79.868-10.621 10.622c-3.247 3.247-5.036 7.564-5.036 12.156s1.789 8.909 5.036 12.156l27.38 27.38-92.735 92.735-27.381-27.38c-6.702-6.703-17.61-6.702-24.312 0l-10.622 10.621-79.868-79.868 10.622-10.622c6.701-6.703 6.701-17.609-.001-24.313l-27.888-27.887 92.735-92.735zm40.654-16.342 19.443-19.442 79.868 79.868-19.442 19.443zm-69.863 229.599-19.443 19.443-79.868-79.868 19.443-19.442zm-19.476 98.549c-21.296 21.295-49.609 33.023-79.725 33.023s-58.429-11.728-79.724-33.023-33.023-49.608-33.023-79.724 11.728-58.429 33.023-79.724l11.072-11.072 27.888 27.888c3.247 3.247 7.564 5.036 12.156 5.036s8.91-1.789 12.156-5.036l10.622-10.622 79.868 79.868-10.621 10.622c-3.247 3.247-5.035 7.565-5.035 12.156s1.788 8.909 5.035 12.157l27.38 27.38zm256.685-256.685-27.381-27.38c-3.246-3.247-7.564-5.035-12.156-5.035-4.591 0-8.909 1.788-12.156 5.035l-10.622 10.622-79.868-79.868 10.622-10.621c3.247-3.248 5.035-7.564 5.035-12.156s-1.788-8.909-5.035-12.157l-27.888-27.887 13.331-13.332c21.296-21.295 49.609-33.023 79.725-33.023s58.429 11.727 79.724 33.023c21.295 21.295 33.023 49.608 33.023 79.724s-11.728 58.429-33.023 79.724z" fill="#31373d"/></g></svg>