<svg id="Capa_1" enable-background="new 0 0 511.134 511.134" height="512" viewBox="0 0 511.134 511.134" width="512" xmlns="http://www.w3.org/2000/svg"><g><path d="m280.384 440.088c4.882-117.729 45.866-194.226 155.585-216.96l-17.051-40.783c0-15.2-328.588-17.376-328.588-2.176l-14.55 41.894c101.171 30.306 155.625 85.905 154.519 218.026h50.085z" fill="#e9c278"/><circle cx="255.567" cy="248.373" fill="#f9fbfc" r="48.003"/><g fill="#eaa895"><path d="m292.089 217.733c0 1.622 1.227 2.943 2.801 3.124-.864-1.231-1.784-2.419-2.757-3.562-.021.145-.044.289-.044.438z"/><path d="m295.248 234.943c-1.745 0-3.16 1.414-3.16 3.159s1.415 3.16 3.16 3.16 3.16-1.415 3.16-3.16c0-1.744-1.415-3.159-3.16-3.159z"/><path d="m303.493 245.778c-.515.562-.837 1.304-.837 2.126 0 .841.334 1.601.87 2.168.02-.565.043-1.128.043-1.698.001-.872-.03-1.736-.076-2.596z"/><path d="m295.248 255.313c-1.745 0-3.16 1.415-3.16 3.16s1.415 3.16 3.16 3.16 3.16-1.415 3.16-3.16-1.415-3.16-3.16-3.16z"/><path d="m292.089 278.841c0 .205.023.403.06.597 1.016-1.196 1.975-2.441 2.872-3.733-1.637.118-2.932 1.469-2.932 3.136z"/><path d="m282.781 208.847c.426.674 1.098 1.17 1.893 1.371-.619-.472-1.251-.928-1.893-1.371z"/><path d="m283.045 227.849c0 .559-.023 1.111-.042 1.666.579.714 1.453 1.18 2.444 1.18 1.745 0 3.16-1.415 3.16-3.16s-1.415-3.16-3.16-3.16c-1.006 0-1.892.48-2.471 1.212.035.751.069 1.502.069 2.262z"/><path d="m285.447 244.745c-1.745 0-3.16 1.415-3.16 3.159 0 1.745 1.415 3.16 3.16 3.16s3.16-1.415 3.16-3.16-1.415-3.159-3.16-3.159z"/><path d="m274.879 261.632c1.745 0 3.16-1.415 3.16-3.16s-1.415-3.16-3.16-3.16c-.176 0-.345.024-.513.052-.823 1.174-1.694 2.311-2.617 3.405.152 1.604 1.487 2.863 3.13 2.863z"/><path d="m285.447 265.114c-1.745 0-3.16 1.414-3.16 3.16 0 1.745 1.415 3.16 3.16 3.16s3.16-1.415 3.16-3.16c0-1.746-1.415-3.16-3.16-3.16z"/><path d="m274.879 282.001c1.745 0 3.16-1.415 3.16-3.16s-1.415-3.159-3.16-3.159-3.16 1.415-3.16 3.159c0 1.745 1.415 3.16 3.16 3.16z"/><path d="m285.447 285.483c-1.603 0-2.912 1.197-3.118 2.744 1.25-.841 2.457-1.741 3.62-2.693-.164-.027-.33-.051-.502-.051z"/><path d="m265.078 271.433c1.745 0 3.16-1.415 3.16-3.16 0-1.68-1.315-3.041-2.97-3.141-1.053.854-2.139 1.668-3.263 2.433-.052.229-.086.463-.086.708-.001 1.746 1.414 3.16 3.159 3.16z"/><path d="m251.35 278.841c0 1.745 1.415 3.16 3.16 3.16s3.16-1.415 3.16-3.16-1.414-3.159-3.16-3.159-3.16 1.415-3.16 3.159z"/><path d="m265.078 285.483c-1.745 0-3.16 1.415-3.16 3.159 0 1.745 1.415 3.16 3.16 3.16s3.16-1.415 3.16-3.16c-.001-1.744-1.416-3.159-3.16-3.159z"/><path d="m255.866 296.369c-.412-.198-.869-.317-1.357-.317-.447 0-.871.095-1.257.263.768.036 1.538.061 2.315.061.1 0 .199-.007.299-.007z"/><path d="m230.98 278.841c0 1.745 1.415 3.16 3.16 3.16s3.16-1.415 3.16-3.16c0-1.404-.923-2.581-2.191-2.992-.022 0-.044.002-.066.002-.574 0-1.14-.032-1.709-.052-1.352.358-2.354 1.578-2.354 3.042z"/><path d="m241.549 288.643c0 1.745 1.415 3.16 3.16 3.16s3.16-1.415 3.16-3.16-1.415-3.159-3.16-3.159c-1.746-.001-3.16 1.414-3.16 3.159z"/><path d="m225.364 285.668c.531.431 1.072.849 1.621 1.257-.38-.585-.95-1.025-1.621-1.257z"/></g><g fill="#31373d"><path d="m255.567 300.449c-28.715 0-52.077-23.361-52.077-52.076s23.362-52.077 52.077-52.077 52.077 23.362 52.077 52.077-23.362 52.076-52.077 52.076zm0-96.005c-24.222 0-43.929 19.707-43.929 43.929s19.706 43.928 43.929 43.928c24.222 0 43.929-19.706 43.929-43.928s-19.706-43.929-43.929-43.929z"/><path d="m436.281 74.854c-48.271-48.27-112.449-74.854-180.714-74.854-68.264 0-132.443 26.584-180.713 74.854-48.271 48.271-74.854 112.449-74.854 180.713 0 68.265 26.583 132.443 74.854 180.713 48.271 48.271 112.449 74.854 180.714 74.854 68.264 0 132.443-26.583 180.714-74.854 48.27-48.27 74.854-112.448 74.854-180.713-.002-68.264-26.585-132.442-74.855-180.713zm-8.956 180.713c0 84.557-61.421 155.033-141.989 169.17 8.048-111.816 51.781-172.685 140.049-194.991 1.275 8.424 1.94 17.047 1.94 25.821zm-111.848 38.151c-21.957 32.78-34.56 76.155-38.397 132.264-7.049.885-14.228 1.344-21.513 1.344-7.213 0-14.322-.453-21.304-1.32-1.351-58.032-14.36-102.491-39.633-135.583-23.421-30.667-57.72-52.751-107.401-69.034 2.962-14.612 7.791-28.552 14.215-41.57 19.642-3.528 73.38-6.422 153.227-5.887 84.725.564 140 4.589 156.337 8.623 5.812 12.324 10.204 25.443 12.956 39.15-48.684 12.204-84.25 35.83-108.487 72.013zm-229.693-64.218c95.995 31.935 137.593 89.727 140.308 195.286-80.712-14.017-142.283-84.559-142.283-169.219 0-8.859.675-17.565 1.975-26.067zm169.783-145.69c64.961 0 121.611 36.253 150.792 89.587-.933-.159-1.896-.317-2.923-.474-9.964-1.522-24.211-2.857-42.345-3.971-33.409-2.052-78.601-3.229-123.989-3.229-39.728 0-75.991.904-102.108 2.546-11.815.743-21.478 1.63-28.827 2.642 29.564-51.97 85.454-87.101 149.4-87.101z"/></g></g></svg>