<svg id="Capa_1" enable-background="new 0 0 511.629 511.629" height="512" viewBox="0 0 511.629 511.629" width="512" xmlns="http://www.w3.org/2000/svg"><g><path d="m464.821 46.805c-65.477-65.476-182.603-54.508-261.61 24.499-45.161 45.16-68.091 102.776-67.221 156.08l.33 12.108c5.735 81.956-17.364 120.584-17.364 120.584l32.555 32.555s38.628-23.1 120.584-17.365l12.375.374c53.241.801 110.757-22.129 155.853-67.225 79.006-79.007 89.975-196.134 24.498-261.61zm-311.71 311.052 16.373-61.105c11.184 18.067 26.233 32.861 44.732 44.732z" fill="#eaa895"/><ellipse cx="321.767" cy="189.859" fill="#f9fbfc" rx="163.67" ry="135.641" transform="matrix(.707 -.707 .707 .707 -40.008 283.132)"/><path d="m36.345 504.42-29.139-29.139c-4.288-4.288-4.288-11.24 0-15.528l97.949-97.949c4.288-4.288 11.24-4.288 15.528 0l29.138 29.138c4.288 4.288 4.288 11.24 0 15.528l-97.948 97.95c-4.288 4.288-11.24 4.288-15.528 0z" fill="#e9c278"/><g fill="#f9fbfc"><path d="m137.42 378.54-2.547-2.547c.215 1.307 1.24 2.332 2.547 2.547z"/><path d="m146.557 387.677-.822-.822c.22.323.499.602.822.822z"/><path d="m134.822 395.488c0 1.713 1.389 3.102 3.102 3.102s3.102-1.389 3.102-3.102-1.389-3.103-3.102-3.103-3.102 1.39-3.102 3.103z"/><path d="m148.301 402.009c-1.713 0-3.102 1.389-3.102 3.103 0 1.644 1.283 2.975 2.9 3.081l1.636-1.635c.632-.632 1.16-1.325 1.607-2.054-.283-1.422-1.536-2.495-3.041-2.495z"/><path d="m137.924 412.386c-1.713 0-3.102 1.389-3.102 3.103 0 1.644 1.283 2.976 2.9 3.082l3.284-3.284c-.106-1.618-1.438-2.901-3.082-2.901z"/><path d="m128.301 388.214c1.713 0 3.102-1.389 3.102-3.102s-1.389-3.103-3.102-3.103c-.391 0-.762.081-1.107.213l-1.802 1.843c-.118.328-.194.678-.194 1.047 0 1.713 1.389 3.102 3.103 3.102z"/><path d="m117.924 398.591c1.713 0 3.102-1.389 3.102-3.102s-1.389-3.103-3.102-3.103c-.269 0-.525.045-.773.109l-2.243 2.294c-.052.225-.086.457-.086.699 0 1.714 1.389 3.103 3.102 3.103z"/><path d="m128.301 402.009c-1.713 0-3.102 1.389-3.102 3.103 0 1.713 1.389 3.102 3.102 3.102s3.102-1.389 3.102-3.102-1.389-3.103-3.102-3.103z"/><path d="m117.924 412.386c-1.713 0-3.102 1.389-3.102 3.103 0 1.713 1.389 3.102 3.102 3.102s3.102-1.389 3.102-3.102c0-1.714-1.389-3.103-3.102-3.103z"/><path d="m128.301 422.009c-1.713 0-3.102 1.389-3.102 3.103 0 1.644 1.283 2.975 2.9 3.081l3.284-3.284c-.106-1.616-1.438-2.9-3.082-2.9z"/><path d="m117.924 432.386c-1.713 0-3.102 1.389-3.102 3.103 0 1.644 1.283 2.976 2.9 3.082l3.284-3.284c-.106-1.618-1.438-2.901-3.082-2.901z"/><path d="m108.301 408.214c1.713 0 3.102-1.389 3.102-3.102s-1.389-3.103-3.102-3.103c-.172 0-.337.024-.501.051l-2.558 2.616c-.02.144-.044.286-.044.436 0 1.713 1.389 3.102 3.103 3.102z"/><path d="m97.924 418.591c1.713 0 3.102-1.389 3.102-3.102s-1.389-3.103-3.102-3.103c-.083 0-.161.018-.243.025l-2.842 2.907c-.003.058-.017.112-.017.17 0 1.714 1.389 3.103 3.102 3.103z"/><path d="m108.301 422.009c-1.713 0-3.102 1.389-3.102 3.103 0 1.713 1.389 3.102 3.102 3.102s3.102-1.389 3.102-3.102-1.389-3.103-3.102-3.103z"/><path d="m97.924 432.386c-1.713 0-3.102 1.389-3.102 3.103 0 1.713 1.389 3.102 3.102 3.102s3.102-1.389 3.102-3.102c0-1.714-1.389-3.103-3.102-3.103z"/><path d="m108.301 442.009c-1.713 0-3.102 1.389-3.102 3.103 0 1.644 1.283 2.975 2.9 3.081l3.284-3.284c-.106-1.616-1.438-2.9-3.082-2.9z"/><path d="m97.924 452.386c-1.713 0-3.102 1.389-3.102 3.103 0 1.644 1.283 2.976 2.9 3.082l3.284-3.283c-.106-1.619-1.438-2.902-3.082-2.902z"/><path d="m88.301 428.214c1.713 0 3.102-1.389 3.102-3.102s-1.389-3.103-3.102-3.103c-.001 0-.002 0-.004 0l-3.092 3.163c.033 1.686 1.403 3.042 3.096 3.042z"/><path d="m77.924 438.591c1.713 0 3.102-1.389 3.102-3.102 0-1.642-1.28-2.972-2.894-3.082l-3.283 3.358c.143 1.581 1.457 2.826 3.075 2.826z"/><path d="m88.301 442.009c-1.713 0-3.102 1.389-3.102 3.103 0 1.713 1.389 3.102 3.102 3.102s3.102-1.389 3.102-3.102-1.389-3.103-3.102-3.103z"/><path d="m77.924 452.386c-1.713 0-3.102 1.389-3.102 3.103 0 1.713 1.389 3.102 3.102 3.102s3.102-1.389 3.102-3.102c0-1.714-1.389-3.103-3.102-3.103z"/><path d="m88.301 462.009c-1.713 0-3.102 1.389-3.102 3.103 0 1.644 1.283 2.976 2.9 3.082l3.284-3.284c-.106-1.617-1.438-2.901-3.082-2.901z"/><path d="m77.924 472.386c-1.713 0-3.102 1.389-3.102 3.103 0 1.644 1.283 2.976 2.9 3.082l3.284-3.284c-.106-1.618-1.438-2.901-3.082-2.901z"/><path d="m68.301 448.214c1.713 0 3.102-1.389 3.102-3.102 0-1.575-1.178-2.861-2.698-3.062l-3.459 3.538c.231 1.486 1.505 2.626 3.055 2.626z"/><path d="m57.924 458.591c1.713 0 3.102-1.389 3.102-3.102 0-1.502-1.068-2.754-2.486-3.04l-3.638 3.721c.311 1.384 1.544 2.421 3.022 2.421z"/><path d="m68.301 462.009c-1.713 0-3.102 1.389-3.102 3.103 0 1.713 1.389 3.102 3.102 3.102s3.102-1.389 3.102-3.102-1.389-3.103-3.102-3.103z"/><path d="m57.924 472.386c-1.713 0-3.102 1.389-3.102 3.103 0 1.713 1.389 3.102 3.102 3.102s3.102-1.389 3.102-3.102c0-1.714-1.389-3.103-3.102-3.103z"/><path d="m68.301 482.009c-1.713 0-3.102 1.389-3.102 3.103 0 1.644 1.283 2.976 2.901 3.082l3.284-3.284c-.107-1.617-1.439-2.901-3.083-2.901z"/><path d="m57.924 492.386c-1.713 0-3.102 1.389-3.102 3.103 0 1.644 1.283 2.976 2.901 3.082l3.284-3.284c-.107-1.618-1.439-2.901-3.083-2.901z"/><path d="m48.301 468.214c1.713 0 3.102-1.389 3.102-3.102 0-1.441-.988-2.642-2.32-2.99l-3.753 3.838c.371 1.298 1.554 2.254 2.971 2.254z"/><path d="m37.924 478.591c1.713 0 3.102-1.389 3.102-3.102 0-1.376-.901-2.529-2.141-2.935l-3.875 3.963c.426 1.205 1.563 2.074 2.914 2.074z"/><path d="m48.301 488.214c1.713 0 3.102-1.389 3.102-3.102s-1.389-3.103-3.102-3.103-3.102 1.389-3.102 3.103c-.001 1.713 1.388 3.102 3.102 3.102z"/><path d="m41.026 495.488c0-1.713-1.389-3.103-3.102-3.103s-3.102 1.389-3.102 3.103c0 1.713 1.389 3.102 3.102 3.102 1.713.001 3.102-1.388 3.102-3.102z"/><path d="m48.301 502.009c-1.713 0-3.102 1.389-3.102 3.103 0 .901.391 1.706 1.005 2.273 1.867-.357 3.654-1.205 5.174-2.526-.131-1.593-1.451-2.85-3.077-2.85z"/><path d="m28.301 488.214c1.713 0 3.102-1.389 3.102-3.102 0-1.315-.821-2.432-1.976-2.884l-3.988 4.08c.468 1.119 1.572 1.906 2.862 1.906z"/></g><circle cx="438.853" cy="435.615" fill="#e9c278" r="68.52"/><path d="m383.023 443.679c-4.518 0-9.073-.523-13.537-1.555-2.177-.504-3.533-2.677-3.03-4.853s2.676-3.527 4.853-3.03c3.867.895 7.808 1.348 11.714 1.348 29.616 0 53.711-25.033 53.711-55.803 0-3.32-.29-6.661-.864-9.956-.66-.72-1.063-1.68-1.063-2.734 0-2.234 1.811-4.045 4.045-4.045.16 0 .319.005.478.011l.177.005c1.902.019 3.534 1.359 3.922 3.221.926 4.446 1.395 8.988 1.395 13.499.001 35.229-27.723 63.892-61.801 63.892z" fill="#f9fbfc"/><g fill="#f9fbfc"><path d="m496.115 398c-.387-.587-.782-1.167-1.186-1.742.184.712.607 1.324 1.186 1.742z"/><path d="m497.924 418.591c1.713 0 3.102-1.389 3.102-3.102s-1.389-3.103-3.102-3.103-3.102 1.389-3.102 3.103c0 1.713 1.389 3.102 3.102 3.102z"/><path d="m506.932 427.883c-.191-1.695-.439-3.372-.751-5.026-.602.566-.983 1.363-.983 2.255 0 1.219.711 2.264 1.734 2.771z"/><path d="m505.198 445.112c0 .959.444 1.805 1.128 2.374.3-1.716.549-3.449.718-5.207-1.086.483-1.846 1.567-1.846 2.833z"/><path d="m497.924 452.386c-1.713 0-3.102 1.389-3.102 3.103 0 1.713 1.389 3.102 3.102 3.102s3.102-1.389 3.102-3.102c0-1.714-1.388-3.103-3.102-3.103z"/><path d="m494.865 475.057c.521-.739 1.028-1.487 1.52-2.247-.81.467-1.384 1.281-1.52 2.247z"/><path d="m488.301 388.214h.005c-1.002-1.044-2.035-2.057-3.101-3.037.036 1.683 1.405 3.037 3.096 3.037z"/><path d="m486.535 402.566c.365 1.811.662 3.646.881 5.505.282.085.575.144.885.144 1.713 0 3.102-1.389 3.102-3.102s-1.389-3.103-3.102-3.103c-.658-.001-1.265.207-1.766.556z"/><path d="m488.301 422.009c-.235 0-.463.031-.683.081-.168 1.945-.418 3.865-.745 5.76.429.225.91.363 1.428.363 1.713 0 3.102-1.389 3.102-3.102 0-1.712-1.389-3.102-3.102-3.102z"/><path d="m488.301 442.009c-1.713 0-3.102 1.389-3.102 3.103 0 1.713 1.389 3.102 3.102 3.102s3.102-1.389 3.102-3.102-1.389-3.103-3.102-3.103z"/><path d="m477.924 452.386c-.152 0-.298.024-.444.045-.811 1.296-1.666 2.562-2.56 3.797.333 1.354 1.547 2.362 3.004 2.362 1.713 0 3.102-1.389 3.102-3.102s-1.388-3.102-3.102-3.102z"/><path d="m488.301 462.009c-1.713 0-3.102 1.389-3.102 3.103 0 1.713 1.389 3.102 3.102 3.102s3.102-1.389 3.102-3.102-1.389-3.103-3.102-3.103z"/><path d="m477.924 472.386c-1.713 0-3.102 1.389-3.102 3.103 0 1.713 1.389 3.102 3.102 3.102s3.102-1.389 3.102-3.102c0-1.714-1.388-3.103-3.102-3.103z"/><path d="m485.198 485.112c0 .292.053.569.129.837 1.32-1.22 2.592-2.491 3.813-3.81-.269-.076-.546-.13-.839-.13-1.714 0-3.103 1.39-3.103 3.103z"/><path d="m476.984 492.547c-.526.168-.989.466-1.351.866.451-.288.907-.568 1.351-.866z"/><path d="m469.862 462.445c-1.348 1.469-2.758 2.88-4.229 4.226.539.919 1.525 1.542 2.667 1.542 1.713 0 3.102-1.389 3.102-3.102.001-1.14-.622-2.127-1.54-2.666z"/><path d="m458.408 472.435c-1.137.79-2.291 1.559-3.477 2.28-.064.249-.109.505-.109.773 0 1.713 1.389 3.102 3.102 3.102s3.102-1.389 3.102-3.102c0-1.547-1.136-2.819-2.618-3.053z"/><path d="m468.301 482.009c-1.713 0-3.102 1.389-3.102 3.103 0 1.713 1.389 3.102 3.102 3.102s3.102-1.389 3.102-3.102-1.389-3.103-3.102-3.103z"/><path d="m457.924 492.386c-1.713 0-3.102 1.389-3.102 3.103 0 1.713 1.389 3.102 3.102 3.102s3.102-1.389 3.102-3.102c0-1.714-1.388-3.103-3.102-3.103z"/><path d="m448.301 482.009c-1.713 0-3.102 1.389-3.102 3.103 0 1.713 1.389 3.102 3.102 3.102s3.102-1.389 3.102-3.102-1.389-3.103-3.102-3.103z"/><path d="m445.494 503.808c1.739-.167 3.454-.411 5.152-.706-.569-.664-1.403-1.093-2.345-1.093-1.246 0-2.313.74-2.807 1.799z"/><path d="m425.294 484.382c-.057.235-.095.477-.095.73 0 1.713 1.389 3.102 3.102 3.102s3.102-1.389 3.102-3.102c0-.533-.147-1.027-.383-1.465-1.884.323-3.793.569-5.726.735z"/><path d="m417.924 492.386c-1.713 0-3.102 1.389-3.102 3.103 0 1.713 1.389 3.102 3.102 3.102s3.102-1.389 3.102-3.102c0-1.714-1.388-3.103-3.102-3.103z"/><path d="m428.301 502.009c-.868 0-1.65.358-2.213.933 1.631.307 3.283.553 4.952.743-.518-.991-1.544-1.676-2.739-1.676z"/><path d="m405.796 483.295c-.372.512-.598 1.136-.598 1.817 0 1.713 1.389 3.102 3.102 3.102s3.102-1.389 3.102-3.102c0-.332-.066-.645-.162-.943-1.838-.219-3.653-.513-5.444-.874z"/><path d="m388.472 482.027c.943 1.024 1.918 2.019 2.921 2.984-.053-1.607-1.324-2.896-2.921-2.984z"/><path d="m508.115 430.683c-3.79-.73-7.626-1.102-11.403-1.102-34.077 0-61.801 28.662-61.801 63.893 0 .405.019.813.027 1.219-.068.255-.116.519-.116.795 0 .33.065.641.16.939.128 2.778.432 5.582.915 8.371.341 1.968 2.05 3.356 3.981 3.356.229 0 .462-.02.695-.06 2.201-.381 3.677-2.475 3.296-4.677-.577-3.325-.868-6.671-.868-9.943 0-30.434 23.576-55.239 52.748-55.776.56.551 1.327.893 2.175.893.795 0 1.512-.308 2.061-.799 2.196.142 4.403.413 6.596.836 2.197.417 4.315-1.012 4.739-3.206.423-2.193-1.012-4.315-3.205-4.739z"/></g><g fill="#31373d"><path d="m153.111 361.902c-1.059 0-2.092-.416-2.861-1.185-1.022-1.021-1.421-2.512-1.047-3.907l16.373-61.104c.418-1.558 1.721-2.72 3.318-2.955 1.594-.242 3.18.501 4.029 1.873 10.602 17.125 25.23 31.746 43.477 43.457 1.348.865 2.059 2.443 1.813 4.027-.247 1.582-1.404 2.871-2.951 3.285l-61.105 16.373c-.344.091-.696.136-1.046.136zm17.966-55.464-12.245 45.698 45.811-12.274c-13.282-9.582-24.526-20.777-33.566-33.424z"/><path d="m440.36 71.267c-26.486-26.486-63.757-38.947-104.956-35.091-40.911 3.832-80.832 23.333-112.41 54.911-65.392 65.392-74.283 162.901-19.82 217.365 23.984 23.984 56.305 35.68 90.565 35.68 43.54 0 90.206-18.904 126.801-55.5 65.392-65.392 74.283-162.901 19.82-217.365zm-32.319 213.794h-56.6v-49.7h56.6zm-4.297 8.09c-16.201 13.869-33.993 24.446-52.303 31.63v-31.63zm-181.254 0h58.757v42.358c-21.526-1.955-41.805-9.024-58.957-21.389h.2zm0-8.09v-49.7h58.757v49.7zm-45.83-49.701h37.739v49.7h-19.826c-9.666-14.838-15.602-31.776-17.913-49.7zm45.83-128.087h58.757v51.855h-58.757zm-8.091 51.855h-27.139c6.441-16.102 15.511-31.787 27.139-46.322zm137.042-115.53c20.611.22 39.83 4.934 56.6 13.788v41.797h-56.6zm56.6 63.675v51.855h-56.6v-51.855zm-64.691 51.855h-54.013v-51.855h54.013zm0 8.091v60.051h-54.013v-60.051zm-62.103 0v60.051h-58.757v-60.051zm8.091 68.141h54.013v49.7h-54.013zm62.103-8.09v-60.051h56.6v60.051zm64.691-60.051h51.744c-.744 19.885-5.6 40.359-14.438 60.051h-37.306zm0-8.091v-51.855h39.921c7.617 15.868 11.549 33.523 11.902 51.855zm35.618-59.946h-35.618v-37.082c6.651 4.262 12.848 9.228 18.507 14.887 6.741 6.742 12.432 14.198 17.111 22.195zm-115.592-54.95c2.413-.226 4.81-.39 7.192-.498v55.449h-54.013v-43.228c15.144-6.247 30.909-10.233 46.821-11.723zm-54.911 15.312v39.638h-54.858c.769-.796 1.54-1.59 2.326-2.375 15.705-15.705 33.546-28.281 52.532-37.263zm-96.988 107.675h30.14v60.051h-38.53c-1.322-19.54 1.521-40.017 8.39-60.051zm16.125 125.932h14.015v14.707c-1.881-1.639-3.72-3.343-5.504-5.127-3.052-3.051-5.883-6.252-8.511-9.58zm88.954 42.851v-42.85h54.013v34.579c-18 6.04-36.338 8.826-54.013 8.271zm126.794-54.432v-46.21h33.433c-8.361 16.371-19.536 32.046-33.433 46.21z"/><path d="m467.682 43.945c-32.535-32.535-78.34-47.84-128.969-43.1-50.348 4.715-99.486 28.722-138.363 67.598-23.154 23.154-40.917 49.673-52.794 78.821-11.352 27.858-16.697 57.345-15.456 85.277l.236 5.118c4.723 67.492-10.575 106.861-15.453 117.479-5.067-1.366-10.707-.077-14.677 3.894l-97.772 97.773c-5.907 5.907-5.907 15.518 0 21.425l28.963 28.962c2.861 2.862 6.666 4.437 10.713 4.437s7.851-1.575 10.713-4.437l97.773-97.773c3.985-3.985 5.27-9.652 3.879-14.734 10.613-4.887 49.742-20.092 117.129-15.373.043.003.085.005.128.007l5.041.194c27.968 1.291 57.511-4.027 85.43-15.377 29.209-11.876 55.782-29.66 78.982-52.86 38.876-38.876 62.882-88.014 67.597-138.362 4.74-50.633-10.566-96.435-43.1-128.969zm-418.582 457.527c-1.333 1.333-3.106 2.067-4.991 2.067-1.886 0-3.658-.734-4.992-2.067l-28.962-28.962c-2.752-2.753-2.752-7.231 0-9.984l25.057-25.057 38.946 38.946zm30.778-30.778-38.946-38.946 32.877-32.877 38.946 38.946zm66.996-66.995-28.398 28.398-38.946-38.947 28.398-28.399c1.376-1.376 3.184-2.064 4.991-2.064s3.616.688 4.992 2.064l28.963 28.963c1.333 1.333 2.068 3.106 2.068 4.991-.001 1.887-.735 3.66-2.068 4.994zm290.588-98.144c-44.459 44.459-102.166 68.48-158.349 65.874l-5.01-.192c-71.211-4.972-111.279 11.365-121.818 16.449l-28.388-28.388c5.086-10.577 21.5-50.893 16.515-122.106l-.231-5.015c-2.49-56.055 21.525-113.648 65.889-158.012 77.303-77.303 192.096-88.293 255.889-24.498 63.796 63.792 52.806 178.583-24.497 255.888z"/><path d="m438.853 508.18c-40.012 0-72.565-32.552-72.565-72.565s32.553-72.565 72.565-72.565 72.565 32.552 72.565 72.565c0 40.012-32.553 72.565-72.565 72.565zm0-137.04c-35.551 0-64.474 28.923-64.474 64.474 0 35.552 28.923 64.474 64.474 64.474s64.474-28.923 64.474-64.474-28.923-64.474-64.474-64.474z"/></g></g></svg>