<svg id="Capa_1" enable-background="new 0 0 511.597 511.597" height="512" viewBox="0 0 511.597 511.597" width="512" xmlns="http://www.w3.org/2000/svg"><g><path d="m379.348 281.769h-248.539c-9.492 0-17.187-7.695-17.187-17.186v-17.569c0-9.492 7.695-17.186 17.187-17.186h248.539c9.492 0 17.186 7.695 17.186 17.186v17.569c.001 9.492-7.694 17.186-17.186 17.186z" fill="#e9c278"/><g fill="#f9fbfc"><path d="m206.601 229.878c.17 0 .333-.023.496-.05h-.991c.162.026.326.05.495.05z"/><path d="m216.978 233.297c-1.713 0-3.102 1.389-3.102 3.103 0 1.713 1.389 3.102 3.102 3.102s3.102-1.389 3.102-3.102c0-1.714-1.389-3.103-3.102-3.103z"/><path d="m206.601 243.673c-1.713 0-3.102 1.389-3.102 3.103 0 1.713 1.389 3.102 3.102 3.102s3.102-1.389 3.102-3.102c.001-1.714-1.388-3.103-3.102-3.103z"/><path d="m216.978 259.501c1.713 0 3.102-1.389 3.102-3.102s-1.389-3.103-3.102-3.103-3.102 1.389-3.102 3.103c-.001 1.713 1.388 3.102 3.102 3.102z"/><path d="m206.601 263.673c-1.713 0-3.102 1.389-3.102 3.103s1.389 3.102 3.102 3.102 3.102-1.389 3.102-3.102-1.388-3.103-3.102-3.103z"/><path d="m216.978 279.501c1.713 0 3.102-1.389 3.102-3.102s-1.389-3.103-3.102-3.103-3.102 1.389-3.102 3.103c-.001 1.713 1.388 3.102 3.102 3.102z"/><path d="m186.601 229.878c.17 0 .333-.023.496-.05h-.991c.162.026.326.05.495.05z"/><path d="m196.978 233.297c-1.713 0-3.102 1.389-3.102 3.103 0 1.713 1.389 3.102 3.102 3.102s3.102-1.389 3.102-3.102c0-1.714-1.389-3.103-3.102-3.103z"/><path d="m186.601 243.673c-1.713 0-3.102 1.389-3.102 3.103 0 1.713 1.389 3.102 3.102 3.102s3.102-1.389 3.102-3.102c.001-1.714-1.388-3.103-3.102-3.103z"/><path d="m196.978 253.297c-1.713 0-3.102 1.389-3.102 3.103 0 1.713 1.389 3.102 3.102 3.102s3.102-1.389 3.102-3.102c0-1.714-1.389-3.103-3.102-3.103z"/><path d="m186.601 263.673c-1.713 0-3.102 1.389-3.102 3.103s1.389 3.102 3.102 3.102 3.102-1.389 3.102-3.102-1.388-3.103-3.102-3.103z"/><path d="m196.978 273.297c-1.713 0-3.102 1.389-3.102 3.103 0 1.713 1.389 3.102 3.102 3.102s3.102-1.389 3.102-3.102c0-1.714-1.389-3.103-3.102-3.103z"/><path d="m166.601 229.878c.17 0 .333-.023.496-.05h-.991c.162.026.326.05.495.05z"/><path d="m176.978 233.297c-1.713 0-3.102 1.389-3.102 3.103 0 1.713 1.389 3.102 3.102 3.102s3.102-1.389 3.102-3.102c0-1.714-1.389-3.103-3.102-3.103z"/><path d="m166.601 243.673c-1.713 0-3.102 1.389-3.102 3.103 0 1.713 1.389 3.102 3.102 3.102s3.102-1.389 3.102-3.102c.001-1.714-1.388-3.103-3.102-3.103z"/><path d="m176.978 253.297c-1.713 0-3.102 1.389-3.102 3.103 0 1.713 1.389 3.102 3.102 3.102s3.102-1.389 3.102-3.102c0-1.714-1.389-3.103-3.102-3.103z"/><path d="m166.601 263.673c-1.713 0-3.102 1.389-3.102 3.103s1.389 3.102 3.102 3.102 3.102-1.389 3.102-3.102-1.388-3.103-3.102-3.103z"/><path d="m176.978 273.297c-1.713 0-3.102 1.389-3.102 3.103 0 1.713 1.389 3.102 3.102 3.102s3.102-1.389 3.102-3.102c0-1.714-1.389-3.103-3.102-3.103z"/><path d="m146.601 229.878c.17 0 .333-.023.496-.05h-.991c.162.026.326.05.495.05z"/><path d="m156.978 233.297c-1.713 0-3.102 1.389-3.102 3.103 0 1.713 1.389 3.102 3.102 3.102s3.102-1.389 3.102-3.102c0-1.714-1.389-3.103-3.102-3.103z"/><path d="m146.601 243.673c-1.713 0-3.102 1.389-3.102 3.103 0 1.713 1.389 3.102 3.102 3.102s3.102-1.389 3.102-3.102c.001-1.714-1.388-3.103-3.102-3.103z"/><path d="m156.978 253.297c-1.713 0-3.102 1.389-3.102 3.103 0 1.713 1.389 3.102 3.102 3.102s3.102-1.389 3.102-3.102c0-1.714-1.389-3.103-3.102-3.103z"/><path d="m146.601 263.673c-1.713 0-3.102 1.389-3.102 3.103s1.389 3.102 3.102 3.102 3.102-1.389 3.102-3.102-1.388-3.103-3.102-3.103z"/><path d="m156.978 273.297c-1.713 0-3.102 1.389-3.102 3.103 0 1.713 1.389 3.102 3.102 3.102s3.102-1.389 3.102-3.102c0-1.714-1.389-3.103-3.102-3.103z"/><path d="m136.978 233.297c-1.713 0-3.102 1.389-3.102 3.103 0 1.713 1.389 3.102 3.102 3.102s3.102-1.389 3.102-3.102c0-1.714-1.389-3.103-3.102-3.103z"/><path d="m126.601 243.673c-1.713 0-3.102 1.389-3.102 3.103 0 1.713 1.389 3.102 3.102 3.102s3.102-1.389 3.102-3.102c.001-1.714-1.388-3.103-3.102-3.103z"/><path d="m136.978 253.297c-1.713 0-3.102 1.389-3.102 3.103 0 1.713 1.389 3.102 3.102 3.102s3.102-1.389 3.102-3.102c0-1.714-1.389-3.103-3.102-3.103z"/><path d="m129.704 266.776c0-1.713-1.389-3.103-3.102-3.103s-3.102 1.389-3.102 3.103 1.389 3.102 3.102 3.102 3.102-1.389 3.102-3.102z"/><path d="m136.978 279.501c1.713 0 3.102-1.389 3.102-3.102s-1.389-3.103-3.102-3.103-3.102 1.389-3.102 3.103c-.001 1.713 1.388 3.102 3.102 3.102z"/><path d="m115.514 239.119c.438.236.931.382 1.463.382 1.713 0 3.102-1.389 3.102-3.102 0-.854-.346-1.627-.904-2.188-1.482 1.387-2.73 3.043-3.661 4.908z"/><path d="m116.978 259.501c1.713 0 3.102-1.389 3.102-3.102s-1.389-3.103-3.102-3.103-3.102 1.389-3.102 3.103c-.001 1.713 1.389 3.102 3.102 3.102z"/><path d="m119.694 277.868c.238-.439.386-.934.386-1.469 0-1.713-1.389-3.103-3.102-3.103-.325 0-.632.064-.926.157.975 1.679 2.201 3.177 3.642 4.415z"/></g><path d="m489.189 162.73h-36.163v-15.943c0-12.355-10.052-22.408-22.409-22.408h-66.037c-12.355 0-22.408 10.052-22.408 22.408v79.002h-172.747v-79.002c0-12.355-10.052-22.408-22.408-22.408h-66.038c-12.355 0-22.408 10.052-22.408 22.408v15.943h-36.163c-12.356 0-22.408 10.052-22.408 22.408v141.32c0 12.356 10.052 22.408 22.408 22.408h36.163v15.943c0 12.356 10.052 22.408 22.408 22.408h66.038c12.355 0 22.408-10.052 22.408-22.408v-79.002h172.746v79.002c0 12.356 10.052 22.408 22.408 22.408h66.037c12.357 0 22.409-10.052 22.409-22.408v-15.943h36.163c12.356 0 22.408-10.052 22.408-22.408v-141.32c.001-12.356-10.051-22.408-22.407-22.408zm-319.764 115.001v-43.864h172.746v43.864z" fill="#31373d"/></g></svg>