<svg id="Capa_1" enable-background="new 0 0 511.678 511.678" height="512" viewBox="0 0 511.678 511.678" width="512" xmlns="http://www.w3.org/2000/svg"><g><path d="m469.333 104.943-68.098-92.491c-6.836-9.285-19.945-11.187-29.138-4.229l-152.385 115.339 6.215 8.481c9.719 13.264 6.845 31.895-6.419 41.614s-31.895 6.845-41.614-6.419l-5.668-7.735-45.8 34.666c-44.295 29.151-73.514 79.341-73.408 136.356.047 25.431 6.021 49.504 16.576 70.949-18.512 9.128-31.252 28.18-31.252 50.216 0 30.909 25.056 55.965 55.965 55.965 22.05 0 41.114-12.757 50.235-31.29 23.169 11.399 49.348 17.451 76.858 16.518 87.287-2.963 157.139-74.656 157.139-162.665 0-23.313-4.912-45.477-13.741-65.526l104.243-134.836c5.65-7.307 5.769-17.475.292-24.913zm-375.027 371.874c-13.877 0-25.127-11.251-25.127-25.128 0-10.952 7.01-20.263 16.785-23.703 9.161 12.095 19.955 22.888 32.05 32.032-3.437 9.783-12.751 16.799-23.708 16.799z" fill="#eaa895"/><g fill="#f9fbfc"><path d="m472.635 111.834c-.24-.895-.533-1.778-.896-2.641-.019.139-.043.277-.043.422.001.871.362 1.656.939 2.219z"/><path d="m451.697 89.616c0 1.713 1.389 3.102 3.102 3.102 1.673 0 3.026-1.326 3.09-2.983l-2.35-3.123c-.238-.059-.484-.099-.741-.099-1.712 0-3.101 1.389-3.101 3.103z"/><path d="m462.073 99.239c0 1.713 1.389 3.102 3.102 3.102.662 0 1.272-.211 1.776-.564l-3.717-4.94c-.702.569-1.161 1.428-1.161 2.402z"/><path d="m454.799 106.513c-1.713 0-3.102 1.389-3.102 3.103 0 1.713 1.389 3.102 3.102 3.102s3.102-1.389 3.102-3.102c0-1.714-1.388-3.103-3.102-3.103z"/><path d="m465.176 116.137c-1.713 0-3.102 1.389-3.102 3.103 0 1.713 1.389 3.102 3.102 3.102s3.102-1.389 3.102-3.102c0-1.714-1.389-3.103-3.102-3.103z"/><path d="m454.799 126.513c-1.713 0-3.102 1.389-3.102 3.103 0 1.713 1.389 3.102 3.102 3.102s3.102-1.389 3.102-3.102c0-1.714-1.388-3.103-3.102-3.103z"/><path d="m462.116 138.814 1.89-2.444c-1.005.409-1.736 1.333-1.89 2.444z"/><path d="m451.697 149.616c0 .7.24 1.339.632 1.858l3.652-4.725c-.365-.15-.763-.236-1.182-.236-1.713 0-3.102 1.389-3.102 3.103z"/><path d="m445.176 82.341c1.713 0 3.102-1.389 3.102-3.102s-1.389-3.103-3.102-3.103c-1.257 0-2.333.751-2.821 1.825-.062.535-.145 1.066-.25 1.596.162 1.562 1.467 2.784 3.071 2.784z"/><path d="m437.901 89.616c0-.301-.056-.585-.136-.86l-3.056 3.953c.031.001.059.009.09.009 1.714 0 3.102-1.389 3.102-3.102z"/><path d="m445.176 96.137c-1.713 0-3.102 1.389-3.102 3.103 0 1.713 1.389 3.102 3.102 3.102s3.102-1.389 3.102-3.102c0-1.714-1.389-3.103-3.102-3.103z"/><path d="m434.799 106.513c-1.713 0-3.102 1.389-3.102 3.103 0 1.713 1.389 3.102 3.102 3.102s3.102-1.389 3.102-3.102c0-1.714-1.388-3.103-3.102-3.103z"/><path d="m445.176 116.137c-1.713 0-3.102 1.389-3.102 3.103 0 1.713 1.389 3.102 3.102 3.102s3.102-1.389 3.102-3.102c0-1.714-1.389-3.103-3.102-3.103z"/><path d="m434.799 126.513c-1.713 0-3.102 1.389-3.102 3.103 0 1.713 1.389 3.102 3.102 3.102s3.102-1.389 3.102-3.102c0-1.714-1.388-3.103-3.102-3.103z"/><path d="m445.176 136.137c-1.713 0-3.102 1.389-3.102 3.103 0 1.713 1.389 3.102 3.102 3.102s3.102-1.389 3.102-3.102c0-1.714-1.389-3.103-3.102-3.103z"/><path d="m434.799 146.513c-1.713 0-3.102 1.389-3.102 3.102s1.389 3.102 3.102 3.102 3.102-1.389 3.102-3.102-1.388-3.102-3.102-3.102z"/><path d="m445.176 156.137c-1.713 0-3.102 1.389-3.102 3.103 0 1.329.839 2.453 2.013 2.895l3.619-4.681c-.562-.795-1.484-1.317-2.53-1.317z"/><path d="m434.799 166.513c-1.713 0-3.102 1.389-3.102 3.102s1.389 3.102 3.102 3.102c.488 0 .944-.123 1.355-.324l1.687-2.181c.038-.193.06-.393.06-.597 0-1.713-1.388-3.102-3.102-3.102z"/><path d="m425.176 116.137c-1.713 0-3.102 1.389-3.102 3.103 0 1.713 1.389 3.102 3.102 3.102s3.102-1.389 3.102-3.102c0-1.714-1.389-3.103-3.102-3.103z"/><path d="m414.799 126.513c-1.713 0-3.102 1.389-3.102 3.103 0 1.713 1.389 3.102 3.102 3.102s3.102-1.389 3.102-3.102c0-1.714-1.388-3.103-3.102-3.103z"/><path d="m425.176 136.137c-1.713 0-3.102 1.389-3.102 3.103 0 1.713 1.389 3.102 3.102 3.102s3.102-1.389 3.102-3.102c0-1.714-1.389-3.103-3.102-3.103z"/><path d="m414.799 146.513c-1.713 0-3.102 1.389-3.102 3.102s1.389 3.102 3.102 3.102 3.102-1.389 3.102-3.102-1.388-3.102-3.102-3.102z"/><path d="m425.176 156.137c-1.713 0-3.102 1.389-3.102 3.103 0 1.713 1.389 3.102 3.102 3.102s3.102-1.389 3.102-3.102c0-1.714-1.389-3.103-3.102-3.103z"/><path d="m414.799 166.513c-1.713 0-3.102 1.389-3.102 3.102s1.389 3.102 3.102 3.102 3.102-1.389 3.102-3.102-1.388-3.102-3.102-3.102z"/><path d="m425.176 176.137c-1.713 0-3.102 1.389-3.102 3.103 0 1.713 1.389 3.102 3.102 3.102s3.102-1.389 3.102-3.102c0-1.714-1.389-3.103-3.102-3.103z"/><path d="m414.799 186.513c-1.713 0-3.102 1.389-3.102 3.102s1.389 3.102 3.102 3.102 3.102-1.389 3.102-3.102-1.388-3.102-3.102-3.102z"/><path d="m405.176 136.137c-1.713 0-3.102 1.389-3.102 3.103 0 1.713 1.389 3.102 3.102 3.102s3.102-1.389 3.102-3.102c0-1.714-1.389-3.103-3.102-3.103z"/><path d="m394.799 146.513c-1.713 0-3.102 1.389-3.102 3.102s1.389 3.102 3.102 3.102 3.102-1.389 3.102-3.102-1.388-3.102-3.102-3.102z"/><path d="m405.176 156.137c-1.713 0-3.102 1.389-3.102 3.103 0 1.713 1.389 3.102 3.102 3.102s3.102-1.389 3.102-3.102c0-1.714-1.389-3.103-3.102-3.103z"/><path d="m394.799 166.513c-1.713 0-3.102 1.389-3.102 3.102s1.389 3.102 3.102 3.102 3.102-1.389 3.102-3.102-1.388-3.102-3.102-3.102z"/><path d="m405.176 176.137c-1.713 0-3.102 1.389-3.102 3.103 0 1.713 1.389 3.102 3.102 3.102s3.102-1.389 3.102-3.102c0-1.714-1.389-3.103-3.102-3.103z"/><path d="m394.799 186.513c-1.713 0-3.102 1.389-3.102 3.102s1.389 3.102 3.102 3.102 3.102-1.389 3.102-3.102-1.388-3.102-3.102-3.102z"/><path d="m405.176 196.137c-1.713 0-3.102 1.389-3.102 3.103 0 1.713 1.389 3.102 3.102 3.102s3.102-1.389 3.102-3.102c0-1.714-1.389-3.103-3.102-3.103z"/><path d="m394.799 206.513c-1.713 0-3.102 1.389-3.102 3.102s1.389 3.102 3.102 3.102 3.102-1.389 3.102-3.102-1.388-3.102-3.102-3.102z"/><path d="m391.697 229.616c0 .085.018.166.025.25l2.551-3.299c-1.461.251-2.576 1.516-2.576 3.049z"/><path d="m385.176 162.341c1.713 0 3.102-1.389 3.102-3.102 0-1.556-1.149-2.832-2.642-3.056l-3.309 4.28c.475 1.105 1.571 1.878 2.849 1.878z"/><path d="m377.901 169.616c0-.87-.36-1.653-.936-2.217l-3.761 4.865c.467.282 1.009.454 1.595.454 1.714 0 3.102-1.389 3.102-3.102z"/><path d="m385.176 176.137c-1.713 0-3.102 1.389-3.102 3.103 0 1.713 1.389 3.102 3.102 3.102s3.102-1.389 3.102-3.102c0-1.714-1.389-3.103-3.102-3.103z"/><path d="m374.799 186.513c-1.713 0-3.102 1.389-3.102 3.102s1.389 3.102 3.102 3.102 3.102-1.389 3.102-3.102-1.388-3.102-3.102-3.102z"/><path d="m385.176 196.137c-1.713 0-3.102 1.389-3.102 3.103 0 1.713 1.389 3.102 3.102 3.102s3.102-1.389 3.102-3.102c0-1.714-1.389-3.103-3.102-3.103z"/><path d="m374.799 206.513c-1.713 0-3.102 1.389-3.102 3.102s1.389 3.102 3.102 3.102 3.102-1.389 3.102-3.102-1.388-3.102-3.102-3.102z"/><path d="m385.176 216.137c-1.713 0-3.102 1.389-3.102 3.103 0 1.713 1.389 3.102 3.102 3.102s3.102-1.389 3.102-3.102c0-1.714-1.389-3.103-3.102-3.103z"/><path d="m374.799 226.513c-1.713 0-3.102 1.389-3.102 3.102s1.389 3.102 3.102 3.102 3.102-1.389 3.102-3.102-1.388-3.102-3.102-3.102z"/><path d="m382.073 239.239c0 .797.31 1.517.804 2.067l3.719-4.81c-.427-.222-.906-.359-1.42-.359-1.714 0-3.103 1.389-3.103 3.102z"/><path d="m374.799 246.513c-1.713 0-3.102 1.389-3.102 3.102 0 1.478 1.036 2.71 2.42 3.021l3.429-4.435c-.515-.997-1.545-1.688-2.747-1.688z"/><path d="m374.169 292.653c-.428-1.808-.888-3.603-1.375-5.387-.666.569-1.097 1.405-1.097 2.349 0 1.498 1.061 2.747 2.472 3.038z"/><path d="m374.799 306.513c-1.713 0-3.102 1.389-3.102 3.103s1.389 3.102 3.102 3.102c1.113 0 2.082-.591 2.629-1.473-.151-1.295-.315-2.587-.496-3.873-.556-.529-1.304-.859-2.133-.859z"/><path d="m374.799 326.513c-1.713 0-3.102 1.389-3.102 3.103s1.389 3.102 3.102 3.102 3.102-1.389 3.102-3.102-1.388-3.103-3.102-3.103z"/><path d="m374.799 346.513c-1.713 0-3.102 1.389-3.102 3.103s1.389 3.102 3.102 3.102c.935 0 1.763-.422 2.331-1.076.15-1.144.287-2.292.413-3.443-.515-.997-1.544-1.686-2.744-1.686z"/><path d="m371.697 369.616c0 1.07.542 2.014 1.367 2.571.497-1.868.97-3.746 1.401-5.64-1.554.169-2.768 1.47-2.768 3.069z"/><path d="m368.278 179.239c0-.183-.023-.36-.054-.534l-2.791 3.61c1.591-.132 2.845-1.451 2.845-3.076z"/><path d="m365.176 202.341c1.713 0 3.102-1.389 3.102-3.102s-1.389-3.103-3.102-3.103-3.102 1.389-3.102 3.103c-.001 1.714 1.388 3.102 3.102 3.102z"/><path d="m354.799 206.513c-1.713 0-3.102 1.389-3.102 3.102s1.389 3.102 3.102 3.102 3.102-1.389 3.102-3.102-1.388-3.102-3.102-3.102z"/><path d="m365.176 222.341c1.713 0 3.102-1.389 3.102-3.102s-1.389-3.103-3.102-3.103-3.102 1.389-3.102 3.103c-.001 1.714 1.388 3.102 3.102 3.102z"/><path d="m354.799 226.513c-1.713 0-3.102 1.389-3.102 3.102s1.389 3.102 3.102 3.102 3.102-1.389 3.102-3.102-1.388-3.102-3.102-3.102z"/><path d="m365.176 242.341c1.713 0 3.102-1.389 3.102-3.102s-1.389-3.103-3.102-3.103-3.102 1.389-3.102 3.103c-.001 1.714 1.388 3.102 3.102 3.102z"/><path d="m354.799 246.513c-1.713 0-3.102 1.389-3.102 3.102s1.389 3.102 3.102 3.102 3.102-1.389 3.102-3.102-1.388-3.102-3.102-3.102z"/><path d="m365.176 256.137c-1.713 0-3.102 1.389-3.102 3.103 0 1.713 1.389 3.102 3.102 3.102.79 0 1.502-.304 2.05-.79l.701-.907c.217-.423.351-.896.351-1.405 0-1.714-1.389-3.103-3.102-3.103z"/><path d="m354.799 266.513c-1.713 0-3.102 1.389-3.102 3.103s1.389 3.102 3.102 3.102 3.102-1.389 3.102-3.102-1.388-3.103-3.102-3.103z"/><path d="m365.176 276.137c-1.713 0-3.102 1.389-3.102 3.103 0 1.713 1.389 3.102 3.102 3.102s3.102-1.389 3.102-3.102c0-1.714-1.389-3.103-3.102-3.103z"/><path d="m354.799 286.513c-1.713 0-3.102 1.389-3.102 3.103s1.389 3.102 3.102 3.102 3.102-1.389 3.102-3.102-1.388-3.103-3.102-3.103z"/><path d="m365.176 296.137c-1.713 0-3.102 1.389-3.102 3.103 0 1.713 1.389 3.102 3.102 3.102s3.102-1.389 3.102-3.102c0-1.714-1.389-3.103-3.102-3.103z"/><path d="m354.799 306.513c-1.713 0-3.102 1.389-3.102 3.103s1.389 3.102 3.102 3.102 3.102-1.389 3.102-3.102-1.388-3.103-3.102-3.103z"/><path d="m365.176 316.137c-1.713 0-3.102 1.389-3.102 3.103 0 1.713 1.389 3.102 3.102 3.102s3.102-1.389 3.102-3.102c0-1.714-1.389-3.103-3.102-3.103z"/><path d="m354.799 326.513c-1.713 0-3.102 1.389-3.102 3.103s1.389 3.102 3.102 3.102 3.102-1.389 3.102-3.102-1.388-3.103-3.102-3.103z"/><path d="m365.176 336.137c-1.713 0-3.102 1.389-3.102 3.103 0 1.713 1.389 3.102 3.102 3.102s3.102-1.389 3.102-3.102c0-1.714-1.389-3.103-3.102-3.103z"/><path d="m354.799 346.513c-1.713 0-3.102 1.389-3.102 3.103s1.389 3.102 3.102 3.102 3.102-1.389 3.102-3.102-1.388-3.103-3.102-3.103z"/><path d="m365.176 356.137c-1.713 0-3.102 1.389-3.102 3.103 0 1.713 1.389 3.102 3.102 3.102s3.102-1.389 3.102-3.102c0-1.714-1.389-3.103-3.102-3.103z"/><path d="m354.799 366.513c-1.713 0-3.102 1.389-3.102 3.103s1.389 3.102 3.102 3.102 3.102-1.389 3.102-3.102-1.388-3.103-3.102-3.103z"/><path d="m365.176 376.137c-1.713 0-3.102 1.389-3.102 3.103 0 1.713 1.389 3.102 3.102 3.102s3.102-1.389 3.102-3.102c0-1.714-1.389-3.103-3.102-3.103z"/><path d="m354.799 386.513c-1.713 0-3.102 1.389-3.102 3.103s1.389 3.102 3.102 3.102 3.102-1.389 3.102-3.102-1.388-3.103-3.102-3.103z"/><path d="m362.073 399.239c0 .555.158 1.069.413 1.52.727-1.51 1.439-3.029 2.121-4.565-1.441.268-2.534 1.527-2.534 3.045z"/><path d="m354.799 406.513c-1.713 0-3.102 1.389-3.102 3.103s1.389 3.102 3.102 3.102c.57 0 1.096-.165 1.555-.433.522-.891 1.04-1.785 1.545-2.686-.009-1.705-1.392-3.086-3.1-3.086z"/><path d="m345.176 216.137c-1.713 0-3.102 1.389-3.102 3.103 0 1.713 1.389 3.102 3.102 3.102s3.102-1.389 3.102-3.102c0-1.714-1.389-3.103-3.102-3.103z"/><path d="m335.453 226.585c.655 1.588 1.281 3.191 1.887 4.805.352-.503.562-1.113.562-1.774-.001-1.489-1.05-2.73-2.449-3.031z"/><path d="m345.176 236.137c-1.713 0-3.102 1.389-3.102 3.103 0 1.713 1.389 3.102 3.102 3.102s3.102-1.389 3.102-3.102c0-1.714-1.389-3.103-3.102-3.103z"/><path d="m345.176 256.137c-.249 0-.488.037-.72.093.406 2.012.781 4.034 1.113 6.072 1.526-.195 2.71-1.483 2.71-3.062-.001-1.714-1.39-3.103-3.103-3.103z"/><path d="m347.266 276.961c.101 1.428.183 2.86.247 4.298.47-.544.765-1.244.765-2.02 0-.905-.394-1.712-1.012-2.278z"/><path d="m347.46 297.155c-.077 1.488-.178 2.969-.295 4.446.675-.569 1.113-1.41 1.113-2.362 0-.805-.315-1.532-.818-2.084z"/><path d="m345.352 316.155c-.345 2.019-.731 4.023-1.149 6.016.308.102.631.171.973.171 1.713 0 3.102-1.389 3.102-3.102 0-1.654-1.296-2.992-2.926-3.085z"/><path d="m345.176 336.137c-1.713 0-3.102 1.389-3.102 3.103 0 1.713 1.389 3.102 3.102 3.102s3.102-1.389 3.102-3.102c0-1.714-1.389-3.103-3.102-3.103z"/><path d="m337.901 349.616c0-.954-.44-1.796-1.117-2.365-.708 1.832-1.458 3.643-2.23 5.443.082.006.16.024.244.024 1.715 0 3.103-1.389 3.103-3.102z"/><path d="m345.176 356.137c-1.713 0-3.102 1.389-3.102 3.103 0 1.713 1.389 3.102 3.102 3.102s3.102-1.389 3.102-3.102c0-1.714-1.389-3.103-3.102-3.103z"/><path d="m334.799 366.513c-1.713 0-3.102 1.389-3.102 3.103s1.389 3.102 3.102 3.102 3.102-1.389 3.102-3.102-1.388-3.103-3.102-3.103z"/><path d="m345.176 376.137c-1.713 0-3.102 1.389-3.102 3.103 0 1.713 1.389 3.102 3.102 3.102s3.102-1.389 3.102-3.102c0-1.714-1.389-3.103-3.102-3.103z"/><path d="m334.799 386.513c-1.713 0-3.102 1.389-3.102 3.103s1.389 3.102 3.102 3.102 3.102-1.389 3.102-3.102-1.388-3.103-3.102-3.103z"/><path d="m345.176 396.137c-1.713 0-3.102 1.389-3.102 3.103 0 1.713 1.389 3.102 3.102 3.102s3.102-1.389 3.102-3.102c0-1.714-1.389-3.103-3.102-3.103z"/><path d="m334.799 406.513c-1.713 0-3.102 1.389-3.102 3.103s1.389 3.102 3.102 3.102 3.102-1.389 3.102-3.102-1.388-3.103-3.102-3.103z"/><path d="m345.176 416.137c-1.713 0-3.102 1.389-3.102 3.103 0 1.713 1.389 3.102 3.102 3.102s3.102-1.389 3.102-3.102c0-1.714-1.389-3.103-3.102-3.103z"/><path d="m334.799 432.718c1.713 0 3.102-1.389 3.102-3.102s-1.389-3.103-3.102-3.103-3.102 1.389-3.102 3.103 1.389 3.102 3.102 3.102z"/><path d="m325.176 376.137c-1.713 0-3.102 1.389-3.102 3.103 0 1.713 1.389 3.102 3.102 3.102s3.102-1.389 3.102-3.102c0-1.714-1.389-3.103-3.102-3.103z"/><path d="m314.799 392.718c1.713 0 3.102-1.389 3.102-3.102 0-1.675-1.331-3.031-2.991-3.091-1.007 1.334-2.029 2.656-3.075 3.958.377 1.288 1.554 2.235 2.964 2.235z"/><path d="m325.176 402.341c1.713 0 3.102-1.389 3.102-3.102s-1.389-3.103-3.102-3.103-3.102 1.389-3.102 3.103c-.001 1.714 1.388 3.102 3.102 3.102z"/><path d="m314.799 406.513c-1.713 0-3.102 1.389-3.102 3.103s1.389 3.102 3.102 3.102 3.102-1.389 3.102-3.102-1.388-3.103-3.102-3.103z"/><path d="m325.176 422.341c1.713 0 3.102-1.389 3.102-3.102s-1.389-3.103-3.102-3.103-3.102 1.389-3.102 3.103c-.001 1.714 1.388 3.102 3.102 3.102z"/><path d="m314.799 426.513c-1.713 0-3.102 1.389-3.102 3.103s1.389 3.102 3.102 3.102 3.102-1.389 3.102-3.102-1.388-3.103-3.102-3.103z"/><path d="m325.176 442.341c1.713 0 3.102-1.389 3.102-3.102s-1.389-3.103-3.102-3.103-3.102 1.389-3.102 3.103c-.001 1.714 1.388 3.102 3.102 3.102z"/><path d="m314.799 446.513c-1.713 0-3.102 1.389-3.102 3.103s1.389 3.102 3.102 3.102 3.102-1.389 3.102-3.102-1.388-3.103-3.102-3.103z"/><path d="m305.176 402.341c1.713 0 3.102-1.389 3.102-3.102 0-1.156-.639-2.152-1.577-2.686-1.335 1.504-2.699 2.98-4.088 4.433.559.818 1.498 1.355 2.563 1.355z"/><path d="m294.799 412.718c1.713 0 3.102-1.389 3.102-3.102 0-1.073-.545-2.018-1.373-2.576-1.457 1.373-2.945 2.713-4.452 4.032.523.975 1.539 1.646 2.723 1.646z"/><path d="m305.176 416.137c-1.713 0-3.102 1.389-3.102 3.103 0 1.713 1.389 3.102 3.102 3.102s3.102-1.389 3.102-3.102c0-1.714-1.389-3.103-3.102-3.103z"/><path d="m294.799 426.513c-1.713 0-3.102 1.389-3.102 3.103s1.389 3.102 3.102 3.102 3.102-1.389 3.102-3.102-1.388-3.103-3.102-3.103z"/><path d="m305.176 436.137c-1.713 0-3.102 1.389-3.102 3.103 0 1.713 1.389 3.102 3.102 3.102s3.102-1.389 3.102-3.102c0-1.714-1.389-3.103-3.102-3.103z"/><path d="m294.799 446.513c-1.713 0-3.102 1.389-3.102 3.103s1.389 3.102 3.102 3.102 3.102-1.389 3.102-3.102-1.388-3.103-3.102-3.103z"/><path d="m305.176 462.341c1.713 0 3.102-1.389 3.102-3.102s-1.389-3.103-3.102-3.103-3.102 1.389-3.102 3.103c-.001 1.714 1.388 3.102 3.102 3.102z"/><path d="m294.799 466.513c-1.713 0-3.102 1.389-3.102 3.103 0 1.615 1.239 2.926 2.815 3.073 1.034-.573 2.062-1.156 3.083-1.75.191-.402.306-.848.306-1.323 0-1.714-1.388-3.103-3.102-3.103z"/><path d="m285.176 422.341c1.713 0 3.102-1.389 3.102-3.102 0-1.468-1.022-2.69-2.391-3.013-1.255.994-2.521 1.974-3.805 2.931-.001.028-.008.054-.008.082-.001 1.714 1.388 3.102 3.102 3.102z"/><path d="m274.799 426.513c-1.713 0-3.102 1.389-3.102 3.103s1.389 3.102 3.102 3.102 3.102-1.389 3.102-3.102-1.388-3.103-3.102-3.103z"/><path d="m285.176 436.137c-1.713 0-3.102 1.389-3.102 3.103 0 1.713 1.389 3.102 3.102 3.102s3.102-1.389 3.102-3.102c0-1.714-1.389-3.103-3.102-3.103z"/><path d="m274.799 446.513c-1.713 0-3.102 1.389-3.102 3.103s1.389 3.102 3.102 3.102 3.102-1.389 3.102-3.102-1.388-3.103-3.102-3.103z"/><path d="m285.176 456.137c-1.713 0-3.102 1.389-3.102 3.103 0 1.713 1.389 3.102 3.102 3.102s3.102-1.389 3.102-3.102c0-1.714-1.389-3.103-3.102-3.103z"/><path d="m274.799 466.513c-1.713 0-3.102 1.389-3.102 3.103s1.389 3.102 3.102 3.102 3.102-1.389 3.102-3.102-1.388-3.103-3.102-3.103z"/><path d="m285.176 476.137c-1.592 0-2.889 1.204-3.067 2.749 1.607-.718 3.201-1.461 4.78-2.23-.491-.327-1.079-.519-1.713-.519z"/><path d="m265.176 436.137c-1.713 0-3.102 1.389-3.102 3.103 0 1.713 1.389 3.102 3.102 3.102s3.102-1.389 3.102-3.102c0-1.714-1.389-3.103-3.102-3.103z"/><path d="m254.799 446.513c-1.713 0-3.102 1.389-3.102 3.103s1.389 3.102 3.102 3.102 3.102-1.389 3.102-3.102-1.388-3.103-3.102-3.103z"/><path d="m265.176 456.137c-1.713 0-3.102 1.389-3.102 3.103 0 1.713 1.389 3.102 3.102 3.102s3.102-1.389 3.102-3.102c0-1.714-1.389-3.103-3.102-3.103z"/><path d="m254.799 466.513c-1.713 0-3.102 1.389-3.102 3.103s1.389 3.102 3.102 3.102 3.102-1.389 3.102-3.102-1.388-3.103-3.102-3.103z"/><path d="m265.176 476.137c-1.713 0-3.102 1.389-3.102 3.103 0 1.713 1.389 3.102 3.102 3.102s3.102-1.389 3.102-3.102c0-1.714-1.389-3.103-3.102-3.103z"/><path d="m254.799 486.513c-1.493 0-2.739 1.056-3.034 2.461 1.819-.411 3.63-.842 5.425-1.314-.569-.694-1.423-1.147-2.391-1.147z"/><path d="m245.176 442.341c1.713 0 3.102-1.389 3.102-3.102 0-.23-.029-.454-.077-.67-1.873.791-3.767 1.54-5.675 2.262.543.902 1.521 1.51 2.65 1.51z"/><path d="m234.799 446.513c-1.713 0-3.102 1.389-3.102 3.103s1.389 3.102 3.102 3.102 3.102-1.389 3.102-3.102-1.388-3.103-3.102-3.103z"/><path d="m245.176 456.137c-1.713 0-3.102 1.389-3.102 3.103 0 1.713 1.389 3.102 3.102 3.102s3.102-1.389 3.102-3.102c0-1.714-1.389-3.103-3.102-3.103z"/><path d="m234.799 466.513c-1.713 0-3.102 1.389-3.102 3.103s1.389 3.102 3.102 3.102 3.102-1.389 3.102-3.102-1.388-3.103-3.102-3.103z"/><path d="m245.176 476.137c-1.713 0-3.102 1.389-3.102 3.103 0 1.713 1.389 3.102 3.102 3.102s3.102-1.389 3.102-3.102c0-1.714-1.389-3.103-3.102-3.103z"/><path d="m237.901 489.616c0-1.713-1.389-3.103-3.102-3.103s-3.102 1.389-3.102 3.103c0 1.009.489 1.897 1.235 2.463 1.422-.149 2.84-.314 4.251-.499.442-.537.718-1.215.718-1.964z"/><path d="m211.697 449.616c0 1.713 1.389 3.102 3.102 3.102s3.102-1.389 3.102-3.102c0-.568-.164-1.093-.43-1.551-1.896.385-3.805.736-5.725 1.055-.025.162-.049.326-.049.496z"/><path d="m222.073 459.239c0 1.713 1.389 3.102 3.102 3.102s3.102-1.389 3.102-3.102-1.389-3.103-3.102-3.103c-1.713.001-3.102 1.39-3.102 3.103z"/><path d="m214.799 472.718c1.713 0 3.102-1.389 3.102-3.102s-1.389-3.103-3.102-3.103-3.102 1.389-3.102 3.103 1.389 3.102 3.102 3.102z"/><path d="m225.176 482.341c1.713 0 3.102-1.389 3.102-3.102s-1.389-3.103-3.102-3.103-3.102 1.389-3.102 3.103c-.001 1.714 1.388 3.102 3.102 3.102z"/><path d="m217.901 489.616c0-1.713-1.389-3.103-3.102-3.103s-3.102 1.389-3.102 3.103 1.389 3.102 3.102 3.102 3.102-1.389 3.102-3.102z"/><path d="m194.799 452.718c1.283 0 2.383-.778 2.855-1.889-1.835.142-3.679.251-5.531.331.538.928 1.528 1.558 2.676 1.558z"/><path d="m205.176 456.137c-1.713 0-3.102 1.389-3.102 3.103 0 1.713 1.389 3.102 3.102 3.102s3.102-1.389 3.102-3.102c0-1.714-1.389-3.103-3.102-3.103z"/><path d="m194.799 466.513c-1.713 0-3.102 1.389-3.102 3.103s1.389 3.102 3.102 3.102 3.102-1.389 3.102-3.102-1.388-3.103-3.102-3.103z"/><path d="m205.176 476.137c-1.713 0-3.102 1.389-3.102 3.103 0 1.713 1.389 3.102 3.102 3.102s3.102-1.389 3.102-3.102c0-1.714-1.389-3.103-3.102-3.103z"/><path d="m197.901 489.616c0-1.713-1.389-3.103-3.102-3.103s-3.102 1.389-3.102 3.103c0 .592.175 1.141.463 1.611 1.583.235 3.174.445 4.771.633.595-.565.97-1.359.97-2.244z"/><path d="m174.799 452.718c1.152 0 2.145-.635 2.68-1.566-1.859-.086-3.707-.214-5.55-.363.464 1.131 1.572 1.929 2.87 1.929z"/><path d="m185.176 456.137c-1.713 0-3.102 1.389-3.102 3.103 0 1.713 1.389 3.102 3.102 3.102s3.102-1.389 3.102-3.102c0-1.714-1.389-3.103-3.102-3.103z"/><path d="m174.799 466.513c-1.713 0-3.102 1.389-3.102 3.103s1.389 3.102 3.102 3.102 3.102-1.389 3.102-3.102-1.388-3.103-3.102-3.103z"/><path d="m185.176 476.137c-1.713 0-3.102 1.389-3.102 3.103 0 1.713 1.389 3.102 3.102 3.102s3.102-1.389 3.102-3.102c0-1.714-1.389-3.103-3.102-3.103z"/><path d="m174.799 486.513c-.704 0-1.345.243-1.866.638 1.559.43 3.127.833 4.703 1.218-.48-1.092-1.568-1.856-2.837-1.856z"/><path d="m154.799 452.718c1.713 0 3.102-1.389 3.102-3.102 0-.203-.023-.401-.06-.593-1.896-.324-3.783-.675-5.657-1.064-.305.48-.488 1.046-.488 1.657.001 1.713 1.39 3.102 3.103 3.102z"/><path d="m165.176 456.137c-1.713 0-3.102 1.389-3.102 3.103 0 1.713 1.389 3.102 3.102 3.102s3.102-1.389 3.102-3.102c0-1.714-1.389-3.103-3.102-3.103z"/><path d="m154.799 466.513c-1.713 0-3.102 1.389-3.102 3.103s1.389 3.102 3.102 3.102 3.102-1.389 3.102-3.102-1.388-3.103-3.102-3.103z"/><path d="m165.176 476.137c-1.713 0-3.102 1.389-3.102 3.103 0 1.713 1.389 3.102 3.102 3.102s3.102-1.389 3.102-3.102c0-1.714-1.389-3.103-3.102-3.103z"/><path d="m131.697 449.616c0 1.713 1.389 3.102 3.102 3.102s3.102-1.389 3.102-3.102-1.389-3.103-3.102-3.103-3.102 1.389-3.102 3.103z"/><path d="m142.073 459.239c0 1.713 1.389 3.102 3.102 3.102s3.102-1.389 3.102-3.102-1.389-3.103-3.102-3.103c-1.713.001-3.102 1.39-3.102 3.103z"/><path d="m137.901 469.616c0-1.713-1.389-3.103-3.102-3.103-1.613 0-2.923 1.235-3.073 2.809 1.597.972 3.213 1.917 4.845 2.835.803-.56 1.33-1.488 1.33-2.541z"/><path d="m145.176 476.137c-.283 0-.552.05-.813.122 1.218.601 2.437 1.201 3.671 1.772-.472-1.113-1.574-1.894-2.858-1.894z"/><path d="m125.176 442.341c1.122 0 2.096-.601 2.641-1.494-1.906-.723-3.796-1.479-5.669-2.271-.047.214-.075.434-.075.663 0 1.714 1.389 3.102 3.103 3.102z"/><path d="m111.697 449.616c0 1.713 1.389 3.102 3.102 3.102s3.102-1.389 3.102-3.102-1.389-3.103-3.102-3.103-3.102 1.389-3.102 3.103z"/><path d="m125.176 456.137c-1.713 0-3.102 1.389-3.102 3.103 0 1.713 1.389 3.102 3.102 3.102s3.102-1.389 3.102-3.102c0-1.714-1.389-3.103-3.102-3.103z"/><path d="m94.799 426.513c-1.713 0-3.102 1.389-3.102 3.103s1.389 3.102 3.102 3.102 3.102-1.389 3.102-3.102-1.388-3.103-3.102-3.103z"/><path d="m105.176 442.341c1.713 0 3.102-1.389 3.102-3.102s-1.389-3.103-3.102-3.103-3.102 1.389-3.102 3.103c-.001 1.714 1.388 3.102 3.102 3.102z"/><path d="m77.715 410.64c-1.426-1.254-2.83-2.532-4.212-3.834-.306.142-.585.33-.827.559.958 1.76 1.946 3.501 2.966 5.223.97-.275 1.74-1.003 2.073-1.948z"/><path d="m82.073 419.239c0 1.713 1.389 3.102 3.102 3.102s3.102-1.389 3.102-3.102c0-.021-.006-.042-.006-.063-1.294-.962-2.573-1.941-3.838-2.94-1.352.334-2.36 1.547-2.36 3.003z"/></g><ellipse cx="215.778" cy="330.218" fill="#e9c278" rx="78.885" ry="78.885" transform="matrix(.707 -.707 .707 .707 -170.3 249.297)"/><g fill="#31373d"><path d="m215.778 413.127c-45.716 0-82.908-37.193-82.908-82.909s37.193-82.909 82.908-82.909c45.716 0 82.908 37.193 82.908 82.909s-37.192 82.909-82.908 82.909zm0-157.77c-41.279 0-74.861 33.583-74.861 74.861 0 41.279 33.583 74.862 74.861 74.862 41.279 0 74.861-33.583 74.861-74.862s-33.583-74.861-74.861-74.861z"/><path d="m472.577 102.562-68.106-92.502c-3.948-5.363-9.752-8.843-16.343-9.799-6.588-.956-13.143.73-18.452 4.749l-152.392 115.343c-1.753 1.327-2.117 3.814-.817 5.587l6.215 8.481c8.392 11.453 5.901 27.598-5.551 35.99-11.452 8.391-27.598 5.902-35.99-5.551l-5.668-7.736c-.637-.87-1.596-1.447-2.663-1.604-1.068-.158-2.151.123-3.011.773l-45.695 34.586c-47.137 31.074-75.213 83.27-75.109 139.651.045 24.321 5.305 47.81 15.25 69.264-17.879 10.397-29.926 29.763-29.926 51.893 0 33.078 26.911 59.989 59.989 59.989 22.141 0 41.513-12.062 51.907-29.955 21.605 10.026 45.205 15.28 69.558 15.279 1.915 0 3.841-.033 5.765-.098 43.332-1.47 83.837-19.462 114.056-50.662 30.29-31.272 46.97-72.478 46.97-116.025 0-22.53-4.416-44.365-13.13-64.942l102.796-132.962c6.709-8.679 6.853-20.913.347-29.749zm-378.271 401.069c-28.641 0-51.942-23.301-51.942-51.942 0-18.969 10.224-35.592 25.449-44.658 3.518 6.706 7.515 13.185 11.963 19.407-8.729 5.042-14.621 14.468-14.621 25.251 0 16.074 13.077 29.151 29.151 29.151 10.797 0 20.222-5.912 25.259-14.657 6.233 4.451 12.717 8.448 19.418 11.966-9.061 15.243-25.693 25.482-44.677 25.482zm5.831-53.612c4.154 4.008 8.474 7.769 12.936 11.29-3.504 6.81-10.596 11.484-18.767 11.484-11.637 0-21.104-9.467-21.104-21.104 0-8.164 4.674-15.231 11.475-18.737 4.721 5.97 9.873 11.676 15.46 17.067zm365.724-322.628-100.265 129.689c-13.35-27.411-33.914-50.558-59.749-67.146-1.87-1.199-4.36-.657-5.56 1.212-1.201 1.87-.658 4.359 1.212 5.559 25.944 16.658 46.316 40.254 58.913 68.24.137.304.314.576.511.828.051.183.114.363.191.54 8.891 20.192 13.399 41.692 13.399 63.905 0 86.042-67.316 155.727-153.252 158.644-43.15 1.462-84.189-14.386-115.538-44.634-31.314-30.213-48.603-70.597-48.683-113.71-.1-53.703 26.666-103.419 71.596-132.987.074-.049.146-.1.217-.153l42.542-32.2 3.253 4.439c11.014 15.032 32.205 18.299 47.238 7.286 15.032-11.015 18.301-32.206 7.286-47.238l-3.873-5.286 149.233-112.952c3.58-2.71 7.999-3.847 12.44-3.202 4.443.645 8.356 2.991 11.017 6.606l68.107 92.503c4.387 5.956 4.29 14.205-.235 20.057z"/></g></g></svg>