<!DOCTYPE svg PUBLIC "-//W3C//DTD SVG 20010904//EN" "http://www.w3.org/TR/2001/REC-SVG-20010904/DTD/svg10.dtd">
<svg version="1.0" xmlns="http://www.w3.org/2000/svg" width="260px" height="280px" viewBox="0 0 2600 2800" preserveAspectRatio="xMidYMid meet">
<g id="layer101" fill="#060314" stroke="none">
<path d="M1920 2454 c-6 -14 -10 -32 -10 -40 0 -17 5 -16 -61 -3 -30 6 -63 12 -74 13 -11 2 -24 5 -30 6 -52 13 -61 -31 -18 -86 24 -29 32 -33 58 -28 44 8 80 -32 70 -78 -4 -18 -8 -71 -9 -117 -1 -81 -2 -84 -31 -105 -100 -71 -225 -223 -225 -273 0 -27 -2 -28 -41 -7 -29 15 -33 14 -84 -11 -29 -15 -58 -24 -64 -21 -6 4 -11 3 -11 -2 0 -5 -11 -12 -25 -14 -14 -3 -25 -3 -25 -1 0 6 83 42 90 38 12 -7 9 67 -4 88 -8 12 -18 43 -21 70 -8 50 -32 77 -70 77 -18 -1 -19 -1 -2 -11 9 -5 17 -14 17 -20 0 -5 -11 -2 -25 7 -14 9 -25 24 -25 34 0 10 -12 29 -28 42 -22 18 -26 30 -24 59 2 25 -3 40 -18 54 -11 10 -20 29 -20 42 0 28 -2 28 -44 1 -43 -28 -55 -71 -47 -163 7 -86 21 -108 106 -176 35 -29 62 -55 60 -59 -2 -4 -27 -10 -55 -13 -91 -11 -133 -37 -175 -108 -20 -35 -38 -65 -40 -67 -1 -1 -14 3 -29 9 -38 18 -33 60 9 73 17 6 31 11 33 12 9 6 -21 44 -34 44 -8 0 -26 7 -40 16 -21 14 -30 15 -70 4 -25 -7 -47 -18 -49 -24 -1 -6 -12 -39 -22 -74 l-20 -64 26 -9 c14 -5 33 -14 41 -19 8 -6 29 -17 46 -25 40 -18 50 -43 27 -66 -15 -15 -30 -16 -103 -11 l-85 7 3 40 c2 22 -4 58 -14 80 -9 22 -16 56 -15 76 1 21 -4 40 -12 48 -27 22 -31 0 -24 -139 2 -44 2 -45 -36 -51 -25 -4 -41 -2 -48 7 -12 15 -3 74 12 74 5 0 9 5 9 11 0 7 -9 9 -23 6 -21 -6 -21 -5 -3 8 18 13 17 14 -7 20 -34 9 -45 1 -63 -46 -9 -22 -21 -36 -27 -32 -6 3 -7 1 -3 -5 4 -6 2 -21 -4 -31 -9 -18 -6 -21 22 -29 18 -5 32 -15 30 -21 -1 -7 2 -10 7 -7 5 3 14 -1 21 -9 7 -8 26 -15 42 -15 16 0 48 -10 71 -21 25 -13 63 -23 95 -23 33 -1 58 -8 68 -18 15 -15 14 -23 -16 -99 -17 -46 -36 -88 -41 -93 -11 -13 -46 20 -69 64 -50 98 -161 133 -223 71 -22 -21 -25 -61 -9 -94 30 -62 62 -159 62 -189 0 -18 -5 -49 -10 -69 l-10 -37 -81 5 c-111 7 -126 2 -139 -48 -19 -68 24 -208 75 -247 19 -14 21 -21 13 -60 -4 -24 -5 -48 -2 -53 8 -14 73 -10 129 6 27 9 55 13 61 11 7 -3 19 -26 28 -53 9 -26 27 -61 40 -78 23 -28 28 -30 110 -34 48 -1 92 1 99 7 6 5 28 15 48 21 20 6 49 25 65 42 26 27 28 36 26 92 l-1 62 69 48 c37 26 73 47 79 47 15 0 14 29 -1 44 -20 19 -60 26 -76 13 -12 -10 -13 -6 -7 23 4 19 17 55 29 80 l21 45 85 0 c80 1 91 3 185 47 85 40 112 47 181 52 82 5 134 21 134 39 0 6 3 7 6 4 7 -7 80 87 90 117 6 15 14 17 44 12 69 -11 169 -47 196 -69 35 -30 44 -99 19 -148 -28 -53 -76 -110 -87 -103 -6 4 -8 2 -4 -4 3 -6 -12 -36 -34 -68 -35 -50 -40 -64 -40 -113 0 -68 23 -111 73 -134 35 -17 57 -21 57 -12 0 2 -13 24 -29 47 -27 38 -36 68 -32 105 1 6 38 36 84 66 183 120 244 219 235 379 -8 145 -89 254 -241 327 -85 40 -122 70 -218 178 l-35 40 29 34 c39 45 57 90 72 177 12 70 36 122 55 122 16 0 40 57 40 93 0 28 37 124 79 207 8 15 30 24 83 35 15 3 33 12 41 20 8 8 18 11 22 7 4 -4 6 -2 4 3 -1 6 1 18 5 28 9 20 -2 76 -12 61 -4 -5 -25 -10 -47 -12 -22 -2 -50 -10 -62 -18 -31 -19 -57 -18 -78 6 -10 11 -24 20 -31 20 -7 0 -16 5 -20 12 -5 7 -2 8 7 3 8 -5 11 -4 6 0 -18 20 -48 15 -57 -11z m277 -46 c-2 -7 -16 -13 -30 -13 -14 1 -23 -3 -21 -7 3 -4 1 -8 -4 -8 -5 0 -12 9 -15 20 -4 18 0 20 35 20 27 0 38 -4 35 -12z"/>
<path d="M510 2088 c-115 -59 -145 -218 -58 -307 46 -47 82 -62 144 -62 60 0 134 34 154 72 6 11 15 17 20 14 6 -4 7 1 3 11 -5 13 -3 15 7 9 7 -5 11 -4 7 1 -3 5 -2 29 3 52 10 57 -4 111 -42 156 -62 75 -154 96 -238 54z"/>
</g>
<g id="layer102" fill="#0a0f39" stroke="none">
<path d="M1933 2451 c-3 -11 -9 -18 -14 -15 -5 3 -9 -4 -9 -14 0 -16 -8 -20 -47 -20 -26 -1 -50 -7 -55 -14 -6 -10 -8 -8 -8 5 0 9 -5 17 -11 17 -5 0 -7 5 -3 12 4 7 3 8 -4 4 -7 -4 -19 -3 -28 2 -28 15 -54 3 -54 -26 0 -31 27 -63 46 -55 8 3 14 0 14 -7 0 -7 8 -9 19 -5 33 10 68 -11 76 -47 4 -18 7 -39 6 -47 -1 -7 2 -10 8 -6 8 4 8 -2 0 -22 -6 -16 -7 -53 -4 -89 6 -50 4 -67 -11 -90 -24 -37 -45 -53 -60 -47 -7 2 -18 -6 -24 -19 -7 -13 -24 -35 -39 -49 -47 -46 -89 -98 -83 -104 4 -3 -2 -3 -12 1 -12 5 -17 2 -15 -7 4 -24 -23 -109 -35 -109 -6 0 -18 5 -26 11 -12 8 -9 9 10 4 17 -4 13 1 -13 15 l-39 21 -54 -27 c-29 -15 -51 -31 -48 -35 2 -4 -11 -11 -30 -15 -26 -4 -40 -2 -51 9 -14 15 -14 17 4 27 11 5 29 10 40 10 12 0 21 5 21 10 0 6 8 10 18 10 9 0 13 4 7 8 -5 4 -10 18 -10 32 1 14 -2 27 -6 30 -11 8 -23 64 -13 57 6 -3 8 10 5 31 l-5 37 -7 -30 c-5 -24 -7 -25 -8 -7 -1 15 -7 22 -21 22 -11 0 -20 -6 -20 -12 0 -9 -3 -10 -8 -2 -4 6 -17 16 -29 23 -17 9 -23 21 -23 45 0 26 -4 33 -17 32 -12 0 -19 7 -21 22 -2 12 -6 20 -10 18 -4 -2 -6 13 -6 35 1 21 -2 37 -7 34 -4 -3 -15 8 -24 25 -8 16 -18 30 -21 30 -3 0 -2 -4 1 -10 3 -5 1 -10 -5 -10 -6 0 -15 -11 -20 -25 -5 -14 -14 -25 -18 -25 -5 0 -9 -22 -9 -50 0 -27 3 -47 7 -45 12 7 17 -64 6 -75 -7 -7 -4 -10 7 -10 10 0 17 -8 17 -20 0 -20 55 -67 72 -62 5 1 7 -2 4 -7 -8 -13 21 -34 35 -25 7 4 9 3 5 -4 -3 -6 -2 -13 4 -17 5 -3 10 -1 10 6 0 8 4 8 15 -1 8 -7 15 -18 15 -24 0 -8 -3 -7 -8 1 -5 8 -13 9 -22 3 -8 -6 -28 -10 -45 -11 l-30 -2 35 -8 c33 -7 33 -7 -12 -6 -25 1 -44 -1 -41 -5 2 -5 0 -8 -6 -8 -5 0 -18 -3 -28 -6 -15 -5 -16 -4 -3 6 13 10 12 11 -3 6 -10 -3 -24 -6 -29 -6 -6 0 -9 -3 -5 -6 7 -7 -63 -100 -74 -97 -5 2 -6 -4 -3 -12 8 -21 -6 -41 -17 -24 -5 9 -9 10 -9 3 0 -7 -7 -15 -16 -18 -10 -4 -13 -2 -8 6 5 8 2 9 -10 5 -10 -4 -15 -3 -11 3 3 6 1 10 -5 10 -6 0 -10 15 -8 35 1 19 7 34 13 34 31 -4 45 3 45 21 0 11 -8 23 -17 26 -10 3 -30 12 -45 20 -28 15 -52 19 -30 5 8 -5 -4 -8 -32 -7 -56 1 -69 -11 -70 -68 -1 -24 -4 -40 -7 -34 -3 5 -9 -1 -12 -13 -4 -14 -1 -27 6 -31 9 -6 8 -8 -3 -9 -13 0 20 -17 73 -35 9 -4 17 -11 17 -16 0 -6 9 -8 20 -5 27 7 44 -16 31 -42 -14 -26 -14 -34 1 -25 7 4 8 3 4 -4 -4 -7 -16 -12 -27 -12 -10 0 -19 -4 -19 -10 0 -5 -7 -10 -16 -10 -8 0 -12 5 -9 10 6 10 -20 13 -107 13 -31 0 -49 4 -52 14 -3 8 -2 12 3 9 12 -8 22 19 12 30 -14 15 -22 64 -12 64 6 0 8 7 4 16 -5 15 -7 15 -15 0 -5 -9 -13 -14 -19 -11 -5 4 -9 -4 -9 -17 0 -18 2 -20 10 -8 8 13 10 12 10 -2 0 -10 -7 -18 -16 -18 -10 0 -14 -6 -10 -15 4 -11 -2 -15 -24 -15 -17 0 -30 5 -30 11 0 8 -5 8 -15 -1 -12 -10 -21 -8 -50 14 -19 15 -35 23 -35 19 0 -4 -5 -1 -10 7 -9 13 -11 13 -20 0 -8 -12 -3 -18 24 -29 19 -7 37 -20 40 -28 3 -8 2 -11 -3 -8 -5 3 -12 2 -14 -3 -3 -4 16 -8 41 -9 26 -2 48 -7 50 -13 2 -5 17 -10 33 -10 21 0 29 -5 29 -17 0 -14 2 -15 9 -4 6 9 10 10 16 2 4 -7 19 -9 41 -5 20 4 34 2 34 -4 0 -5 8 -9 18 -9 35 0 43 -3 37 -14 -4 -6 2 -13 13 -16 17 -4 18 -8 9 -33 -7 -19 -16 -26 -26 -23 -12 4 -13 3 -3 -4 14 -10 6 -43 -10 -43 -5 0 -7 -4 -4 -9 9 -13 -12 -63 -23 -56 -5 3 -11 -5 -13 -17 -4 -28 -34 -26 -63 4 -11 11 -14 17 -6 13 9 -5 12 -3 9 6 -3 8 -11 13 -18 11 -8 -2 -10 3 -6 14 8 20 -39 86 -58 82 -6 -2 -12 1 -13 6 -5 32 -98 36 -137 5 -20 -16 -26 -29 -26 -59 0 -21 4 -42 10 -45 6 -4 7 1 4 12 -5 14 -4 15 4 4 6 -8 8 -20 5 -27 -3 -7 7 -42 21 -78 14 -35 26 -84 27 -108 1 -36 2 -39 9 -18 13 41 11 1 -2 -44 -11 -37 -29 -66 -41 -66 -3 0 -3 8 -1 17 4 16 -5 18 -84 21 -114 4 -119 0 -116 -99 3 -97 3 -93 11 -86 8 9 43 -64 37 -75 -9 -14 34 -51 48 -42 10 6 11 5 1 -7 -6 -8 -13 -34 -15 -59 -3 -45 -3 -45 31 -48 19 -2 61 4 93 13 32 9 62 14 67 10 5 -3 15 -22 21 -43 17 -53 55 -108 79 -115 12 -3 21 -1 21 4 0 5 7 9 16 9 8 0 12 -4 9 -10 -4 -6 13 -10 45 -10 32 0 49 4 45 10 -4 6 8 10 29 10 76 0 136 43 136 97 0 19 4 32 9 29 5 -3 6 13 4 37 l-4 42 70 48 c38 26 74 47 80 47 6 0 11 8 11 19 0 26 -65 57 -86 41 -11 -10 -14 -9 -14 4 0 10 3 15 7 13 5 -3 9 7 10 21 3 53 8 80 15 76 3 -2 12 9 20 26 14 31 24 38 30 19 6 -19 127 -16 180 5 27 11 45 23 41 29 -3 6 -1 7 5 3 7 -4 33 4 60 18 35 18 69 26 137 30 85 6 143 26 131 45 -3 5 4 17 17 27 22 19 22 19 4 -2 -9 -11 -14 -24 -10 -27 9 -10 63 74 56 86 -3 6 -1 7 5 3 12 -7 35 27 25 38 -13 12 44 6 115 -14 40 -11 78 -17 84 -14 6 4 8 2 4 -4 -6 -11 30 -28 49 -23 6 1 7 -1 3 -5 -9 -8 11 -36 21 -30 3 2 6 -22 6 -54 0 -33 -4 -56 -9 -52 -5 3 -6 -3 -2 -14 4 -10 4 -15 0 -12 -9 10 -64 -74 -57 -86 3 -5 1 -6 -5 -3 -13 9 -74 -72 -65 -87 3 -6 3 -8 -2 -4 -16 15 -45 -51 -45 -104 0 -58 32 -123 57 -114 8 3 11 1 8 -4 -10 -16 11 -12 25 5 10 12 7 21 -19 50 -17 20 -28 41 -25 47 4 6 7 20 8 32 1 14 20 32 64 57 34 20 71 44 81 53 10 9 20 14 23 11 3 -3 23 16 44 41 21 26 45 53 52 60 7 7 14 17 15 21 1 4 5 7 9 6 7 -3 12 20 9 40 0 4 3 7 7 7 15 0 14 172 -2 223 -8 26 -10 47 -5 47 4 0 6 7 3 15 -4 8 -13 15 -20 15 -14 0 -35 39 -28 51 2 4 -3 12 -11 19 -9 8 -15 8 -15 2 0 -6 5 -13 10 -15 6 -3 5 -4 -2 -3 -7 1 -18 12 -23 23 -19 37 -38 54 -56 50 -11 -3 -19 2 -22 14 -3 11 -13 19 -24 19 -15 0 -16 -2 -3 -10 24 -15 4 -12 -35 7 -19 9 -35 24 -35 32 0 12 -2 13 -8 4 -11 -17 -52 11 -52 35 0 12 -3 14 -8 4 -6 -9 -16 -3 -38 20 -20 23 -22 27 -5 13 l24 -20 -14 23 c-8 12 -19 22 -26 22 -7 0 -10 7 -6 15 3 10 0 15 -8 13 -8 -2 -13 4 -13 15 1 11 -4 16 -14 15 -9 -2 -17 2 -17 9 0 6 -3 14 -7 18 -4 4 11 30 33 58 25 31 39 58 36 69 -3 10 -1 16 3 13 11 -7 24 60 16 80 -4 10 -2 14 5 9 8 -5 10 4 7 29 -2 21 0 33 6 30 5 -4 7 1 3 11 -4 10 -3 15 3 11 5 -3 12 5 16 19 3 15 11 23 19 20 21 -8 44 46 46 109 1 31 5 54 9 52 10 -6 41 65 34 77 -5 7 -2 8 6 3 10 -6 11 -2 6 19 -4 15 -3 26 1 24 10 -5 53 39 46 46 -3 2 4 2 16 -1 13 -3 21 -1 21 7 0 8 9 10 26 6 23 -6 26 -4 21 13 -3 11 0 22 6 24 6 2 1 6 -11 9 -12 4 -20 2 -16 -3 3 -5 0 -9 -5 -9 -6 0 -11 8 -11 18 0 14 -2 15 -10 2 -8 -13 -10 -12 -10 4 0 14 -5 17 -22 12 -67 -19 -73 -18 -88 9 -7 14 -20 23 -27 21 -7 -3 -12 0 -10 6 4 21 -24 20 -30 -1z m-1291 -1269 c14 -20 29 -48 33 -62 4 -14 13 -28 19 -32 6 -4 1 -6 -10 -6 -15 2 -20 7 -16 20 6 23 -14 23 -27 1 -6 -10 -11 -14 -11 -9 0 5 8 18 17 28 10 12 13 22 8 26 -11 8 -48 72 -42 72 2 0 16 -17 29 -38z m-66 -55 c-2 -7 -5 -4 -5 6 -1 9 -6 17 -12 17 -5 0 -7 5 -3 11 9 15 28 -16 20 -34z m-223 -248 l22 -21 -27 13 c-16 7 -28 16 -28 21 0 13 9 10 33 -13z m143 4 c-2 -3 -8 -5 -13 -5 -4 0 -16 -4 -25 -9 -12 -6 -18 -6 -18 0 0 5 8 11 18 13 24 5 43 6 38 1z m241 -185 c60 -66 46 -91 -50 -92 l-62 -1 -3 38 c-2 26 2 45 14 58 24 27 75 25 101 -3z m-209 -54 c49 -34 13 -88 -63 -96 -26 -3 -30 0 -33 24 -2 17 4 34 17 47 12 12 18 21 14 21 -12 0 20 20 32 20 6 0 21 -7 33 -16z m262 -54 c-8 -5 -24 -9 -35 -9 -16 1 -16 2 5 9 35 11 48 11 30 0z"/>
<path d="M708 700 c31 -13 51 -58 31 -71 -8 -5 -9 -9 -4 -9 6 0 16 4 23 8 17 11 -26 76 -53 79 -17 3 -16 1 3 -7z"/>
<path d="M2140 2438 l-25 -11 24 -5 c13 -2 28 2 32 10 5 8 9 9 9 2 0 -7 7 -14 15 -18 12 -4 13 -2 2 14 -13 22 -21 23 -57 8z"/>
<path d="M600 2101 c0 -4 -20 -11 -45 -14 -25 -2 -55 -13 -67 -23 -14 -13 -19 -14 -13 -4 5 10 1 8 -13 -4 -12 -10 -19 -22 -17 -26 3 -4 -2 -11 -11 -14 -9 -4 -14 -13 -10 -21 7 -18 -3 -47 -14 -40 -9 5 -8 -13 1 -30 2 -5 4 -25 4 -42 0 -18 3 -33 7 -33 4 0 8 -11 8 -24 0 -34 72 -86 119 -87 29 0 32 -2 16 -9 -14 -6 -4 -9 37 -9 50 -1 60 2 73 23 11 16 22 22 36 19 13 -4 19 -1 17 8 -2 8 3 13 10 12 6 -2 12 2 12 7 0 21 2 25 17 33 10 6 13 17 9 35 -5 20 -4 23 4 12 7 -12 10 -7 11 20 2 56 -1 74 -17 86 -8 6 -14 18 -14 27 0 18 -68 77 -90 77 -8 0 -24 7 -34 15 -22 17 -36 19 -36 6z"/>
<path d="M690 1640 c6 -11 16 -20 23 -19 9 0 9 2 0 6 -7 2 -13 11 -13 19 0 8 -5 14 -10 14 -7 0 -7 -6 0 -20z"/>
<path d="M550 1593 c0 -5 4 -14 9 -21 6 -10 10 -9 14 7 3 14 0 21 -9 21 -8 0 -14 -3 -14 -7z"/>
</g>
<g id="layer103" fill="#2d0c1e" stroke="none">
<path d="M1930 2441 c0 -11 -5 -23 -11 -26 -15 -10 19 -45 43 -45 11 0 16 4 13 10 -3 6 1 7 9 4 24 -9 31 24 11 46 -10 11 -22 17 -26 14 -5 -3 -9 0 -9 5 0 6 -7 11 -15 11 -8 0 -15 -9 -15 -19z"/>
<path d="M1715 2429 c-13 -5 -15 -8 -5 -8 9 -1 11 -4 5 -9 -16 -11 -12 -44 8 -56 20 -13 70 10 75 35 4 20 -57 49 -83 38z"/>
<path d="M2089 2399 c-8 -5 -28 -9 -45 -9 -17 0 -37 -7 -44 -15 -7 -8 -27 -15 -44 -15 l-31 -1 28 -15 c15 -8 33 -12 39 -8 7 5 8 3 3 -5 -5 -8 -18 -11 -37 -7 -18 3 -27 2 -23 -4 3 -6 14 -10 23 -10 14 0 14 -2 3 -9 -8 -5 -21 -6 -30 -3 -14 5 -14 4 -2 -12 20 -25 21 -56 2 -56 -14 -1 -14 -2 1 -13 15 -12 15 -14 -3 -26 -22 -13 -21 -36 2 -36 17 0 23 -27 14 -71 -7 -39 -59 -104 -82 -104 -9 0 -22 -8 -30 -17 -8 -10 -12 -12 -8 -5 11 22 -13 13 -48 -18 -19 -16 -45 -49 -58 -74 -13 -25 -31 -47 -41 -49 -13 -4 -18 -15 -18 -39 0 -19 -7 -43 -15 -54 -10 -13 -14 -45 -15 -105 0 -60 -6 -103 -21 -145 -14 -42 -19 -76 -16 -117 l3 -59 -18 35 c-10 20 -22 38 -28 42 -5 3 -7 19 -3 35 3 19 1 30 -6 30 -7 0 -12 24 -13 63 -1 60 -1 61 -7 17 l-7 -45 -8 47 c-14 83 -55 96 -105 32 -11 -14 -25 -23 -30 -20 -5 4 -12 -3 -16 -14 -7 -21 -30 -27 -40 -9 -5 6 -12 4 -22 -8 -13 -17 -14 -16 -8 10 4 21 3 27 -6 21 -9 -5 -10 -2 -6 9 12 31 -10 18 -52 -30 -23 -27 -39 -40 -35 -30 10 28 -5 19 -26 -15 -11 -18 -20 -43 -20 -55 0 -29 -3 -29 -56 7 -42 30 -44 33 -44 80 0 48 -1 49 -44 69 -74 32 -82 81 -18 115 l27 15 -26 1 c-15 0 -32 -7 -39 -15 -7 -8 -19 -15 -27 -15 -11 0 -12 -8 -7 -35 5 -30 4 -34 -10 -29 -27 11 -20 59 14 87 36 31 24 43 -24 23 -29 -12 -36 -22 -50 -69 -20 -69 -20 -67 4 -67 38 0 99 -41 130 -88 16 -25 30 -49 30 -53 0 -3 13 -12 30 -19 40 -17 57 -37 42 -52 -9 -9 -15 -7 -25 6 -13 18 -15 17 -35 -9 -12 -15 -22 -32 -22 -38 0 -6 -2 -8 -5 -5 -3 3 -1 18 5 34 7 18 7 25 1 19 -5 -5 -15 -30 -22 -55 -11 -42 -10 -52 14 -112 35 -87 34 -104 -3 -45 -28 44 -56 65 -43 32 4 -11 -4 -19 -26 -28 -38 -14 -39 -19 -3 -35 53 -23 73 -64 79 -161 4 -59 2 -94 -6 -110 -19 -35 -26 -16 -26 72 0 55 -4 82 -12 84 -7 3 -13 11 -13 18 0 7 -12 28 -27 45 -19 23 -32 30 -47 26 -13 -3 -29 3 -46 18 -14 13 -38 30 -54 37 -18 9 -33 25 -37 42 -9 34 -52 92 -82 111 -31 20 -71 31 -63 18 4 -7 -4 -10 -20 -9 -18 1 -32 -6 -47 -25 -21 -29 -18 -49 6 -30 13 11 96 10 116 -2 6 -4 11 -12 11 -18 0 -6 -8 -4 -18 5 -33 30 -35 18 -4 -17 17 -19 33 -44 37 -55 3 -12 11 -19 16 -16 5 3 6 -1 3 -9 -7 -18 31 -83 63 -109 13 -10 30 -25 37 -33 8 -8 23 -14 33 -14 24 0 60 -26 51 -36 -4 -4 -3 -13 4 -21 6 -8 13 -51 15 -96 4 -75 3 -80 -11 -63 -9 11 -16 23 -16 27 0 4 -7 10 -16 13 -8 3 -12 2 -9 -4 3 -6 2 -10 -4 -10 -5 0 -13 5 -16 10 -9 14 -45 12 -45 -2 0 -9 -3 -9 -12 0 -14 14 -58 16 -58 2 0 -5 -15 -2 -32 8 -64 35 -107 43 -147 26 -41 -17 -171 -24 -171 -9 0 6 -4 4 -9 -4 -17 -27 34 -171 69 -193 12 -8 16 -16 10 -23 -4 -5 -10 -30 -12 -55 -3 -45 -3 -45 31 -48 35 -4 161 26 161 38 0 4 19 7 43 7 41 1 41 1 9 -7 -18 -4 -35 -10 -39 -13 -8 -9 17 -78 42 -118 22 -34 65 -59 65 -38 0 5 7 9 16 9 8 0 12 -5 9 -10 -4 -6 13 -10 45 -10 32 0 49 4 45 10 -4 6 8 10 30 10 44 0 94 20 119 48 14 17 17 31 13 62 -3 23 -1 38 4 34 5 -3 9 10 9 28 0 30 7 38 69 81 38 26 73 47 78 47 5 0 9 9 9 20 0 12 -12 25 -33 35 -30 14 -35 14 -59 -2 l-27 -18 6 34 c11 52 56 147 84 172 16 16 22 18 18 8 -7 -20 20 -29 85 -29 34 0 70 12 148 50 100 49 105 51 180 48 57 -2 82 1 97 12 34 26 96 93 123 133 24 36 27 38 66 31 63 -10 158 -43 193 -67 83 -56 71 -141 -40 -284 -79 -102 -90 -126 -85 -190 3 -38 11 -60 28 -78 35 -37 43 -30 14 12 -13 20 -27 47 -30 60 -8 31 3 73 19 73 7 0 26 13 42 30 16 16 34 30 41 30 7 0 28 13 46 30 18 17 26 30 18 30 -9 0 -7 7 7 23 15 15 20 30 16 49 -4 23 -1 28 21 34 14 3 31 13 38 22 10 12 10 14 1 8 -7 -4 -13 -3 -13 3 0 5 4 12 9 16 11 6 12 16 12 101 0 69 -14 115 -33 112 -8 -2 -13 6 -12 19 0 19 -2 20 -14 10 -12 -10 -14 -7 -8 18 3 17 2 37 -4 45 -7 10 -10 11 -10 2 0 -7 -12 2 -28 19 -26 29 -115 69 -153 69 -23 0 -77 64 -84 98 -11 55 -38 126 -58 154 l-21 28 36 38 c50 52 61 80 83 214 4 24 21 55 45 84 34 38 40 52 40 91 0 27 7 55 19 71 10 15 26 50 36 77 24 67 53 95 104 102 42 6 71 25 30 20 -15 -1 -27 6 -34 20 -8 15 -15 19 -26 12z m-1009 -1442 c0 -7 -7 -22 -15 -33 -13 -17 -13 -16 -3 14 13 34 18 40 18 19z m-484 -164 c9 -36 1 -35 -18 3 -14 27 -14 32 -2 27 8 -3 17 -16 20 -30z m341 -55 c-2 -13 -4 -3 -4 22 0 25 2 35 4 23 2 -13 2 -33 0 -45z m-52 2 c10 -11 15 -20 12 -20 -4 0 -16 9 -27 20 -11 11 -16 20 -12 20 5 0 17 -9 27 -20z m-28 -12 c13 -12 23 -27 23 -35 0 -7 6 -13 13 -14 6 0 -1 -5 -17 -10 -17 -4 -32 -6 -35 -4 -2 3 1 5 8 5 8 0 5 10 -8 26 -21 26 -28 54 -14 54 4 0 17 -10 30 -22z m-27 -70 c0 -4 -9 -8 -21 -8 -15 0 -19 5 -15 16 3 8 2 13 -2 11 -4 -3 -17 11 -29 29 l-22 35 44 -38 c25 -20 45 -41 45 -45z m-98 48 c10 -7 24 -26 32 -41 21 -40 5 -58 -43 -51 -26 4 -31 3 -16 -4 15 -7 9 -9 -28 -9 -42 -1 -49 2 -57 24 -25 66 56 124 112 81z m-137 -36 c-3 -6 -10 -10 -16 -10 -10 0 -12 33 -2 44 9 9 26 -22 18 -34z m370 20 c-11 -5 -27 -9 -35 -9 -9 0 -8 4 5 9 11 5 27 9 35 9 9 0 8 -4 -5 -9z m-437 -46 c14 -10 22 -26 22 -44 0 -27 -5 -31 -52 -45 -30 -9 -56 -11 -61 -6 -13 13 -4 66 11 63 8 -1 11 2 7 8 -3 5 -1 10 5 10 6 0 9 4 6 9 -6 9 8 19 29 20 6 1 21 -6 33 -15z m407 -3 c3 -5 0 -13 -6 -17 -8 -5 -9 -3 -4 6 6 10 4 12 -9 7 -10 -4 -20 -7 -22 -7 -2 0 -4 -7 -4 -15 0 -8 -4 -15 -10 -15 -16 0 -7 24 15 37 24 15 32 16 40 4z m-121 -64 c-22 -13 -28 -15 -69 -22 -29 -5 -29 -5 -5 5 19 9 21 13 11 20 -10 6 -1 11 30 17 47 10 65 -2 33 -20z m-78 -66 c-4 -6 -22 -10 -39 -10 -27 2 -28 2 -7 6 39 7 45 20 8 17 l-33 -3 30 8 c32 8 51 0 41 -18z"/>
<path d="M708 699 c13 -5 29 -22 35 -39 6 -16 15 -30 20 -30 9 0 -9 38 -31 63 -8 9 -22 17 -31 16 -10 0 -7 -4 7 -10z"/>
<path d="M596 2095 c-4 -10 -18 -14 -46 -13 -27 1 -47 -5 -62 -18 -13 -12 -18 -13 -13 -4 5 10 1 8 -13 -4 -12 -10 -19 -22 -17 -26 3 -4 -2 -11 -11 -14 -9 -4 -14 -13 -10 -21 7 -18 -3 -47 -14 -40 -9 5 -8 -13 1 -30 2 -5 4 -25 4 -42 0 -18 3 -33 7 -33 4 0 8 -11 8 -24 0 -31 61 -78 109 -83 20 -2 40 -8 45 -14 6 -5 25 -9 43 -9 24 0 37 7 49 25 9 14 20 23 24 20 4 -3 13 2 20 10 7 8 16 12 21 9 5 -3 9 0 9 5 0 22 2 26 17 34 10 6 13 17 9 35 -5 20 -4 23 4 12 7 -12 10 -7 11 20 2 56 -1 74 -17 86 -8 6 -14 18 -14 27 0 18 -68 77 -90 77 -8 0 -24 7 -34 15 -25 19 -32 19 -40 0z"/>
<path d="M520 1252 c-24 -11 -22 -50 5 -118 14 -34 25 -73 25 -86 0 -30 35 -35 52 -8 9 14 16 16 25 8 15 -12 18 -58 3 -58 -5 0 -7 -7 -4 -15 4 -8 1 -15 -5 -15 -17 0 -13 -37 5 -44 25 -10 66 -7 59 4 -3 6 -2 10 2 10 8 0 9 27 5 90 -2 18 -5 21 -11 11 -5 -8 -11 -9 -15 -3 -4 6 1 15 10 20 12 6 15 16 10 28 -6 16 -9 16 -17 4 -7 -11 -8 -7 -3 13 7 31 -9 37 -25 10 -6 -10 -11 -14 -11 -9 0 5 8 18 18 29 12 15 14 21 5 24 -7 3 -13 11 -13 19 0 8 -4 14 -10 14 -5 0 -10 7 -10 15 0 8 -7 15 -16 15 -8 0 -13 4 -9 9 6 10 -33 41 -50 40 -5 0 -17 -3 -25 -7z m35 -42 c11 -5 14 -9 7 -9 -7 -1 -10 -5 -7 -11 3 -5 1 -10 -4 -10 -6 0 -11 6 -11 14 0 8 -6 17 -12 19 -7 3 -8 5 -3 6 6 0 19 -4 30 -9z m21 -83 c-2 -7 -5 -4 -5 6 -1 9 -6 17 -12 17 -5 0 -7 5 -3 11 9 15 28 -16 20 -34z"/>
<path d="M325 924 c-14 -14 -15 -19 -4 -23 7 -2 20 -10 27 -18 7 -7 28 -13 45 -13 47 1 132 25 118 34 -6 4 -9 11 -7 15 6 10 -2 11 -90 17 -59 5 -74 3 -89 -12z"/>
</g>
<g id="layer104" fill="#600f22" stroke="none">
<path d="M2089 2399 c-8 -5 -28 -9 -45 -9 -17 0 -37 -7 -44 -15 -7 -8 -27 -15 -44 -15 l-31 -1 28 -15 c15 -8 33 -12 39 -8 7 5 8 3 3 -5 -5 -8 -18 -11 -37 -7 -18 3 -27 2 -23 -4 3 -6 14 -10 23 -10 14 0 14 -2 3 -9 -8 -5 -21 -6 -30 -3 -14 5 -14 4 -2 -12 20 -25 21 -56 2 -56 -14 -1 -14 -2 1 -13 15 -12 15 -14 -3 -26 -22 -13 -21 -36 2 -36 17 0 23 -27 14 -71 -7 -39 -59 -104 -82 -104 -9 0 -22 -8 -30 -17 -8 -10 -12 -12 -8 -5 11 22 -13 13 -48 -18 -19 -16 -45 -49 -58 -74 -13 -25 -31 -47 -41 -49 -13 -4 -18 -15 -18 -39 0 -19 -7 -43 -15 -54 -10 -13 -14 -45 -15 -105 0 -60 -6 -103 -21 -145 -14 -42 -19 -76 -16 -117 l3 -59 -18 35 c-10 20 -22 38 -28 42 -5 3 -7 19 -3 35 3 19 1 30 -6 30 -7 0 -12 24 -13 63 -1 60 -1 61 -7 17 l-7 -45 -8 47 c-14 83 -55 96 -105 32 -11 -14 -25 -23 -30 -20 -5 4 -12 -3 -16 -14 -7 -21 -30 -27 -40 -9 -5 6 -12 4 -22 -8 -13 -17 -14 -16 -8 10 4 21 3 27 -6 21 -9 -5 -10 -2 -6 9 12 31 -10 18 -52 -30 -23 -27 -39 -40 -35 -30 10 28 -5 19 -26 -15 -11 -18 -20 -43 -20 -55 0 -29 -3 -29 -56 7 -42 30 -44 33 -44 80 0 48 -1 49 -44 69 -74 32 -82 81 -18 115 l27 15 -26 1 c-15 0 -32 -7 -39 -15 -7 -8 -19 -15 -27 -15 -11 0 -12 -8 -7 -35 5 -30 4 -34 -10 -29 -27 11 -20 59 14 87 36 31 24 43 -24 23 -29 -12 -36 -22 -50 -69 -20 -69 -20 -67 4 -67 38 0 99 -41 130 -88 16 -25 30 -49 30 -53 0 -3 13 -12 30 -19 40 -17 57 -37 42 -52 -9 -9 -15 -7 -25 6 -13 18 -15 17 -35 -9 -12 -15 -22 -32 -22 -38 0 -6 -2 -8 -5 -5 -3 3 -1 18 5 34 7 18 7 25 1 19 -5 -5 -15 -30 -22 -55 -11 -42 -10 -52 14 -112 35 -87 34 -104 -3 -45 -28 44 -56 65 -43 32 4 -11 -4 -19 -26 -28 -38 -14 -39 -19 -3 -35 53 -23 73 -64 79 -161 4 -59 2 -94 -6 -110 -19 -35 -26 -16 -26 72 0 55 -4 82 -12 84 -7 3 -13 11 -13 18 0 7 -12 28 -27 45 -19 23 -32 30 -47 26 -13 -3 -29 3 -46 18 -14 13 -38 30 -54 37 -18 9 -33 25 -37 42 -9 34 -52 92 -82 111 -31 20 -71 31 -63 18 4 -7 -4 -10 -20 -9 -18 1 -32 -6 -47 -25 -21 -29 -18 -49 6 -30 13 11 96 10 116 -2 6 -4 11 -12 11 -18 0 -6 -8 -4 -18 5 -33 30 -35 18 -4 -17 17 -19 33 -44 37 -55 3 -12 11 -19 16 -16 5 3 6 -1 3 -9 -7 -18 31 -83 63 -109 13 -10 30 -25 37 -33 8 -8 23 -14 33 -14 24 0 60 -26 51 -36 -4 -4 -3 -13 4 -21 6 -8 13 -51 15 -96 4 -75 3 -80 -11 -63 -9 11 -16 23 -16 27 0 4 -7 10 -16 13 -8 3 -12 2 -9 -4 3 -6 2 -10 -4 -10 -5 0 -13 5 -16 10 -9 14 -45 12 -45 -2 0 -9 -3 -9 -12 0 -14 14 -58 16 -58 2 0 -5 -15 -2 -32 8 -64 35 -107 43 -147 26 -41 -17 -171 -24 -171 -9 0 6 -4 4 -9 -4 -17 -27 34 -171 69 -193 12 -8 16 -16 10 -23 -4 -5 -10 -30 -12 -55 -3 -45 -3 -45 31 -48 35 -4 161 26 161 38 0 4 19 7 43 7 25 0 31 -2 15 -4 -32 -5 -34 -16 -16 -77 21 -72 43 -87 130 -89 50 -1 80 2 91 11 9 8 26 12 39 11 53 -7 87 42 91 132 3 42 8 64 18 68 7 2 19 9 25 15 6 6 37 29 68 51 l58 39 -22 18 c-31 25 -43 23 -86 -19 -21 -21 -31 -29 -22 -18 8 11 18 37 21 57 8 53 54 152 84 179 16 16 22 18 18 8 -7 -20 20 -29 85 -29 34 0 70 12 148 50 100 49 105 51 180 48 57 -2 82 1 97 12 34 26 96 93 123 133 24 36 27 38 66 31 63 -10 158 -43 193 -67 83 -56 71 -141 -40 -284 -79 -102 -90 -126 -85 -190 3 -38 11 -60 28 -78 35 -37 43 -30 14 12 -13 20 -27 47 -30 60 -8 31 3 73 19 73 7 0 26 13 42 30 16 16 34 30 41 30 7 0 28 13 46 30 18 17 26 30 18 30 -9 0 -7 7 7 23 15 15 20 30 16 49 -4 23 -1 28 21 34 14 3 31 13 38 22 10 12 10 14 1 8 -7 -4 -13 -3 -13 3 0 5 4 12 9 16 11 6 12 16 12 101 0 69 -14 115 -33 112 -8 -2 -13 6 -12 19 0 19 -2 20 -14 10 -12 -10 -14 -7 -8 18 3 17 2 37 -4 45 -7 10 -10 11 -10 2 0 -7 -12 2 -28 19 -26 29 -115 69 -153 69 -23 0 -77 64 -84 98 -11 55 -38 126 -58 154 l-21 28 36 38 c50 52 61 80 83 214 4 24 21 55 45 84 34 38 40 52 40 91 0 27 7 55 19 71 10 15 26 50 36 77 24 67 53 95 104 102 42 6 71 25 30 20 -15 -1 -27 6 -34 20 -8 15 -15 19 -26 12z m-1009 -1442 c0 -7 -7 -22 -15 -33 -13 -17 -13 -16 -3 14 13 34 18 40 18 19z m-484 -164 c9 -36 1 -35 -18 3 -14 27 -14 32 -2 27 8 -3 17 -16 20 -30z m341 -55 c-2 -13 -4 -3 -4 22 0 25 2 35 4 23 2 -13 2 -33 0 -45z m-52 2 c10 -11 15 -20 12 -20 -4 0 -16 9 -27 20 -11 11 -16 20 -12 20 5 0 17 -9 27 -20z m-28 -12 c13 -12 23 -27 23 -35 0 -7 6 -13 13 -14 6 0 -1 -5 -17 -10 -17 -4 -32 -6 -35 -4 -2 3 1 5 8 5 8 0 5 10 -8 26 -21 26 -28 54 -14 54 4 0 17 -10 30 -22z m-27 -70 c0 -4 -9 -8 -20 -8 -11 0 -20 4 -20 9 0 4 -11 25 -25 45 l-25 37 45 -38 c25 -20 45 -41 45 -45z m-87 37 c31 -32 39 -61 21 -76 -7 -6 -40 -13 -73 -16 -58 -6 -61 -5 -70 21 -29 76 63 129 122 71z m-148 -25 c-3 -6 -10 -10 -16 -10 -10 0 -12 33 -2 44 9 9 26 -22 18 -34z m370 20 c-11 -5 -27 -9 -35 -9 -9 0 -8 4 5 9 11 5 27 9 35 9 9 0 8 -4 -5 -9z m-437 -46 c14 -10 22 -26 22 -44 0 -26 -5 -31 -51 -44 -28 -9 -55 -13 -60 -10 -18 11 -9 65 16 89 28 29 42 31 73 9z m407 -3 c3 -5 0 -13 -6 -17 -8 -5 -9 -3 -4 6 6 10 4 12 -9 7 -10 -4 -20 -7 -22 -7 -2 0 -4 -6 -4 -14 0 -8 -5 -18 -11 -21 -6 -4 -9 0 -7 11 2 11 12 24 23 31 24 15 32 16 40 4z m-105 -50 c0 -14 -12 -22 -44 -30 -55 -14 -80 -13 -46 1 19 8 21 12 10 16 -10 4 -1 10 25 18 54 17 55 17 55 -5z m-94 -80 c-4 -6 -22 -10 -39 -10 -27 2 -28 2 -7 6 39 7 45 20 8 17 l-33 -3 30 8 c32 8 51 0 41 -18z"/>
<path d="M575 2080 c-11 -4 -30 -6 -42 -3 -15 3 -32 -6 -63 -37 -38 -38 -48 -65 -22 -65 5 0 14 -4 19 -9 4 -5 -4 -6 -19 -2 -25 6 -28 4 -28 -19 0 -22 3 -25 21 -20 16 5 20 3 17 -6 -3 -8 -12 -13 -22 -11 -19 3 -20 -9 -6 -58 14 -48 55 -92 88 -94 15 -1 33 -5 41 -10 19 -12 93 -12 112 0 11 6 7 10 -16 15 -28 6 -27 7 11 8 47 1 79 29 98 86 32 91 -26 215 -100 215 -13 0 -24 5 -24 10 0 12 -37 12 -65 0z m58 -157 c-29 -2 -77 -2 -105 0 -29 2 -6 3 52 3 58 0 81 -1 53 -3z m-170 -59 c-6 -17 -23 -9 -23 11 0 8 6 12 14 9 8 -3 12 -12 9 -20z m37 -71 c22 -23 27 -32 14 -25 -18 9 -61 62 -51 62 1 0 18 -16 37 -37z"/>
<path d="M520 1252 c-24 -11 -22 -50 5 -118 14 -34 25 -75 26 -91 0 -27 1 -27 9 -5 12 27 24 29 15 2 -8 -24 7 -26 26 -4 10 13 10 17 0 24 -11 6 -11 15 -1 44 11 34 30 58 30 37 0 -5 -4 -13 -10 -16 -14 -9 -12 -38 4 -61 19 -25 31 -12 15 14 -11 18 -10 24 6 43 14 16 16 23 8 26 -7 3 -13 11 -13 19 0 8 -4 14 -10 14 -5 0 -10 7 -10 15 0 8 -7 15 -16 15 -8 0 -13 4 -9 9 6 10 -33 41 -50 40 -5 0 -17 -3 -25 -7z m37 -28 c-10 -10 22 -36 34 -28 8 5 9 3 4 -6 -4 -7 -3 -15 3 -19 8 -5 8 -17 0 -44 -13 -44 -22 -47 -25 -10 0 15 -6 29 -12 31 -5 2 -7 10 -4 18 3 8 0 14 -6 14 -6 0 -11 7 -11 15 0 8 -6 15 -12 16 -7 0 -4 4 7 9 25 11 30 12 22 4z"/>
</g>
<g id="layer105" fill="#5e2a4f" stroke="none">
<path d="M1719 2422 c-36 -43 1 -88 49 -62 38 22 38 42 -2 62 -31 15 -34 15 -47 0z"/>
<path d="M2089 2399 c-8 -5 -28 -9 -45 -9 -17 0 -37 -7 -44 -15 -7 -8 -27 -15 -44 -15 l-31 -1 28 -15 c15 -8 33 -12 39 -8 7 5 8 3 3 -5 -5 -8 -18 -11 -37 -7 -18 3 -27 2 -23 -4 3 -6 14 -10 23 -10 14 0 14 -2 3 -9 -8 -5 -21 -6 -30 -3 -14 5 -14 4 -2 -12 20 -25 21 -56 2 -56 -14 -1 -14 -2 1 -13 15 -12 15 -14 -3 -26 -22 -13 -21 -36 2 -36 17 0 23 -27 14 -71 -7 -39 -59 -104 -82 -104 -9 0 -22 -8 -30 -17 -8 -10 -12 -12 -8 -5 11 22 -13 13 -48 -18 -19 -16 -45 -49 -58 -74 -13 -25 -31 -47 -41 -49 -13 -4 -18 -15 -18 -39 0 -19 -7 -43 -15 -54 -10 -13 -14 -45 -15 -105 0 -60 -6 -103 -21 -145 -14 -42 -19 -76 -16 -117 l3 -59 -18 35 c-10 20 -22 38 -28 42 -5 3 -7 19 -3 35 3 19 1 30 -6 30 -7 0 -12 24 -13 63 -1 60 -1 61 -7 17 l-7 -45 -8 47 c-14 83 -55 96 -105 32 -11 -14 -25 -23 -30 -20 -5 4 -12 -3 -16 -14 -7 -21 -30 -27 -40 -9 -5 6 -12 4 -22 -8 -13 -17 -14 -16 -8 10 4 21 3 27 -6 21 -9 -5 -10 -2 -6 9 12 31 -10 18 -52 -30 -23 -27 -39 -40 -35 -30 10 28 -5 19 -26 -15 -11 -18 -20 -43 -20 -55 0 -29 -3 -29 -56 7 -42 30 -44 33 -44 80 0 48 -1 49 -44 69 -74 32 -82 81 -18 115 l27 15 -26 1 c-15 0 -32 -7 -39 -15 -7 -8 -19 -15 -27 -15 -11 0 -12 -8 -7 -35 5 -30 4 -34 -10 -29 -27 11 -20 59 14 87 36 31 24 43 -24 23 -29 -12 -36 -22 -50 -69 -20 -69 -20 -67 4 -67 38 0 99 -41 130 -88 16 -25 30 -49 30 -53 0 -3 13 -12 30 -19 40 -17 57 -37 42 -52 -9 -9 -15 -7 -25 6 -13 18 -15 17 -35 -9 -12 -15 -22 -32 -22 -38 0 -6 -2 -8 -5 -5 -3 3 -1 18 5 34 7 18 7 25 1 19 -5 -5 -15 -30 -22 -55 -11 -42 -10 -52 14 -112 35 -87 34 -104 -3 -45 -28 44 -56 65 -43 32 4 -11 -4 -19 -26 -28 -38 -14 -39 -19 -3 -35 53 -23 73 -64 79 -161 4 -59 2 -94 -6 -110 -19 -35 -26 -16 -26 72 0 55 -4 82 -12 84 -7 3 -13 11 -13 18 0 7 -12 28 -27 45 -19 23 -32 30 -47 26 -13 -3 -29 3 -46 18 -14 13 -38 30 -54 37 -18 9 -33 25 -37 42 -9 34 -52 92 -82 111 -31 20 -71 31 -63 18 4 -7 -4 -10 -20 -9 -18 1 -32 -6 -47 -25 -21 -29 -18 -49 6 -30 13 11 96 10 116 -2 6 -4 11 -12 11 -18 0 -6 -8 -4 -18 5 -33 30 -35 18 -4 -17 17 -19 33 -44 37 -55 3 -12 11 -19 16 -16 5 3 6 -1 3 -9 -7 -18 31 -83 63 -109 13 -10 30 -25 37 -33 8 -8 23 -14 33 -14 24 0 60 -26 51 -36 -4 -4 -3 -13 4 -21 6 -8 13 -51 15 -96 4 -75 3 -80 -11 -63 -9 11 -16 23 -16 27 0 4 -7 10 -16 13 -8 3 -12 2 -9 -4 3 -6 2 -10 -4 -10 -5 0 -13 5 -16 10 -9 14 -45 12 -45 -2 0 -9 -3 -9 -12 0 -14 14 -58 16 -58 2 0 -5 -15 -2 -32 8 -64 35 -107 43 -147 26 -41 -17 -171 -24 -171 -9 0 6 -4 4 -9 -4 -17 -27 34 -171 69 -193 12 -8 16 -16 10 -23 -4 -5 -10 -30 -12 -55 -3 -45 -3 -45 31 -48 35 -4 161 26 161 38 0 4 19 7 43 7 26 0 32 -2 14 -4 -26 -4 -28 -7 -22 -36 9 -42 33 -93 51 -108 21 -17 137 -24 164 -9 13 7 37 14 54 17 59 9 84 40 57 69 -6 5 -4 17 6 29 15 19 15 19 9 -7 -4 -18 -2 -28 5 -28 6 0 9 22 8 62 -3 58 -1 63 25 79 15 9 26 19 24 21 -2 3 3 12 10 21 8 9 9 17 3 21 -5 4 -42 -18 -82 -49 -76 -59 -92 -65 -87 -37 4 23 38 43 62 35 12 -3 16 -1 12 6 -4 6 4 13 17 17 36 9 74 54 80 96 8 52 54 152 84 179 16 16 22 18 18 8 -7 -20 20 -29 85 -29 34 0 70 12 148 50 100 49 105 51 180 48 57 -2 82 1 97 12 34 26 96 93 123 133 24 36 27 38 66 31 63 -10 158 -43 193 -67 83 -56 71 -141 -40 -284 -79 -102 -90 -126 -85 -190 3 -38 11 -60 28 -78 35 -37 43 -30 14 12 -13 20 -27 47 -30 60 -8 31 3 73 19 73 7 0 26 13 42 30 16 16 34 30 41 30 7 0 28 13 46 30 18 17 26 30 18 30 -9 0 -7 7 7 23 15 15 20 30 16 49 -4 23 -1 28 21 34 14 3 31 13 38 22 10 12 10 14 1 8 -7 -4 -13 -3 -13 3 0 5 4 12 9 16 11 6 12 16 12 101 0 69 -14 115 -33 112 -8 -2 -13 6 -12 19 0 19 -2 20 -14 10 -12 -10 -14 -7 -8 18 3 17 2 37 -4 45 -7 10 -10 11 -10 2 0 -7 -12 2 -28 19 -26 29 -115 69 -153 69 -23 0 -77 64 -84 98 -11 55 -38 126 -58 154 l-21 28 36 38 c50 52 61 80 83 214 4 24 21 55 45 84 34 38 40 52 40 91 0 27 7 55 19 71 10 15 26 50 36 77 24 67 53 95 104 102 42 6 71 25 30 20 -15 -1 -27 6 -34 20 -8 15 -15 19 -26 12z m-1009 -1442 c0 -7 -7 -22 -15 -33 -13 -17 -13 -16 -3 14 13 34 18 40 18 19z m-484 -164 c9 -36 1 -35 -18 3 -14 27 -14 32 -2 27 8 -3 17 -16 20 -30z m341 -55 c-2 -13 -4 -3 -4 22 0 25 2 35 4 23 2 -13 2 -33 0 -45z m-52 2 c10 -11 15 -20 12 -20 -4 0 -16 9 -27 20 -11 11 -16 20 -12 20 5 0 17 -9 27 -20z m-28 -12 c13 -12 23 -27 23 -35 0 -7 6 -13 13 -14 6 0 -1 -5 -17 -10 -17 -4 -32 -6 -35 -4 -2 3 1 5 8 5 8 0 5 10 -8 26 -21 26 -28 54 -14 54 4 0 17 -10 30 -22z m-27 -70 c0 -4 -9 -8 -20 -8 -11 0 -20 4 -20 9 0 4 -11 25 -25 45 l-25 37 45 -38 c25 -20 45 -41 45 -45z m-87 37 c31 -32 39 -61 21 -76 -7 -6 -40 -13 -73 -16 -58 -6 -61 -5 -70 21 -29 76 63 129 122 71z m-148 -25 c-3 -6 -10 -10 -16 -10 -10 0 -12 33 -2 44 9 9 26 -22 18 -34z m370 20 c-11 -5 -27 -9 -35 -9 -9 0 -8 4 5 9 11 5 27 9 35 9 9 0 8 -4 -5 -9z m-437 -46 c14 -10 22 -26 22 -44 0 -26 -5 -31 -51 -44 -28 -9 -55 -13 -60 -10 -18 11 -9 65 16 89 28 29 42 31 73 9z m302 -49 c0 -9 6 -12 17 -8 10 4 14 2 10 -4 -4 -5 -32 -18 -64 -28 -32 -10 -62 -21 -67 -26 -15 -13 -49 -10 -70 6 -19 14 -18 15 16 15 46 0 100 20 78 28 -10 4 -1 10 25 18 53 16 55 16 55 -1z m-108 -94 c-25 -11 -35 -12 -44 -3 -9 9 -6 12 14 12 15 0 30 5 33 10 4 6 11 7 18 3 6 -4 -2 -13 -21 -22z"/>
<path d="M563 2074 c-35 -18 -79 -57 -94 -86 -20 -37 22 -18 70 32 27 28 58 50 69 50 12 0 24 5 27 10 10 15 -36 11 -72 -6z"/>
<path d="M473 2035 c-25 -24 -42 -48 -39 -54 4 -5 2 -12 -4 -16 -13 -8 -13 -45 0 -45 6 0 10 9 10 20 0 32 25 74 65 109 20 17 30 31 24 31 -6 0 -32 -20 -56 -45z"/>
<path d="M598 2053 c-21 -8 -38 -19 -38 -23 0 -21 -60 -70 -85 -70 -19 0 -26 -4 -23 -16 3 -14 19 -16 118 -16 63 1 133 -2 155 -7 24 -4 -12 -6 -91 -3 -72 3 -143 2 -158 -2 -34 -8 -35 -36 -1 -36 17 0 40 -15 69 -45 48 -49 80 -65 131 -65 46 0 86 51 93 120 6 67 -2 94 -44 140 -40 45 -65 49 -126 23z"/>
<path d="M420 1890 c0 -11 5 -20 10 -20 6 0 10 9 10 20 0 11 -4 20 -10 20 -5 0 -10 -9 -10 -20z"/>
<path d="M460 1855 c0 -8 17 -34 38 -57 22 -24 29 -37 17 -31 -27 15 -51 43 -59 71 -7 21 -26 31 -26 14 0 -12 58 -92 68 -93 95 -17 154 -21 164 -11 7 7 -4 12 -34 17 -34 6 -52 17 -89 56 -45 48 -79 63 -79 34z"/>
<path d="M520 1252 c-24 -11 -22 -50 5 -118 14 -34 25 -75 26 -91 0 -27 1 -27 9 -5 12 27 24 29 15 2 -8 -24 7 -26 26 -3 11 13 11 17 2 20 -7 3 -13 11 -13 19 0 8 -5 14 -10 14 -7 0 -7 7 1 21 8 15 8 19 0 15 -6 -4 -11 0 -11 8 0 9 -4 16 -10 16 -5 0 -7 7 -4 15 4 8 1 15 -5 15 -6 0 -11 6 -11 14 0 8 -6 16 -12 18 -7 3 -2 7 11 11 13 3 20 3 17 0 -8 -9 23 -35 34 -28 6 3 7 -1 4 -9 -3 -9 -1 -16 5 -16 6 0 11 -7 11 -16 0 -8 5 -12 11 -8 8 4 9 0 4 -15 -8 -25 7 -28 26 -4 11 13 11 17 2 20 -7 3 -13 11 -13 19 0 8 -4 14 -10 14 -5 0 -10 7 -10 15 0 8 -7 15 -16 15 -8 0 -13 4 -9 9 6 10 -33 41 -50 40 -5 0 -17 -3 -25 -7z"/>
<path d="M667 1073 c-13 -13 -7 -32 8 -27 8 4 15 12 15 20 0 15 -12 19 -23 7z"/>
<path d="M1067 728 c-31 -22 -27 -44 5 -27 15 8 19 8 14 0 -11 -17 6 -13 33 8 13 10 20 20 15 23 -27 15 -43 14 -67 -4z"/>
<path d="M1050 675 c-7 -8 -8 -15 -2 -15 5 0 15 7 22 15 7 8 8 15 2 15 -5 0 -15 -7 -22 -15z"/>
<path d="M900 630 c-8 -5 -11 -12 -7 -16 4 -4 15 0 24 9 18 18 8 23 -17 7z"/>
</g>
<g id="layer106" fill="#b31b31" stroke="none">
<path d="M2089 2399 c-8 -5 -28 -9 -45 -9 -17 0 -37 -7 -44 -15 -7 -8 -27 -15 -44 -15 l-31 -1 28 -15 c15 -8 33 -12 39 -8 7 5 8 3 3 -5 -5 -8 -18 -11 -37 -7 -18 3 -27 2 -23 -4 3 -6 14 -10 23 -10 14 0 14 -2 3 -9 -8 -5 -21 -6 -30 -3 -14 5 -14 4 -2 -12 20 -25 21 -56 2 -56 -14 -1 -14 -2 1 -13 15 -12 15 -14 -3 -26 -22 -13 -21 -36 2 -36 17 0 23 -27 14 -71 -7 -39 -59 -104 -82 -104 -9 0 -22 -8 -30 -17 -8 -10 -12 -12 -8 -5 11 22 -13 13 -48 -18 -19 -16 -45 -49 -58 -74 -13 -25 -31 -47 -41 -49 -13 -4 -18 -15 -18 -39 0 -19 -7 -43 -15 -54 -10 -13 -14 -45 -15 -105 0 -60 -6 -103 -21 -145 -14 -42 -19 -76 -16 -117 l3 -59 -18 35 c-10 20 -22 38 -28 42 -5 3 -7 19 -3 35 3 19 1 30 -6 30 -7 0 -12 24 -13 63 -1 60 -1 61 -7 17 l-7 -45 -8 47 c-14 83 -55 96 -105 32 -11 -14 -25 -23 -30 -20 -5 4 -12 -3 -16 -14 -7 -21 -30 -27 -40 -9 -5 6 -12 4 -22 -8 -13 -17 -14 -16 -8 10 4 21 3 27 -6 21 -9 -5 -10 -2 -6 9 12 31 -10 18 -52 -30 -23 -27 -39 -40 -35 -30 10 28 -5 19 -26 -15 -11 -18 -20 -43 -20 -55 0 -29 -3 -29 -56 7 -42 30 -44 33 -44 80 0 48 -1 49 -44 69 -74 32 -82 81 -18 115 l27 15 -26 1 c-15 0 -32 -7 -39 -15 -7 -8 -19 -15 -27 -15 -11 0 -12 -8 -7 -35 5 -30 4 -34 -10 -29 -27 11 -20 59 14 87 36 31 24 43 -24 23 -29 -12 -36 -22 -50 -69 -20 -69 -20 -67 4 -67 38 0 99 -41 130 -88 16 -25 30 -49 30 -53 0 -3 13 -12 30 -19 40 -17 57 -37 42 -52 -9 -9 -15 -7 -25 6 -13 18 -15 17 -35 -9 -12 -15 -22 -32 -22 -38 0 -6 -2 -8 -5 -5 -3 3 -1 18 5 34 7 18 7 25 1 19 -5 -5 -15 -30 -22 -55 -11 -42 -10 -52 14 -112 35 -87 34 -104 -3 -45 -28 44 -56 65 -43 32 4 -11 -4 -19 -26 -28 -38 -14 -39 -19 -3 -35 53 -23 73 -64 79 -161 4 -59 2 -94 -6 -110 -19 -35 -26 -16 -26 72 0 55 -4 82 -12 84 -7 3 -13 11 -13 18 0 7 -12 28 -27 45 -19 23 -32 30 -47 26 -13 -3 -29 3 -46 18 -14 13 -38 30 -54 37 -18 9 -33 25 -37 42 -9 34 -52 92 -82 111 -31 20 -71 31 -63 18 4 -7 -4 -10 -20 -9 -18 1 -32 -6 -47 -25 -21 -29 -18 -49 6 -30 13 11 96 10 116 -2 6 -4 11 -12 11 -18 0 -6 -8 -4 -18 5 -33 30 -35 18 -4 -17 17 -19 33 -44 37 -55 3 -12 11 -19 16 -16 5 3 6 -1 3 -9 -7 -18 31 -83 63 -109 13 -10 30 -25 37 -33 8 -8 23 -14 33 -14 24 0 60 -26 51 -36 -4 -4 -3 -13 4 -21 6 -8 13 -51 15 -96 4 -75 3 -80 -11 -63 -9 11 -16 23 -16 27 0 4 -7 10 -16 13 -8 3 -12 2 -9 -4 3 -6 2 -10 -4 -10 -5 0 -13 5 -16 10 -9 14 -45 12 -45 -2 0 -9 -3 -9 -12 0 -14 14 -58 16 -58 2 0 -5 -15 -2 -32 8 -64 35 -107 43 -147 26 -41 -17 -171 -24 -171 -9 0 6 -4 4 -9 -4 -17 -27 34 -171 69 -193 12 -8 16 -16 10 -23 -4 -5 -10 -30 -12 -55 -3 -45 -3 -45 31 -48 38 -4 161 26 161 39 0 5 36 6 79 3 50 -3 81 -1 86 5 3 6 0 11 -7 12 -15 0 15 13 55 23 21 5 27 3 27 -10 0 -15 2 -15 22 -2 13 9 22 19 21 24 -3 14 40 34 61 27 11 -3 16 -1 12 5 -3 6 2 13 13 17 38 12 79 59 84 97 8 52 54 152 84 179 16 16 22 18 18 8 -7 -20 20 -29 85 -29 34 0 70 12 148 50 100 49 105 51 180 48 57 -2 82 1 97 12 34 26 96 93 123 133 24 36 27 38 66 31 63 -10 158 -43 193 -67 83 -56 71 -141 -40 -284 -79 -102 -90 -126 -85 -190 3 -38 11 -60 28 -78 35 -37 43 -30 14 12 -13 20 -27 47 -30 60 -8 31 3 73 19 73 7 0 26 13 42 30 16 16 34 30 41 30 7 0 28 13 46 30 18 17 26 30 18 30 -9 0 -7 7 7 23 15 15 20 30 16 49 -4 23 -1 28 21 34 14 3 31 13 38 22 10 12 10 14 1 8 -7 -4 -13 -3 -13 3 0 5 4 12 9 16 11 6 12 16 12 101 0 69 -14 115 -33 112 -8 -2 -13 6 -12 19 0 19 -2 20 -14 10 -12 -10 -14 -7 -8 18 3 17 2 37 -4 45 -7 10 -10 11 -10 2 0 -7 -12 2 -28 19 -26 29 -115 69 -153 69 -23 0 -77 64 -84 98 -11 55 -38 126 -58 154 l-21 28 36 38 c50 52 61 80 83 214 4 24 21 55 45 84 34 38 40 52 40 91 0 27 7 55 19 71 10 15 26 50 36 77 24 67 53 95 104 102 42 6 71 25 30 20 -15 -1 -27 6 -34 20 -8 15 -15 19 -26 12z m-1009 -1442 c0 -7 -7 -22 -15 -33 -13 -17 -13 -16 -3 14 13 34 18 40 18 19z m-484 -164 c9 -36 1 -35 -18 3 -14 27 -14 32 -2 27 8 -3 17 -16 20 -30z m341 -55 c-2 -13 -4 -3 -4 22 0 25 2 35 4 23 2 -13 2 -33 0 -45z m-52 2 c10 -11 15 -20 12 -20 -4 0 -16 9 -27 20 -11 11 -16 20 -12 20 5 0 17 -9 27 -20z m-28 -12 c13 -12 23 -27 23 -35 0 -7 6 -13 13 -14 6 0 -1 -5 -17 -10 -17 -4 -32 -6 -35 -4 -2 3 1 5 8 5 8 0 5 10 -8 26 -21 26 -28 54 -14 54 4 0 17 -10 30 -22z m-27 -70 c0 -4 -9 -8 -20 -8 -11 0 -20 4 -20 9 0 4 -11 25 -25 45 l-25 37 45 -38 c25 -20 45 -41 45 -45z m-86 36 c14 -15 26 -30 26 -35 0 -4 3 -14 6 -22 7 -18 -49 -37 -109 -37 -31 0 -39 4 -47 25 -29 76 65 128 124 69z m-149 -24 c-3 -6 -10 -10 -16 -10 -10 0 -12 33 -2 44 9 9 26 -22 18 -34z m370 20 c-11 -5 -27 -9 -35 -9 -9 0 -8 4 5 9 11 5 27 9 35 9 9 0 8 -4 -5 -9z m-432 -47 c15 -18 21 -36 18 -60 -1 -14 -98 -46 -112 -37 -18 11 -9 65 16 89 28 29 56 32 78 8z"/>
<path d="M585 2083 c-11 -3 -33 -14 -49 -26 -20 -14 -30 -16 -35 -8 -9 14 -65 -42 -59 -60 3 -8 12 0 23 19 11 18 23 32 27 32 12 0 9 -13 -7 -34 -20 -27 -19 -35 5 -29 10 3 31 20 45 39 14 19 43 43 63 54 35 18 30 23 -13 13z"/>
<path d="M600 2054 c-19 -8 -45 -30 -58 -50 -15 -22 -33 -37 -52 -41 -17 -3 -30 -11 -30 -18 0 -9 41 -14 153 -17 83 -3 154 -4 155 -2 12 9 -15 72 -45 105 -39 43 -64 48 -123 23z"/>
<path d="M420 1940 c0 -11 5 -20 10 -20 6 0 10 9 10 20 0 11 -4 20 -10 20 -5 0 -10 -9 -10 -20z"/>
<path d="M461 1907 c-13 -16 -5 -27 21 -27 10 0 40 -22 67 -49 52 -52 97 -69 145 -57 32 8 68 59 70 99 1 29 -2 32 -39 39 -73 13 -251 9 -264 -5z"/>
<path d="M420 1889 c0 -11 5 -17 10 -14 6 3 10 13 10 21 0 8 -4 14 -10 14 -5 0 -10 -9 -10 -21z"/>
<path d="M460 1856 c0 -9 5 -16 10 -16 6 0 10 -6 10 -13 0 -17 47 -60 83 -75 34 -15 94 -16 102 -2 4 6 -5 10 -20 10 -37 0 -78 23 -111 64 -33 39 -74 57 -74 32z"/>
<path d="M430 1852 c0 -16 60 -92 72 -92 6 0 0 12 -14 28 -14 15 -29 37 -33 50 -6 21 -25 31 -25 14z"/>
<path d="M1067 728 c-32 -23 -27 -43 6 -27 21 10 21 9 3 -5 -14 -12 -23 -13 -33 -5 -10 9 -25 1 -66 -34 -51 -44 -171 -107 -202 -107 -9 0 -20 -11 -25 -24 -15 -41 -90 -45 -90 -5 0 12 -7 19 -20 19 -17 0 -19 -3 -10 -19 5 -11 10 -28 10 -38 0 -10 10 -30 23 -46 19 -23 32 -28 88 -34 50 -4 73 -2 97 11 17 9 34 16 37 16 47 -2 69 14 78 55 3 17 4 24 1 17 -3 -6 -10 -10 -15 -6 -5 3 0 19 12 35 13 19 19 39 16 56 -4 20 1 29 24 42 16 9 29 21 29 28 0 6 5 15 12 19 7 4 8 3 4 -5 -4 -6 13 1 38 16 25 15 46 33 46 39 0 21 -36 22 -63 2z"/>
<path d="M900 630 c-8 -5 -12 -11 -9 -14 3 -3 14 1 25 9 21 16 8 20 -16 5z"/>
</g>
<g id="layer107" fill="#35416e" stroke="none">
<path d="M1926 2429 c-3 -18 -1 -38 5 -45 12 -15 54 -20 45 -5 -3 5 2 8 12 7 26 -2 21 37 -5 49 -13 5 -23 13 -23 17 0 5 -6 8 -14 8 -7 0 -16 -14 -20 -31z"/>
<path d="M1719 2422 c-36 -43 0 -89 49 -62 32 18 42 50 16 50 -10 0 -25 7 -34 15 -14 13 -18 12 -31 -3z"/>
<path d="M2089 2399 c-8 -5 -28 -9 -45 -9 -17 0 -37 -7 -44 -15 -7 -8 -27 -15 -44 -15 l-31 -1 28 -15 c15 -8 33 -12 39 -8 7 5 8 3 3 -5 -5 -8 -18 -11 -37 -7 -18 3 -27 2 -23 -4 3 -6 14 -10 23 -10 14 0 14 -2 3 -9 -8 -5 -21 -6 -30 -3 -14 5 -14 4 -2 -12 20 -25 21 -56 2 -56 -14 -1 -14 -2 1 -13 15 -12 15 -14 -3 -26 -22 -13 -21 -36 2 -36 17 0 23 -27 14 -71 -7 -39 -59 -104 -82 -104 -9 0 -22 -8 -30 -17 -8 -10 -12 -12 -8 -5 11 22 -13 13 -48 -18 -19 -16 -45 -49 -58 -74 -13 -25 -31 -47 -41 -49 -13 -4 -18 -15 -18 -39 0 -19 -7 -43 -15 -54 -10 -13 -14 -45 -15 -105 0 -60 -6 -103 -21 -145 -14 -42 -19 -76 -16 -117 l3 -59 -18 35 c-10 20 -22 38 -28 42 -5 3 -7 19 -3 35 3 19 1 30 -6 30 -7 0 -12 24 -13 63 -1 60 -1 61 -7 17 l-7 -45 -8 47 c-14 83 -55 96 -105 32 -11 -14 -25 -23 -30 -20 -5 4 -12 -3 -16 -14 -7 -21 -30 -27 -40 -9 -5 6 -12 4 -22 -8 -13 -17 -14 -16 -8 10 4 21 3 27 -6 21 -9 -5 -10 -2 -6 9 12 31 -10 18 -52 -30 -23 -27 -39 -40 -35 -30 10 28 -5 19 -26 -15 -11 -18 -20 -43 -20 -55 0 -29 -3 -29 -56 7 -42 30 -44 33 -44 80 0 48 -1 49 -44 69 -74 32 -82 81 -18 115 l27 15 -26 1 c-15 0 -32 -7 -39 -15 -7 -8 -19 -15 -27 -15 -11 0 -12 -8 -7 -35 5 -30 4 -34 -10 -29 -27 11 -20 59 14 87 36 31 24 43 -24 23 -29 -12 -36 -22 -50 -69 -20 -69 -20 -67 4 -67 38 0 99 -41 130 -88 16 -25 30 -49 30 -53 0 -3 13 -12 30 -19 40 -17 57 -37 42 -52 -9 -9 -15 -7 -25 6 -13 18 -15 17 -35 -9 -12 -15 -22 -32 -22 -38 0 -6 -2 -8 -5 -5 -3 3 -1 18 5 34 7 18 7 25 1 19 -5 -5 -15 -30 -22 -55 -11 -42 -10 -52 14 -112 35 -87 34 -104 -3 -45 -28 44 -56 65 -43 32 4 -11 -4 -19 -26 -28 -38 -14 -39 -19 -3 -35 53 -23 73 -64 79 -161 4 -59 2 -94 -6 -110 -19 -35 -26 -16 -26 72 0 55 -4 82 -12 84 -7 3 -13 11 -13 18 0 7 -12 28 -27 45 -19 23 -32 30 -47 26 -13 -3 -29 3 -46 18 -14 13 -38 30 -54 37 -18 9 -33 25 -37 42 -9 34 -52 92 -82 111 -31 20 -71 31 -63 18 4 -7 -4 -10 -20 -9 -18 1 -32 -6 -47 -25 -21 -29 -18 -49 6 -30 13 11 96 10 116 -2 6 -4 11 -12 11 -18 0 -6 -8 -4 -18 5 -33 30 -35 18 -4 -17 17 -19 33 -44 37 -55 3 -12 11 -19 16 -16 5 3 6 -1 3 -9 -7 -18 31 -83 63 -109 13 -10 30 -25 37 -33 8 -8 23 -14 33 -14 24 0 60 -26 51 -36 -4 -4 -3 -13 4 -21 6 -8 13 -51 15 -96 4 -75 3 -80 -11 -63 -9 11 -16 23 -16 27 0 4 -7 10 -16 13 -8 3 -12 2 -9 -4 3 -6 2 -10 -4 -10 -5 0 -13 5 -16 10 -9 14 -45 12 -45 -2 0 -9 -3 -9 -12 0 -14 14 -58 16 -58 2 0 -5 -15 -2 -32 8 -64 35 -107 43 -147 26 -41 -17 -171 -24 -171 -9 0 6 -4 4 -9 -4 -17 -27 34 -171 69 -193 12 -8 16 -16 10 -23 -4 -5 -10 -30 -12 -55 -3 -45 -3 -45 31 -48 38 -4 161 26 161 39 0 5 36 6 79 3 50 -3 81 -1 86 5 3 6 0 11 -7 12 -15 0 15 13 55 23 21 5 27 3 27 -10 0 -15 2 -15 22 -2 13 9 22 19 21 24 -2 10 46 38 54 31 2 -3 -5 -8 -16 -12 -12 -3 -21 -11 -21 -16 0 -6 13 -2 29 7 17 10 28 21 25 25 -2 4 4 10 15 14 38 12 79 59 84 97 8 52 54 152 84 179 16 16 22 18 18 8 -7 -20 20 -29 85 -29 34 0 70 12 148 50 100 49 105 51 180 48 57 -2 82 1 97 12 34 26 96 93 123 133 24 36 27 38 66 31 63 -10 158 -43 193 -67 83 -56 71 -141 -40 -284 -79 -102 -90 -126 -85 -190 3 -38 11 -60 28 -78 35 -37 43 -30 14 12 -13 20 -27 47 -30 60 -8 31 3 73 19 73 7 0 26 13 42 30 16 16 34 30 41 30 7 0 28 13 46 30 18 17 26 30 18 30 -9 0 -7 7 7 23 15 15 20 30 16 49 -4 23 -1 28 21 34 14 3 31 13 38 22 10 12 10 14 1 8 -7 -4 -13 -3 -13 3 0 5 4 12 9 16 11 6 12 16 12 101 0 69 -14 115 -33 112 -8 -2 -13 6 -12 19 0 19 -2 20 -14 10 -12 -10 -14 -7 -8 18 3 17 2 37 -4 45 -7 10 -10 11 -10 2 0 -7 -12 2 -28 19 -26 29 -115 69 -153 69 -23 0 -77 64 -84 98 -11 55 -38 126 -58 154 l-21 28 36 38 c50 52 61 80 83 214 4 24 21 55 45 84 34 38 40 52 40 91 0 27 7 55 19 71 10 15 26 50 36 77 24 67 53 95 104 102 42 6 71 25 30 20 -15 -1 -27 6 -34 20 -8 15 -15 19 -26 12z m-1009 -1442 c0 -7 -7 -22 -15 -33 -13 -17 -13 -16 -3 14 13 34 18 40 18 19z m-484 -164 c9 -36 1 -35 -18 3 -14 27 -14 32 -2 27 8 -3 17 -16 20 -30z m341 -55 c-2 -13 -4 -3 -4 22 0 25 2 35 4 23 2 -13 2 -33 0 -45z m-52 2 c10 -11 15 -20 12 -20 -4 0 -16 9 -27 20 -11 11 -16 20 -12 20 5 0 17 -9 27 -20z m-28 -12 c13 -12 23 -27 23 -35 0 -7 6 -13 13 -14 6 0 -1 -5 -17 -10 -17 -4 -32 -6 -35 -4 -2 3 1 5 8 5 8 0 5 10 -8 26 -21 26 -28 54 -14 54 4 0 17 -10 30 -22z m-27 -70 c0 -4 -9 -8 -20 -8 -11 0 -20 4 -20 9 0 4 -11 25 -25 45 l-25 37 45 -38 c25 -20 45 -41 45 -45z m-86 36 c14 -15 26 -30 26 -35 0 -4 3 -14 6 -22 7 -18 -49 -37 -109 -37 -31 0 -39 4 -47 25 -29 76 65 128 124 69z m-149 -24 c-3 -6 -10 -10 -16 -10 -10 0 -12 33 -2 44 9 9 26 -22 18 -34z m370 20 c-11 -5 -27 -9 -35 -9 -9 0 -8 4 5 9 11 5 27 9 35 9 9 0 8 -4 -5 -9z m-432 -47 c15 -18 21 -36 18 -60 -1 -14 -98 -46 -112 -37 -18 11 -9 65 16 89 28 29 56 32 78 8z"/>
<path d="M2121 2398 c-1 -22 15 -31 35 -20 15 8 15 10 0 15 -10 4 -15 3 -11 -3 3 -6 2 -10 -4 -10 -5 0 -12 8 -14 18 -4 15 -5 15 -6 0z"/>
<path d="M520 1252 c-24 -11 -22 -50 5 -118 14 -34 25 -75 26 -91 0 -27 1 -27 9 -5 12 27 24 29 15 2 -7 -23 7 -27 24 -6 10 11 8 19 -5 34 -9 11 -18 33 -20 49 -2 15 -8 29 -13 31 -5 2 -7 10 -4 18 3 8 0 14 -6 14 -6 0 -11 6 -11 14 0 8 -6 16 -12 18 -7 3 -2 7 10 10 12 4 22 2 22 -4 0 -5 4 -6 10 -3 6 4 7 -1 3 -11 -5 -13 -3 -16 10 -11 11 4 14 2 10 -9 -3 -7 0 -14 6 -14 6 0 11 -7 11 -16 0 -9 5 -12 12 -8 8 5 9 2 5 -9 -9 -23 8 -30 24 -10 11 13 11 17 2 20 -7 3 -13 11 -13 19 0 8 -4 14 -10 14 -5 0 -10 7 -10 15 0 8 -7 15 -16 15 -8 0 -13 4 -9 9 6 10 -33 41 -50 40 -5 0 -17 -3 -25 -7z"/>
<path d="M324 923 c-13 -14 -14 -18 -3 -22 7 -2 20 -10 27 -18 17 -16 62 -16 126 1 l49 13 -28 21 c-36 29 -144 32 -171 5z"/>
<path d="M797 904 l-19 -25 29 4 c18 2 29 10 31 23 2 15 1 16 -6 5 -8 -12 -11 -11 -13 2 -3 12 -8 10 -22 -9z"/>
<path d="M695 520 l-30 -8 27 -1 c15 0 30 4 33 9 3 6 5 9 3 9 -2 -1 -16 -5 -33 -9z"/>
</g>
<g id="layer108" fill="#625e66" stroke="none">
<path d="M1929 2433 c-7 -20 -6 -28 8 -40 10 -8 12 -11 4 -7 -9 5 -12 3 -7 -4 11 -19 41 -14 62 10 10 12 13 18 5 13 -11 -6 -13 -4 -8 8 4 11 -3 21 -24 31 -29 14 -30 14 -40 -11z"/>
<path d="M1715 2417 c-29 -36 8 -78 51 -58 32 14 30 43 -3 59 -33 15 -35 15 -48 -1z"/>
<path d="M475 1847 c8 -13 29 -33 45 -46 l31 -22 -23 35 c-13 19 -33 40 -46 45 -21 10 -22 10 -7 -12z"/>
<path d="M521 1251 c-21 -13 -17 -67 11 -143 20 -54 27 -65 38 -55 10 10 12 8 7 -5 -4 -12 -1 -18 8 -18 23 0 27 18 9 39 -10 11 -18 32 -20 48 -2 15 -8 29 -13 31 -5 2 -7 10 -4 18 3 8 0 14 -6 14 -6 0 -11 6 -11 14 0 8 -6 16 -12 18 -7 3 -2 7 10 10 12 4 22 2 22 -4 0 -5 4 -6 10 -3 6 4 7 -1 3 -11 -5 -13 -3 -16 10 -11 11 4 14 2 10 -9 -3 -7 0 -14 6 -14 6 0 11 -8 11 -17 0 -16 1 -16 17 -1 15 16 14 20 -21 53 -21 19 -34 35 -29 35 12 0 -20 20 -32 20 -5 0 -16 -4 -24 -9z"/>
<path d="M627 1136 c-3 -8 -3 -17 0 -20 7 -7 33 13 33 25 0 15 -27 10 -33 -5z"/>
<path d="M643 1105 c-3 -9 -3 -18 0 -21 9 -9 27 6 27 22 0 19 -19 18 -27 -1z"/>
<path d="M667 1073 c-4 -3 -7 -13 -7 -21 0 -12 3 -12 15 -2 8 7 15 16 15 21 0 11 -14 12 -23 2z"/>
<path d="M325 923 c-14 -13 -15 -18 -4 -22 7 -2 20 -10 27 -18 14 -14 92 -19 92 -5 0 4 12 8 26 9 14 0 31 6 38 13 8 8 5 10 -15 6 -20 -3 -26 0 -25 12 2 26 -115 30 -139 5z m75 -12 c0 -5 -9 -11 -20 -14 -11 -3 -20 -1 -20 3 0 5 8 11 18 13 9 3 18 5 20 6 1 0 2 -3 2 -8z"/>
<path d="M651 732 c-34 -17 -44 -28 -56 -67 -6 -19 -7 -19 -26 5 -20 24 -20 24 -16 3 4 -19 2 -20 -17 -12 -17 8 -21 17 -18 40 3 22 0 29 -12 29 -22 0 -33 -29 -15 -42 11 -8 10 -9 -3 -4 -10 3 -18 2 -18 -2 0 -4 -9 -13 -21 -20 -17 -11 -25 -11 -45 3 -13 8 -24 11 -24 6 0 -6 9 -15 20 -21 15 -8 18 -15 11 -29 -5 -9 -11 -35 -13 -57 -3 -38 -2 -39 31 -42 40 -4 161 27 161 41 0 6 30 8 78 5 42 -3 64 -3 47 0 -26 3 -21 6 35 21 36 10 76 21 90 25 24 8 24 8 5 -8 -11 -8 -15 -15 -10 -16 15 0 31 13 37 30 3 8 33 25 66 38 33 13 63 29 66 37 4 11 1 12 -12 5 -16 -9 -170 -50 -189 -50 -5 0 -17 16 -28 36 -17 31 -59 64 -82 64 -4 0 -23 -8 -42 -18z m94 -38 c14 -15 25 -30 25 -35 0 -4 3 -14 6 -22 7 -18 -49 -37 -109 -37 -31 0 -39 4 -47 25 -29 76 69 130 125 69z m-212 -51 c15 -18 21 -36 18 -60 -1 -14 -98 -46 -112 -37 -18 11 -9 65 16 89 28 29 56 32 78 8z m60 -16 c4 3 7 -1 7 -10 0 -24 -27 -21 -33 4 -4 15 -2 18 7 10 7 -6 16 -8 19 -4z"/>
</g>
<g id="layer109" fill="#dd3418" stroke="none">
<path d="M507 2029 c-16 -16 -27 -35 -24 -42 4 -12 67 47 67 64 0 16 -14 9 -43 -22z"/>
<path d="M558 2010 c-27 -27 -58 -50 -69 -50 -10 0 -19 -6 -19 -12 0 -10 31 -13 118 -14 64 -1 132 -4 150 -9 l32 -7 -24 43 c-14 23 -23 46 -20 50 9 15 -49 49 -84 49 -28 0 -43 -9 -84 -50z m152 15 c8 -10 9 -15 2 -15 -7 0 -9 -8 -5 -17 6 -16 4 -16 -16 2 -12 11 -18 21 -12 23 6 2 9 8 5 13 -9 15 13 10 26 -6z m-69 -22 c13 -15 12 -15 -6 -6 -11 6 -27 13 -35 16 -10 4 -8 6 6 6 12 1 28 -6 35 -16z"/>
<path d="M493 1913 c-20 -4 -35 -35 -15 -32 22 4 36 -5 82 -51 47 -46 54 -50 99 -50 43 0 52 4 70 29 12 16 24 43 27 60 6 30 6 31 -32 32 -22 1 -43 0 -49 -1 -60 -12 -112 -11 -124 4 -14 16 -18 17 -58 9z"/>
<path d="M476 1846 c3 -8 22 -27 42 -43 l37 -28 -25 35 c-24 36 -39 50 -52 50 -4 0 -5 -7 -2 -14z"/>
<path d="M581 1759 c13 -8 88 -14 78 -5 -2 2 -24 6 -48 9 -29 4 -40 2 -30 -4z"/>
</g>
<g id="layer110" fill="#536292" stroke="none">
<path d="M1730 1282 c0 -4 6 -14 12 -20 10 -10 10 -14 0 -21 -10 -6 -10 -11 3 -21 11 -9 14 -22 10 -39 -7 -30 -73 -101 -92 -101 -8 0 -24 -7 -37 -15 -16 -11 -52 -16 -120 -16 -85 -1 -101 -4 -124 -24 -15 -12 -34 -25 -42 -28 -10 -3 -11 -6 -2 -6 7 -1 30 8 52 19 32 17 59 20 152 20 l113 0 63 67 c34 36 65 77 68 90 7 25 1 25 119 -4 33 -8 68 -19 78 -24 10 -6 26 -9 35 -7 17 4 -114 51 -175 63 -29 6 -31 8 -22 31 15 41 12 44 -41 44 -27 0 -50 -4 -50 -8z"/>
<path d="M1395 999 c-48 -26 -82 -49 -72 -49 11 0 127 59 127 65 0 9 -16 5 -55 -16z"/>
<path d="M1102 938 c-14 -19 -54 -99 -50 -103 2 -2 17 23 34 56 31 59 35 70 16 47z"/>
<path d="M434 928 c-4 -7 -2 -14 4 -16 7 -2 12 -10 12 -18 0 -16 16 -19 24 -5 8 13 -3 38 -19 45 -8 3 -18 0 -21 -6z"/>
<path d="M652 735 c-22 -10 -38 -27 -48 -52 l-16 -37 -20 25 c-19 23 -20 23 -15 2 4 -19 2 -20 -17 -12 -17 8 -21 17 -18 40 3 22 0 29 -12 29 -22 0 -33 -29 -15 -42 11 -8 10 -9 -3 -4 -10 3 -18 2 -18 -2 0 -4 -9 -13 -21 -20 -17 -11 -25 -11 -45 3 -13 8 -24 11 -24 6 0 -5 10 -15 22 -23 18 -12 20 -18 11 -29 -6 -8 -13 -32 -15 -54 -3 -39 -2 -40 31 -43 39 -4 115 14 149 36 16 10 42 13 95 10 39 -3 59 -3 42 -1 -25 4 -18 9 50 29 95 28 105 29 79 9 -10 -8 -14 -14 -9 -15 15 0 31 13 37 30 3 8 33 25 66 38 33 13 63 30 66 39 5 12 3 13 -6 6 -7 -6 -55 -21 -107 -34 -80 -19 -95 -21 -99 -8 -8 22 -78 89 -93 89 -8 -1 -29 -7 -47 -15z m84 -30 c23 -15 51 -72 41 -82 -16 -15 -109 -32 -132 -23 -41 16 -41 85 -1 112 19 13 70 9 92 -7z m-194 -75 c10 -15 16 -33 13 -42 -8 -19 -49 -38 -90 -41 -28 -2 -30 1 -33 35 -6 72 68 104 110 48z m51 -3 c4 3 7 -1 7 -10 0 -24 -27 -21 -33 4 -4 15 -2 18 7 10 7 -6 16 -8 19 -4z"/>
</g>
<g id="layer111" fill="#83838d" stroke="none">
<path d="M1932 2415 c1 -19 4 -32 7 -30 2 3 10 0 18 -6 9 -9 13 -8 13 0 0 6 6 10 13 9 17 -4 9 34 -11 50 -29 22 -43 15 -40 -23z"/>
<path d="M1723 2413 c-7 -2 -13 -13 -13 -24 0 -26 46 -37 67 -16 21 21 7 40 -24 32 -16 -4 -22 -2 -18 5 7 11 6 11 -12 3z"/>
<path d="M528 1253 c-10 -2 -18 -13 -18 -23 0 -17 4 -18 25 -10 17 6 25 6 25 -1 0 -6 4 -7 10 -4 6 3 7 -1 4 -9 -6 -17 11 -22 20 -7 5 7 -38 63 -46 60 -2 -1 -11 -3 -20 -6z"/>
<path d="M512 1201 c-8 -5 -5 -23 13 -66 14 -33 25 -66 25 -72 0 -17 15 -16 30 2 12 14 7 20 -14 16 -5 -1 -4 4 2 11 16 20 4 61 -17 53 -13 -5 -14 -4 -3 6 16 17 15 29 -4 29 -8 0 -13 4 -9 9 7 13 -8 21 -23 12z"/>
<path d="M595 1189 c-4 -6 -5 -13 -2 -16 7 -7 27 6 27 18 0 12 -17 12 -25 -2z"/>
<path d="M617 1173 c-4 -3 -7 -13 -7 -21 0 -12 3 -12 15 -2 8 7 15 16 15 21 0 11 -14 12 -23 2z"/>
<path d="M630 1135 c0 -9 5 -15 11 -13 6 2 11 8 11 13 0 5 -5 11 -11 13 -6 2 -11 -4 -11 -13z"/>
<path d="M647 1113 c-13 -13 -7 -32 8 -27 8 4 15 12 15 20 0 15 -12 19 -23 7z"/>
<path d="M665 1069 c-4 -6 -5 -13 -2 -16 7 -7 27 6 27 18 0 12 -17 12 -25 -2z"/>
<path d="M580 1044 c0 -9 5 -14 12 -12 18 6 21 28 4 28 -9 0 -16 -7 -16 -16z"/>
<path d="M344 924 c3 -8 -1 -11 -10 -7 -21 8 -17 -7 8 -28 26 -24 80 -26 72 -4 -4 9 -15 13 -30 11 -13 -3 -24 0 -24 5 0 5 6 9 14 9 8 0 17 6 19 13 4 10 6 10 6 0 1 -18 18 -16 25 2 5 13 -2 15 -39 14 -32 -2 -44 -7 -41 -15z"/>
<path d="M434 929 c-4 -7 -3 -14 4 -17 7 -2 12 -10 12 -18 0 -17 16 -19 26 -3 3 6 -3 20 -14 31 -15 16 -21 17 -28 7z"/>
<path d="M652 735 c-38 -17 -63 -66 -55 -108 7 -37 -18 -36 -35 2 -39 88 -155 42 -164 -65 -3 -38 -2 -39 31 -42 39 -4 116 15 146 35 11 7 35 13 55 13 19 0 64 7 99 15 73 18 271 93 271 104 0 4 -46 -5 -102 -18 -83 -21 -102 -23 -106 -11 -8 22 -65 78 -87 84 -11 3 -35 -1 -53 -9z m84 -30 c23 -15 51 -72 41 -82 -16 -15 -109 -32 -132 -23 -41 16 -41 85 -1 112 19 13 70 9 92 -7z m-194 -75 c10 -15 16 -33 13 -42 -8 -19 -49 -38 -90 -41 -28 -2 -30 1 -33 35 -6 72 68 104 110 48z"/>
</g>
<g id="layer112" fill="#a5a5b0" stroke="none">
<path d="M1936 2443 c-11 -11 -6 -40 8 -52 19 -16 48 -2 44 22 -3 20 -40 41 -52 30z"/>
<path d="M1710 2396 c0 -17 21 -36 41 -36 18 0 45 27 36 36 -11 12 -77 12 -77 0z"/>
<path d="M540 1252 c0 -6 -6 -9 -14 -6 -11 4 -15 -4 -14 -35 0 -23 5 -41 10 -41 6 0 8 11 6 25 -4 16 -1 25 8 25 7 0 15 6 17 13 3 7 6 4 6 -6 1 -10 5 -16 10 -13 5 4 12 0 14 -6 3 -7 6 -8 6 -2 1 6 -10 21 -24 34 -14 13 -25 18 -25 12z"/>
<path d="M597 1193 c-12 -12 -7 -25 7 -20 10 4 13 1 9 -9 -6 -15 12 -20 21 -5 7 11 -28 43 -37 34z"/>
<path d="M535 1170 c-5 -8 -4 -15 3 -18 6 -2 8 -10 5 -18 -3 -8 0 -14 6 -14 6 0 8 -7 5 -15 -4 -8 -2 -15 4 -15 6 0 8 -10 4 -22 -5 -21 -4 -22 11 -9 12 9 14 17 7 26 -5 6 -11 20 -13 31 -2 10 -8 30 -14 43 -7 19 -12 21 -18 11z"/>
<path d="M636 1141 c-5 -8 -3 -16 4 -21 7 -4 9 -13 6 -19 -4 -6 -3 -11 3 -11 15 0 25 21 14 29 -6 3 -12 13 -15 21 -3 11 -6 11 -12 1z"/>
<path d="M666 1064 c-4 -10 -1 -14 6 -12 15 5 23 28 10 28 -5 0 -13 -7 -16 -16z"/>
<path d="M373 932 c-13 -2 -23 -8 -23 -13 0 -6 -5 -7 -12 -3 -8 5 -9 2 -5 -10 4 -10 7 -20 7 -22 0 -2 5 -4 10 -4 6 0 10 7 10 15 0 8 6 15 14 15 8 0 17 6 19 13 4 10 6 10 6 0 1 -15 21 -18 21 -4 0 12 -20 18 -47 13z"/>
<path d="M370 883 c0 -6 9 -11 20 -10 11 1 20 7 20 14 0 6 -9 11 -20 10 -11 -1 -20 -7 -20 -14z"/>
<path d="M625 715 c-19 -18 -25 -35 -25 -70 0 -54 -16 -58 -45 -12 -18 28 -26 32 -65 32 -43 0 -46 -2 -64 -40 -11 -22 -23 -48 -28 -59 -7 -14 -6 -16 4 -10 10 6 11 5 1 -8 -29 -35 21 -37 120 -4 40 13 99 26 132 29 33 4 89 16 125 27 88 29 221 83 215 88 -2 2 -48 -6 -101 -19 -94 -23 -97 -23 -108 -5 -34 57 -58 76 -97 76 -29 0 -47 -7 -64 -25z m113 -8 c20 -16 44 -67 38 -82 -6 -16 -108 -39 -135 -30 -22 7 -36 53 -26 85 14 43 85 59 123 27z m-205 -60 c10 -6 19 -25 20 -42 2 -33 -25 -52 -88 -62 l-35 -6 0 42 c0 66 56 103 103 68z"/>
</g>
<g id="layer113" fill="#e9eaf0" stroke="none">
<path d="M1936 2435 c-9 -24 5 -46 27 -43 30 4 31 23 3 41 -21 14 -25 14 -30 2z"/>
<path d="M1716 2386 c3 -8 12 -17 20 -20 19 -7 41 2 48 20 4 11 -4 14 -34 14 -30 0 -38 -3 -34 -14z"/>
<path d="M547 1133 c-3 -5 1 -14 8 -20 11 -10 13 -9 12 7 -1 20 -12 26 -20 13z"/>
<path d="M350 913 c0 -15 -2 -16 -10 -3 -5 8 -10 10 -10 4 0 -6 7 -17 15 -24 13 -11 15 -8 15 14 0 14 -2 26 -5 26 -3 0 -5 -8 -5 -17z"/>
<path d="M631 714 c-27 -22 -31 -32 -31 -75 0 -37 -4 -49 -15 -49 -8 0 -15 6 -16 13 0 6 -4 2 -9 -11 -11 -25 -65 -52 -105 -52 -22 0 -25 4 -25 38 0 49 22 80 63 85 l32 4 -31 1 c-45 3 -74 -29 -74 -79 0 -31 -3 -40 -14 -36 -9 4 -12 0 -9 -12 6 -23 49 -20 135 7 35 11 86 23 113 27 78 9 147 28 152 42 3 6 11 9 19 6 13 -5 178 56 171 63 -1 2 -36 -6 -77 -18 -90 -24 -112 -25 -125 -1 -42 74 -101 92 -154 47z m115 -18 c60 -60 42 -90 -59 -102 -49 -6 -56 -4 -66 14 -18 34 -13 71 14 97 34 35 70 32 111 -9z"/>
</g>


</svg>