<?xml version="1.0" encoding="UTF-8" standalone="no"?>

<svg viewBox="0 0 32 32"><path d="M16 25c-3.402 0-6.196-1.655-8.401-4.37a17.334 17.334 0 01-1.908-2.918c-.313-.6-.52-1.075-.627-1.36a1 1 0 010-.703c.107-.286.314-.76.627-1.36a17.334 17.334 0 011.908-2.92C9.804 8.655 12.598 7 16 7s6.196 1.655 8.401 4.37c.757.93 1.39 1.924 1.908 2.918.313.6.52 1.075.627 1.36a1 1 0 010 .703c-.107.286-.314.76-.627 1.36a17.334 17.334 0 01-1.908 2.92C22.196 23.345 19.402 25 16 25zm-8.535-8.212c.459.881 1.02 1.763 1.686 2.581C11.01 21.655 13.277 23 16 23s4.991-1.345 6.849-3.63A15.356 15.356 0 0024.916 16a15.356 15.356 0 00-2.067-3.37C20.99 10.346 18.723 9 16 9s-4.991 1.345-6.849 3.63A15.356 15.356 0 007.084 16c.106.239.233.503.381.788zM16 21a5 5 0 110-10 5 5 0 010 10zm0-2a3 3 0 100-6 3 3 0 000 6z"></path></svg>
