 <svg version="1.0" xmlns="http://www.w3.org/2000/svg" width="700.000000pt" height="845.000000pt" viewBox="0 0 700.000000 845.000000" preserveAspectRatio="xMidYMid meet">
<metadata>
Created by potrace 1.12, written by Peter Selinger 2001-2015
</metadata>
<g transform="translate(0.000000,845.000000) scale(0.100000,-0.100000)" fill="#fff" stroke="none">
<path d="M4624 8132 c-66 -22 -135 -54 -169 -77 -57 -40 -195 -177 -195 -195
0 -5 -21 -25 -46 -45 -43 -32 -52 -35 -115 -35 -38 0 -89 7 -114 16 -26 8 -58
14 -73 12 -23 -3 -27 -7 -25 -33 1 -16 9 -51 17 -76 28 -86 -8 -120 -87 -81
-23 11 -58 23 -77 27 -19 3 -52 13 -72 22 -31 13 -40 13 -53 3 -27 -22 -18
-78 21 -137 44 -66 42 -85 -11 -95 -22 -5 -59 -13 -83 -18 -32 -8 -51 -7 -77
4 -31 13 -36 13 -56 -3 -20 -16 -21 -21 -10 -53 7 -20 19 -42 27 -49 9 -7 24
-30 35 -51 11 -22 35 -58 53 -82 39 -51 60 -100 52 -121 -7 -19 -62 -19 -96 0
-39 22 -77 19 -96 -10 -15 -23 -14 -28 10 -81 29 -64 31 -84 14 -165 -11 -54
-10 -59 16 -112 32 -63 31 -86 -6 -106 -24 -14 -34 -13 -102 3 -62 16 -78 17
-91 6 -25 -21 -19 -69 15 -100 42 -39 39 -71 -15 -154 -25 -38 -45 -73 -45
-77 0 -16 -87 -58 -181 -88 -150 -48 -192 -95 -248 -275 -25 -82 -89 -161
-171 -213 -70 -45 -213 -190 -241 -246 -12 -23 -30 -52 -40 -65 -10 -13 -25
-47 -35 -75 -9 -29 -23 -61 -30 -72 -24 -38 -38 -141 -39 -275 0 -155 11 -212
63 -318 45 -93 91 -135 177 -161 78 -24 110 -27 232 -16 109 9 111 7 93 -80
-10 -47 -9 -63 5 -106 21 -62 14 -94 -25 -114 -26 -14 -33 -14 -69 1 -30 12
-44 13 -60 4 -30 -15 -34 -46 -17 -120 9 -36 16 -75 16 -87 0 -30 -34 -63 -65
-63 -39 0 -45 -32 -22 -107 25 -83 20 -93 -42 -93 -32 0 -55 -6 -65 -16 -22
-21 -20 -77 4 -124 11 -22 20 -44 20 -49 0 -22 -33 -41 -74 -41 -61 0 -82 -25
-66 -77 16 -48 56 -129 82 -164 24 -33 19 -64 -17 -107 -30 -36 -32 -68 -5
-102 28 -35 25 -67 -10 -107 -16 -18 -30 -43 -30 -54 0 -11 11 -70 24 -132 56
-257 55 -279 -10 -291 -20 -4 -47 -19 -61 -34 -33 -36 -126 -54 -199 -39 -65
13 -95 -3 -127 -71 -30 -63 -62 -68 -118 -18 -42 39 -63 43 -93 21 -29 -22
-79 -18 -120 10 -46 31 -71 32 -92 1 -20 -32 -44 -121 -44 -167 0 -53 -24 -71
-76 -57 -63 17 -92 5 -116 -50 -12 -26 -38 -66 -58 -89 -21 -25 -43 -63 -50
-90 -19 -68 -63 -153 -97 -185 -56 -54 -303 -195 -395 -227 -30 -10 -77 -30
-105 -45 -29 -14 -58 -26 -64 -26 -11 0 -71 -26 -241 -102 -37 -17 -77 -41
-89 -54 -22 -23 -22 -24 -4 -44 14 -16 31 -20 79 -20 87 0 305 19 411 35 50 8
131 17 180 20 214 13 479 38 590 55 66 11 165 22 220 25 106 6 385 53 520 86
44 11 96 21 115 22 33 2 35 0 41 -35 9 -55 -15 -194 -45 -265 -14 -34 -26 -68
-26 -75 0 -35 -151 -305 -181 -323 -17 -11 -9 -62 12 -81 12 -10 45 -35 74
-54 30 -19 105 -71 167 -116 62 -44 146 -97 187 -118 66 -34 81 -38 131 -34
38 3 67 12 89 27 47 34 103 37 222 11 108 -23 177 -23 205 1 8 7 26 34 40 61
13 26 32 52 42 57 10 5 70 13 133 17 63 4 122 11 132 16 30 15 23 96 -13 149
-16 24 -30 51 -30 60 0 8 -16 48 -36 88 -92 187 -64 283 141 487 48 48 132
163 156 214 12 25 29 56 39 70 17 24 69 174 90 256 14 56 76 146 155 224 53
52 67 62 75 50 10 -16 7 -35 -18 -117 -12 -41 -13 -58 -4 -77 14 -31 66 -47
118 -35 22 4 73 16 114 25 106 24 134 17 215 -59 37 -34 72 -71 78 -82 6 -11
14 -83 18 -160 4 -96 14 -176 32 -255 15 -63 38 -176 53 -250 28 -147 38 -171
98 -246 93 -115 226 -194 325 -194 58 0 61 1 92 39 17 22 37 42 45 45 21 8
119 -29 226 -85 111 -57 121 -56 163 11 25 40 26 40 89 40 123 0 153 30 143
141 -4 50 -15 76 -60 152 -107 180 -117 269 -51 427 40 99 95 302 109 410 17
125 19 362 4 480 -35 286 -136 542 -320 815 -18 27 -121 137 -227 245 -272
274 -284 301 -302 675 -5 105 -12 208 -16 231 -4 30 -2 45 10 57 15 15 20 15
62 -3 66 -29 145 -47 295 -70 211 -31 373 -24 467 21 29 14 89 65 156 132 116
116 174 158 245 177 73 19 149 60 154 82 3 12 0 36 -8 53 -10 26 -23 36 -63
49 -97 33 -91 69 14 86 64 11 101 32 124 73 14 25 13 28 -15 58 -35 36 -82 59
-124 59 -66 0 -77 24 -39 89 47 81 -8 128 -138 118 -89 -7 -159 -40 -210 -102
-38 -44 -63 -57 -136 -70 -52 -8 -68 -35 -68 -117 0 -74 -9 -107 -40 -138 -27
-27 -56 -25 -102 7 -46 31 -109 151 -163 311 -30 88 -35 116 -35 194 0 196
-25 256 -171 405 -46 49 -101 111 -120 138 -48 68 -93 181 -114 290 -9 50 -25
126 -35 170 -51 213 -73 482 -48 582 6 27 15 65 20 86 5 21 18 47 29 58 23 23
54 22 148 -5 74 -21 121 -9 152 40 18 29 21 45 16 87 -4 28 -11 55 -17 61 -20
20 -10 35 35 55 40 18 50 28 78 88 53 113 43 164 -61 291 -37 45 -45 64 -53
118 -21 146 -136 292 -275 349 -54 22 -89 29 -159 32 -83 3 -98 1 -201 -35z"></path>
</g>
</svg>