<?xml version="1.0" encoding="iso-8859-1"?>
<!-- Generator: Adobe Illustrator 19.0.0, SVG Export Plug-In . SVG Version: 6.00 Build 0)  -->
<svg version="1.1" id="Capa_1" xmlns="http://www.w3.org/2000/svg" xmlns:xlink="http://www.w3.org/1999/xlink" x="0px" y="0px"
	 viewBox="0 0 512 512" style="enable-background:new 0 0 512 512;" xml:space="preserve">
<g>
	<g>
		<path d="M463.8,238.23V47.134c0-8.284-6.716-15-15-15h-73.367V15c0-8.284-6.716-15-15-15s-15,6.716-15,15v17.134H246.9V15
			c0-8.284-6.716-15-15-15s-15,6.716-15,15v17.134h-98.533V15c0-8.284-6.716-15-15-15s-15,6.716-15,15v17.134H15
			c-8.284,0-15,6.716-15,15v401.667c0,8.284,6.716,15,15,15h223.23C267.233,493.517,307.695,512,352.399,512
			C440.403,512,512,440.404,512,352.4C512,307.695,493.517,267.233,463.8,238.23z M30,62.134h403.8v66.4H30V62.134z M30,433.8
			V158.534h403.8v56.638c-23.849-14.2-51.686-22.372-81.4-22.372c-88.003,0-159.6,71.596-159.6,159.6
			c0,29.714,8.172,57.552,22.372,81.4H30z M352.399,482c-71.461,0-129.6-58.138-129.6-129.6s58.138-129.6,129.6-129.6
			S482,280.939,482,352.4C482,423.862,423.861,482,352.399,482z"/>
	</g>
</g>
<g>
	<g>
		<path d="M400.6,337.4h-33.2v-33.2c0-8.284-6.716-15-15-15s-15,6.716-15,15v48.2c0,8.284,6.716,15,15,15h48.2
			c8.284,0,15-6.716,15-15S408.884,337.4,400.6,337.4z"/>
	</g>
</g>
<g>
</g>
<g>
</g>
<g>
</g>
<g>
</g>
<g>
</g>
<g>
</g>
<g>
</g>
<g>
</g>
<g>
</g>
<g>
</g>
<g>
</g>
<g>
</g>
<g>
</g>
<g>
</g>
<g>
</g>
</svg>
