<?xml version="1.0" encoding="iso-8859-1"?>
<!-- Generator: Adobe Illustrator 19.0.0, SVG Export Plug-In . SVG Version: 6.00 Build 0)  -->
<svg version="1.1" id="Capa_1" xmlns="http://www.w3.org/2000/svg" xmlns:xlink="http://www.w3.org/1999/xlink" x="0px" y="0px"
	 viewBox="0 0 56.912 56.912" style="enable-background:new 0 0 56.912 56.912;" xml:space="preserve">
<path style="fill:#38454F;" d="M48.028,52.98h-3v-8h3c2.209,0,4,1.791,4,4v0C52.028,51.189,50.237,52.98,48.028,52.98z"/>
<path style="fill:#E6E7E8;" d="M33.997,46.141l11.031,1.839v-3l-11.699-3.9c-0.187-0.063-0.394-0.024-0.545,0.103l-2.756,2.297
	l2.229,1.857l-3.643,3.643l3.643,3.643l-2.229,1.857l2.768,2.307c0.144,0.12,0.34,0.157,0.518,0.098l11.714-3.905v-3l-11.031,1.839
	c-0.033-0.199-0.108-0.392-0.262-0.546l-2.293-2.293l2.293-2.293C33.888,46.533,33.964,46.34,33.997,46.141z"/>
<path style="fill:#E6E7E8;" d="M2.639,54.379c-0.052-0.012-0.108-0.011-0.158-0.029C2.531,54.369,2.587,54.367,2.639,54.379z"/>
<path style="fill:#E6E7E8;" d="M3.301,54.354c-0.115,0.033-0.23,0.068-0.346,0.071C3.071,54.422,3.185,54.388,3.301,54.354z"/>
<path style="fill:#E6E7E8;" d="M3.947,53.994c-0.141,0.141-0.302,0.245-0.472,0.318C3.644,54.239,3.806,54.135,3.947,53.994z"/>
<path style="fill:#E6E7E8;" d="M46.944,30.261c3.855-3.855,6.319-8.608,6.937-13.383c0.593-4.582-0.601-8.626-3.363-11.388
	c-2.297-2.297-5.462-3.511-9.154-3.511c-5.433,0-11.131,2.582-15.633,7.084c-5.144,5.144-7.794,11.999-6.917,17.891
	c0.474,3.184-0.164,6.333-1.794,8.868l-0.118,0.183l-0.116,0.18l-0.152,0.152c-0.212,0.212-0.312,0.677-0.252,0.837l0.63,1.153
	l1.165,0.637c0,0,0,0,0,0c0.005,0,0.044,0.01,0.115,0.01c0.279,0,0.58-0.135,0.711-0.266l0.146-0.146l0.173-0.113
	c1.78-1.165,3.861-1.781,6.017-1.781c0.864,0,1.731,0.1,2.578,0.297c1.076,0.251,2.219,0.378,3.397,0.378
	C36.746,37.343,42.443,34.762,46.944,30.261z"/>
<path style="fill:#38454F;" d="M2.922,54.432c0.011,0,0.022-0.006,0.033-0.007c-0.108,0.003-0.212-0.022-0.315-0.046
	C2.733,54.401,2.824,54.432,2.922,54.432z"/>
<path style="fill:#38454F;" d="M3.475,54.312c-0.057,0.024-0.116,0.026-0.174,0.042C3.359,54.338,3.418,54.337,3.475,54.312z"/>
<path style="fill:#38454F;" d="M2.481,54.35c-0.151-0.057-0.292-0.142-0.411-0.261C2.189,54.208,2.33,54.293,2.481,54.35z"/>
<path style="fill:#38454F;" d="M33.765,39.191c0.147-0.019,0.294-0.04,0.441-0.062c0.28-0.042,0.561-0.09,0.842-0.144
	c0.141-0.027,0.281-0.052,0.422-0.082c0.332-0.07,0.665-0.15,0.998-0.237c0.085-0.022,0.17-0.04,0.256-0.064
	c0.418-0.114,0.835-0.241,1.252-0.381c0.106-0.035,0.212-0.076,0.318-0.114c0.312-0.109,0.624-0.224,0.934-0.347
	c0.144-0.057,0.287-0.118,0.43-0.178c0.28-0.117,0.559-0.24,0.837-0.369c0.143-0.066,0.286-0.132,0.429-0.202
	c0.302-0.147,0.603-0.302,0.903-0.463c0.11-0.059,0.22-0.114,0.329-0.174c0.406-0.225,0.81-0.461,1.209-0.71
	c0.07-0.044,0.139-0.093,0.21-0.137c0.328-0.209,0.654-0.425,0.976-0.651c0.131-0.092,0.26-0.188,0.391-0.282
	c0.264-0.192,0.526-0.388,0.786-0.591c0.136-0.106,0.272-0.214,0.407-0.323c0.264-0.214,0.524-0.435,0.783-0.661
	c0.116-0.102,0.234-0.201,0.349-0.305c0.369-0.332,0.733-0.673,1.089-1.03c8.613-8.613,10.213-20.961,3.574-27.6
	c-0.384-0.384-0.792-0.734-1.212-1.063c-0.136-0.106-0.279-0.2-0.419-0.301c-0.294-0.213-0.594-0.417-0.903-0.605
	c-0.169-0.102-0.342-0.197-0.515-0.292c-0.3-0.164-0.606-0.317-0.918-0.459c-0.179-0.081-0.358-0.163-0.541-0.237
	c-0.339-0.137-0.686-0.257-1.036-0.369c-0.161-0.052-0.319-0.11-0.483-0.157c-0.516-0.146-1.04-0.271-1.576-0.364
	c-0.034-0.006-0.069-0.008-0.102-0.013c-0.505-0.085-1.019-0.144-1.539-0.182c-0.181-0.013-0.365-0.015-0.548-0.023
	c-0.413-0.018-0.828-0.029-1.247-0.019c-0.102,0.003-0.204,0.005-0.306,0.009c-0.533,0.022-1.071,0.065-1.612,0.132
	c-0.095,0.012-0.191,0.027-0.287,0.04c-0.565,0.078-1.131,0.173-1.7,0.299c-0.01,0.002-0.021,0.005-0.031,0.008
	c-0.565,0.126-1.131,0.282-1.697,0.456c-0.09,0.027-0.179,0.053-0.269,0.081c-0.549,0.176-1.097,0.375-1.643,0.595
	c-0.104,0.042-0.208,0.085-0.312,0.129c-0.552,0.231-1.102,0.48-1.647,0.755c-0.063,0.032-0.126,0.067-0.189,0.1
	c-0.532,0.274-1.059,0.569-1.581,0.885c-0.058,0.035-0.116,0.067-0.173,0.102c-0.533,0.328-1.059,0.684-1.578,1.056
	c-0.098,0.07-0.196,0.141-0.294,0.212c-0.509,0.375-1.011,0.77-1.503,1.186c-0.084,0.071-0.166,0.145-0.25,0.218
	c-0.511,0.444-1.016,0.903-1.505,1.392c-5.802,5.802-8.42,13.29-7.481,19.6c0.388,2.609-0.071,5.273-1.498,7.492l-0.118,0.183
	c-0.773,0.773-1.105,2.177-0.625,3.136l2.683,2.683c0.128,0.065,0.263,0.116,0.405,0.152c0.048,0.012,0.098,0.02,0.147,0.029
	c0.121,0.022,0.245,0.036,0.371,0.041c0.051,0.002,0.102,0.005,0.154,0.004c0.168-0.004,0.338-0.018,0.507-0.051
	c0.006-0.001,0.012-0.001,0.018-0.002c0.174-0.035,0.346-0.089,0.512-0.152c0.049-0.018,0.095-0.04,0.143-0.061
	c0.121-0.053,0.237-0.112,0.349-0.179c0.044-0.026,0.09-0.052,0.132-0.08c0.145-0.097,0.283-0.202,0.402-0.321
	c0.33-0.216,0.674-0.399,1.025-0.567c0.096-0.046,0.193-0.088,0.29-0.131c0.293-0.128,0.592-0.24,0.895-0.335
	c0.071-0.022,0.14-0.049,0.211-0.07c0.367-0.105,0.74-0.184,1.117-0.242c0.092-0.014,0.184-0.021,0.277-0.033
	c0.305-0.037,0.611-0.059,0.919-0.065c0.063-0.001,0.124-0.013,0.187-0.013c0.044,0,0.088,0.007,0.132,0.008
	c0.225,0.003,0.45,0.019,0.676,0.039c0.108,0.009,0.216,0.013,0.324,0.026c0.332,0.041,0.664,0.096,0.993,0.172
	c0.549,0.128,1.114,0.216,1.684,0.287c0.14,0.017,0.28,0.033,0.422,0.047c0.572,0.056,1.15,0.095,1.737,0.095
	c0.402,0,0.807-0.016,1.215-0.042c0.125-0.008,0.251-0.022,0.377-0.032C33.186,39.256,33.475,39.228,33.765,39.191z M25.339,36.679
	c-2.156,0-4.237,0.616-6.017,1.781l-0.173,0.113l-0.146,0.146c-0.131,0.131-0.433,0.266-0.711,0.266c-0.071,0-0.11-0.01-0.115-0.01
	c-0.001,0-0.001,0,0,0l-1.165-0.637l-0.63-1.153c-0.06-0.16,0.04-0.625,0.252-0.837l0.152-0.152l0.116-0.18l0.118-0.183
	c1.631-2.535,2.268-5.685,1.794-8.868c-0.877-5.892,1.774-12.748,6.917-17.891c4.502-4.502,10.2-7.084,15.633-7.084
	c3.692,0,6.858,1.214,9.154,3.511c2.762,2.762,3.957,6.807,3.363,11.388c-0.618,4.775-3.082,9.528-6.937,13.383
	c-4.501,4.501-10.197,7.082-15.629,7.082c-1.178,0-2.321-0.127-3.397-0.378C27.071,36.779,26.203,36.679,25.339,36.679z"/>
<path style="fill:#8697CB;" d="M17.277,40.744l-2.683-2.683c0.01,0.02,0.015,0.042,0.026,0.062L6.153,46.59l2.599,2.599l8.467-8.467
	C17.237,40.732,17.259,40.734,17.277,40.744z"/>
<path style="fill:#38454F;" d="M7.908,44.835l-6.654,6.654c-0.492,0.492-0.492,1.291,0,1.783l0.816,0.816
	c0.492,0.492,1.291,0.492,1.783,0l6.654-6.654L7.908,44.835z"/>
<path style="fill:#FFFFFF;" d="M37.652,21.98h-4v-2h1.333c0.552,0,1-0.448,1-1s-0.448-1-1-1h-1.333v-4c0-0.552-0.448-1-1-1
	s-1,0.448-1,1v4h-2v-2.333c0-0.552-0.448-1-1-1s-1,0.448-1,1v2.333h-4c-0.552,0-1,0.448-1,1s0.448,1,1,1h4v2h-2
	c-0.552,0-1,0.448-1,1s0.448,1,1,1h2v3c0,0.552,0.448,1,1,1s1-0.448,1-1v-3h2v2c0,0.552,0.448,1,1,1s1-0.448,1-1v-2h4
	c0.552,0,1-0.448,1-1S38.204,21.98,37.652,21.98z M29.652,21.98v-2h2v2H29.652z"/>
<path style="fill:#FFFFFF;" d="M24.028,35.98c-2.206,0-4-2.243-4-5c0-0.552,0.448-1,1-1s1,0.448,1,1c0,1.626,0.916,3,2,3
	c0.552,0,1,0.448,1,1S24.58,35.98,24.028,35.98z"/>
<path style="fill:#FFFFFF;" d="M45.028,47.98l-11.031-1.839c-0.033,0.199-0.108,0.392-0.262,0.546l-2.293,2.293l2.293,2.293
	c0.153,0.153,0.229,0.347,0.262,0.546l11.031-1.839V47.98z"/>
<g>
</g>
<g>
</g>
<g>
</g>
<g>
</g>
<g>
</g>
<g>
</g>
<g>
</g>
<g>
</g>
<g>
</g>
<g>
</g>
<g>
</g>
<g>
</g>
<g>
</g>
<g>
</g>
<g>
</g>
</svg>
