<?xml version="1.0" encoding="iso-8859-1"?>
<!-- Generator: Adobe Illustrator 19.0.0, SVG Export Plug-In . SVG Version: 6.00 Build 0)  -->
<svg version="1.1" id="Capa_1" xmlns="http://www.w3.org/2000/svg" xmlns:xlink="http://www.w3.org/1999/xlink" x="0px" y="0px"
	 viewBox="0 0 55.897 55.897" style="enable-background:new 0 0 55.897 55.897;" xml:space="preserve">
<path style="fill:#E6E6E6;" d="M8.454,42.09c0-2.362-0.954-4.559-2.685-6.187c-0.003-0.003-0.004-0.007-0.007-0.009
	c-1.435,1.664-2.308,3.826-2.308,6.196c0,2.37,0.873,4.532,2.308,6.196c0.003-0.003,0.004-0.006,0.006-0.009
	C7.5,46.648,8.454,44.451,8.454,42.09z"/>
<path style="fill:#E6E6E6;" d="M18.689,34.529c-1.595-1.212-3.578-1.939-5.735-1.939s-4.14,0.727-5.735,1.939
	c2.084,2.002,3.235,4.68,3.235,7.561c0,2.88-1.151,5.559-3.235,7.561c1.595,1.212,3.578,1.939,5.735,1.939s4.14-0.727,5.735-1.939
	c-2.084-2.002-3.235-4.681-3.235-7.561C15.454,39.209,16.605,36.531,18.689,34.529z"/>
<path style="fill:#E6E6E6;" d="M17.454,42.09c0,2.361,0.954,4.559,2.685,6.187c0.003,0.003,0.004,0.006,0.006,0.009
	c1.435-1.664,2.308-3.826,2.308-6.196c0-2.37-0.873-4.532-2.308-6.196c-0.003,0.003-0.004,0.007-0.007,0.009
	C18.407,37.531,17.454,39.728,17.454,42.09z"/>
<path style="fill:#E64C3C;" d="M7.219,34.529c-0.532,0.404-1.021,0.86-1.456,1.365c0.003,0.003,0.004,0.007,0.007,0.009
	c1.731,1.628,2.685,3.825,2.685,6.187c0,2.361-0.954,4.559-2.685,6.187c-0.003,0.003-0.004,0.006-0.006,0.009
	c0.436,0.505,0.925,0.961,1.457,1.365c2.084-2.002,3.235-4.681,3.235-7.561C10.454,39.209,9.303,36.531,7.219,34.529z"/>
<path style="fill:#E64C3C;" d="M20.145,48.286c-0.003-0.003-0.004-0.006-0.006-0.009c-1.731-1.628-2.685-3.826-2.685-6.187
	c0-2.362,0.954-4.559,2.685-6.187c0.003-0.003,0.004-0.007,0.007-0.009c-0.436-0.505-0.925-0.961-1.456-1.365
	c-2.084,2.002-3.235,4.68-3.235,7.561c0,2.88,1.151,5.559,3.235,7.561C19.221,49.247,19.71,48.791,20.145,48.286z"/>
<path style="fill:#CBB292;" d="M54.731,49.365l-5.657,5.657c-1.167,1.167-3.076,1.167-4.243,0l0,0c-1.167-1.167-1.167-3.076,0-4.243
	l5.657-5.657c1.167-1.167,3.076-1.167,4.243,0l0,0C55.898,46.289,55.898,48.199,54.731,49.365z"/>
<g>
	<path style="fill:#CBB292;" d="M49.454,46.207L12.807,2.996c-1.981-2.336-5.109-3.52-8.078-2.773
		C3.712,0.479,2.781,0.94,2.019,1.684C0.725,2.948,0.236,4.713,0.296,6.711c0.07,2.321,1.184,4.492,2.958,5.99l43.2,36.506
		L49.454,46.207z"/>
</g>
<polygon style="fill:#38454F;" points="26.338,32.208 46.454,49.207 49.454,46.207 32.422,26.124 "/>
<g>
</g>
<g>
</g>
<g>
</g>
<g>
</g>
<g>
</g>
<g>
</g>
<g>
</g>
<g>
</g>
<g>
</g>
<g>
</g>
<g>
</g>
<g>
</g>
<g>
</g>
<g>
</g>
<g>
</g>
</svg>
