<?xml version="1.0" encoding="iso-8859-1"?>
<!-- Generator: Adobe Illustrator 19.0.0, SVG Export Plug-In . SVG Version: 6.00 Build 0)  -->
<svg version="1.1" id="Capa_1" xmlns="http://www.w3.org/2000/svg" xmlns:xlink="http://www.w3.org/1999/xlink" x="0px" y="0px"
	 viewBox="0 0 56.964 56.964" style="enable-background:new 0 0 56.964 56.964;" xml:space="preserve">
<path style="fill:#E6E6E6;stroke:#E64C3C;stroke-width:2;stroke-linecap:round;stroke-linejoin:round;stroke-miterlimit:10;" d="
	M53.527,12.23l-6.318-4.86c-11.04-8.492-26.413-8.492-37.453,0l-6.318,4.86c-0.602,0.463-0.955,1.18-0.955,1.939v23.795l8.56,2.334
	c1.62,0.442,3.291,0.666,4.969,0.666h1.328L16.482,35h25l-0.857,5.964h1.085c1.838,0,3.666-0.268,5.427-0.797l7.345-2.203V14.169
	C54.482,13.409,54.129,12.693,53.527,12.23z"/>
<path style="fill:#FFFFFF;stroke:#E64C3C;stroke-width:2;stroke-miterlimit:10;" d="M40.482,31h-24V16.396
	c0-0.771,0.625-1.396,1.396-1.396h21.207c0.771,0,1.396,0.625,1.396,1.396V31z"/>
<path style="fill:none;stroke:#BDC3C7;stroke-width:2;stroke-linecap:round;stroke-linejoin:round;stroke-miterlimit:10;" d="
	M38.482,55.964l-4.472-4.269l-4.528,4.055l-4.645-4.398c-0.196-0.195-0.513-0.195-0.709,0l-4.645,4.612l-3-20.964h25L38.482,55.964z
	"/>
<line style="fill:none;stroke:#BDC3C7;stroke-width:2;stroke-linecap:round;stroke-linejoin:round;stroke-miterlimit:10;" x1="41.482" y1="35" x2="19.482" y2="55.964"/>
<line style="fill:none;stroke:#BDC3C7;stroke-width:2;stroke-linecap:round;stroke-linejoin:round;stroke-miterlimit:10;" x1="16.482" y1="35" x2="38.482" y2="55.964"/>
<line style="fill:none;stroke:#BDC3C7;stroke-width:2;stroke-miterlimit:10;" x1="29.482" y1="34.964" x2="18.482" y2="44.964"/>
<line style="fill:none;stroke:#BDC3C7;stroke-width:2;stroke-miterlimit:10;" x1="28.482" y1="34.964" x2="39.482" y2="44.964"/>
<line style="fill:none;stroke:#BDC3C7;stroke-width:2;stroke-linecap:round;stroke-linejoin:round;stroke-miterlimit:10;" x1="29.482" y1="55.75" x2="18.482" y2="45.964"/>
<line style="fill:none;stroke:#BDC3C7;stroke-width:2;stroke-linecap:round;stroke-linejoin:round;stroke-miterlimit:10;" x1="29.482" y1="55.75" x2="39.482" y2="45.964"/>
<path style="fill:#38454F;" d="M42.982,35h-29c-1.375,0-2.5-1.161-2.5-2.536v0c0-1.375,1.125-2.464,2.5-2.464h29
	c1.375,0,2.5,1.089,2.5,2.464v0C45.482,33.839,44.357,35,42.982,35z"/>
<g>
</g>
<g>
</g>
<g>
</g>
<g>
</g>
<g>
</g>
<g>
</g>
<g>
</g>
<g>
</g>
<g>
</g>
<g>
</g>
<g>
</g>
<g>
</g>
<g>
</g>
<g>
</g>
<g>
</g>
</svg>
