<?xml version="1.0" encoding="iso-8859-1"?>
<!-- Generator: Adobe Illustrator 19.0.0, SVG Export Plug-In . SVG Version: 6.00 Build 0)  -->
<svg version="1.1" id="Capa_1" xmlns="http://www.w3.org/2000/svg" xmlns:xlink="http://www.w3.org/1999/xlink" x="0px" y="0px"
	 viewBox="0 0 54 54" style="enable-background:new 0 0 54 54;" xml:space="preserve">
<g>
	<path style="fill:#D0E8F9;" d="M8.651,39.012l-1.6,1.2c-0.442,0.331-0.532,0.958-0.2,1.4c0.196,0.262,0.496,0.4,0.801,0.4
		c0.209,0,0.419-0.065,0.599-0.2l1.6-1.2c0.442-0.331,0.532-0.958,0.2-1.4C9.72,38.77,9.093,38.679,8.651,39.012z"/>
	<path style="fill:#D0E8F9;" d="M11.364,19.949l-1.415-1.414c-0.391-0.39-1.023-0.39-1.414,0s-0.391,1.024,0,1.415l1.415,1.414
		c0.195,0.195,0.451,0.292,0.707,0.292s0.512-0.098,0.707-0.293C11.755,20.973,11.755,20.34,11.364,19.949z"/>
	<path style="fill:#D0E8F9;" d="M13,26.687c0.553,0,1-0.448,1-1v-2c0-0.552-0.447-1-1-1s-1,0.448-1,1v2
		C12,26.239,12.447,26.687,13,26.687z"/>
	<path style="fill:#D0E8F9;" d="M13,32.687c0.553,0,1-0.448,1-1v-2c0-0.552-0.447-1-1-1s-1,0.448-1,1v2
		C12,32.239,12.447,32.687,13,32.687z"/>
	<path style="fill:#D0E8F9;" d="M7.121,15.707l-1.414-1.414c-0.391-0.391-1.023-0.391-1.414,0s-0.391,1.023,0,1.414l1.414,1.414
		c0.195,0.195,0.451,0.293,0.707,0.293s0.512-0.098,0.707-0.293C7.512,16.73,7.512,16.098,7.121,15.707z"/>
	<path style="fill:#D0E8F9;" d="M49.707,14.293c-0.391-0.391-1.023-0.391-1.414,0l-1.414,1.414c-0.391,0.391-0.391,1.023,0,1.414
		c0.195,0.195,0.451,0.293,0.707,0.293s0.512-0.098,0.707-0.293l1.414-1.414C50.098,15.316,50.098,14.684,49.707,14.293z"/>
	<path style="fill:#D0E8F9;" d="M47.2,39.696l-1.696-1.06c-0.469-0.293-1.086-0.15-1.378,0.318c-0.293,0.468-0.15,1.085,0.317,1.378
		l1.696,1.06c0.165,0.103,0.349,0.152,0.529,0.152c0.333,0,0.659-0.167,0.849-0.47C47.811,40.605,47.668,39.989,47.2,39.696z"/>
	<path style="fill:#D0E8F9;" d="M41,32.687c0.553,0,1-0.448,1-1v-2c0-0.552-0.447-1-1-1s-1,0.448-1,1v2
		C40,32.239,40.447,32.687,41,32.687z"/>
	<path style="fill:#D0E8F9;" d="M45.465,19.95c0.391-0.391,0.391-1.024,0-1.415s-1.023-0.39-1.414,0l-1.415,1.414
		c-0.391,0.391-0.391,1.024,0,1.415c0.195,0.195,0.451,0.293,0.707,0.293s0.512-0.098,0.707-0.292L45.465,19.95z"/>
	<path style="fill:#D0E8F9;" d="M41,26.687c0.553,0,1-0.448,1-1v-2c0-0.552-0.447-1-1-1s-1,0.448-1,1v2
		C40,26.239,40.447,26.687,41,26.687z"/>
	<path style="fill:#D0E8F9;" d="M42.112,36.516L42,36.446v-0.759c0-0.552-0.447-1-1-1s-1,0.448-1,1V37
		c0,0.345,0.178,0.665,0.47,0.848l0.582,0.364c0.165,0.103,0.349,0.152,0.529,0.152c0.333,0,0.659-0.167,0.849-0.47
		C42.723,37.425,42.58,36.809,42.112,36.516z"/>
	<path style="fill:#D0E8F9;" d="M21,36h-2c-0.553,0-1,0.448-1,1s0.447,1,1,1h2c0.553,0,1-0.448,1-1S21.553,36,21,36z"/>
	<path style="fill:#D0E8F9;" d="M26,36h-1c-0.553,0-1,0.448-1,1s0.447,1,1,1h1c0.553,0,1-0.448,1-1S26.553,36,26,36z"/>
	<path style="fill:#D0E8F9;" d="M15,36h-1v-0.313c0-0.552-0.447-1-1-1s-1,0.448-1,1V36.5l-0.148,0.112
		c-0.442,0.331-0.532,0.958-0.2,1.4c0.196,0.262,0.496,0.4,0.801,0.4c0.209,0,0.419-0.065,0.599-0.2L13.333,38H15
		c0.553,0,1-0.448,1-1S15.553,36,15,36z"/>
	<path style="fill:#D0E8F9;" d="M37,36h-2c-0.553,0-1,0.448-1,1s0.447,1,1,1h2c0.553,0,1-0.448,1-1S37.553,36,37,36z"/>
</g>
<path style="fill:#C8D4DB;" d="M52.396,44h-1.791C49.718,44,49,43.282,49,42.396V15H5v27.396C5,43.282,4.282,44,3.396,44H1.604
	C0.718,44,0,43.282,0,42.396V12.378C0,11.065,1.065,10,2.378,10h48.889C52.77,10,54,11.23,54,12.733v29.662
	C54,43.282,53.282,44,52.396,44z"/>
<path style="fill:#ECF0F1;" d="M34.068,33.786L33.268,34l-1-1l0.149-0.557C31.833,32.167,31.189,32,30.5,32
	c-1.243,0-2.368,0.504-3.182,1.318L28,34l-0.366,1.366l-1.366,0.366L26.1,35.564C26.036,35.867,26,36.179,26,36.5
	c0,1.052,0.376,2.007,0.981,2.773L28,39l1,1l-0.179,0.669C29.34,40.878,29.905,41,30.5,41c0.796,0,1.532-0.224,2.181-0.587
	L32,39.732l0.366-1.366L33.732,38l0.681,0.681C34.776,38.032,35,37.296,35,36.5C35,35.476,34.644,34.542,34.068,33.786z
	 M31.366,37.366L30,37.732l-1-1l0.366-1.366L30.732,35l1,1L31.366,37.366z"/>
<polygon style="fill:#38454F;" points="29.366,35.366 29,36.732 30,37.732 31.366,37.366 31.732,36 30.732,35 "/>
<path style="fill:#38454F;" d="M32.366,38.366L32,39.732l0.681,0.681c0.728-0.407,1.325-1.004,1.732-1.732L33.732,38L32.366,38.366z
	"/>
<path style="fill:#38454F;" d="M33.268,34l0.8-0.214c-0.435-0.57-0.996-1.032-1.651-1.342L32.268,33L33.268,34z"/>
<path style="fill:#38454F;" d="M27.634,35.366L28,34l-0.682-0.682c-0.604,0.604-1.034,1.38-1.218,2.246l0.168,0.168L27.634,35.366z"
	/>
<path style="fill:#38454F;" d="M28,39l-1.019,0.273c0.482,0.611,1.107,1.1,1.84,1.396L29,40L28,39z"/>
<g>
</g>
<g>
</g>
<g>
</g>
<g>
</g>
<g>
</g>
<g>
</g>
<g>
</g>
<g>
</g>
<g>
</g>
<g>
</g>
<g>
</g>
<g>
</g>
<g>
</g>
<g>
</g>
<g>
</g>
</svg>
