<?xml version="1.0" encoding="iso-8859-1"?>
<!-- Generator: Adobe Illustrator 19.0.0, SVG Export Plug-In . SVG Version: 6.00 Build 0)  -->
<svg version="1.1" id="Capa_1" xmlns="http://www.w3.org/2000/svg" xmlns:xlink="http://www.w3.org/1999/xlink" x="0px" y="0px"
	 viewBox="0 0 57.197 57.197" style="enable-background:new 0 0 57.197 57.197;" xml:space="preserve">
<g>
	
		<rect x="36.907" y="17.533" transform="matrix(0.7071 -0.7071 0.7071 0.7071 -2.391 32.3936)" style="fill:#BDC3C7;" width="2" height="3.1"/>
	
		<rect x="36.907" y="10.299" transform="matrix(0.7071 0.7071 -0.7071 0.7071 19.4805 -23.3337)" style="fill:#BDC3C7;" width="2" height="3.099"/>
	
		<rect x="53.259" y="19.715" transform="matrix(-0.7071 -0.7071 0.7071 -0.7071 77.5516 73.5526)" style="fill:#BDC3C7;" width="1.5" height="2"/>
	
		<rect x="50.65" y="17.246" transform="matrix(0.7071 -0.7071 0.7071 0.7071 2.1487 41.898)" style="fill:#BDC3C7;" width="2" height="2.218"/>
	<polygon style="fill:#BDC3C7;" points="48.76,14.051 48.407,13.698 46.992,15.112 47.346,15.465 46.992,15.819 48.407,17.233 
		48.76,16.88 49.114,17.233 50.528,15.819 50.174,15.465 50.528,15.112 49.114,13.698 48.76,14.051 48.76,14.051 	"/>
	
		<rect x="44.143" y="17.533" transform="matrix(-0.7071 -0.7071 0.7071 -0.7071 63.5699 64.4975)" style="fill:#BDC3C7;" width="2" height="3.099"/>
	<polygon style="fill:#BDC3C7;" points="41.878,20.933 41.525,21.287 41.171,20.933 39.757,22.347 40.111,22.701 39.757,23.054 
		41.171,24.468 41.525,24.115 41.878,24.468 43.292,23.054 42.939,22.701 43.292,22.347 	"/>
	
		<rect x="43.592" y="25.318" transform="matrix(-0.7071 -0.7071 0.7071 -0.7071 58.4521 76.8483)" style="fill:#BDC3C7;" width="3.099" height="2"/>
	
		<rect x="47.48" y="28.406" transform="matrix(-0.7071 -0.7071 0.7071 -0.7071 61.5403 84.3023)" style="fill:#BDC3C7;" width="1.5" height="2"/>
	
		<rect x="36.908" y="24.769" transform="matrix(-0.7071 -0.7071 0.7071 -0.7071 46.1023 71.7329)" style="fill:#BDC3C7;" width="2" height="3.099"/>
	<polygon style="fill:#BDC3C7;" points="36.057,30.29 35.703,29.936 36.057,29.583 34.643,28.168 34.289,28.522 33.936,28.168 
		32.522,29.583 32.875,29.936 32.522,30.29 33.936,31.704 34.289,31.35 34.643,31.704 	"/>
	
		<rect x="36.18" y="31.717" transform="matrix(0.7071 -0.7071 0.7071 0.7071 -12.3218 35.9043)" style="fill:#BDC3C7;" width="2" height="2.217"/>
	
		<rect x="38.789" y="34.185" transform="matrix(-0.7074 -0.7068 0.7068 -0.7074 42.6414 88.0222)" style="fill:#BDC3C7;" width="1.501" height="2"/>
	
		<rect x="27.412" y="35.065" transform="matrix(-0.7071 -0.7071 0.7071 -0.7071 23.1767 81.229)" style="fill:#BDC3C7;" width="2" height="1.5"/>
	
		<rect x="30.085" y="31.841" transform="matrix(-0.7071 -0.7071 0.7071 -0.7071 29.632 78.5547)" style="fill:#BDC3C7;" width="2" height="2.599"/>
	
		<rect x="29.122" y="25.318" transform="matrix(0.7073 0.7069 -0.7069 0.7073 27.5844 -13.979)" style="fill:#BDC3C7;" width="3.1" height="2"/>
	<polygon style="fill:#BDC3C7;" points="28.822,23.054 28.468,22.701 28.822,22.347 27.407,20.933 27.054,21.287 26.7,20.933 
		25.286,22.347 25.64,22.701 25.286,23.054 26.7,24.468 27.054,24.115 27.407,24.468 	"/>
	
		<rect x="22.85" y="24.606" transform="matrix(-0.7071 -0.7071 0.7071 -0.7071 22.3967 61.087)" style="fill:#BDC3C7;" width="2" height="2.599"/>
	
		<rect x="20.176" y="27.829" transform="matrix(-0.7071 -0.7071 0.7071 -0.7071 15.9413 63.7613)" style="fill:#BDC3C7;" width="2" height="1.5"/>
	
		<rect x="21.055" y="16.451" transform="matrix(0.7071 0.7071 -0.7071 0.7071 18.7264 -10.3071)" style="fill:#BDC3C7;" width="1.5" height="2"/>
	
		<rect x="23.164" y="18.702" transform="matrix(-0.7071 0.7071 -0.7071 -0.7071 55.2594 16.7323)" style="fill:#BDC3C7;" width="2" height="2.218"/>
	
		<rect x="29.672" y="17.533" transform="matrix(0.7071 0.7071 -0.7071 0.7071 22.4772 -16.0989)" style="fill:#BDC3C7;" width="2" height="3.1"/>
	<polygon style="fill:#BDC3C7;" points="33.936,17.233 34.289,16.88 34.643,17.233 36.057,15.819 35.703,15.465 36.057,15.112 
		34.643,13.698 34.289,14.051 33.936,13.698 32.522,15.112 32.875,15.465 32.522,15.819 	"/>
	
		<rect x="29.123" y="10.848" transform="matrix(0.7071 0.7071 -0.7071 0.7071 17.3616 -18.2182)" style="fill:#BDC3C7;" width="3.099" height="2"/>
	
		<rect x="26.834" y="7.761" transform="matrix(0.7069 0.7073 -0.7073 0.7069 14.2797 -16.9422)" style="fill:#BDC3C7;" width="1.5" height="2"/>
	
		<rect x="35.526" y="1.981" transform="matrix(0.7069 0.7073 -0.7073 0.7069 12.739 -24.7832)" style="fill:#BDC3C7;" width="1.5" height="2"/>
	
		<rect x="37.635" y="4.231" transform="matrix(-0.7071 0.7071 -0.7071 -0.7071 69.7301 -18.203)" style="fill:#BDC3C7;" width="2" height="2.218"/>
	
		<rect x="46.403" y="1.602" transform="matrix(0.7071 0.7071 -0.7071 0.7071 15.547 -32.8298)" style="fill:#BDC3C7;" width="2" height="1.5"/>
	
		<rect x="43.729" y="3.727" transform="matrix(0.7071 0.7071 -0.7071 0.7071 16.6547 -30.1559)" style="fill:#BDC3C7;" width="2" height="2.599"/>
	<polygon style="fill:#BDC3C7;" points="41.878,6.462 41.525,6.816 41.171,6.462 39.757,7.876 40.111,8.23 40.111,8.23 
		39.757,8.584 41.171,9.998 41.525,9.644 41.878,9.998 43.292,8.584 42.939,8.23 43.292,7.876 	"/>
	
		<rect x="43.592" y="10.848" transform="matrix(-0.7071 -0.7071 0.7071 -0.7071 68.6844 52.1453)" style="fill:#BDC3C7;" width="3.099" height="2"/>
	
		<rect x="50.964" y="10.962" transform="matrix(0.7071 0.7071 -0.7071 0.7071 23.8898 -33.153)" style="fill:#BDC3C7;" width="2" height="2.599"/>
	
		<rect x="53.638" y="8.837" transform="matrix(0.7071 0.7071 -0.7071 0.7071 22.7822 -35.8269)" style="fill:#BDC3C7;" width="2" height="1.5"/>
</g>
<circle style="fill:#A4E869;" cx="8.822" cy="11.374" r="8"/>
<path style="fill:#88C057;" d="M11.822,11.874c0,2.129,1.028,4.013,2.611,5.199c1.474-1.451,2.389-3.467,2.389-5.699
	c0-1.929-0.683-3.699-1.821-5.08C13.1,7.427,11.822,9.499,11.822,11.874z"/>
<path style="fill:#88C057;" d="M2.643,6.293c-1.137,1.382-1.821,3.151-1.821,5.08c0,2.232,0.916,4.248,2.389,5.699
	c1.582-1.186,2.611-3.07,2.611-5.199C5.822,9.499,4.544,7.427,2.643,6.293z"/>
<path style="fill:#556080;" d="M56.316,8.718c-0.666-1.852-1.684-3.471-3.025-4.813c-1.343-1.342-2.962-2.36-4.813-3.025
	c-3.793-1.364-8.405-1.132-12.894,0.64c-3.272,1.292-6.396,3.367-9.03,6.002c-2.636,2.636-4.712,5.758-6.004,9.031
	c-1.778,4.509-2.006,9.088-0.64,12.894c0.025,0.068,0.058,0.13,0.083,0.198c-1.133,3.027-5.475,7.375-7.85,9.751l-0.707,0.707
	l5.656,5.657l0.707-0.707c2.035-2.034,6.704-6.696,9.753-7.85c0.067,0.025,0.129,0.058,0.196,0.082
	c1.63,0.585,3.408,0.883,5.285,0.883c2.489,0,5.049-0.512,7.608-1.522c3.272-1.292,6.396-3.368,9.03-6.003
	c2.636-2.636,4.712-5.759,6.004-9.031C57.454,17.103,57.682,12.524,56.316,8.718z M17.093,42.933l-2.83-2.831
	c2.649-2.674,5.359-5.576,6.846-8.165c0.52,0.844,1.126,1.624,1.826,2.324c0.702,0.702,1.484,1.311,2.333,1.831
	C22.434,37.73,19.246,40.793,17.093,42.933z M53.816,20.878c-1.192,3.02-3.114,5.907-5.558,8.351
	c-2.443,2.443-5.331,4.365-8.351,5.557c-4.012,1.585-8.102,1.809-11.424,0.636l-0.532-0.217c-0.688-0.281-1.331-0.618-1.926-1.005
	c-0.063-0.042-0.122-0.088-0.185-0.131c-0.231-0.157-0.459-0.318-0.675-0.492c-0.284-0.23-0.559-0.471-0.818-0.73
	c-0.26-0.26-0.502-0.536-0.733-0.821c-0.164-0.205-0.317-0.422-0.467-0.64c-0.052-0.074-0.107-0.145-0.156-0.221
	c-0.187-0.289-0.364-0.588-0.526-0.899c-0.002-0.004-0.005-0.008-0.007-0.013c-0.169-0.324-0.326-0.661-0.468-1.009l-0.216-0.528
	c-1.181-3.338-0.958-7.393,0.634-11.429c1.192-3.02,3.114-5.908,5.558-8.351c2.442-2.443,5.33-4.364,8.351-5.556
	c2.325-0.917,4.638-1.383,6.875-1.383c1.646,0,3.195,0.257,4.608,0.765c1.571,0.565,2.942,1.425,4.075,2.557
	c1.131,1.131,1.991,2.502,2.557,4.075C55.635,12.743,55.416,16.821,53.816,20.878z"/>
<path style="fill:#38454F;" d="M1.584,55.762l-0.151-0.151c-1.911-1.911-1.911-5.009,0-6.92l9.429-9.429c0.8-0.8,2.098-0.8,2.898,0
	l4.173,4.173c0.8,0.8,0.8,2.098,0,2.898l-9.429,9.429C6.593,57.673,3.495,57.673,1.584,55.762z"/>
<g>
</g>
<g>
</g>
<g>
</g>
<g>
</g>
<g>
</g>
<g>
</g>
<g>
</g>
<g>
</g>
<g>
</g>
<g>
</g>
<g>
</g>
<g>
</g>
<g>
</g>
<g>
</g>
<g>
</g>
</svg>
